<svg width="1920" height="408" viewBox="0 0 1920 408" fill="none" xmlns="http://www.w3.org/2000/svg">
<rect x="-0.148438" width="1920" height="410" fill="#D26565"/>
<path d="M1472.7 108.582C1453.32 87.0826 1470.79 25.9026 1481.95 -2H1525.13L1472.7 108.582Z" fill="#5F572D" stroke="#3A2C08" stroke-width="0.3"/>
<path d="M1490.5 158C1471.47 92.0912 1507.92 21.49 1530.83 -7H1549.33C1540.08 5.92329 1526.35 45.7595 1519.5 80.5C1511.66 120.257 1511.86 196.72 1519.5 228C1519.06 239.895 1509.53 223.909 1490.5 158Z" fill="#1A1A1C" stroke="#3A2C08" stroke-width="0.3"/>
<path d="M1397.89 107.791C1388.64 87.5245 1404.5 12.6281 1405.38 10.8659C1406.24 7.34133 1406.62 2.34824 1406.7 0.292266L1460.01 -0.588867C1449.14 20.9989 1426.52 67.7871 1423 82.2377C1418.59 100.301 1425.2 143.476 1420.8 141.274C1416.39 139.071 1407.14 128.057 1397.89 107.791Z" fill="#1A1A1C" stroke="#3A2C08" stroke-width="0.3"/>
<path d="M1546.67 181.364C1528.69 147.529 1539.18 91.4888 1546.67 67.6982L1571.34 91.9294C1572.95 113.37 1575.74 158.455 1573.98 167.266C1572.22 176.078 1574.72 208.826 1576.18 224.099C1573.84 223.953 1564.64 215.2 1546.67 181.364Z" fill="#1A1A1C" stroke="#3A2C08" stroke-width="0.3"/>
<path d="M1573.09 166.385C1567.8 152.64 1555.49 30.0802 1553.73 9.6673C1566.07 -9.71764 1598.2 -5.52258 1598.2 -1.99805V60.2088C1596 168.148 1630.36 217.491 1638.29 232.03C1644.63 243.661 1667.95 263.016 1678.82 271.24C1675.88 272.709 1663.67 272.914 1638.29 261.988C1606.57 248.331 1579.69 183.567 1573.09 166.385Z" fill="#5F572D"/>
<path d="M1678.82 271.24C1675.88 272.709 1663.67 272.914 1638.29 261.988C1606.57 248.331 1579.69 183.567 1573.09 166.385C1567.8 152.64 1555.49 30.0802 1553.73 9.6673C1566.07 -9.71764 1598.2 -5.52258 1598.2 -1.99805C1598.2 1.52649 1598.2 53.0129 1598.2 60.2088C1596 168.148 1630.36 217.491 1638.29 232.03C1644.63 243.661 1667.95 263.016 1678.82 271.24ZM1678.82 271.24C1658.63 261.588 1600.32 212.897 1589.41 170.422" stroke="#3A2C08" stroke-width="0.3"/>
<path d="M1664.45 87.4285C1636.61 70.5107 1627.88 24.7211 1627 5.0425L1650.35 -16.9858L1674.14 -28C1664.01 -0.684864 1671.06 32.3576 1674.14 53.5048C1678.19 81.2605 1715.56 103.729 1709.83 104.17C1704.1 104.611 1699.25 108.576 1664.45 87.4285Z" fill="#663131"/>
<path d="M1709.83 104.17C1704.1 104.611 1699.25 108.576 1664.45 87.4285C1636.61 70.5107 1627.88 24.7212 1627 5.0425L1650.35 -16.9858L1674.14 -28C1664.01 -0.684863 1671.06 32.3576 1674.14 53.5048C1678.19 81.2605 1715.56 103.729 1709.83 104.17ZM1709.83 104.17C1695.88 98.8887 1665.24 81.7548 1654.31 55.4703C1643.38 29.1857 1644.12 6.13257 1645.85 -2.10845" stroke="#3A2C08" stroke-width="0.3"/>
<g style="mix-blend-mode:multiply">
<path d="M1710.84 103.792C1709.08 97.8024 1695.33 94.7778 1679.21 68.1518C1674.08 59.6728 1673.2 48.7939 1671.5 37.5C1668.35 16.583 1668.2 -6.9729 1674.02 -27.9121L1659.15 -23.6637C1657.26 -21.9329 1653.01 -12.3343 1651.12 12.2127C1648.76 42.8965 1675.37 79.9596 1682.45 85.6243C1688.12 90.1561 1702.66 100.094 1710.84 103.792Z" fill="#C4C4C4"/>
</g>
<path d="M1346.81 109.992C1321.79 75.8043 1350.48 22.3195 1367.96 -0.149414H1394.39H1420.83C1407.9 14.2424 1383.64 46.9031 1372.36 71.2224C1361.09 95.5417 1378.83 129.084 1391.31 141.713C1386.9 145.384 1371.84 144.18 1346.81 109.992Z" fill="#663131"/>
<path d="M1394.39 -0.149414H1420.83C1407.9 14.2424 1383.64 46.9031 1372.36 71.2224C1361.09 95.5417 1378.83 129.084 1391.31 141.713C1386.9 145.384 1371.84 144.18 1346.81 109.992C1321.79 75.8043 1350.48 22.3195 1367.96 -0.149414H1394.39ZM1394.39 -0.149414C1381.72 9.60465 1354.54 38.5238 1354.54 78.2079" stroke="#3A2C08" stroke-width="0.3"/>
<g style="mix-blend-mode:multiply">
<path d="M1358.23 93.2657C1354.01 56.4566 1386.62 16.6984 1401.43 -0.0214844H1420.64C1412.27 11.1292 1393.97 35.6631 1387.75 44.593C1379.98 55.7553 1370.13 74.1639 1369.15 86.1214C1368.45 94.5928 1373 110.318 1375.68 117.886C1377.83 123.939 1386.97 136.151 1391.27 141.5L1391.15 142.024C1390.08 143.219 1387.08 143.562 1385.71 143.585C1378.38 140.073 1362.06 126.634 1358.23 93.2657Z" fill="#C4C4C4"/>
</g>
<path d="M1412.55 128.496C1402.68 89.3735 1442.32 25.2928 1463.17 -1.28809H1483.88H1504.58C1501.94 0.621037 1492.65 10.512 1478.2 30.2494C1463.75 49.9868 1428.41 103.971 1412.55 128.496Z" fill="#C9A93A"/>
<path d="M1483.88 -1.28809H1504.58C1501.94 0.621037 1492.65 10.512 1478.2 30.2494C1463.75 49.9868 1428.41 103.971 1412.55 128.496C1402.68 89.3735 1442.32 25.2928 1463.17 -1.28809H1483.88ZM1483.88 -1.28809C1475.35 7.46331 1453.61 34.9813 1436.38 70.4884" stroke="#3A2C08" stroke-width="0.3"/>
<g style="mix-blend-mode:multiply">
<path d="M1412.8 127.804C1410.8 129.093 1411.28 121.305 1411.59 117.861C1415.03 94.684 1440.09 84.6246 1455.26 63.8017C1455.7 63.1767 1456.14 62.5528 1456.58 61.9304C1456.15 62.5639 1455.71 63.1875 1455.26 63.8017C1434.43 93.5452 1415.73 125.909 1412.8 127.804Z" fill="#C4C4C4"/>
</g>
<path d="M1304.31 37.3C1305.72 34.1279 1329.57 10.4254 1341.32 -1.0293H1314.01C1300.35 9.98487 1302.55 41.2651 1304.31 37.3Z" fill="#1A1A1C" stroke="#3A2C08" stroke-width="0.3"/>
<path d="M1347 -3.99995L1377.18 -4C1357.2 16.1667 1334.1 51.4996 1340.5 81.4996C1346.9 111.5 1352.82 121.5 1357.5 127C1355 133.5 1325.53 110.726 1314.5 73C1305 40.5004 1323.82 2.50005 1347 -3.99995Z" fill="#B84040" stroke="#3A2C08" stroke-width="0.3"/>
<path d="M1509.22 202.072C1489.13 143.917 1521.11 42.1464 1539.62 -1.46973H1559.66H1579.71C1567.81 14.8312 1542.26 62.9411 1535.21 124.973C1526.4 202.513 1559.44 261.549 1562.97 270.801C1566.49 280.052 1581.91 298.116 1576.19 296.794C1570.46 295.472 1534.33 274.766 1509.22 202.072Z" fill="#663131"/>
<path d="M1559.66 -1.46973H1579.71C1567.81 14.8312 1542.26 62.9411 1535.21 124.973C1526.4 202.513 1559.44 261.549 1562.97 270.801C1566.49 280.052 1581.91 298.116 1576.19 296.794C1570.46 295.472 1534.33 274.766 1509.22 202.072C1489.13 143.917 1521.11 42.1464 1539.62 -1.46973H1559.66ZM1559.66 -1.46973C1540.59 39.2215 1505.25 132.593 1516.53 180.551C1527.82 228.508 1536.62 247.55 1539.62 251.076" stroke="#3A2C08" stroke-width="0.3"/>
<g style="mix-blend-mode:multiply">
<path d="M1544.25 79.0889C1543.61 80.7411 1542.95 82.5254 1542.27 84.43C1538.29 98.7015 1534.89 131.355 1534.02 141.455C1533 153.204 1536.28 185.965 1537.97 199.295C1539.67 212.626 1551.42 242.788 1556.16 255.893C1560.91 268.997 1574.46 289.67 1574.91 290.913C1575.37 292.156 1578.53 295.206 1577.62 296.448C1576.9 297.443 1573.77 296.423 1572.29 295.789C1565.08 291.826 1546.63 272.137 1530.54 225.079C1515.36 180.697 1530.98 116.018 1542.27 84.43C1542.92 82.1006 1543.58 80.2609 1544.25 79.0889Z" fill="#C4C4C4"/>
</g>
<path d="M1546.23 56.6851C1548.34 34.1281 1579.12 8.51645 1594.25 -1.46973C1599.63 -1.46973 1606.27 -1.45102 1612.86 -1.40366C1631.04 -1.27298 1648.83 -0.924117 1638.74 -0.148026C1621.56 1.17367 1579.27 63.2936 1573.54 73.4266C1567.81 83.5597 1567.81 103.826 1560.32 100.301C1552.83 96.7767 1543.58 84.8814 1546.23 56.6851Z" fill="#B84040"/>
<path d="M1566.21 56.6851C1569.46 45.7457 1583.36 18.8129 1612.86 -1.40366M1612.86 -1.40366C1631.04 -1.27298 1648.83 -0.924117 1638.74 -0.148026C1621.56 1.17367 1579.27 63.2936 1573.54 73.4266C1567.81 83.5597 1567.81 103.826 1560.32 100.301C1552.83 96.7767 1543.58 84.8814 1546.23 56.6851C1548.34 34.1281 1579.12 8.51645 1594.25 -1.46973C1599.63 -1.46973 1606.27 -1.45102 1612.86 -1.40366Z" stroke="#3A2C08" stroke-width="0.3"/>
<g style="mix-blend-mode:multiply">
<path d="M1561 100.5C1567 33 1601.93 8.73111 1621.18 -1.20898H1640.87C1617.71 3.20963 1573.88 72.246 1572.81 75.1128C1572.11 79.2256 1566 96.5 1564.5 99C1563.3 101 1561.67 100.833 1561 100.5Z" fill="#C4C4C4"/>
</g>
<path d="M1175.87 323.444C1186.06 328.342 1209.07 325.485 1219.3 323.444L1221.19 292.149L1220.35 258.161C1220.35 252.931 1184.55 251.637 1181.12 256.045C1177.69 260.453 1163.14 317.322 1175.87 323.444Z" fill="#F5C57C" stroke="black" stroke-width="0.3"/>
<path d="M1369.59 325.253L1364.21 224.386C1364.21 219.156 1394.21 217.437 1397.64 221.845C1401.07 226.253 1431.36 290.499 1431.36 328.763C1431.36 340.066 1379.82 327.294 1369.59 325.253Z" fill="#F5C57C" stroke="black" stroke-width="0.3"/>
<path d="M1311.12 142.225C1316.36 141.787 1326.07 138.973 1328.81 138.426C1333.73 154.831 1319.86 169.019 1296.35 169.019C1277.54 169.019 1268.65 151.156 1267.37 142.225C1270.65 144.047 1279.62 146.599 1282.68 142.225C1285.74 137.85 1287.24 133.475 1287.6 131.835C1291.54 136.647 1305.65 133.84 1312.21 131.835C1309.66 135.48 1305.87 142.662 1311.12 142.225Z" fill="#E3BA7B" stroke="#3A2C08" stroke-width="0.3"/>
<g style="mix-blend-mode:multiply">
<path d="M1299.63 150.428C1293.07 147.147 1287.06 144.96 1287.06 132.383C1290.56 134.57 1303.83 135.117 1310.02 135.117C1309.48 136.393 1308.38 139.273 1308.38 140.585C1308.38 143.866 1321.78 139.329 1328.89 138.235C1329.43 143.157 1320.82 155.788 1321.29 155.788C1319.83 156.517 1307.77 154.498 1299.63 150.428Z" fill="#E1E1E1"/>
</g>
<path d="M1300.94 164.102C1280.82 163.665 1271.42 149.703 1269.23 142.776C1262.67 137.309 1237.84 151.961 1235.21 154.278C1209.51 176.965 1200.34 185.798 1177.53 258.514C1175.46 265.113 1212.38 261.248 1220.58 258.514C1220.72 258.468 1220.85 258.416 1220.97 258.356C1221.48 292.301 1221.71 330.257 1223.03 333.878C1225.22 339.893 1374.65 358.017 1374.65 330.007C1374.65 290.472 1364.97 237.704 1368.8 237.158C1372.63 236.611 1399.5 225.107 1397.93 219.928C1395.31 211.334 1385.57 188.432 1370.94 164.102C1362.44 149.971 1330.45 137.908 1328.81 138.454C1327.17 139.001 1326.1 164.649 1300.94 164.102Z" fill="#1D1D25" stroke="#3A2C08" stroke-width="0.3"/>
<g style="mix-blend-mode:multiply">
<path d="M1232.92 214.951C1231.17 208.389 1225.63 206.75 1223.08 206.75C1219.63 208.857 1212.59 215.634 1212.05 225.889C1211.51 236.143 1200.74 252.981 1202.02 261.441C1205.39 262.258 1216.51 259.927 1219.09 258.947C1219.67 258.726 1220.09 258.407 1220.37 257.967C1220.42 280.285 1220.55 306.105 1220.89 309.551C1221.44 315.019 1220.34 318.628 1220.89 333.939C1221.02 337.449 1235.66 335.579 1240.58 336.673C1244.51 337.548 1263.73 338.86 1264.64 338.86C1250.42 332.298 1235.11 223.153 1232.92 214.951Z" fill="black"/>
</g>
<path d="M1255.47 110.481C1253.78 105.93 1266.37 106.683 1271.29 84.8103C1273.12 76.6724 1268.47 73.2235 1284.3 70.1186C1293.94 68.2266 1319.13 71.8649 1327.07 87.0624C1329.55 91.8164 1318.22 109.971 1319.78 113.678C1319.78 117.98 1317.23 131.836 1306.84 139.491C1298.82 145.4 1285.29 142.471 1282.23 141.132C1268.47 135.117 1267.76 123.286 1268.47 113.677C1265.3 114.609 1256.82 114.122 1255.47 110.481Z" fill="#F5C57C" stroke="#3A2C08" stroke-width="0.3"/>
<g style="mix-blend-mode:multiply">
<path d="M1318.74 98.5055C1321.33 90.1941 1313.12 91.2331 1308.87 95.3888C1310.42 92.2716 1317.18 88.6357 1320.29 88.6357C1323.41 88.6357 1323.93 91.2331 1324.45 94.3498C1324.45 96.9471 1318.73 107.856 1315.1 108.895C1311.46 109.934 1315.62 106.297 1314.06 104.22C1313.31 103.222 1317.7 101.103 1318.74 98.5055Z" fill="#F2D3A5"/>
</g>
<path d="M1270.97 119.804C1270.97 123.44 1283.41 128.115 1287.31 116.924" stroke="#997948" stroke-width="2" stroke-linecap="round" stroke-linejoin="round"/>
<path d="M1277.31 99.488C1277.31 99.488 1279.98 97.7902 1281.25 100.324" stroke="#3A2C08" stroke-width="2" stroke-linecap="round" stroke-linejoin="round"/>
<path d="M1269.65 80.4337C1262.76 68.9057 1274.66 56.0718 1288.79 53.0921C1302.93 50.1123 1308.48 52.0013 1317.06 55.8294C1324.46 59.1285 1344.75 79.57 1338.01 91.4543C1329.39 106.638 1342.5 105.301 1338.01 115.777C1337.26 117.527 1334.38 125.697 1336.08 126.651C1337.78 127.605 1332.85 132.655 1331.72 130.712C1330.6 128.768 1329.42 128.858 1326.53 129.154C1323.63 129.449 1322.48 130.447 1316.37 127.418C1310.25 124.389 1319.18 118.546 1317.06 117.006C1315.37 115.774 1312.94 118.092 1310.53 120.949C1310.38 120.321 1306.55 119.441 1309.89 115.777C1314.06 111.198 1315.38 104.062 1320.89 99.1879C1326.4 94.314 1323.8 89.1816 1318.87 89.1816C1313.95 89.1816 1309.59 95.5371 1308.48 97.0777C1307.36 98.6182 1308.15 100.28 1303.54 100.602C1299.86 100.86 1299.3 94.6106 1299.48 91.4536C1298.88 93.1275 1296.63 95.4151 1292.5 91.1744C1287.33 85.8734 1284.84 76.292 1285.33 72.7045C1285.72 69.8346 1276.76 80.4337 1269.65 80.4337Z" fill="#21052B" stroke="#3A2C08" stroke-width="0.3" stroke-linecap="round" stroke-linejoin="round"/>
<path d="M1309.57 95.7467C1306.39 95.8595 1299.68 94.9651 1297.02 91.408C1293.71 86.9617 1299.24 78.3195 1304.64 83.5408L1306.92 85.7528C1305.87 82.0795 1304.69 73.5656 1308.35 68.8962C1312.94 63.0594 1323.6 60.0926 1318.97 79.1625C1322.21 73.9179 1329.6 64.476 1333.19 68.6653C1336.57 72.5946 1335.12 75.5425 1333.78 76.7293C1336.69 74.4151 1342.55 70.8278 1344.62 73.5173C1347.28 76.9838 1329.97 80.2404 1328.77 83.8612C1331.07 83.493 1335.67 83.1709 1335.62 84.8279C1335.57 86.8992 1332.12 90.6469 1328.16 90.5324C1329.89 92.0939 1330.51 95.7453 1322.69 97.3871C1325.43 91.9189 1321.05 83.1698 1309.57 95.7467Z" fill="white" stroke="#3A2C08" stroke-width="0.3"/>
<g style="mix-blend-mode:multiply">
<path d="M1303.15 94.8701C1303.98 95.2857 1308.34 95.9092 1309.38 95.9092C1315.62 89.6756 1318.21 89.1562 1320.81 89.6757C1323.41 90.1952 1323.41 92.7925 1323.41 93.8314C1323.41 94.6625 1323.06 96.6019 1322.89 97.4676L1327.04 95.9098C1328.08 83.9622 1324.97 80.845 1315.62 81.8837C1308.73 82.6488 1302.11 94.3506 1303.15 94.8701Z" fill="#D3E2F0"/>
</g>
<path d="M1253.38 305.761C1248.7 310.194 1246.92 322.18 1246.61 327.619C1249.07 327.619 1272.78 334.392 1274.01 327.619C1274.33 325.85 1275.49 322.946 1276.87 319.593C1280.78 310.113 1286.45 297.046 1279.86 295.909C1270.93 294.37 1259.23 300.219 1253.38 305.761Z" fill="#F5C57C"/>
<path d="M1279.86 295.909C1270.93 294.37 1259.23 300.219 1253.38 305.761C1248.7 310.194 1246.92 322.18 1246.61 327.619C1249.07 327.619 1272.78 334.392 1274.01 327.619C1274.33 325.85 1275.49 322.946 1276.87 319.593M1279.86 295.909C1276.23 300.373 1269.49 310.563 1271.5 315.618C1273.51 320.674 1275.92 320.375 1276.87 319.593M1279.86 295.909C1286.45 297.046 1280.78 310.113 1276.87 319.593" stroke="black" stroke-width="0.3"/>
<path d="M1228.51 285.309C1233.03 289.044 1243.01 313.565 1247.43 325.358H1164.14C1161.35 321.018 1155.69 309.339 1155.29 297.349C1154.8 282.362 1164.01 284.005 1168.18 284.206C1176.12 284.587 1182.08 306.439 1181.34 298.823C1180.6 291.206 1193.62 277.939 1198.54 281.133C1203.45 284.327 1206.4 303.737 1208.61 303C1210.82 302.263 1212.3 290.469 1212.54 287.03C1212.79 283.59 1222.86 280.642 1228.51 285.309Z" fill="#CCA263" stroke="black" stroke-width="0.3"/>
<path d="M1534.8 323.76H1137.81V334.487H1534.8V323.76Z" fill="#C26868" stroke="black" stroke-width="0.3"/>
<path d="M1534.88 334H1137.88V344H1534.88V334Z" fill="#975252" stroke="black" stroke-width="0.3"/>
<path d="M1534.88 342H1137.88V417H1534.88V342Z" fill="#582020" stroke="black" stroke-width="0.3"/>
<path d="M1217.22 277.194C1223.9 276.408 1227.7 282.436 1228.77 285.548C1229.5 287.259 1230.73 326.58 1226.31 331.002C1221.89 335.425 1212.76 335.889 1206.52 331.002C1201.05 326.716 1205.65 297.531 1206.52 290.954C1207.61 282.642 1208.86 278.177 1217.22 277.194Z" fill="#F5C57C" stroke="black" stroke-width="0.3"/>
<path d="M1188.05 273.666C1194.74 272.879 1198.54 278.907 1199.6 282.02C1200.34 283.73 1200.86 326.577 1196.43 330.999C1192.01 335.422 1182.88 335.886 1176.64 330.999C1171.17 326.713 1176.49 294.003 1177.36 287.426C1178.45 279.114 1179.7 274.649 1188.05 273.666Z" fill="#F5C57C" stroke="black" stroke-width="0.3"/>
<path d="M1160.46 282.375C1167.14 281.588 1170.94 287.616 1172.01 290.729C1172.74 292.439 1171.19 328.344 1166.77 332.767C1162.34 337.189 1155.02 337.654 1148.78 332.767C1143.31 328.481 1148.89 302.712 1149.76 296.135C1150.85 287.823 1152.1 283.358 1160.46 282.375Z" fill="#F5C57C" stroke="black" stroke-width="0.3"/>
<path d="M1496.84 199.854C1499.42 199.854 1503.17 199.856 1503.17 199.856C1503.17 200.599 1503.35 253.439 1503.65 280.232M1495.6 234.235V280.232M1459.83 272.179V280.232M1513.75 263.83C1519.89 265.482 1534.38 270.32 1537.73 277.754C1541.91 287.046 1531.53 291.692 1529.67 295.254C1527.81 298.816 1528.74 304.546 1529.67 308.418C1530.6 312.29 1526.42 315.852 1518.37 315.542C1511.93 315.294 1513.52 314.51 1515.12 314.148M1513.75 267.455C1515.14 268.075 1525.8 269.546 1524.87 276.825C1523.94 284.104 1523.79 289.059 1515.12 292.157" stroke="#287080" stroke-width="2"/>
<path d="M1516.6 323.74V280.149H1410.54V309.36H1391.66V323.74H1516.6Z" fill="#000D39"/>
<path d="M1499.52 309.36H1410.54M1410.54 309.36H1391.66V323.74H1516.6V280.149H1410.54V309.36Z" stroke="black" stroke-width="0.3"/>
<path d="M1425.53 309.179V280.331H1410.66V309.179H1425.53Z" fill="#FF5F5F"/>
<path d="M1496.69 239.441V174.551H1481.82V239.441H1496.69Z" fill="#000D39" stroke="black" stroke-width="0.3"/>
<path d="M1482.52 239.441V174.551H1477.31V239.441H1482.52Z" fill="#FF5F5F" stroke="black" stroke-width="0.3"/>
<path d="M1514.96 272.803V261.343H1450.07V272.803H1514.96Z" fill="#000D39" stroke="black" stroke-width="0.3"/>
<path d="M1453.75 272.803V261.343H1441.19V272.803H1453.75Z" fill="#FF5F5F" stroke="black" stroke-width="0.3"/>
<path d="M904.381 410.912C910.381 351.499 917.881 339.499 920.381 320.5C931.574 280.394 1085.38 292.153 1085.38 307.5C1085.38 322.847 1099.38 376.055 1105.38 410.912C1107.7 424.413 1033.49 418.011 1018.87 414.357C1012.73 418.742 913.106 433.214 904.381 410.912Z" fill="#1D1D25"/>
<path d="M1018.87 414.357C1012.73 418.742 913.106 433.214 904.381 410.912C910.381 351.499 917.881 339.499 920.381 320.5C931.574 280.394 1085.38 292.153 1085.38 307.5C1085.38 322.847 1099.38 376.055 1105.38 410.912C1107.7 424.413 1033.49 418.011 1018.87 414.357ZM1018.87 414.357C1026.54 408.876 1018.87 374.5 1018.87 356" stroke="black" stroke-width="0.3"/>
<path d="M996.618 126.856C1007.29 117.122 1001.04 120.705 1005.09 121.018C1009.25 118.144 1023.38 115.184 1062.62 132.599C1089.97 144.737 1112.43 181.925 1124.74 210.398C1120.14 225.45 1104.27 251.263 1094.85 258.249C1092.87 258.249 1084.41 253.663 1072.17 248.896C1072.46 259.926 1104.24 329.758 1081.6 337.594C1058.96 345.431 917.128 340.83 917.709 332.994C918.173 326.725 923.928 275.301 927.146 268.013C927.549 266.872 929.067 260.022 929.067 256.689C929.067 160.132 976.317 136.367 996.618 126.856Z" fill="#7FBC8C"/>
<path d="M1072.17 248.896C1072.46 259.926 1104.24 329.758 1081.6 337.594C1058.96 345.431 917.128 340.83 917.709 332.994C918.173 326.725 923.928 275.301 927.146 268.013C927.549 266.872 929.067 260.022 929.067 256.689C929.067 160.132 976.317 136.367 996.618 126.856C1007.29 117.122 1001.04 120.705 1005.09 121.018C1009.25 118.144 1023.38 115.184 1062.62 132.599C1089.97 144.737 1112.43 181.925 1124.74 210.398C1120.14 225.45 1104.27 251.263 1094.85 258.249C1092.87 258.249 1084.41 253.663 1072.17 248.896ZM1072.17 248.896C1072.41 243.187 1073.67 239.045 1074.64 231.595" stroke="black" stroke-width="0.3"/>
<g style="mix-blend-mode:multiply">
<path d="M1074.65 231.435C1078.8 236.572 1094.05 247.334 1101.28 251.921C1100.44 253.083 1095.47 258.312 1094.59 258.253C1093.71 258.195 1072.81 248.965 1072.46 248.907C1072.18 248.86 1073.04 252.148 1073 253.57C1078.34 271.834 1090.83 306.215 1089.91 319.637C1089.15 330.755 1087.17 336.501 1079.51 338.406C1089.91 298.741 1070.17 261.149 1072.46 244.999C1073.51 237.574 1074.65 232.205 1074.65 231.435Z" fill="#C4C4C4"/>
</g>
<path d="M1045.86 115.177C1048.15 115.659 1052.84 118.488 1054.89 119.843C1052.79 121.649 1047.82 129.325 1043.9 129.776C1040.77 130.138 1017.16 117.135 1005.67 110.512C1017.56 105.695 1043 114.575 1045.86 115.177Z" fill="#7FBC8C" stroke="black" stroke-width="0.3"/>
<path d="M1071.65 106.093C1070.48 70.6493 1066.39 65.9001 1065.66 64.9199C1053.64 37.7099 1022.76 53.8883 1017.61 61.4876C1012.46 69.0869 1010.25 114.633 1009.76 122.232C1009.27 129.831 1051.44 133.838 1051.44 129.425C1051.44 125.895 1055 123.51 1055 113.215C1057.37 112.133 1071.87 112.635 1071.65 106.093Z" fill="#F8AC9E"/>
<path d="M1051.44 113.947C1051.95 114.165 1053.11 114.083 1055 113.215M1055 113.215C1057.37 112.133 1071.87 112.635 1071.65 106.093C1070.48 70.6493 1066.39 65.9001 1065.66 64.9199C1053.64 37.7099 1022.76 53.8883 1017.61 61.4876C1012.46 69.0869 1010.25 114.633 1009.76 122.232C1009.27 129.831 1051.44 133.838 1051.44 129.425C1051.44 125.895 1055 123.51 1055 113.215Z" stroke="black" stroke-width="0.3"/>
<path d="M1068.97 104.649C1068.53 107.377 1059.54 108.638 1058.91 104.963" stroke="black"/>
<path d="M1041.39 75.214C1040.66 81.5876 1032.39 85.7019 1031.05 83.2506C1030.17 81.6478 1030.08 78.0233 1022.82 78.0233C1013.75 78.0233 1020.55 96.0497 1021.53 97.2754C1022.52 98.5011 1023.5 103.894 1017.37 103.649C1011.24 103.404 1004.13 99.4816 1004.38 75.214C1004.62 50.9464 1015.56 39.2987 1028.18 33.2066C1062.97 16.3999 1074.24 45.5516 1087.23 46.7775C1086.74 67.8594 1071.54 61.4858 1074.73 65.6532C1077.92 69.8205 1071.71 81.8323 1070.24 82.0774C1068.77 82.3226 1069.99 75.214 1066.56 68.5948C1063.13 61.9756 1057.33 63.6926 1044.33 62.9571C1031.34 62.2217 1042.13 68.8405 1041.39 75.214Z" fill="#4F5167" stroke="black" stroke-width="0.3"/>
<g style="mix-blend-mode:multiply">
<path d="M1033.91 145.05L1040.51 140.964L998.151 125.984C997.99 126.226 997.355 126.744 996.101 126.889L988.488 130.774L1033.91 145.05Z" fill="#C4C4C4"/>
</g>
<g style="mix-blend-mode:multiply">
<path d="M1063.59 139.896L1069.49 136.147L1062.06 132.238L1054.98 137.623L1063.59 139.896Z" fill="#C4C4C4"/>
</g>
<path d="M1055.13 137.698L1046.26 131.089L1054.83 119.754L1062.15 132.083L1055.13 137.698Z" fill="#C3EECC" stroke="black" stroke-width="0.3"/>
<path d="M997.574 126.232L1005.53 110.557L1043.41 131.089L1040.62 140.973L997.574 126.232Z" fill="#C3EECC" stroke="black" stroke-width="0.3"/>
<path d="M1037.71 202.578C1037.44 196.956 1031.83 190.226 1029.06 187.564C1026.71 187.677 1025.12 187.205 1023.43 187.893C1021.74 188.581 1020.78 182.09 1032.74 185.22C1044.69 188.351 1046.35 191.045 1051.35 187.46C1056.35 183.875 1054.31 182.319 1060.02 183.922C1065.74 185.525 1068.18 182.562 1068.52 178.912C1068.79 175.992 1070.4 182.031 1071.17 185.415C1071.79 190.597 1072.2 201.433 1068.93 203.33C1064.84 205.702 1041.42 211.68 1037.71 202.578Z" fill="#44BE50" stroke="black" stroke-width="0.3"/>
<path d="M1036.56 171.86C1034.97 173.745 1035.57 181.489 1036.07 185.125C1043.69 193.117 1072.1 190.095 1068.68 177.582C1065.26 165.068 1057.11 167.83 1053.22 171.383C1049.33 174.937 1045.4 175.978 1040.85 174.463C1036.3 172.949 1038.55 169.503 1036.56 171.86Z" fill="#8BDB93" stroke="black" stroke-width="0.3"/>
<path d="M1046.08 201.408C1040.29 199.612 1037.01 203.379 1036.09 205.487C1036.61 211.594 1051.79 219.872 1061.12 216.91C1070.45 213.947 1075.25 199.203 1074.14 195.442C1073.25 192.434 1072.94 186.658 1072.9 184.146C1067.8 186.79 1070.41 191.482 1069.4 195.547C1068.39 199.612 1068.01 196.958 1063.13 196.001C1058.24 195.044 1058.43 198.618 1056.57 201.626C1054.71 204.634 1053.32 203.653 1046.08 201.408Z" fill="#596282" stroke="black" stroke-width="0.3"/>
<path d="M1065.72 320.324C1070.07 317.409 1070.06 309.9 1069.5 306.51C1071.84 300.722 1076.87 300.895 1079.1 301.705C1077.58 302.622 1075.36 306.574 1078.67 315.038C1082.81 325.618 1073.16 322.444 1067.77 325.355C1062.38 328.266 1062.43 335.358 1060.6 332.191C1058.78 329.024 1060.27 323.969 1065.72 320.324Z" fill="#C06EF4" stroke="black" stroke-width="0.3"/>
<path d="M1057.83 324.268C1061.56 319.473 1067.08 312.372 1069.37 309.421C1070.44 305.072 1066.14 301.495 1062.91 307.968C1060.33 313.146 1050.51 323.635 1045.93 328.232C1048.34 328.908 1054.09 329.063 1057.83 324.268Z" fill="#8890D3" stroke="black" stroke-width="0.3"/>
<path d="M1209.98 202.65C1205.85 202.556 1199.26 208.624 1198.55 209.087C1196.7 197.573 1204.69 189.694 1218.81 184.644C1230.11 180.604 1240.76 180.192 1244.68 180.491C1243.22 181.143 1239.58 182.996 1236.64 185.193C1232.96 187.94 1233.46 194.845 1228.88 199.738C1224.3 204.631 1214.1 202.743 1209.98 202.65Z" fill="#FFC188" stroke="black" stroke-width="0.3"/>
<g style="mix-blend-mode:multiply">
<path d="M1205.09 199.816C1202.61 200.828 1199.72 206.38 1198.59 209.03C1201.12 205.359 1208.62 202.739 1209.82 202.66C1211.02 202.581 1214.34 202.771 1215.44 202.94C1216.54 203.11 1223.26 203.559 1227.39 201.053C1231.51 198.547 1233.8 189.274 1235.05 187.168C1236.05 185.483 1241.61 181.943 1244.27 180.383C1237.3 182.47 1227.67 189.594 1223.1 194.066C1218.53 198.537 1208.19 198.551 1205.09 199.816Z" fill="#D7B89C"/>
</g>
<path d="M1090.35 209.511C1085.16 212.652 1083.31 222.181 1083.03 226.553C1083.41 237.817 1112.19 232.761 1115.18 230.69C1118.16 228.619 1113.53 219.862 1111.16 211.456C1108.8 203.05 1111.85 189.663 1119.34 186.609C1125.33 184.165 1145.17 160.31 1154.34 148.687C1154.74 146.182 1154.9 140.239 1152.36 136.507C1149.17 131.842 1144.43 118.655 1147.12 110.104C1149.81 101.554 1166.6 93.6383 1166.52 87.7059C1166.46 82.96 1161.28 72.9479 1158.7 68.535C1160.21 75.3724 1152.12 86.3402 1143.52 97.092C1134.91 107.844 1127.54 105.953 1123.46 114.221C1119.37 122.488 1119.47 140.98 1115.07 146.393C1110.68 151.807 1098.63 162.472 1094.72 163.854C1090.81 165.236 1093.3 181.258 1095.88 189.15C1098.47 197.042 1096.84 205.586 1090.35 209.511Z" fill="#596282" stroke="black" stroke-width="0.3"/>
<g style="mix-blend-mode:multiply">
<path d="M1143.95 107.17C1150.88 101.85 1159.89 85.5014 1163.52 77.9922C1164.59 80.6028 1166.7 86.0523 1166.62 86.9653C1166.53 88.1067 1165.84 90.3043 1162.97 93.3881C1160.11 96.4719 1150.04 105.224 1148.18 107.782C1146.32 110.34 1146.2 114.743 1146.42 117.556C1146.64 120.369 1149.32 130.77 1149.91 131.924C1150.49 133.078 1152.53 136.657 1153.27 138.039C1154.01 139.422 1154.58 144.238 1154.65 145.97L1154.65 146.083C1154.72 147.739 1154.75 148.584 1154.21 149.111C1153.65 149.651 1140.89 172.62 1124.64 182.832C1108.4 193.045 1112.21 198.19 1110.94 201.199C1109.68 204.209 1110.87 209.8 1112.46 215.229C1114.05 220.657 1115.84 226.941 1116.02 229.672C1116.2 232.404 1104.23 241.649 1102.07 231.001C1099.9 220.352 1100.41 184.928 1115.7 180.402C1131 175.876 1137.74 162.219 1138.88 152.405C1140.01 142.591 1135.29 113.821 1143.95 107.17Z" fill="#C4C4C4"/>
</g>
<path d="M1063.29 135.287C1062.27 141.323 1063.11 146.416 1063.65 148.207C1064.1 150.27 1060.87 155.522 1050.82 151.195C1040.76 146.868 1044.86 135.221 1048.54 128.383C1050.79 124.197 1048.91 118.687 1046.81 114.907C1045.7 113.616 1045.13 112.571 1044.95 112.006C1045.51 112.752 1046.17 113.749 1046.81 114.907C1047.91 116.17 1049.52 117.668 1051.81 119.182C1057.58 123.007 1064.57 127.742 1063.29 135.287Z" fill="#596282" stroke="black" stroke-width="0.3"/>
<g style="mix-blend-mode:multiply">
<path d="M1057.4 136.729C1060.48 131.433 1049.52 118.764 1047.67 116.356C1048.69 117.054 1051.54 118.947 1054.67 120.926C1058.59 123.401 1062.2 128.328 1062.89 130.012C1063.57 131.696 1063.48 133.26 1063.28 135.962C1063.07 138.665 1062.83 142.181 1062.97 143.943C1063.11 145.706 1063.51 147.216 1063.75 148.353C1064 149.489 1063.18 150.912 1061.26 152.059C1059.73 152.977 1056.82 152.766 1055.55 152.546C1050.67 149.952 1054.32 142.024 1057.4 136.729Z" fill="#C4C4C4"/>
</g>
<path d="M1093.18 122.627C1097.75 118.962 1093.44 114.188 1091.66 112.711C1106.31 117.271 1103.88 136.106 1101.91 141.965C1099.95 147.824 1091.83 157.88 1096.13 165.677C1100.44 173.474 1091.48 215.905 1086.51 227.485C1081.54 239.066 1078.75 300.755 1070.26 301.972C1061.76 303.19 1052.87 275.207 1053.2 273.248C1053.52 271.289 1060.33 259.382 1058.66 255.987C1056.99 252.593 1048.03 230.962 1050.4 220.583C1052.77 210.204 1075.82 187.17 1079.85 182.577C1083.87 177.984 1076.72 159.409 1074.01 148.992C1071.31 138.576 1087.46 127.208 1093.18 122.627Z" fill="#D2A2F8"/>
<path d="M1180.5 132.101C1163.41 138.089 1158.75 152.353 1157.32 155.044C1144.26 174.701 1149.38 188.196 1164.28 184.084C1179.18 179.972 1181.89 172.698 1179.85 157.373C1178.22 145.113 1189.11 134.16 1194.76 130.216C1195.7 128.849 1194.16 127.312 1180.5 132.101Z" fill="#D2A2F8"/>
<path d="M1093.18 122.627C1097.75 118.962 1093.44 114.188 1091.66 112.711C1106.31 117.271 1103.88 136.106 1101.91 141.965C1099.95 147.824 1091.83 157.88 1096.13 165.677C1100.44 173.474 1091.48 215.905 1086.51 227.485C1081.54 239.066 1078.75 300.755 1070.26 301.972C1061.76 303.19 1052.87 275.207 1053.2 273.248C1053.52 271.289 1060.33 259.382 1058.66 255.987C1056.99 252.593 1048.03 230.962 1050.4 220.583C1052.77 210.204 1075.82 187.17 1079.85 182.577C1083.87 177.984 1076.72 159.409 1074.01 148.992C1071.31 138.576 1087.46 127.208 1093.18 122.627Z" stroke="black" stroke-width="0.3"/>
<path d="M1180.5 132.101C1163.41 138.089 1158.75 152.353 1157.32 155.044C1144.26 174.701 1149.38 188.196 1164.28 184.084C1179.18 179.972 1181.89 172.698 1179.85 157.373C1178.22 145.113 1189.11 134.16 1194.76 130.216C1195.7 128.849 1194.16 127.312 1180.5 132.101Z" stroke="black" stroke-width="0.3"/>
<g style="mix-blend-mode:color-burn">
<path d="M1088.72 155.411C1093.15 148.019 1089.67 133.772 1087.37 127.573C1074.13 137.781 1073.92 145.865 1073.57 147.168C1073.22 148.453 1076.71 158.149 1077.36 159.961L1077.39 160.035C1077.96 161.635 1080.23 171.176 1080.75 174.52C1081.26 177.863 1080.7 181.413 1079.44 182.856C1078.42 184.011 1069.85 193.543 1065.69 198.165C1065.58 202.372 1075.66 207.484 1082.11 200.276C1090.62 190.776 1085.06 175.989 1083.98 172.694C1082.9 169.398 1083.18 164.652 1088.72 155.411Z" fill="#B6A4A4"/>
</g>
<g style="mix-blend-mode:multiply">
<path d="M1165.75 165.539C1173.15 164.17 1172.59 142.406 1182.99 142.955C1183.81 142.078 1180.64 148.246 1180.26 150.016C1179.9 151.646 1180.04 157.49 1180 158.857C1179.96 160.223 1180.54 164.034 1180.56 166.65C1180.57 169.267 1180.05 172.028 1177.05 177.526C1174.04 183.025 1154.83 188.467 1153.25 182.214C1151.67 175.961 1153.75 167.76 1165.75 165.539Z" fill="#E5D5F0"/>
</g>
<path d="M1187.48 167.463C1184.61 171.445 1179.75 172.629 1177.68 172.723C1167.2 176.297 1142.07 195.966 1137.62 209.161C1133.17 222.357 1123.74 218.895 1112.95 225.829C1104.31 231.377 1094.2 252.304 1090.22 262.074C1091.72 263.336 1096.45 265.35 1103.37 263.312C1112.03 260.764 1122.39 249.654 1123.19 243.706C1124 237.759 1134.89 230.364 1148.68 226.984C1162.47 223.604 1176.6 204.497 1178.35 196.755C1180.11 189.013 1188.16 175.334 1191.92 171.129C1195.69 166.924 1205.97 165.96 1220.68 152.09C1232.45 140.994 1231.04 130.536 1228.87 126.694C1230.06 139.27 1214.32 140.634 1206.21 144.507C1198.09 148.379 1191.07 162.486 1187.48 167.463Z" fill="#431436" stroke="black" stroke-width="0.3"/>
<path d="M1176.37 228.052C1161.82 241.408 1147.68 256.897 1142.43 262.972C1124.07 279.596 1111.36 276.351 1101.07 279.007C1090.77 281.662 1085.79 266.696 1092.91 262.105C1100.03 257.515 1172.65 196.554 1179.36 191.991C1186.07 187.428 1215.55 181.863 1212.58 182.511C1209.62 183.159 1197.1 189.671 1194.87 199.711C1192.65 209.751 1194.57 211.356 1176.37 228.052Z" fill="#825959" stroke="black" stroke-width="0.3"/>
<g style="mix-blend-mode:multiply">
<path d="M1150.49 239.673C1138.37 257.367 1103.61 267.741 1092.44 274.549C1091.48 278.599 1100.08 279.548 1101.3 279.049C1102.52 278.55 1141.17 263.732 1143.8 261.711C1145.42 260.455 1151.69 252.808 1160.34 243.825C1165.62 238.343 1172.07 232.783 1178.09 226.657C1193.97 210.49 1192.96 208.708 1193.27 207.904C1193.52 207.261 1194.84 200.874 1195.47 197.76C1198.37 189.083 1207.62 184.023 1211.88 182.577C1209.78 183.206 1203.36 185.23 1194.44 188.296C1183.29 192.128 1169.79 211.496 1150.49 239.673Z" fill="#EABFBF"/>
</g>
<path d="M1097.43 276.595C1099.5 274.291 1104.69 269.695 1108.84 269.753C1114.02 269.826 1122.47 254.201 1135.67 257.868C1148.88 261.534 1146.65 266.031 1156.5 261.858C1166.3 257.703 1177.89 255.292 1178.94 268.122C1179.06 268.21 1179.04 268.27 1178.95 268.305C1178.95 268.244 1178.94 268.182 1178.94 268.122C1178.63 267.887 1177.35 267.458 1173.82 266.811C1167.74 265.698 1159.51 274.209 1151.66 279.442C1145.37 283.629 1120.15 285.375 1108.33 285.725C1105.8 282.96 1100.07 277.265 1097.43 276.595Z" fill="#A7ADEA" stroke="black" stroke-width="0.3"/>
<g style="mix-blend-mode:multiply">
<path d="M1122.56 268.911C1120.04 273.326 1109.24 278.383 1104.16 280.359C1104.1 280.699 1103.96 281.321 1103.87 281.094C1103.78 280.867 1099.55 278.086 1097.45 276.724C1098.84 275.19 1102.22 271.872 1104.67 270.874C1107.73 269.626 1109.59 269.6 1110.68 269.378C1111.77 269.155 1116.47 264.55 1122.56 260.264C1128.65 255.978 1136.02 257.641 1137.83 258.559C1139.41 259.36 1145.8 261.856 1146.53 262.401C1147.27 262.947 1150.35 264.374 1154.45 262.701C1157.73 261.363 1165.22 259.391 1168.56 258.573C1171.05 259.752 1160.23 267.849 1150.55 269.171C1140.87 270.492 1125.71 263.392 1122.56 268.911Z" fill="#D1D4E7"/>
</g>
<path d="M1123.06 292.359C1109.66 289.832 1114.42 281.523 1118.47 277.685C1120.63 275.22 1130.88 267.159 1139.75 269.004C1148.62 270.848 1158.49 285.085 1163.68 286.713C1167.83 288.016 1170.94 284.999 1171.97 283.328C1172.72 283.386 1174.35 284.262 1174.84 287.307C1175.46 291.114 1168.39 292.907 1164.44 292.8C1160.5 292.693 1159.62 297.422 1157.64 299.475C1155.67 301.528 1154.64 299.764 1146.09 297.166C1137.54 294.568 1138.29 305.969 1135.67 304.537C1133.06 303.106 1139.8 295.519 1123.06 292.359Z" fill="#F2EAA5" stroke="black" stroke-width="0.3"/>
<g style="mix-blend-mode:multiply">
<path d="M1140.09 286.322C1135.84 285.9 1133.04 292.409 1132.18 295.715C1132.73 296.256 1133.94 297.461 1134.31 297.954C1134.77 298.571 1134.91 300.748 1134.9 302.393C1134.89 304.038 1136.08 304.834 1136.76 304.466C1137.44 304.097 1138.81 299.635 1140.29 298.139C1141.76 296.642 1144.63 296.812 1145.33 296.977C1146.02 297.141 1152.84 299.457 1153.78 299.875C1154.73 300.294 1156.16 301.081 1157.57 299.283C1158.98 297.485 1161.44 293.59 1162.96 293.061C1164.48 292.531 1165.64 292.861 1169.44 292.173C1173.25 291.486 1174.97 288.348 1174.73 286.761C1174.54 285.492 1172.86 283.978 1172.05 283.38C1171.05 284.872 1168.57 286.388 1166.58 286.967C1164.59 287.547 1163.7 286.634 1162.76 286.378C1162.01 286.172 1158.85 283.482 1157.37 282.163C1156.71 284.099 1154.95 288.313 1153.11 289.677C1150.82 291.382 1145.41 286.848 1140.09 286.322Z" fill="#ECE8C7"/>
</g>
<path d="M1160.54 169.992C1154.54 172.442 1154.92 179.798 1154.43 183.953C1149.42 182.665 1142.25 175.958 1138.75 170.142C1134.38 162.873 1132.2 150.65 1147.06 148.803C1158.94 147.326 1168.31 157.555 1167.8 167.033L1160.54 169.992Z" fill="#48B5AE" stroke="black" stroke-width="0.3"/>
<path d="M1071.53 230.01C1076.9 222.991 1074.8 218.12 1073.07 216.561C1078.04 212.919 1079.64 222.858 1083.33 226.799C1087.03 230.741 1085.96 224.119 1090.65 223.813C1095.34 223.507 1093.25 232.747 1095.87 232.133C1098.48 231.519 1104.17 225.11 1107.94 228.567C1111.72 232.024 1112.11 232.318 1117.55 229.188C1123 226.058 1131.11 230.075 1124.72 231.674C1118.34 233.274 1110.63 242.702 1102.46 255.331C1094.35 267.879 1087.06 264.213 1074.25 257.769L1074 257.644C1061.04 251.123 1064.8 238.783 1071.53 230.01Z" fill="#F2EAA4" stroke="black" stroke-width="0.3"/>
<g style="mix-blend-mode:multiply">
<path d="M1079.85 239.851C1075.22 237.648 1072.68 232.095 1071.99 229.594C1072.66 228.241 1074.19 225.102 1074.92 223.368C1075.83 221.2 1072.71 216.637 1073.07 216.403C1073.42 216.169 1075.49 215.506 1077.02 216.407C1078.55 217.307 1080.47 222.002 1081.39 224.049C1082.32 226.095 1085.3 229.008 1085.93 227.676C1086.55 226.344 1089.94 222.923 1091.97 223.775C1093.16 224.276 1094.55 228.558 1094.29 229.471C1094.03 230.383 1094.95 232.616 1096.02 232.176C1097.1 231.736 1102.48 228.195 1104.31 227.627C1106.15 227.058 1108.71 229.156 1109.5 229.999C1110.29 230.843 1112.24 231.663 1114.55 230.721C1116.86 229.779 1118.86 228.515 1121.25 227.989C1123.64 227.463 1127.53 229.736 1127.06 230.558C1126.58 231.379 1125.58 231.34 1123.82 231.877C1122.07 232.414 1119.72 234.359 1118.26 235.404C1117.09 236.239 1115.19 238.363 1114.38 239.321C1112.34 240.693 1108.82 241.319 1103.75 242.311C1098.68 243.303 1097.34 239.36 1094.85 238.76C1092.36 238.16 1085.64 242.605 1079.85 239.851Z" fill="#F4EEB3"/>
</g>
<path d="M1084.41 278.861C1086.61 271.424 1078.89 261.917 1074.76 258.093L1093.63 263.836C1094.47 265.522 1096.12 270.378 1096 276.314C1095.84 283.734 1081.66 288.157 1084.41 278.861Z" fill="#48B5AE" stroke="black" stroke-width="0.3"/>
<path d="M1061.74 259.136C1068.53 267.772 1066.91 280.19 1065.24 285.319C1061.47 274.506 1049.69 273.681 1046.19 266.661C1042.69 259.641 1053.24 248.339 1061.74 259.136Z" fill="#FFC188" stroke="black" stroke-width="0.3"/>
<g style="mix-blend-mode:multiply">
<path d="M1060.32 269.062C1056.96 264.306 1050.75 259.423 1048.06 257.576C1043.17 263.525 1047.01 268.604 1048.29 269.68C1049.57 270.756 1057.15 275.737 1059.32 277.125C1061.05 278.235 1064.09 283.114 1065.39 285.414C1065.1 281.945 1063.67 273.818 1060.32 269.062Z" fill="#D6BEA8"/>
</g>
<path d="M1073.92 296.719C1068.63 305.782 1055.64 304.451 1054.06 303.916C1053.31 307.857 1056.68 311.682 1064.44 311.309C1078.07 310.653 1087.47 290.286 1090.67 289.888C1093.87 289.491 1102.52 292.68 1107.26 290.477C1111.99 288.273 1106.32 275.053 1092.64 274.46C1078.95 273.867 1079.22 287.656 1073.92 296.719Z" fill="#596282" stroke="black" stroke-width="0.3"/>
<path d="M1155.39 183.007C1144.48 181.244 1133.45 164.929 1137.01 153.701C1132.08 155.711 1126.26 162.297 1125.43 173.972C1124.77 183.312 1120.05 204.691 1117.78 214.213C1120.35 212.388 1130.79 207.042 1151.99 200.252C1173.2 193.463 1179.42 177.517 1179.88 170.394C1178.97 178.064 1169.02 185.21 1155.39 183.007Z" fill="#96F0EB" stroke="black" stroke-width="0.3"/>
<g style="mix-blend-mode:multiply">
<path d="M1168.24 191.458C1165.49 194.123 1158.9 197.407 1155.95 198.715C1145.75 202.628 1128.71 193.204 1127.14 181.17C1126.77 180.663 1123.54 175.138 1126.74 166.358C1129.31 159.334 1134.55 155.034 1136.86 153.762C1134.39 162.055 1138.5 167.412 1140.24 171.062C1141.98 174.711 1146.9 178.992 1150.07 181.251C1153.23 183.51 1160.67 184.647 1168.49 182.141C1174.74 180.137 1178.61 174.795 1179.76 172.375C1179.32 177.72 1171.68 188.126 1168.24 191.458Z" fill="#8BF0EB"/>
</g>
<path d="M1055.27 304.472C1032.77 304.472 964.801 283.635 929.239 269.983C901.262 263.748 903.037 241.002 907.102 232.363C909.859 226.503 968.237 216.086 966.486 223.467C964.939 229.988 964.106 232.383 966.486 236.95C994.807 250.785 1036.32 260.613 1064.81 290.121C1069.12 287.804 1072.22 289.996 1083.23 289.206C1084.86 289.089 1089.87 289.227 1090.64 290.772C1090.85 291.187 1090.37 291.914 1090.52 292.298C1090.86 293.145 1091.3 293.218 1091.35 293.96C1091.38 294.331 1091.27 294.573 1091.22 294.93C1091.1 295.764 1091.98 296.526 1091.41 297.354C1089.09 300.697 1089.68 298.797 1077.5 304.472C1069.95 307.99 1062.53 304.472 1055.27 304.472Z" fill="#F8AC9E"/>
<path d="M1091.41 297.354C1089.09 300.697 1089.68 298.797 1077.5 304.472C1069.95 307.99 1062.53 304.472 1055.27 304.472C1032.77 304.472 964.801 283.635 929.239 269.983C901.262 263.748 903.037 241.002 907.102 232.363C909.859 226.503 968.237 216.086 966.486 223.467C964.939 229.988 964.106 232.383 966.486 236.95C994.807 250.785 1036.32 260.613 1064.81 290.121C1069.12 287.804 1072.22 289.996 1083.23 289.206C1084.86 289.089 1089.87 289.227 1090.64 290.772C1090.85 291.187 1090.37 291.914 1090.52 292.298M1091.41 297.354C1085.17 299.629 1077.39 301.882 1074.5 301.459M1091.41 297.354C1091.98 296.526 1091.1 295.764 1091.22 294.93M1075.71 294.489C1078.48 294.626 1087.78 293.67 1090.52 292.298M1090.52 292.298C1090.86 293.145 1091.3 293.218 1091.35 293.96C1091.38 294.331 1091.27 294.573 1091.22 294.93M1074.53 298.055C1078.63 298.502 1087.67 296.913 1091.22 294.93" stroke="black" stroke-width="0.3"/>
<path d="M966.148 224.65C946.603 221.755 917.103 230.547 904.969 237.795C910.523 211.369 930.218 155.883 964.059 147.878C967.056 147.498 974.101 146.246 977.737 148.638C982.55 151.804 969.63 211.506 966.148 224.65Z" fill="#7AB586" stroke="black" stroke-width="0.3"/>
<path d="M855.08 383.658C861.329 392.304 863.351 405.503 863.581 411.022C866.95 408.032 873.46 402.054 872.541 402.054C871.392 402.054 866.338 396.075 863.81 394.005C861.283 391.936 848.647 373.31 846.809 365.722C845.533 360.454 843.472 351.804 842.249 346.653C841.978 345.963 841.806 345.268 841.754 344.567C841.896 345.165 842.063 345.868 842.249 346.653C844.378 352.068 852.612 357.121 856.688 361.813C861.283 367.102 867.486 391.016 868.865 394.005C870.243 396.995 873.46 400.674 875.068 399.524C876.355 398.604 880.812 393.469 882.88 391.016C882.88 385.037 851.863 318.353 848.647 313.064C846.073 308.833 839.916 297.044 837.159 291.679C836.317 290.759 837.619 291.127 849.566 299.957C864.5 310.995 880.812 354.914 883.339 365.722C885.866 376.529 884.258 388.947 886.096 386.647C887.934 384.348 895.286 374.92 896.435 371.011C897.584 367.102 885.407 333.759 884.258 327.551C883.339 322.584 865.801 293.748 857.148 279.952C863.581 283.478 878.101 292.691 884.718 301.337C892.989 312.144 901.489 345.946 901.489 352.155C901.489 358.364 899.192 370.321 901.489 368.021C903.327 366.182 909.607 353.918 912.518 348.016C911.522 345.563 909.025 339.6 907.003 335.369C904.476 330.08 890.921 302.257 884.718 289.609C878.514 276.962 863.81 255.347 866.338 256.497C868.865 257.647 881.961 272.134 890.921 281.791C899.881 291.449 911.599 324.331 912.518 327.551C913.437 330.77 912.747 346.866 913.437 345.946C914.126 345.027 922.397 326.631 922.167 325.711C921.937 324.791 920.559 317.893 918.721 316.283C916.883 314.674 893.218 276.962 888.623 270.524C884.028 264.085 870.933 216.486 875.298 226.604C879.663 236.722 898.043 255.577 904.706 264.085C911.369 272.593 918.721 298.347 919.64 303.866C920.559 309.385 922.627 324.791 922.856 324.331C923.086 323.872 928.37 306.626 928.83 305.706C929.289 304.786 926.303 296.738 920.559 288.92C914.815 281.101 899.881 247.069 898.043 241.78C896.205 236.492 887.475 202 888.623 205.219C889.772 208.438 895.286 220.165 899.881 226.604C904.476 233.042 924.924 269.144 926.303 273.053C927.681 276.962 930.898 298.807 931.587 297.888C932.138 297.152 934.42 286.543 935.493 281.331C934.344 280.105 930.622 273.421 924.924 256.497C917.802 235.342 909.301 218.786 907.923 217.176C906.544 215.566 903.787 212.347 907.463 214.877C911.139 217.406 916.883 226.604 920.559 231.433C924.235 236.262 936.182 273.743 936.871 274.893C937.423 275.813 939.092 265.465 939.858 260.176C938.419 260.176 934.114 254.198 929.749 247.069C925.384 239.941 920.099 210.738 919.41 207.058C918.721 203.379 908.612 175.326 910.909 177.395C913.207 179.465 923.086 200.16 925.613 203.149C928.141 206.139 933.195 232.353 934.114 235.802C935.033 239.251 940.317 255.807 940.777 254.198C941.236 252.588 941.926 236.952 941.466 234.882C941.007 232.813 935.033 227.064 933.195 211.197C931.357 195.331 922.167 164.288 926.992 170.727C930.852 175.878 939.628 208.438 943.534 224.075L943.534 214.187C943.534 208.852 932.506 164.442 926.992 142.903C933.583 147.717 941.279 182.251 943.333 192.38C941.912 178.819 950.919 127.447 951.805 132.326C952.54 136.373 950.426 170.803 949.278 187.513C952.035 170.267 972.483 145.662 971.334 150.491C970.185 155.32 947.44 211.657 946.521 214.187C945.799 216.173 945.219 221.28 945.003 222.824C945.98 220.313 954.596 206.662 958.927 200.16C962.603 194.641 973.172 182.224 977.997 176.705C976.235 180.231 972.115 188.433 969.726 193.032C966.739 198.78 946.291 227.294 944.912 229.133C943.81 230.605 943.534 238.484 943.534 242.24C944.453 239.021 956.63 222.005 960.995 218.096C965.36 214.187 983.511 203.379 984.43 203.149C985.349 202.919 987.876 204.299 986.268 204.759C984.659 205.219 978.686 211.197 976.159 213.267C973.631 215.337 966.509 226.834 962.833 230.283C959.157 233.732 943.304 251.898 942.615 252.358C942.064 252.726 941.16 261.096 940.777 265.235C946.291 252.128 975.01 239.711 977.997 238.561C980.983 237.412 985.349 233.962 985.349 234.882C985.349 235.618 984.736 237.641 984.43 238.561C977.997 254.382 951.575 267.535 939.169 272.134C939.169 273.605 937.177 282.098 936.182 286.16C939.858 280.411 965.131 270.754 975.01 268.684C984.889 266.615 989.025 262.016 991.322 260.176C993.16 258.704 993.467 260.329 993.39 261.326C985.578 273.743 950.886 291.449 945.372 291.909C939.858 292.369 935.033 293.289 934.574 293.978C934.206 294.53 930.591 305.092 928.83 310.305C932.123 308.848 939.812 305.384 944.223 303.176C949.737 300.417 966.279 296.278 975.01 296.048C981.994 295.864 997.525 289.379 1004.42 286.16C1003.88 287.157 999.547 291.771 986.497 302.256C973.448 312.742 942.615 314.444 928.83 313.984L920.099 334.449C929.902 331.306 950.656 324.469 955.251 322.262C960.995 319.502 999.134 319.962 997.525 322.262C995.917 324.561 987.876 330.54 965.131 337.208C942.385 343.877 919.18 337.438 918.721 338.818C918.355 339.916 912.502 350.207 909.576 355.295C910.791 354.067 935.906 346.373 943.304 345.026C950.886 343.647 992.241 343.647 991.322 346.406C990.403 349.165 978.686 355.144 959.617 360.893C940.547 366.642 910.45 358.823 909.531 360.893C908.612 362.962 894.367 377.449 895.286 376.759C896.205 376.069 938.709 372.85 948.359 372.85C956.078 372.85 980.83 377.142 992.241 379.289C991.782 379.749 987.37 381.634 973.402 385.497C955.94 390.326 897.354 381.128 895.286 382.048C893.632 382.784 887.551 390.939 884.718 394.925C897.584 394.082 925.338 392.396 933.425 392.396C943.534 392.396 972.483 411.022 970.185 412.631C967.888 414.24 922.397 411.022 912.518 408.492C902.638 405.962 884.718 397.454 882.88 398.144C881.409 398.696 867.41 410.945 860.594 417C859.828 416.847 858.25 416.356 858.066 415.62C857.883 414.884 859.675 413.934 860.594 413.551C860.594 412.708 859.491 409.642 855.08 404.123C849.566 397.225 826.131 363.882 829.807 364.342C833.483 364.802 847.268 372.85 855.08 383.658Z" fill="#663131"/>
<path d="M823.677 436.808L893.762 445.296C878.783 423.918 857.628 389.243 837.512 351.382C822.613 323.338 808.283 293.545 797.457 266.113C793.973 257.287 790.852 248.705 788.192 240.505C784.515 229.171 783.051 217.418 783.336 205.564C783.933 180.805 792.161 155.603 803.798 132.851C820.068 101.041 843 74.0202 861.055 59.6953C853.747 51.9373 825.368 43.4792 787.337 70.5758C770.715 82.4189 752.249 101.054 732.892 129.508C719.048 149.859 710.04 173.685 705.255 199.139C700.182 226.123 699.855 254.938 703.543 283.384C706.743 308.057 712.963 332.453 721.728 355.137C729.915 376.324 740.322 396.018 752.561 413.048C759.572 422.803 767.184 431.684 775.324 439.471L823.677 436.808Z" fill="#964F4F"/>
<path d="M732.892 129.508C719.048 149.859 710.04 173.685 705.255 199.139M732.892 129.508C727.242 146.061 738.481 167.77 744.807 176.555M732.892 129.508C752.249 101.054 770.715 82.4189 787.337 70.5758M823.677 436.808L893.762 445.296C878.783 423.918 857.628 389.243 837.512 351.382M823.677 436.808L775.324 439.471C767.184 431.684 759.572 422.803 752.561 413.048M823.677 436.808C819.109 433.701 811.624 424.945 802.929 411.895M762.112 330.674C771.055 326.402 790.645 307.509 797.457 266.113M762.112 330.674C766.306 341.829 770.814 352.432 775.435 362.322M762.112 330.674C757.724 319.005 753.68 306.732 750.208 294.037M797.457 266.113C793.973 257.287 790.852 248.705 788.192 240.505C784.515 229.171 783.051 217.418 783.336 205.564M797.457 266.113C808.283 293.545 822.613 323.338 837.512 351.382M775.435 362.322C763.829 367.387 736.839 373.04 721.728 355.137M775.435 362.322C780.118 372.348 784.916 381.641 789.621 390.037M721.728 355.137C729.915 376.324 740.322 396.018 752.561 413.048M721.728 355.137C712.963 332.453 706.743 308.057 703.543 283.384M789.621 390.037C802.85 388.266 830.949 378.057 837.512 351.382M789.621 390.037C794.211 398.23 798.712 405.567 802.929 411.895M802.929 411.895C792.475 416.274 767.767 422.634 752.561 413.048M750.208 294.037C740.221 298.606 716.906 302.871 703.543 283.384M750.208 294.037C746.595 280.828 743.603 267.161 741.491 253.243M703.543 283.384C699.855 254.938 700.182 226.123 705.255 199.139M741.491 253.243C752.716 245.964 776.8 226.238 783.336 205.564M741.491 253.243C740.392 246.001 739.532 238.691 738.946 231.343M783.336 205.564C783.933 180.805 792.161 155.603 803.798 132.851M738.946 231.343C738.286 223.065 737.974 214.739 738.063 206.404C738.823 199.821 740.917 189.209 744.807 176.555M738.946 231.343C728.074 228.322 706.116 217.654 705.255 199.139M744.807 176.555C748.16 165.647 752.846 153.222 759.162 140.552M787.337 70.5758C825.368 43.4792 853.747 51.9373 861.055 59.6953C843 74.0202 820.068 101.041 803.798 132.851M787.337 70.5758C775.152 88.2917 778.132 109.427 776.594 111.688C769.747 121.076 763.98 130.885 759.162 140.552M759.162 140.552C767.905 143.333 789.072 145.687 803.798 132.851" stroke="#3A2C08" stroke-width="0.3"/>
<g style="mix-blend-mode:multiply">
<path d="M757.809 177.523C734.798 273.76 808.474 389.641 842.373 438.727L893.321 444.897C874.705 412.645 832.104 342.453 819.499 315.942C803.017 281.278 781.816 232.924 783.045 200.905C784.274 168.886 802.449 137.055 811.983 117.851C819.61 102.489 844.914 73.1309 860.878 60.2462L860.744 58.82C857.129 56.0726 850.434 53.4327 846.809 52.9337C826.25 59.8913 778.669 90.2805 757.809 177.523Z" fill="#C4C4C4"/>
</g>
<path d="M553.786 193.057C546.713 203.296 589.151 181.355 610.37 206.952C611.425 208.226 612.573 209.772 613.8 211.567C619.302 219.614 626.386 232.649 633.79 248.409C640.488 262.666 647.448 279.153 653.733 296.195C658.853 310.075 663.526 324.323 667.247 338.033C675.421 368.157 678.997 395.682 672.612 411H710.806H749C745.261 390.93 739.053 363.188 730.837 334.023C724.4 311.173 716.731 287.45 708.052 265.858C700.43 246.894 692.028 229.574 682.997 215.933C676.538 206.177 669.757 198.303 662.71 193.057C658.048 189.586 653.42 186.647 648.85 184.179C601.408 158.558 560.237 183.717 553.786 193.057Z" fill="#B84040"/>
<path d="M553.786 193.057C546.713 203.296 589.151 181.355 610.37 206.952C611.425 208.226 612.573 209.772 613.8 211.567M553.786 193.057C570.481 185.715 607.004 178.651 633.79 200.666M553.786 193.057C560.237 183.717 601.408 158.558 648.85 184.179M710.806 411H672.612C678.997 395.682 675.421 368.157 667.247 338.033M710.806 411H749C745.261 390.93 739.053 363.188 730.837 334.023M710.806 411C710.315 400.805 709.381 390.595 708.052 380.45M708.052 380.45C716.122 375.169 731.976 358.492 730.837 334.023M708.052 380.45C705.992 364.716 702.983 349.139 699.208 334.023M730.837 334.023C724.4 311.173 716.731 287.45 708.052 265.858M708.052 265.858C706.475 276.211 700.804 298.467 690.745 304.664M708.052 265.858C700.43 246.894 692.028 229.574 682.997 215.933M690.745 304.664C689.233 300.054 687.656 295.511 686.017 291.047M690.745 304.664C693.867 314.189 696.706 324.005 699.208 334.023M682.997 215.933C676.538 206.177 669.757 198.303 662.71 193.057C658.048 189.586 653.42 186.647 648.85 184.179M682.997 215.933C683.502 226.305 682.331 249.866 673.611 261.141M673.611 261.141C670.122 253.67 666.476 246.546 662.71 239.833M673.611 261.141C678.025 270.596 682.187 280.608 686.017 291.047M633.79 248.409C641.996 249.417 659.267 249.114 662.71 239.833M633.79 248.409C626.386 232.649 619.302 219.614 613.8 211.567M633.79 248.409C640.488 262.666 647.448 279.153 653.733 296.195M662.71 239.833C658.902 233.046 654.971 226.679 650.957 220.797M633.79 200.666C637.501 203.716 641.025 207.324 644.284 211.567C646.529 214.49 648.756 217.571 650.957 220.797M633.79 200.666C631.429 202.844 624.127 208.073 613.8 211.567M648.85 184.179C653.017 193.337 659.271 213.482 650.957 220.797M686.017 291.047C680.059 294.479 665.26 300.313 653.733 296.195M653.733 296.195C658.853 310.075 663.526 324.323 667.247 338.033M699.208 334.023C692.351 336.696 676.36 341.241 667.247 338.033" stroke="#3A2C08" stroke-width="0.3"/>
<g style="mix-blend-mode:multiply">
<path d="M685.099 285.174C701.184 325.387 709.921 377.477 710.461 402.115H672.383C673.247 402.115 658.481 396.136 659 378.5C659.648 356.455 663.5 301.049 629 238C619.677 220.962 614.209 208.722 606.546 202.176C605.121 200.048 600.614 197.994 598.679 197.172C596.603 196.23 592.748 195.013 591.08 194.523C589.287 194.068 584.417 193.56 582.972 193.399C581.527 193.238 574.864 193.426 573.259 193.399C571.653 193.372 568.282 193.934 567.265 193.934C566.248 193.934 563.947 194.362 562.77 194.514C561.592 194.665 557.792 195.213 556.714 195.3C555.636 195.388 553.684 195.446 553.334 194.514C553.054 193.768 553.796 192.803 554.202 192.414C555.345 191.414 568.21 188.054 572.284 187.125C576.358 186.196 586.864 185.41 594.011 185.624C599.729 185.796 609.306 187.935 613.38 188.983C635.209 194.489 662.224 227.988 685.099 285.174Z" fill="#CCDFD4"/>
</g>
<path d="M845.833 414.375L883.103 426.254C877.164 413.066 869.24 392.001 862.213 369.309C857.007 352.501 852.293 334.8 849.241 318.747C848.259 313.582 847.45 308.587 846.851 303.848C846.023 297.298 846.444 290.749 847.827 284.326C850.716 270.911 857.805 258.045 866.496 246.866C878.647 231.237 893.928 218.904 905.239 212.977C902.065 207.997 887.494 200.454 863.986 211.264C853.712 215.988 841.73 224.219 828.247 237.702C818.604 247.346 811.233 259.382 805.991 272.741C800.435 286.904 797.273 302.554 796.334 318.42C795.52 332.182 796.379 346.105 798.8 359.36C801.062 371.741 804.687 383.538 809.585 394.076C812.391 400.112 815.614 405.734 819.238 410.816L845.833 414.375Z" fill="#C9A93A"/>
<path d="M828.247 237.702C818.604 247.346 811.233 259.382 805.991 272.741M828.247 237.702C823.457 246.127 827.326 259.108 829.859 264.545M828.247 237.702C841.73 224.219 853.712 215.988 863.986 211.264M845.833 414.375L883.103 426.254C877.164 413.066 869.241 392.001 862.213 369.309M845.833 414.375L819.238 410.816C815.614 405.734 812.391 400.112 809.585 394.076M845.833 414.375C843.669 412.21 840.502 406.669 837.12 398.665M823.316 350.227C828.626 348.828 841.246 340.573 849.241 318.747M823.316 350.227C824.443 356.734 825.799 362.972 827.289 368.834M823.316 350.227C822.136 343.421 821.205 336.322 820.631 329.052M849.241 318.747C848.259 313.582 847.45 308.587 846.851 303.848C846.023 297.298 846.444 290.749 847.827 284.326M849.241 318.747C852.293 334.8 857.007 352.501 862.213 369.309M827.289 368.834C820.448 370.388 805.171 370.67 798.8 359.36M827.289 368.834C828.8 374.776 830.45 380.332 832.141 385.389M798.8 359.36C801.062 371.741 804.687 383.538 809.585 394.076M798.8 359.36C796.379 346.105 795.52 332.182 796.334 318.42M832.141 385.389C839.525 385.795 855.877 383.149 862.213 369.309M832.141 385.389C833.791 390.324 835.481 394.784 837.12 398.665M837.12 398.665C830.977 399.966 816.869 400.869 809.585 394.076M820.631 329.052C814.721 330.505 801.589 330.411 796.334 318.42M820.631 329.052C820.033 321.488 819.82 313.739 820.111 305.944M796.334 318.42C797.273 302.554 800.435 286.904 805.991 272.741M820.111 305.944C826.975 303.145 842.128 294.902 847.827 284.326M820.111 305.944C820.263 301.889 820.552 297.821 820.994 293.76M847.827 284.326C850.716 270.911 857.805 258.045 866.496 246.866M820.994 293.76C821.492 289.186 822.185 284.622 823.097 280.094C824.192 276.589 826.432 271.03 829.859 264.545M820.994 293.76C815.389 290.99 804.542 282.908 805.991 272.741M829.859 264.545C832.814 258.955 836.652 252.677 841.402 246.435M863.986 211.264C887.494 200.454 902.065 207.997 905.239 212.977C893.928 218.904 878.647 231.237 866.496 246.866M863.986 211.264C855.519 219.645 854.952 231.458 853.88 232.529C849.181 236.93 845.026 241.672 841.402 246.435M841.402 246.435C845.873 248.854 857.151 252.328 866.496 246.866" stroke="#3A2C08" stroke-width="0.3"/>
<g style="mix-blend-mode:multiply">
<path d="M836.838 266.422C814.345 316.422 842.445 387.13 855.813 417.359L882.905 425.995C876.113 406.511 860.195 363.892 856.079 348.156C850.699 327.58 844.167 299.064 848.152 281.763C852.138 264.462 865.328 249.018 872.506 239.553C878.249 231.981 895.063 218.621 905.087 213.262L905.162 212.471C903.479 210.602 900.108 208.471 898.187 207.824C886.275 209.482 857.228 221.095 836.838 266.422Z" fill="#C4C4C4"/>
</g>
<path d="M597.633 286.502C640.513 296.322 665.773 346.486 675.22 368.765C675.751 366.039 668.378 347.937 634.638 297.332C592.462 234.076 586.375 171.305 591.385 198.259C596.33 224.859 641.134 274.751 676.338 313.953L677.737 315.511C705.77 346.732 751.626 368.764 734.516 436.39L665.548 451.739C628.591 463.889 684.693 448.754 640.877 366.805C597.062 284.855 555.199 320.723 538.089 359.05C540.827 333.042 555.001 276.739 597.633 286.502Z" fill="#704A4A" stroke="#3A2C08" stroke-width="0.3" stroke-linecap="round" stroke-linejoin="round"/>
<g style="mix-blend-mode:multiply">
<path d="M646.797 296.774C637.073 284.249 610.578 237.094 598.545 215.082C598.166 214.215 597.137 212.027 596.047 210.213C594.958 208.399 592.821 203.043 591.888 200.591C592.319 202.649 593.322 207.291 593.894 209.396C594.609 212.027 598.167 223.159 599.851 227.709C601.536 232.259 606.186 244.346 607.849 248.033C609.511 251.719 614.527 262.481 615.838 265.17C617.149 267.858 623.64 279.694 625.228 282.533C626.815 285.372 630.834 291.556 631.7 292.925C632.566 294.294 639.344 304.539 641.462 307.802C643.579 311.065 647.664 317.868 648.712 319.067C649.761 320.267 654.281 328.159 656.29 331.049C658.298 333.938 667.879 351.361 669.862 354.954C671.844 358.547 674.064 364.795 674.748 365.87C675.296 366.73 675.251 368.001 675.16 368.529C674.923 375.645 686.923 383.664 685.391 367.248C683.476 346.729 658.952 312.43 646.797 296.774Z" fill="#BDC6A1"/>
</g>
<g style="mix-blend-mode:multiply">
<path d="M658.275 415.248C661.563 432.48 655.246 452.361 653.163 456.836L691.152 433.685C684.993 407.302 653.163 346.641 629.798 322.091C581.379 271.217 548.84 323.499 538.771 357.681C554.512 319.354 579.836 313.878 599 320.038C614.331 324.965 628.291 344.555 633.355 353.734C635.08 356.674 643.451 372.084 647.026 378.4C650.6 384.716 657.454 410.943 658.275 415.248Z" fill="#BDC6A1"/>
</g>
</svg>
