<svg width="320" height="373" viewBox="0 0 320 373" fill="none" xmlns="http://www.w3.org/2000/svg">
<g filter="url(#filter0_d)">
<rect x="56" y="41" width="207" height="285" fill="white"/>
</g>
<rect x="124" y="186.723" width="71.2841" height="0.554259" fill="#C4C4C4"/>
<path d="M143.562 165.4V178H140.646V167.74H138.126V165.4H143.562ZM151.151 178.216C150.107 178.216 149.177 177.958 148.361 177.442C147.545 176.926 146.903 176.182 146.435 175.21C145.979 174.226 145.751 173.056 145.751 171.7C145.751 170.344 145.979 169.18 146.435 168.208C146.903 167.224 147.545 166.474 148.361 165.958C149.177 165.442 150.107 165.184 151.151 165.184C152.195 165.184 153.125 165.442 153.941 165.958C154.757 166.474 155.393 167.224 155.849 168.208C156.317 169.18 156.551 170.344 156.551 171.7C156.551 173.056 156.317 174.226 155.849 175.21C155.393 176.182 154.757 176.926 153.941 177.442C153.125 177.958 152.195 178.216 151.151 178.216ZM151.151 175.75C151.919 175.75 152.519 175.42 152.951 174.76C153.395 174.1 153.617 173.08 153.617 171.7C153.617 170.32 153.395 169.3 152.951 168.64C152.519 167.98 151.919 167.65 151.151 167.65C150.395 167.65 149.795 167.98 149.351 168.64C148.919 169.3 148.703 170.32 148.703 171.7C148.703 173.08 148.919 174.1 149.351 174.76C149.795 175.42 150.395 175.75 151.151 175.75ZM163.368 178.216C162.324 178.216 161.394 177.958 160.578 177.442C159.762 176.926 159.12 176.182 158.652 175.21C158.196 174.226 157.968 173.056 157.968 171.7C157.968 170.344 158.196 169.18 158.652 168.208C159.12 167.224 159.762 166.474 160.578 165.958C161.394 165.442 162.324 165.184 163.368 165.184C164.412 165.184 165.342 165.442 166.158 165.958C166.974 166.474 167.61 167.224 168.066 168.208C168.534 169.18 168.768 170.344 168.768 171.7C168.768 173.056 168.534 174.226 168.066 175.21C167.61 176.182 166.974 176.926 166.158 177.442C165.342 177.958 164.412 178.216 163.368 178.216ZM163.368 175.75C164.136 175.75 164.736 175.42 165.168 174.76C165.612 174.1 165.834 173.08 165.834 171.7C165.834 170.32 165.612 169.3 165.168 168.64C164.736 167.98 164.136 167.65 163.368 167.65C162.612 167.65 162.012 167.98 161.568 168.64C161.136 169.3 160.92 170.32 160.92 171.7C160.92 173.08 161.136 174.1 161.568 174.76C162.012 175.42 162.612 175.75 163.368 175.75ZM179.237 172.798H176.105V175.858H173.783V172.798H170.669V170.602H173.783V167.542H176.105V170.602H179.237V172.798Z" fill="#04004D"/>
<path d="M100.25 197V204H98.64V198.32H95.48V204H93.87V197H100.25ZM103.955 198.54C104.789 198.54 105.429 198.74 105.875 199.14C106.322 199.533 106.545 200.13 106.545 200.93V204H105.085V203.33C104.792 203.83 104.245 204.08 103.445 204.08C103.032 204.08 102.672 204.01 102.365 203.87C102.065 203.73 101.835 203.537 101.675 203.29C101.515 203.043 101.435 202.763 101.435 202.45C101.435 201.95 101.622 201.557 101.995 201.27C102.375 200.983 102.959 200.84 103.745 200.84H104.985C104.985 200.5 104.882 200.24 104.675 200.06C104.469 199.873 104.159 199.78 103.745 199.78C103.459 199.78 103.175 199.827 102.895 199.92C102.622 200.007 102.389 200.127 102.195 200.28L101.635 199.19C101.929 198.983 102.279 198.823 102.685 198.71C103.099 198.597 103.522 198.54 103.955 198.54ZM103.835 203.03C104.102 203.03 104.339 202.97 104.545 202.85C104.752 202.723 104.899 202.54 104.985 202.3V201.75H103.915C103.275 201.75 102.955 201.96 102.955 202.38C102.955 202.58 103.032 202.74 103.185 202.86C103.345 202.973 103.562 203.03 103.835 203.03ZM111.07 198.54C111.57 198.54 112.024 198.657 112.43 198.89C112.844 199.117 113.167 199.44 113.4 199.86C113.634 200.273 113.75 200.757 113.75 201.31C113.75 201.863 113.634 202.35 113.4 202.77C113.167 203.183 112.844 203.507 112.43 203.74C112.024 203.967 111.57 204.08 111.07 204.08C110.384 204.08 109.844 203.863 109.45 203.43V205.94H107.89V198.62H109.38V199.24C109.767 198.773 110.33 198.54 111.07 198.54ZM110.8 202.8C111.2 202.8 111.527 202.667 111.78 202.4C112.04 202.127 112.17 201.763 112.17 201.31C112.17 200.857 112.04 200.497 111.78 200.23C111.527 199.957 111.2 199.82 110.8 199.82C110.4 199.82 110.07 199.957 109.81 200.23C109.557 200.497 109.43 200.857 109.43 201.31C109.43 201.763 109.557 202.127 109.81 202.4C110.07 202.667 110.4 202.8 110.8 202.8ZM119.168 199.9H117.348V204H115.798V199.9H113.978V198.62H119.168V199.9ZM120 198.62H121.55V200.72H123.89V198.62H125.45V204H123.89V201.99H121.55V204H120V198.62ZM132.173 201.33C132.173 201.35 132.163 201.49 132.143 201.75H128.073C128.147 202.083 128.32 202.347 128.593 202.54C128.867 202.733 129.207 202.83 129.613 202.83C129.893 202.83 130.14 202.79 130.353 202.71C130.573 202.623 130.777 202.49 130.963 202.31L131.793 203.21C131.287 203.79 130.547 204.08 129.573 204.08C128.967 204.08 128.43 203.963 127.963 203.73C127.497 203.49 127.137 203.16 126.883 202.74C126.63 202.32 126.503 201.843 126.503 201.31C126.503 200.783 126.627 200.31 126.873 199.89C127.127 199.463 127.47 199.133 127.903 198.9C128.343 198.66 128.833 198.54 129.373 198.54C129.9 198.54 130.377 198.653 130.803 198.88C131.23 199.107 131.563 199.433 131.803 199.86C132.05 200.28 132.173 200.77 132.173 201.33ZM129.383 199.72C129.03 199.72 128.733 199.82 128.493 200.02C128.253 200.22 128.107 200.493 128.053 200.84H130.703C130.65 200.5 130.503 200.23 130.263 200.03C130.023 199.823 129.73 199.72 129.383 199.72ZM136.539 198.54C137.039 198.54 137.492 198.657 137.899 198.89C138.312 199.117 138.636 199.44 138.869 199.86C139.102 200.273 139.219 200.757 139.219 201.31C139.219 201.863 139.102 202.35 138.869 202.77C138.636 203.183 138.312 203.507 137.899 203.74C137.492 203.967 137.039 204.08 136.539 204.08C135.852 204.08 135.312 203.863 134.919 203.43V205.94H133.359V198.62H134.849V199.24C135.236 198.773 135.799 198.54 136.539 198.54ZM136.269 202.8C136.669 202.8 136.996 202.667 137.249 202.4C137.509 202.127 137.639 201.763 137.639 201.31C137.639 200.857 137.509 200.497 137.249 200.23C136.996 199.957 136.669 199.82 136.269 199.82C135.869 199.82 135.539 199.957 135.279 200.23C135.026 200.497 134.899 200.857 134.899 201.31C134.899 201.763 135.026 202.127 135.279 202.4C135.539 202.667 135.869 202.8 136.269 202.8ZM142.873 204.08C142.299 204.08 141.783 203.963 141.323 203.73C140.869 203.49 140.513 203.16 140.253 202.74C139.999 202.32 139.873 201.843 139.873 201.31C139.873 200.777 139.999 200.3 140.253 199.88C140.513 199.46 140.869 199.133 141.323 198.9C141.783 198.66 142.299 198.54 142.873 198.54C143.439 198.54 143.933 198.66 144.353 198.9C144.779 199.133 145.089 199.47 145.283 199.91L144.073 200.56C143.793 200.067 143.389 199.82 142.863 199.82C142.456 199.82 142.119 199.953 141.853 200.22C141.586 200.487 141.453 200.85 141.453 201.31C141.453 201.77 141.586 202.133 141.853 202.4C142.119 202.667 142.456 202.8 142.863 202.8C143.396 202.8 143.799 202.553 144.073 202.06L145.283 202.72C145.089 203.147 144.779 203.48 144.353 203.72C143.933 203.96 143.439 204.08 142.873 204.08ZM148.6 201.96H147.79V204H146.23V198.62H147.79V200.71H148.63L150.09 198.62H151.75L149.87 201.2L151.88 204H150.04L148.6 201.96ZM152.646 198.62H154.196V201.82L156.816 198.62H158.246V204H156.696V200.8L154.086 204H152.646V198.62ZM163.126 204L161.946 202.35L160.726 204H159.026L161.096 201.29L159.096 198.62H160.846L161.986 200.19L163.156 198.62H164.816L162.816 201.25L164.896 204H163.126ZM173.746 204V200.78L172.136 203.48H171.476L169.906 200.77V204H168.496V198.62H170.126L171.846 201.73L173.676 198.62H175.136L175.156 204H173.746ZM178.74 198.54C179.574 198.54 180.214 198.74 180.66 199.14C181.107 199.533 181.33 200.13 181.33 200.93V204H179.87V203.33C179.577 203.83 179.03 204.08 178.23 204.08C177.817 204.08 177.457 204.01 177.15 203.87C176.85 203.73 176.62 203.537 176.46 203.29C176.3 203.043 176.22 202.763 176.22 202.45C176.22 201.95 176.407 201.557 176.78 201.27C177.16 200.983 177.744 200.84 178.53 200.84H179.77C179.77 200.5 179.667 200.24 179.46 200.06C179.254 199.873 178.944 199.78 178.53 199.78C178.244 199.78 177.96 199.827 177.68 199.92C177.407 200.007 177.174 200.127 176.98 200.28L176.42 199.19C176.714 198.983 177.064 198.823 177.47 198.71C177.884 198.597 178.307 198.54 178.74 198.54ZM178.62 203.03C178.887 203.03 179.124 202.97 179.33 202.85C179.537 202.723 179.684 202.54 179.77 202.3V201.75H178.7C178.06 201.75 177.74 201.96 177.74 202.38C177.74 202.58 177.817 202.74 177.97 202.86C178.13 202.973 178.347 203.03 178.62 203.03ZM186.996 199.9H184.236V204H182.686V198.62H186.996V199.9ZM189.912 198.54C190.746 198.54 191.386 198.74 191.832 199.14C192.279 199.533 192.502 200.13 192.502 200.93V204H191.042V203.33C190.749 203.83 190.202 204.08 189.402 204.08C188.989 204.08 188.629 204.01 188.322 203.87C188.022 203.73 187.792 203.537 187.632 203.29C187.472 203.043 187.392 202.763 187.392 202.45C187.392 201.95 187.579 201.557 187.952 201.27C188.332 200.983 188.916 200.84 189.702 200.84H190.942C190.942 200.5 190.839 200.24 190.632 200.06C190.426 199.873 190.116 199.78 189.702 199.78C189.416 199.78 189.132 199.827 188.852 199.92C188.579 200.007 188.346 200.127 188.152 200.28L187.592 199.19C187.886 198.983 188.236 198.823 188.642 198.71C189.056 198.597 189.479 198.54 189.912 198.54ZM189.792 203.03C190.059 203.03 190.296 202.97 190.502 202.85C190.709 202.723 190.856 202.54 190.942 202.3V201.75H189.872C189.232 201.75 188.912 201.96 188.912 202.38C188.912 202.58 188.989 202.74 189.142 202.86C189.302 202.973 189.519 203.03 189.792 203.03ZM197.299 201.2C197.619 201.3 197.865 201.453 198.039 201.66C198.219 201.867 198.309 202.113 198.309 202.4C198.309 202.74 198.192 203.04 197.959 203.3C197.725 203.553 197.405 203.75 196.999 203.89C196.592 204.03 196.132 204.1 195.619 204.1C195.199 204.1 194.785 204.057 194.379 203.97C193.972 203.883 193.595 203.753 193.249 203.58L193.669 202.49C194.235 202.763 194.862 202.9 195.549 202.9C195.915 202.9 196.202 202.847 196.409 202.74C196.622 202.627 196.729 202.47 196.729 202.27C196.729 202.097 196.655 201.967 196.509 201.88C196.362 201.787 196.149 201.74 195.869 201.74H194.769V200.77H195.729C196.002 200.77 196.212 200.727 196.359 200.64C196.505 200.553 196.579 200.427 196.579 200.26C196.579 200.087 196.485 199.953 196.299 199.86C196.119 199.767 195.859 199.72 195.519 199.72C194.999 199.72 194.432 199.843 193.819 200.09L193.439 199.01C194.185 198.683 194.912 198.52 195.619 198.52C196.105 198.52 196.539 198.58 196.919 198.7C197.305 198.82 197.609 198.997 197.829 199.23C198.049 199.457 198.159 199.723 198.159 200.03C198.159 200.283 198.082 200.513 197.929 200.72C197.775 200.92 197.565 201.08 197.299 201.2ZM199.443 198.62H200.993V201.82L203.613 198.62H205.043V204H203.493V200.8L200.883 204H199.443V198.62ZM206.543 198.62H208.093V200.72H210.433V198.62H211.993V204H210.433V201.99H208.093V204H206.543V198.62ZM216.006 204.08C215.44 204.08 214.93 203.963 214.476 203.73C214.03 203.49 213.68 203.16 213.426 202.74C213.173 202.32 213.046 201.843 213.046 201.31C213.046 200.777 213.173 200.3 213.426 199.88C213.68 199.46 214.03 199.133 214.476 198.9C214.93 198.66 215.44 198.54 216.006 198.54C216.573 198.54 217.08 198.66 217.526 198.9C217.973 199.133 218.323 199.46 218.576 199.88C218.83 200.3 218.956 200.777 218.956 201.31C218.956 201.843 218.83 202.32 218.576 202.74C218.323 203.16 217.973 203.49 217.526 203.73C217.08 203.963 216.573 204.08 216.006 204.08ZM216.006 202.8C216.406 202.8 216.733 202.667 216.986 202.4C217.246 202.127 217.376 201.763 217.376 201.31C217.376 200.857 217.246 200.497 216.986 200.23C216.733 199.957 216.406 199.82 216.006 199.82C215.606 199.82 215.276 199.957 215.016 200.23C214.756 200.497 214.626 200.857 214.626 201.31C214.626 201.763 214.756 202.127 215.016 202.4C215.276 202.667 215.606 202.8 216.006 202.8ZM224.139 201.19C224.773 201.403 225.089 201.83 225.089 202.47C225.089 202.957 224.906 203.333 224.539 203.6C224.173 203.867 223.626 204 222.899 204H220.029V198.62H222.779C223.453 198.62 223.979 198.743 224.359 198.99C224.739 199.23 224.929 199.57 224.929 200.01C224.929 200.277 224.859 200.513 224.719 200.72C224.586 200.92 224.393 201.077 224.139 201.19ZM221.459 200.83H222.639C223.186 200.83 223.459 200.637 223.459 200.25C223.459 199.87 223.186 199.68 222.639 199.68H221.459V200.83ZM222.769 202.94C223.343 202.94 223.629 202.743 223.629 202.35C223.629 202.143 223.563 201.993 223.429 201.9C223.296 201.8 223.086 201.75 222.799 201.75H221.459V202.94H222.769Z" fill="#0B0751"/>
<path d="M93.8758 222.108C93.2338 222.108 92.6518 221.97 92.1298 221.694C91.6138 221.412 91.2058 221.025 90.9058 220.533C90.6118 220.035 90.4648 219.474 90.4648 218.85C90.4648 218.226 90.6118 217.668 90.9058 217.176C91.2058 216.678 91.6138 216.291 92.1298 216.015C92.6518 215.733 93.2368 215.592 93.8848 215.592C94.4308 215.592 94.9228 215.688 95.3608 215.88C95.8048 216.072 96.1768 216.348 96.4768 216.708L95.5408 217.572C95.1148 217.08 94.5868 216.834 93.9568 216.834C93.5668 216.834 93.2188 216.921 92.9128 217.095C92.6068 217.263 92.3668 217.5 92.1928 217.806C92.0248 218.112 91.9408 218.46 91.9408 218.85C91.9408 219.24 92.0248 219.588 92.1928 219.894C92.3668 220.2 92.6068 220.44 92.9128 220.614C93.2188 220.782 93.5668 220.866 93.9568 220.866C94.5868 220.866 95.1148 220.617 95.5408 220.119L96.4768 220.983C96.1768 221.349 95.8048 221.628 95.3608 221.82C94.9168 222.012 94.4218 222.108 93.8758 222.108ZM104.512 217.158V222H103.108V218.31H101.578L101.533 219.165C101.509 219.801 101.449 220.329 101.353 220.749C101.257 221.169 101.101 221.499 100.885 221.739C100.669 221.979 100.369 222.099 99.9849 222.099C99.7809 222.099 99.5379 222.063 99.2559 221.991L99.3279 220.839C99.4239 220.851 99.4929 220.857 99.5349 220.857C99.7449 220.857 99.9009 220.782 100.003 220.632C100.111 220.476 100.183 220.281 100.219 220.047C100.255 219.807 100.282 219.492 100.3 219.102L100.372 217.158H104.512ZM110.713 217.158L108.526 222.297C108.304 222.855 108.028 223.248 107.698 223.476C107.374 223.704 106.981 223.818 106.519 223.818C106.267 223.818 106.018 223.779 105.772 223.701C105.526 223.623 105.325 223.515 105.169 223.377L105.682 222.378C105.79 222.474 105.913 222.549 106.051 222.603C106.195 222.657 106.336 222.684 106.474 222.684C106.666 222.684 106.822 222.636 106.942 222.54C107.062 222.45 107.17 222.297 107.266 222.081L107.284 222.036L105.187 217.158H106.636L107.995 220.443L109.363 217.158H110.713ZM115.746 217.158V222H114.342V220.2C113.934 220.404 113.484 220.506 112.992 220.506C112.338 220.506 111.843 220.359 111.507 220.065C111.177 219.765 111.012 219.303 111.012 218.679V217.158H112.416V218.589C112.416 218.883 112.491 219.096 112.641 219.228C112.797 219.36 113.019 219.426 113.307 219.426C113.673 219.426 114.018 219.348 114.342 219.192V217.158H115.746ZM124.483 217.158V222H117.094V217.158H118.489V220.848H120.1V217.158H121.495V220.848H123.088V217.158H124.483ZM125.831 217.158H127.226V220.038L129.584 217.158H130.871V222H129.476V219.12L127.127 222H125.831V217.158ZM136.945 222V219.102L135.496 221.532H134.902L133.489 219.093V222H132.22V217.158H133.687L135.235 219.957L136.882 217.158H138.196L138.214 222H136.945ZM139.559 217.158H140.954V220.038L143.312 217.158H144.599V222H143.204V219.12L140.855 222H139.559V217.158ZM153.313 217.158V222H151.909V218.31H149.893V222H148.498V217.158H153.313ZM157.512 217.086C157.962 217.086 158.37 217.191 158.736 217.401C159.108 217.605 159.399 217.896 159.609 218.274C159.819 218.646 159.924 219.081 159.924 219.579C159.924 220.077 159.819 220.515 159.609 220.893C159.399 221.265 159.108 221.556 158.736 221.766C158.37 221.97 157.962 222.072 157.512 222.072C156.894 222.072 156.408 221.877 156.054 221.487V223.746H154.65V217.158H155.991V217.716C156.339 217.296 156.846 217.086 157.512 217.086ZM157.269 220.92C157.629 220.92 157.923 220.8 158.151 220.56C158.385 220.314 158.502 219.987 158.502 219.579C158.502 219.171 158.385 218.847 158.151 218.607C157.923 218.361 157.629 218.238 157.269 218.238C156.909 218.238 156.612 218.361 156.378 218.607C156.15 218.847 156.036 219.171 156.036 219.579C156.036 219.987 156.15 220.314 156.378 220.56C156.612 220.8 156.909 220.92 157.269 220.92ZM165.615 219.597C165.615 219.615 165.606 219.741 165.588 219.975H161.925C161.991 220.275 162.147 220.512 162.393 220.686C162.639 220.86 162.945 220.947 163.311 220.947C163.563 220.947 163.785 220.911 163.977 220.839C164.175 220.761 164.358 220.641 164.526 220.479L165.273 221.289C164.817 221.811 164.151 222.072 163.275 222.072C162.729 222.072 162.246 221.967 161.826 221.757C161.406 221.541 161.082 221.244 160.854 220.866C160.626 220.488 160.512 220.059 160.512 219.579C160.512 219.105 160.623 218.679 160.845 218.301C161.073 217.917 161.382 217.62 161.772 217.41C162.168 217.194 162.609 217.086 163.095 217.086C163.569 217.086 163.998 217.188 164.382 217.392C164.766 217.596 165.066 217.89 165.282 218.274C165.504 218.652 165.615 219.093 165.615 219.597ZM163.104 218.148C162.786 218.148 162.519 218.238 162.303 218.418C162.087 218.598 161.955 218.844 161.907 219.156H164.292C164.244 218.85 164.112 218.607 163.896 218.427C163.68 218.241 163.416 218.148 163.104 218.148ZM172.074 220.848V223.044H170.769V222H167.367V223.044H166.062V220.848H166.26C166.56 220.842 166.767 220.665 166.881 220.317C166.995 219.969 167.067 219.474 167.097 218.832L167.16 217.158H171.381V220.848H172.074ZM168.366 218.931C168.348 219.423 168.309 219.825 168.249 220.137C168.195 220.449 168.09 220.686 167.934 220.848H169.977V218.31H168.393L168.366 218.931ZM177.602 217.158V222H176.198V218.31H174.668L174.623 219.165C174.599 219.801 174.539 220.329 174.443 220.749C174.347 221.169 174.191 221.499 173.975 221.739C173.759 221.979 173.459 222.099 173.075 222.099C172.871 222.099 172.628 222.063 172.346 221.991L172.418 220.839C172.514 220.851 172.583 220.857 172.625 220.857C172.835 220.857 172.991 220.782 173.093 220.632C173.201 220.476 173.273 220.281 173.309 220.047C173.345 219.807 173.372 219.492 173.39 219.102L173.462 217.158H177.602ZM181.22 222.072C180.71 222.072 180.251 221.967 179.843 221.757C179.441 221.541 179.126 221.244 178.898 220.866C178.67 220.488 178.556 220.059 178.556 219.579C178.556 219.099 178.67 218.67 178.898 218.292C179.126 217.914 179.441 217.62 179.843 217.41C180.251 217.194 180.71 217.086 181.22 217.086C181.73 217.086 182.186 217.194 182.588 217.41C182.99 217.62 183.305 217.914 183.533 218.292C183.761 218.67 183.875 219.099 183.875 219.579C183.875 220.059 183.761 220.488 183.533 220.866C183.305 221.244 182.99 221.541 182.588 221.757C182.186 221.967 181.73 222.072 181.22 222.072ZM181.22 220.92C181.58 220.92 181.874 220.8 182.102 220.56C182.336 220.314 182.453 219.987 182.453 219.579C182.453 219.171 182.336 218.847 182.102 218.607C181.874 218.361 181.58 218.238 181.22 218.238C180.86 218.238 180.563 218.361 180.329 218.607C180.095 218.847 179.978 219.171 179.978 219.579C179.978 219.987 180.095 220.314 180.329 220.56C180.563 220.8 180.86 220.92 181.22 220.92ZM189.488 220.164H188.813V222H187.427V220.164H186.752L185.726 222H184.07L185.591 219.498L184.178 217.158H185.663L186.734 219.039H187.427V217.158H188.813V219.039H189.497L190.577 217.158H192.062L190.649 219.498L192.179 222H190.514L189.488 220.164ZM197.466 219.597C197.466 219.615 197.457 219.741 197.439 219.975H193.776C193.842 220.275 193.998 220.512 194.244 220.686C194.49 220.86 194.796 220.947 195.162 220.947C195.414 220.947 195.636 220.911 195.828 220.839C196.026 220.761 196.209 220.641 196.377 220.479L197.124 221.289C196.668 221.811 196.002 222.072 195.126 222.072C194.58 222.072 194.097 221.967 193.677 221.757C193.257 221.541 192.933 221.244 192.705 220.866C192.477 220.488 192.363 220.059 192.363 219.579C192.363 219.105 192.474 218.679 192.696 218.301C192.924 217.917 193.233 217.62 193.623 217.41C194.019 217.194 194.46 217.086 194.946 217.086C195.42 217.086 195.849 217.188 196.233 217.392C196.617 217.596 196.917 217.89 197.133 218.274C197.355 218.652 197.466 219.093 197.466 219.597ZM194.955 218.148C194.637 218.148 194.37 218.238 194.154 218.418C193.938 218.598 193.806 218.844 193.758 219.156H196.143C196.095 218.85 195.963 218.607 195.747 218.427C195.531 218.241 195.267 218.148 194.955 218.148ZM198.543 217.158H199.938V219.048H202.044V217.158H203.448V222H202.044V220.191H199.938V222H198.543V217.158ZM204.792 217.158H206.187V220.038L208.545 217.158H209.832V222H208.437V219.12L206.088 222H204.792V217.158ZM215.483 217.158V222H214.232V220.614H213.197L212.279 222H210.785L211.892 220.416C211.556 220.284 211.298 220.095 211.118 219.849C210.944 219.597 210.857 219.294 210.857 218.94C210.857 218.37 211.061 217.932 211.469 217.626C211.883 217.314 212.45 217.158 213.17 217.158H215.483ZM213.197 218.301C212.897 218.301 212.669 218.355 212.513 218.463C212.363 218.571 212.288 218.745 212.288 218.985C212.288 219.225 212.36 219.402 212.504 219.516C212.654 219.624 212.879 219.678 213.179 219.678H214.232V218.301H213.197ZM221.558 222V219.102L220.109 221.532H219.515L218.102 219.093V222H216.833V217.158H218.3L219.848 219.957L221.495 217.158H222.809L222.827 222H221.558ZM224.172 217.158H225.567V220.038L227.925 217.158H229.212V222H227.817V219.12L225.468 222H224.172V217.158ZM147.671 231.848V234.044H146.366V233H142.964V234.044H141.659V231.848H141.857C142.157 231.842 142.364 231.665 142.478 231.317C142.592 230.969 142.664 230.474 142.694 229.832L142.757 228.158H146.978V231.848H147.671ZM143.963 229.931C143.945 230.423 143.906 230.825 143.846 231.137C143.792 231.449 143.687 231.686 143.531 231.848H145.574V229.31H143.99L143.963 229.931ZM153.199 228.158V233H151.795V229.31H150.265L150.22 230.165C150.196 230.801 150.136 231.329 150.04 231.749C149.944 232.169 149.788 232.499 149.572 232.739C149.356 232.979 149.056 233.099 148.672 233.099C148.468 233.099 148.225 233.063 147.943 232.991L148.015 231.839C148.111 231.851 148.18 231.857 148.222 231.857C148.432 231.857 148.588 231.782 148.69 231.632C148.798 231.476 148.87 231.281 148.906 231.047C148.942 230.807 148.969 230.492 148.987 230.102L149.059 228.158H153.199ZM158.851 228.158V233H157.6V231.614H156.565L155.647 233H154.153L155.26 231.416C154.924 231.284 154.666 231.095 154.486 230.849C154.312 230.597 154.225 230.294 154.225 229.94C154.225 229.37 154.429 228.932 154.837 228.626C155.251 228.314 155.818 228.158 156.538 228.158H158.851ZM156.565 229.301C156.265 229.301 156.037 229.355 155.881 229.463C155.731 229.571 155.656 229.745 155.656 229.985C155.656 230.225 155.728 230.402 155.872 230.516C156.022 230.624 156.247 230.678 156.547 230.678H157.6V229.301H156.565ZM166.448 230.471C167.018 230.663 167.303 231.047 167.303 231.623C167.303 232.061 167.138 232.4 166.808 232.64C166.478 232.88 165.986 233 165.332 233H162.749V228.158H165.224C165.83 228.158 166.304 228.269 166.646 228.491C166.988 228.707 167.159 229.013 167.159 229.409C167.159 229.649 167.096 229.862 166.97 230.048C166.85 230.228 166.676 230.369 166.448 230.471ZM164.036 230.147H165.098C165.59 230.147 165.836 229.973 165.836 229.625C165.836 229.283 165.59 229.112 165.098 229.112H164.036V230.147ZM165.215 232.046C165.731 232.046 165.989 231.869 165.989 231.515C165.989 231.329 165.929 231.194 165.809 231.11C165.689 231.02 165.5 230.975 165.242 230.975H164.036V232.046H165.215ZM170.229 228.086C170.979 228.086 171.555 228.266 171.957 228.626C172.359 228.98 172.56 229.517 172.56 230.237V233H171.246V232.397C170.982 232.847 170.49 233.072 169.77 233.072C169.398 233.072 169.074 233.009 168.798 232.883C168.528 232.757 168.321 232.583 168.177 232.361C168.033 232.139 167.961 231.887 167.961 231.605C167.961 231.155 168.129 230.801 168.465 230.543C168.807 230.285 169.332 230.156 170.04 230.156H171.156C171.156 229.85 171.063 229.616 170.877 229.454C170.691 229.286 170.412 229.202 170.04 229.202C169.782 229.202 169.527 229.244 169.275 229.328C169.029 229.406 168.819 229.514 168.645 229.652L168.141 228.671C168.405 228.485 168.72 228.341 169.086 228.239C169.458 228.137 169.839 228.086 170.229 228.086ZM170.121 232.127C170.361 232.127 170.574 232.073 170.76 231.965C170.946 231.851 171.078 231.686 171.156 231.47V230.975H170.193C169.617 230.975 169.329 231.164 169.329 231.542C169.329 231.722 169.398 231.866 169.536 231.974C169.68 232.076 169.875 232.127 170.121 232.127ZM176.083 233.072C175.567 233.072 175.102 232.967 174.688 232.757C174.28 232.541 173.959 232.244 173.725 231.866C173.497 231.488 173.383 231.059 173.383 230.579C173.383 230.099 173.497 229.67 173.725 229.292C173.959 228.914 174.28 228.62 174.688 228.41C175.102 228.194 175.567 228.086 176.083 228.086C176.593 228.086 177.037 228.194 177.415 228.41C177.799 228.62 178.078 228.923 178.252 229.319L177.163 229.904C176.911 229.46 176.548 229.238 176.074 229.238C175.708 229.238 175.405 229.358 175.165 229.598C174.925 229.838 174.805 230.165 174.805 230.579C174.805 230.993 174.925 231.32 175.165 231.56C175.405 231.8 175.708 231.92 176.074 231.92C176.554 231.92 176.917 231.698 177.163 231.254L178.252 231.848C178.078 232.232 177.799 232.532 177.415 232.748C177.037 232.964 176.593 233.072 176.083 233.072Z" fill="#6D7A8A"/>
<path d="M81.532 298.19V300.01L74.868 302.544V300.794L79.53 299.1L74.868 297.392V295.656L81.532 298.19ZM86.7069 294.2V304H84.4389V296.02H82.4789V294.2H86.7069ZM92.6093 304.168C91.7973 304.168 91.0739 303.967 90.4393 303.566C89.8046 303.165 89.3053 302.586 88.9413 301.83C88.5866 301.065 88.4093 300.155 88.4093 299.1C88.4093 298.045 88.5866 297.14 88.9413 296.384C89.3053 295.619 89.8046 295.035 90.4393 294.634C91.0739 294.233 91.7973 294.032 92.6093 294.032C93.4213 294.032 94.1446 294.233 94.7793 294.634C95.4139 295.035 95.9086 295.619 96.2633 296.384C96.6273 297.14 96.8093 298.045 96.8093 299.1C96.8093 300.155 96.6273 301.065 96.2633 301.83C95.9086 302.586 95.4139 303.165 94.7793 303.566C94.1446 303.967 93.4213 304.168 92.6093 304.168ZM92.6093 302.25C93.2066 302.25 93.6733 301.993 94.0093 301.48C94.3546 300.967 94.5273 300.173 94.5273 299.1C94.5273 298.027 94.3546 297.233 94.0093 296.72C93.6733 296.207 93.2066 295.95 92.6093 295.95C92.0213 295.95 91.5546 296.207 91.2093 296.72C90.8733 297.233 90.7053 298.027 90.7053 299.1C90.7053 300.173 90.8733 300.967 91.2093 301.48C91.5546 301.993 92.0213 302.25 92.6093 302.25ZM102.111 304.168C101.299 304.168 100.576 303.967 99.9412 303.566C99.3066 303.165 98.8072 302.586 98.4432 301.83C98.0886 301.065 97.9112 300.155 97.9112 299.1C97.9112 298.045 98.0886 297.14 98.4432 296.384C98.8072 295.619 99.3066 295.035 99.9412 294.634C100.576 294.233 101.299 294.032 102.111 294.032C102.923 294.032 103.647 294.233 104.281 294.634C104.916 295.035 105.411 295.619 105.765 296.384C106.129 297.14 106.311 298.045 106.311 299.1C106.311 300.155 106.129 301.065 105.765 301.83C105.411 302.586 104.916 303.165 104.281 303.566C103.647 303.967 102.923 304.168 102.111 304.168ZM102.111 302.25C102.709 302.25 103.175 301.993 103.511 301.48C103.857 300.967 104.029 300.173 104.029 299.1C104.029 298.027 103.857 297.233 103.511 296.72C103.175 296.207 102.709 295.95 102.111 295.95C101.523 295.95 101.057 296.207 100.711 296.72C100.375 297.233 100.207 298.027 100.207 299.1C100.207 300.173 100.375 300.967 100.711 301.48C101.057 301.993 101.523 302.25 102.111 302.25ZM111.613 304.168C110.801 304.168 110.078 303.967 109.443 303.566C108.809 303.165 108.309 302.586 107.945 301.83C107.591 301.065 107.413 300.155 107.413 299.1C107.413 298.045 107.591 297.14 107.945 296.384C108.309 295.619 108.809 295.035 109.443 294.634C110.078 294.233 110.801 294.032 111.613 294.032C112.425 294.032 113.149 294.233 113.783 294.634C114.418 295.035 114.913 295.619 115.267 296.384C115.631 297.14 115.813 298.045 115.813 299.1C115.813 300.155 115.631 301.065 115.267 301.83C114.913 302.586 114.418 303.165 113.783 303.566C113.149 303.967 112.425 304.168 111.613 304.168ZM111.613 302.25C112.211 302.25 112.677 301.993 113.013 301.48C113.359 300.967 113.531 300.173 113.531 299.1C113.531 298.027 113.359 297.233 113.013 296.72C112.677 296.207 112.211 295.95 111.613 295.95C111.025 295.95 110.559 296.207 110.213 296.72C109.877 297.233 109.709 298.027 109.709 299.1C109.709 300.173 109.877 300.967 110.213 301.48C110.559 301.993 111.025 302.25 111.613 302.25ZM121.115 304.168C120.303 304.168 119.58 303.967 118.945 303.566C118.31 303.165 117.811 302.586 117.447 301.83C117.092 301.065 116.915 300.155 116.915 299.1C116.915 298.045 117.092 297.14 117.447 296.384C117.811 295.619 118.31 295.035 118.945 294.634C119.58 294.233 120.303 294.032 121.115 294.032C121.927 294.032 122.65 294.233 123.285 294.634C123.92 295.035 124.414 295.619 124.769 296.384C125.133 297.14 125.315 298.045 125.315 299.1C125.315 300.155 125.133 301.065 124.769 301.83C124.414 302.586 123.92 303.165 123.285 303.566C122.65 303.967 121.927 304.168 121.115 304.168ZM121.115 302.25C121.712 302.25 122.179 301.993 122.515 301.48C122.86 300.967 123.033 300.173 123.033 299.1C123.033 298.027 122.86 297.233 122.515 296.72C122.179 296.207 121.712 295.95 121.115 295.95C120.527 295.95 120.06 296.207 119.715 296.72C119.379 297.233 119.211 298.027 119.211 299.1C119.211 300.173 119.379 300.967 119.715 301.48C120.06 301.993 120.527 302.25 121.115 302.25Z" fill="#04004D"/>
<path d="M158.472 300.944V303.16H157.272V302H153.32V303.16H152.12L152.128 300.944H152.352C152.688 300.933 152.925 300.688 153.064 300.208C153.203 299.728 153.288 299.043 153.32 298.152L153.384 296.4H157.688V300.944H158.472ZM154.464 298.272C154.437 298.939 154.381 299.499 154.296 299.952C154.211 300.4 154.08 300.731 153.904 300.944H156.408V297.456H154.488L154.464 298.272ZM161.21 302.064C160.756 302.064 160.348 301.971 159.986 301.784C159.628 301.592 159.348 301.328 159.146 300.992C158.943 300.656 158.842 300.275 158.842 299.848C158.842 299.421 158.943 299.04 159.146 298.704C159.348 298.368 159.628 298.107 159.986 297.92C160.348 297.728 160.756 297.632 161.21 297.632C161.663 297.632 162.068 297.728 162.426 297.92C162.783 298.107 163.063 298.368 163.266 298.704C163.468 299.04 163.57 299.421 163.57 299.848C163.57 300.275 163.468 300.656 163.266 300.992C163.063 301.328 162.783 301.592 162.426 301.784C162.068 301.971 161.663 302.064 161.21 302.064ZM161.21 301.04C161.53 301.04 161.791 300.933 161.994 300.72C162.202 300.501 162.306 300.211 162.306 299.848C162.306 299.485 162.202 299.197 161.994 298.984C161.791 298.765 161.53 298.656 161.21 298.656C160.89 298.656 160.626 298.765 160.418 298.984C160.21 299.197 160.106 299.485 160.106 299.848C160.106 300.211 160.21 300.501 160.418 300.72C160.626 300.933 160.89 301.04 161.21 301.04ZM166.476 302.064C166.017 302.064 165.604 301.971 165.236 301.784C164.873 301.592 164.588 301.328 164.38 300.992C164.177 300.656 164.076 300.275 164.076 299.848C164.076 299.421 164.177 299.04 164.38 298.704C164.588 298.368 164.873 298.107 165.236 297.92C165.604 297.728 166.017 297.632 166.476 297.632C166.929 297.632 167.324 297.728 167.66 297.92C168.001 298.107 168.249 298.376 168.404 298.728L167.436 299.248C167.212 298.853 166.889 298.656 166.468 298.656C166.143 298.656 165.873 298.763 165.66 298.976C165.447 299.189 165.34 299.48 165.34 299.848C165.34 300.216 165.447 300.507 165.66 300.72C165.873 300.933 166.143 301.04 166.468 301.04C166.895 301.04 167.217 300.843 167.436 300.448L168.404 300.976C168.249 301.317 168.001 301.584 167.66 301.776C167.324 301.968 166.929 302.064 166.476 302.064ZM172.763 298.72H171.307V302H170.067V298.72H168.611V297.696H172.763V298.72ZM175.1 297.632C175.767 297.632 176.279 297.792 176.636 298.112C176.993 298.427 177.172 298.904 177.172 299.544V302H176.004V301.464C175.769 301.864 175.332 302.064 174.692 302.064C174.361 302.064 174.073 302.008 173.828 301.896C173.588 301.784 173.404 301.629 173.276 301.432C173.148 301.235 173.084 301.011 173.084 300.76C173.084 300.36 173.233 300.045 173.532 299.816C173.836 299.587 174.303 299.472 174.932 299.472H175.924C175.924 299.2 175.841 298.992 175.676 298.848C175.511 298.699 175.263 298.624 174.932 298.624C174.703 298.624 174.476 298.661 174.252 298.736C174.033 298.805 173.847 298.901 173.692 299.024L173.244 298.152C173.479 297.987 173.759 297.859 174.084 297.768C174.415 297.677 174.753 297.632 175.1 297.632ZM175.004 301.224C175.217 301.224 175.407 301.176 175.572 301.08C175.737 300.979 175.855 300.832 175.924 300.64V300.2H175.068C174.556 300.2 174.3 300.368 174.3 300.704C174.3 300.864 174.361 300.992 174.484 301.088C174.612 301.179 174.785 301.224 175.004 301.224ZM181.544 299.752C182.051 299.923 182.304 300.264 182.304 300.776C182.304 301.165 182.158 301.467 181.864 301.68C181.571 301.893 181.134 302 180.552 302H178.256V297.696H180.456C180.995 297.696 181.416 297.795 181.72 297.992C182.024 298.184 182.176 298.456 182.176 298.808C182.176 299.021 182.12 299.211 182.008 299.376C181.902 299.536 181.747 299.661 181.544 299.752ZM179.4 299.464H180.344C180.782 299.464 181 299.309 181 299C181 298.696 180.782 298.544 180.344 298.544H179.4V299.464ZM180.448 301.152C180.907 301.152 181.136 300.995 181.136 300.68C181.136 300.515 181.083 300.395 180.976 300.32C180.87 300.24 180.702 300.2 180.472 300.2H179.4V301.152H180.448ZM187.361 297.696V302H186.113V298.72H184.753L184.713 299.48C184.691 300.045 184.638 300.515 184.553 300.888C184.467 301.261 184.329 301.555 184.137 301.768C183.945 301.981 183.678 302.088 183.337 302.088C183.155 302.088 182.939 302.056 182.689 301.992L182.753 300.968C182.838 300.979 182.899 300.984 182.937 300.984C183.123 300.984 183.262 300.917 183.353 300.784C183.449 300.645 183.513 300.472 183.545 300.264C183.577 300.051 183.601 299.771 183.617 299.424L183.681 297.696H187.361ZM192.745 299.864C192.745 299.88 192.737 299.992 192.721 300.2H189.465C189.524 300.467 189.662 300.677 189.881 300.832C190.1 300.987 190.372 301.064 190.697 301.064C190.921 301.064 191.118 301.032 191.289 300.968C191.465 300.899 191.628 300.792 191.777 300.648L192.441 301.368C192.036 301.832 191.444 302.064 190.665 302.064C190.18 302.064 189.75 301.971 189.377 301.784C189.004 301.592 188.716 301.328 188.513 300.992C188.31 300.656 188.209 300.275 188.209 299.848C188.209 299.427 188.308 299.048 188.505 298.712C188.708 298.371 188.982 298.107 189.329 297.92C189.681 297.728 190.073 297.632 190.505 297.632C190.926 297.632 191.308 297.723 191.649 297.904C191.99 298.085 192.257 298.347 192.449 298.688C192.646 299.024 192.745 299.416 192.745 299.864ZM190.513 298.576C190.23 298.576 189.993 298.656 189.801 298.816C189.609 298.976 189.492 299.195 189.449 299.472H191.569C191.526 299.2 191.409 298.984 191.217 298.824C191.025 298.659 190.79 298.576 190.513 298.576ZM193.702 297.696H194.942V299.376H196.814V297.696H198.062V302H196.814V300.392H194.942V302H193.702V297.696ZM199.256 297.696H200.496V299.376H202.368V297.696H203.616V302H202.368V300.392H200.496V302H199.256V297.696ZM207.075 299.072C207.635 299.077 208.059 299.203 208.347 299.448C208.635 299.693 208.779 300.045 208.779 300.504C208.779 300.984 208.616 301.355 208.291 301.616C207.966 301.877 207.504 302.008 206.907 302.008L204.811 302V297.696H206.051V299.072H207.075ZM209.243 297.696H210.483V302H209.243V297.696ZM206.795 301.12C207.035 301.125 207.219 301.075 207.347 300.968C207.475 300.861 207.539 300.701 207.539 300.488C207.539 300.28 207.475 300.128 207.347 300.032C207.224 299.936 207.04 299.885 206.795 299.88L206.051 299.872V301.12H206.795ZM214.39 302L213.446 300.68L212.47 302H211.11L212.766 299.832L211.166 297.696H212.566L213.478 298.952L214.414 297.696H215.742L214.142 299.8L215.806 302H214.39ZM221.478 299.76C221.734 299.84 221.931 299.963 222.07 300.128C222.214 300.293 222.286 300.491 222.286 300.72C222.286 300.992 222.193 301.232 222.006 301.44C221.819 301.643 221.563 301.8 221.238 301.912C220.913 302.024 220.545 302.08 220.134 302.08C219.798 302.08 219.467 302.045 219.142 301.976C218.817 301.907 218.515 301.803 218.238 301.664L218.574 300.792C219.027 301.011 219.529 301.12 220.078 301.12C220.371 301.12 220.601 301.077 220.766 300.992C220.937 300.901 221.022 300.776 221.022 300.616C221.022 300.477 220.963 300.373 220.846 300.304C220.729 300.229 220.558 300.192 220.334 300.192H219.454V299.416H220.222C220.441 299.416 220.609 299.381 220.726 299.312C220.843 299.243 220.902 299.141 220.902 299.008C220.902 298.869 220.827 298.763 220.678 298.688C220.534 298.613 220.326 298.576 220.054 298.576C219.638 298.576 219.185 298.675 218.694 298.872L218.39 298.008C218.987 297.747 219.569 297.616 220.134 297.616C220.523 297.616 220.87 297.664 221.174 297.76C221.483 297.856 221.726 297.997 221.902 298.184C222.078 298.365 222.166 298.579 222.166 298.824C222.166 299.027 222.105 299.211 221.982 299.376C221.859 299.536 221.691 299.664 221.478 299.76ZM224.866 297.632C225.532 297.632 226.044 297.792 226.402 298.112C226.759 298.427 226.938 298.904 226.938 299.544V302H225.77V301.464C225.535 301.864 225.098 302.064 224.458 302.064C224.127 302.064 223.839 302.008 223.594 301.896C223.354 301.784 223.17 301.629 223.042 301.432C222.914 301.235 222.85 301.011 222.85 300.76C222.85 300.36 222.999 300.045 223.298 299.816C223.602 299.587 224.068 299.472 224.698 299.472H225.69C225.69 299.2 225.607 298.992 225.442 298.848C225.276 298.699 225.028 298.624 224.698 298.624C224.468 298.624 224.242 298.661 224.018 298.736C223.799 298.805 223.612 298.901 223.458 299.024L223.01 298.152C223.244 297.987 223.524 297.859 223.85 297.768C224.18 297.677 224.519 297.632 224.866 297.632ZM224.77 301.224C224.983 301.224 225.172 301.176 225.338 301.08C225.503 300.979 225.62 300.832 225.69 300.64V300.2H224.834C224.322 300.2 224.066 300.368 224.066 300.704C224.066 300.864 224.127 300.992 224.25 301.088C224.378 301.179 224.551 301.224 224.77 301.224ZM229.918 300.368H229.27V302H228.022V297.696H229.27V299.368H229.942L231.11 297.696H232.438L230.934 299.76L232.542 302H231.07L229.918 300.368ZM234.749 297.632C235.415 297.632 235.927 297.792 236.285 298.112C236.642 298.427 236.821 298.904 236.821 299.544V302H235.653V301.464C235.418 301.864 234.981 302.064 234.341 302.064C234.01 302.064 233.722 302.008 233.477 301.896C233.237 301.784 233.053 301.629 232.925 301.432C232.797 301.235 232.733 301.011 232.733 300.76C232.733 300.36 232.882 300.045 233.181 299.816C233.485 299.587 233.951 299.472 234.581 299.472H235.573C235.573 299.2 235.49 298.992 235.325 298.848C235.159 298.699 234.911 298.624 234.581 298.624C234.351 298.624 234.125 298.661 233.901 298.736C233.682 298.805 233.495 298.901 233.341 299.024L232.893 298.152C233.127 297.987 233.407 297.859 233.733 297.768C234.063 297.677 234.402 297.632 234.749 297.632ZM234.653 301.224C234.866 301.224 235.055 301.176 235.221 301.08C235.386 300.979 235.503 300.832 235.573 300.64V300.2H234.717C234.205 300.2 233.949 300.368 233.949 300.704C233.949 300.864 234.01 300.992 234.133 301.088C234.261 301.179 234.434 301.224 234.653 301.224ZM240.658 299.76C240.914 299.84 241.111 299.963 241.25 300.128C241.394 300.293 241.466 300.491 241.466 300.72C241.466 300.992 241.372 301.232 241.186 301.44C240.999 301.643 240.743 301.8 240.418 301.912C240.092 302.024 239.724 302.08 239.314 302.08C238.978 302.08 238.647 302.045 238.322 301.976C237.996 301.907 237.695 301.803 237.418 301.664L237.754 300.792C238.207 301.011 238.708 301.12 239.258 301.12C239.551 301.12 239.78 301.077 239.946 300.992C240.116 300.901 240.202 300.776 240.202 300.616C240.202 300.477 240.143 300.373 240.026 300.304C239.908 300.229 239.738 300.192 239.514 300.192H238.634V299.416H239.402C239.62 299.416 239.788 299.381 239.906 299.312C240.023 299.243 240.082 299.141 240.082 299.008C240.082 298.869 240.007 298.763 239.858 298.688C239.714 298.613 239.506 298.576 239.234 298.576C238.818 298.576 238.364 298.675 237.874 298.872L237.57 298.008C238.167 297.747 238.748 297.616 239.314 297.616C239.703 297.616 240.05 297.664 240.354 297.76C240.663 297.856 240.906 297.997 241.082 298.184C241.258 298.365 241.346 298.579 241.346 298.824C241.346 299.027 241.284 299.211 241.162 299.376C241.039 299.536 240.871 299.664 240.658 299.76ZM244.389 302.064C243.936 302.064 243.528 301.971 243.165 301.784C242.808 301.592 242.528 301.328 242.325 300.992C242.123 300.656 242.021 300.275 242.021 299.848C242.021 299.421 242.123 299.04 242.325 298.704C242.528 298.368 242.808 298.107 243.165 297.92C243.528 297.728 243.936 297.632 244.389 297.632C244.843 297.632 245.248 297.728 245.605 297.92C245.963 298.107 246.243 298.368 246.445 298.704C246.648 299.04 246.749 299.421 246.749 299.848C246.749 300.275 246.648 300.656 246.445 300.992C246.243 301.328 245.963 301.592 245.605 301.784C245.248 301.971 244.843 302.064 244.389 302.064ZM244.389 301.04C244.709 301.04 244.971 300.933 245.173 300.72C245.381 300.501 245.485 300.211 245.485 299.848C245.485 299.485 245.381 299.197 245.173 298.984C244.971 298.765 244.709 298.656 244.389 298.656C244.069 298.656 243.805 298.765 243.597 298.984C243.389 299.197 243.285 299.485 243.285 299.848C243.285 300.211 243.389 300.501 243.597 300.72C243.805 300.933 244.069 301.04 244.389 301.04ZM250.896 299.752C251.402 299.923 251.656 300.264 251.656 300.776C251.656 301.165 251.509 301.467 251.216 301.68C250.922 301.893 250.485 302 249.904 302H247.608V297.696H249.808C250.346 297.696 250.768 297.795 251.072 297.992C251.376 298.184 251.528 298.456 251.528 298.808C251.528 299.021 251.472 299.211 251.36 299.376C251.253 299.536 251.098 299.661 250.896 299.752ZM248.752 299.464H249.696C250.133 299.464 250.352 299.309 250.352 299C250.352 298.696 250.133 298.544 249.696 298.544H248.752V299.464ZM249.8 301.152C250.258 301.152 250.488 300.995 250.488 300.68C250.488 300.515 250.434 300.395 250.328 300.32C250.221 300.24 250.053 300.2 249.824 300.2H248.752V301.152H249.8Z" fill="#8590A0"/>
<path d="M34.0758 288.545C33.8154 295.22 36.8809 297.314 38.4462 297.527C39.6576 298.575 41.7664 298.543 42.6694 298.396C58.9165 296.338 62.6596 276.392 61.6245 274.264C60.5894 272.137 65.0999 268.188 65.1126 267.012C65.1253 265.837 63.7325 264.176 64.7994 263.364C65.8663 262.553 67.4951 253.282 65.5399 249.264C63.5848 245.245 64.8817 244.907 63.2011 237.246C61.5205 229.586 53.0801 216.444 45.177 218.828C37.274 221.211 39.7728 240.167 38.8273 240.627C37.8817 241.087 37.243 245.783 39.0514 252.504C40.8597 259.225 34.4013 280.201 34.0758 288.545Z" fill="#72CDA1" stroke="black" stroke-width="0.5"/>
<g style="mix-blend-mode:multiply">
<path d="M58.3555 286.889C58.8913 285.944 61.327 279.437 61.5235 278.626C61.5451 278.197 61.9156 274.928 61.7986 274.688C61.6816 274.447 61.57 273.709 61.4238 273.408C61.2775 273.108 61.7129 272.474 61.7855 272.216C61.8435 272.009 63.1945 270.019 63.8628 269.05C64.2637 268.532 65.0779 267.452 65.1278 267.269C65.1776 267.087 65.0817 266.614 65.0275 266.401C64.8804 265.878 64.5569 264.772 64.4399 264.531C64.3229 264.291 64.463 263.934 64.5476 263.785L64.8205 263.429C64.9186 263.274 65.1429 262.93 65.2559 262.796C65.3973 262.628 65.7855 260.829 66.0037 260.004C66.2219 259.179 66.4254 255.115 66.453 254.408C66.4806 253.701 66.4101 251.926 66.1978 251.286C65.9855 250.646 65.856 249.718 65.2109 248.545C64.6949 247.606 64.4958 246.481 64.4608 246.035L64.275 244.787L64.107 242.812L63.8329 240.517L63.2593 237.352C62.967 236.428 62.3383 234.42 62.1619 233.772C61.9415 232.962 61.7167 232.551 58.941 227.509C56.7205 223.474 52.9049 220.728 51.2747 219.859C49.6432 219.818 50.1404 227.095 50.8421 228.783C51.5438 230.47 51.7487 233.713 51.869 240.338C51.9892 246.963 47.4298 280.154 46.826 282.716C46.2223 285.277 39.5648 297.229 40.6095 298.272C41.4453 299.107 46.0698 297.615 48.2776 296.765C53.6395 294.751 57.8196 287.834 58.3555 286.889Z" fill="#C4C4C4"/>
</g>
<g style="mix-blend-mode:multiply">
<path d="M45.877 232.111C47.3507 228.092 49.4111 230.021 50.2572 231.488C52.4763 234.965 51.1508 249.114 49.7762 264.63C48.4016 280.146 41.3969 296.265 38.6165 297.618C38.2538 297.794 36.7099 296.477 35.9932 295.819C36.3667 295.716 38.2392 292.408 42.7407 279.994C48.3676 264.477 44.0348 237.135 45.877 232.111Z" fill="#A6C7A9"/>
</g>
<path d="M49.8913 271.52C52.1242 272.392 57.5954 272.591 65.0692 266.581M48.094 279.365C50.9262 280.85 58.0293 282.775 61.649 277.578M46.8169 274.736C44.5593 274.742 39.6732 272.922 38.189 265.597M49.1356 262.08C46.7563 262.145 41.4442 260.488 39.2308 253.337M43.8287 286.248C42.1887 286.594 38.3646 285.792 35.762 277.655M52.1477 253.959C55.469 253.661 63.4866 251.436 64.3202 244.972M51.1358 249.466C48.1801 249.585 41.6442 247.89 39.1463 240.154M52.3628 236.889C54.8212 236.521 59.984 234.899 60.9679 231.346M51.0994 240.509C49.4755 241.847 40.7698 239.365 39.3945 230.997" stroke="black" stroke-width="0.5"/>
<path d="M43.2421 288.762C39.9254 299.731 35.1577 305.034 27.4784 312.084C26.4859 314.182 28.2301 315.916 30.2769 314.23C37.9686 307.894 40.1665 300.016 42.6296 295.132C47.6453 285.186 51.5283 265.953 52.1284 253.967C52.7284 241.981 51.881 231.696 51.7356 230.39C51.4223 227.576 49.7408 227 50.1974 232.756C51.5639 249.981 47.388 275.051 43.2421 288.762Z" fill="#99ECC4" stroke="black" stroke-width="0.5"/>
<g style="mix-blend-mode:multiply">
<path d="M53.1836 263.177C55.0073 250.191 53.0419 237.31 51.8652 232.936C50.6639 232.067 51.8595 250.081 50.8264 260.244C49.7933 270.408 44.3104 291.115 40.2566 298.548L43.1245 298.412C43.9122 296.317 50.904 279.409 53.1836 263.177Z" fill="#72CDA1"/>
</g>
<path d="M294.231 153.712C292.256 152.521 288.961 146.593 281.714 141.411C274.467 136.228 265.639 121.455 269.803 102.585C273.41 107.175 276.267 109.178 278.139 106.847C279.447 102.472 273.783 98.7078 270.299 100.569C272.718 83.156 279.121 72.3513 278.678 60.7641C279.84 61.4333 283.038 65.0726 283.718 62.9574C284.483 59.4681 279.418 58.8725 278.678 59.7201L278.614 59.3556C277.806 54.7489 277.717 54.242 276.303 49.9999L272.919 50C274.127 53.1426 279.784 59.3977 275.506 73.4075C274.485 72.2784 272.221 71.1809 271.059 72.7528C270.787 73.1202 270.653 73.4525 270.627 73.7464C270.485 75.3484 273.557 75.808 275.08 74.5845C269.984 91.4641 265.545 109.953 269.04 124.427C269.318 125.579 270.969 128.732 271.275 129.624C270.864 129.82 268.718 130.215 267.522 134.704C266.327 139.194 270.299 144.501 271.275 141.977C272.504 141.047 270.988 134.805 271.992 131.916C272.5 132.748 273.027 133.502 273.568 134.283C277.195 139.522 280.329 142.465 284.341 148.717C287.053 152.941 276.696 155.573 274.968 157.932C274.659 158.353 274.148 159.919 274.519 161.276C274.936 162.802 276.466 164.065 280.648 163.145C286.97 161.755 288.222 153.961 288.057 150.238C288.139 150.651 288.996 152.571 291.762 156.939C295.219 162.4 292.256 174.315 291.268 176.301C290.28 178.287 288.798 178.535 284.6 179.776C280.401 181.017 270.769 175.308 269.04 174.315C268.241 173.856 266.072 174.457 264.967 175.849C263.682 177.469 263.84 180.161 269.287 183.499C277.388 188.464 286.658 182.424 290.28 178.783C290.527 178.7 290.675 179.131 289.292 181.514C287.563 184.492 279.413 191.939 276.696 193.925C273.98 195.91 259.161 204.102 254.222 208.073C249.282 212.045 247.199 221.229 246.813 220.919C243.588 218.331 232.66 220.302 234.135 223.635C234.249 223.892 234.438 224.165 234.711 224.456C238.07 228.03 244.178 224.621 246.813 222.47C245.825 229.42 248.427 234.761 249.282 236.619C251.011 240.373 249.87 245.589 249.529 247.292C249.133 249.278 247.554 250.767 246.319 250.767C245.084 250.767 243.108 248.285 243.108 248.782C243.108 249.278 244.343 251.76 246.319 252.257C248.295 252.753 249.776 251.264 250.517 249.278C251.11 247.689 251.767 242.307 251.685 239.494C252.475 241.083 258.172 247.799 260.312 250.446C255.457 252.257 255.141 258.675 257.955 259.061C258.226 259.098 258.545 259.068 258.914 258.959C262.273 257.966 262.362 253.869 261.785 251.552C264.749 254.531 272.498 255.98 275.462 256.476C278.425 256.973 281.022 255.283 281.496 256.456C282.105 257.966 282.366 258.723 284.6 259.951C285.909 260.671 287.204 261.086 288.057 260.425C288.705 259.923 288.91 259.037 288.057 257.966C286.759 256.335 285.872 255.489 285.095 255.148C286.234 255.419 288.11 255.302 291.515 253.25C294.747 251.3 295.078 248.528 293.887 247.058C293.258 246.282 292.144 245.68 291.021 246.051C289.016 246.714 283.612 252.753 279.166 254.739C275.61 256.327 270.275 254.077 268.052 252.753C274.227 253.25 277.931 248.782 277.931 246.796C277.931 246.379 277.844 246.061 277.684 245.828C277.081 244.947 275.438 245.266 273.486 246.051C271.016 247.044 268.299 251.512 267.064 251.76C265.83 252.009 263.754 250.767 261.384 248.534C259.578 246.831 254.387 240.59 252.246 237.363C258.671 239.238 261.617 236.394 261.669 233.963C261.679 233.497 261.583 233.047 261.384 232.647C260.149 230.165 255.951 232.151 254.222 233.392C252.493 234.633 251.505 236.37 251.011 236.122C250.517 235.874 248.295 227.683 248.295 222.966C248.295 219.193 251.258 214.444 252.74 212.541C253.399 216.678 254.053 224.35 258.795 224.35C260.636 224.35 261.619 223.8 262.07 223.034C263.073 221.332 261.86 219.146 260.771 218.393C259.932 217.813 256.445 214.775 255.457 214.03C254.469 213.286 253.234 211.548 255.951 208.818C258.124 206.633 270.687 198.972 276.696 195.414C276.614 196.407 276.449 199.088 276.449 201.868C276.449 205.343 280.154 211.797 284.6 210.307C285.399 210.04 285.935 209.684 286.261 209.274C287.753 207.405 284.896 204.42 282.871 203.605C280.895 202.811 278.59 197.814 277.684 195.414C280.546 191.578 281.151 192.447 286.575 187.719C293.383 181.785 294.149 174.315 294.478 172.081C297.442 176.301 306.58 177.542 309.544 173.57C310.676 172.053 311.237 170.644 310.521 169.008C309.596 166.896 307.89 166.008 306.086 167.117C303.917 168.45 300.653 171.336 298.924 171.833C297.541 172.23 295.549 170.84 294.726 170.095C296.701 163.344 293.902 157.022 292.256 154.705C300.159 162.152 306.58 160.663 308.556 157.436C310.532 154.209 307.815 150.982 306.58 150.734C305.592 150.535 305.345 151.147 305.345 151.478C306.58 151.23 308.998 154.152 306.58 156.939C303.745 160.207 296.701 155.202 294.231 153.712Z" fill="#8BA637"/>
<path d="M264.967 175.849C263.682 177.469 263.84 180.161 269.287 183.499C277.388 188.464 286.658 182.424 290.28 178.783C290.527 178.7 290.675 179.131 289.292 181.514C287.563 184.492 279.413 191.939 276.696 193.925C273.98 195.91 259.161 204.102 254.222 208.073C249.282 212.045 247.199 221.229 246.813 220.919C243.588 218.331 232.66 220.302 234.135 223.635M264.967 175.849C266.072 174.457 268.241 173.856 269.04 174.315C270.769 175.308 280.401 181.017 284.6 179.776C288.798 178.535 290.28 178.287 291.268 176.301C292.256 174.315 295.219 162.4 291.762 156.939C288.996 152.571 288.139 150.651 288.057 150.238C288.222 153.961 286.97 161.755 280.648 163.145C276.466 164.065 274.936 162.802 274.519 161.276M264.967 175.849C267.822 178.005 274.835 182.156 280.053 181.514M274.519 161.276C274.148 159.919 274.659 158.353 274.968 157.932C276.696 155.573 287.053 152.941 284.341 148.717C280.329 142.465 277.195 139.522 273.568 134.283C273.027 133.502 272.5 132.748 271.992 131.916C270.988 134.805 272.504 141.047 271.275 141.977M274.519 161.276C276.685 161.237 281.534 160.414 283.612 157.436M310.521 169.008C309.596 166.896 307.89 166.008 306.086 167.117C303.917 168.45 300.653 171.336 298.924 171.833C297.541 172.23 295.549 170.84 294.726 170.095C296.701 163.344 293.902 157.022 292.256 154.705C300.159 162.152 306.58 160.663 308.556 157.436C310.532 154.209 307.815 150.982 306.58 150.734C305.592 150.535 305.345 151.147 305.345 151.478C306.58 151.23 308.998 154.152 306.58 156.939C303.745 160.207 296.701 155.202 294.231 153.712C292.256 152.521 288.961 146.593 281.714 141.411C274.467 136.228 265.639 121.455 269.803 102.585C273.41 107.175 276.267 109.178 278.139 106.847M310.521 169.008C311.237 170.644 310.676 172.053 309.544 173.57C306.58 177.542 297.442 176.301 294.478 172.081C294.149 174.315 293.383 181.785 286.575 187.719C281.151 192.447 280.546 191.578 277.684 195.414C278.59 197.814 280.895 202.811 282.871 203.605C284.896 204.42 287.753 207.405 286.261 209.274M310.521 169.008C310.092 171.259 307.815 174.353 300.818 173.79M286.261 209.274C285.935 209.684 285.399 210.04 284.6 210.307C280.154 211.797 276.449 205.343 276.449 201.868C276.449 199.088 276.614 196.407 276.696 195.414C270.687 198.972 258.124 206.633 255.951 208.818C253.234 211.548 254.469 213.286 255.457 214.03C256.445 214.775 259.932 217.813 260.771 218.393C261.86 219.146 263.073 221.332 262.07 223.034M286.261 209.274C284.981 209.02 281.948 207.759 280.053 204.752M262.07 223.034C261.619 223.8 260.636 224.35 258.795 224.35C254.053 224.35 253.399 216.678 252.74 212.541C251.258 214.444 248.295 219.193 248.295 222.966C248.295 227.683 250.517 235.874 251.011 236.122C251.505 236.37 252.493 234.633 254.222 233.392C255.951 232.151 260.149 230.165 261.384 232.647C261.583 233.047 261.679 233.497 261.669 233.963M262.07 223.034C259.579 222.038 256.164 219.881 255.042 216.812M234.135 223.635C234.249 223.892 234.438 224.165 234.711 224.456C238.07 228.03 244.178 224.621 246.813 222.47C245.825 229.42 248.427 234.761 249.282 236.619C251.011 240.373 249.87 245.589 249.529 247.292C249.133 249.278 247.554 250.767 246.319 250.767C245.084 250.767 243.108 248.285 243.108 248.782C243.108 249.278 244.343 251.76 246.319 252.257C248.295 252.753 249.776 251.264 250.517 249.278C251.11 247.689 251.767 242.307 251.685 239.494C252.475 241.083 258.172 247.799 260.312 250.446C255.457 252.257 255.141 258.675 257.955 259.061M234.135 223.635C236.212 224.157 239.071 225.016 244.627 222.141M261.669 233.963C261.617 236.394 258.671 239.238 252.246 237.363C254.387 240.59 259.578 246.831 261.384 248.534C263.754 250.767 265.83 252.009 267.064 251.76C268.299 251.512 271.016 247.044 273.486 246.051C275.438 245.266 277.081 244.947 277.684 245.828M261.669 233.963C260.108 233.925 256.433 234.2 254.222 235.606M277.684 245.828C277.844 246.061 277.931 246.379 277.931 246.796C277.931 248.782 274.227 253.25 268.052 252.753C270.275 254.077 275.61 256.327 279.166 254.739C283.612 252.753 289.016 246.714 291.021 246.051C292.144 245.68 293.258 246.282 293.887 247.058M277.684 245.828C277.751 247.668 274.068 250.14 269.69 251.76M293.887 247.058C295.078 248.528 294.747 251.3 291.515 253.25C287.563 255.632 285.67 255.407 284.6 254.993C285.505 255.158 286.477 255.98 288.057 257.966C288.91 259.037 288.705 259.923 288.057 260.425M293.887 247.058C294.491 248.487 289.062 252.373 285.585 253.25M288.057 260.425C287.204 261.086 285.909 260.671 284.6 259.951C282.366 258.723 282.105 257.966 281.496 256.456C281.022 255.283 278.425 256.973 275.462 256.476C272.498 255.98 264.749 254.531 261.785 251.552C262.362 253.869 262.273 257.966 258.914 258.959C258.545 259.068 258.226 259.098 257.955 259.061M288.057 260.425C288.057 259.575 287.222 257.67 283.365 256.196M257.955 259.061C258.758 258.604 260.312 256.794 260.312 253.588M278.139 106.847C279.447 102.472 273.783 98.7078 270.299 100.569C272.718 83.156 279.121 72.3513 278.678 60.7641C279.84 61.4333 283.038 65.0726 283.718 62.9574M278.139 106.847C277.707 105.413 275.924 102.471 272.253 102.171M283.718 62.9574C284.483 59.4681 279.418 58.8725 278.678 59.7201C277.81 54.7726 277.754 54.3513 276.303 49.9999L272.919 50C274.127 53.1426 279.784 59.3977 275.506 73.4075C274.485 72.2784 272.221 71.1809 271.059 72.7528C270.787 73.1202 270.653 73.4525 270.627 73.7463M283.718 62.9574C283.718 62.048 282.02 60.1398 279.872 60.4407M270.627 73.7463C270.485 75.3484 273.557 75.808 275.08 74.5845C269.984 91.4641 265.545 109.953 269.04 124.427C269.318 125.579 270.969 128.732 271.275 129.624C270.864 129.82 268.718 130.215 267.522 134.704C266.327 139.194 270.299 144.501 271.275 141.977M270.627 73.7463C271.458 73.3863 273.316 72.8145 274.1 73.4075M271.275 141.977C270.201 141.069 269.013 138.556 269.448 135.003C269.803 132.114 270.732 131.791 271.015 131.583" stroke="#3A2C08" stroke-width="0.3"/>
<g style="mix-blend-mode:multiply">
<path d="M273.888 50C275.142 51.1229 275.613 51.9339 276.308 53.9649C277.235 56.6767 278.014 60.5272 277.795 63.8959C277.576 67.2645 276.876 71.6832 275.87 74.4393C274.864 77.1955 272.851 84.0641 272.458 86.0765C272.064 88.089 269.745 95.7887 269.439 99.2012C269.133 102.614 267.864 109.176 268.258 113.376C268.652 117.576 268.433 122.519 270.62 127.288C272.808 132.056 278.404 139.577 280.507 142.031C282.242 144.054 285.061 147.183 283.852 147.703C283.79 147.703 283.737 147.704 283.692 147.706L283.852 147.85C283.852 147.85 283.126 147.724 283.692 147.706L283.526 147.557C282.308 145.809 279.785 142.23 279.437 141.894C279.088 141.558 274.311 135.128 271.966 131.955L271.256 129.567L269.272 125.114C268.885 123.291 268.081 119.247 267.965 117.66C267.82 115.675 267.675 110.641 267.82 109.479C267.965 108.318 268.417 102.735 268.61 101.573C268.765 100.644 269.019 99.1425 269.127 98.5079L270.159 93.006L271.853 85.8261L275.096 74.4393C275.311 73.9431 275.766 72.8442 275.87 72.4182C276 71.8858 277.162 65.7707 276.855 62.6406C276.549 59.5105 275.855 55.977 275.613 55.6543C275.419 55.3962 274.067 52.544 272.921 50.0001L273.888 50Z" fill="#9BC89D"/>
</g>
<g style="mix-blend-mode:multiply">
<path d="M280.954 60.4386C282.521 60.7714 283.814 62.2065 283.72 63.1075C283.72 63.3325 283.078 63.671 282.844 63.6537C282.61 63.6364 281.752 63.1771 281.578 63.1075C281.405 63.0379 279.793 61.6085 279.542 61.4179C279.341 61.2653 278.869 60.8864 278.658 60.7159C278.771 60.4848 279.388 60.1058 280.954 60.4386Z" fill="#8AB98C"/>
</g>
<g style="mix-blend-mode:multiply">
<path d="M273.738 73.1831C274.41 73.3174 274.963 74.1844 275.156 74.6012C274.796 74.8064 273.925 75.2318 273.328 75.2915C272.581 75.3662 271.201 74.9743 270.995 74.7877C270.79 74.6012 270.454 74.06 270.603 73.7615C270.753 73.4629 272.899 73.0151 273.738 73.1831Z" fill="#8AB98C"/>
</g>
<g style="mix-blend-mode:multiply">
<path d="M271.015 131.566C271.715 130.839 271.493 129.958 271.295 129.608C270.893 129.608 269.687 130.535 269.25 130.989C268.813 131.444 267.047 134.003 267.274 137.073C267.606 141.566 270.351 142.65 270.648 142.65C270.886 142.65 271.179 142.207 271.295 141.986C271.161 141.852 270.746 141.346 270.159 140.395C269.425 139.206 269.337 136.724 269.39 135.203C269.442 133.682 270.141 132.475 271.015 131.566Z" fill="#8AB98C"/>
</g>
<g style="mix-blend-mode:multiply">
<path d="M272.156 102.091C277.379 102.88 278.015 106.743 278.104 106.92C277.047 108.175 275.529 107.732 275.352 107.721C275.175 107.71 273.934 106.92 273.369 106.425C272.804 105.93 270.998 104.032 270.721 103.722C270.499 103.473 270.019 102.83 269.824 102.547C269.029 102.047 271.24 101.953 272.156 102.091Z" fill="#8AB98C"/>
</g>
<g style="mix-blend-mode:multiply">
<path d="M281.41 256.138C281.48 255.796 282.799 256.074 283.449 256.256C284.194 256.432 286.564 257.769 287.189 258.541C288.025 259.573 287.879 259.917 288.025 260.413C287.918 260.501 287.653 260.678 287.453 260.678C287.204 260.678 286.573 260.737 286.339 260.678C286.104 260.619 285.576 260.413 285.106 260.207C284.637 260 284.138 259.779 283.874 259.573C283.61 259.366 282.569 258.644 282.334 258.423C282.099 258.202 281.718 257.45 281.645 257.052C281.571 256.654 281.322 256.565 281.41 256.138Z" fill="#8AB98C"/>
</g>
<g style="mix-blend-mode:multiply">
<path d="M290.294 251.014C292.553 249.639 293.684 248.245 293.949 247.565C293.711 246.006 292.035 245.783 290.97 246.097C290.117 246.348 288.307 247.925 287.909 248.325C287.512 248.725 284.471 251.069 283.771 251.813C282.462 253.203 284.125 253.535 284.795 253.409C286.129 253.159 287.47 252.733 290.294 251.014Z" fill="#8AB98C"/>
</g>
<g style="mix-blend-mode:multiply">
<path d="M275.915 248.512C277.024 247.77 277.842 246.301 277.735 245.855C276.795 244.639 274.09 245.855 273.758 245.96C273.427 246.064 272.446 246.57 272.115 246.876C271.783 247.181 271.093 247.848 270.803 248.111C270.512 248.375 269.661 249.398 269.121 249.941C268.689 250.375 267.88 251.303 267.529 251.712C267.596 251.808 268.115 251.941 269.661 251.712C271.594 251.427 274.807 249.255 275.915 248.512Z" fill="#8AB98C"/>
</g>
<g style="mix-blend-mode:multiply">
<path d="M308.173 172.44C309.382 171.765 310.263 170.134 310.543 168.99C309.479 166.364 307.259 166.402 306.382 167.002C306.004 167.261 304.236 168.465 303.807 168.765C303.378 169.065 301.997 170.096 301.699 170.321C301.4 170.546 299.796 171.427 299.423 171.615C299.124 171.765 298.626 171.915 298.415 171.971C298.465 172.446 299.038 173.479 300.934 173.809C303.303 174.222 306.662 173.284 308.173 172.44Z" fill="#8AB98C"/>
</g>
<g style="mix-blend-mode:multiply">
<path d="M276.439 201.958C278.062 198.743 280.052 208.523 286.254 209.119C286.254 210.127 284.169 210.435 283.123 210.499C282.163 210.558 279.951 209.6 278.556 207.477C277.549 205.944 276.532 203.861 276.439 201.958Z" fill="#8AB98C"/>
</g>
<g style="mix-blend-mode:multiply">
<path d="M290.523 177.567C290.237 177.763 289.898 177.976 289.519 178.199C287.17 179.323 282.748 179.919 282.242 179.95C281.648 179.988 276.998 178.222 276.12 177.974C275.184 177.71 269.307 173.973 267.771 174.133C266.91 174.222 265.393 175.039 264.973 175.892C268.166 179.032 275.126 181.544 279.831 181.544C282.744 181.544 287.019 179.668 289.519 178.199C289.927 178.004 290.272 177.793 290.523 177.567Z" fill="#8AB98C"/>
</g>
<g style="mix-blend-mode:multiply">
<path d="M284.578 151.09C287.224 158.993 277.545 161.213 274.589 161.306C274.276 161.054 274.362 160.228 274.401 159.723C274.487 158.625 275.236 157.437 275.851 157.164C276.422 156.912 280.832 156.076 281.767 155.891C283.358 155.578 284.949 153.976 284.578 151.09Z" fill="#8AB98C"/>
</g>
<g style="mix-blend-mode:multiply">
<path d="M260.359 253.546C260.359 252.124 260.506 250.494 260.491 250.42C259.061 250.568 257.115 252.805 256.806 253.546C256.639 253.945 256.069 256.376 256.393 257.576C256.652 258.537 257.631 258.915 258.088 258.984C258.27 258.865 258.755 258.445 259.238 257.71C259.843 256.791 260.359 254.969 260.359 253.546Z" fill="#8AB98C"/>
</g>
<g style="mix-blend-mode:multiply">
<path d="M254.208 235.49C256.218 234.172 260.052 233.916 261.718 233.953C261.998 231.284 259.262 231.182 257.891 231.547C256.906 231.809 255.082 232.8 254.536 233.129C253.99 233.459 251.832 235.655 251.532 235.956C251.291 236.198 251.122 236.185 251.067 236.149C251.277 236.478 252.198 236.807 254.208 235.49Z" fill="#8AB98C"/>
</g>
<g style="mix-blend-mode:multiply">
<path d="M244.474 222.203C244.999 221.908 246.319 221.219 246.914 220.911C244.658 219.171 239.673 219.883 238.518 220.014C237.364 220.146 235.155 221.154 234.557 221.807C233.824 222.607 234.137 223.073 234.163 223.521C234.662 223.653 235.886 224.154 237.941 224.154C240.236 224.154 243.818 222.572 244.474 222.203Z" fill="#8AB98C"/>
</g>
<g style="mix-blend-mode:multiply">
<path d="M255.096 216.847C256.902 220.999 261.734 222.853 262.109 223.063C261.893 223.373 261.196 223.928 260.22 224.152C258.64 224.515 257.33 224.061 256.856 223.835C256.382 223.608 255.683 222.7 255.096 221.883C254.509 221.067 253.583 217.686 253.2 215.735C252.893 214.174 252.801 212.907 252.793 212.468C253.516 212.06 253.29 212.695 255.096 216.847Z" fill="#8AB98C"/>
</g>
<path d="M262.848 77.5729C267.192 78.9109 271.832 83.3266 273.609 85.3672C273.588 84.6813 273.556 83.833 273.515 82.8709C273.467 81.7564 273.406 80.489 273.332 79.1444C273.294 78.4568 273.252 77.7491 273.207 77.0312C273.074 74.9018 272.91 72.6832 272.715 70.6387C272.583 69.2497 272.64 67.8931 272.275 66.7953C269.909 59.6919 270.024 60.9636 266.12 55.7425C262.216 50.5214 260.727 50.9849 258.503 48.763C257.255 47.5153 255.688 45.4079 253.634 43.0538C252.031 41.2155 250.13 39.2268 247.854 37.3798C245.366 35.3612 240.735 33.1056 238.236 31.9191C237.855 31.7114 237.454 31.5207 237.033 31.3495C236.708 31.1939 236.652 31.1486 236.715 31.1554C236.893 31.1745 238.009 31.6049 236.715 31.1554C236.6 31.1154 236.466 31.0685 236.311 31.0136C233.249 29.9349 231.498 29.692 230.001 29.2784C228.594 28.8901 227.411 28.3513 225.576 26.8291C222.259 24.0776 219.447 25.2167 214.709 26.7729C214.033 26.9946 213.319 27.2248 212.559 27.4534C207.681 28.9199 203.307 33.2779 201.729 35.2735C203.387 34.9497 208.433 33.9433 215.352 32.5079C224 30.7136 224.002 34.4913 229.787 39.4792C235.572 44.4672 236.748 47.0472 240.88 54.5346C245.012 62.022 251.769 65.2669 252.831 67.6581C253.892 70.0493 257.418 75.9005 262.848 77.5729Z" fill="#51938F"/>
<path d="M273.609 85.3672C271.832 83.3266 267.192 78.9109 262.848 77.5729C257.418 75.9005 253.892 70.0493 252.831 67.6581C251.769 65.2669 245.012 62.022 240.88 54.5346C236.748 47.0472 235.572 44.4672 229.787 39.4792C224.002 34.4913 224 30.7136 215.352 32.5079C208.433 33.9433 203.387 34.9497 201.729 35.2735M273.609 85.3672C271.855 83.2329 267.774 78.465 265.481 76.4674C262.616 73.9705 258.794 71.6495 257.429 68.3473C256.063 65.0451 253.928 61.6784 251.871 60.3908C249.814 59.1032 247.186 58.6703 245.186 55.18C243.185 51.6897 241.25 46.5861 238.476 43.476C235.702 40.366 233.913 37.8955 231.087 35.731C228.262 33.5665 226.396 31.0018 222.051 30.5682C217.706 30.1345 213.472 31.3617 210.616 31.7981C208.332 32.1472 203.74 34.2605 201.729 35.2735M273.609 85.3672C273.588 84.6813 273.556 83.833 273.515 82.8709M201.729 35.2735C203.307 33.2779 207.681 28.9199 212.559 27.4534C213.319 27.2248 214.033 26.9946 214.709 26.7729M273.515 82.8709C272.742 81.2395 270.332 77.3687 266.881 74.9363C262.567 71.8957 261.976 73.4322 259.629 68.6771C257.282 63.9221 260.037 61.4711 254.194 58.5628C248.351 55.6545 247.034 53.6812 245.829 50.8891C244.624 48.097 245.748 49.0013 242.838 45.0003C239.928 40.9993 240.556 42.8085 237.274 39.4875C233.992 36.1664 226.524 29.5467 222.299 28.9134C218.919 28.4067 215.83 27.2753 214.709 26.7729M273.515 82.8709C273.467 81.7564 273.406 80.489 273.332 79.1444M214.709 26.7729C219.447 25.2167 222.259 24.0776 225.576 26.8291C227.411 28.3513 228.594 28.8901 230.001 29.2784M273.207 77.0312C271.731 75.1195 268.127 70.9491 265.527 69.5612C262.277 67.8263 263.986 67.0324 260.817 60.7525C257.648 54.4725 259.631 57.8545 254.132 53.113C248.633 48.3715 247.752 48.2396 246.158 43.8658C244.882 40.3668 243.129 33.8282 237.033 31.3495M273.207 77.0312C273.074 74.9018 272.91 72.6832 272.715 70.6387M273.207 77.0312C273.252 77.7491 273.294 78.4568 273.332 79.1444M237.033 31.3495C235.712 30.7178 238.837 31.904 236.311 31.0136C233.249 29.9349 231.498 29.692 230.001 29.2784M237.033 31.3495C238.814 32.2016 244.873 34.9608 247.854 37.3798C250.13 39.2268 252.031 41.2155 253.634 43.0538M272.715 70.6387C272.583 69.2497 272.64 67.8931 272.275 66.7953C269.909 59.6919 270.024 60.9636 266.12 55.7425C262.216 50.5214 260.727 50.9849 258.503 48.763C257.255 47.5153 255.688 45.4079 253.634 43.0538M272.715 70.6387C270.868 69.6195 266.595 66.5151 264.282 62.2512C261.391 56.9214 264.076 58.2271 260.7 54.93C257.324 51.6329 258.052 53.7006 255.359 50.7942C253.204 48.4691 253.311 44.6652 253.634 43.0538M230.001 29.2784C230.72 30.2496 232.79 32.6567 235.319 34.5156C238.481 36.8393 237.817 35.1905 240.33 38.3134C242.843 41.4363 242.636 40.944 243.957 43.5359C245.279 46.1278 246.434 47.4271 247.889 50.3275C249.345 53.2279 252.046 53.9623 253.269 55.2686C254.492 56.575 258.611 58.0551 259.705 61.5651C260.799 65.0751 262.75 70.0734 265.199 71.7463C267.159 73.0846 271.437 77.236 273.332 79.1444" stroke="black" stroke-width="0.3"/>
<g style="mix-blend-mode:multiply">
<path d="M253.767 47.7285C253.431 46.9049 253.568 44.2689 253.68 43.0538C254.845 44.4394 257.293 47.3475 257.765 47.8947C258.355 48.5787 258.772 49.1785 259.54 49.6784C260.308 50.1782 261.246 50.8966 261.975 51.315C262.705 51.7335 263.459 52.4653 264.095 53.2637C264.761 54.1 265.877 55.3464 266.699 56.4516C267.521 57.5569 268.339 58.8635 269.013 59.3747C269.687 59.886 269.694 60.8126 270.739 62.1778C271.784 63.5429 271.606 64.9222 271.929 65.5333C272.251 66.1445 272.504 67.5195 272.594 68.3405C272.666 68.9973 272.699 70.1286 272.706 70.6121C267.03 67.9526 263.573 60.7217 263.2 59.9349C262.828 59.1481 262.597 57.3976 262.394 56.8293C262.191 56.261 261.124 55.3384 260.875 55.0243C260.627 54.7101 259.232 53.3777 257.475 52.6821C255.717 51.9865 254.188 48.758 253.767 47.7285Z" fill="#A7D0CE"/>
</g>
<g style="mix-blend-mode:multiply">
<path d="M243.458 37.2241C239.79 30.4956 232.311 29.4291 229.12 29.1264C228.271 29.0121 227.331 28.2013 226.967 27.8102C222.457 23.0266 218.984 25.4539 217.785 25.7343C216.826 25.9587 210.439 31.4495 207.365 34.1669C209.153 33.1637 213.633 31.3456 217.248 32.0987C219.166 32.4983 219.929 31.4271 223.481 33.4256C226.027 35.5504 227.767 38.1587 229.549 39.3295C232.187 41.0629 236.42 46.7816 236.993 47.6067C237.566 48.4318 240.41 53.6653 241.007 54.8709C241.604 56.0766 243.861 58.6373 244.71 59.88C245.56 61.1227 248.495 63.5713 248.871 63.7589C249.017 63.8317 250.89 65.0166 252.247 66.8092C253.684 68.7086 254.635 71.2597 255.75 72.7735C256.654 73.5811 258.609 75.3154 259.19 75.7924C259.916 76.3885 263.961 78.2592 264.857 78.3312C265.573 78.3888 267.257 79.7739 268.009 80.4593C269.558 81.6421 271.847 80.2971 262.989 74.3859C263.009 72.0781 267.3 71.9585 262.6 69.0344C250.38 61.4322 259.861 58.4618 258.618 56.7353C257.418 55.0688 255.07 54.2417 249.917 49.4298C245.207 45.0313 247.586 44.7971 243.458 37.2241Z" fill="#85CCC8"/>
</g>
<g style="mix-blend-mode:multiply">
<path d="M245.243 56.2378C238.72 38.6251 226.211 31.6505 223.819 30.8494L226.587 36.4329C227.9 37.5574 230.891 40.6139 232.074 41.541C233.552 42.7 237.311 48.2291 238.037 49.4061C238.763 50.5831 241.125 55.1258 242.101 56.6522C243.078 58.1786 245.093 60.4715 246.082 61.3126C246.874 61.9854 248.255 63.2835 248.846 63.8484C249.67 64.912 251.096 65.4031 252.551 67.3226C254.37 70.7987 257.655 74.8096 258.356 75.1885C259.605 75.8643 262.863 77.6592 263.679 77.8646C264.494 78.07 265.889 79.1417 267.193 79.665C268.497 80.1883 270.381 82.2954 271.505 83.2418C272.63 84.1882 273.672 85.7349 273.625 85.4037C273.587 85.1388 273.534 81.3272 273.513 79.4545C269.207 68.2722 250.518 70.4815 245.243 56.2378Z" fill="#C4C4C4"/>
</g>
<path d="M274.583 49.7236C272.147 43.1383 263.459 31.953 258.308 25.5321C257.071 23.9723 255.956 24.6222 255.554 25.1422C255.557 25.8878 257.188 29.127 263.686 36.1196C270.185 43.1121 273.686 54.5639 274.623 59.4157C274.838 60.3516 275.587 62.1072 276.869 61.643C278.473 61.0628 276.317 54.4102 274.583 49.7236Z" fill="#5C956D" stroke="black" stroke-width="0.3"/>
<g style="mix-blend-mode:multiply">
<path d="M263.722 33.7167C271.727 43.3123 275.349 56.3312 276.16 61.6412C276.868 61.9243 277.341 61.239 277.465 60.1464C277.59 59.0538 276.157 54.0762 275.353 51.6325C274.55 49.1887 273.444 47.2281 272.734 45.7459C272.024 44.2636 269.56 40.6327 268.916 39.771C268.4 39.0817 265.846 35.4501 264.634 33.7205L260.284 28.0728L258.678 25.9318L257.754 25.6595L263.722 33.7167Z" fill="#C4C4C4"/>
</g>
<path d="M267.143 21.8306C265.836 27.296 259.765 26.5452 256.893 25.4867C255.976 25.6052 258.047 27.2024 259.31 27.5986C260.574 27.9948 266.033 30.5527 263.93 35.207C261.828 39.8612 255.371 45.4513 243.832 42.7468C232.293 40.0423 231.882 24.3234 232.049 23.01C232.327 20.8295 231.383 19.0555 231.054 18.1966C231.304 18.4441 232.636 18.0294 235.521 16.6868C239.127 15.0085 243.919 8.7945 253.146 7.32207C262.374 5.84964 268.778 14.999 267.143 21.8306Z" fill="#FF878E" stroke="black" stroke-width="0.3"/>
<g style="mix-blend-mode:multiply">
<path d="M250.861 32.3398C254.467 33.0764 258.541 37.7389 260.128 39.978L257.451 42.5265L236.446 38.0402L234.373 34.3076C234.327 33.9521 234.805 32.9486 237.077 31.7776C239.917 30.3139 246.353 31.419 250.861 32.3398Z" fill="#C4C4C4"/>
</g>
<path d="M265.296 21.6266C264.613 23.6963 261.22 25.2155 259.144 24.2569C257.813 23.6424 257.72 20.4701 260.818 20.0819C263.297 19.7714 264.578 16.5671 264.555 14.6705C265.384 15.5361 266.15 19.0396 265.296 21.6266Z" fill="#FDB8BC"/>
<g style="mix-blend-mode:multiply">
<path d="M265.483 17.0793C265.058 23.2903 260.563 23.7366 258.407 23.2341C258.413 23.8771 259.233 24.977 260.998 24.9402C262.284 24.9133 264.645 24.246 265.625 22.1153C266.315 20.6143 265.791 17.969 265.483 17.0793Z" fill="#EFCED0"/>
</g>
<path d="M260.045 12.2823C262.129 16.1755 259.158 20.0423 256.357 20.9965C254.36 21.6768 250.56 19.1119 254.485 16.9593C257.108 15.5204 256.432 10.9694 255.998 8.96366C257.237 9.07521 258.264 8.95617 260.045 12.2823Z" fill="#FDB8BC"/>
<g style="mix-blend-mode:multiply">
<path d="M261.4 16.8898C260.107 20.8181 256.566 22.0294 254.833 20.9378C260.903 18.7507 259.965 11.41 256.047 8.96696C258.959 8.08322 262.607 13.2209 261.4 16.8898Z" fill="#EFCED0"/>
</g>
<path d="M253.027 39.3922C257.401 38.7851 259.239 35.1782 258.784 32.2541C258.459 30.1697 254.423 27.9949 254.339 32.4701C254.282 35.4614 249.527 37.3558 247.548 37.9024C248.223 38.9484 249.452 39.8883 253.027 39.3922Z" fill="#FDB8BC"/>
<path d="M242.779 36.3989C247.376 36.3569 251.112 33.3109 251.503 30.3773C251.781 28.2863 248.525 25.059 247.178 29.3276C246.278 32.1808 239.12 33.6542 237.068 33.6192C237.419 34.8132 239.1 36.4325 242.779 36.3989Z" fill="#FDB8BC"/>
<path d="M250.379 13.5434C252.256 16.0597 251.88 18.7688 249.697 20.7671C248.141 22.1915 243.631 21.3672 246.362 17.8206C248.187 15.45 246.149 12.7491 244.946 11.0862C246.303 10.8054 248.123 10.5191 250.379 13.5434Z" fill="#FDB8BC"/>
<path d="M238.686 27.6946C241.583 28.9034 244.12 27.8799 245.527 25.2768C246.531 23.4212 244.635 19.2471 241.858 22.7579C240.003 25.1046 236.887 23.7842 234.982 23.0219C235.039 24.4062 235.204 26.2418 238.686 27.6946Z" fill="#FDB8BC"/>
<g style="mix-blend-mode:multiply">
<path d="M246.664 10.8888C251.061 14.0198 250.313 18.4187 249.13 20.2896C249.739 20.4949 251.347 20.3855 251.892 18.7062C252.289 17.4835 252.203 14.715 250.806 13.0582C249.741 11.7952 247.605 10.8906 246.664 10.8888Z" fill="#EFCED0"/>
</g>
<g style="mix-blend-mode:multiply">
<path d="M234.805 23.2826C241.645 30.5037 245.137 23.9372 244.882 21.7384C245.52 21.8174 246.921 22.6125 246.685 24.3623C246.513 25.6364 244.67 28.1563 242.569 28.6872C239.727 29.4052 234.735 27.8527 234.805 23.2826Z" fill="#EFCED0"/>
</g>
<g style="mix-blend-mode:multiply">
<path d="M259.357 23.9417C259.362 24.8019 258.634 25.6849 258.268 26.0189L238.623 14.751L240.255 13.4767C241.231 13.4433 244.15 13.838 248.011 15.6834C252.839 17.9902 259.35 22.8665 259.357 23.9417Z" fill="#E4A7A7"/>
</g>
<g style="mix-blend-mode:multiply">
<path d="M248.955 35.3635C252.266 32.8843 252.609 29.6266 250.454 27.94C250.318 34.3908 240.64 36.7739 237.074 33.8412C238.409 38.6291 245.864 37.679 248.955 35.3635Z" fill="#EFCED0"/>
</g>
<g style="mix-blend-mode:multiply">
<path d="M258.611 31.5033C258.185 37.7143 249.663 38.3834 247.507 37.8809C247.514 38.5239 248.832 40.078 250.574 40.3671C254.765 41.0628 257.596 38.5796 258.752 36.5393C259.914 34.4898 258.918 32.393 258.611 31.5033Z" fill="#EFCED0"/>
</g>
<g style="mix-blend-mode:multiply">
<path d="M244.541 34.2939C250.788 35.5611 257.577 30.6658 260.191 28.0597C262.479 28.235 263.735 30.8314 264.104 31.4484C264.474 32.0653 265.234 39.0223 255.582 42.3109C245.491 45.7487 240.22 41.2309 238.226 39.8942C236.232 38.5575 233.369 33.1132 232.924 30.7181C232.568 28.8019 231.688 25.3652 231.977 21.0467C233.506 24.1864 238.294 33.0266 244.541 34.2939Z" fill="#ECCCCC"/>
</g>
<path d="M243.769 16.1871C247.722 17.914 255.705 21.8724 257.626 24.5597C259.548 27.247 256.223 28.1593 254.257 28.0722C252.554 27.9968 249.757 24.9808 246.94 23.3868C244.123 21.7928 234.657 17.8311 233.332 16.2308C232.006 14.6305 232.692 14.1689 233.893 13.3609C235.094 12.553 238.828 14.0285 243.769 16.1871Z" fill="#FBC726" stroke="black" stroke-width="0.3"/>
<g style="mix-blend-mode:multiply">
<path d="M238.455 16.0507C241.531 17.0265 252.123 23.637 256.999 26.868C257.85 27.0798 258.782 26.2603 258.188 25.2362C256.78 22.8095 250.634 19.4232 246.476 17.3472C243.316 15.7696 235.768 12.8276 234.439 13.0912C233.865 13.2052 233.292 13.5639 232.989 13.9942C232.686 14.4245 234.081 14.663 238.455 16.0507Z" fill="#DCD275"/>
</g>
<path d="M286.552 78.8371L282.776 92.9936C279.814 88.4577 274.768 81.7054 269.027 74.9072C264.775 69.8718 260.142 64.8113 255.694 60.6078C254.262 59.2554 252.85 57.9916 251.476 56.846C249.576 55.2626 247.425 54.0732 245.119 53.213C240.304 51.4165 234.814 51.0559 229.532 51.5411C222.148 52.2194 215.173 54.5511 211.019 56.9232C210.089 54.9165 210.651 48.7965 218.807 43.5622C222.371 41.2744 227.387 39.1558 234.363 37.6238C239.352 36.528 244.637 36.6321 249.91 37.6755C255.5 38.7816 261.076 40.9431 266.271 43.8498C270.777 46.371 274.996 49.4527 278.689 52.8924C282.139 56.1053 285.129 59.6306 287.465 63.3031C288.803 65.4068 289.926 67.5588 290.798 69.7281L286.552 78.8371Z" fill="#62ACA8"/>
<path d="M234.363 37.6238C239.352 36.528 244.637 36.6321 249.91 37.6755M234.363 37.6238C237.988 37.8132 241.302 41.6543 242.506 43.5512M234.363 37.6238C227.387 39.1558 222.371 41.2744 218.807 43.5622M286.552 78.8371L282.776 92.9936C279.814 88.4577 274.768 81.7054 269.027 74.9072M286.552 78.8371L290.798 69.7281C289.926 67.5588 288.803 65.4068 287.465 63.3031M286.552 78.8371C286.306 77.7173 285.197 75.5994 283.354 72.9169M270.859 58.7833C269.346 60.1763 264.194 62.4915 255.694 60.6078M270.859 58.7833C272.684 60.4526 274.379 62.1396 275.927 63.7932M270.859 58.7833C268.95 57.0373 266.898 55.3106 264.721 53.6617M255.694 60.6078C254.262 59.2554 252.85 57.9916 251.476 56.846C249.576 55.2626 247.425 54.0732 245.119 53.213M255.694 60.6078C260.142 64.8113 264.775 69.8718 269.027 74.9072M275.927 63.7932C277.799 61.9485 280.972 57.1856 278.689 52.8924M275.927 63.7932C277.497 65.4694 278.917 67.1113 280.171 68.6657M278.689 52.8924C282.139 56.1053 285.129 59.6306 287.465 63.3031M278.689 52.8924C274.996 49.4527 270.777 46.371 266.271 43.8498M280.171 68.6657C278.809 71.0775 274.673 75.7022 269.027 74.9072M280.171 68.6657C281.395 70.1826 282.461 71.6161 283.354 72.9169M283.354 72.9169C285.005 71.2412 288.138 66.9724 287.465 63.3031M264.721 53.6617C266.372 52.0905 268.993 47.9285 266.271 43.8498M264.721 53.6617C262.455 51.9459 260.053 50.3144 257.535 48.8331M266.271 43.8498C261.076 40.9431 255.5 38.7816 249.91 37.6755M257.535 48.8331C255.266 50.4335 249.607 53.5501 245.119 53.213M257.535 48.8331C256.225 48.0623 254.883 47.3321 253.513 46.6519M245.119 53.213C240.304 51.4165 234.814 51.0559 229.532 51.5411M253.513 46.6519C251.969 45.8857 250.389 45.1828 248.777 44.5566C247.45 44.1947 245.244 43.7789 242.506 43.5512M253.513 46.6519C253.77 44.3244 253.41 39.2707 249.91 37.6755M242.506 43.5512C240.146 43.3549 237.39 43.2985 234.462 43.537M218.807 43.5622C210.651 48.7965 210.089 54.9165 211.019 56.9232C215.173 54.5511 222.148 52.2194 229.532 51.5411M218.807 43.5622C223.16 42.5825 227.002 44.7884 227.556 44.6666C229.893 44.0725 232.228 43.7189 234.462 43.537M234.462 43.537C234.323 45.4359 233.142 49.6953 229.532 51.5411" stroke="#3A2C08" stroke-width="0.3"/>
<g style="mix-blend-mode:multiply">
<path d="M241.689 46.1308C262.004 49.1279 278.64 72.2672 285.478 82.5871L282.734 92.878C277.958 86.802 267.725 73.1762 263.591 68.7012C258.186 62.8499 250.508 55.0328 244.245 52.7975C237.982 50.5623 230.447 51.606 226.011 51.9601C222.463 52.2433 214.854 54.8513 211.139 56.9319L210.875 56.7958C210.625 55.8874 210.633 54.3939 210.817 53.6571C213.744 50.2337 223.272 43.4138 241.689 46.1308Z" fill="#C4C4C4"/>
</g>
<path d="M280.392 135.06C290.528 119.643 290.093 95.6833 288.609 85.6306C289.394 86.4921 290.708 94.594 289.686 120.11C288.408 152.004 299.935 175.846 295.843 165.085C291.751 154.324 301.354 126.429 301.135 104.18C300.963 86.6084 295.246 71.3759 289.745 57.234C287.374 51.1372 282.257 44.794 279.492 44.7925L272.196 44.7874C272.883 45.474 274.534 54.8752 276.751 93.8321C278.968 132.789 263.915 150.462 256.111 154.428C259.981 154.396 270.256 150.477 280.392 135.06Z" fill="#79A000" stroke="#3A2C08" stroke-width="0.3" stroke-linecap="round" stroke-linejoin="round"/>
<g style="mix-blend-mode:multiply">
<path d="M294.256 117.627C293.507 124.244 294.313 146.944 294.809 157.466C294.863 157.86 294.972 158.87 294.978 159.758C294.984 160.647 295.388 163.034 295.59 164.117C295.294 163.285 294.639 161.402 294.384 160.522C294.066 159.422 292.909 154.653 292.518 152.653C292.127 150.653 291.153 145.303 290.943 143.618C290.734 141.932 290.18 136.977 290.063 135.727C289.945 134.476 289.686 128.813 289.634 127.448C289.583 126.083 289.673 122.988 289.684 122.307C289.695 121.627 289.886 116.472 289.932 114.839C289.978 113.206 289.956 109.875 290.07 109.215C290.184 108.556 290.08 104.738 290.168 103.263C290.257 101.788 289.884 93.4465 289.81 91.7249C289.735 90.0033 289.166 87.2777 289.176 86.7427C289.185 86.3147 288.891 85.8687 288.743 85.6992C287.102 83.1994 289.653 77.7014 292.691 83.9223C296.489 91.6984 295.192 109.357 294.256 117.627Z" fill="#BDC6A1"/>
</g>
<g style="mix-blend-mode:multiply">
<path d="M256.376 154.498C257.376 153.81 258.511 152.954 259.735 151.944C262.373 149.509 264.77 146.486 265.195 145.888C265.952 144.823 270.024 137.622 270.901 135.662C271.777 133.702 273.061 129.908 273.297 128.91C273.532 127.913 274.621 124.063 274.806 123.007C274.99 121.952 275.639 119.01 275.79 117.964C275.941 116.917 276.583 111.534 276.691 109.924C276.798 108.313 277.005 101.573 276.981 100.142C276.957 98.7111 276.59 91.3558 276.491 88.3097C276.393 85.2635 275.398 72.7187 275.377 71.4744C275.356 70.2301 274.345 59.4603 274.227 58.2421C274.109 57.0239 273.194 47.5825 272.803 46.1248C272.491 44.9587 272.426 45.2973 272.283 44.7628L276.44 44.7628L276.821 44.6628C280.132 60.33 285.832 94.0435 283.251 113.536C280.995 130.569 268.213 144.95 259.735 151.944C258.615 152.979 257.451 153.907 256.376 154.498Z" fill="#BDC6A1"/>
</g>
<path d="M159.612 70C145.742 70 138.311 74.1691 138.311 77.2758H179.282C179.282 74.6277 173.482 70 159.612 70Z" fill="#4D9C76" stroke="black" stroke-width="0.3"/>
<path d="M118.701 136.404V102.718H198.83V136.404H118.701Z" fill="#72CDA1" stroke="black" stroke-width="0.3"/>
<path d="M115 139.998V136.404H202V139.998H115Z" fill="#4D9C76" stroke="black" stroke-width="0.3"/>
<path d="M116.278 100.899L118.166 94.9219L125.99 94.9481L135.163 94.9789L142.987 95.0052L151.081 95.0324L158.366 95.0568L167.539 95.0876L176.442 95.1175L184.266 95.1437L192.36 95.1709L199.105 95.1935C199.914 96.8235 201.587 100.138 201.803 100.355C202.45 101.877 201.353 102.619 200.723 102.8H195.058H186.694H178.061H168.888H158.366H148.577H139.564H131.386H122.483H118.166C116.224 102.8 116.098 101.532 116.278 100.899Z" fill="#4D9C76"/>
<path d="M122.483 102.8C120.002 102.8 118.466 102.8 118.166 102.8C116.224 102.8 116.098 101.532 116.278 100.899L118.166 94.9219L125.99 94.9481M122.483 102.8L125.99 94.9481M122.483 102.8C124.741 102.8 127.781 102.8 131.386 102.8M125.99 94.9481L135.163 94.9789M135.163 94.9789L131.386 102.8M135.163 94.9789L142.987 95.0052M131.386 102.8C138.676 102.8 148.272 102.8 158.366 102.8M142.987 95.0052L139.553 102.825M142.987 95.0052L151.081 95.0324M151.081 95.0324L148.577 102.8M151.081 95.0324L158.366 95.0568M158.366 95.0568V102.8M158.366 95.0568L167.539 95.0876M158.366 102.8C161.839 102.8 165.371 102.8 168.888 102.8M167.539 95.0876L168.888 102.8M167.539 95.0876L176.442 95.1175M168.888 102.8C171.973 102.8 175.048 102.8 178.061 102.8M176.442 95.1175L178.061 102.8M176.442 95.1175L184.266 95.1437M178.061 102.8C181.013 102.8 183.906 102.8 186.694 102.8M184.266 95.1437L199.105 95.1935C199.914 96.8235 201.587 100.138 201.803 100.355C202.45 101.877 201.353 102.619 200.723 102.8C198.947 102.8 197.051 102.8 195.058 102.8M184.266 95.1437L186.694 102.8M186.694 102.8C189.616 102.8 192.422 102.8 195.058 102.8M192.36 95.1709L195.058 102.8" stroke="black" stroke-width="0.3"/>
<g style="mix-blend-mode:multiply">
<path d="M122.54 102.765L125.982 95.0371H117.945C117.561 96.0417 117.013 98.3296 116.448 100.31C115.884 102.291 117.111 102.944 118.308 102.765H122.54Z" fill="#295A88"/>
</g>
<g style="mix-blend-mode:multiply">
<path d="M139.544 102.756L142.986 95.0283H135.126L131.367 102.756H139.544Z" fill="#295A88"/>
</g>
<g style="mix-blend-mode:multiply">
<path d="M158.33 102.756V95.0283H151.143L148.664 102.756H158.33Z" fill="#295A88"/>
</g>
<g style="mix-blend-mode:multiply">
<path d="M168.722 102.756L167.651 95.0283H176.433L177.926 102.756H168.722Z" fill="#295A88"/>
</g>
<g style="mix-blend-mode:multiply">
<path d="M186.593 102.756L184.303 95.0283H192.271L195.051 102.756H186.593Z" fill="#285681"/>
</g>
<path d="M118.438 80.2647V94.9347L199.107 95.2064V79.7214C199.107 78.4174 197.758 77.2764 196.409 77.2764H120.866C118.708 77.2764 118.348 79.2686 118.438 80.2647Z" fill="#72CDA1" stroke="black" stroke-width="0.3"/>
<path d="M118.453 80.1143H199.084" stroke="black" stroke-width="0.3"/>
<path d="M130.239 136.504V110.789C130.209 110.257 130.411 109.192 131.462 109.192H139.965H148.418C149.273 109.192 149.764 109.913 149.764 110.789V136.504H139.965H130.239Z" fill="#D7E8EC"/>
<path d="M139.965 109.192C135.848 109.192 132.07 109.192 131.462 109.192C130.411 109.192 130.209 110.257 130.239 110.789V136.504H139.965M139.965 109.192C142.97 109.192 146.156 109.192 148.418 109.192C149.273 109.192 149.764 109.913 149.764 110.789C149.764 111.664 149.764 128.354 149.764 136.504H139.965M139.965 109.192V136.504" stroke="black" stroke-width="0.3"/>
<path d="M131.936 126.165V110.952H138.411V126.165H131.936Z" fill="#DBF8FF" stroke="black" stroke-width="0.3"/>
<path d="M132.041 116.362L135.967 111.07H137.637L132.041 118.943V116.362Z" fill="white"/>
<path d="M132.041 119.914L138.29 111.112V113.265L132.041 122.495V119.914Z" fill="white"/>
<path d="M131.936 134.585V128.065H138.411V134.585H131.936Z" fill="#DBF8FF" stroke="black" stroke-width="0.3"/>
<path d="M141.789 126.165V110.952H148.264V126.165H141.789Z" fill="#DBF8FF" stroke="black" stroke-width="0.3"/>
<path d="M141.789 134.585V128.065H148.264V134.585H141.789Z" fill="#DBF8FF" stroke="black" stroke-width="0.3"/>
<path d="M128.733 138.14V136.502H150.871V138.14H152.878V139.999H126.562V138.14H128.733Z" fill="#3A7B5C"/>
<path d="M128.733 138.14V136.502H150.871V138.14M128.733 138.14H126.562V139.999H152.878V138.14H150.871M128.733 138.14H150.871" stroke="black" stroke-width="0.3"/>
<path d="M141.902 116.362L145.828 111.07H147.498L141.902 118.943V116.362Z" fill="white"/>
<path d="M121.146 91.3249V82.9775C121.095 82.6201 121.237 81.9053 122.21 81.9053H139.311H158.401H177.246H194.948C195.694 81.9053 196.088 82.4874 196.088 83.5047V91.3464L177.246 91.341L158.401 91.3356L139.311 91.3301L121.146 91.3249Z" fill="#DBF8FF"/>
<path d="M125.995 86.5259C125.416 88.6342 126.756 90.6191 127.498 91.3479H132.288C132.733 89.3288 128.612 84.9368 126.496 82.9932C126.57 83.2922 126.574 84.4175 125.995 86.5259Z" fill="#5CB2C8"/>
<path d="M134.522 84.8408C133.275 85.6488 132.145 87.8695 131.736 88.8789L132.015 91.3451H135.579C135.178 90.8516 134.707 86.8033 134.522 84.8408Z" fill="#5CB2C8"/>
<path d="M146.669 84.7295C141.857 84.1461 137.201 88.1498 135.141 89.7209V91.347H144.553C144.181 90.4498 144.753 88.5432 147.337 88.0946C149.92 87.646 151.384 88.7675 151.792 89.3844C152.312 88.4119 152.328 85.4155 146.669 84.7295Z" fill="#5CB2C8"/>
<path d="M154.621 86.5242C156.537 87.1071 157.869 89.9818 158.296 91.3463H164.143C161.136 82.8779 152.226 85.7956 154.621 86.5242Z" fill="#5CB2C8"/>
<path d="M167.429 84.1688C165.369 85.0659 164.014 86.8439 163.141 88.6005C162.16 89.6335 162.732 90.8244 163.141 91.2907H172.108C169.657 90.5056 167.987 88.0382 169.991 85.9073C171.512 84.2901 173.518 85.1225 173.778 85.515C173.333 83.3841 169.505 83.2651 167.429 84.1688Z" fill="#5CB2C8"/>
<path d="M158.359 129.553H160.365H188.794H190.729C191.518 123.772 189.039 109.567 174.831 109.567C160.623 109.567 157.214 122.481 158.359 129.553Z" fill="#DBF8FF" stroke="black" stroke-width="0.3"/>
<path d="M173.749 120.621C169.42 120.793 167.565 125.6 166.664 128.419H171.363C169.809 125.992 171.6 123.307 173.749 120.621Z" fill="#5CB2C8"/>
<path d="M168.815 114.434C170.129 116.72 168.178 124.733 168.139 124.934C168.006 125.525 167.34 127.504 167.024 128.42L163.561 128.18C161.77 126.095 164.038 123.29 166.227 120.284C167.979 117.879 168.682 115.382 168.815 114.434Z" fill="#5CB2C8"/>
<path d="M162.979 117.967C162.152 118.16 162.111 118.894 162.296 119.415C161.921 119.189 161.013 119.344 160.772 119.975C160.497 120.692 161.434 120.773 162.164 120.642C161.732 120.717 162.056 122.201 162.711 122.151C163.235 122.111 163.672 121.475 163.672 120.868C163.963 121.177 165.109 120.946 165.109 120.303C165.109 119.524 164.087 119.705 163.822 119.65C164.139 119.193 164.014 117.726 162.979 117.967Z" fill="#5CB2C8"/>
<path d="M163.639 120.827C163.623 121.59 164.011 123.174 165.686 123.412" stroke="#5CB2C8" stroke-width="0.4"/>
<path d="M185.867 120.409C187.152 120.709 187.216 121.849 186.928 122.658C187.51 122.307 188.921 122.547 189.295 123.527C189.721 124.641 188.266 124.766 187.134 124.563C187.803 124.68 187.301 126.984 186.284 126.906C185.471 126.844 184.791 125.856 184.791 124.914C184.341 125.394 182.56 125.035 182.56 124.036C182.56 122.827 184.148 123.109 184.56 123.022C184.067 122.313 184.261 120.035 185.867 120.409Z" fill="#5CB2C8"/>
<path d="M184.831 124.85C184.856 126.034 184.255 128.494 181.653 128.863" stroke="#5CB2C8" stroke-width="0.4"/>
<path d="M170.909 115.649C171.787 115.854 171.83 116.633 171.634 117.185C172.031 116.946 172.995 117.11 173.251 117.779C173.542 118.54 172.548 118.626 171.774 118.487C172.232 118.567 171.889 120.14 171.194 120.087C170.638 120.045 170.174 119.37 170.174 118.727C169.866 119.054 168.65 118.809 168.65 118.127C168.65 117.301 169.735 117.493 170.016 117.434C169.679 116.95 169.812 115.393 170.909 115.649Z" fill="#5CB2C8"/>
<path d="M170.21 118.683C170.227 119.491 169.817 121.172 168.039 121.425" stroke="#5CB2C8" stroke-width="0.4"/>
<g style="mix-blend-mode:multiply">
<path d="M160.416 133.193V130.423L188.611 130.253V133.193H160.416Z" fill="#77D3A7"/>
</g>
<path d="M160.334 128.214V129.513H188.621V128.214H160.334Z" fill="#A9DEC5" stroke="black" stroke-width="0.3"/>
<path d="M160.416 130.383V129.513H188.596V130.383L187.991 131.186H161.279L160.416 130.383Z" fill="#4D9C76" stroke="black" stroke-width="0.3"/>
<path d="M139.207 81.8535C129.411 81.8535 122.472 81.8535 122.107 81.8535C121.134 81.8535 120.992 82.5683 121.042 82.9257V91.2731L139.207 91.2783M139.207 81.8535V91.2783M139.207 81.8535C144.858 81.8535 151.459 81.8535 158.297 81.8535M139.207 91.2783L158.297 91.2838M158.297 81.8535V91.2838M158.297 81.8535C164.563 81.8535 171.027 81.8535 177.143 81.8535M158.297 91.2838L177.143 91.2892M177.143 81.8535C183.661 81.8535 189.783 81.8535 194.845 81.8535C195.591 81.8535 195.985 82.4356 195.985 83.4529C195.985 84.4702 195.985 89.1046 195.985 91.2946L177.143 91.2892M177.143 81.8535V91.2892" stroke="black" stroke-width="0.3"/>
<path d="M182.919 120.812C182.684 119.673 180.516 113.891 184.591 112.824C184.591 112.824 183.654 112.124 183.086 111.764C182.518 111.404 181.539 110.966 181.539 110.966C178.106 114.837 183.213 122.235 182.919 120.812Z" fill="#5CB2C8"/>
<path d="M176.22 116.918C177.077 115.309 178.232 114.814 178.631 113.39C179.031 111.966 178.645 110.308 178.454 110.005C178.454 110.005 177.805 109.84 177.077 109.783C176.756 109.758 176.032 109.679 175.334 109.665C174.45 109.646 173.602 109.696 173.602 109.696C174.904 110.552 175.757 113.878 174.426 114.913C173.416 115.699 174.426 119.363 176.588 119.604C175.439 118.615 175.604 118.076 176.22 116.918Z" fill="#5CB2C8"/>
<rect x="149.859" y="73.1152" width="17.7749" height="1.50028" rx="0.75014" fill="#1B2621"/>
<g style="mix-blend-mode:multiply">
<path d="M118.434 106.67V102.826H198.57V106.67H118.434Z" fill="#77BA9A"/>
</g>
<g style="mix-blend-mode:multiply">
<path d="M199.086 80.113H118.434C118.434 78.6298 119.452 77.1404 121.101 77.4274H196.419C197.892 77.4274 199.086 78.6298 199.086 80.113Z" fill="#69917D"/>
</g>
<g style="mix-blend-mode:multiply">
<rect x="128.768" y="136.455" width="5.72701" height="1.56712" fill="#A3A3A3"/>
</g>
<g style="mix-blend-mode:multiply">
<rect x="126.533" y="138.25" width="7.96061" height="1.61036" fill="#A3A3A3"/>
</g>
<defs>
<filter id="filter0_d" x="22" y="10" width="277" height="355" filterUnits="userSpaceOnUse" color-interpolation-filters="sRGB">
<feFlood flood-opacity="0" result="BackgroundImageFix"/>
<feColorMatrix in="SourceAlpha" type="matrix" values="0 0 0 0 0 0 0 0 0 0 0 0 0 0 0 0 0 0 127 0"/>
<feOffset dx="1" dy="4"/>
<feGaussianBlur stdDeviation="17.5"/>
<feColorMatrix type="matrix" values="0 0 0 0 0 0 0 0 0 0 0 0 0 0 0 0 0 0 0.25 0"/>
<feBlend mode="normal" in2="BackgroundImageFix" result="effect1_dropShadow"/>
<feBlend mode="normal" in="SourceGraphic" in2="effect1_dropShadow" result="shape"/>
</filter>
</defs>
</svg>
