<svg width="320" height="368" viewBox="0 0 320 368" fill="none" xmlns="http://www.w3.org/2000/svg">
<g filter="url(#filter0_d)">
<rect x="56" y="36" width="207" height="285" fill="white"/>
</g>
<rect x="124" y="181.723" width="71.2841" height="0.554259" fill="#C4C4C4"/>
<path d="M143.562 160.4V173H140.646V162.74H138.126V160.4H143.562ZM151.151 173.216C150.107 173.216 149.177 172.958 148.361 172.442C147.545 171.926 146.903 171.182 146.435 170.21C145.979 169.226 145.751 168.056 145.751 166.7C145.751 165.344 145.979 164.18 146.435 163.208C146.903 162.224 147.545 161.474 148.361 160.958C149.177 160.442 150.107 160.184 151.151 160.184C152.195 160.184 153.125 160.442 153.941 160.958C154.757 161.474 155.393 162.224 155.849 163.208C156.317 164.18 156.551 165.344 156.551 166.7C156.551 168.056 156.317 169.226 155.849 170.21C155.393 171.182 154.757 171.926 153.941 172.442C153.125 172.958 152.195 173.216 151.151 173.216ZM151.151 170.75C151.919 170.75 152.519 170.42 152.951 169.76C153.395 169.1 153.617 168.08 153.617 166.7C153.617 165.32 153.395 164.3 152.951 163.64C152.519 162.98 151.919 162.65 151.151 162.65C150.395 162.65 149.795 162.98 149.351 163.64C148.919 164.3 148.703 165.32 148.703 166.7C148.703 168.08 148.919 169.1 149.351 169.76C149.795 170.42 150.395 170.75 151.151 170.75ZM163.368 173.216C162.324 173.216 161.394 172.958 160.578 172.442C159.762 171.926 159.12 171.182 158.652 170.21C158.196 169.226 157.968 168.056 157.968 166.7C157.968 165.344 158.196 164.18 158.652 163.208C159.12 162.224 159.762 161.474 160.578 160.958C161.394 160.442 162.324 160.184 163.368 160.184C164.412 160.184 165.342 160.442 166.158 160.958C166.974 161.474 167.61 162.224 168.066 163.208C168.534 164.18 168.768 165.344 168.768 166.7C168.768 168.056 168.534 169.226 168.066 170.21C167.61 171.182 166.974 171.926 166.158 172.442C165.342 172.958 164.412 173.216 163.368 173.216ZM163.368 170.75C164.136 170.75 164.736 170.42 165.168 169.76C165.612 169.1 165.834 168.08 165.834 166.7C165.834 165.32 165.612 164.3 165.168 163.64C164.736 162.98 164.136 162.65 163.368 162.65C162.612 162.65 162.012 162.98 161.568 163.64C161.136 164.3 160.92 165.32 160.92 166.7C160.92 168.08 161.136 169.1 161.568 169.76C162.012 170.42 162.612 170.75 163.368 170.75ZM179.237 167.798H176.105V170.858H173.783V167.798H170.669V165.602H173.783V162.542H176.105V165.602H179.237V167.798Z" fill="#04004D"/>
<path d="M100.25 192V199H98.64V193.32H95.48V199H93.87V192H100.25ZM103.955 193.54C104.789 193.54 105.429 193.74 105.875 194.14C106.322 194.533 106.545 195.13 106.545 195.93V199H105.085V198.33C104.792 198.83 104.245 199.08 103.445 199.08C103.032 199.08 102.672 199.01 102.365 198.87C102.065 198.73 101.835 198.537 101.675 198.29C101.515 198.043 101.435 197.763 101.435 197.45C101.435 196.95 101.622 196.557 101.995 196.27C102.375 195.983 102.959 195.84 103.745 195.84H104.985C104.985 195.5 104.882 195.24 104.675 195.06C104.469 194.873 104.159 194.78 103.745 194.78C103.459 194.78 103.175 194.827 102.895 194.92C102.622 195.007 102.389 195.127 102.195 195.28L101.635 194.19C101.929 193.983 102.279 193.823 102.685 193.71C103.099 193.597 103.522 193.54 103.955 193.54ZM103.835 198.03C104.102 198.03 104.339 197.97 104.545 197.85C104.752 197.723 104.899 197.54 104.985 197.3V196.75H103.915C103.275 196.75 102.955 196.96 102.955 197.38C102.955 197.58 103.032 197.74 103.185 197.86C103.345 197.973 103.562 198.03 103.835 198.03ZM111.07 193.54C111.57 193.54 112.024 193.657 112.43 193.89C112.844 194.117 113.167 194.44 113.4 194.86C113.634 195.273 113.75 195.757 113.75 196.31C113.75 196.863 113.634 197.35 113.4 197.77C113.167 198.183 112.844 198.507 112.43 198.74C112.024 198.967 111.57 199.08 111.07 199.08C110.384 199.08 109.844 198.863 109.45 198.43V200.94H107.89V193.62H109.38V194.24C109.767 193.773 110.33 193.54 111.07 193.54ZM110.8 197.8C111.2 197.8 111.527 197.667 111.78 197.4C112.04 197.127 112.17 196.763 112.17 196.31C112.17 195.857 112.04 195.497 111.78 195.23C111.527 194.957 111.2 194.82 110.8 194.82C110.4 194.82 110.07 194.957 109.81 195.23C109.557 195.497 109.43 195.857 109.43 196.31C109.43 196.763 109.557 197.127 109.81 197.4C110.07 197.667 110.4 197.8 110.8 197.8ZM119.168 194.9H117.348V199H115.798V194.9H113.978V193.62H119.168V194.9ZM120 193.62H121.55V195.72H123.89V193.62H125.45V199H123.89V196.99H121.55V199H120V193.62ZM132.173 196.33C132.173 196.35 132.163 196.49 132.143 196.75H128.073C128.147 197.083 128.32 197.347 128.593 197.54C128.867 197.733 129.207 197.83 129.613 197.83C129.893 197.83 130.14 197.79 130.353 197.71C130.573 197.623 130.777 197.49 130.963 197.31L131.793 198.21C131.287 198.79 130.547 199.08 129.573 199.08C128.967 199.08 128.43 198.963 127.963 198.73C127.497 198.49 127.137 198.16 126.883 197.74C126.63 197.32 126.503 196.843 126.503 196.31C126.503 195.783 126.627 195.31 126.873 194.89C127.127 194.463 127.47 194.133 127.903 193.9C128.343 193.66 128.833 193.54 129.373 193.54C129.9 193.54 130.377 193.653 130.803 193.88C131.23 194.107 131.563 194.433 131.803 194.86C132.05 195.28 132.173 195.77 132.173 196.33ZM129.383 194.72C129.03 194.72 128.733 194.82 128.493 195.02C128.253 195.22 128.107 195.493 128.053 195.84H130.703C130.65 195.5 130.503 195.23 130.263 195.03C130.023 194.823 129.73 194.72 129.383 194.72ZM136.539 193.54C137.039 193.54 137.492 193.657 137.899 193.89C138.312 194.117 138.636 194.44 138.869 194.86C139.102 195.273 139.219 195.757 139.219 196.31C139.219 196.863 139.102 197.35 138.869 197.77C138.636 198.183 138.312 198.507 137.899 198.74C137.492 198.967 137.039 199.08 136.539 199.08C135.852 199.08 135.312 198.863 134.919 198.43V200.94H133.359V193.62H134.849V194.24C135.236 193.773 135.799 193.54 136.539 193.54ZM136.269 197.8C136.669 197.8 136.996 197.667 137.249 197.4C137.509 197.127 137.639 196.763 137.639 196.31C137.639 195.857 137.509 195.497 137.249 195.23C136.996 194.957 136.669 194.82 136.269 194.82C135.869 194.82 135.539 194.957 135.279 195.23C135.026 195.497 134.899 195.857 134.899 196.31C134.899 196.763 135.026 197.127 135.279 197.4C135.539 197.667 135.869 197.8 136.269 197.8ZM142.873 199.08C142.299 199.08 141.783 198.963 141.323 198.73C140.869 198.49 140.513 198.16 140.253 197.74C139.999 197.32 139.873 196.843 139.873 196.31C139.873 195.777 139.999 195.3 140.253 194.88C140.513 194.46 140.869 194.133 141.323 193.9C141.783 193.66 142.299 193.54 142.873 193.54C143.439 193.54 143.933 193.66 144.353 193.9C144.779 194.133 145.089 194.47 145.283 194.91L144.073 195.56C143.793 195.067 143.389 194.82 142.863 194.82C142.456 194.82 142.119 194.953 141.853 195.22C141.586 195.487 141.453 195.85 141.453 196.31C141.453 196.77 141.586 197.133 141.853 197.4C142.119 197.667 142.456 197.8 142.863 197.8C143.396 197.8 143.799 197.553 144.073 197.06L145.283 197.72C145.089 198.147 144.779 198.48 144.353 198.72C143.933 198.96 143.439 199.08 142.873 199.08ZM148.6 196.96H147.79V199H146.23V193.62H147.79V195.71H148.63L150.09 193.62H151.75L149.87 196.2L151.88 199H150.04L148.6 196.96ZM152.646 193.62H154.196V196.82L156.816 193.62H158.246V199H156.696V195.8L154.086 199H152.646V193.62ZM163.126 199L161.946 197.35L160.726 199H159.026L161.096 196.29L159.096 193.62H160.846L161.986 195.19L163.156 193.62H164.816L162.816 196.25L164.896 199H163.126ZM173.746 199V195.78L172.136 198.48H171.476L169.906 195.77V199H168.496V193.62H170.126L171.846 196.73L173.676 193.62H175.136L175.156 199H173.746ZM178.74 193.54C179.574 193.54 180.214 193.74 180.66 194.14C181.107 194.533 181.33 195.13 181.33 195.93V199H179.87V198.33C179.577 198.83 179.03 199.08 178.23 199.08C177.817 199.08 177.457 199.01 177.15 198.87C176.85 198.73 176.62 198.537 176.46 198.29C176.3 198.043 176.22 197.763 176.22 197.45C176.22 196.95 176.407 196.557 176.78 196.27C177.16 195.983 177.744 195.84 178.53 195.84H179.77C179.77 195.5 179.667 195.24 179.46 195.06C179.254 194.873 178.944 194.78 178.53 194.78C178.244 194.78 177.96 194.827 177.68 194.92C177.407 195.007 177.174 195.127 176.98 195.28L176.42 194.19C176.714 193.983 177.064 193.823 177.47 193.71C177.884 193.597 178.307 193.54 178.74 193.54ZM178.62 198.03C178.887 198.03 179.124 197.97 179.33 197.85C179.537 197.723 179.684 197.54 179.77 197.3V196.75H178.7C178.06 196.75 177.74 196.96 177.74 197.38C177.74 197.58 177.817 197.74 177.97 197.86C178.13 197.973 178.347 198.03 178.62 198.03ZM186.996 194.9H184.236V199H182.686V193.62H186.996V194.9ZM189.912 193.54C190.746 193.54 191.386 193.74 191.832 194.14C192.279 194.533 192.502 195.13 192.502 195.93V199H191.042V198.33C190.749 198.83 190.202 199.08 189.402 199.08C188.989 199.08 188.629 199.01 188.322 198.87C188.022 198.73 187.792 198.537 187.632 198.29C187.472 198.043 187.392 197.763 187.392 197.45C187.392 196.95 187.579 196.557 187.952 196.27C188.332 195.983 188.916 195.84 189.702 195.84H190.942C190.942 195.5 190.839 195.24 190.632 195.06C190.426 194.873 190.116 194.78 189.702 194.78C189.416 194.78 189.132 194.827 188.852 194.92C188.579 195.007 188.346 195.127 188.152 195.28L187.592 194.19C187.886 193.983 188.236 193.823 188.642 193.71C189.056 193.597 189.479 193.54 189.912 193.54ZM189.792 198.03C190.059 198.03 190.296 197.97 190.502 197.85C190.709 197.723 190.856 197.54 190.942 197.3V196.75H189.872C189.232 196.75 188.912 196.96 188.912 197.38C188.912 197.58 188.989 197.74 189.142 197.86C189.302 197.973 189.519 198.03 189.792 198.03ZM197.299 196.2C197.619 196.3 197.865 196.453 198.039 196.66C198.219 196.867 198.309 197.113 198.309 197.4C198.309 197.74 198.192 198.04 197.959 198.3C197.725 198.553 197.405 198.75 196.999 198.89C196.592 199.03 196.132 199.1 195.619 199.1C195.199 199.1 194.785 199.057 194.379 198.97C193.972 198.883 193.595 198.753 193.249 198.58L193.669 197.49C194.235 197.763 194.862 197.9 195.549 197.9C195.915 197.9 196.202 197.847 196.409 197.74C196.622 197.627 196.729 197.47 196.729 197.27C196.729 197.097 196.655 196.967 196.509 196.88C196.362 196.787 196.149 196.74 195.869 196.74H194.769V195.77H195.729C196.002 195.77 196.212 195.727 196.359 195.64C196.505 195.553 196.579 195.427 196.579 195.26C196.579 195.087 196.485 194.953 196.299 194.86C196.119 194.767 195.859 194.72 195.519 194.72C194.999 194.72 194.432 194.843 193.819 195.09L193.439 194.01C194.185 193.683 194.912 193.52 195.619 193.52C196.105 193.52 196.539 193.58 196.919 193.7C197.305 193.82 197.609 193.997 197.829 194.23C198.049 194.457 198.159 194.723 198.159 195.03C198.159 195.283 198.082 195.513 197.929 195.72C197.775 195.92 197.565 196.08 197.299 196.2ZM199.443 193.62H200.993V196.82L203.613 193.62H205.043V199H203.493V195.8L200.883 199H199.443V193.62ZM206.543 193.62H208.093V195.72H210.433V193.62H211.993V199H210.433V196.99H208.093V199H206.543V193.62ZM216.006 199.08C215.44 199.08 214.93 198.963 214.476 198.73C214.03 198.49 213.68 198.16 213.426 197.74C213.173 197.32 213.046 196.843 213.046 196.31C213.046 195.777 213.173 195.3 213.426 194.88C213.68 194.46 214.03 194.133 214.476 193.9C214.93 193.66 215.44 193.54 216.006 193.54C216.573 193.54 217.08 193.66 217.526 193.9C217.973 194.133 218.323 194.46 218.576 194.88C218.83 195.3 218.956 195.777 218.956 196.31C218.956 196.843 218.83 197.32 218.576 197.74C218.323 198.16 217.973 198.49 217.526 198.73C217.08 198.963 216.573 199.08 216.006 199.08ZM216.006 197.8C216.406 197.8 216.733 197.667 216.986 197.4C217.246 197.127 217.376 196.763 217.376 196.31C217.376 195.857 217.246 195.497 216.986 195.23C216.733 194.957 216.406 194.82 216.006 194.82C215.606 194.82 215.276 194.957 215.016 195.23C214.756 195.497 214.626 195.857 214.626 196.31C214.626 196.763 214.756 197.127 215.016 197.4C215.276 197.667 215.606 197.8 216.006 197.8ZM224.139 196.19C224.773 196.403 225.089 196.83 225.089 197.47C225.089 197.957 224.906 198.333 224.539 198.6C224.173 198.867 223.626 199 222.899 199H220.029V193.62H222.779C223.453 193.62 223.979 193.743 224.359 193.99C224.739 194.23 224.929 194.57 224.929 195.01C224.929 195.277 224.859 195.513 224.719 195.72C224.586 195.92 224.393 196.077 224.139 196.19ZM221.459 195.83H222.639C223.186 195.83 223.459 195.637 223.459 195.25C223.459 194.87 223.186 194.68 222.639 194.68H221.459V195.83ZM222.769 197.94C223.343 197.94 223.629 197.743 223.629 197.35C223.629 197.143 223.563 196.993 223.429 196.9C223.296 196.8 223.086 196.75 222.799 196.75H221.459V197.94H222.769Z" fill="#0B0751"/>
<path d="M93.8758 217.108C93.2338 217.108 92.6518 216.97 92.1298 216.694C91.6138 216.412 91.2058 216.025 90.9058 215.533C90.6118 215.035 90.4648 214.474 90.4648 213.85C90.4648 213.226 90.6118 212.668 90.9058 212.176C91.2058 211.678 91.6138 211.291 92.1298 211.015C92.6518 210.733 93.2368 210.592 93.8848 210.592C94.4308 210.592 94.9228 210.688 95.3608 210.88C95.8048 211.072 96.1768 211.348 96.4768 211.708L95.5408 212.572C95.1148 212.08 94.5868 211.834 93.9568 211.834C93.5668 211.834 93.2188 211.921 92.9128 212.095C92.6068 212.263 92.3668 212.5 92.1928 212.806C92.0248 213.112 91.9408 213.46 91.9408 213.85C91.9408 214.24 92.0248 214.588 92.1928 214.894C92.3668 215.2 92.6068 215.44 92.9128 215.614C93.2188 215.782 93.5668 215.866 93.9568 215.866C94.5868 215.866 95.1148 215.617 95.5408 215.119L96.4768 215.983C96.1768 216.349 95.8048 216.628 95.3608 216.82C94.9168 217.012 94.4218 217.108 93.8758 217.108ZM104.512 212.158V217H103.108V213.31H101.578L101.533 214.165C101.509 214.801 101.449 215.329 101.353 215.749C101.257 216.169 101.101 216.499 100.885 216.739C100.669 216.979 100.369 217.099 99.9849 217.099C99.7809 217.099 99.5379 217.063 99.2559 216.991L99.3279 215.839C99.4239 215.851 99.4929 215.857 99.5349 215.857C99.7449 215.857 99.9009 215.782 100.003 215.632C100.111 215.476 100.183 215.281 100.219 215.047C100.255 214.807 100.282 214.492 100.3 214.102L100.372 212.158H104.512ZM110.713 212.158L108.526 217.297C108.304 217.855 108.028 218.248 107.698 218.476C107.374 218.704 106.981 218.818 106.519 218.818C106.267 218.818 106.018 218.779 105.772 218.701C105.526 218.623 105.325 218.515 105.169 218.377L105.682 217.378C105.79 217.474 105.913 217.549 106.051 217.603C106.195 217.657 106.336 217.684 106.474 217.684C106.666 217.684 106.822 217.636 106.942 217.54C107.062 217.45 107.17 217.297 107.266 217.081L107.284 217.036L105.187 212.158H106.636L107.995 215.443L109.363 212.158H110.713ZM115.746 212.158V217H114.342V215.2C113.934 215.404 113.484 215.506 112.992 215.506C112.338 215.506 111.843 215.359 111.507 215.065C111.177 214.765 111.012 214.303 111.012 213.679V212.158H112.416V213.589C112.416 213.883 112.491 214.096 112.641 214.228C112.797 214.36 113.019 214.426 113.307 214.426C113.673 214.426 114.018 214.348 114.342 214.192V212.158H115.746ZM124.483 212.158V217H117.094V212.158H118.489V215.848H120.1V212.158H121.495V215.848H123.088V212.158H124.483ZM125.831 212.158H127.226V215.038L129.584 212.158H130.871V217H129.476V214.12L127.127 217H125.831V212.158ZM136.945 217V214.102L135.496 216.532H134.902L133.489 214.093V217H132.22V212.158H133.687L135.235 214.957L136.882 212.158H138.196L138.214 217H136.945ZM139.559 212.158H140.954V215.038L143.312 212.158H144.599V217H143.204V214.12L140.855 217H139.559V212.158ZM153.313 212.158V217H151.909V213.31H149.893V217H148.498V212.158H153.313ZM157.512 212.086C157.962 212.086 158.37 212.191 158.736 212.401C159.108 212.605 159.399 212.896 159.609 213.274C159.819 213.646 159.924 214.081 159.924 214.579C159.924 215.077 159.819 215.515 159.609 215.893C159.399 216.265 159.108 216.556 158.736 216.766C158.37 216.97 157.962 217.072 157.512 217.072C156.894 217.072 156.408 216.877 156.054 216.487V218.746H154.65V212.158H155.991V212.716C156.339 212.296 156.846 212.086 157.512 212.086ZM157.269 215.92C157.629 215.92 157.923 215.8 158.151 215.56C158.385 215.314 158.502 214.987 158.502 214.579C158.502 214.171 158.385 213.847 158.151 213.607C157.923 213.361 157.629 213.238 157.269 213.238C156.909 213.238 156.612 213.361 156.378 213.607C156.15 213.847 156.036 214.171 156.036 214.579C156.036 214.987 156.15 215.314 156.378 215.56C156.612 215.8 156.909 215.92 157.269 215.92ZM165.615 214.597C165.615 214.615 165.606 214.741 165.588 214.975H161.925C161.991 215.275 162.147 215.512 162.393 215.686C162.639 215.86 162.945 215.947 163.311 215.947C163.563 215.947 163.785 215.911 163.977 215.839C164.175 215.761 164.358 215.641 164.526 215.479L165.273 216.289C164.817 216.811 164.151 217.072 163.275 217.072C162.729 217.072 162.246 216.967 161.826 216.757C161.406 216.541 161.082 216.244 160.854 215.866C160.626 215.488 160.512 215.059 160.512 214.579C160.512 214.105 160.623 213.679 160.845 213.301C161.073 212.917 161.382 212.62 161.772 212.41C162.168 212.194 162.609 212.086 163.095 212.086C163.569 212.086 163.998 212.188 164.382 212.392C164.766 212.596 165.066 212.89 165.282 213.274C165.504 213.652 165.615 214.093 165.615 214.597ZM163.104 213.148C162.786 213.148 162.519 213.238 162.303 213.418C162.087 213.598 161.955 213.844 161.907 214.156H164.292C164.244 213.85 164.112 213.607 163.896 213.427C163.68 213.241 163.416 213.148 163.104 213.148ZM172.074 215.848V218.044H170.769V217H167.367V218.044H166.062V215.848H166.26C166.56 215.842 166.767 215.665 166.881 215.317C166.995 214.969 167.067 214.474 167.097 213.832L167.16 212.158H171.381V215.848H172.074ZM168.366 213.931C168.348 214.423 168.309 214.825 168.249 215.137C168.195 215.449 168.09 215.686 167.934 215.848H169.977V213.31H168.393L168.366 213.931ZM177.602 212.158V217H176.198V213.31H174.668L174.623 214.165C174.599 214.801 174.539 215.329 174.443 215.749C174.347 216.169 174.191 216.499 173.975 216.739C173.759 216.979 173.459 217.099 173.075 217.099C172.871 217.099 172.628 217.063 172.346 216.991L172.418 215.839C172.514 215.851 172.583 215.857 172.625 215.857C172.835 215.857 172.991 215.782 173.093 215.632C173.201 215.476 173.273 215.281 173.309 215.047C173.345 214.807 173.372 214.492 173.39 214.102L173.462 212.158H177.602ZM181.22 217.072C180.71 217.072 180.251 216.967 179.843 216.757C179.441 216.541 179.126 216.244 178.898 215.866C178.67 215.488 178.556 215.059 178.556 214.579C178.556 214.099 178.67 213.67 178.898 213.292C179.126 212.914 179.441 212.62 179.843 212.41C180.251 212.194 180.71 212.086 181.22 212.086C181.73 212.086 182.186 212.194 182.588 212.41C182.99 212.62 183.305 212.914 183.533 213.292C183.761 213.67 183.875 214.099 183.875 214.579C183.875 215.059 183.761 215.488 183.533 215.866C183.305 216.244 182.99 216.541 182.588 216.757C182.186 216.967 181.73 217.072 181.22 217.072ZM181.22 215.92C181.58 215.92 181.874 215.8 182.102 215.56C182.336 215.314 182.453 214.987 182.453 214.579C182.453 214.171 182.336 213.847 182.102 213.607C181.874 213.361 181.58 213.238 181.22 213.238C180.86 213.238 180.563 213.361 180.329 213.607C180.095 213.847 179.978 214.171 179.978 214.579C179.978 214.987 180.095 215.314 180.329 215.56C180.563 215.8 180.86 215.92 181.22 215.92ZM189.488 215.164H188.813V217H187.427V215.164H186.752L185.726 217H184.07L185.591 214.498L184.178 212.158H185.663L186.734 214.039H187.427V212.158H188.813V214.039H189.497L190.577 212.158H192.062L190.649 214.498L192.179 217H190.514L189.488 215.164ZM197.466 214.597C197.466 214.615 197.457 214.741 197.439 214.975H193.776C193.842 215.275 193.998 215.512 194.244 215.686C194.49 215.86 194.796 215.947 195.162 215.947C195.414 215.947 195.636 215.911 195.828 215.839C196.026 215.761 196.209 215.641 196.377 215.479L197.124 216.289C196.668 216.811 196.002 217.072 195.126 217.072C194.58 217.072 194.097 216.967 193.677 216.757C193.257 216.541 192.933 216.244 192.705 215.866C192.477 215.488 192.363 215.059 192.363 214.579C192.363 214.105 192.474 213.679 192.696 213.301C192.924 212.917 193.233 212.62 193.623 212.41C194.019 212.194 194.46 212.086 194.946 212.086C195.42 212.086 195.849 212.188 196.233 212.392C196.617 212.596 196.917 212.89 197.133 213.274C197.355 213.652 197.466 214.093 197.466 214.597ZM194.955 213.148C194.637 213.148 194.37 213.238 194.154 213.418C193.938 213.598 193.806 213.844 193.758 214.156H196.143C196.095 213.85 195.963 213.607 195.747 213.427C195.531 213.241 195.267 213.148 194.955 213.148ZM198.543 212.158H199.938V214.048H202.044V212.158H203.448V217H202.044V215.191H199.938V217H198.543V212.158ZM204.792 212.158H206.187V215.038L208.545 212.158H209.832V217H208.437V214.12L206.088 217H204.792V212.158ZM215.483 212.158V217H214.232V215.614H213.197L212.279 217H210.785L211.892 215.416C211.556 215.284 211.298 215.095 211.118 214.849C210.944 214.597 210.857 214.294 210.857 213.94C210.857 213.37 211.061 212.932 211.469 212.626C211.883 212.314 212.45 212.158 213.17 212.158H215.483ZM213.197 213.301C212.897 213.301 212.669 213.355 212.513 213.463C212.363 213.571 212.288 213.745 212.288 213.985C212.288 214.225 212.36 214.402 212.504 214.516C212.654 214.624 212.879 214.678 213.179 214.678H214.232V213.301H213.197ZM221.558 217V214.102L220.109 216.532H219.515L218.102 214.093V217H216.833V212.158H218.3L219.848 214.957L221.495 212.158H222.809L222.827 217H221.558ZM224.172 212.158H225.567V215.038L227.925 212.158H229.212V217H227.817V214.12L225.468 217H224.172V212.158ZM147.671 226.848V229.044H146.366V228H142.964V229.044H141.659V226.848H141.857C142.157 226.842 142.364 226.665 142.478 226.317C142.592 225.969 142.664 225.474 142.694 224.832L142.757 223.158H146.978V226.848H147.671ZM143.963 224.931C143.945 225.423 143.906 225.825 143.846 226.137C143.792 226.449 143.687 226.686 143.531 226.848H145.574V224.31H143.99L143.963 224.931ZM153.199 223.158V228H151.795V224.31H150.265L150.22 225.165C150.196 225.801 150.136 226.329 150.04 226.749C149.944 227.169 149.788 227.499 149.572 227.739C149.356 227.979 149.056 228.099 148.672 228.099C148.468 228.099 148.225 228.063 147.943 227.991L148.015 226.839C148.111 226.851 148.18 226.857 148.222 226.857C148.432 226.857 148.588 226.782 148.69 226.632C148.798 226.476 148.87 226.281 148.906 226.047C148.942 225.807 148.969 225.492 148.987 225.102L149.059 223.158H153.199ZM158.851 223.158V228H157.6V226.614H156.565L155.647 228H154.153L155.26 226.416C154.924 226.284 154.666 226.095 154.486 225.849C154.312 225.597 154.225 225.294 154.225 224.94C154.225 224.37 154.429 223.932 154.837 223.626C155.251 223.314 155.818 223.158 156.538 223.158H158.851ZM156.565 224.301C156.265 224.301 156.037 224.355 155.881 224.463C155.731 224.571 155.656 224.745 155.656 224.985C155.656 225.225 155.728 225.402 155.872 225.516C156.022 225.624 156.247 225.678 156.547 225.678H157.6V224.301H156.565ZM166.448 225.471C167.018 225.663 167.303 226.047 167.303 226.623C167.303 227.061 167.138 227.4 166.808 227.64C166.478 227.88 165.986 228 165.332 228H162.749V223.158H165.224C165.83 223.158 166.304 223.269 166.646 223.491C166.988 223.707 167.159 224.013 167.159 224.409C167.159 224.649 167.096 224.862 166.97 225.048C166.85 225.228 166.676 225.369 166.448 225.471ZM164.036 225.147H165.098C165.59 225.147 165.836 224.973 165.836 224.625C165.836 224.283 165.59 224.112 165.098 224.112H164.036V225.147ZM165.215 227.046C165.731 227.046 165.989 226.869 165.989 226.515C165.989 226.329 165.929 226.194 165.809 226.11C165.689 226.02 165.5 225.975 165.242 225.975H164.036V227.046H165.215ZM170.229 223.086C170.979 223.086 171.555 223.266 171.957 223.626C172.359 223.98 172.56 224.517 172.56 225.237V228H171.246V227.397C170.982 227.847 170.49 228.072 169.77 228.072C169.398 228.072 169.074 228.009 168.798 227.883C168.528 227.757 168.321 227.583 168.177 227.361C168.033 227.139 167.961 226.887 167.961 226.605C167.961 226.155 168.129 225.801 168.465 225.543C168.807 225.285 169.332 225.156 170.04 225.156H171.156C171.156 224.85 171.063 224.616 170.877 224.454C170.691 224.286 170.412 224.202 170.04 224.202C169.782 224.202 169.527 224.244 169.275 224.328C169.029 224.406 168.819 224.514 168.645 224.652L168.141 223.671C168.405 223.485 168.72 223.341 169.086 223.239C169.458 223.137 169.839 223.086 170.229 223.086ZM170.121 227.127C170.361 227.127 170.574 227.073 170.76 226.965C170.946 226.851 171.078 226.686 171.156 226.47V225.975H170.193C169.617 225.975 169.329 226.164 169.329 226.542C169.329 226.722 169.398 226.866 169.536 226.974C169.68 227.076 169.875 227.127 170.121 227.127ZM176.083 228.072C175.567 228.072 175.102 227.967 174.688 227.757C174.28 227.541 173.959 227.244 173.725 226.866C173.497 226.488 173.383 226.059 173.383 225.579C173.383 225.099 173.497 224.67 173.725 224.292C173.959 223.914 174.28 223.62 174.688 223.41C175.102 223.194 175.567 223.086 176.083 223.086C176.593 223.086 177.037 223.194 177.415 223.41C177.799 223.62 178.078 223.923 178.252 224.319L177.163 224.904C176.911 224.46 176.548 224.238 176.074 224.238C175.708 224.238 175.405 224.358 175.165 224.598C174.925 224.838 174.805 225.165 174.805 225.579C174.805 225.993 174.925 226.32 175.165 226.56C175.405 226.8 175.708 226.92 176.074 226.92C176.554 226.92 176.917 226.698 177.163 226.254L178.252 226.848C178.078 227.232 177.799 227.532 177.415 227.748C177.037 227.964 176.593 228.072 176.083 228.072Z" fill="#6D7A8A"/>
<path d="M81.532 293.19V295.01L74.868 297.544V295.794L79.53 294.1L74.868 292.392V290.656L81.532 293.19ZM86.7069 289.2V299H84.4389V291.02H82.4789V289.2H86.7069ZM92.6093 299.168C91.7973 299.168 91.0739 298.967 90.4393 298.566C89.8046 298.165 89.3053 297.586 88.9413 296.83C88.5866 296.065 88.4093 295.155 88.4093 294.1C88.4093 293.045 88.5866 292.14 88.9413 291.384C89.3053 290.619 89.8046 290.035 90.4393 289.634C91.0739 289.233 91.7973 289.032 92.6093 289.032C93.4213 289.032 94.1446 289.233 94.7793 289.634C95.4139 290.035 95.9086 290.619 96.2633 291.384C96.6273 292.14 96.8093 293.045 96.8093 294.1C96.8093 295.155 96.6273 296.065 96.2633 296.83C95.9086 297.586 95.4139 298.165 94.7793 298.566C94.1446 298.967 93.4213 299.168 92.6093 299.168ZM92.6093 297.25C93.2066 297.25 93.6733 296.993 94.0093 296.48C94.3546 295.967 94.5273 295.173 94.5273 294.1C94.5273 293.027 94.3546 292.233 94.0093 291.72C93.6733 291.207 93.2066 290.95 92.6093 290.95C92.0213 290.95 91.5546 291.207 91.2093 291.72C90.8733 292.233 90.7053 293.027 90.7053 294.1C90.7053 295.173 90.8733 295.967 91.2093 296.48C91.5546 296.993 92.0213 297.25 92.6093 297.25ZM102.111 299.168C101.299 299.168 100.576 298.967 99.9412 298.566C99.3066 298.165 98.8072 297.586 98.4432 296.83C98.0886 296.065 97.9112 295.155 97.9112 294.1C97.9112 293.045 98.0886 292.14 98.4432 291.384C98.8072 290.619 99.3066 290.035 99.9412 289.634C100.576 289.233 101.299 289.032 102.111 289.032C102.923 289.032 103.647 289.233 104.281 289.634C104.916 290.035 105.411 290.619 105.765 291.384C106.129 292.14 106.311 293.045 106.311 294.1C106.311 295.155 106.129 296.065 105.765 296.83C105.411 297.586 104.916 298.165 104.281 298.566C103.647 298.967 102.923 299.168 102.111 299.168ZM102.111 297.25C102.709 297.25 103.175 296.993 103.511 296.48C103.857 295.967 104.029 295.173 104.029 294.1C104.029 293.027 103.857 292.233 103.511 291.72C103.175 291.207 102.709 290.95 102.111 290.95C101.523 290.95 101.057 291.207 100.711 291.72C100.375 292.233 100.207 293.027 100.207 294.1C100.207 295.173 100.375 295.967 100.711 296.48C101.057 296.993 101.523 297.25 102.111 297.25ZM111.613 299.168C110.801 299.168 110.078 298.967 109.443 298.566C108.809 298.165 108.309 297.586 107.945 296.83C107.591 296.065 107.413 295.155 107.413 294.1C107.413 293.045 107.591 292.14 107.945 291.384C108.309 290.619 108.809 290.035 109.443 289.634C110.078 289.233 110.801 289.032 111.613 289.032C112.425 289.032 113.149 289.233 113.783 289.634C114.418 290.035 114.913 290.619 115.267 291.384C115.631 292.14 115.813 293.045 115.813 294.1C115.813 295.155 115.631 296.065 115.267 296.83C114.913 297.586 114.418 298.165 113.783 298.566C113.149 298.967 112.425 299.168 111.613 299.168ZM111.613 297.25C112.211 297.25 112.677 296.993 113.013 296.48C113.359 295.967 113.531 295.173 113.531 294.1C113.531 293.027 113.359 292.233 113.013 291.72C112.677 291.207 112.211 290.95 111.613 290.95C111.025 290.95 110.559 291.207 110.213 291.72C109.877 292.233 109.709 293.027 109.709 294.1C109.709 295.173 109.877 295.967 110.213 296.48C110.559 296.993 111.025 297.25 111.613 297.25ZM121.115 299.168C120.303 299.168 119.58 298.967 118.945 298.566C118.31 298.165 117.811 297.586 117.447 296.83C117.092 296.065 116.915 295.155 116.915 294.1C116.915 293.045 117.092 292.14 117.447 291.384C117.811 290.619 118.31 290.035 118.945 289.634C119.58 289.233 120.303 289.032 121.115 289.032C121.927 289.032 122.65 289.233 123.285 289.634C123.92 290.035 124.414 290.619 124.769 291.384C125.133 292.14 125.315 293.045 125.315 294.1C125.315 295.155 125.133 296.065 124.769 296.83C124.414 297.586 123.92 298.165 123.285 298.566C122.65 298.967 121.927 299.168 121.115 299.168ZM121.115 297.25C121.712 297.25 122.179 296.993 122.515 296.48C122.86 295.967 123.033 295.173 123.033 294.1C123.033 293.027 122.86 292.233 122.515 291.72C122.179 291.207 121.712 290.95 121.115 290.95C120.527 290.95 120.06 291.207 119.715 291.72C119.379 292.233 119.211 293.027 119.211 294.1C119.211 295.173 119.379 295.967 119.715 296.48C120.06 296.993 120.527 297.25 121.115 297.25Z" fill="#04004D"/>
<path d="M158.472 295.944V298.16H157.272V297H153.32V298.16H152.12L152.128 295.944H152.352C152.688 295.933 152.925 295.688 153.064 295.208C153.203 294.728 153.288 294.043 153.32 293.152L153.384 291.4H157.688V295.944H158.472ZM154.464 293.272C154.437 293.939 154.381 294.499 154.296 294.952C154.211 295.4 154.08 295.731 153.904 295.944H156.408V292.456H154.488L154.464 293.272ZM161.21 297.064C160.756 297.064 160.348 296.971 159.986 296.784C159.628 296.592 159.348 296.328 159.146 295.992C158.943 295.656 158.842 295.275 158.842 294.848C158.842 294.421 158.943 294.04 159.146 293.704C159.348 293.368 159.628 293.107 159.986 292.92C160.348 292.728 160.756 292.632 161.21 292.632C161.663 292.632 162.068 292.728 162.426 292.92C162.783 293.107 163.063 293.368 163.266 293.704C163.468 294.04 163.57 294.421 163.57 294.848C163.57 295.275 163.468 295.656 163.266 295.992C163.063 296.328 162.783 296.592 162.426 296.784C162.068 296.971 161.663 297.064 161.21 297.064ZM161.21 296.04C161.53 296.04 161.791 295.933 161.994 295.72C162.202 295.501 162.306 295.211 162.306 294.848C162.306 294.485 162.202 294.197 161.994 293.984C161.791 293.765 161.53 293.656 161.21 293.656C160.89 293.656 160.626 293.765 160.418 293.984C160.21 294.197 160.106 294.485 160.106 294.848C160.106 295.211 160.21 295.501 160.418 295.72C160.626 295.933 160.89 296.04 161.21 296.04ZM166.476 297.064C166.017 297.064 165.604 296.971 165.236 296.784C164.873 296.592 164.588 296.328 164.38 295.992C164.177 295.656 164.076 295.275 164.076 294.848C164.076 294.421 164.177 294.04 164.38 293.704C164.588 293.368 164.873 293.107 165.236 292.92C165.604 292.728 166.017 292.632 166.476 292.632C166.929 292.632 167.324 292.728 167.66 292.92C168.001 293.107 168.249 293.376 168.404 293.728L167.436 294.248C167.212 293.853 166.889 293.656 166.468 293.656C166.143 293.656 165.873 293.763 165.66 293.976C165.447 294.189 165.34 294.48 165.34 294.848C165.34 295.216 165.447 295.507 165.66 295.72C165.873 295.933 166.143 296.04 166.468 296.04C166.895 296.04 167.217 295.843 167.436 295.448L168.404 295.976C168.249 296.317 168.001 296.584 167.66 296.776C167.324 296.968 166.929 297.064 166.476 297.064ZM172.763 293.72H171.307V297H170.067V293.72H168.611V292.696H172.763V293.72ZM175.1 292.632C175.767 292.632 176.279 292.792 176.636 293.112C176.993 293.427 177.172 293.904 177.172 294.544V297H176.004V296.464C175.769 296.864 175.332 297.064 174.692 297.064C174.361 297.064 174.073 297.008 173.828 296.896C173.588 296.784 173.404 296.629 173.276 296.432C173.148 296.235 173.084 296.011 173.084 295.76C173.084 295.36 173.233 295.045 173.532 294.816C173.836 294.587 174.303 294.472 174.932 294.472H175.924C175.924 294.2 175.841 293.992 175.676 293.848C175.511 293.699 175.263 293.624 174.932 293.624C174.703 293.624 174.476 293.661 174.252 293.736C174.033 293.805 173.847 293.901 173.692 294.024L173.244 293.152C173.479 292.987 173.759 292.859 174.084 292.768C174.415 292.677 174.753 292.632 175.1 292.632ZM175.004 296.224C175.217 296.224 175.407 296.176 175.572 296.08C175.737 295.979 175.855 295.832 175.924 295.64V295.2H175.068C174.556 295.2 174.3 295.368 174.3 295.704C174.3 295.864 174.361 295.992 174.484 296.088C174.612 296.179 174.785 296.224 175.004 296.224ZM181.544 294.752C182.051 294.923 182.304 295.264 182.304 295.776C182.304 296.165 182.158 296.467 181.864 296.68C181.571 296.893 181.134 297 180.552 297H178.256V292.696H180.456C180.995 292.696 181.416 292.795 181.72 292.992C182.024 293.184 182.176 293.456 182.176 293.808C182.176 294.021 182.12 294.211 182.008 294.376C181.902 294.536 181.747 294.661 181.544 294.752ZM179.4 294.464H180.344C180.782 294.464 181 294.309 181 294C181 293.696 180.782 293.544 180.344 293.544H179.4V294.464ZM180.448 296.152C180.907 296.152 181.136 295.995 181.136 295.68C181.136 295.515 181.083 295.395 180.976 295.32C180.87 295.24 180.702 295.2 180.472 295.2H179.4V296.152H180.448ZM187.361 292.696V297H186.113V293.72H184.753L184.713 294.48C184.691 295.045 184.638 295.515 184.553 295.888C184.467 296.261 184.329 296.555 184.137 296.768C183.945 296.981 183.678 297.088 183.337 297.088C183.155 297.088 182.939 297.056 182.689 296.992L182.753 295.968C182.838 295.979 182.899 295.984 182.937 295.984C183.123 295.984 183.262 295.917 183.353 295.784C183.449 295.645 183.513 295.472 183.545 295.264C183.577 295.051 183.601 294.771 183.617 294.424L183.681 292.696H187.361ZM192.745 294.864C192.745 294.88 192.737 294.992 192.721 295.2H189.465C189.524 295.467 189.662 295.677 189.881 295.832C190.1 295.987 190.372 296.064 190.697 296.064C190.921 296.064 191.118 296.032 191.289 295.968C191.465 295.899 191.628 295.792 191.777 295.648L192.441 296.368C192.036 296.832 191.444 297.064 190.665 297.064C190.18 297.064 189.75 296.971 189.377 296.784C189.004 296.592 188.716 296.328 188.513 295.992C188.31 295.656 188.209 295.275 188.209 294.848C188.209 294.427 188.308 294.048 188.505 293.712C188.708 293.371 188.982 293.107 189.329 292.92C189.681 292.728 190.073 292.632 190.505 292.632C190.926 292.632 191.308 292.723 191.649 292.904C191.99 293.085 192.257 293.347 192.449 293.688C192.646 294.024 192.745 294.416 192.745 294.864ZM190.513 293.576C190.23 293.576 189.993 293.656 189.801 293.816C189.609 293.976 189.492 294.195 189.449 294.472H191.569C191.526 294.2 191.409 293.984 191.217 293.824C191.025 293.659 190.79 293.576 190.513 293.576ZM193.702 292.696H194.942V294.376H196.814V292.696H198.062V297H196.814V295.392H194.942V297H193.702V292.696ZM199.256 292.696H200.496V294.376H202.368V292.696H203.616V297H202.368V295.392H200.496V297H199.256V292.696ZM207.075 294.072C207.635 294.077 208.059 294.203 208.347 294.448C208.635 294.693 208.779 295.045 208.779 295.504C208.779 295.984 208.616 296.355 208.291 296.616C207.966 296.877 207.504 297.008 206.907 297.008L204.811 297V292.696H206.051V294.072H207.075ZM209.243 292.696H210.483V297H209.243V292.696ZM206.795 296.12C207.035 296.125 207.219 296.075 207.347 295.968C207.475 295.861 207.539 295.701 207.539 295.488C207.539 295.28 207.475 295.128 207.347 295.032C207.224 294.936 207.04 294.885 206.795 294.88L206.051 294.872V296.12H206.795ZM214.39 297L213.446 295.68L212.47 297H211.11L212.766 294.832L211.166 292.696H212.566L213.478 293.952L214.414 292.696H215.742L214.142 294.8L215.806 297H214.39ZM221.478 294.76C221.734 294.84 221.931 294.963 222.07 295.128C222.214 295.293 222.286 295.491 222.286 295.72C222.286 295.992 222.193 296.232 222.006 296.44C221.819 296.643 221.563 296.8 221.238 296.912C220.913 297.024 220.545 297.08 220.134 297.08C219.798 297.08 219.467 297.045 219.142 296.976C218.817 296.907 218.515 296.803 218.238 296.664L218.574 295.792C219.027 296.011 219.529 296.12 220.078 296.12C220.371 296.12 220.601 296.077 220.766 295.992C220.937 295.901 221.022 295.776 221.022 295.616C221.022 295.477 220.963 295.373 220.846 295.304C220.729 295.229 220.558 295.192 220.334 295.192H219.454V294.416H220.222C220.441 294.416 220.609 294.381 220.726 294.312C220.843 294.243 220.902 294.141 220.902 294.008C220.902 293.869 220.827 293.763 220.678 293.688C220.534 293.613 220.326 293.576 220.054 293.576C219.638 293.576 219.185 293.675 218.694 293.872L218.39 293.008C218.987 292.747 219.569 292.616 220.134 292.616C220.523 292.616 220.87 292.664 221.174 292.76C221.483 292.856 221.726 292.997 221.902 293.184C222.078 293.365 222.166 293.579 222.166 293.824C222.166 294.027 222.105 294.211 221.982 294.376C221.859 294.536 221.691 294.664 221.478 294.76ZM224.866 292.632C225.532 292.632 226.044 292.792 226.402 293.112C226.759 293.427 226.938 293.904 226.938 294.544V297H225.77V296.464C225.535 296.864 225.098 297.064 224.458 297.064C224.127 297.064 223.839 297.008 223.594 296.896C223.354 296.784 223.17 296.629 223.042 296.432C222.914 296.235 222.85 296.011 222.85 295.76C222.85 295.36 222.999 295.045 223.298 294.816C223.602 294.587 224.068 294.472 224.698 294.472H225.69C225.69 294.2 225.607 293.992 225.442 293.848C225.276 293.699 225.028 293.624 224.698 293.624C224.468 293.624 224.242 293.661 224.018 293.736C223.799 293.805 223.612 293.901 223.458 294.024L223.01 293.152C223.244 292.987 223.524 292.859 223.85 292.768C224.18 292.677 224.519 292.632 224.866 292.632ZM224.77 296.224C224.983 296.224 225.172 296.176 225.338 296.08C225.503 295.979 225.62 295.832 225.69 295.64V295.2H224.834C224.322 295.2 224.066 295.368 224.066 295.704C224.066 295.864 224.127 295.992 224.25 296.088C224.378 296.179 224.551 296.224 224.77 296.224ZM229.918 295.368H229.27V297H228.022V292.696H229.27V294.368H229.942L231.11 292.696H232.438L230.934 294.76L232.542 297H231.07L229.918 295.368ZM234.749 292.632C235.415 292.632 235.927 292.792 236.285 293.112C236.642 293.427 236.821 293.904 236.821 294.544V297H235.653V296.464C235.418 296.864 234.981 297.064 234.341 297.064C234.01 297.064 233.722 297.008 233.477 296.896C233.237 296.784 233.053 296.629 232.925 296.432C232.797 296.235 232.733 296.011 232.733 295.76C232.733 295.36 232.882 295.045 233.181 294.816C233.485 294.587 233.951 294.472 234.581 294.472H235.573C235.573 294.2 235.49 293.992 235.325 293.848C235.159 293.699 234.911 293.624 234.581 293.624C234.351 293.624 234.125 293.661 233.901 293.736C233.682 293.805 233.495 293.901 233.341 294.024L232.893 293.152C233.127 292.987 233.407 292.859 233.733 292.768C234.063 292.677 234.402 292.632 234.749 292.632ZM234.653 296.224C234.866 296.224 235.055 296.176 235.221 296.08C235.386 295.979 235.503 295.832 235.573 295.64V295.2H234.717C234.205 295.2 233.949 295.368 233.949 295.704C233.949 295.864 234.01 295.992 234.133 296.088C234.261 296.179 234.434 296.224 234.653 296.224ZM240.658 294.76C240.914 294.84 241.111 294.963 241.25 295.128C241.394 295.293 241.466 295.491 241.466 295.72C241.466 295.992 241.372 296.232 241.186 296.44C240.999 296.643 240.743 296.8 240.418 296.912C240.092 297.024 239.724 297.08 239.314 297.08C238.978 297.08 238.647 297.045 238.322 296.976C237.996 296.907 237.695 296.803 237.418 296.664L237.754 295.792C238.207 296.011 238.708 296.12 239.258 296.12C239.551 296.12 239.78 296.077 239.946 295.992C240.116 295.901 240.202 295.776 240.202 295.616C240.202 295.477 240.143 295.373 240.026 295.304C239.908 295.229 239.738 295.192 239.514 295.192H238.634V294.416H239.402C239.62 294.416 239.788 294.381 239.906 294.312C240.023 294.243 240.082 294.141 240.082 294.008C240.082 293.869 240.007 293.763 239.858 293.688C239.714 293.613 239.506 293.576 239.234 293.576C238.818 293.576 238.364 293.675 237.874 293.872L237.57 293.008C238.167 292.747 238.748 292.616 239.314 292.616C239.703 292.616 240.05 292.664 240.354 292.76C240.663 292.856 240.906 292.997 241.082 293.184C241.258 293.365 241.346 293.579 241.346 293.824C241.346 294.027 241.284 294.211 241.162 294.376C241.039 294.536 240.871 294.664 240.658 294.76ZM244.389 297.064C243.936 297.064 243.528 296.971 243.165 296.784C242.808 296.592 242.528 296.328 242.325 295.992C242.123 295.656 242.021 295.275 242.021 294.848C242.021 294.421 242.123 294.04 242.325 293.704C242.528 293.368 242.808 293.107 243.165 292.92C243.528 292.728 243.936 292.632 244.389 292.632C244.843 292.632 245.248 292.728 245.605 292.92C245.963 293.107 246.243 293.368 246.445 293.704C246.648 294.04 246.749 294.421 246.749 294.848C246.749 295.275 246.648 295.656 246.445 295.992C246.243 296.328 245.963 296.592 245.605 296.784C245.248 296.971 244.843 297.064 244.389 297.064ZM244.389 296.04C244.709 296.04 244.971 295.933 245.173 295.72C245.381 295.501 245.485 295.211 245.485 294.848C245.485 294.485 245.381 294.197 245.173 293.984C244.971 293.765 244.709 293.656 244.389 293.656C244.069 293.656 243.805 293.765 243.597 293.984C243.389 294.197 243.285 294.485 243.285 294.848C243.285 295.211 243.389 295.501 243.597 295.72C243.805 295.933 244.069 296.04 244.389 296.04ZM250.896 294.752C251.402 294.923 251.656 295.264 251.656 295.776C251.656 296.165 251.509 296.467 251.216 296.68C250.922 296.893 250.485 297 249.904 297H247.608V292.696H249.808C250.346 292.696 250.768 292.795 251.072 292.992C251.376 293.184 251.528 293.456 251.528 293.808C251.528 294.021 251.472 294.211 251.36 294.376C251.253 294.536 251.098 294.661 250.896 294.752ZM248.752 294.464H249.696C250.133 294.464 250.352 294.309 250.352 294C250.352 293.696 250.133 293.544 249.696 293.544H248.752V294.464ZM249.8 296.152C250.258 296.152 250.488 295.995 250.488 295.68C250.488 295.515 250.434 295.395 250.328 295.32C250.221 295.24 250.053 295.2 249.824 295.2H248.752V296.152H249.8Z" fill="#8590A0"/>
<path d="M34.0758 283.545C33.8154 290.22 36.8809 292.314 38.4462 292.527C39.6576 293.575 41.7664 293.543 42.6694 293.396C58.9165 291.338 62.6596 271.392 61.6245 269.264C60.5894 267.137 65.0999 263.188 65.1126 262.012C65.1253 260.837 63.7325 259.176 64.7994 258.364C65.8663 257.553 67.4951 248.282 65.5399 244.264C63.5848 240.245 64.8817 239.907 63.2011 232.246C61.5205 224.586 53.0801 211.444 45.177 213.828C37.274 216.211 39.7728 235.167 38.8273 235.627C37.8817 236.087 37.243 240.783 39.0514 247.504C40.8597 254.225 34.4013 275.201 34.0758 283.545Z" fill="#72CDA1" stroke="black" stroke-width="0.5"/>
<g style="mix-blend-mode:multiply">
<path d="M58.3555 281.889C58.8913 280.944 61.327 274.437 61.5235 273.626C61.5451 273.197 61.9156 269.928 61.7986 269.688C61.6816 269.447 61.57 268.709 61.4238 268.408C61.2775 268.108 61.7129 267.474 61.7855 267.216C61.8435 267.009 63.1945 265.019 63.8628 264.05C64.2637 263.532 65.0779 262.452 65.1278 262.269C65.1776 262.087 65.0817 261.614 65.0275 261.401C64.8804 260.878 64.5569 259.772 64.4399 259.531C64.3229 259.291 64.463 258.934 64.5476 258.785L64.8205 258.429C64.9186 258.274 65.1429 257.93 65.2559 257.796C65.3973 257.628 65.7855 255.829 66.0037 255.004C66.2219 254.179 66.4254 250.115 66.453 249.408C66.4806 248.701 66.4101 246.926 66.1978 246.286C65.9855 245.646 65.856 244.718 65.2109 243.545C64.6949 242.606 64.4958 241.481 64.4608 241.035L64.275 239.787L64.107 237.812L63.8329 235.517L63.2593 232.352C62.967 231.428 62.3383 229.42 62.1619 228.772C61.9415 227.962 61.7167 227.551 58.941 222.509C56.7205 218.474 52.9049 215.728 51.2747 214.859C49.6432 214.818 50.1404 222.095 50.8421 223.783C51.5438 225.47 51.7487 228.713 51.869 235.338C51.9892 241.963 47.4298 275.154 46.826 277.716C46.2223 280.277 39.5648 292.229 40.6095 293.272C41.4453 294.107 46.0698 292.615 48.2776 291.765C53.6395 289.751 57.8196 282.834 58.3555 281.889Z" fill="#C4C4C4"/>
</g>
<g style="mix-blend-mode:multiply">
<path d="M45.877 227.111C47.3507 223.092 49.4111 225.021 50.2572 226.488C52.4763 229.965 51.1508 244.114 49.7762 259.63C48.4016 275.146 41.3969 291.265 38.6165 292.618C38.2538 292.794 36.7099 291.477 35.9932 290.819C36.3667 290.716 38.2392 287.408 42.7407 274.994C48.3676 259.477 44.0348 232.135 45.877 227.111Z" fill="#A6C7A9"/>
</g>
<path d="M49.8913 266.52C52.1242 267.392 57.5954 267.591 65.0692 261.581M48.094 274.365C50.9262 275.85 58.0293 277.775 61.649 272.578M46.8169 269.736C44.5593 269.742 39.6732 267.922 38.189 260.597M49.1356 257.08C46.7563 257.145 41.4442 255.488 39.2308 248.337M43.8287 281.248C42.1887 281.594 38.3646 280.792 35.762 272.655M52.1477 248.959C55.469 248.661 63.4866 246.436 64.3202 239.972M51.1358 244.466C48.1801 244.585 41.6442 242.89 39.1463 235.154M52.3628 231.889C54.8212 231.521 59.984 229.899 60.9679 226.346M51.0994 235.509C49.4755 236.847 40.7698 234.365 39.3945 225.997" stroke="black" stroke-width="0.5"/>
<path d="M43.2421 283.762C39.9254 294.731 35.1577 300.034 27.4784 307.084C26.4859 309.182 28.2301 310.916 30.2769 309.23C37.9686 302.894 40.1665 295.016 42.6296 290.132C47.6453 280.186 51.5283 260.953 52.1284 248.967C52.7284 236.981 51.881 226.696 51.7356 225.39C51.4223 222.576 49.7408 222 50.1974 227.756C51.5639 244.981 47.388 270.051 43.2421 283.762Z" fill="#99ECC4" stroke="black" stroke-width="0.5"/>
<g style="mix-blend-mode:multiply">
<path d="M53.1836 258.177C55.0073 245.191 53.0419 232.31 51.8652 227.936C50.6639 227.067 51.8595 245.081 50.8264 255.244C49.7933 265.408 44.3104 286.115 40.2566 293.548L43.1245 293.412C43.9122 291.317 50.904 274.409 53.1836 258.177Z" fill="#72CDA1"/>
</g>
<path d="M294.231 148.712C292.256 147.521 288.961 141.593 281.714 136.411C274.467 131.228 265.639 116.455 269.803 97.5852C273.41 102.175 276.267 104.178 278.139 101.847C279.447 97.4716 273.783 93.7078 270.299 95.5692C272.718 78.156 279.121 67.3513 278.678 55.7641C279.84 56.4333 283.038 60.0726 283.718 57.9574C284.483 54.4681 279.418 53.8725 278.678 54.7201L278.614 54.3556C277.806 49.7489 277.717 49.242 276.303 44.9999L272.919 45C274.127 48.1426 279.784 54.3977 275.506 68.4075C274.485 67.2784 272.221 66.1809 271.059 67.7528C270.787 68.1202 270.653 68.4525 270.627 68.7464C270.485 70.3484 273.557 70.808 275.08 69.5845C269.984 86.4641 265.545 104.953 269.04 119.427C269.318 120.579 270.969 123.732 271.275 124.624C270.864 124.82 268.718 125.215 267.522 129.704C266.327 134.194 270.299 139.501 271.275 136.977C272.504 136.047 270.988 129.805 271.992 126.916C272.5 127.748 273.027 128.502 273.568 129.283C277.195 134.522 280.329 137.465 284.341 143.717C287.053 147.941 276.696 150.573 274.968 152.932C274.659 153.353 274.148 154.919 274.519 156.276C274.936 157.802 276.466 159.065 280.648 158.145C286.97 156.755 288.222 148.961 288.057 145.238C288.139 145.651 288.996 147.571 291.762 151.939C295.219 157.4 292.256 169.315 291.268 171.301C290.28 173.287 288.798 173.535 284.6 174.776C280.401 176.017 270.769 170.308 269.04 169.315C268.241 168.856 266.072 169.457 264.967 170.849C263.682 172.469 263.84 175.161 269.287 178.499C277.388 183.464 286.658 177.424 290.28 173.783C290.527 173.7 290.675 174.131 289.292 176.514C287.563 179.492 279.413 186.939 276.696 188.925C273.98 190.91 259.161 199.102 254.222 203.073C249.282 207.045 247.199 216.229 246.813 215.919C243.588 213.331 232.66 215.302 234.135 218.635C234.249 218.892 234.438 219.165 234.711 219.456C238.07 223.03 244.178 219.621 246.813 217.47C245.825 224.42 248.427 229.761 249.282 231.619C251.011 235.373 249.87 240.589 249.529 242.292C249.133 244.278 247.554 245.767 246.319 245.767C245.084 245.767 243.108 243.285 243.108 243.782C243.108 244.278 244.343 246.76 246.319 247.257C248.295 247.753 249.776 246.264 250.517 244.278C251.11 242.689 251.767 237.307 251.685 234.494C252.475 236.083 258.172 242.799 260.312 245.446C255.457 247.257 255.141 253.675 257.955 254.061C258.226 254.098 258.545 254.068 258.914 253.959C262.273 252.966 262.362 248.869 261.785 246.552C264.749 249.531 272.498 250.98 275.462 251.476C278.425 251.973 281.022 250.283 281.496 251.456C282.105 252.966 282.366 253.723 284.6 254.951C285.909 255.671 287.204 256.086 288.057 255.425C288.705 254.923 288.91 254.037 288.057 252.966C286.759 251.335 285.872 250.489 285.095 250.148C286.234 250.419 288.11 250.302 291.515 248.25C294.747 246.3 295.078 243.528 293.887 242.058C293.258 241.282 292.144 240.68 291.021 241.051C289.016 241.714 283.612 247.753 279.166 249.739C275.61 251.327 270.275 249.077 268.052 247.753C274.227 248.25 277.931 243.782 277.931 241.796C277.931 241.379 277.844 241.061 277.684 240.828C277.081 239.947 275.438 240.266 273.486 241.051C271.016 242.044 268.299 246.512 267.064 246.76C265.83 247.009 263.754 245.767 261.384 243.534C259.578 241.831 254.387 235.59 252.246 232.363C258.671 234.238 261.617 231.394 261.669 228.963C261.679 228.497 261.583 228.047 261.384 227.647C260.149 225.165 255.951 227.151 254.222 228.392C252.493 229.633 251.505 231.37 251.011 231.122C250.517 230.874 248.295 222.683 248.295 217.966C248.295 214.193 251.258 209.444 252.74 207.541C253.399 211.678 254.053 219.35 258.795 219.35C260.636 219.35 261.619 218.8 262.07 218.034C263.073 216.332 261.86 214.146 260.771 213.393C259.932 212.813 256.445 209.775 255.457 209.03C254.469 208.286 253.234 206.548 255.951 203.818C258.124 201.633 270.687 193.972 276.696 190.414C276.614 191.407 276.449 194.088 276.449 196.868C276.449 200.343 280.154 206.797 284.6 205.307C285.399 205.04 285.935 204.684 286.261 204.274C287.753 202.405 284.896 199.42 282.871 198.605C280.895 197.811 278.59 192.814 277.684 190.414C280.546 186.578 281.151 187.447 286.575 182.719C293.383 176.785 294.149 169.315 294.478 167.081C297.442 171.301 306.58 172.542 309.544 168.57C310.676 167.053 311.237 165.644 310.521 164.008C309.596 161.896 307.89 161.008 306.086 162.117C303.917 163.45 300.653 166.336 298.924 166.833C297.541 167.23 295.549 165.84 294.726 165.095C296.701 158.344 293.902 152.022 292.256 149.705C300.159 157.152 306.58 155.663 308.556 152.436C310.532 149.209 307.815 145.982 306.58 145.734C305.592 145.535 305.345 146.147 305.345 146.478C306.58 146.23 308.998 149.152 306.58 151.939C303.745 155.207 296.701 150.202 294.231 148.712Z" fill="#8BA637"/>
<path d="M264.967 170.849C263.682 172.469 263.84 175.161 269.287 178.499C277.388 183.464 286.658 177.424 290.28 173.783C290.527 173.7 290.675 174.131 289.292 176.514C287.563 179.492 279.413 186.939 276.696 188.925C273.98 190.91 259.161 199.102 254.222 203.073C249.282 207.045 247.199 216.229 246.813 215.919C243.588 213.331 232.66 215.302 234.135 218.635M264.967 170.849C266.072 169.457 268.241 168.856 269.04 169.315C270.769 170.308 280.401 176.017 284.6 174.776C288.798 173.535 290.28 173.287 291.268 171.301C292.256 169.315 295.219 157.4 291.762 151.939C288.996 147.571 288.139 145.651 288.057 145.238C288.222 148.961 286.97 156.755 280.648 158.145C276.466 159.065 274.936 157.802 274.519 156.276M264.967 170.849C267.822 173.005 274.835 177.156 280.053 176.514M274.519 156.276C274.148 154.919 274.659 153.353 274.968 152.932C276.696 150.573 287.053 147.941 284.341 143.717C280.329 137.465 277.195 134.522 273.568 129.283C273.027 128.502 272.5 127.748 271.992 126.916C270.988 129.805 272.504 136.047 271.275 136.977M274.519 156.276C276.685 156.237 281.534 155.414 283.612 152.436M310.521 164.008C309.596 161.896 307.89 161.008 306.086 162.117C303.917 163.45 300.653 166.336 298.924 166.833C297.541 167.23 295.549 165.84 294.726 165.095C296.701 158.344 293.902 152.022 292.256 149.705C300.159 157.152 306.58 155.663 308.556 152.436C310.532 149.209 307.815 145.982 306.58 145.734C305.592 145.535 305.345 146.147 305.345 146.478C306.58 146.23 308.998 149.152 306.58 151.939C303.745 155.207 296.701 150.202 294.231 148.712C292.256 147.521 288.961 141.593 281.714 136.411C274.467 131.228 265.639 116.455 269.803 97.5852C273.41 102.175 276.267 104.178 278.139 101.847M310.521 164.008C311.237 165.644 310.676 167.053 309.544 168.57C306.58 172.542 297.442 171.301 294.478 167.081C294.149 169.315 293.383 176.785 286.575 182.719C281.151 187.447 280.546 186.578 277.684 190.414C278.59 192.814 280.895 197.811 282.871 198.605C284.896 199.42 287.753 202.405 286.261 204.274M310.521 164.008C310.092 166.259 307.815 169.353 300.818 168.79M286.261 204.274C285.935 204.684 285.399 205.04 284.6 205.307C280.154 206.797 276.449 200.343 276.449 196.868C276.449 194.088 276.614 191.407 276.696 190.414C270.687 193.972 258.124 201.633 255.951 203.818C253.234 206.548 254.469 208.286 255.457 209.03C256.445 209.775 259.932 212.813 260.771 213.393C261.86 214.146 263.073 216.332 262.07 218.034M286.261 204.274C284.981 204.02 281.948 202.759 280.053 199.752M262.07 218.034C261.619 218.8 260.636 219.35 258.795 219.35C254.053 219.35 253.399 211.678 252.74 207.541C251.258 209.444 248.295 214.193 248.295 217.966C248.295 222.683 250.517 230.874 251.011 231.122C251.505 231.37 252.493 229.633 254.222 228.392C255.951 227.151 260.149 225.165 261.384 227.647C261.583 228.047 261.679 228.497 261.669 228.963M262.07 218.034C259.579 217.038 256.164 214.881 255.042 211.812M234.135 218.635C234.249 218.892 234.438 219.165 234.711 219.456C238.07 223.03 244.178 219.621 246.813 217.47C245.825 224.42 248.427 229.761 249.282 231.619C251.011 235.373 249.87 240.589 249.529 242.292C249.133 244.278 247.554 245.767 246.319 245.767C245.084 245.767 243.108 243.285 243.108 243.782C243.108 244.278 244.343 246.76 246.319 247.257C248.295 247.753 249.776 246.264 250.517 244.278C251.11 242.689 251.767 237.307 251.685 234.494C252.475 236.083 258.172 242.799 260.312 245.446C255.457 247.257 255.141 253.675 257.955 254.061M234.135 218.635C236.212 219.157 239.071 220.016 244.627 217.141M261.669 228.963C261.617 231.394 258.671 234.238 252.246 232.363C254.387 235.59 259.578 241.831 261.384 243.534C263.754 245.767 265.83 247.009 267.064 246.76C268.299 246.512 271.016 242.044 273.486 241.051C275.438 240.266 277.081 239.947 277.684 240.828M261.669 228.963C260.108 228.925 256.433 229.2 254.222 230.606M277.684 240.828C277.844 241.061 277.931 241.379 277.931 241.796C277.931 243.782 274.227 248.25 268.052 247.753C270.275 249.077 275.61 251.327 279.166 249.739C283.612 247.753 289.016 241.714 291.021 241.051C292.144 240.68 293.258 241.282 293.887 242.058M277.684 240.828C277.751 242.668 274.068 245.14 269.69 246.76M293.887 242.058C295.078 243.528 294.747 246.3 291.515 248.25C287.563 250.632 285.67 250.407 284.6 249.993C285.505 250.158 286.477 250.98 288.057 252.966C288.91 254.037 288.705 254.923 288.057 255.425M293.887 242.058C294.491 243.487 289.062 247.373 285.585 248.25M288.057 255.425C287.204 256.086 285.909 255.671 284.6 254.951C282.366 253.723 282.105 252.966 281.496 251.456C281.022 250.283 278.425 251.973 275.462 251.476C272.498 250.98 264.749 249.531 261.785 246.552C262.362 248.869 262.273 252.966 258.914 253.959C258.545 254.068 258.226 254.098 257.955 254.061M288.057 255.425C288.057 254.575 287.222 252.67 283.365 251.196M257.955 254.061C258.758 253.604 260.312 251.794 260.312 248.588M278.139 101.847C279.447 97.4716 273.783 93.7078 270.299 95.5692C272.718 78.156 279.121 67.3513 278.678 55.7641C279.84 56.4333 283.038 60.0726 283.718 57.9574M278.139 101.847C277.707 100.413 275.924 97.471 272.253 97.1708M283.718 57.9574C284.483 54.4681 279.418 53.8725 278.678 54.7201C277.81 49.7726 277.754 49.3513 276.303 44.9999L272.919 45C274.127 48.1426 279.784 54.3977 275.506 68.4075C274.485 67.2784 272.221 66.1809 271.059 67.7528C270.787 68.1202 270.653 68.4525 270.627 68.7463M283.718 57.9574C283.718 57.048 282.02 55.1398 279.872 55.4407M270.627 68.7463C270.485 70.3484 273.557 70.808 275.08 69.5845C269.984 86.4641 265.545 104.953 269.04 119.427C269.318 120.579 270.969 123.732 271.275 124.624C270.864 124.82 268.718 125.215 267.522 129.704C266.327 134.194 270.299 139.501 271.275 136.977M270.627 68.7463C271.458 68.3863 273.316 67.8145 274.1 68.4075M271.275 136.977C270.201 136.069 269.013 133.556 269.448 130.003C269.803 127.114 270.732 126.791 271.015 126.583" stroke="#3A2C08" stroke-width="0.3"/>
<g style="mix-blend-mode:multiply">
<path d="M273.888 45C275.142 46.1229 275.613 46.9339 276.308 48.9649C277.235 51.6767 278.014 55.5272 277.795 58.8959C277.576 62.2645 276.876 66.6832 275.87 69.4393C274.864 72.1955 272.851 79.0641 272.458 81.0765C272.064 83.089 269.745 90.7887 269.439 94.2012C269.133 97.6136 267.864 104.176 268.258 108.376C268.652 112.576 268.433 117.519 270.62 122.288C272.808 127.056 278.404 134.577 280.507 137.031C282.242 139.054 285.061 142.183 283.852 142.703C283.79 142.703 283.737 142.704 283.692 142.706L283.852 142.85C283.852 142.85 283.126 142.724 283.692 142.706L283.526 142.557C282.308 140.809 279.785 137.23 279.437 136.894C279.088 136.558 274.311 130.128 271.966 126.955L271.256 124.567L269.272 120.114C268.885 118.291 268.081 114.247 267.965 112.66C267.82 110.675 267.675 105.641 267.82 104.479C267.965 103.318 268.417 97.7352 268.61 96.5735C268.765 95.6441 269.019 94.1425 269.127 93.5079L270.159 88.006L271.853 80.8261L275.096 69.4393C275.311 68.9431 275.766 67.8442 275.87 67.4182C276 66.8858 277.162 60.7707 276.855 57.6406C276.549 54.5105 275.855 50.977 275.613 50.6543C275.419 50.3962 274.067 47.544 272.921 45.0001L273.888 45Z" fill="#9BC89D"/>
</g>
<g style="mix-blend-mode:multiply">
<path d="M280.954 55.4386C282.521 55.7714 283.814 57.2065 283.72 58.1075C283.72 58.3325 283.078 58.671 282.844 58.6537C282.61 58.6364 281.752 58.1771 281.578 58.1075C281.405 58.0379 279.793 56.6085 279.542 56.4179C279.341 56.2653 278.869 55.8864 278.658 55.7159C278.771 55.4848 279.388 55.1058 280.954 55.4386Z" fill="#8AB98C"/>
</g>
<g style="mix-blend-mode:multiply">
<path d="M273.738 68.1831C274.41 68.3174 274.963 69.1844 275.156 69.6012C274.796 69.8064 273.925 70.2318 273.328 70.2915C272.581 70.3662 271.201 69.9743 270.995 69.7877C270.79 69.6012 270.454 69.06 270.603 68.7615C270.753 68.4629 272.899 68.0151 273.738 68.1831Z" fill="#8AB98C"/>
</g>
<g style="mix-blend-mode:multiply">
<path d="M271.015 126.566C271.715 125.839 271.493 124.958 271.295 124.608C270.893 124.608 269.687 125.535 269.25 125.989C268.813 126.444 267.047 129.003 267.274 132.073C267.606 136.566 270.351 137.65 270.648 137.65C270.886 137.65 271.179 137.207 271.295 136.986C271.161 136.852 270.746 136.346 270.159 135.395C269.425 134.206 269.337 131.724 269.39 130.203C269.442 128.682 270.141 127.475 271.015 126.566Z" fill="#8AB98C"/>
</g>
<g style="mix-blend-mode:multiply">
<path d="M272.156 97.091C277.379 97.8796 278.015 101.743 278.104 101.92C277.047 103.175 275.529 102.732 275.352 102.721C275.175 102.71 273.934 101.92 273.369 101.425C272.804 100.93 270.998 99.0318 270.721 98.7216C270.499 98.4734 270.019 97.8303 269.824 97.5472C269.029 97.0467 271.24 96.9527 272.156 97.091Z" fill="#8AB98C"/>
</g>
<g style="mix-blend-mode:multiply">
<path d="M281.41 251.138C281.48 250.796 282.799 251.074 283.449 251.256C284.194 251.432 286.564 252.769 287.189 253.541C288.025 254.573 287.879 254.917 288.025 255.413C287.918 255.501 287.653 255.678 287.453 255.678C287.204 255.678 286.573 255.737 286.339 255.678C286.104 255.619 285.576 255.413 285.106 255.207C284.637 255 284.138 254.779 283.874 254.573C283.61 254.366 282.569 253.644 282.334 253.423C282.099 253.202 281.718 252.45 281.645 252.052C281.571 251.654 281.322 251.565 281.41 251.138Z" fill="#8AB98C"/>
</g>
<g style="mix-blend-mode:multiply">
<path d="M290.294 246.014C292.553 244.639 293.684 243.245 293.949 242.565C293.711 241.006 292.035 240.783 290.97 241.097C290.117 241.348 288.307 242.925 287.909 243.325C287.512 243.725 284.471 246.069 283.771 246.813C282.462 248.203 284.125 248.535 284.795 248.409C286.129 248.159 287.47 247.733 290.294 246.014Z" fill="#8AB98C"/>
</g>
<g style="mix-blend-mode:multiply">
<path d="M275.915 243.512C277.024 242.77 277.842 241.301 277.735 240.855C276.795 239.639 274.09 240.855 273.758 240.96C273.427 241.064 272.446 241.57 272.115 241.876C271.783 242.181 271.093 242.848 270.803 243.111C270.512 243.375 269.661 244.398 269.121 244.941C268.689 245.375 267.88 246.303 267.529 246.712C267.596 246.808 268.115 246.941 269.661 246.712C271.594 246.427 274.807 244.255 275.915 243.512Z" fill="#8AB98C"/>
</g>
<g style="mix-blend-mode:multiply">
<path d="M308.173 167.44C309.382 166.765 310.263 165.134 310.543 163.99C309.479 161.364 307.259 161.402 306.382 162.002C306.004 162.261 304.236 163.465 303.807 163.765C303.378 164.065 301.997 165.096 301.699 165.321C301.4 165.546 299.796 166.427 299.423 166.615C299.124 166.765 298.626 166.915 298.415 166.971C298.465 167.446 299.038 168.479 300.934 168.809C303.303 169.222 306.662 168.284 308.173 167.44Z" fill="#8AB98C"/>
</g>
<g style="mix-blend-mode:multiply">
<path d="M276.439 196.958C278.062 193.743 280.052 203.523 286.254 204.119C286.254 205.127 284.169 205.435 283.123 205.499C282.163 205.558 279.951 204.6 278.556 202.477C277.549 200.944 276.532 198.861 276.439 196.958Z" fill="#8AB98C"/>
</g>
<g style="mix-blend-mode:multiply">
<path d="M290.523 172.567C290.237 172.763 289.898 172.976 289.519 173.199C287.17 174.323 282.748 174.919 282.242 174.95C281.648 174.988 276.998 173.222 276.12 172.974C275.184 172.71 269.307 168.973 267.771 169.133C266.91 169.222 265.393 170.039 264.973 170.892C268.166 174.032 275.126 176.544 279.831 176.544C282.744 176.544 287.019 174.668 289.519 173.199C289.927 173.004 290.272 172.793 290.523 172.567Z" fill="#8AB98C"/>
</g>
<g style="mix-blend-mode:multiply">
<path d="M284.578 146.09C287.224 153.993 277.545 156.213 274.589 156.306C274.276 156.054 274.362 155.228 274.401 154.723C274.487 153.625 275.236 152.437 275.851 152.164C276.422 151.912 280.832 151.076 281.767 150.891C283.358 150.578 284.949 148.976 284.578 146.09Z" fill="#8AB98C"/>
</g>
<g style="mix-blend-mode:multiply">
<path d="M260.359 248.546C260.359 247.124 260.506 245.494 260.491 245.42C259.061 245.568 257.115 247.805 256.806 248.546C256.639 248.945 256.069 251.376 256.393 252.576C256.652 253.537 257.631 253.915 258.088 253.984C258.27 253.865 258.755 253.445 259.238 252.71C259.843 251.791 260.359 249.969 260.359 248.546Z" fill="#8AB98C"/>
</g>
<g style="mix-blend-mode:multiply">
<path d="M254.208 230.49C256.218 229.172 260.052 228.916 261.718 228.953C261.998 226.284 259.262 226.182 257.891 226.547C256.906 226.809 255.082 227.8 254.536 228.129C253.99 228.459 251.832 230.655 251.532 230.956C251.291 231.198 251.122 231.185 251.067 231.149C251.277 231.478 252.198 231.807 254.208 230.49Z" fill="#8AB98C"/>
</g>
<g style="mix-blend-mode:multiply">
<path d="M244.474 217.203C244.999 216.908 246.319 216.219 246.914 215.911C244.658 214.171 239.673 214.883 238.518 215.014C237.364 215.146 235.155 216.154 234.557 216.807C233.824 217.607 234.137 218.073 234.163 218.521C234.662 218.653 235.886 219.154 237.941 219.154C240.236 219.154 243.818 217.572 244.474 217.203Z" fill="#8AB98C"/>
</g>
<g style="mix-blend-mode:multiply">
<path d="M255.096 211.847C256.902 215.999 261.734 217.853 262.109 218.063C261.893 218.373 261.196 218.928 260.22 219.152C258.64 219.515 257.33 219.061 256.856 218.835C256.382 218.608 255.683 217.7 255.096 216.883C254.509 216.067 253.583 212.686 253.2 210.735C252.893 209.174 252.801 207.907 252.793 207.468C253.516 207.06 253.29 207.695 255.096 211.847Z" fill="#8AB98C"/>
</g>
<path d="M262.848 72.5729C267.192 73.9109 271.832 78.3266 273.609 80.3672C273.588 79.6813 273.556 78.833 273.515 77.8709C273.467 76.7564 273.406 75.489 273.332 74.1444C273.294 73.4568 273.252 72.7491 273.207 72.0312C273.074 69.9018 272.91 67.6832 272.715 65.6387C272.583 64.2497 272.64 62.8931 272.275 61.7953C269.909 54.6919 270.024 55.9636 266.12 50.7425C262.216 45.5214 260.727 45.9849 258.503 43.763C257.255 42.5153 255.688 40.4079 253.634 38.0538C252.031 36.2155 250.13 34.2268 247.854 32.3798C245.366 30.3612 240.735 28.1056 238.236 26.9191C237.855 26.7114 237.454 26.5207 237.033 26.3495C236.708 26.1939 236.652 26.1486 236.715 26.1554C236.893 26.1745 238.009 26.6049 236.715 26.1554C236.6 26.1154 236.466 26.0685 236.311 26.0136C233.249 24.9349 231.498 24.692 230.001 24.2784C228.594 23.8901 227.411 23.3513 225.576 21.8291C222.259 19.0776 219.447 20.2167 214.709 21.7729C214.033 21.9946 213.319 22.2248 212.559 22.4534C207.681 23.9199 203.307 28.2779 201.729 30.2735C203.387 29.9497 208.433 28.9433 215.352 27.5079C224 25.7136 224.002 29.4913 229.787 34.4792C235.572 39.4672 236.748 42.0472 240.88 49.5346C245.012 57.022 251.769 60.2669 252.831 62.6581C253.892 65.0493 257.418 70.9005 262.848 72.5729Z" fill="#51938F"/>
<path d="M273.609 80.3672C271.832 78.3266 267.192 73.9109 262.848 72.5729C257.418 70.9005 253.892 65.0493 252.831 62.6581C251.769 60.2669 245.012 57.022 240.88 49.5346C236.748 42.0472 235.572 39.4672 229.787 34.4792C224.002 29.4913 224 25.7136 215.352 27.5079C208.433 28.9433 203.387 29.9497 201.729 30.2735M273.609 80.3672C271.855 78.2329 267.774 73.465 265.481 71.4674C262.616 68.9705 258.794 66.6495 257.429 63.3473C256.063 60.0451 253.928 56.6784 251.871 55.3908C249.814 54.1032 247.186 53.6703 245.186 50.18C243.185 46.6897 241.25 41.5861 238.476 38.476C235.702 35.366 233.913 32.8955 231.087 30.731C228.262 28.5665 226.396 26.0018 222.051 25.5682C217.706 25.1345 213.472 26.3617 210.616 26.7981C208.332 27.1472 203.74 29.2605 201.729 30.2735M273.609 80.3672C273.588 79.6813 273.556 78.833 273.515 77.8709M201.729 30.2735C203.307 28.2779 207.681 23.9199 212.559 22.4534C213.319 22.2248 214.033 21.9946 214.709 21.7729M273.515 77.8709C272.742 76.2395 270.332 72.3687 266.881 69.9363C262.567 66.8957 261.976 68.4322 259.629 63.6771C257.282 58.9221 260.037 56.4711 254.194 53.5628C248.351 50.6545 247.034 48.6812 245.829 45.8891C244.624 43.097 245.748 44.0013 242.838 40.0003C239.928 35.9993 240.556 37.8085 237.274 34.4875C233.992 31.1664 226.524 24.5467 222.299 23.9134C218.919 23.4067 215.83 22.2753 214.709 21.7729M273.515 77.8709C273.467 76.7564 273.406 75.489 273.332 74.1444M214.709 21.7729C219.447 20.2167 222.259 19.0776 225.576 21.8291C227.411 23.3513 228.594 23.8901 230.001 24.2784M273.207 72.0312C271.731 70.1195 268.127 65.9491 265.527 64.5612C262.277 62.8263 263.986 62.0324 260.817 55.7525C257.648 49.4725 259.631 52.8545 254.132 48.113C248.633 43.3715 247.752 43.2396 246.158 38.8658C244.882 35.3668 243.129 28.8282 237.033 26.3495M273.207 72.0312C273.074 69.9018 272.91 67.6832 272.715 65.6387M273.207 72.0312C273.252 72.7491 273.294 73.4568 273.332 74.1444M237.033 26.3495C235.712 25.7178 238.837 26.904 236.311 26.0136C233.249 24.9349 231.498 24.692 230.001 24.2784M237.033 26.3495C238.814 27.2016 244.873 29.9608 247.854 32.3798C250.13 34.2268 252.031 36.2155 253.634 38.0538M272.715 65.6387C272.583 64.2497 272.64 62.8931 272.275 61.7953C269.909 54.6919 270.024 55.9636 266.12 50.7425C262.216 45.5214 260.727 45.9849 258.503 43.763C257.255 42.5153 255.688 40.4079 253.634 38.0538M272.715 65.6387C270.868 64.6195 266.595 61.5151 264.282 57.2512C261.391 51.9214 264.076 53.2271 260.7 49.93C257.324 46.6329 258.052 48.7006 255.359 45.7942C253.204 43.4691 253.311 39.6652 253.634 38.0538M230.001 24.2784C230.72 25.2496 232.79 27.6567 235.319 29.5156C238.481 31.8393 237.817 30.1905 240.33 33.3134C242.843 36.4363 242.636 35.944 243.957 38.5359C245.279 41.1278 246.434 42.4271 247.889 45.3275C249.345 48.2279 252.046 48.9623 253.269 50.2686C254.492 51.575 258.611 53.0551 259.705 56.5651C260.799 60.0751 262.75 65.0734 265.199 66.7463C267.159 68.0846 271.437 72.236 273.332 74.1444" stroke="black" stroke-width="0.3"/>
<g style="mix-blend-mode:multiply">
<path d="M253.767 42.7285C253.431 41.9049 253.568 39.2689 253.68 38.0538C254.845 39.4394 257.293 42.3475 257.765 42.8947C258.355 43.5787 258.772 44.1785 259.54 44.6784C260.308 45.1782 261.246 45.8966 261.975 46.315C262.705 46.7335 263.459 47.4653 264.095 48.2637C264.761 49.1 265.877 50.3464 266.699 51.4516C267.521 52.5569 268.339 53.8635 269.013 54.3747C269.687 54.886 269.694 55.8126 270.739 57.1778C271.784 58.5429 271.606 59.9222 271.929 60.5333C272.251 61.1445 272.504 62.5195 272.594 63.3405C272.666 63.9973 272.699 65.1286 272.706 65.6121C267.03 62.9526 263.573 55.7217 263.2 54.9349C262.828 54.1481 262.597 52.3976 262.394 51.8293C262.191 51.261 261.124 50.3384 260.875 50.0243C260.627 49.7101 259.232 48.3777 257.475 47.6821C255.717 46.9865 254.188 43.758 253.767 42.7285Z" fill="#A7D0CE"/>
</g>
<g style="mix-blend-mode:multiply">
<path d="M243.458 32.2241C239.79 25.4956 232.311 24.4291 229.12 24.1264C228.271 24.0121 227.331 23.2013 226.967 22.8102C222.457 18.0266 218.984 20.4539 217.785 20.7343C216.826 20.9587 210.439 26.4495 207.365 29.1669C209.153 28.1637 213.633 26.3456 217.248 27.0987C219.166 27.4983 219.929 26.4271 223.481 28.4256C226.027 30.5504 227.767 33.1587 229.549 34.3295C232.187 36.0629 236.42 41.7816 236.993 42.6067C237.566 43.4318 240.41 48.6653 241.007 49.8709C241.604 51.0766 243.861 53.6373 244.71 54.88C245.56 56.1227 248.495 58.5713 248.871 58.7589C249.017 58.8317 250.89 60.0166 252.247 61.8092C253.684 63.7086 254.635 66.2597 255.75 67.7735C256.654 68.5811 258.609 70.3154 259.19 70.7924C259.916 71.3885 263.961 73.2592 264.857 73.3312C265.573 73.3888 267.257 74.7739 268.009 75.4593C269.558 76.6421 271.847 75.2971 262.989 69.3859C263.009 67.0781 267.3 66.9585 262.6 64.0344C250.38 56.4322 259.861 53.4618 258.618 51.7353C257.418 50.0688 255.07 49.2417 249.917 44.4298C245.207 40.0313 247.586 39.7971 243.458 32.2241Z" fill="#85CCC8"/>
</g>
<g style="mix-blend-mode:multiply">
<path d="M245.243 51.2378C238.72 33.6251 226.211 26.6505 223.819 25.8494L226.587 31.4329C227.9 32.5574 230.891 35.6139 232.074 36.541C233.552 37.7 237.311 43.2291 238.037 44.4061C238.763 45.5831 241.125 50.1258 242.101 51.6522C243.078 53.1786 245.093 55.4715 246.082 56.3126C246.874 56.9854 248.255 58.2835 248.846 58.8484C249.67 59.912 251.096 60.4031 252.551 62.3226C254.37 65.7987 257.655 69.8096 258.356 70.1885C259.605 70.8643 262.863 72.6592 263.679 72.8646C264.494 73.07 265.889 74.1417 267.193 74.665C268.497 75.1883 270.381 77.2954 271.505 78.2418C272.63 79.1882 273.672 80.7349 273.625 80.4037C273.587 80.1388 273.534 76.3272 273.513 74.4545C269.207 63.2722 250.518 65.4815 245.243 51.2378Z" fill="#C4C4C4"/>
</g>
<path d="M274.583 44.7236C272.147 38.1383 263.459 26.953 258.308 20.5321C257.071 18.9723 255.956 19.6222 255.554 20.1422C255.557 20.8878 257.188 24.127 263.686 31.1196C270.185 38.1121 273.686 49.5639 274.623 54.4157C274.838 55.3516 275.587 57.1072 276.869 56.643C278.473 56.0628 276.317 49.4102 274.583 44.7236Z" fill="#5C956D" stroke="black" stroke-width="0.3"/>
<g style="mix-blend-mode:multiply">
<path d="M263.722 28.7167C271.727 38.3123 275.349 51.3312 276.16 56.6412C276.868 56.9243 277.341 56.239 277.465 55.1464C277.59 54.0538 276.157 49.0762 275.353 46.6325C274.55 44.1887 273.444 42.2281 272.734 40.7459C272.024 39.2636 269.56 35.6327 268.916 34.771C268.4 34.0817 265.846 30.4501 264.634 28.7205L260.284 23.0728L258.678 20.9318L257.754 20.6595L263.722 28.7167Z" fill="#C4C4C4"/>
</g>
<path d="M267.143 16.8306C265.836 22.296 259.765 21.5452 256.893 20.4867C255.976 20.6052 258.047 22.2024 259.31 22.5986C260.574 22.9948 266.033 25.5527 263.93 30.207C261.828 34.8612 255.371 40.4513 243.832 37.7468C232.293 35.0423 231.882 19.3234 232.049 18.01C232.327 15.8295 231.383 14.0555 231.054 13.1966C231.304 13.4441 232.636 13.0294 235.521 11.6868C239.127 10.0085 243.919 3.7945 253.146 2.32207C262.374 0.849641 268.778 9.999 267.143 16.8306Z" fill="#FF878E" stroke="black" stroke-width="0.3"/>
<g style="mix-blend-mode:multiply">
<path d="M250.861 27.3398C254.467 28.0764 258.541 32.7389 260.128 34.978L257.451 37.5265L236.446 33.0402L234.373 29.3076C234.327 28.9521 234.805 27.9486 237.077 26.7776C239.917 25.3139 246.353 26.419 250.861 27.3398Z" fill="#C4C4C4"/>
</g>
<path d="M265.296 16.6266C264.613 18.6963 261.22 20.2155 259.144 19.2569C257.813 18.6424 257.72 15.4701 260.818 15.0819C263.297 14.7714 264.578 11.5671 264.555 9.67051C265.384 10.5361 266.15 14.0396 265.296 16.6266Z" fill="#FDB8BC"/>
<g style="mix-blend-mode:multiply">
<path d="M265.483 12.0793C265.058 18.2903 260.563 18.7366 258.407 18.2341C258.413 18.8771 259.233 19.977 260.998 19.9402C262.284 19.9133 264.645 19.246 265.625 17.1153C266.315 15.6143 265.791 12.969 265.483 12.0793Z" fill="#EFCED0"/>
</g>
<path d="M260.045 7.28233C262.129 11.1755 259.158 15.0423 256.357 15.9965C254.36 16.6768 250.56 14.1119 254.485 11.9593C257.108 10.5204 256.432 5.96944 255.998 3.96366C257.237 4.07521 258.264 3.95617 260.045 7.28233Z" fill="#FDB8BC"/>
<g style="mix-blend-mode:multiply">
<path d="M261.4 11.8898C260.107 15.8181 256.566 17.0294 254.833 15.9378C260.903 13.7507 259.965 6.41001 256.047 3.96696C258.959 3.08322 262.607 8.22094 261.4 11.8898Z" fill="#EFCED0"/>
</g>
<path d="M253.027 34.3922C257.401 33.7851 259.239 30.1782 258.784 27.2541C258.459 25.1697 254.423 22.9949 254.339 27.4701C254.282 30.4614 249.527 32.3558 247.548 32.9024C248.223 33.9484 249.452 34.8883 253.027 34.3922Z" fill="#FDB8BC"/>
<path d="M242.779 31.3989C247.376 31.3569 251.112 28.3109 251.503 25.3773C251.781 23.2863 248.525 20.059 247.178 24.3276C246.278 27.1808 239.12 28.6542 237.068 28.6192C237.419 29.8132 239.1 31.4325 242.779 31.3989Z" fill="#FDB8BC"/>
<path d="M250.379 8.5434C252.256 11.0597 251.88 13.7688 249.697 15.7671C248.141 17.1915 243.631 16.3672 246.362 12.8206C248.187 10.45 246.149 7.74913 244.946 6.08622C246.303 5.80544 248.123 5.51912 250.379 8.5434Z" fill="#FDB8BC"/>
<path d="M238.686 22.6946C241.583 23.9034 244.12 22.8799 245.527 20.2768C246.531 18.4212 244.635 14.2471 241.858 17.7579C240.003 20.1046 236.887 18.7842 234.982 18.0219C235.039 19.4062 235.204 21.2418 238.686 22.6946Z" fill="#FDB8BC"/>
<g style="mix-blend-mode:multiply">
<path d="M246.664 5.88877C251.061 9.01978 250.313 13.4187 249.13 15.2896C249.739 15.4949 251.347 15.3855 251.892 13.7062C252.289 12.4835 252.203 9.71504 250.806 8.0582C249.741 6.79515 247.605 5.89063 246.664 5.88877Z" fill="#EFCED0"/>
</g>
<g style="mix-blend-mode:multiply">
<path d="M234.805 18.2826C241.645 25.5037 245.137 18.9372 244.882 16.7384C245.52 16.8174 246.921 17.6125 246.685 19.3623C246.513 20.6364 244.67 23.1563 242.569 23.6872C239.727 24.4052 234.735 22.8527 234.805 18.2826Z" fill="#EFCED0"/>
</g>
<g style="mix-blend-mode:multiply">
<path d="M259.357 18.9417C259.362 19.8019 258.634 20.6849 258.268 21.0189L238.623 9.75101L240.255 8.47671C241.231 8.44335 244.15 8.83799 248.011 10.6834C252.839 12.9902 259.35 17.8665 259.357 18.9417Z" fill="#E4A7A7"/>
</g>
<g style="mix-blend-mode:multiply">
<path d="M248.955 30.3635C252.266 27.8843 252.609 24.6266 250.454 22.94C250.318 29.3908 240.64 31.7739 237.074 28.8412C238.409 33.6291 245.864 32.679 248.955 30.3635Z" fill="#EFCED0"/>
</g>
<g style="mix-blend-mode:multiply">
<path d="M258.611 26.5033C258.185 32.7143 249.663 33.3834 247.507 32.8809C247.514 33.5239 248.832 35.078 250.574 35.3671C254.765 36.0628 257.596 33.5796 258.752 31.5393C259.914 29.4898 258.918 27.393 258.611 26.5033Z" fill="#EFCED0"/>
</g>
<g style="mix-blend-mode:multiply">
<path d="M244.541 29.2939C250.788 30.5611 257.577 25.6658 260.191 23.0597C262.479 23.235 263.735 25.8314 264.104 26.4484C264.474 27.0653 265.234 34.0223 255.582 37.3109C245.491 40.7487 240.22 36.2309 238.226 34.8942C236.232 33.5575 233.369 28.1132 232.924 25.7181C232.568 23.8019 231.688 20.3652 231.977 16.0467C233.506 19.1864 238.294 28.0266 244.541 29.2939Z" fill="#ECCCCC"/>
</g>
<path d="M243.769 11.1871C247.722 12.914 255.705 16.8724 257.626 19.5597C259.548 22.247 256.223 23.1593 254.257 23.0722C252.554 22.9968 249.757 19.9808 246.94 18.3868C244.123 16.7928 234.657 12.8311 233.332 11.2308C232.006 9.63054 232.692 9.16886 233.893 8.36091C235.094 7.55296 238.828 9.02845 243.769 11.1871Z" fill="#FBC726" stroke="black" stroke-width="0.3"/>
<g style="mix-blend-mode:multiply">
<path d="M238.455 11.0507C241.531 12.0265 252.123 18.637 256.999 21.868C257.85 22.0798 258.782 21.2603 258.188 20.2362C256.78 17.8095 250.634 14.4232 246.476 12.3472C243.316 10.7696 235.768 7.82764 234.439 8.09125C233.865 8.20519 233.292 8.56388 232.989 8.9942C232.686 9.42453 234.081 9.66298 238.455 11.0507Z" fill="#DCD275"/>
</g>
<path d="M286.552 73.8371L282.776 87.9936C279.814 83.4577 274.768 76.7054 269.027 69.9072C264.775 64.8718 260.142 59.8113 255.694 55.6078C254.262 54.2554 252.85 52.9916 251.476 51.846C249.576 50.2626 247.425 49.0732 245.119 48.213C240.304 46.4165 234.814 46.0559 229.532 46.5411C222.148 47.2194 215.173 49.5511 211.019 51.9232C210.089 49.9165 210.651 43.7965 218.807 38.5622C222.371 36.2744 227.387 34.1558 234.363 32.6238C239.352 31.528 244.637 31.6321 249.91 32.6755C255.5 33.7816 261.076 35.9431 266.271 38.8498C270.777 41.371 274.996 44.4527 278.689 47.8924C282.139 51.1053 285.129 54.6306 287.465 58.3031C288.803 60.4068 289.926 62.5588 290.798 64.7281L286.552 73.8371Z" fill="#62ACA8"/>
<path d="M234.363 32.6238C239.352 31.528 244.637 31.6321 249.91 32.6755M234.363 32.6238C237.988 32.8132 241.302 36.6543 242.506 38.5512M234.363 32.6238C227.387 34.1558 222.371 36.2744 218.807 38.5622M286.552 73.8371L282.776 87.9936C279.814 83.4577 274.768 76.7054 269.027 69.9072M286.552 73.8371L290.798 64.7281C289.926 62.5588 288.803 60.4068 287.465 58.3031M286.552 73.8371C286.306 72.7173 285.197 70.5994 283.354 67.9169M270.859 53.7833C269.346 55.1763 264.194 57.4915 255.694 55.6078M270.859 53.7833C272.684 55.4526 274.379 57.1396 275.927 58.7932M270.859 53.7833C268.95 52.0373 266.898 50.3106 264.721 48.6617M255.694 55.6078C254.262 54.2554 252.85 52.9916 251.476 51.846C249.576 50.2626 247.425 49.0732 245.119 48.213M255.694 55.6078C260.142 59.8113 264.775 64.8718 269.027 69.9072M275.927 58.7932C277.799 56.9485 280.972 52.1856 278.689 47.8924M275.927 58.7932C277.497 60.4694 278.917 62.1113 280.171 63.6657M278.689 47.8924C282.139 51.1053 285.129 54.6306 287.465 58.3031M278.689 47.8924C274.996 44.4527 270.777 41.371 266.271 38.8498M280.171 63.6657C278.809 66.0775 274.673 70.7022 269.027 69.9072M280.171 63.6657C281.395 65.1826 282.461 66.6161 283.354 67.9169M283.354 67.9169C285.005 66.2412 288.138 61.9724 287.465 58.3031M264.721 48.6617C266.372 47.0905 268.993 42.9285 266.271 38.8498M264.721 48.6617C262.455 46.9459 260.053 45.3144 257.535 43.8331M266.271 38.8498C261.076 35.9431 255.5 33.7816 249.91 32.6755M257.535 43.8331C255.266 45.4335 249.607 48.5501 245.119 48.213M257.535 43.8331C256.225 43.0623 254.883 42.3321 253.513 41.6519M245.119 48.213C240.304 46.4165 234.814 46.0559 229.532 46.5411M253.513 41.6519C251.969 40.8857 250.389 40.1828 248.777 39.5566C247.45 39.1947 245.244 38.7789 242.506 38.5512M253.513 41.6519C253.77 39.3244 253.41 34.2707 249.91 32.6755M242.506 38.5512C240.146 38.3549 237.39 38.2985 234.462 38.537M218.807 38.5622C210.651 43.7965 210.089 49.9165 211.019 51.9232C215.173 49.5511 222.148 47.2194 229.532 46.5411M218.807 38.5622C223.16 37.5825 227.002 39.7884 227.556 39.6666C229.893 39.0725 232.228 38.7189 234.462 38.537M234.462 38.537C234.323 40.4359 233.142 44.6953 229.532 46.5411" stroke="#3A2C08" stroke-width="0.3"/>
<g style="mix-blend-mode:multiply">
<path d="M241.689 41.1308C262.004 44.1279 278.64 67.2672 285.478 77.5871L282.734 87.878C277.958 81.802 267.725 68.1762 263.591 63.7012C258.186 57.8499 250.508 50.0328 244.245 47.7975C237.982 45.5623 230.447 46.606 226.011 46.9601C222.463 47.2433 214.854 49.8513 211.139 51.9319L210.875 51.7958C210.625 50.8874 210.633 49.3939 210.817 48.6571C213.744 45.2337 223.272 38.4138 241.689 41.1308Z" fill="#C4C4C4"/>
</g>
<path d="M280.392 130.06C290.528 114.643 290.093 90.6833 288.609 80.6306C289.394 81.4921 290.708 89.594 289.686 115.11C288.408 147.004 299.935 170.846 295.843 160.085C291.751 149.324 301.354 121.429 301.135 99.1798C300.963 81.6084 295.246 66.3759 289.745 52.234C287.374 46.1372 282.257 39.794 279.492 39.7925L272.196 39.7874C272.883 40.474 274.534 49.8752 276.751 88.8321C278.968 127.789 263.915 145.462 256.111 149.428C259.981 149.396 270.256 145.477 280.392 130.06Z" fill="#79A000" stroke="#3A2C08" stroke-width="0.3" stroke-linecap="round" stroke-linejoin="round"/>
<g style="mix-blend-mode:multiply">
<path d="M294.256 112.627C293.507 119.244 294.313 141.944 294.809 152.466C294.863 152.86 294.972 153.87 294.978 154.758C294.984 155.647 295.388 158.034 295.59 159.117C295.294 158.285 294.639 156.402 294.384 155.522C294.066 154.422 292.909 149.653 292.518 147.653C292.127 145.653 291.153 140.303 290.943 138.618C290.734 136.932 290.18 131.977 290.063 130.727C289.945 129.476 289.686 123.813 289.634 122.448C289.583 121.083 289.673 117.988 289.684 117.307C289.695 116.627 289.886 111.472 289.932 109.839C289.978 108.206 289.956 104.875 290.07 104.215C290.184 103.556 290.08 99.738 290.168 98.263C290.257 96.788 289.884 88.4465 289.81 86.7249C289.735 85.0033 289.166 82.2777 289.176 81.7427C289.185 81.3147 288.891 80.8687 288.743 80.6992C287.102 78.1994 289.653 72.7014 292.691 78.9223C296.489 86.6984 295.192 104.357 294.256 112.627Z" fill="#BDC6A1"/>
</g>
<g style="mix-blend-mode:multiply">
<path d="M256.376 149.498C257.376 148.81 258.511 147.954 259.735 146.944C262.373 144.509 264.77 141.486 265.195 140.888C265.952 139.823 270.024 132.622 270.901 130.662C271.777 128.702 273.061 124.908 273.297 123.91C273.532 122.913 274.621 119.063 274.806 118.007C274.99 116.952 275.639 114.01 275.79 112.964C275.941 111.917 276.583 106.534 276.691 104.924C276.798 103.313 277.005 96.5733 276.981 95.1422C276.957 93.7111 276.59 86.3558 276.491 83.3097C276.393 80.2635 275.398 67.7187 275.377 66.4744C275.356 65.2301 274.345 54.4603 274.227 53.2421C274.109 52.0239 273.194 42.5825 272.803 41.1248C272.491 39.9587 272.426 40.2973 272.283 39.7628L276.44 39.7628L276.821 39.6628C280.132 55.33 285.832 89.0435 283.251 108.536C280.995 125.569 268.213 139.95 259.735 146.944C258.615 147.979 257.451 148.907 256.376 149.498Z" fill="#BDC6A1"/>
</g>
<path d="M159.612 65C145.742 65 138.311 69.1691 138.311 72.2758H179.282C179.282 69.6277 173.482 65 159.612 65Z" fill="#4D9C76" stroke="black" stroke-width="0.3"/>
<path d="M118.701 131.404V97.7178H198.83V131.404H118.701Z" fill="#72CDA1" stroke="black" stroke-width="0.3"/>
<path d="M115 134.998V131.404H202V134.998H115Z" fill="#4D9C76" stroke="black" stroke-width="0.3"/>
<path d="M116.278 95.8985L118.166 89.9219L125.99 89.9481L135.163 89.9789L142.987 90.0052L151.081 90.0324L158.366 90.0568L167.539 90.0876L176.442 90.1175L184.266 90.1437L192.36 90.1709L199.105 90.1935C199.914 91.8235 201.587 95.1379 201.803 95.3552C202.45 96.8765 201.353 97.6191 200.723 97.8002H195.058H186.694H178.061H168.888H158.366H148.577H139.564H131.386H122.483H118.166C116.224 97.8002 116.098 96.5324 116.278 95.8985Z" fill="#4D9C76"/>
<path d="M122.483 97.8002C120.002 97.8002 118.466 97.8002 118.166 97.8002C116.224 97.8002 116.098 96.5324 116.278 95.8985L118.166 89.9219L125.99 89.9481M122.483 97.8002L125.99 89.9481M122.483 97.8002C124.741 97.8002 127.781 97.8002 131.386 97.8002M125.99 89.9481L135.163 89.9789M135.163 89.9789L131.386 97.8002M135.163 89.9789L142.987 90.0052M131.386 97.8002C138.676 97.8002 148.272 97.8002 158.366 97.8002M142.987 90.0052L139.553 97.8251M142.987 90.0052L151.081 90.0324M151.081 90.0324L148.577 97.8002M151.081 90.0324L158.366 90.0568M158.366 90.0568V97.8002M158.366 90.0568L167.539 90.0876M158.366 97.8002C161.839 97.8002 165.371 97.8002 168.888 97.8002M167.539 90.0876L168.888 97.8002M167.539 90.0876L176.442 90.1175M168.888 97.8002C171.973 97.8002 175.048 97.8002 178.061 97.8002M176.442 90.1175L178.061 97.8002M176.442 90.1175L184.266 90.1437M178.061 97.8002C181.013 97.8002 183.906 97.8002 186.694 97.8002M184.266 90.1437L199.105 90.1935C199.914 91.8235 201.587 95.1379 201.803 95.3552C202.45 96.8765 201.353 97.6191 200.723 97.8002C198.947 97.8002 197.051 97.8002 195.058 97.8002M184.266 90.1437L186.694 97.8002M186.694 97.8002C189.616 97.8002 192.422 97.8002 195.058 97.8002M192.36 90.1709L195.058 97.8002" stroke="black" stroke-width="0.3"/>
<g style="mix-blend-mode:multiply">
<path d="M122.54 97.7652L125.982 90.0371H117.945C117.561 91.0417 117.013 93.3296 116.448 95.3101C115.884 97.2906 117.111 97.9439 118.308 97.7652H122.54Z" fill="#295A88"/>
</g>
<g style="mix-blend-mode:multiply">
<path d="M139.544 97.7564L142.986 90.0283H135.126L131.367 97.7564H139.544Z" fill="#295A88"/>
</g>
<g style="mix-blend-mode:multiply">
<path d="M158.33 97.7564V90.0283H151.143L148.664 97.7564H158.33Z" fill="#295A88"/>
</g>
<g style="mix-blend-mode:multiply">
<path d="M168.722 97.7564L167.651 90.0283H176.433L177.926 97.7564H168.722Z" fill="#295A88"/>
</g>
<g style="mix-blend-mode:multiply">
<path d="M186.593 97.7564L184.303 90.0283H192.271L195.051 97.7564H186.593Z" fill="#285681"/>
</g>
<path d="M118.438 75.2647V89.9347L199.107 90.2064V74.7214C199.107 73.4174 197.758 72.2764 196.409 72.2764H120.866C118.708 72.2764 118.348 74.2686 118.438 75.2647Z" fill="#72CDA1" stroke="black" stroke-width="0.3"/>
<path d="M118.453 75.1143H199.084" stroke="black" stroke-width="0.3"/>
<path d="M130.239 131.504V105.789C130.209 105.257 130.411 104.192 131.462 104.192H139.965H148.418C149.273 104.192 149.764 104.913 149.764 105.789V131.504H139.965H130.239Z" fill="#D7E8EC"/>
<path d="M139.965 104.192C135.848 104.192 132.07 104.192 131.462 104.192C130.411 104.192 130.209 105.257 130.239 105.789V131.504H139.965M139.965 104.192C142.97 104.192 146.156 104.192 148.418 104.192C149.273 104.192 149.764 104.913 149.764 105.789C149.764 106.664 149.764 123.354 149.764 131.504H139.965M139.965 104.192V131.504" stroke="black" stroke-width="0.3"/>
<path d="M131.936 121.165V105.952H138.411V121.165H131.936Z" fill="#DBF8FF" stroke="black" stroke-width="0.3"/>
<path d="M132.041 111.362L135.967 106.07H137.637L132.041 113.943V111.362Z" fill="white"/>
<path d="M132.041 114.914L138.29 106.112V108.265L132.041 117.495V114.914Z" fill="white"/>
<path d="M131.936 129.585V123.065H138.411V129.585H131.936Z" fill="#DBF8FF" stroke="black" stroke-width="0.3"/>
<path d="M141.789 121.165V105.952H148.264V121.165H141.789Z" fill="#DBF8FF" stroke="black" stroke-width="0.3"/>
<path d="M141.789 129.585V123.065H148.264V129.585H141.789Z" fill="#DBF8FF" stroke="black" stroke-width="0.3"/>
<path d="M128.733 133.14V131.502H150.871V133.14H152.878V134.999H126.562V133.14H128.733Z" fill="#3A7B5C"/>
<path d="M128.733 133.14V131.502H150.871V133.14M128.733 133.14H126.562V134.999H152.878V133.14H150.871M128.733 133.14H150.871" stroke="black" stroke-width="0.3"/>
<path d="M141.902 111.362L145.828 106.07H147.498L141.902 113.943V111.362Z" fill="white"/>
<path d="M121.146 86.3249V77.9775C121.095 77.6201 121.237 76.9053 122.21 76.9053H139.311H158.401H177.246H194.948C195.694 76.9053 196.088 77.4874 196.088 78.5047V86.3464L177.246 86.341L158.401 86.3356L139.311 86.3301L121.146 86.3249Z" fill="#DBF8FF"/>
<path d="M125.995 81.5259C125.416 83.6342 126.756 85.6191 127.498 86.3479H132.288C132.733 84.3288 128.612 79.9368 126.496 77.9932C126.57 78.2922 126.574 79.4175 125.995 81.5259Z" fill="#5CB2C8"/>
<path d="M134.522 79.8408C133.275 80.6488 132.145 82.8695 131.736 83.8789L132.015 86.3451H135.579C135.178 85.8516 134.707 81.8033 134.522 79.8408Z" fill="#5CB2C8"/>
<path d="M146.669 79.7295C141.857 79.1461 137.201 83.1498 135.141 84.7209V86.347H144.553C144.181 85.4498 144.753 83.5432 147.337 83.0946C149.92 82.646 151.384 83.7675 151.792 84.3844C152.312 83.4119 152.328 80.4155 146.669 79.7295Z" fill="#5CB2C8"/>
<path d="M154.621 81.5242C156.537 82.1071 157.869 84.9818 158.296 86.3463H164.143C161.136 77.8779 152.226 80.7956 154.621 81.5242Z" fill="#5CB2C8"/>
<path d="M167.429 79.1688C165.369 80.0659 164.014 81.8439 163.141 83.6005C162.16 84.6335 162.732 85.8244 163.141 86.2907H172.108C169.657 85.5056 167.987 83.0382 169.991 80.9073C171.512 79.2901 173.518 80.1225 173.778 80.515C173.333 78.3841 169.505 78.2651 167.429 79.1688Z" fill="#5CB2C8"/>
<path d="M158.359 124.553H160.365H188.794H190.729C191.518 118.772 189.039 104.567 174.831 104.567C160.623 104.567 157.214 117.481 158.359 124.553Z" fill="#DBF8FF" stroke="black" stroke-width="0.3"/>
<path d="M173.749 115.621C169.42 115.793 167.565 120.6 166.664 123.419H171.363C169.809 120.992 171.6 118.307 173.749 115.621Z" fill="#5CB2C8"/>
<path d="M168.815 109.434C170.129 111.72 168.178 119.733 168.139 119.934C168.006 120.525 167.34 122.504 167.024 123.42L163.561 123.18C161.77 121.095 164.038 118.29 166.227 115.284C167.979 112.879 168.682 110.382 168.815 109.434Z" fill="#5CB2C8"/>
<path d="M162.979 112.967C162.152 113.16 162.111 113.894 162.296 114.415C161.921 114.189 161.013 114.344 160.772 114.975C160.497 115.692 161.434 115.773 162.164 115.642C161.732 115.717 162.056 117.201 162.711 117.151C163.235 117.111 163.672 116.475 163.672 115.868C163.963 116.177 165.109 115.946 165.109 115.303C165.109 114.524 164.087 114.705 163.822 114.65C164.139 114.193 164.014 112.726 162.979 112.967Z" fill="#5CB2C8"/>
<path d="M163.639 115.827C163.623 116.59 164.011 118.174 165.686 118.412" stroke="#5CB2C8" stroke-width="0.4"/>
<path d="M185.867 115.409C187.152 115.709 187.216 116.849 186.928 117.658C187.51 117.307 188.921 117.547 189.295 118.527C189.721 119.641 188.266 119.766 187.134 119.563C187.803 119.68 187.301 121.984 186.284 121.906C185.471 121.844 184.791 120.856 184.791 119.914C184.341 120.394 182.56 120.035 182.56 119.036C182.56 117.827 184.148 118.109 184.56 118.022C184.067 117.313 184.261 115.035 185.867 115.409Z" fill="#5CB2C8"/>
<path d="M184.831 119.85C184.856 121.034 184.255 123.494 181.653 123.863" stroke="#5CB2C8" stroke-width="0.4"/>
<path d="M170.909 110.649C171.787 110.854 171.83 111.633 171.634 112.185C172.031 111.946 172.995 112.11 173.251 112.779C173.542 113.54 172.548 113.626 171.774 113.487C172.232 113.567 171.889 115.14 171.194 115.087C170.638 115.045 170.174 114.37 170.174 113.727C169.866 114.054 168.65 113.809 168.65 113.127C168.65 112.301 169.735 112.493 170.016 112.434C169.679 111.95 169.812 110.393 170.909 110.649Z" fill="#5CB2C8"/>
<path d="M170.21 113.683C170.227 114.491 169.817 116.172 168.039 116.425" stroke="#5CB2C8" stroke-width="0.4"/>
<g style="mix-blend-mode:multiply">
<path d="M160.416 128.193V125.423L188.611 125.253V128.193H160.416Z" fill="#77D3A7"/>
</g>
<path d="M160.334 123.214V124.513H188.621V123.214H160.334Z" fill="#A9DEC5" stroke="black" stroke-width="0.3"/>
<path d="M160.416 125.383V124.513H188.596V125.383L187.991 126.186H161.279L160.416 125.383Z" fill="#4D9C76" stroke="black" stroke-width="0.3"/>
<path d="M139.207 76.8535C129.411 76.8535 122.472 76.8535 122.107 76.8535C121.134 76.8535 120.992 77.5683 121.042 77.9257V86.2731L139.207 86.2783M139.207 76.8535V86.2783M139.207 76.8535C144.858 76.8535 151.459 76.8535 158.297 76.8535M139.207 86.2783L158.297 86.2838M158.297 76.8535V86.2838M158.297 76.8535C164.563 76.8535 171.027 76.8535 177.143 76.8535M158.297 86.2838L177.143 86.2892M177.143 76.8535C183.661 76.8535 189.783 76.8535 194.845 76.8535C195.591 76.8535 195.985 77.4356 195.985 78.4529C195.985 79.4702 195.985 84.1046 195.985 86.2946L177.143 86.2892M177.143 76.8535V86.2892" stroke="black" stroke-width="0.3"/>
<path d="M182.919 115.812C182.684 114.673 180.516 108.891 184.591 107.824C184.591 107.824 183.654 107.124 183.086 106.764C182.518 106.404 181.539 105.966 181.539 105.966C178.106 109.837 183.213 117.235 182.919 115.812Z" fill="#5CB2C8"/>
<path d="M176.22 111.918C177.077 110.309 178.232 109.814 178.631 108.39C179.031 106.966 178.645 105.308 178.454 105.005C178.454 105.005 177.805 104.84 177.077 104.783C176.756 104.758 176.032 104.679 175.334 104.665C174.45 104.646 173.602 104.696 173.602 104.696C174.904 105.552 175.757 108.878 174.426 109.913C173.416 110.699 174.426 114.363 176.588 114.604C175.439 113.615 175.604 113.076 176.22 111.918Z" fill="#5CB2C8"/>
<rect x="149.859" y="68.1152" width="17.7749" height="1.50028" rx="0.75014" fill="#1B2621"/>
<g style="mix-blend-mode:multiply">
<path d="M118.434 101.67V97.8262H198.57V101.67H118.434Z" fill="#77BA9A"/>
</g>
<g style="mix-blend-mode:multiply">
<path d="M199.086 75.113H118.434C118.434 73.6298 119.452 72.1404 121.101 72.4274H196.419C197.892 72.4274 199.086 73.6298 199.086 75.113Z" fill="#69917D"/>
</g>
<g style="mix-blend-mode:multiply">
<rect x="128.768" y="131.455" width="5.72701" height="1.56712" fill="#A3A3A3"/>
</g>
<g style="mix-blend-mode:multiply">
<rect x="126.533" y="133.25" width="7.96061" height="1.61036" fill="#A3A3A3"/>
</g>
<defs>
<filter id="filter0_d" x="22" y="5" width="277" height="355" filterUnits="userSpaceOnUse" color-interpolation-filters="sRGB">
<feFlood flood-opacity="0" result="BackgroundImageFix"/>
<feColorMatrix in="SourceAlpha" type="matrix" values="0 0 0 0 0 0 0 0 0 0 0 0 0 0 0 0 0 0 127 0"/>
<feOffset dx="1" dy="4"/>
<feGaussianBlur stdDeviation="17.5"/>
<feColorMatrix type="matrix" values="0 0 0 0 0 0 0 0 0 0 0 0 0 0 0 0 0 0 0.25 0"/>
<feBlend mode="normal" in2="BackgroundImageFix" result="effect1_dropShadow"/>
<feBlend mode="normal" in="SourceGraphic" in2="effect1_dropShadow" result="shape"/>
</filter>
</defs>
</svg>
