<svg width="252" height="224" viewBox="0 0 252 224" fill="none" xmlns="http://www.w3.org/2000/svg">
<path d="M2.398 202.6H14.014V204.47H4.576V208.87H9.372C11.2053 208.87 12.5987 209.251 13.552 210.014C14.5053 210.777 14.982 211.877 14.982 213.314C14.982 214.825 14.4613 215.983 13.42 216.79C12.3933 217.597 10.9193 218 8.998 218H2.398V202.6ZM8.91 216.262C10.1713 216.262 11.132 216.02 11.792 215.536C12.452 215.052 12.782 214.341 12.782 213.402C12.782 211.539 11.4913 210.608 8.91 210.608H4.576V216.262H8.91ZM28.6758 212.236C28.6758 212.397 28.6611 212.61 28.6318 212.874H19.1718C19.3038 213.901 19.7511 214.729 20.5138 215.36C21.2911 215.976 22.2518 216.284 23.3958 216.284C24.7891 216.284 25.9111 215.815 26.7618 214.876L27.9278 216.24C27.3998 216.856 26.7398 217.325 25.9478 217.648C25.1705 217.971 24.2978 218.132 23.3298 218.132C22.0978 218.132 21.0051 217.883 20.0518 217.384C19.0985 216.871 18.3578 216.159 17.8298 215.25C17.3165 214.341 17.0598 213.314 17.0598 212.17C17.0598 211.041 17.3091 210.021 17.8078 209.112C18.3211 208.203 19.0178 207.499 19.8978 207C20.7925 206.487 21.7971 206.23 22.9118 206.23C24.0265 206.23 25.0165 206.487 25.8818 207C26.7618 207.499 27.4438 208.203 27.9278 209.112C28.4265 210.021 28.6758 211.063 28.6758 212.236ZM22.9118 208.012C21.8998 208.012 21.0491 208.32 20.3598 208.936C19.6851 209.552 19.2891 210.359 19.1718 211.356H26.6518C26.5345 210.373 26.1311 209.574 25.4418 208.958C24.7671 208.327 23.9238 208.012 22.9118 208.012ZM37.0343 218.132C35.8463 218.132 34.7829 217.875 33.8443 217.362C32.9203 216.849 32.1943 216.145 31.6663 215.25C31.1383 214.341 30.8743 213.314 30.8743 212.17C30.8743 211.026 31.1383 210.007 31.6663 209.112C32.1943 208.203 32.9203 207.499 33.8443 207C34.7829 206.487 35.8463 206.23 37.0343 206.23C38.0903 206.23 39.0289 206.443 39.8503 206.868C40.6863 207.293 41.3316 207.909 41.7863 208.716L40.1803 209.75C39.8136 209.193 39.3589 208.775 38.8163 208.496C38.2736 208.217 37.6723 208.078 37.0123 208.078C36.2496 208.078 35.5603 208.247 34.9443 208.584C34.3429 208.921 33.8663 209.405 33.5143 210.036C33.1769 210.652 33.0083 211.363 33.0083 212.17C33.0083 212.991 33.1769 213.717 33.5143 214.348C33.8663 214.964 34.3429 215.441 34.9443 215.778C35.5603 216.115 36.2496 216.284 37.0123 216.284C37.6723 216.284 38.2736 216.145 38.8163 215.866C39.3589 215.587 39.8136 215.169 40.1803 214.612L41.7863 215.624C41.3316 216.431 40.6863 217.054 39.8503 217.494C39.0289 217.919 38.0903 218.132 37.0343 218.132ZM55.3226 206.34V218H53.2106V208.188H46.6326V218H44.5206V206.34H55.3226ZM69.4193 206.34V218H67.3073V208.188H62.2913L62.1593 210.784C62.0859 212.353 61.9466 213.666 61.7413 214.722C61.5359 215.763 61.1986 216.599 60.7293 217.23C60.2599 217.861 59.6073 218.176 58.7713 218.176C58.3899 218.176 57.9573 218.11 57.4733 217.978L57.6053 216.196C57.7959 216.24 57.9719 216.262 58.1333 216.262C58.7199 216.262 59.1599 216.005 59.4533 215.492C59.7466 214.979 59.9373 214.37 60.0253 213.666C60.1133 212.962 60.1939 211.957 60.2673 210.652L60.4653 206.34H69.4193ZM77.661 206.23C79.2744 206.23 80.5064 206.626 81.357 207.418C82.2224 208.21 82.655 209.391 82.655 210.96V218H80.653V216.46C80.301 217.003 79.795 217.421 79.135 217.714C78.4897 217.993 77.7197 218.132 76.825 218.132C75.5197 218.132 74.471 217.817 73.679 217.186C72.9017 216.555 72.513 215.727 72.513 214.7C72.513 213.673 72.887 212.852 73.635 212.236C74.383 211.605 75.571 211.29 77.199 211.29H80.543V210.872C80.543 209.963 80.279 209.266 79.751 208.782C79.223 208.298 78.4457 208.056 77.419 208.056C76.7297 208.056 76.055 208.173 75.395 208.408C74.735 208.628 74.1777 208.929 73.723 209.31L72.843 207.726C73.4444 207.242 74.163 206.875 74.999 206.626C75.835 206.362 76.7224 206.23 77.661 206.23ZM77.177 216.504C77.9837 216.504 78.6804 216.328 79.267 215.976C79.8537 215.609 80.279 215.096 80.543 214.436V212.808H77.287C75.4977 212.808 74.603 213.409 74.603 214.612C74.603 215.199 74.8304 215.661 75.285 215.998C75.7397 216.335 76.3704 216.504 77.177 216.504ZM95.1481 208.188H90.8801V218H88.7681V208.188H84.5001V206.34H95.1481V208.188ZM97.3077 206.34H99.4197V211.29H106.064V206.34H108.176V218H106.064V213.116H99.4197V218H97.3077V206.34ZM116.44 206.23C118.054 206.23 119.286 206.626 120.136 207.418C121.002 208.21 121.434 209.391 121.434 210.96V218H119.432V216.46C119.08 217.003 118.574 217.421 117.914 217.714C117.269 217.993 116.499 218.132 115.604 218.132C114.299 218.132 113.25 217.817 112.458 217.186C111.681 216.555 111.292 215.727 111.292 214.7C111.292 213.673 111.666 212.852 112.414 212.236C113.162 211.605 114.35 211.29 115.978 211.29H119.322V210.872C119.322 209.963 119.058 209.266 118.53 208.782C118.002 208.298 117.225 208.056 116.198 208.056C115.509 208.056 114.834 208.173 114.174 208.408C113.514 208.628 112.957 208.929 112.502 209.31L111.622 207.726C112.224 207.242 112.942 206.875 113.778 206.626C114.614 206.362 115.502 206.23 116.44 206.23ZM115.956 216.504C116.763 216.504 117.46 216.328 118.046 215.976C118.633 215.609 119.058 215.096 119.322 214.436V212.808H116.066C114.277 212.808 113.382 213.409 113.382 214.612C113.382 215.199 113.61 215.661 114.064 215.998C114.519 216.335 115.15 216.504 115.956 216.504ZM134.587 206.34V218H132.695V214.304H129.307H129.065L126.513 218H124.247L127.085 214.018C126.205 213.754 125.531 213.321 125.061 212.72C124.592 212.104 124.357 211.341 124.357 210.432C124.357 209.097 124.812 208.085 125.721 207.396C126.631 206.692 127.885 206.34 129.483 206.34H134.587ZM126.513 210.498C126.513 211.275 126.755 211.855 127.239 212.236C127.738 212.603 128.479 212.786 129.461 212.786H132.695V208.188H129.549C127.525 208.188 126.513 208.958 126.513 210.498ZM156.474 216.152V220.706H154.494V218H144.748V220.706H142.746V216.152H143.362C144.11 216.108 144.624 215.58 144.902 214.568C145.181 213.556 145.372 212.126 145.474 210.278L145.65 206.34H154.692V216.152H156.474ZM147.41 210.432C147.352 211.899 147.227 213.116 147.036 214.084C146.86 215.037 146.53 215.727 146.046 216.152H152.58V208.188H147.52L147.41 210.432ZM164.22 218.132C163.061 218.132 162.02 217.875 161.096 217.362C160.172 216.849 159.446 216.145 158.918 215.25C158.404 214.341 158.148 213.314 158.148 212.17C158.148 211.026 158.404 210.007 158.918 209.112C159.446 208.203 160.172 207.499 161.096 207C162.02 206.487 163.061 206.23 164.22 206.23C165.378 206.23 166.412 206.487 167.322 207C168.246 207.499 168.964 208.203 169.478 209.112C170.006 210.007 170.27 211.026 170.27 212.17C170.27 213.314 170.006 214.341 169.478 215.25C168.964 216.145 168.246 216.849 167.322 217.362C166.412 217.875 165.378 218.132 164.22 218.132ZM164.22 216.284C164.968 216.284 165.635 216.115 166.222 215.778C166.823 215.426 167.292 214.942 167.63 214.326C167.967 213.695 168.136 212.977 168.136 212.17C168.136 211.363 167.967 210.652 167.63 210.036C167.292 209.405 166.823 208.921 166.222 208.584C165.635 208.247 164.968 208.078 164.22 208.078C163.472 208.078 162.797 208.247 162.196 208.584C161.609 208.921 161.14 209.405 160.788 210.036C160.45 210.652 160.282 211.363 160.282 212.17C160.282 212.977 160.45 213.695 160.788 214.326C161.14 214.942 161.609 215.426 162.196 215.778C162.797 216.115 163.472 216.284 164.22 216.284ZM178.401 218.132C177.213 218.132 176.15 217.875 175.211 217.362C174.287 216.849 173.561 216.145 173.033 215.25C172.505 214.341 172.241 213.314 172.241 212.17C172.241 211.026 172.505 210.007 173.033 209.112C173.561 208.203 174.287 207.499 175.211 207C176.15 206.487 177.213 206.23 178.401 206.23C179.457 206.23 180.396 206.443 181.217 206.868C182.053 207.293 182.699 207.909 183.153 208.716L181.547 209.75C181.181 209.193 180.726 208.775 180.183 208.496C179.641 208.217 179.039 208.078 178.379 208.078C177.617 208.078 176.927 208.247 176.311 208.584C175.71 208.921 175.233 209.405 174.881 210.036C174.544 210.652 174.375 211.363 174.375 212.17C174.375 212.991 174.544 213.717 174.881 214.348C175.233 214.964 175.71 215.441 176.311 215.778C176.927 216.115 177.617 216.284 178.379 216.284C179.039 216.284 179.641 216.145 180.183 215.866C180.726 215.587 181.181 215.169 181.547 214.612L183.153 215.624C182.699 216.431 182.053 217.054 181.217 217.494C180.396 217.919 179.457 218.132 178.401 218.132ZM194.427 208.188H190.159V218H188.047V208.188H183.779V206.34H194.427V208.188ZM200.745 206.23C202.358 206.23 203.59 206.626 204.441 207.418C205.306 208.21 205.739 209.391 205.739 210.96V218H203.737V216.46C203.385 217.003 202.879 217.421 202.219 217.714C201.574 217.993 200.804 218.132 199.909 218.132C198.604 218.132 197.555 217.817 196.763 217.186C195.986 216.555 195.597 215.727 195.597 214.7C195.597 213.673 195.971 212.852 196.719 212.236C197.467 211.605 198.655 211.29 200.283 211.29H203.627V210.872C203.627 209.963 203.363 209.266 202.835 208.782C202.307 208.298 201.53 208.056 200.503 208.056C199.814 208.056 199.139 208.173 198.479 208.408C197.819 208.628 197.262 208.929 196.807 209.31L195.927 207.726C196.528 207.242 197.247 206.875 198.083 206.626C198.919 206.362 199.806 206.23 200.745 206.23ZM200.261 216.504C201.068 216.504 201.764 216.328 202.351 215.976C202.938 215.609 203.363 215.096 203.627 214.436V212.808H200.371C198.582 212.808 197.687 213.409 197.687 214.612C197.687 215.199 197.914 215.661 198.369 215.998C198.824 216.335 199.454 216.504 200.261 216.504ZM217.484 211.95C218.995 212.331 219.75 213.277 219.75 214.788C219.75 215.815 219.361 216.607 218.584 217.164C217.821 217.721 216.677 218 215.152 218H209.542V206.34H214.954C216.333 206.34 217.411 206.604 218.188 207.132C218.965 207.645 219.354 208.379 219.354 209.332C219.354 209.948 219.185 210.483 218.848 210.938C218.525 211.378 218.071 211.715 217.484 211.95ZM211.61 211.356H214.778C215.585 211.356 216.193 211.209 216.604 210.916C217.029 210.623 217.242 210.197 217.242 209.64C217.242 208.525 216.421 207.968 214.778 207.968H211.61V211.356ZM214.998 216.372C215.878 216.372 216.538 216.233 216.978 215.954C217.418 215.675 217.638 215.243 217.638 214.656C217.638 214.055 217.433 213.607 217.022 213.314C216.626 213.021 215.995 212.874 215.13 212.874H211.61V216.372H214.998ZM227.588 213.072H225.168V218H223.056V206.34H225.168V211.268H227.632L231.416 206.34H233.682L229.26 211.95L233.99 218H231.504L227.588 213.072ZM240.147 206.23C241.761 206.23 242.993 206.626 243.843 207.418C244.709 208.21 245.141 209.391 245.141 210.96V218H243.139V216.46C242.787 217.003 242.281 217.421 241.621 217.714C240.976 217.993 240.206 218.132 239.311 218.132C238.006 218.132 236.957 217.817 236.165 217.186C235.388 216.555 234.999 215.727 234.999 214.7C234.999 213.673 235.373 212.852 236.121 212.236C236.869 211.605 238.057 211.29 239.685 211.29H243.029V210.872C243.029 209.963 242.765 209.266 242.237 208.782C241.709 208.298 240.932 208.056 239.905 208.056C239.216 208.056 238.541 208.173 237.881 208.408C237.221 208.628 236.664 208.929 236.209 209.31L235.329 207.726C235.931 207.242 236.649 206.875 237.485 206.626C238.321 206.362 239.209 206.23 240.147 206.23ZM239.663 216.504C240.47 216.504 241.167 216.328 241.753 215.976C242.34 215.609 242.765 215.096 243.029 214.436V212.808H239.773C237.984 212.808 237.089 213.409 237.089 214.612C237.089 215.199 237.317 215.661 237.771 215.998C238.226 216.335 238.857 216.504 239.663 216.504Z" fill="#121217"/>
<path opacity="0.3" d="M26.3495 90.5715C21.2772 40.4397 64.9683 19.4749 87.4479 15.2589C160.651 -1.41336 175.061 34.8057 191.776 42.8543C208.492 50.903 209.645 79.6483 213.679 83.6726C217.714 87.6969 221.749 102.644 222.902 115.867C224.055 129.09 203.304 146.912 196.964 149.212C190.623 151.511 176.79 154.386 165.838 161.86C154.887 169.333 133.56 172.208 126.067 173.933C118.573 175.657 109.927 164.734 98.3994 161.86C86.8715 158.985 32.6899 153.236 26.3495 90.5715Z" fill="#FB96BA"/>
<path opacity="0.3" d="M203.474 105.041C205.203 91.3925 195.404 69.4362 194.828 62.9086C187.911 21.1376 152.367 3.96118 135.459 0.594362C91.6527 -4.5511 75.8698 25.1802 70.3259 33.2379C60.5271 47.4799 47.2698 37.9852 44.3878 91.3925C41.5058 144.8 102.391 163.196 140.647 163.196C178.113 163.196 201.745 118.69 203.474 105.041Z" fill="#DC503E"/>
<path d="M150.639 91.835C159.02 91.8467 158.824 100.23 165.538 100.23C165.093 105.414 164.059 113.661 164.059 113.661H94.6064L95.9082 100.228H142.225L142.956 91.835H150.622C150.627 91.835 150.634 91.835 150.639 91.835Z" fill="#CCD1D9"/>
<path d="M160.654 98.1523L159.02 113.661H164.06C164.06 113.661 165.093 105.414 165.538 100.23C163.358 100.23 161.907 99.3459 160.654 98.1523Z" fill="#AAB2BC"/>
<path d="M109.723 105.331C114.326 105.331 118.056 109.06 118.056 113.66C118.056 118.259 114.326 121.988 109.723 121.988C105.123 121.988 101.392 118.259 101.392 113.66C101.392 109.06 105.123 105.331 109.723 105.331Z" fill="#656D78"/>
<path d="M148.942 105.331C153.544 105.331 157.275 109.06 157.275 113.66C157.275 118.259 153.544 121.988 148.942 121.988C144.341 121.988 140.611 118.259 140.611 113.66C140.611 109.06 144.341 105.331 148.942 105.331Z" fill="#656D78"/>
<path d="M109.724 110.303C111.58 110.303 113.083 111.805 113.083 113.661C113.083 115.514 111.58 117.019 109.724 117.019C107.868 117.019 106.364 115.514 106.364 113.661C106.364 111.805 107.868 110.303 109.724 110.303Z" fill="#CCD1D9"/>
<path d="M148.942 110.303C150.798 110.303 152.302 111.805 152.302 113.661C152.302 115.514 150.798 117.019 148.942 117.019C147.088 117.019 145.583 115.514 145.583 113.661C145.583 111.805 147.088 110.303 148.942 110.303Z" fill="#CCD1D9"/>
<path d="M151.514 81.7876C151.22 81.7691 150.922 81.7607 150.623 81.7607H143.836H143.834L142.956 91.8344H150.622C150.627 91.8344 150.633 91.8344 150.638 91.8344C159.02 91.8462 158.824 100.229 165.537 100.229C165.662 98.797 165.741 97.5982 165.741 96.8712C165.741 88.8173 159.454 82.246 151.514 81.7876Z" fill="#5D9CEC"/>
<path d="M151.514 81.7876C151.22 81.7691 150.923 81.7607 150.624 81.7607H145.584C145.883 81.7607 146.18 81.7691 146.474 81.7876C154.414 82.246 160.701 88.8173 160.701 96.8712C160.701 97.2057 160.684 97.6407 160.654 98.1516C161.907 99.3451 163.358 100.229 165.538 100.229C165.662 98.797 165.741 97.5982 165.741 96.8712C165.741 88.8173 159.454 82.246 151.514 81.7876Z" fill="#4A89DC"/>
<path d="M98.6748 71.6875L99.6455 61.6709H145.584L143.834 81.7611L142.956 91.8348L142.225 100.228H95.9082L96.8841 90.1559L98.6748 71.6875Z" fill="#ED5565"/>
<path d="M140.544 61.6709L138.794 81.7611L137.916 91.8348L137.185 100.228H142.225L142.955 91.8348L143.834 81.7611L145.584 61.6709H140.544Z" fill="#DA4453"/>
<path d="M165.089 114.386C165.095 114.378 165.101 114.37 165.107 114.362C165.127 114.331 165.147 114.299 165.164 114.267C165.166 114.265 165.167 114.263 165.168 114.261C165.187 114.226 165.204 114.19 165.22 114.153C165.224 114.143 165.228 114.132 165.232 114.121C165.242 114.095 165.252 114.069 165.261 114.042C165.266 114.025 165.27 114.007 165.275 113.989C165.281 113.968 165.287 113.947 165.291 113.926C165.296 113.907 165.298 113.887 165.301 113.868C165.304 113.851 165.308 113.835 165.31 113.817C165.364 113.389 166.35 105.478 166.791 100.363C166.791 100.358 166.791 100.353 166.792 100.348C166.919 98.8737 167 97.6319 167 96.8717C167 87.8454 159.653 80.502 150.623 80.502H145.209L146.84 61.7803C146.843 61.7464 146.843 61.713 146.844 61.6795C146.844 61.6767 146.844 61.674 146.844 61.6711C146.844 61.6706 146.844 61.6703 146.844 61.6698C146.844 61.1602 146.536 60.7111 146.084 60.5159C146.081 60.5142 146.077 60.5122 146.073 60.5105C146.045 60.4987 146.016 60.4887 145.987 60.4789C145.976 60.4754 145.965 60.471 145.954 60.4677C145.931 60.4605 145.906 60.4548 145.882 60.4489C145.865 60.4448 145.848 60.44 145.831 60.4366C145.809 60.4324 145.787 60.4297 145.765 60.4265C145.745 60.4235 145.725 60.42 145.704 60.4182C145.701 60.4178 145.697 60.4171 145.694 60.4168C145.672 60.4148 145.65 60.4151 145.628 60.4143C145.613 60.4138 145.599 60.4121 145.584 60.4121H145.568C145.567 60.4121 145.565 60.4121 145.564 60.4121H119.803C119.107 60.4121 118.543 60.9762 118.543 61.6713C118.543 62.3647 119.107 62.9305 119.803 62.9305H144.211L141.704 91.7034C141.703 91.7056 141.703 91.7078 141.703 91.71L141.07 98.9699H97.2961L98.0282 91.415H106.363C107.059 91.415 107.623 90.8512 107.623 90.1558C107.623 89.4604 107.059 88.8966 106.363 88.8966H98.2725L99.8185 72.9474H113.084C113.78 72.9474 114.344 72.3836 114.344 71.6882C114.344 70.9928 113.78 70.429 113.084 70.429H100.063L100.79 62.9305H114.764C115.457 62.9305 116.023 62.3647 116.023 61.6713C116.023 60.9762 115.457 60.4121 114.764 60.4121H99.6463C99.6456 60.4121 99.6451 60.4123 99.6444 60.4123C99.0527 60.4121 98.5394 60.8285 98.4152 61.4057C98.4144 61.4099 98.4129 61.4139 98.412 61.4181C98.4057 61.4495 98.4015 61.4816 98.3973 61.5138C98.3961 61.5241 98.3939 61.5338 98.3929 61.5441C98.3927 61.5461 98.3922 61.5479 98.3921 61.5499L97.5314 70.429H82.2598C81.5639 70.429 81 70.9928 81 71.6882C81 72.3836 81.5639 72.9474 82.2598 72.9474H97.2872L95.7412 88.8966H91.2465C90.5506 88.8966 89.9867 89.4604 89.9867 90.1558C89.9867 90.8512 90.5506 91.415 91.2465 91.415H95.4971L94.6552 100.099C94.6551 100.1 94.6551 100.101 94.6549 100.103L93.3533 113.531C93.3531 113.532 93.353 113.534 93.3528 113.535L93.3523 113.54C93.3506 113.557 93.3508 113.575 93.3498 113.592C93.3486 113.615 93.3463 113.638 93.3463 113.661C93.3463 113.662 93.3464 113.663 93.3464 113.665C93.3464 113.697 93.3488 113.729 93.3511 113.761C93.3521 113.771 93.3518 113.781 93.353 113.791C93.3563 113.824 93.3619 113.856 93.3678 113.888C93.3694 113.897 93.3703 113.907 93.3721 113.916C93.377 113.94 93.3839 113.964 93.3903 113.987C93.3946 114.004 93.3982 114.021 93.4032 114.037C93.4047 114.042 93.4067 114.046 93.4081 114.051C93.469 114.238 93.5725 114.406 93.7076 114.544C93.7101 114.546 93.7121 114.549 93.7146 114.551C93.728 114.565 93.7427 114.577 93.7568 114.59C93.8436 114.669 93.9417 114.737 94.049 114.79C94.0714 114.801 94.0934 114.812 94.1162 114.822C94.1231 114.825 94.1305 114.827 94.1376 114.83C94.1691 114.842 94.2009 114.854 94.2336 114.865C94.2367 114.865 94.2395 114.866 94.2425 114.867C94.2798 114.878 94.3175 114.888 94.3559 114.896C94.361 114.897 94.3662 114.897 94.371 114.898C94.4077 114.905 94.4444 114.911 94.4819 114.914C94.4827 114.914 94.4834 114.915 94.4842 114.915C94.5256 114.919 94.5666 114.921 94.6072 114.921C94.6077 114.921 94.6084 114.921 94.609 114.921H100.217C100.837 119.614 104.862 123.249 109.724 123.249C114.585 123.249 118.611 119.614 119.23 114.921H139.437C140.056 119.614 144.081 123.249 148.943 123.249C153.804 123.249 157.83 119.614 158.45 114.921H164.059C164.06 114.921 164.061 114.921 164.062 114.921C164.104 114.921 164.145 114.918 164.186 114.914C164.194 114.914 164.201 114.912 164.208 114.911C164.241 114.907 164.273 114.903 164.305 114.897C164.319 114.894 164.332 114.89 164.346 114.887C164.371 114.881 164.395 114.875 164.42 114.868C164.436 114.863 164.452 114.857 164.468 114.852C164.489 114.845 164.51 114.837 164.53 114.829C164.547 114.822 164.564 114.815 164.581 114.807C164.599 114.799 164.618 114.79 164.636 114.781C164.653 114.772 164.669 114.763 164.686 114.753C164.703 114.743 164.72 114.733 164.737 114.722C164.753 114.712 164.769 114.702 164.784 114.691C164.801 114.679 164.817 114.667 164.834 114.654C164.848 114.643 164.862 114.632 164.875 114.621C164.892 114.606 164.909 114.591 164.925 114.575C164.937 114.564 164.949 114.554 164.96 114.542C164.977 114.524 164.994 114.506 165.01 114.487C165.019 114.476 165.029 114.467 165.037 114.456C165.056 114.433 165.072 114.41 165.089 114.386ZM164.48 96.8719C164.48 97.3438 164.445 98.0295 164.385 98.8549C162.513 98.4734 161.362 97.158 159.966 95.5556C158.221 93.5518 156.091 91.1064 152.007 90.6507L152.659 83.1714C159.338 84.1588 164.48 89.9256 164.48 96.8719ZM150.143 83.0206L149.485 90.5752H144.331L144.989 83.0206H150.143ZM142.225 101.488C142.226 101.488 142.226 101.488 142.227 101.488C142.269 101.488 142.311 101.486 142.352 101.482C142.36 101.481 142.367 101.479 142.375 101.478C142.408 101.474 142.441 101.47 142.473 101.463C142.487 101.46 142.5 101.457 142.514 101.453C142.539 101.447 142.565 101.441 142.589 101.434C142.606 101.429 142.622 101.423 142.638 101.417C142.659 101.41 142.681 101.403 142.701 101.394C142.719 101.387 142.736 101.379 142.753 101.371C142.771 101.362 142.79 101.354 142.808 101.344C142.825 101.335 142.842 101.325 142.859 101.316C142.876 101.306 142.893 101.295 142.91 101.285C142.926 101.274 142.942 101.263 142.958 101.252C142.974 101.24 142.99 101.228 143.006 101.215C143.021 101.204 143.035 101.192 143.049 101.18C143.065 101.166 143.081 101.152 143.096 101.137C143.109 101.125 143.121 101.112 143.134 101.099C143.149 101.084 143.164 101.067 143.178 101.051C143.189 101.038 143.2 101.025 143.211 101.011C143.225 100.994 143.238 100.975 143.251 100.957C143.261 100.943 143.271 100.93 143.28 100.915C143.293 100.896 143.304 100.877 143.316 100.857C143.324 100.842 143.333 100.828 143.341 100.813C143.351 100.793 143.36 100.773 143.37 100.752C143.377 100.736 143.385 100.72 143.392 100.703C143.4 100.683 143.407 100.663 143.414 100.643C143.42 100.625 143.427 100.607 143.432 100.588C143.438 100.569 143.442 100.549 143.447 100.529C143.452 100.509 143.458 100.489 143.461 100.469C143.465 100.449 143.468 100.429 143.471 100.409C143.474 100.388 143.477 100.368 143.479 100.346C143.48 100.343 143.48 100.341 143.48 100.338L144.112 93.0929H150.623C154.482 93.0929 156.223 95.0919 158.066 97.2083C159.587 98.9546 161.284 100.903 164.17 101.378C163.804 105.252 163.211 110.224 162.946 112.401H158.45C157.831 107.708 153.805 104.073 148.943 104.073C144.082 104.073 140.056 107.708 139.437 112.401H119.231C118.611 107.708 114.586 104.073 109.724 104.073C104.862 104.073 100.837 107.708 100.217 112.401H95.994L97.052 101.487H142.225V101.488ZM109.724 120.73C105.824 120.73 102.652 117.559 102.652 113.661C102.652 109.763 105.825 106.592 109.724 106.592C113.624 106.592 116.796 109.763 116.796 113.661C116.796 117.559 113.624 120.73 109.724 120.73ZM148.943 120.73C145.043 120.73 141.871 117.559 141.871 113.661C141.871 109.763 145.044 106.592 148.943 106.592C152.843 106.592 156.015 109.763 156.015 113.661C156.015 117.559 152.843 120.73 148.943 120.73Z" fill="black"/>
<path d="M109.724 109.044C107.177 109.044 105.105 111.115 105.105 113.661C105.105 116.207 107.177 118.278 109.724 118.278C112.271 118.278 114.343 116.207 114.343 113.661C114.343 111.115 112.271 109.044 109.724 109.044ZM109.724 115.76C108.566 115.76 107.625 114.818 107.625 113.661C107.625 112.504 108.566 111.562 109.724 111.562C110.882 111.562 111.824 112.504 111.824 113.661C111.824 114.818 110.882 115.76 109.724 115.76Z" fill="black"/>
<path d="M148.943 109.044C146.396 109.044 144.324 111.115 144.324 113.661C144.324 116.207 146.396 118.278 148.943 118.278C151.49 118.278 153.562 116.207 153.562 113.661C153.562 111.115 151.49 109.044 148.943 109.044ZM148.943 115.76C147.785 115.76 146.843 114.818 146.843 113.661C146.843 112.504 147.785 111.562 148.943 111.562C150.101 111.562 151.043 112.504 151.043 113.661C151.043 114.818 150.101 115.76 148.943 115.76Z" fill="black"/>
<path d="M94.1856 81.7612C94.1856 81.0657 93.6218 80.502 92.9259 80.502H86.7671C86.0712 80.502 85.5073 81.0657 85.5073 81.7612C85.5073 82.4566 86.0712 83.0204 86.7671 83.0204H92.9259C93.6218 83.0204 94.1856 82.4566 94.1856 81.7612Z" fill="black"/>
</svg>
