<svg width="200" height="224" viewBox="0 0 200 224" fill="none" xmlns="http://www.w3.org/2000/svg">
<path opacity="0.3" d="M0.406153 91.2375C-4.66616 40.9755 39.0249 19.9561 61.5045 15.7291C134.707 -0.986444 149.117 35.3267 165.833 43.3963C182.548 51.4659 183.701 80.2859 187.736 84.3207C191.771 88.3555 195.806 103.342 196.958 116.599C198.111 129.856 177.361 147.725 171.02 150.03C164.68 152.336 150.846 155.218 139.895 162.711C128.943 170.204 107.616 173.086 100.123 174.815C92.6301 176.545 83.9841 165.593 72.4561 162.711C60.9281 159.829 6.74655 154.065 0.406153 91.2375Z" fill="#FB96BA"/>
<path opacity="0.3" d="M177.531 102.46C179.26 89.2027 169.461 67.8759 168.885 61.5355C161.968 20.9622 126.423 4.27827 109.516 1.00798C65.7093 -3.98994 49.9264 24.8888 44.3825 32.7155C34.5837 46.5491 21.3264 37.3267 18.4444 89.2027C15.5624 141.079 76.4474 158.947 114.703 158.947C152.169 158.947 175.802 115.717 177.531 102.46Z" fill="#DC503E"/>
<path d="M9.768 209.97C10.736 210.234 11.4913 210.696 12.034 211.356C12.5767 212.001 12.848 212.779 12.848 213.688C12.848 214.597 12.5547 215.397 11.968 216.086C11.396 216.761 10.626 217.281 9.658 217.648C8.70467 218 7.66333 218.176 6.534 218.176C5.50733 218.176 4.488 218.022 3.476 217.714C2.464 217.406 1.54 216.944 0.704 216.328L1.474 214.7C2.14867 215.228 2.904 215.624 3.74 215.888C4.576 216.152 5.41933 216.284 6.27 216.284C7.502 216.284 8.536 216.027 9.372 215.514C10.208 214.986 10.626 214.267 10.626 213.358C10.626 212.581 10.3107 211.987 9.68 211.576C9.04933 211.151 8.162 210.938 7.018 210.938H3.586V209.156H6.864C7.84667 209.156 8.60933 208.958 9.152 208.562C9.70933 208.151 9.988 207.587 9.988 206.868C9.988 206.061 9.62867 205.423 8.91 204.954C8.19133 204.485 7.282 204.25 6.182 204.25C5.46333 204.25 4.73 204.353 3.982 204.558C3.24867 204.763 2.552 205.071 1.892 205.482L1.188 203.678C1.96533 203.238 2.78667 202.908 3.652 202.688C4.51733 202.468 5.38267 202.358 6.248 202.358C7.33333 202.358 8.33067 202.527 9.24 202.864C10.1493 203.201 10.868 203.693 11.396 204.338C11.9387 204.983 12.21 205.739 12.21 206.604C12.21 207.381 11.99 208.063 11.55 208.65C11.1247 209.237 10.5307 209.677 9.768 209.97ZM20.3192 206.23C21.9326 206.23 23.1646 206.626 24.0152 207.418C24.8806 208.21 25.3132 209.391 25.3132 210.96V218H23.3112V216.46C22.9592 217.003 22.4532 217.421 21.7932 217.714C21.1479 217.993 20.3779 218.132 19.4832 218.132C18.1779 218.132 17.1292 217.817 16.3372 217.186C15.5599 216.555 15.1712 215.727 15.1712 214.7C15.1712 213.673 15.5452 212.852 16.2932 212.236C17.0412 211.605 18.2292 211.29 19.8572 211.29H23.2012V210.872C23.2012 209.963 22.9372 209.266 22.4092 208.782C21.8812 208.298 21.1039 208.056 20.0772 208.056C19.3879 208.056 18.7132 208.173 18.0532 208.408C17.3932 208.628 16.8359 208.929 16.3812 209.31L15.5012 207.726C16.1026 207.242 16.8212 206.875 17.6572 206.626C18.4932 206.362 19.3806 206.23 20.3192 206.23ZM19.8352 216.504C20.6419 216.504 21.3386 216.328 21.9252 215.976C22.5119 215.609 22.9372 215.096 23.2012 214.436V212.808H19.9452C18.1559 212.808 17.2612 213.409 17.2612 214.612C17.2612 215.199 17.4886 215.661 17.9432 215.998C18.3979 216.335 19.0286 216.504 19.8352 216.504ZM33.6483 213.072H31.2283V218H29.1163V206.34H31.2283V211.268H33.6923L37.4763 206.34H39.7423L35.3203 211.95L40.0503 218H37.5643L33.6483 213.072ZM46.2079 206.23C47.8212 206.23 49.0532 206.626 49.9039 207.418C50.7692 208.21 51.2019 209.391 51.2019 210.96V218H49.1999V216.46C48.8479 217.003 48.3419 217.421 47.6819 217.714C47.0366 217.993 46.2666 218.132 45.3719 218.132C44.0666 218.132 43.0179 217.817 42.2259 217.186C41.4486 216.555 41.0599 215.727 41.0599 214.7C41.0599 213.673 41.4339 212.852 42.1819 212.236C42.9299 211.605 44.1179 211.29 45.7459 211.29H49.0899V210.872C49.0899 209.963 48.8259 209.266 48.2979 208.782C47.7699 208.298 46.9926 208.056 45.9659 208.056C45.2766 208.056 44.6019 208.173 43.9419 208.408C43.2819 208.628 42.7246 208.929 42.2699 209.31L41.3899 207.726C41.9912 207.242 42.7099 206.875 43.5459 206.626C44.3819 206.362 45.2692 206.23 46.2079 206.23ZM45.7239 216.504C46.5306 216.504 47.2272 216.328 47.8139 215.976C48.4006 215.609 48.8259 215.096 49.0899 214.436V212.808H45.8339C44.0446 212.808 43.1499 213.409 43.1499 214.612C43.1499 215.199 43.3772 215.661 43.8319 215.998C44.2866 216.335 44.9172 216.504 45.7239 216.504ZM61.1256 211.928C61.903 212.133 62.5043 212.463 62.9296 212.918C63.355 213.373 63.5676 213.937 63.5676 214.612C63.5676 215.301 63.333 215.917 62.8636 216.46C62.3943 216.988 61.7416 217.406 60.9056 217.714C60.0843 218.007 59.1603 218.154 58.1336 218.154C57.2683 218.154 56.4176 218.044 55.5816 217.824C54.7603 217.589 54.027 217.259 53.3816 216.834L54.0196 215.228C54.577 215.58 55.215 215.859 55.9336 216.064C56.6523 216.255 57.3783 216.35 58.1116 216.35C59.109 216.35 59.901 216.181 60.4876 215.844C61.089 215.492 61.3896 215.023 61.3896 214.436C61.3896 213.893 61.1476 213.475 60.6636 213.182C60.1943 212.889 59.527 212.742 58.6616 212.742H56.5276V211.224H58.5076C59.2996 211.224 59.923 211.085 60.3776 210.806C60.8323 210.527 61.0596 210.146 61.0596 209.662C61.0596 209.134 60.7883 208.723 60.2456 208.43C59.7176 208.137 58.999 207.99 58.0896 207.99C56.931 207.99 55.7063 208.291 54.4156 208.892L53.8436 207.264C55.2663 206.545 56.755 206.186 58.3096 206.186C59.2483 206.186 60.0916 206.318 60.8396 206.582C61.5876 206.846 62.1743 207.22 62.5996 207.704C63.025 208.188 63.2376 208.738 63.2376 209.354C63.2376 209.926 63.047 210.439 62.6656 210.894C62.2843 211.349 61.771 211.693 61.1256 211.928ZM79.0006 211.928C79.778 212.133 80.3793 212.463 80.8046 212.918C81.23 213.373 81.4426 213.937 81.4426 214.612C81.4426 215.301 81.208 215.917 80.7386 216.46C80.2693 216.988 79.6166 217.406 78.7806 217.714C77.9593 218.007 77.0353 218.154 76.0086 218.154C75.1433 218.154 74.2926 218.044 73.4566 217.824C72.6353 217.589 71.902 217.259 71.2566 216.834L71.8946 215.228C72.452 215.58 73.09 215.859 73.8086 216.064C74.5273 216.255 75.2533 216.35 75.9866 216.35C76.984 216.35 77.776 216.181 78.3626 215.844C78.964 215.492 79.2646 215.023 79.2646 214.436C79.2646 213.893 79.0226 213.475 78.5386 213.182C78.0693 212.889 77.402 212.742 76.5366 212.742H74.4026V211.224H76.3826C77.1746 211.224 77.798 211.085 78.2526 210.806C78.7073 210.527 78.9346 210.146 78.9346 209.662C78.9346 209.134 78.6633 208.723 78.1206 208.43C77.5926 208.137 76.874 207.99 75.9646 207.99C74.806 207.99 73.5813 208.291 72.2906 208.892L71.7186 207.264C73.1413 206.545 74.63 206.186 76.1846 206.186C77.1233 206.186 77.9666 206.318 78.7146 206.582C79.4626 206.846 80.0493 207.22 80.4746 207.704C80.9 208.188 81.1126 208.738 81.1126 209.354C81.1126 209.926 80.922 210.439 80.5406 210.894C80.1593 211.349 79.646 211.693 79.0006 211.928ZM88.8114 206.23C90.4248 206.23 91.6568 206.626 92.5074 207.418C93.3728 208.21 93.8054 209.391 93.8054 210.96V218H91.8034V216.46C91.4514 217.003 90.9454 217.421 90.2854 217.714C89.6401 217.993 88.8701 218.132 87.9754 218.132C86.6701 218.132 85.6214 217.817 84.8294 217.186C84.0521 216.555 83.6634 215.727 83.6634 214.7C83.6634 213.673 84.0374 212.852 84.7854 212.236C85.5334 211.605 86.7214 211.29 88.3494 211.29H91.6934V210.872C91.6934 209.963 91.4294 209.266 90.9014 208.782C90.3734 208.298 89.5961 208.056 88.5694 208.056C87.8801 208.056 87.2054 208.173 86.5454 208.408C85.8854 208.628 85.3281 208.929 84.8734 209.31L83.9934 207.726C84.5948 207.242 85.3134 206.875 86.1494 206.626C86.9854 206.362 87.8728 206.23 88.8114 206.23ZM88.3274 216.504C89.1341 216.504 89.8308 216.328 90.4174 215.976C91.0041 215.609 91.4294 215.096 91.6934 214.436V212.808H88.4374C86.6481 212.808 85.7534 213.409 85.7534 214.612C85.7534 215.199 85.9808 215.661 86.4354 215.998C86.8901 216.335 87.5208 216.504 88.3274 216.504ZM107.301 202.6V218H105.123V204.514H101.647V202.6H107.301ZM131.009 206.34V218H129.095V209.486L124.739 216.68H123.815L119.503 209.464V218H117.567V206.34H119.745L124.321 214.216L129.029 206.34H131.009ZM135.12 206.34H137.232V214.832L144.382 206.34H146.296V218H144.184V209.508L137.056 218H135.12V206.34ZM150.396 206.34H152.508V211.29H159.152V206.34H161.264V218H159.152V213.116H152.508V218H150.396V206.34ZM175.776 206.34L170.122 219.166C169.624 220.354 169.037 221.19 168.362 221.674C167.702 222.158 166.903 222.4 165.964 222.4C165.392 222.4 164.835 222.305 164.292 222.114C163.764 221.938 163.324 221.674 162.972 221.322L163.874 219.738C164.476 220.31 165.172 220.596 165.964 220.596C166.478 220.596 166.903 220.457 167.24 220.178C167.592 219.914 167.908 219.452 168.186 218.792L168.56 217.978L163.412 206.34H165.612L169.682 215.668L173.708 206.34H175.776ZM186.693 208.188H182.425V218H180.313V208.188H176.045V206.34H186.693V208.188ZM199.323 206.34L193.669 219.166C193.17 220.354 192.584 221.19 191.909 221.674C191.249 222.158 190.45 222.4 189.511 222.4C188.939 222.4 188.382 222.305 187.839 222.114C187.311 221.938 186.871 221.674 186.519 221.322L187.421 219.738C188.022 220.31 188.719 220.596 189.511 220.596C190.024 220.596 190.45 220.457 190.787 220.178C191.139 219.914 191.454 219.452 191.733 218.792L192.107 217.978L186.959 206.34H189.159L193.229 215.668L197.255 206.34H199.323Z" fill="#121217"/>
<path d="M116.846 53.0684H77.1111V58.8011H116.846V53.0684Z" fill="#8DE0A8"/>
<path d="M116.846 108.198H77.1111V113.931H116.846V108.198Z" fill="#8DE0A8"/>
<path d="M85.154 53.0684H77.1111V58.8011H85.154V53.0684Z" fill="#7BC690"/>
<path d="M85.154 108.198H77.1111V113.931H85.154V108.198Z" fill="#7BC690"/>
<path d="M80.9093 108.198V100.083C80.8139 91.9295 86.7965 85.1544 94.6105 84.0011C86.8581 82.8566 80.9083 76.1787 80.9083 68.1108V58.8008H113.046V67.9186C113.141 76.0725 107.159 82.8476 99.3449 84.0012C107.097 85.1456 113.047 91.8236 113.047 99.8915V108.198H80.9093V108.198Z" fill="#CFDCE5"/>
<path d="M99.0309 84.001C91.2784 82.8565 85.3287 76.1786 85.3287 68.1107V58.8008H80.9087V68.1107C80.9087 76.1786 86.8585 82.8567 94.6109 84.001C86.797 85.1544 80.8145 91.9295 80.9098 100.083V108.198H85.3298V100.083C85.2344 91.9297 91.2169 85.1545 99.0309 84.001Z" fill="#BAC6CC"/>
<path d="M110.38 108.199C110.38 100.799 104.38 94.8008 96.9776 94.8008C89.5756 94.8008 83.5752 100.799 83.5752 108.199" fill="#FCD577"/>
<path d="M98.9742 94.9489C98.323 94.8517 97.6565 94.8008 96.9781 94.8008C89.5761 94.8008 83.5757 100.799 83.5757 108.199H87.5678C87.5678 101.478 92.5191 95.9126 98.9742 94.9489Z" fill="#EAC36E"/>
<path d="M90.644 69.1016L92.6178 82.4212L95.7794 79.0213L99.5151 82.4928L104.65 76.9706L100.915 73.4991L104.076 70.0993L90.644 69.1016Z" fill="#FCD577"/>
<path d="M116.862 59.8699C117.452 59.8699 117.931 59.3912 117.931 58.8009V53.069C117.931 52.4786 117.452 52 116.862 52H109.969C109.378 52 108.899 52.4786 108.899 53.069C108.899 53.6594 109.378 54.138 109.969 54.138H115.792V57.732H78.1956V54.138H106.404C106.995 54.138 107.474 53.6594 107.474 53.069C107.474 52.4786 106.995 52 106.404 52H77.1263C76.5356 52 76.0569 52.4786 76.0569 53.069V58.801C76.0569 59.3914 76.5356 59.87 77.1263 59.87H79.8551V68.111C79.8551 72.2462 81.3492 76.2391 84.0619 79.3545C85.8545 81.413 88.0975 83.0002 90.5881 84.0047C87.0413 85.4449 84.0023 88.0628 82.0833 91.4386C81.7915 91.9518 81.9713 92.6044 82.4845 92.8962C82.9984 93.1879 83.6508 93.0084 83.9427 92.4949C86.2105 88.5059 90.2628 85.726 94.7829 85.0589C95.3075 84.9815 95.696 84.5315 95.696 84.0014C95.696 83.4713 95.3073 83.0213 94.7829 82.944C94.446 82.8942 94.1128 82.8295 93.7816 82.757L95.8504 80.5324L98.6889 83.1702C98.4451 83.3675 98.2918 83.6687 98.2918 84.0015C98.2918 84.5316 98.6805 84.9816 99.2049 85.059C102.727 85.579 105.962 87.3522 108.313 90.0522C110.687 92.7783 111.994 96.2728 111.994 99.8918V107.13H111.427C111.17 103.564 109.628 100.271 107.019 97.7652C106.593 97.3561 105.916 97.3699 105.507 97.7955C105.098 98.2212 105.112 98.898 105.538 99.3068C107.722 101.405 109.026 104.152 109.279 107.13H84.7077C85.2515 100.83 90.5538 95.8696 96.9939 95.8696C99.0697 95.8696 101.122 96.3945 102.928 97.3877C103.446 97.6722 104.096 97.4833 104.38 96.9661C104.665 96.4489 104.476 95.7988 103.959 95.5143C101.837 94.348 99.429 93.7315 96.9939 93.7315C89.3739 93.7315 83.1108 99.6498 82.5617 107.13H81.9949V100.071C81.9769 98.5366 82.1893 97.0218 82.6262 95.5686C82.7962 95.0032 82.4756 94.407 81.91 94.2372C81.3438 94.0674 80.7481 94.3878 80.5779 94.9534C80.0785 96.6144 79.8357 98.3446 79.8561 100.084V107.13H77.126C76.5353 107.13 76.0566 107.608 76.0566 108.199V113.931C76.0566 114.521 76.5353 115 77.126 115H116.861C117.452 115 117.931 114.521 117.931 113.931V108.199C117.931 107.609 117.452 107.13 116.861 107.13H114.132V99.8921C114.132 95.7571 112.638 91.764 109.925 88.6486C108.135 86.5925 105.895 85.0067 103.408 84.0019C105.925 82.9857 108.186 81.3749 109.988 79.2831C112.708 76.1235 114.18 72.0833 114.131 67.9192V59.8699H116.862ZM115.792 112.861H78.1956V109.268H115.792V112.861ZM100.899 82.5922L105.449 77.6986C105.851 77.2662 105.827 76.5899 105.394 76.1877L102.442 73.4439L104.875 70.827C105.155 70.5262 105.238 70.0912 105.088 69.7089C104.937 69.3263 104.581 69.0636 104.171 69.0331L99.497 68.6859C98.9063 68.6416 98.395 69.0839 98.3513 69.6728C98.3075 70.2616 98.7495 70.7743 99.3386 70.8181L101.794 71.0005L100.147 72.7714C99.9541 72.9791 99.8515 73.2548 99.8617 73.5382C99.8719 73.8216 99.9946 74.0891 100.202 74.2823L103.155 77.0261L99.4757 80.9824L96.5233 78.2388C96.0909 77.8367 95.4142 77.8615 95.012 78.2939L93.3652 80.0648L91.9132 70.2671L95.6512 70.5449C96.2407 70.589 96.7531 70.1468 96.7968 69.5579C96.8407 68.9691 96.3987 68.4564 95.8096 68.4126L90.7388 68.0361C90.4166 68.0125 90.0976 68.1365 89.8763 68.3743C89.6552 68.6121 89.5541 68.9376 89.6017 69.2589L91.4996 82.0652C89.2753 81.1886 87.2711 79.7843 85.6748 77.9511C83.301 75.225 81.9937 71.7305 81.9937 68.1115V59.8699H111.993V67.9312C112.074 74.8169 107.408 80.8396 100.899 82.5922Z" fill="black"/>
<path d="M103.267 103.169C103.858 103.169 104.336 102.691 104.336 102.1C104.336 101.51 103.858 101.031 103.267 101.031C102.677 101.031 102.198 101.51 102.198 102.1C102.198 102.691 102.677 103.169 103.267 103.169Z" fill="black"/>
<path d="M101.556 106.02C102.147 106.02 102.626 105.541 102.626 104.951C102.626 104.36 102.147 103.882 101.556 103.882C100.966 103.882 100.487 104.36 100.487 104.951C100.487 105.541 100.966 106.02 101.556 106.02Z" fill="black"/>
<path d="M104.86 105.877C105.45 105.877 105.929 105.399 105.929 104.808C105.929 104.218 105.45 103.739 104.86 103.739C104.269 103.739 103.79 104.218 103.79 104.808C103.79 105.399 104.269 105.877 104.86 105.877Z" fill="black"/>
<path d="M113.718 117.489H112.89V96.4072C112.89 95.3108 112.246 94.3223 111.259 93.9023C110.272 93.4823 109.136 93.7133 108.379 94.4879L103.224 99.7678C102.191 100.826 102.189 102.543 103.22 103.603C104.252 104.663 105.925 104.665 106.958 103.607L107.603 102.946V117.489H106.251C104.792 117.489 103.608 118.703 103.608 120.201C103.608 121.699 104.792 122.913 106.251 122.913H113.718C115.178 122.913 116.361 121.699 116.361 120.201C116.361 118.703 115.178 117.489 113.718 117.489Z" fill="#FFF065"/>
<path d="M117.057 120.712C117.057 118.731 115.461 117.119 113.499 117.119H113.481V105.725C113.481 105.26 113.107 104.882 112.645 104.882C112.184 104.882 111.81 105.26 111.81 105.725V117.963C111.81 118.429 112.184 118.807 112.645 118.807H113.499C114.539 118.807 115.386 119.661 115.386 120.712C115.386 121.762 114.539 122.617 113.499 122.617H105.808C104.768 122.617 103.921 121.762 103.921 120.712C103.921 119.661 104.767 118.807 105.808 118.807H107.201C107.662 118.807 108.036 118.429 108.036 117.963V103.221C108.036 102.88 107.833 102.573 107.521 102.442C107.209 102.311 106.849 102.383 106.61 102.624L105.946 103.294C105.209 104.036 104.012 104.035 103.277 103.292C102.542 102.548 102.543 101.34 103.28 100.597L108.59 95.2456C109.132 94.6997 109.939 94.538 110.646 94.8341C111.353 95.1303 111.81 95.821 111.81 96.594V102.351C111.81 102.817 112.184 103.195 112.645 103.195C113.107 103.195 113.481 102.817 113.481 102.351V96.594C113.481 95.1366 112.619 93.834 111.286 93.2756C109.952 92.7176 108.431 93.0221 107.409 94.0514L102.099 99.4033C100.711 100.803 100.709 103.082 102.095 104.484C103.249 105.651 105.007 105.848 106.365 105.073V117.119H105.808C103.846 117.119 102.25 118.731 102.25 120.712C102.25 122.693 103.846 124.304 105.808 124.304H113.499C115.461 124.304 117.057 122.693 117.057 120.712Z" fill="black"/>
</svg>
