<svg width="227" height="224" viewBox="0 0 227 224" fill="none" xmlns="http://www.w3.org/2000/svg">
<path opacity="0.3" d="M14.4062 91.2375C9.33384 40.9755 53.0249 19.9561 75.5045 15.7291C148.707 -0.986444 163.117 35.3267 179.833 43.3963C196.548 51.4659 197.701 80.2859 201.736 84.3207C205.771 88.3555 209.806 103.342 210.958 116.599C212.111 129.856 191.361 147.725 185.02 150.03C178.68 152.336 164.846 155.218 153.895 162.711C142.943 170.204 121.616 173.086 114.123 174.815C106.63 176.545 97.9841 165.593 86.4561 162.711C74.9281 159.829 20.7465 154.065 14.4062 91.2375Z" fill="#FB96BA"/>
<path opacity="0.3" d="M191.531 102.46C193.26 89.2027 183.461 67.8759 182.885 61.5355C175.968 20.9622 140.423 4.27827 123.516 1.00798C79.7093 -3.98994 63.9264 24.8888 58.3825 32.7155C48.5837 46.5491 35.3264 37.3267 32.4444 89.2027C29.5624 141.079 90.4474 158.947 128.703 158.947C166.169 158.947 189.802 115.717 191.531 102.46Z" fill="#DC503E"/>
<path d="M19.382 210.278C19.382 212.317 18.6707 213.915 17.248 215.074C15.8253 216.233 13.816 216.856 11.22 216.944V218.572H9.174V216.944C6.578 216.841 4.56133 216.211 3.124 215.052C1.70133 213.893 0.99 212.302 0.99 210.278C0.99 208.239 1.70133 206.641 3.124 205.482C4.56133 204.323 6.578 203.693 9.174 203.59V202.028H11.22V203.59C13.8013 203.693 15.8033 204.331 17.226 205.504C18.6633 206.663 19.382 208.254 19.382 210.278ZM11.22 215.228C13.1853 215.111 14.6813 214.634 15.708 213.798C16.7493 212.947 17.27 211.767 17.27 210.256C17.27 208.775 16.742 207.616 15.686 206.78C14.6447 205.929 13.156 205.445 11.22 205.328V215.228ZM3.124 210.278C3.124 211.774 3.64467 212.947 4.686 213.798C5.742 214.634 7.238 215.111 9.174 215.228V205.328C7.20867 205.445 5.70533 205.922 4.664 206.758C3.63733 207.594 3.124 208.767 3.124 210.278ZM27.4072 218.132C26.2485 218.132 25.2072 217.875 24.2832 217.362C23.3592 216.849 22.6332 216.145 22.1052 215.25C21.5919 214.341 21.3352 213.314 21.3352 212.17C21.3352 211.026 21.5919 210.007 22.1052 209.112C22.6332 208.203 23.3592 207.499 24.2832 207C25.2072 206.487 26.2485 206.23 27.4072 206.23C28.5659 206.23 29.5999 206.487 30.5092 207C31.4332 207.499 32.1519 208.203 32.6652 209.112C33.1932 210.007 33.4572 211.026 33.4572 212.17C33.4572 213.314 33.1932 214.341 32.6652 215.25C32.1519 216.145 31.4332 216.849 30.5092 217.362C29.5999 217.875 28.5659 218.132 27.4072 218.132ZM27.4072 216.284C28.1552 216.284 28.8225 216.115 29.4092 215.778C30.0105 215.426 30.4799 214.942 30.8172 214.326C31.1545 213.695 31.3232 212.977 31.3232 212.17C31.3232 211.363 31.1545 210.652 30.8172 210.036C30.4799 209.405 30.0105 208.921 29.4092 208.584C28.8225 208.247 28.1552 208.078 27.4072 208.078C26.6592 208.078 25.9845 208.247 25.3832 208.584C24.7965 208.921 24.3272 209.405 23.9752 210.036C23.6379 210.652 23.4692 211.363 23.4692 212.17C23.4692 212.977 23.6379 213.695 23.9752 214.326C24.3272 214.942 24.7965 215.426 25.3832 215.778C25.9845 216.115 26.6592 216.284 27.4072 216.284ZM44.7673 208.188H40.4992V218H38.3873V208.188H34.1193V206.34H44.7673V208.188ZM51.4052 218.132C50.2466 218.132 49.2052 217.875 48.2812 217.362C47.3572 216.849 46.6312 216.145 46.1032 215.25C45.5899 214.341 45.3332 213.314 45.3332 212.17C45.3332 211.026 45.5899 210.007 46.1032 209.112C46.6312 208.203 47.3572 207.499 48.2812 207C49.2052 206.487 50.2466 206.23 51.4052 206.23C52.5639 206.23 53.5979 206.487 54.5072 207C55.4312 207.499 56.1499 208.203 56.6632 209.112C57.1912 210.007 57.4552 211.026 57.4552 212.17C57.4552 213.314 57.1912 214.341 56.6632 215.25C56.1499 216.145 55.4312 216.849 54.5072 217.362C53.5979 217.875 52.5639 218.132 51.4052 218.132ZM51.4052 216.284C52.1532 216.284 52.8206 216.115 53.4072 215.778C54.0086 215.426 54.4779 214.942 54.8152 214.326C55.1526 213.695 55.3212 212.977 55.3212 212.17C55.3212 211.363 55.1526 210.652 54.8152 210.036C54.4779 209.405 54.0086 208.921 53.4072 208.584C52.8206 208.247 52.1532 208.078 51.4052 208.078C50.6572 208.078 49.9826 208.247 49.3812 208.584C48.7946 208.921 48.3252 209.405 47.9732 210.036C47.6359 210.652 47.4672 211.363 47.4672 212.17C47.4672 212.977 47.6359 213.695 47.9732 214.326C48.3252 214.942 48.7946 215.426 49.3812 215.778C49.9826 216.115 50.6572 216.284 51.4052 216.284ZM69.085 208.188H62.617V218H60.505V206.34H69.085V208.188ZM77.4292 206.23C78.5585 206.23 79.5705 206.479 80.4652 206.978C81.3598 207.477 82.0565 208.173 82.5552 209.068C83.0685 209.963 83.3252 210.997 83.3252 212.17C83.3252 213.343 83.0685 214.385 82.5552 215.294C82.0565 216.189 81.3598 216.885 80.4652 217.384C79.5705 217.883 78.5585 218.132 77.4292 218.132C76.5932 218.132 75.8232 217.971 75.1192 217.648C74.4298 217.325 73.8432 216.856 73.3592 216.24V222.268H71.2472V206.34H73.2712V208.188C73.7405 207.543 74.3345 207.059 75.0532 206.736C75.7718 206.399 76.5638 206.23 77.4292 206.23ZM77.2532 216.284C78.0012 216.284 78.6685 216.115 79.2552 215.778C79.8565 215.426 80.3258 214.942 80.6632 214.326C81.0152 213.695 81.1912 212.977 81.1912 212.17C81.1912 211.363 81.0152 210.652 80.6632 210.036C80.3258 209.405 79.8565 208.921 79.2552 208.584C78.6685 208.247 78.0012 208.078 77.2532 208.078C76.5198 208.078 75.8525 208.254 75.2512 208.606C74.6645 208.943 74.1952 209.42 73.8432 210.036C73.5058 210.652 73.3372 211.363 73.3372 212.17C73.3372 212.977 73.5058 213.695 73.8432 214.326C74.1805 214.942 74.6498 215.426 75.2512 215.778C75.8525 216.115 76.5198 216.284 77.2532 216.284ZM90.4442 206.23C92.0576 206.23 93.2896 206.626 94.1402 207.418C95.0056 208.21 95.4382 209.391 95.4382 210.96V218H93.4362V216.46C93.0842 217.003 92.5782 217.421 91.9182 217.714C91.2729 217.993 90.5029 218.132 89.6082 218.132C88.3029 218.132 87.2542 217.817 86.4622 217.186C85.6849 216.555 85.2962 215.727 85.2962 214.7C85.2962 213.673 85.6702 212.852 86.4182 212.236C87.1662 211.605 88.3542 211.29 89.9822 211.29H93.3262V210.872C93.3262 209.963 93.0622 209.266 92.5342 208.782C92.0062 208.298 91.2289 208.056 90.2022 208.056C89.5129 208.056 88.8382 208.173 88.1782 208.408C87.5182 208.628 86.9609 208.929 86.5062 209.31L85.6262 207.726C86.2276 207.242 86.9462 206.875 87.7822 206.626C88.6182 206.362 89.5056 206.23 90.4442 206.23ZM89.9602 216.504C90.7669 216.504 91.4636 216.328 92.0502 215.976C92.6369 215.609 93.0622 215.096 93.3262 214.436V212.808H90.0702C88.2809 212.808 87.3862 213.409 87.3862 214.612C87.3862 215.199 87.6136 215.661 88.0682 215.998C88.5229 216.335 89.1536 216.504 89.9602 216.504ZM113.959 212.148C113.959 213.952 113.358 215.375 112.155 216.416C110.953 217.457 109.259 218.037 107.073 218.154V222.268H105.005V218.154C102.82 218.037 101.126 217.465 99.9233 216.438C98.7353 215.397 98.1413 213.967 98.1413 212.148C98.1413 210.344 98.7353 208.936 99.9233 207.924C101.111 206.912 102.805 206.347 105.005 206.23V201.676H107.073V206.23C109.259 206.347 110.953 206.919 112.155 207.946C113.358 208.958 113.959 210.359 113.959 212.148ZM100.231 212.148C100.231 213.395 100.627 214.37 101.419 215.074C102.226 215.778 103.421 216.181 105.005 216.284V208.1C103.407 208.203 102.211 208.599 101.419 209.288C100.627 209.977 100.231 210.931 100.231 212.148ZM107.073 216.306C110.271 216.057 111.869 214.671 111.869 212.148C111.869 210.916 111.466 209.963 110.659 209.288C109.853 208.599 108.657 208.203 107.073 208.1V216.306ZM116.944 206.34H119.056V214.832L126.206 206.34H128.12V218H126.008V209.508L118.88 218H116.944V206.34ZM141.57 206.34V218H139.678V214.304H136.29H136.048L133.496 218H131.23L134.068 214.018C133.188 213.754 132.513 213.321 132.044 212.72C131.574 212.104 131.34 211.341 131.34 210.432C131.34 209.097 131.794 208.085 132.704 207.396C133.613 206.692 134.867 206.34 136.466 206.34H141.57ZM133.496 210.498C133.496 211.275 133.738 211.855 134.222 212.236C134.72 212.603 135.461 212.786 136.444 212.786H139.678V208.188H136.532C134.508 208.188 133.496 208.958 133.496 210.498ZM157.539 206.736C158.624 206.736 159.592 206.978 160.443 207.462C161.293 207.946 161.953 208.621 162.423 209.486C162.907 210.337 163.149 211.312 163.149 212.412C163.149 213.541 162.892 214.546 162.379 215.426C161.88 216.291 161.169 216.966 160.245 217.45C159.335 217.934 158.294 218.176 157.121 218.176C155.141 218.176 153.608 217.501 152.523 216.152C151.452 214.788 150.917 212.874 150.917 210.41C150.917 208.019 151.408 206.149 152.391 204.8C153.373 203.436 154.877 202.534 156.901 202.094L162.225 200.906L162.533 202.842L157.627 203.898C156.101 204.235 154.965 204.807 154.217 205.614C153.469 206.421 153.043 207.579 152.941 209.09C153.439 208.342 154.085 207.763 154.877 207.352C155.669 206.941 156.556 206.736 157.539 206.736ZM157.165 216.416C157.913 216.416 158.573 216.247 159.145 215.91C159.731 215.573 160.186 215.111 160.509 214.524C160.831 213.923 160.993 213.241 160.993 212.478C160.993 211.319 160.641 210.388 159.937 209.684C159.233 208.98 158.309 208.628 157.165 208.628C156.021 208.628 155.089 208.98 154.371 209.684C153.667 210.388 153.315 211.319 153.315 212.478C153.315 213.241 153.476 213.923 153.799 214.524C154.136 215.111 154.598 215.573 155.185 215.91C155.771 216.247 156.431 216.416 157.165 216.416ZM176.249 206.34L170.595 219.166C170.096 220.354 169.51 221.19 168.835 221.674C168.175 222.158 167.376 222.4 166.437 222.4C165.865 222.4 165.308 222.305 164.765 222.114C164.237 221.938 163.797 221.674 163.445 221.322L164.347 219.738C164.948 220.31 165.645 220.596 166.437 220.596C166.95 220.596 167.376 220.457 167.713 220.178C168.065 219.914 168.38 219.452 168.659 218.792L169.033 217.978L163.885 206.34H166.085L170.155 215.668L174.181 206.34H176.249ZM182.943 213.072H180.523V218H178.411V206.34H180.523V211.268H182.987L186.771 206.34H189.037L184.615 211.95L189.345 218H186.859L182.943 213.072ZM201.711 212.236C201.711 212.397 201.696 212.61 201.667 212.874H192.207C192.339 213.901 192.786 214.729 193.549 215.36C194.326 215.976 195.287 216.284 196.431 216.284C197.824 216.284 198.946 215.815 199.797 214.876L200.963 216.24C200.435 216.856 199.775 217.325 198.983 217.648C198.206 217.971 197.333 218.132 196.365 218.132C195.133 218.132 194.04 217.883 193.087 217.384C192.134 216.871 191.393 216.159 190.865 215.25C190.352 214.341 190.095 213.314 190.095 212.17C190.095 211.041 190.344 210.021 190.843 209.112C191.356 208.203 192.053 207.499 192.933 207C193.828 206.487 194.832 206.23 195.947 206.23C197.062 206.23 198.052 206.487 198.917 207C199.797 207.499 200.479 208.203 200.963 209.112C201.462 210.021 201.711 211.063 201.711 212.236ZM195.947 208.012C194.935 208.012 194.084 208.32 193.395 208.936C192.72 209.552 192.324 210.359 192.207 211.356H199.687C199.57 210.373 199.166 209.574 198.477 208.958C197.802 208.327 196.959 208.012 195.947 208.012ZM213.183 208.188H208.915V218H206.803V208.188H202.535V206.34H213.183V208.188ZM219.501 206.23C221.114 206.23 222.346 206.626 223.197 207.418C224.062 208.21 224.495 209.391 224.495 210.96V218H222.493V216.46C222.141 217.003 221.635 217.421 220.975 217.714C220.33 217.993 219.56 218.132 218.665 218.132C217.36 218.132 216.311 217.817 215.519 217.186C214.742 216.555 214.353 215.727 214.353 214.7C214.353 213.673 214.727 212.852 215.475 212.236C216.223 211.605 217.411 211.29 219.039 211.29H222.383V210.872C222.383 209.963 222.119 209.266 221.591 208.782C221.063 208.298 220.286 208.056 219.259 208.056C218.57 208.056 217.895 208.173 217.235 208.408C216.575 208.628 216.018 208.929 215.563 209.31L214.683 207.726C215.284 207.242 216.003 206.875 216.839 206.626C217.675 206.362 218.562 206.23 219.501 206.23ZM219.017 216.504C219.824 216.504 220.52 216.328 221.107 215.976C221.694 215.609 222.119 215.096 222.383 214.436V212.808H219.127C217.338 212.808 216.443 213.409 216.443 214.612C216.443 215.199 216.67 215.661 217.125 215.998C217.58 216.335 218.21 216.504 219.017 216.504Z" fill="#121217"/>
<path d="M90.9437 65.277V52.9717H82.2195V65.277" fill="#E5E9EA"/>
<path d="M86.1814 65.277V52.9717H82.2195V65.277" fill="#D1D1D1"/>
<path d="M150.87 67.984V107.902C150.87 110.639 148.652 112.858 145.915 112.858H81.1559C78.419 112.858 76.2002 110.639 76.2002 107.902V67.984C76.2002 65.2471 78.419 63.0283 81.1559 63.0283H90.9549C93.0655 63.0283 94.9459 61.6919 95.6378 59.6971L97.4466 54.4763C98.1385 52.4815 100.017 51.1436 102.13 51.1436H131.037C133.148 51.1436 135.027 52.4815 135.718 54.4763L137.529 59.6971C138.221 61.6919 140.1 63.0283 142.21 63.0283H145.915C148.652 63.0283 150.87 65.2471 150.87 67.984Z" fill="#FCB65F"/>
<path d="M85.0418 112.857H81.1559C78.419 112.857 76.2002 110.638 76.2002 107.901V67.983C76.2002 65.2461 78.419 63.0273 81.1559 63.0273H84.7339V63.0365C82.1403 63.1965 80.0861 65.3497 80.0861 67.983V107.901C80.0861 110.638 82.3049 112.857 85.0418 112.857Z" fill="#E29A4B"/>
<path d="M106.016 51.1426C103.904 51.1426 102.025 52.4805 101.333 54.4753L99.5239 59.6961C98.832 61.6909 96.9516 63.0273 94.841 63.0273H91.5159V62.9953C93.3933 62.782 95.0086 61.5126 95.638 59.6961L97.4468 54.4753C98.1387 52.4805 100.018 51.1426 102.13 51.1426H106.016Z" fill="#E29A4B"/>
<path d="M150.87 76.5137V107.901C150.87 110.638 148.652 112.857 145.915 112.857H81.1559C78.419 112.857 76.2002 110.638 76.2002 107.901V76.5137H150.87Z" fill="#53BCE9"/>
<path d="M85.0418 112.857H81.1559C78.419 112.857 76.2002 110.638 76.2002 107.901V76.5137H80.0861V107.901C80.0861 110.638 82.3049 112.857 85.0418 112.857Z" fill="#36A6CE"/>
<path d="M113.535 108.208C124.938 108.208 134.182 98.9645 134.182 87.5617C134.182 76.1588 124.938 66.915 113.535 66.915C102.132 66.915 92.8884 76.1588 92.8884 87.5617C92.8884 98.9645 102.132 108.208 113.535 108.208Z" fill="#E5E9EA"/>
<path d="M128.134 87.5617C128.134 91.8605 126.277 95.7251 123.319 98.398C120.73 100.737 117.301 102.162 113.535 102.162C109.771 102.162 106.341 100.737 103.752 98.398C100.794 95.7266 98.9351 91.8605 98.9351 87.5617C98.9351 83.2628 100.794 79.3967 103.752 76.7269C106.341 74.3862 109.771 72.9629 113.535 72.9629C117.301 72.9629 120.73 74.3877 123.319 76.7269C126.277 79.3982 128.134 83.2628 128.134 87.5617Z" fill="#566368"/>
<path d="M123.858 77.2382C126.898 80.2779 128.317 84.3241 128.115 88.3057C124.134 88.5072 120.087 87.0881 117.048 84.0483C114.008 81.0085 112.589 76.9624 112.791 72.9819C116.772 72.7793 120.818 74.1984 123.858 77.2382Z" fill="#6F7B7F"/>
<path d="M110.022 91.0742C113.062 94.1138 114.481 98.16 114.28 102.142C110.299 102.344 106.251 100.925 103.211 97.8853C100.171 94.8455 98.7521 90.7971 98.9557 86.8178C102.936 86.6153 106.982 88.0345 110.022 91.0742Z" fill="#6F7B7F"/>
<path d="M113.535 92.28C116.14 92.28 118.253 90.1678 118.253 87.5624C118.253 84.9569 116.14 82.8447 113.535 82.8447C110.93 82.8447 108.817 84.9569 108.817 87.5624C108.817 90.1678 110.93 92.28 113.535 92.28Z" fill="#435054"/>
<path d="M120.952 61.8854H129.934C131.114 61.8854 132.072 60.9283 132.072 59.7474V57.3948C132.072 56.2141 131.114 55.2568 129.934 55.2568H120.952C119.772 55.2568 118.814 56.214 118.814 57.3948V59.7476C118.814 60.9283 119.772 61.8854 120.952 61.8854Z" fill="#E5E9EA"/>
<path d="M90.3953 108.626C92.6775 108.626 94.5276 106.776 94.5276 104.494C94.5276 102.211 92.6775 100.361 90.3953 100.361C88.113 100.361 86.2629 102.211 86.2629 104.494C86.2629 106.776 88.113 108.626 90.3953 108.626Z" fill="#566368"/>
<path d="M91.7451 87.5621C91.7451 99.5769 101.52 109.352 113.535 109.352C119.183 109.352 124.538 107.2 128.613 103.292C129.069 102.855 129.084 102.132 128.647 101.676C128.21 101.22 127.487 101.205 127.031 101.642C123.383 105.14 118.59 107.066 113.535 107.066C102.78 107.066 94.0309 98.3165 94.0309 87.5621C94.0309 76.8077 102.78 68.0583 113.535 68.0583C124.289 68.0583 133.039 76.8077 133.039 87.5621C133.039 91.7367 131.739 95.7174 129.28 99.074C128.908 99.5833 129.018 100.298 129.527 100.671C130.037 101.044 130.752 100.934 131.125 100.425C133.872 96.6734 135.324 92.2257 135.324 87.5621C135.324 75.5472 125.55 65.7725 113.535 65.7725C101.52 65.7725 91.7451 75.5472 91.7451 87.5621Z" fill="black"/>
<path d="M113.535 71.8203C104.854 71.8203 97.7922 78.8823 97.7922 87.5626C97.7922 96.243 104.854 103.305 113.535 103.305C122.215 103.305 129.277 96.243 129.277 87.5626C129.277 78.8823 122.215 71.8203 113.535 71.8203ZM113.535 101.019C106.115 101.019 100.078 94.9826 100.078 87.5626C100.078 80.1427 106.115 74.1061 113.535 74.1061C120.954 74.1061 126.991 80.1427 126.991 87.5626C126.991 94.9826 120.954 101.019 113.535 101.019Z" fill="black"/>
<path d="M113.535 81.7021C110.303 81.7021 107.674 84.3312 107.674 87.5627C107.674 90.7942 110.303 93.4232 113.535 93.4232C116.766 93.4232 119.395 90.7942 119.395 87.5627C119.395 84.3312 116.766 81.7021 113.535 81.7021ZM113.535 91.1374C111.563 91.1374 109.96 89.5338 109.96 87.5627C109.96 85.5916 111.563 83.988 113.535 83.988C115.506 83.988 117.109 85.5916 117.109 87.5627C117.109 89.5338 115.506 91.1374 113.535 91.1374Z" fill="black"/>
<path d="M129.934 63.0288C131.743 63.0288 133.215 61.5571 133.215 59.7479V57.3952C133.215 55.586 131.743 54.1143 129.934 54.1143H120.952C119.143 54.1143 117.671 55.586 117.671 57.3952V59.7477C117.671 61.5569 119.143 63.0287 120.952 63.0287H129.934V63.0288ZM119.957 59.7479V57.3952C119.957 56.8464 120.404 56.4001 120.952 56.4001H129.934C130.483 56.4001 130.929 56.8464 130.929 57.3952V59.7477C130.929 60.2965 130.483 60.7428 129.934 60.7428H120.952C120.404 60.743 119.957 60.2965 119.957 59.7479Z" fill="black"/>
<path d="M85.1201 104.494C85.1201 107.403 87.4866 109.769 90.3953 109.769C93.3041 109.769 95.6706 107.403 95.6706 104.494C95.6706 101.585 93.3041 99.2188 90.3953 99.2188C87.4866 99.2188 85.1201 101.585 85.1201 104.494ZM93.3846 104.494C93.3846 106.142 92.0436 107.483 90.3952 107.483C88.7468 107.483 87.4058 106.142 87.4058 104.494C87.4058 102.846 88.7468 101.505 90.3952 101.505C92.0436 101.505 93.3846 102.846 93.3846 104.494Z" fill="black"/>
<path d="M152.013 76.5143C152.013 76.5108 152.013 76.5075 152.013 76.504V67.9842C152.013 64.6215 149.277 61.8857 145.914 61.8857H142.211C140.588 61.8857 139.14 60.8554 138.608 59.3217L136.798 54.1009C135.948 51.6479 133.632 50 131.036 50H106.777C106.145 50 105.634 50.5117 105.634 51.1429C105.634 51.7741 106.145 52.2858 106.777 52.2858H131.036C132.659 52.2858 134.107 53.3161 134.639 54.8496L136.449 60.0704C137.299 62.5234 139.615 64.1715 142.211 64.1715H145.914C148.017 64.1715 149.727 65.8819 149.727 67.9842V75.3714H134.789C134.158 75.3714 133.646 75.8831 133.646 76.5143C133.646 77.1455 134.158 77.6572 134.789 77.6572H149.727V107.901C149.727 110.004 148.016 111.714 145.914 111.714H81.1552C79.0529 111.714 77.3425 110.004 77.3425 107.901V77.6572H92.2797C92.9109 77.6572 93.4226 77.1455 93.4226 76.5143C93.4226 75.8831 92.9109 75.3714 92.2797 75.3714H77.3425V67.9842C77.3425 65.8819 79.0529 64.1715 81.1552 64.1715H90.9547C93.5508 64.1715 95.8663 62.5234 96.7168 60.0704L98.5267 54.8496C99.0584 53.3161 100.506 52.2858 102.129 52.2858H102.967C103.598 52.2858 104.11 51.7741 104.11 51.1429C104.11 50.5117 103.598 50 102.967 50H102.129C99.5331 50 97.2174 51.6479 96.3669 54.1009L94.557 59.3217C94.0253 60.8552 92.5778 61.8857 90.9547 61.8857H81.1552C77.7925 61.8857 75.0566 64.6215 75.0566 67.9842V107.901C75.0566 111.264 77.7925 114 81.1552 114H145.914C149.277 114 152.013 111.264 152.013 107.901V76.5247C152.013 76.5212 152.013 76.5178 152.013 76.5143Z" fill="black"/>
<path d="M82.2196 60.8581C82.8508 60.8581 83.3625 60.3464 83.3625 59.7152V54.1149H89.8009V59.7152C89.8009 60.3464 90.3126 60.8581 90.9438 60.8581C91.575 60.8581 92.0867 60.3464 92.0867 59.7152V52.972C92.0867 52.3408 91.575 51.8291 90.9438 51.8291H82.2196C81.5884 51.8291 81.0767 52.3408 81.0767 52.972V59.7152C81.0767 60.3464 81.5884 60.8581 82.2196 60.8581Z" fill="black"/>
<path d="M133.629 94.4992C131.989 95.1173 130.738 96.3116 130.02 97.7598C129.825 98.154 130.006 98.6338 130.413 98.801C131.908 99.4152 133.636 99.4868 135.276 98.8686C136.916 98.2505 138.167 97.0562 138.885 95.608C139.08 95.2138 138.9 94.7339 138.493 94.5668C136.998 93.9525 135.269 93.881 133.629 94.4992Z" fill="#95CC81"/>
<path d="M151.47 102.687C149.883 102.089 148.673 100.933 147.979 99.5323C147.789 99.151 147.964 98.6868 148.358 98.5251C149.804 97.9309 151.476 97.8618 153.063 98.4597C154.649 99.0577 155.86 100.213 156.554 101.614C156.743 101.995 156.568 102.459 156.174 102.621C154.728 103.215 153.056 103.284 151.47 102.687Z" fill="#95CC81"/>
<path d="M135.016 90.6509C133.226 89.9104 131.315 89.9285 129.641 90.5544C129.186 90.7248 128.969 91.2484 129.171 91.6908C129.913 93.3159 131.253 94.6791 133.043 95.4197C134.834 96.1601 136.745 96.142 138.418 95.5161C138.874 95.3457 139.09 94.8221 138.888 94.3797C138.146 92.7547 136.806 91.3913 135.016 90.6509Z" fill="#AEDB81"/>
<path d="M151.977 94.9019C153.767 94.1614 155.678 94.1795 157.352 94.8054C157.807 94.9758 158.024 95.4994 157.822 95.9418C157.08 97.5668 155.74 98.9301 153.949 99.6707C152.159 100.411 150.248 100.393 148.575 99.7671C148.119 99.5967 147.903 99.0731 148.105 98.6307C148.847 97.0057 150.187 95.6424 151.977 94.9019Z" fill="#AEDB81"/>
<path d="M139.322 75.5896C141.206 76.1584 142.658 77.4348 143.419 78.9804C141.93 79.8473 140.014 80.1071 138.13 79.5383C136.515 79.0508 135.218 78.0434 134.401 76.7922C134.175 76.4466 134.317 75.9767 134.696 75.8136C136.069 75.2232 137.707 75.1021 139.322 75.5896Z" fill="#95CC81"/>
<path d="M147.591 75.5896C145.707 76.1584 144.255 77.4348 143.495 78.9804C144.983 79.8473 146.899 80.1071 148.783 79.5383C150.398 79.0508 151.696 78.0434 152.512 76.7922C152.738 76.4466 152.596 75.9767 152.217 75.8136C150.844 75.2232 149.206 75.1021 147.591 75.5896Z" fill="#AEDB81"/>
<path d="M143.495 78.7271C139.694 78.7271 136.614 75.6463 136.614 71.8461V65.8252H150.376V71.8461C150.376 75.6463 147.295 78.7271 143.495 78.7271Z" fill="#DB4655"/>
<path d="M140.915 59.8047C142.815 59.8047 144.355 61.3451 144.355 63.2452C144.355 65.1454 142.815 66.6858 140.915 66.6858C139.015 66.6858 137.474 65.1454 137.474 63.2452C137.474 61.3451 139.015 59.8047 140.915 59.8047Z" fill="#E5646E"/>
<path d="M146.075 59.8047C147.975 59.8047 149.515 61.3451 149.515 63.2452C149.515 65.1454 147.975 66.6858 146.075 66.6858C144.175 66.6858 142.634 65.1454 142.634 63.2452C142.634 61.3451 144.175 59.8047 146.075 59.8047Z" fill="#FF8086"/>
<path d="M139.195 69.372V71.9523H150.377V62.7158C149.198 63.1942 147.37 63.792 145.001 64.1037C140.915 64.6414 139.142 67.2217 139.195 69.372Z" fill="#E5646E"/>
<path d="M141.99 63.9963C139.621 63.6846 137.792 63.0867 136.614 62.6084V71.8449H147.795V69.2645C147.849 67.1142 146.075 64.5339 141.99 63.9963Z" fill="#DB4655"/>
<path d="M149.516 69.2659C147.692 69.2659 146.022 69.9771 144.787 71.1357C144.476 71.428 143.984 71.3187 143.82 70.9243C142.785 68.4365 140.337 66.6855 137.474 66.6855H136.614V71.6106C136.614 75.2755 139.379 78.4756 143.037 78.7124C147.044 78.9718 150.376 75.7981 150.376 71.8462V69.2659H149.516Z" fill="#E5646E"/>
<path d="M150.376 72.7052C148.643 72.7052 147.223 71.419 146.985 69.7516C147.769 69.4408 148.621 69.2646 149.516 69.2646H152.808C153.383 69.2646 153.82 69.8253 153.635 70.3695C153.175 71.7277 151.89 72.7052 150.376 72.7052Z" fill="#FF8086"/>
<path d="M136.614 70.1261C138.347 70.1261 139.767 68.8399 140.005 67.1725C139.221 66.8617 138.369 66.6855 137.474 66.6855H134.182C133.608 66.6855 133.17 67.2462 133.355 67.7904C133.815 69.1486 135.1 70.1261 136.614 70.1261Z" fill="#FF8086"/>
<path d="M158.894 95.3951C159.015 95.0198 158.846 94.612 158.495 94.432C156.37 93.3413 153.882 93.2412 151.668 94.1571C149.591 95.0161 147.975 96.6786 147.177 98.7573C146.031 99.2663 145.05 100.051 144.3 101.013V80.416C145.094 80.7109 145.959 80.8623 146.841 80.8622C147.564 80.8622 148.299 80.7608 149.016 80.5541C151.116 79.9488 152.863 78.4987 153.689 76.6752C153.852 76.3151 153.73 75.8898 153.4 75.6718C152.593 75.138 151.658 74.7891 150.657 74.6424C150.803 74.2642 150.923 73.871 151.01 73.4637C153.051 73.1567 154.621 71.3914 154.621 69.2659C154.621 68.8215 154.261 68.4612 153.816 68.4612H151.181V63.1709C151.904 62.8542 152.307 62.6172 152.349 62.5923C152.73 62.3644 152.855 61.8704 152.627 61.4887C152.399 61.1071 151.905 60.9825 151.523 61.2104C151.513 61.2168 151.013 61.51 150.095 61.8799C149.518 60.1837 147.904 59 146.075 59C145.106 59 144.212 59.3273 143.496 59.8761C142.759 59.3085 141.861 59 140.914 59C139.075 59 137.481 60.1805 136.902 61.8583C136.021 61.5008 135.537 61.2199 135.52 61.2098C135.139 60.9828 134.645 61.1076 134.418 61.4888C134.19 61.8704 134.314 62.3645 134.696 62.5923C134.736 62.6165 135.12 62.8422 135.809 63.1466V65.881H133.173C132.729 65.881 132.369 66.2413 132.369 66.6857C132.369 68.7513 133.852 70.4763 135.809 70.8534V71.8464C135.809 72.8304 135.997 73.7708 136.335 74.6363C135.314 74.7801 134.346 75.1341 133.533 75.6718C133.203 75.8898 133.081 76.3151 133.244 76.6752C134.07 78.4987 135.817 79.9488 137.917 80.5541C138.635 80.7609 139.369 80.8623 140.092 80.8622C140.995 80.8622 141.88 80.703 142.69 80.394V96.7637C141.869 95.7113 140.772 94.8704 139.485 94.3713C139.271 94.2881 139.031 94.3005 138.827 94.4056C137.122 95.2802 135.126 95.3602 133.349 94.6251C131.796 93.9825 130.564 92.7808 129.885 91.2707C131.432 90.6812 133.153 90.7011 134.707 91.3436C135.539 91.688 136.277 92.1868 136.898 92.8257C137.208 93.1444 137.717 93.1515 138.036 92.8415C138.355 92.5316 138.362 92.0222 138.052 91.7036C137.277 90.9066 136.358 90.2851 135.322 89.8563C133.108 88.9404 130.619 89.0406 128.494 90.1312C128.143 90.3113 127.975 90.719 128.096 91.0943C128.63 92.7496 129.673 94.1674 131.055 95.1706C130.188 96.0095 129.527 97.0595 129.155 98.2118C129.034 98.587 129.202 98.9948 129.553 99.1749C130.607 99.7158 131.759 99.988 132.916 99.988C133.874 99.988 134.836 99.8008 135.746 99.4243C137.332 98.7685 138.621 97.5992 139.425 96.105C141.399 97.1034 142.69 99.1653 142.69 101.403V113.132C142.69 113.577 143.05 113.937 143.495 113.937C143.939 113.937 144.299 113.577 144.299 113.132V105.652C144.299 103.5 145.493 101.512 147.339 100.475C148.149 101.728 149.333 102.72 150.724 103.295C151.634 103.672 152.595 103.859 153.554 103.859C154.71 103.859 155.863 103.586 156.917 103.045C157.267 102.865 157.436 102.458 157.315 102.082C157.01 101.137 156.516 100.265 155.87 99.5187C157.284 98.5132 158.351 97.0763 158.894 95.3951ZM135.131 97.9371C133.786 98.4937 132.298 98.5217 130.953 98.0328C131.318 97.2551 131.857 96.5619 132.521 96.0174C132.592 96.0492 132.662 96.0827 132.734 96.1125C134.118 96.6849 135.609 96.8579 137.051 96.6428C136.511 97.1929 135.862 97.635 135.131 97.9371ZM151.867 76.6564C151.147 77.7509 149.96 78.6069 148.57 79.0076C147.658 79.2704 146.716 79.3199 145.839 79.17C147.482 78.6483 148.891 77.5899 149.849 76.1808C150.571 76.215 151.255 76.3758 151.867 76.6564ZM152.885 70.0708C152.544 71.1317 151.548 71.9018 150.376 71.9018C149.296 71.9018 148.344 71.2431 147.943 70.2783C148.45 70.1429 148.978 70.0708 149.516 70.0708H152.885ZM149.571 63.7879V68.4613H149.516C149.143 68.4613 148.775 68.4907 148.413 68.543C148.296 67.3953 147.789 66.3043 146.947 65.419C146.684 65.1421 146.389 64.889 146.068 64.6586C147.444 64.4255 148.621 64.1063 149.571 63.7879ZM146.075 60.6095C147.218 60.6095 148.223 61.3538 148.576 62.4164C147.586 62.7206 146.368 63.0134 144.95 63.2C144.466 63.2637 143.887 63.3881 143.44 63.5075C143.44 63.3924 143.439 63.2783 143.439 63.2453C143.439 61.7919 144.622 60.6095 146.075 60.6095ZM140.914 60.6095C141.462 60.6095 141.984 60.7761 142.423 61.0842C142.06 61.6956 141.846 62.4054 141.832 63.1632C140.506 62.9731 139.358 62.6904 138.419 62.3984C138.774 61.3494 139.766 60.6095 140.914 60.6095ZM137.418 63.7698C138.579 64.1621 140.084 64.5588 141.884 64.7958C145.464 65.2668 146.774 67.2828 146.828 68.9473C145.963 69.2699 145.159 69.746 144.456 70.3613C143.239 67.7199 140.568 65.881 137.474 65.881H137.418V63.7698H137.418ZM134.104 67.4905H137.474C138.018 67.4905 138.545 67.5633 139.047 67.698C138.644 68.6619 137.69 69.3214 136.614 69.3214C135.441 69.3215 134.445 68.5514 134.104 67.4905ZM138.363 79.0077C136.973 78.6071 135.787 77.7517 135.067 76.6577C135.698 76.3702 136.412 76.205 137.149 76.1771C138.103 77.5705 139.503 78.6344 141.142 79.1627C140.252 79.3228 139.292 79.2755 138.363 79.0077ZM141.914 77.713C139.328 77.0154 137.418 74.6503 137.418 71.8465V70.8527C138.809 70.5822 139.985 69.625 140.532 68.3194C142.335 69.3744 143.55 71.3308 143.55 73.5668C143.55 75.1277 142.971 76.585 141.914 77.713ZM143.808 77.9141C144.678 76.6432 145.16 75.1243 145.16 73.5667C145.16 73.0545 145.108 72.5542 145.012 72.0698C145.436 71.6019 145.923 71.2089 146.456 70.898C146.975 72.1446 148.065 73.0722 149.374 73.3905C148.709 75.9465 146.468 77.7798 143.808 77.9141ZM151.339 101.808C150.811 101.589 150.322 101.295 149.885 100.937C150.299 101.002 150.716 101.035 151.135 101.035C152.192 101.035 153.252 100.828 154.255 100.413C154.316 100.388 154.374 100.36 154.433 100.334C154.879 100.793 155.247 101.324 155.518 101.903C154.172 102.392 152.684 102.364 151.339 101.808ZM153.64 98.9259C152.087 99.5685 150.366 99.5881 148.819 98.9987C149.498 97.4887 150.73 96.2869 152.283 95.6444C153.836 95.0017 155.557 94.9821 157.104 95.5715C156.426 97.0814 155.194 98.2833 153.64 98.9259Z" fill="black"/>
</svg>
