<svg width="198" height="175" viewBox="0 0 198 175" fill="none" xmlns="http://www.w3.org/2000/svg">
<path opacity="0.3" d="M0.406153 91.2379C-4.66616 40.9759 39.0249 19.9565 61.5045 15.7296C134.707 -0.986017 149.117 35.3272 165.833 43.3968C182.548 51.4664 183.701 80.2863 187.736 84.3211C191.771 88.3559 195.806 103.342 196.958 116.6C198.111 129.857 177.361 147.725 171.02 150.031C164.68 152.336 150.846 155.218 139.895 162.711C128.943 170.205 107.616 173.087 100.123 174.816C92.6301 176.545 83.9841 165.593 72.4561 162.711C60.9281 159.829 6.74655 154.065 0.406153 91.2379Z" fill="#FB96BA"/>
<path opacity="0.3" d="M177.531 102.46C179.26 89.2027 169.461 67.8759 168.885 61.5355C161.968 20.9622 126.423 4.27827 109.516 1.00798C65.7093 -3.98994 49.9264 24.8888 44.3825 32.7155C34.5837 46.5491 21.3264 37.3267 18.4444 89.2027C15.5624 141.079 76.4474 158.947 114.703 158.947C152.169 158.947 175.802 115.717 177.531 102.46Z" fill="#DC503E"/>
<path d="M76.9439 65.2776V52.9722H68.2197V65.2776" fill="#E5E9EA"/>
<path d="M72.1817 65.2776V52.9722H68.2197V65.2776" fill="#D1D1D1"/>
<path d="M136.87 67.9845V107.903C136.87 110.639 134.652 112.858 131.915 112.858H67.1559C64.419 112.858 62.2002 110.639 62.2002 107.903V67.9845C62.2002 65.2476 64.419 63.0288 67.1559 63.0288H76.9549C79.0655 63.0288 80.9459 61.6924 81.6378 59.6976L83.4466 54.4768C84.1385 52.482 86.0174 51.144 88.1295 51.144H117.037C119.148 51.144 121.027 52.482 121.718 54.4768L123.529 59.6976C124.221 61.6924 126.1 63.0288 128.21 63.0288H131.915C134.652 63.0288 136.87 65.2476 136.87 67.9845Z" fill="#FCB65F"/>
<path d="M71.0418 112.857H67.1559C64.419 112.857 62.2002 110.639 62.2002 107.902V67.9837C62.2002 65.2468 64.419 63.028 67.1559 63.028H70.7339V63.0372C68.1403 63.1972 66.0861 65.3504 66.0861 67.9837V107.902C66.0861 110.639 68.3049 112.857 71.0418 112.857Z" fill="#E29A4B"/>
<path d="M92.0154 51.143C89.9033 51.143 88.0243 52.481 87.3325 54.4757L85.5236 59.6966C84.8318 61.6913 82.9513 63.0278 80.8407 63.0278H77.5156V62.9958C79.393 62.7824 81.0084 61.513 81.6377 59.6966L83.4466 54.4757C84.1384 52.481 86.0174 51.143 88.1295 51.143H92.0154Z" fill="#E29A4B"/>
<path d="M136.87 76.5137V107.901C136.87 110.638 134.652 112.857 131.915 112.857H67.1559C64.419 112.857 62.2002 110.638 62.2002 107.901V76.5137H136.87Z" fill="#53BCE9"/>
<path d="M71.0418 112.857H67.1559C64.419 112.857 62.2002 110.638 62.2002 107.901V76.5137H66.0861V107.901C66.0861 110.638 68.3049 112.857 71.0418 112.857Z" fill="#36A6CE"/>
<path d="M99.5353 108.209C110.938 108.209 120.182 98.9652 120.182 87.5624C120.182 76.1596 110.938 66.9158 99.5353 66.9158C88.1325 66.9158 78.8887 76.1596 78.8887 87.5624C78.8887 98.9652 88.1325 108.209 99.5353 108.209Z" fill="#E5E9EA"/>
<path d="M114.135 87.5625C114.135 91.8613 112.277 95.7259 109.319 98.3988C106.73 100.738 103.301 102.163 99.5359 102.163C95.7719 102.163 92.3416 100.738 89.7525 98.3988C86.7947 95.7274 84.9355 91.8613 84.9355 87.5625C84.9355 83.2636 86.7947 79.3975 89.7525 76.7277C92.3416 74.387 95.7719 72.9637 99.5359 72.9637C103.301 72.9637 106.73 74.3885 109.319 76.7277C112.277 79.399 114.135 83.2636 114.135 87.5625Z" fill="#566368"/>
<path d="M109.858 77.2386C112.898 80.2783 114.317 84.3245 114.115 88.3061C110.134 88.5075 106.087 87.0885 103.048 84.0487C100.008 81.0088 98.5889 76.9628 98.7914 72.9822C102.772 72.7797 106.818 74.1987 109.858 77.2386Z" fill="#6F7B7F"/>
<path d="M96.0221 91.0745C99.0618 94.1141 100.481 98.1603 100.28 102.142C96.299 102.344 92.2507 100.925 89.211 97.8856C86.1713 94.8458 84.7521 90.7974 84.9557 86.8181C88.9361 86.6156 92.9823 88.0348 96.0221 91.0745Z" fill="#6F7B7F"/>
<path d="M99.535 92.2804C102.14 92.2804 104.253 90.1682 104.253 87.5627C104.253 84.9572 102.14 82.8451 99.535 82.8451C96.9295 82.8451 94.8174 84.9572 94.8174 87.5627C94.8174 90.1682 96.9295 92.2804 99.535 92.2804Z" fill="#435054"/>
<path d="M106.952 61.8856H115.934C117.114 61.8856 118.072 60.9285 118.072 59.7476V57.395C118.072 56.2143 117.115 55.257 115.934 55.257H106.952C105.772 55.257 104.814 56.2142 104.814 57.395V59.7477C104.815 60.9285 105.772 61.8856 106.952 61.8856Z" fill="#E5E9EA"/>
<path d="M76.395 108.627C78.6772 108.627 80.5273 106.776 80.5273 104.494C80.5273 102.212 78.6772 100.362 76.395 100.362C74.1128 100.362 72.2627 102.212 72.2627 104.494C72.2627 106.776 74.1128 108.627 76.395 108.627Z" fill="#566368"/>
<path d="M77.7451 87.5624C77.7451 99.5772 87.5199 109.352 99.5346 109.352C105.183 109.352 110.538 107.2 114.613 103.292C115.069 102.855 115.084 102.132 114.647 101.676C114.21 101.221 113.487 101.205 113.031 101.642C109.383 105.14 104.59 107.066 99.5346 107.066C88.7803 107.066 80.0309 98.3168 80.0309 87.5624C80.0309 76.808 88.7803 68.0586 99.5346 68.0586C110.289 68.0586 119.039 76.808 119.039 87.5624C119.039 91.737 117.739 95.7177 115.28 99.0743C114.908 99.5836 115.018 100.299 115.527 100.672C116.037 101.045 116.752 100.934 117.125 100.425C119.872 96.6737 121.324 92.226 121.324 87.5624C121.324 75.5476 111.55 65.7728 99.5346 65.7728C87.5199 65.7728 77.7451 75.5476 77.7451 87.5624Z" fill="black"/>
<path d="M99.5343 71.8199C90.854 71.8199 83.792 78.8819 83.792 87.5622C83.792 96.2425 90.854 103.304 99.5343 103.304C108.215 103.304 115.277 96.2425 115.277 87.5622C115.277 78.8819 108.215 71.8199 99.5343 71.8199ZM99.5343 101.019C92.1144 101.019 86.0778 94.9821 86.0778 87.5622C86.0778 80.1423 92.1144 74.1057 99.5343 74.1057C106.954 74.1057 112.991 80.1423 112.991 87.5622C112.991 94.9821 106.954 101.019 99.5343 101.019Z" fill="black"/>
<path d="M99.5344 81.7021C96.3028 81.7021 93.6738 84.3311 93.6738 87.5626C93.6738 90.7942 96.3028 93.4232 99.5344 93.4232C102.766 93.4232 105.395 90.7942 105.395 87.5626C105.395 84.3311 102.766 81.7021 99.5344 81.7021ZM99.5344 91.1374C97.5632 91.1374 95.9597 89.5338 95.9597 87.5626C95.9597 85.5915 97.5632 83.9879 99.5344 83.9879C101.506 83.9879 103.109 85.5915 103.109 87.5626C103.109 89.5338 101.506 91.1374 99.5344 91.1374Z" fill="black"/>
<path d="M115.934 63.0286C117.743 63.0286 119.215 61.5568 119.215 59.7477V57.3949C119.215 55.5858 117.743 54.114 115.934 54.114H106.953C105.144 54.114 103.672 55.5858 103.672 57.3949V59.7475C103.672 61.5567 105.144 63.0284 106.953 63.0284H115.934V63.0286ZM105.958 59.7477V57.3949C105.958 56.8462 106.404 56.3998 106.953 56.3998H115.934C116.483 56.3998 116.929 56.8462 116.929 57.3949V59.7475C116.929 60.2963 116.483 60.7426 115.934 60.7426H106.953C106.404 60.7428 105.958 60.2963 105.958 59.7477Z" fill="black"/>
<path d="M71.1201 104.494C71.1201 107.403 73.4866 109.769 76.3953 109.769C79.3041 109.769 81.6706 107.403 81.6706 104.494C81.6706 101.585 79.3041 99.2189 76.3953 99.2189C73.4866 99.2189 71.1201 101.585 71.1201 104.494ZM79.3846 104.494C79.3846 106.142 78.0436 107.483 76.3952 107.483C74.7468 107.483 73.4058 106.142 73.4058 104.494C73.4058 102.846 74.7468 101.505 76.3952 101.505C78.0436 101.505 79.3846 102.846 79.3846 104.494Z" fill="black"/>
<path d="M138.013 76.5143C138.013 76.5108 138.013 76.5075 138.013 76.504V67.9842C138.013 64.6215 135.277 61.8857 131.914 61.8857H128.211C126.588 61.8857 125.14 60.8554 124.608 59.3217L122.798 54.1009C121.948 51.6479 119.632 50 117.036 50H92.7765C92.1454 50 91.6336 50.5117 91.6336 51.1429C91.6336 51.7741 92.1454 52.2858 92.7765 52.2858H117.036C118.659 52.2858 120.107 53.3161 120.639 54.8496L122.449 60.0704C123.299 62.5234 125.615 64.1715 128.211 64.1715H131.914C134.017 64.1715 135.727 65.8819 135.727 67.9842V75.3714H120.789C120.158 75.3714 119.646 75.8831 119.646 76.5143C119.646 77.1455 120.158 77.6572 120.789 77.6572H135.727V107.901C135.727 110.004 134.016 111.714 131.914 111.714H67.1552C65.0529 111.714 63.3425 110.004 63.3425 107.901V77.6572H78.2797C78.9109 77.6572 79.4226 77.1455 79.4226 76.5143C79.4226 75.8831 78.9109 75.3714 78.2797 75.3714H63.3425V67.9842C63.3425 65.8819 65.0529 64.1715 67.1552 64.1715H76.9547C79.5508 64.1715 81.8663 62.5234 82.7168 60.0704L84.5267 54.8496C85.0584 53.3161 86.5061 52.2858 88.1292 52.2858H88.9667C89.5979 52.2858 90.1096 51.7741 90.1096 51.1429C90.1096 50.5117 89.5979 50 88.9667 50H88.1292C85.5331 50 83.2174 51.6479 82.3669 54.1009L80.557 59.3217C80.0253 60.8552 78.5778 61.8857 76.9547 61.8857H67.1552C63.7925 61.8857 61.0566 64.6215 61.0566 67.9842V107.901C61.0566 111.264 63.7925 114 67.1552 114H131.914C135.277 114 138.013 111.264 138.013 107.901V76.5247C138.013 76.5212 138.013 76.5178 138.013 76.5143Z" fill="black"/>
<path d="M68.2191 60.8582C68.8503 60.8582 69.362 60.3465 69.362 59.7153V54.115H75.8004V59.7153C75.8004 60.3465 76.3121 60.8582 76.9433 60.8582C77.5745 60.8582 78.0862 60.3465 78.0862 59.7153V52.9721C78.0862 52.3409 77.5745 51.8292 76.9433 51.8292H68.2191C67.5879 51.8292 67.0762 52.3409 67.0762 52.9721V59.7153C67.0762 60.3465 67.5879 60.8582 68.2191 60.8582Z" fill="black"/>
<path d="M119.629 94.4989C117.989 95.117 116.738 96.3113 116.02 97.7595C115.825 98.1537 116.006 98.6335 116.413 98.8007C117.908 99.4149 119.636 99.4865 121.276 98.8683C122.916 98.2502 124.167 97.0559 124.885 95.6077C125.081 95.2135 124.9 94.7336 124.493 94.5665C122.998 93.9522 121.27 93.8807 119.629 94.4989Z" fill="#95CC81"/>
<path d="M137.47 102.687C135.883 102.089 134.673 100.934 133.979 99.5328C133.79 99.1514 133.965 98.6873 134.358 98.5256C135.805 97.9313 137.476 97.8622 139.063 98.4601C140.65 99.0581 141.86 100.213 142.554 101.614C142.743 101.996 142.568 102.46 142.175 102.621C140.728 103.216 139.057 103.285 137.47 102.687Z" fill="#95CC81"/>
<path d="M121.016 90.6509C119.226 89.9104 117.315 89.9285 115.642 90.5544C115.186 90.7248 114.97 91.2484 115.172 91.6908C115.914 93.3159 117.254 94.6791 119.044 95.4197C120.834 96.1601 122.745 96.142 124.418 95.5161C124.874 95.3457 125.091 94.8221 124.888 94.3797C124.147 92.7547 122.806 91.3913 121.016 90.6509Z" fill="#AEDB81"/>
<path d="M137.976 94.9014C139.766 94.161 141.678 94.1791 143.351 94.805C143.807 94.9754 144.023 95.499 143.821 95.9414C143.079 97.5664 141.739 98.9296 139.949 99.6702C138.159 100.411 136.247 100.393 134.574 99.7667C134.119 99.5963 133.902 99.0727 134.104 98.6303C134.846 97.0052 136.186 95.642 137.976 94.9014Z" fill="#AEDB81"/>
<path d="M125.322 75.5894C127.206 76.1582 128.658 77.4346 129.419 78.9802C127.93 79.8471 126.014 80.1069 124.13 79.5381C122.515 79.0506 121.218 78.0432 120.401 76.792C120.175 76.4464 120.317 75.9765 120.696 75.8134C122.069 75.2231 123.707 75.1019 125.322 75.5894Z" fill="#95CC81"/>
<path d="M133.591 75.5894C131.707 76.1582 130.254 77.4346 129.494 78.9802C130.983 79.8471 132.899 80.1069 134.783 79.5381C136.398 79.0506 137.695 78.0432 138.512 76.792C138.737 76.4464 138.595 75.9765 138.216 75.8134C136.844 75.2231 135.206 75.1019 133.591 75.5894Z" fill="#AEDB81"/>
<path d="M129.494 78.7266C125.694 78.7266 122.613 75.6459 122.613 71.8456V65.8248H136.375V71.8456C136.375 75.6459 133.294 78.7266 129.494 78.7266Z" fill="#DB4655"/>
<path d="M126.914 59.8047C128.814 59.8047 130.355 61.3451 130.355 63.2452C130.355 65.1454 128.814 66.6858 126.914 66.6858C125.014 66.6858 123.474 65.1454 123.474 63.2452C123.474 61.3451 125.014 59.8047 126.914 59.8047Z" fill="#E5646E"/>
<path d="M132.075 59.8047C133.975 59.8047 135.516 61.3451 135.516 63.2452C135.516 65.1454 133.975 66.6858 132.075 66.6858C130.175 66.6858 128.635 65.1454 128.635 63.2452C128.635 61.3451 130.175 59.8047 132.075 59.8047Z" fill="#FF8086"/>
<path d="M125.196 69.3724V71.9528H136.377V62.7162C135.198 63.1946 133.37 63.7925 131.001 64.1042C126.916 64.6418 125.142 67.2222 125.196 69.3724Z" fill="#E5646E"/>
<path d="M127.989 63.9967C125.621 63.685 123.792 63.0872 122.613 62.6088V71.8453H133.795V69.2649C133.849 67.1146 132.075 64.5343 127.989 63.9967Z" fill="#DB4655"/>
<path d="M135.515 69.2664C133.691 69.2664 132.022 69.9775 130.787 71.1362C130.475 71.4284 129.984 71.3192 129.82 70.9248C128.784 68.4369 126.336 66.686 123.473 66.686H122.613V71.6111C122.613 75.276 125.379 78.4761 129.036 78.7129C133.044 78.9723 136.375 75.7986 136.375 71.8467V69.2664H135.515Z" fill="#E5646E"/>
<path d="M136.376 72.7055C134.642 72.7055 133.223 71.4193 132.984 69.7519C133.769 69.4411 134.621 69.265 135.516 69.265H138.807C139.382 69.265 139.819 69.8256 139.635 70.3698C139.175 71.728 137.889 72.7055 136.376 72.7055Z" fill="#FF8086"/>
<path d="M122.614 70.1266C124.348 70.1266 125.768 68.8404 126.006 67.173C125.222 66.8622 124.369 66.686 123.475 66.686H120.183C119.608 66.686 119.171 67.2467 119.355 67.7909C119.815 69.1491 121.101 70.1266 122.614 70.1266Z" fill="#FF8086"/>
<path d="M144.894 95.3951C145.015 95.0198 144.846 94.612 144.495 94.432C142.37 93.3413 139.882 93.2412 137.668 94.1571C135.591 95.0161 133.975 96.6786 133.177 98.7573C132.031 99.2663 131.05 100.051 130.3 101.013V80.416C131.094 80.7109 131.959 80.8623 132.841 80.8622C133.564 80.8622 134.299 80.7608 135.016 80.5541C137.116 79.9488 138.863 78.4987 139.689 76.6752C139.852 76.3151 139.73 75.8898 139.4 75.6718C138.593 75.138 137.658 74.7891 136.657 74.6424C136.803 74.2642 136.923 73.871 137.01 73.4637C139.051 73.1567 140.621 71.3914 140.621 69.2659C140.621 68.8215 140.261 68.4612 139.816 68.4612H137.181V63.1709C137.904 62.8542 138.307 62.6172 138.349 62.5923C138.73 62.3644 138.855 61.8704 138.627 61.4887C138.399 61.1071 137.905 60.9825 137.523 61.2104C137.513 61.2168 137.013 61.51 136.095 61.8799C135.518 60.1837 133.904 59 132.075 59C131.106 59 130.212 59.3273 129.496 59.8761C128.759 59.3085 127.861 59 126.914 59C125.075 59 123.481 60.1805 122.902 61.8583C122.021 61.5008 121.537 61.2199 121.52 61.2098C121.139 60.9828 120.645 61.1076 120.418 61.4888C120.19 61.8704 120.314 62.3645 120.696 62.5923C120.736 62.6165 121.12 62.8422 121.809 63.1466V65.881H119.173C118.729 65.881 118.369 66.2413 118.369 66.6857C118.369 68.7513 119.852 70.4763 121.809 70.8534V71.8464C121.809 72.8304 121.997 73.7708 122.335 74.6363C121.314 74.7801 120.346 75.1341 119.533 75.6718C119.203 75.8898 119.081 76.3151 119.244 76.6752C120.07 78.4987 121.817 79.9488 123.917 80.5541C124.635 80.7609 125.369 80.8623 126.092 80.8622C126.995 80.8622 127.88 80.703 128.69 80.394V96.7637C127.869 95.7113 126.772 94.8704 125.485 94.3713C125.271 94.2881 125.031 94.3005 124.827 94.4056C123.122 95.2802 121.126 95.3602 119.349 94.6251C117.796 93.9825 116.564 92.7808 115.885 91.2707C117.432 90.6812 119.153 90.7011 120.707 91.3436C121.539 91.688 122.277 92.1868 122.898 92.8257C123.208 93.1444 123.717 93.1515 124.036 92.8415C124.355 92.5316 124.362 92.0222 124.052 91.7036C123.277 90.9066 122.358 90.2851 121.322 89.8563C119.108 88.9404 116.619 89.0406 114.494 90.1312C114.143 90.3113 113.975 90.719 114.096 91.0943C114.63 92.7496 115.673 94.1674 117.055 95.1706C116.188 96.0095 115.527 97.0595 115.155 98.2118C115.034 98.587 115.202 98.9948 115.553 99.1749C116.607 99.7158 117.759 99.988 118.916 99.988C119.874 99.988 120.836 99.8008 121.746 99.4243C123.332 98.7685 124.621 97.5992 125.425 96.105C127.399 97.1034 128.69 99.1653 128.69 101.403V113.132C128.69 113.577 129.05 113.937 129.495 113.937C129.939 113.937 130.299 113.577 130.299 113.132V105.652C130.299 103.5 131.493 101.512 133.339 100.475C134.149 101.728 135.333 102.72 136.724 103.295C137.634 103.672 138.595 103.859 139.554 103.859C140.71 103.859 141.863 103.586 142.917 103.045C143.267 102.865 143.436 102.458 143.315 102.082C143.01 101.137 142.516 100.265 141.87 99.5187C143.284 98.5132 144.351 97.0763 144.894 95.3951ZM121.131 97.9371C119.786 98.4937 118.298 98.5217 116.953 98.0328C117.318 97.2551 117.857 96.5619 118.521 96.0174C118.592 96.0492 118.662 96.0827 118.734 96.1125C120.118 96.6849 121.609 96.8579 123.051 96.6428C122.511 97.1929 121.862 97.635 121.131 97.9371ZM137.867 76.6564C137.147 77.7509 135.96 78.6069 134.57 79.0076C133.658 79.2704 132.716 79.3199 131.839 79.17C133.482 78.6483 134.891 77.5899 135.849 76.1808C136.571 76.215 137.255 76.3758 137.867 76.6564ZM138.885 70.0708C138.544 71.1317 137.548 71.9018 136.376 71.9018C135.296 71.9018 134.344 71.2431 133.943 70.2783C134.45 70.1429 134.978 70.0708 135.516 70.0708H138.885ZM135.571 63.7879V68.4613H135.516C135.143 68.4613 134.775 68.4907 134.413 68.543C134.296 67.3953 133.789 66.3043 132.947 65.419C132.684 65.1421 132.389 64.889 132.068 64.6586C133.444 64.4255 134.621 64.1063 135.571 63.7879ZM132.075 60.6095C133.218 60.6095 134.223 61.3538 134.576 62.4164C133.586 62.7206 132.368 63.0134 130.95 63.2C130.466 63.2637 129.887 63.3881 129.44 63.5075C129.44 63.3924 129.439 63.2783 129.439 63.2453C129.439 61.7919 130.622 60.6095 132.075 60.6095ZM126.914 60.6095C127.462 60.6095 127.984 60.7761 128.423 61.0842C128.06 61.6956 127.846 62.4054 127.832 63.1632C126.506 62.9731 125.358 62.6904 124.419 62.3984C124.774 61.3494 125.766 60.6095 126.914 60.6095ZM123.418 63.7698C124.579 64.1621 126.084 64.5588 127.884 64.7958C131.464 65.2668 132.774 67.2828 132.828 68.9473C131.963 69.2699 131.159 69.746 130.456 70.3613C129.239 67.7199 126.568 65.881 123.474 65.881H123.418V63.7698H123.418ZM120.104 67.4905H123.474C124.018 67.4905 124.545 67.5633 125.047 67.698C124.644 68.6619 123.69 69.3214 122.614 69.3214C121.441 69.3215 120.445 68.5514 120.104 67.4905ZM124.363 79.0077C122.973 78.6071 121.787 77.7517 121.067 76.6577C121.698 76.3702 122.412 76.205 123.149 76.1771C124.103 77.5705 125.503 78.6344 127.142 79.1627C126.252 79.3228 125.292 79.2755 124.363 79.0077ZM127.914 77.713C125.328 77.0154 123.418 74.6503 123.418 71.8465V70.8527C124.809 70.5822 125.985 69.625 126.532 68.3194C128.335 69.3744 129.55 71.3308 129.55 73.5668C129.55 75.1277 128.971 76.585 127.914 77.713ZM129.808 77.9141C130.678 76.6432 131.16 75.1243 131.16 73.5667C131.16 73.0545 131.108 72.5542 131.012 72.0698C131.436 71.6019 131.923 71.2089 132.456 70.898C132.975 72.1446 134.065 73.0722 135.374 73.3905C134.709 75.9465 132.468 77.7798 129.808 77.9141ZM137.339 101.808C136.811 101.589 136.322 101.295 135.885 100.937C136.299 101.002 136.716 101.035 137.135 101.035C138.192 101.035 139.252 100.828 140.255 100.413C140.316 100.388 140.374 100.36 140.433 100.334C140.879 100.793 141.247 101.324 141.518 101.903C140.172 102.392 138.684 102.364 137.339 101.808ZM139.64 98.9259C138.087 99.5685 136.366 99.5881 134.819 98.9987C135.498 97.4887 136.73 96.2869 138.283 95.6444C139.836 95.0017 141.557 94.9821 143.104 95.5715C142.426 97.0814 141.194 98.2833 139.64 98.9259Z" fill="black"/>
</svg>