<svg width="198" height="175" viewBox="0 0 198 175" fill="none" xmlns="http://www.w3.org/2000/svg">
<path opacity="0.3" d="M0.406153 90.8073C-4.66616 40.5452 39.0249 19.5258 61.5045 15.2989C134.707 -1.41668 149.117 34.8965 165.833 42.9661C182.548 51.0357 183.701 79.8557 187.736 83.8905C191.771 87.9253 195.806 102.912 196.958 116.169C198.111 129.426 177.361 147.294 171.02 149.6C164.68 151.906 150.846 154.788 139.895 162.281C128.943 169.774 107.616 172.656 100.123 174.385C92.6301 176.114 83.9841 165.163 72.4561 162.281C60.9281 159.399 6.74655 153.635 0.406153 90.8073Z" fill="#FB96BA"/>
<path opacity="0.3" d="M177.531 102.029C179.26 88.772 169.461 67.4453 168.885 61.1049C161.968 20.5315 126.423 3.84761 109.516 0.57732C65.7093 -4.4206 49.9264 24.4582 44.3825 32.2849C34.5837 46.1185 21.3264 36.896 18.4444 88.772C15.5624 140.648 76.4474 158.516 114.703 158.516C152.169 158.516 175.802 115.286 177.531 102.029Z" fill="#DC503E"/>
<g clip-path="url(#clip0)">
<path d="M113.206 116.641H71.9257C70.8179 116.641 69.9199 115.697 69.9199 114.533V58.5849C69.9199 57.4208 70.8179 56.4771 71.9257 56.4771H113.206C114.314 56.4771 115.212 57.4208 115.212 58.5849V114.533C115.212 115.697 114.314 116.641 113.206 116.641Z" fill="#FFF5F5"/>
<path d="M115.212 58.5844V114.534C115.212 115.698 114.313 116.641 113.206 116.641H110.234C111.342 116.641 112.241 115.698 112.241 114.534V58.5844C112.241 57.4208 111.342 56.4771 110.234 56.4771H113.206C114.313 56.4771 115.212 57.4208 115.212 58.5844Z" fill="#EFE2DD"/>
<path d="M109.36 67.1479C109.36 69.89 107.245 72.1127 104.636 72.1127C102.026 72.1127 99.9111 69.89 99.9111 67.1479C99.9111 64.4063 102.026 62.1835 104.636 62.1835C107.245 62.1835 109.36 64.4063 109.36 67.1479Z" fill="#EA4444"/>
<path d="M109.36 67.148C109.36 69.8896 107.245 72.1128 104.636 72.1128C103.26 72.1128 102.022 71.4955 101.158 70.5093C101.637 70.681 102.151 70.7737 102.685 70.7737C105.294 70.7737 107.41 68.5505 107.41 65.8089C107.41 64.5123 106.937 63.3312 106.163 62.4476C108.023 63.116 109.36 64.9678 109.36 67.148Z" fill="#D93131"/>
<path d="M107.096 82.19H78.0371C76.7862 82.19 75.7725 81.1247 75.7725 79.8102C75.7725 78.4962 76.7862 77.4309 78.0371 77.4309H107.096C108.347 77.4309 109.361 78.4962 109.361 79.8102C109.361 81.1243 108.347 82.19 107.096 82.19Z" fill="#87C080"/>
<path d="M107.096 90.5167H78.0371C76.7862 90.5167 75.7725 89.4515 75.7725 88.1369C75.7725 86.8229 76.7862 85.7576 78.0371 85.7576H107.096C108.347 85.7576 109.361 86.8229 109.361 88.1369C109.361 89.4515 108.347 90.5167 107.096 90.5167Z" fill="#87C080"/>
<path d="M107.096 98.8431H78.0371C76.7862 98.8431 75.7725 97.7779 75.7725 96.4638C75.7725 95.1493 76.7862 94.084 78.0371 94.084H107.096C108.347 94.084 109.361 95.1493 109.361 96.4638C109.361 97.7779 108.347 98.8431 107.096 98.8431Z" fill="#87C080"/>
<path d="M98.4214 107.17H78.0371C76.7862 107.17 75.7725 106.104 75.7725 104.79C75.7725 103.476 76.7862 102.411 78.0371 102.411H98.4214C99.6719 102.411 100.686 103.476 100.686 104.79C100.686 106.104 99.6719 107.17 98.4214 107.17Z" fill="#87C080"/>
<path d="M109.36 79.8107C109.36 80.4668 109.106 81.0623 108.697 81.4933C108.287 81.9228 107.721 82.1896 107.096 82.1896H104.538C105.164 82.1896 105.73 81.9228 106.14 81.4933C106.549 81.0623 106.803 80.4668 106.803 79.8107C106.803 78.4957 105.789 77.4305 104.538 77.4305H107.096C108.346 77.4305 109.36 78.4957 109.36 79.8107Z" fill="#70B568"/>
<path d="M109.36 88.1369C109.36 88.7944 109.106 89.3895 108.697 89.8195C108.287 90.2504 107.721 90.5167 107.096 90.5167H104.538C105.164 90.5167 105.73 90.2504 106.14 89.8195C106.549 89.3895 106.803 88.794 106.803 88.1369C106.803 86.8234 105.789 85.7581 104.538 85.7581H107.096C108.346 85.7581 109.36 86.8234 109.36 88.1369Z" fill="#70B568"/>
<path d="M109.36 96.4638C109.36 97.1213 109.106 97.7154 108.697 98.1464C108.287 98.5763 107.721 98.8431 107.096 98.8431H104.538C105.164 98.8431 105.73 98.5763 106.14 98.1464C106.549 97.7154 106.803 97.1213 106.803 96.4638C106.803 95.1493 105.789 94.084 104.538 94.084H107.096C108.346 94.084 109.36 95.1493 109.36 96.4638Z" fill="#70B568"/>
<path d="M100.686 104.79C100.686 105.448 100.432 106.043 100.023 106.474C99.6134 106.904 99.0467 107.17 98.421 107.17H95.8643C96.4899 107.17 97.0553 106.904 97.4654 106.474C97.8741 106.043 98.128 105.448 98.128 104.79C98.128 103.477 97.1143 102.411 95.8643 102.411H98.421C99.6724 102.411 100.686 103.477 100.686 104.79Z" fill="#70B568"/>
<path d="M125.353 111.179H108.411C107.395 111.179 106.571 110.314 106.571 109.246V106.933C106.571 105.865 107.395 105 108.411 105H125.353C126.369 105 127.193 105.865 127.193 106.933V109.246C127.193 110.314 126.369 111.179 125.353 111.179Z" fill="#B88A65"/>
<path d="M127.193 106.933V109.246C127.193 110.314 126.369 111.179 125.353 111.179H122.658C123.674 111.179 124.498 110.314 124.498 109.246V106.933C124.498 105.865 123.674 105 122.658 105H125.353C126.369 105 127.193 105.865 127.193 106.933Z" fill="#A87A52"/>
<path d="M116.882 111.179H109.147L109.824 114.333C110.111 115.676 111.246 116.629 112.556 116.629H121.207C122.517 116.629 123.652 115.676 123.94 114.333L124.616 111.179H116.882Z" fill="#FFB541"/>
<path d="M124.617 111.18L123.94 114.333C123.653 115.676 122.518 116.63 121.207 116.63H118.513C119.823 116.63 120.958 115.676 121.245 114.333L121.922 111.18H124.617Z" fill="#FFA812"/>
<path d="M121.225 105H112.539V101.062C112.539 100.517 112.96 100.074 113.48 100.074H120.285C120.804 100.074 121.225 100.517 121.225 101.062V105Z" fill="#7C8388"/>
<path d="M121.225 101.062V105H118.531V101.062C118.531 100.516 118.109 100.074 117.59 100.074H120.284C120.804 100.074 121.225 100.516 121.225 101.062Z" fill="#6A7075"/>
<path d="M113.328 88.8324C112.392 89.9947 112.024 91.549 112.333 93.0367L113.794 100.074H119.97L121.431 93.0367C121.74 91.549 121.372 89.9947 120.436 88.8324C118.576 86.5236 115.188 86.5236 113.328 88.8324Z" fill="#90FF69"/>
<path d="M121.432 93.037L119.971 100.074H117.837L119.298 93.037C119.606 91.548 119.239 89.9946 118.303 88.8319C117.626 87.9932 116.748 87.4587 115.815 87.2302C116.167 87.1436 116.524 87.1011 116.882 87.1011C118.194 87.1011 119.507 87.6782 120.437 88.8323C121.373 89.9946 121.74 91.548 121.432 93.037Z" fill="#A87A52"/>
<path d="M110.224 67.1482C110.224 63.9104 107.717 61.2761 104.636 61.2761C101.555 61.2761 99.0479 63.9104 99.0479 67.1482C99.0479 70.3865 101.555 73.0208 104.636 73.0208C107.717 73.0208 110.224 70.3865 110.224 67.1482ZM100.775 67.1482C100.775 64.9113 102.508 63.0916 104.636 63.0916C106.765 63.0916 108.497 64.9113 108.497 67.1482C108.497 69.3856 106.765 71.2053 104.636 71.2053C102.508 71.2053 100.775 69.3851 100.775 67.1482Z" fill="black"/>
<path d="M95.1172 64.0353C95.5943 64.0353 95.981 63.629 95.981 63.1276C95.981 62.6262 95.5943 62.2198 95.1172 62.2198H92.8462C92.3691 62.2198 91.9824 62.6262 91.9824 63.1276C91.9824 63.629 92.3691 64.0353 92.8462 64.0353H95.1172Z" fill="black"/>
<path d="M75.772 64.0353H87.2504C87.7276 64.0353 88.1142 63.629 88.1142 63.1276C88.1142 62.6262 87.7276 62.2198 87.2504 62.2198H75.772C75.2949 62.2198 74.9082 62.6262 74.9082 63.1276C74.9082 63.629 75.2949 64.0353 75.772 64.0353Z" fill="black"/>
<path d="M75.772 72.0764H78.7321C79.2092 72.0764 79.5959 71.6701 79.5959 71.1687C79.5959 70.6673 79.2092 70.2609 78.7321 70.2609H75.772C75.2949 70.2609 74.9082 70.6673 74.9082 71.1687C74.9082 71.6701 75.2949 72.0764 75.772 72.0764Z" fill="black"/>
<path d="M84.3287 70.2609C83.8515 70.2609 83.4648 70.6673 83.4648 71.1687C83.4648 71.6701 83.8515 72.0764 84.3287 72.0764H86.1999C86.677 72.0764 87.0637 71.6701 87.0637 71.1687C87.0637 70.6673 86.677 70.2609 86.1999 70.2609H84.3287Z" fill="black"/>
<path d="M75.772 68.0556H95.1174C95.5946 68.0556 95.9812 67.6493 95.9812 67.1479C95.9812 66.6465 95.5946 66.2402 95.1174 66.2402H75.772C75.2949 66.2402 74.9082 66.6465 74.9082 67.1479C74.9082 67.6493 75.2949 68.0556 75.772 68.0556Z" fill="black"/>
<path d="M78.0366 83.0981H107.096C108.821 83.0981 110.224 81.6232 110.224 79.8106C110.224 77.998 108.821 76.5236 107.096 76.5236H78.0366C76.3117 76.5236 74.9082 77.998 74.9082 79.8106C74.9082 81.6232 76.3117 83.0981 78.0366 83.0981ZM78.0366 78.339H107.096C107.868 78.339 108.496 78.9989 108.496 79.8106C108.496 80.6223 107.868 81.2826 107.096 81.2826H78.0366C77.2642 81.2826 76.6358 80.6223 76.6358 79.8106C76.6358 78.9989 77.2642 78.339 78.0366 78.339Z" fill="black"/>
<path d="M78.0366 91.4245H107.096C108.821 91.4245 110.224 89.9496 110.224 88.1369C110.224 86.3243 108.821 84.8499 107.096 84.8499H78.0366C76.3117 84.8499 74.9082 86.3243 74.9082 88.1369C74.9082 89.9496 76.3117 91.4245 78.0366 91.4245ZM78.0366 86.6654H107.096C107.868 86.6654 108.496 87.3257 108.496 88.1369C108.496 88.9487 107.868 89.609 107.096 89.609H78.0366C77.2642 89.609 76.6358 88.9487 76.6358 88.1369C76.6358 87.3257 77.2642 86.6654 78.0366 86.6654Z" fill="black"/>
<path d="M78.0366 99.7511H107.096C108.821 99.7511 110.224 98.2767 110.224 96.4641C110.224 94.6515 108.821 93.1766 107.096 93.1766H78.0366C76.3117 93.1766 74.9082 94.6515 74.9082 96.4641C74.9082 98.2767 76.3117 99.7511 78.0366 99.7511ZM78.0366 94.992H107.096C107.868 94.992 108.496 95.6524 108.496 96.4641C108.496 97.2753 107.868 97.9357 107.096 97.9357H78.0366C77.2642 97.9357 76.6358 97.2753 76.6358 96.4641C76.6358 95.6524 77.2642 94.992 78.0366 94.992Z" fill="black"/>
<path d="M78.0366 108.078H98.421C100.146 108.078 101.549 106.603 101.549 104.791C101.549 102.978 100.146 101.503 98.421 101.503H78.0366C76.3117 101.503 74.9082 102.978 74.9082 104.791C74.9082 106.603 76.3117 108.078 78.0366 108.078ZM78.0366 103.319H98.421C99.1934 103.319 99.8213 103.979 99.8213 104.791C99.8213 105.602 99.1934 106.262 98.421 106.262H78.0366C77.2642 106.262 76.6358 105.602 76.6358 104.791C76.6358 103.979 77.2642 103.319 78.0366 103.319Z" fill="black"/>
<path d="M125.353 104.092H122.089V101.062C122.089 100.288 121.644 99.6214 121.01 99.3272L122.276 93.23C122.639 91.4779 122.198 89.6147 121.095 88.2457C120.044 86.9411 118.509 86.1928 116.882 86.1928C116.61 86.1928 116.341 86.2155 116.076 86.2562V58.5849C116.076 56.9222 114.788 55.5693 113.206 55.5693H71.9262C70.344 55.5693 69.0566 56.9222 69.0566 58.5849V68.3234C69.0566 68.8248 69.4433 69.2312 69.9204 69.2312C70.3976 69.2312 70.7843 68.8248 70.7843 68.3234V58.5849C70.7843 57.9231 71.2965 57.3848 71.9262 57.3848H113.206C113.836 57.3848 114.348 57.9231 114.348 58.5849V86.8404C113.979 87.0407 113.631 87.2846 113.312 87.5693C113.082 87.7741 112.866 87.9999 112.668 88.2457C112.016 89.0565 111.587 90.0394 111.43 91.0881C111.355 91.5834 111.677 92.0484 112.148 92.1264C112.62 92.2049 113.061 91.8667 113.136 91.3715C113.244 90.651 113.538 89.9756 113.987 89.4188C114.709 88.5224 115.764 88.0083 116.882 88.0083C118 88.0083 119.055 88.5224 119.777 89.4188C120.534 90.3592 120.837 91.6392 120.588 92.843L119.275 99.1659H114.489L113.683 95.2815C113.581 94.7919 113.122 94.4816 112.655 94.588C112.189 94.6949 111.893 95.1788 111.995 95.6684L112.754 99.3272C112.12 99.6214 111.675 100.288 111.675 101.062V104.092H108.411C106.92 104.092 105.707 105.366 105.707 106.933V109.246C105.707 110.813 106.92 112.087 108.411 112.087H108.457L108.981 114.533C109.075 114.969 109.235 115.372 109.449 115.733H71.9262C71.2965 115.733 70.7843 115.195 70.7843 114.533V72.4889C70.7843 71.9875 70.3976 71.5811 69.9204 71.5811C69.4433 71.5811 69.0566 71.9875 69.0566 72.4889V114.533C69.0566 116.196 70.344 117.549 71.9262 117.549L121.207 117.537C122.933 117.537 124.404 116.302 124.783 114.533L125.307 112.087H125.353C126.844 112.087 128.057 110.813 128.057 109.246V106.933C128.057 105.366 126.844 104.092 125.353 104.092ZM113.403 101.062C113.403 101.018 113.437 100.981 113.479 100.981H120.285C120.327 100.981 120.361 101.018 120.361 101.062V104.092H113.403V101.062ZM123.098 114.133C122.897 115.069 122.12 115.722 121.207 115.722H112.557C111.644 115.722 110.867 115.069 110.667 114.133L110.228 112.087H123.536L123.098 114.133ZM126.329 109.246C126.329 109.811 125.891 110.272 125.353 110.272H108.411C107.873 110.272 107.435 109.811 107.435 109.246V106.933C107.435 106.367 107.873 105.907 108.411 105.907H125.353C125.891 105.907 126.329 106.367 126.329 106.933V109.246Z" fill="black"/>
<path d="M119.557 87.0693L122.057 83.0693M116.557 86.0693V81.5693M113.557 87.0693L111.057 83.0693" stroke="black" stroke-width="2" stroke-linecap="round"/>
</g>
<defs>
<clipPath id="clip0">
<rect x="69.0566" y="55.5693" width="59" height="62" fill="white"/>
</clipPath>
</defs>
</svg>