<svg width="219" height="224" viewBox="0 0 219 224" fill="none" xmlns="http://www.w3.org/2000/svg">
<path opacity="0.3" d="M10.4062 90.8068C5.33384 40.5448 49.0249 19.5254 71.5045 15.2985C144.707 -1.41711 159.117 34.8961 175.833 42.9657C192.548 51.0353 193.701 79.8552 197.736 83.89C201.771 87.9248 205.806 102.911 206.958 116.168C208.111 129.426 187.361 147.294 181.02 149.6C174.68 151.905 160.846 154.787 149.895 162.28C138.943 169.774 117.616 172.656 110.123 174.385C102.63 176.114 93.9841 165.162 82.4561 162.28C70.9281 159.398 16.7465 153.634 10.4062 90.8068Z" fill="#FB96BA"/>
<path opacity="0.3" d="M187.531 102.029C189.26 88.772 179.461 67.4453 178.885 61.1049C171.968 20.5315 136.423 3.84761 119.516 0.57732C75.7093 -4.4206 59.9264 24.4582 54.3825 32.2849C44.5837 46.1185 31.3264 36.896 28.4444 88.772C25.5624 140.648 86.4474 158.516 124.703 158.516C162.169 158.516 185.802 115.286 187.531 102.029Z" fill="#DC503E"/>
<path d="M12.474 204.514H4.554L4.576 218H2.398V202.6H12.496L12.474 204.514ZM18.9228 206.23C20.5361 206.23 21.7681 206.626 22.6188 207.418C23.4841 208.21 23.9168 209.391 23.9168 210.96V218H21.9148V216.46C21.5628 217.003 21.0568 217.421 20.3968 217.714C19.7514 217.993 18.9814 218.132 18.0868 218.132C16.7814 218.132 15.7328 217.817 14.9408 217.186C14.1634 216.555 13.7748 215.727 13.7748 214.7C13.7748 213.673 14.1488 212.852 14.8968 212.236C15.6448 211.605 16.8328 211.29 18.4608 211.29H21.8048V210.872C21.8048 209.963 21.5408 209.266 21.0128 208.782C20.4848 208.298 19.7074 208.056 18.6808 208.056C17.9914 208.056 17.3168 208.173 16.6568 208.408C15.9968 208.628 15.4394 208.929 14.9848 209.31L14.1048 207.726C14.7061 207.242 15.4248 206.875 16.2608 206.626C17.0968 206.362 17.9841 206.23 18.9228 206.23ZM18.4388 216.504C19.2454 216.504 19.9421 216.328 20.5288 215.976C21.1154 215.609 21.5408 215.096 21.8048 214.436V212.808H18.5488C16.7594 212.808 15.8648 213.409 15.8648 214.612C15.8648 215.199 16.0921 215.661 16.5468 215.998C17.0014 216.335 17.6321 216.504 18.4388 216.504ZM33.9018 206.23C35.0312 206.23 36.0432 206.479 36.9378 206.978C37.8325 207.477 38.5292 208.173 39.0278 209.068C39.5412 209.963 39.7978 210.997 39.7978 212.17C39.7978 213.343 39.5412 214.385 39.0278 215.294C38.5292 216.189 37.8325 216.885 36.9378 217.384C36.0432 217.883 35.0312 218.132 33.9018 218.132C33.0658 218.132 32.2958 217.971 31.5918 217.648C30.9025 217.325 30.3158 216.856 29.8318 216.24V222.268H27.7198V206.34H29.7438V208.188C30.2132 207.543 30.8072 207.059 31.5258 206.736C32.2445 206.399 33.0365 206.23 33.9018 206.23ZM33.7258 216.284C34.4738 216.284 35.1412 216.115 35.7278 215.778C36.3292 215.426 36.7985 214.942 37.1358 214.326C37.4878 213.695 37.6638 212.977 37.6638 212.17C37.6638 211.363 37.4878 210.652 37.1358 210.036C36.7985 209.405 36.3292 208.921 35.7278 208.584C35.1412 208.247 34.4738 208.078 33.7258 208.078C32.9925 208.078 32.3252 208.254 31.7238 208.606C31.1372 208.943 30.6678 209.42 30.3158 210.036C29.9785 210.652 29.8098 211.363 29.8098 212.17C29.8098 212.977 29.9785 213.695 30.3158 214.326C30.6532 214.942 31.1225 215.426 31.7238 215.778C32.3252 216.115 32.9925 216.284 33.7258 216.284ZM46.9169 206.23C48.5302 206.23 49.7622 206.626 50.6129 207.418C51.4782 208.21 51.9109 209.391 51.9109 210.96V218H49.9089V216.46C49.5569 217.003 49.0509 217.421 48.3909 217.714C47.7456 217.993 46.9756 218.132 46.0809 218.132C44.7756 218.132 43.7269 217.817 42.9349 217.186C42.1576 216.555 41.7689 215.727 41.7689 214.7C41.7689 213.673 42.1429 212.852 42.8909 212.236C43.6389 211.605 44.8269 211.29 46.4549 211.29H49.7989V210.872C49.7989 209.963 49.5349 209.266 49.0069 208.782C48.4789 208.298 47.7016 208.056 46.6749 208.056C45.9856 208.056 45.3109 208.173 44.6509 208.408C43.9909 208.628 43.4336 208.929 42.9789 209.31L42.0989 207.726C42.7002 207.242 43.4189 206.875 44.2549 206.626C45.0909 206.362 45.9782 206.23 46.9169 206.23ZM46.4329 216.504C47.2396 216.504 47.9362 216.328 48.5229 215.976C49.1096 215.609 49.5349 215.096 49.7989 214.436V212.808H46.5429C44.7536 212.808 43.8589 213.409 43.8589 214.612C43.8589 215.199 44.0862 215.661 44.5409 215.998C44.9956 216.335 45.6262 216.504 46.4329 216.504ZM55.714 206.34H57.826V211.29H64.47V206.34H66.582V218H64.47V213.116H57.826V218H55.714V206.34ZM79.3786 208.188H75.1106V218H72.9986V208.188H68.7306V206.34H79.3786V208.188ZM81.5382 206.34H83.6502V214.832L90.8002 206.34H92.7142V218H90.6022V209.508L83.4742 218H81.5382V206.34ZM106.164 206.34V218H104.272V214.304H100.884H100.642L98.0896 218H95.8236L98.6616 214.018C97.7816 213.754 97.1069 213.321 96.6376 212.72C96.1682 212.104 95.9336 211.341 95.9336 210.432C95.9336 209.097 96.3882 208.085 97.2976 207.396C98.2069 206.692 99.4609 206.34 101.06 206.34H106.164ZM98.0896 210.498C98.0896 211.275 98.3316 211.855 98.8156 212.236C99.3142 212.603 100.055 212.786 101.038 212.786H104.272V208.188H101.126C99.1016 208.188 98.0896 208.958 98.0896 210.498ZM116.192 206.34H118.304V211.29H124.948V206.34H127.06V218H124.948V213.116H118.304V218H116.192V206.34ZM135.325 206.23C136.938 206.23 138.17 206.626 139.021 207.418C139.886 208.21 140.319 209.391 140.319 210.96V218H138.317V216.46C137.965 217.003 137.459 217.421 136.799 217.714C136.154 217.993 135.384 218.132 134.489 218.132C133.184 218.132 132.135 217.817 131.343 217.186C130.566 216.555 130.177 215.727 130.177 214.7C130.177 213.673 130.551 212.852 131.299 212.236C132.047 211.605 133.235 211.29 134.863 211.29H138.207V210.872C138.207 209.963 137.943 209.266 137.415 208.782C136.887 208.298 136.11 208.056 135.083 208.056C134.394 208.056 133.719 208.173 133.059 208.408C132.399 208.628 131.842 208.929 131.387 209.31L130.507 207.726C131.108 207.242 131.827 206.875 132.663 206.626C133.499 206.362 134.386 206.23 135.325 206.23ZM134.841 216.504C135.648 216.504 136.344 216.328 136.931 215.976C137.518 215.609 137.943 215.096 138.207 214.436V212.808H134.951C133.162 212.808 132.267 213.409 132.267 214.612C132.267 215.199 132.494 215.661 132.949 215.998C133.404 216.335 134.034 216.504 134.841 216.504ZM162.482 216.152V220.794H160.48V218H150.03V206.34H152.142V216.152H158.522V206.34H160.634V216.152H162.482ZM173.162 211.95C174.672 212.331 175.428 213.277 175.428 214.788C175.428 215.815 175.039 216.607 174.262 217.164C173.499 217.721 172.355 218 170.83 218H165.22V206.34H170.632C172.01 206.34 173.088 206.604 173.866 207.132C174.643 207.645 175.032 208.379 175.032 209.332C175.032 209.948 174.863 210.483 174.526 210.938C174.203 211.378 173.748 211.715 173.162 211.95ZM167.288 211.356H170.456C171.262 211.356 171.871 211.209 172.282 210.916C172.707 210.623 172.92 210.197 172.92 209.64C172.92 208.525 172.098 207.968 170.456 207.968H167.288V211.356ZM170.676 216.372C171.556 216.372 172.216 216.233 172.656 215.954C173.096 215.675 173.316 215.243 173.316 214.656C173.316 214.055 173.11 213.607 172.7 213.314C172.304 213.021 171.673 212.874 170.808 212.874H167.288V216.372H170.676ZM189.272 212.236C189.272 212.397 189.257 212.61 189.228 212.874H179.768C179.9 213.901 180.347 214.729 181.11 215.36C181.887 215.976 182.848 216.284 183.992 216.284C185.385 216.284 186.507 215.815 187.358 214.876L188.524 216.24C187.996 216.856 187.336 217.325 186.544 217.648C185.766 217.971 184.894 218.132 183.926 218.132C182.694 218.132 181.601 217.883 180.648 217.384C179.694 216.871 178.954 216.159 178.426 215.25C177.912 214.341 177.656 213.314 177.656 212.17C177.656 211.041 177.905 210.021 178.404 209.112C178.917 208.203 179.614 207.499 180.494 207C181.388 206.487 182.393 206.23 183.508 206.23C184.622 206.23 185.612 206.487 186.478 207C187.358 207.499 188.04 208.203 188.524 209.112C189.022 210.021 189.272 211.063 189.272 212.236ZM183.508 208.012C182.496 208.012 181.645 208.32 180.956 208.936C180.281 209.552 179.885 210.359 179.768 211.356H187.248C187.13 210.373 186.727 209.574 186.038 208.958C185.363 208.327 184.52 208.012 183.508 208.012ZM200.744 208.188H196.476V218H194.364V208.188H190.096V206.34H200.744V208.188ZM208.161 210.3C209.628 210.315 210.75 210.652 211.527 211.312C212.305 211.972 212.693 212.903 212.693 214.106C212.693 215.367 212.268 216.343 211.417 217.032C210.581 217.707 209.379 218.037 207.809 218.022L202.903 218V206.34H205.015V210.278L208.161 210.3ZM214.431 206.34H216.543V218H214.431V206.34ZM207.655 216.416C208.609 216.431 209.327 216.24 209.811 215.844C210.31 215.448 210.559 214.861 210.559 214.084C210.559 213.321 210.317 212.764 209.833 212.412C209.349 212.06 208.623 211.877 207.655 211.862L205.015 211.818V216.394L207.655 216.416Z" fill="#121217"/>
<g clip-path="url(#clip0)">
<path d="M123.206 116.641H81.9262C80.8184 116.641 79.9204 115.698 79.9204 114.533V58.5853C79.9204 57.4212 80.8184 56.4775 81.9262 56.4775H123.206C124.314 56.4775 125.212 57.4212 125.212 58.5853V114.533C125.212 115.698 124.314 116.641 123.206 116.641Z" fill="#FFF5F5"/>
<path d="M125.212 58.5849V114.534C125.212 115.698 124.313 116.641 123.206 116.641H120.234C121.342 116.641 122.241 115.698 122.241 114.534V58.5849C122.241 57.4212 121.342 56.4775 120.234 56.4775H123.206C124.313 56.4775 125.212 57.4212 125.212 58.5849Z" fill="#EFE2DD"/>
<path d="M119.36 67.148C119.36 69.8901 117.245 72.1128 114.636 72.1128C112.027 72.1128 109.912 69.8901 109.912 67.148C109.912 64.4063 112.027 62.1836 114.636 62.1836C117.245 62.1836 119.36 64.4063 119.36 67.148Z" fill="#EA4444"/>
<path d="M119.36 67.1477C119.36 69.8893 117.246 72.1125 114.637 72.1125C113.26 72.1125 112.023 71.4952 111.158 70.509C111.637 70.6807 112.151 70.7734 112.685 70.7734C115.295 70.7734 117.41 68.5502 117.41 65.8086C117.41 64.512 116.937 63.3309 116.163 62.4473C118.023 63.1156 119.36 64.9675 119.36 67.1477Z" fill="#D93131"/>
<path d="M117.096 82.1897H88.0368C86.7859 82.1897 85.7722 81.1245 85.7722 79.81C85.7722 78.4959 86.7859 77.4307 88.0368 77.4307H117.096C118.347 77.4307 119.36 78.4959 119.36 79.81C119.36 81.124 118.347 82.1897 117.096 82.1897Z" fill="#87C080"/>
<path d="M117.096 90.5169H88.0368C86.7859 90.5169 85.7722 89.4516 85.7722 88.1371C85.7722 86.8231 86.7859 85.7578 88.0368 85.7578H117.096C118.347 85.7578 119.36 86.8231 119.36 88.1371C119.36 89.4516 118.347 90.5169 117.096 90.5169Z" fill="#87C080"/>
<path d="M117.096 98.8431H88.0368C86.7859 98.8431 85.7722 97.7778 85.7722 96.4638C85.7722 95.1492 86.7859 94.084 88.0368 94.084H117.096C118.347 94.084 119.36 95.1492 119.36 96.4638C119.36 97.7778 118.347 98.8431 117.096 98.8431Z" fill="#87C080"/>
<path d="M108.421 107.169H88.0368C86.7859 107.169 85.7722 106.104 85.7722 104.79C85.7722 103.475 86.7859 102.41 88.0368 102.41H108.421C109.672 102.41 110.686 103.475 110.686 104.79C110.686 106.104 109.672 107.169 108.421 107.169Z" fill="#87C080"/>
<path d="M119.36 79.8109C119.36 80.467 119.106 81.0625 118.697 81.4935C118.287 81.923 117.721 82.1897 117.096 82.1897H114.538C115.164 82.1897 115.73 81.923 116.14 81.4935C116.549 81.0625 116.803 80.467 116.803 79.8109C116.803 78.4959 115.789 77.4307 114.538 77.4307H117.096C118.346 77.4307 119.36 78.4959 119.36 79.8109Z" fill="#70B568"/>
<path d="M119.36 88.1366C119.36 88.7941 119.106 89.3892 118.697 89.8192C118.287 90.2501 117.721 90.5164 117.096 90.5164H114.538C115.164 90.5164 115.73 90.2501 116.14 89.8192C116.549 89.3892 116.803 88.7937 116.803 88.1366C116.803 86.8231 115.789 85.7578 114.538 85.7578H117.096C118.346 85.7578 119.36 86.8231 119.36 88.1366Z" fill="#70B568"/>
<path d="M119.36 96.4638C119.36 97.1213 119.106 97.7154 118.697 98.1463C118.287 98.5763 117.721 98.8431 117.096 98.8431H114.538C115.164 98.8431 115.73 98.5763 116.14 98.1463C116.549 97.7154 116.803 97.1213 116.803 96.4638C116.803 95.1492 115.789 94.084 114.538 94.084H117.096C118.346 94.084 119.36 95.1492 119.36 96.4638Z" fill="#70B568"/>
<path d="M110.686 104.79C110.686 105.447 110.432 106.043 110.023 106.474C109.613 106.904 109.046 107.17 108.421 107.17H105.864C106.49 107.17 107.055 106.904 107.465 106.474C107.874 106.043 108.128 105.447 108.128 104.79C108.128 103.476 107.114 102.411 105.864 102.411H108.421C109.672 102.411 110.686 103.476 110.686 104.79Z" fill="#70B568"/>
<path d="M135.353 111.18H118.411C117.395 111.18 116.571 110.314 116.571 109.246V106.933C116.571 105.866 117.395 105 118.411 105H135.353C136.369 105 137.193 105.866 137.193 106.933V109.246C137.193 110.314 136.369 111.18 135.353 111.18Z" fill="#B88A65"/>
<path d="M137.193 106.933V109.246C137.193 110.314 136.37 111.18 135.353 111.18H132.659C133.675 111.18 134.498 110.314 134.498 109.246V106.933C134.498 105.866 133.675 105 132.659 105H135.353C136.37 105 137.193 105.866 137.193 106.933Z" fill="#A87A52"/>
<path d="M126.882 111.179H119.148L119.824 114.332C120.112 115.675 121.247 116.629 122.557 116.629H131.207C132.517 116.629 133.653 115.675 133.94 114.332L134.616 111.179H126.882Z" fill="#FFB541"/>
<path d="M134.617 111.18L133.94 114.333C133.653 115.675 132.517 116.63 131.207 116.63H128.512C129.823 116.63 130.958 115.675 131.245 114.333L131.922 111.18H134.617Z" fill="#FFA812"/>
<path d="M131.225 105H122.539V101.063C122.539 100.517 122.96 100.074 123.48 100.074H130.285C130.804 100.074 131.225 100.517 131.225 101.063V105Z" fill="#7C8388"/>
<path d="M131.225 101.063V105H128.531V101.063C128.531 100.516 128.109 100.074 127.59 100.074H130.285C130.804 100.075 131.225 100.516 131.225 101.063Z" fill="#6A7075"/>
<path d="M123.328 88.8322C122.391 89.9944 122.024 91.5488 122.332 93.0364L123.794 100.074H129.97L131.431 93.0364C131.74 91.5488 131.372 89.9944 130.436 88.8322C128.576 86.5234 125.188 86.5234 123.328 88.8322Z" fill="#90FF69"/>
<path d="M131.432 93.0375L129.971 100.074H127.837L129.298 93.0375C129.606 91.5484 129.239 89.995 128.303 88.8324C127.626 87.9937 126.748 87.4592 125.815 87.2307C126.166 87.1441 126.524 87.1016 126.882 87.1016C128.194 87.1016 129.506 87.6786 130.437 88.8328C131.373 89.995 131.74 91.5484 131.432 93.0375Z" fill="#A87A52"/>
<path d="M120.224 67.1485C120.224 63.9106 117.717 61.2764 114.636 61.2764C111.554 61.2764 109.048 63.9106 109.048 67.1485C109.048 70.3868 111.554 73.021 114.636 73.021C117.717 73.021 120.224 70.3868 120.224 67.1485ZM110.775 67.1485C110.775 64.9115 112.507 63.0918 114.636 63.0918C116.765 63.0918 118.496 64.9115 118.496 67.1485C118.496 69.3859 116.765 71.2056 114.636 71.2056C112.507 71.2056 110.775 69.3854 110.775 67.1485Z" fill="black"/>
<path d="M105.118 64.0352C105.595 64.0352 105.981 63.6289 105.981 63.1275C105.981 62.6261 105.595 62.2197 105.118 62.2197H102.847C102.37 62.2197 101.983 62.6261 101.983 63.1275C101.983 63.6289 102.37 64.0352 102.847 64.0352H105.118Z" fill="black"/>
<path d="M85.7723 64.0352H97.2507C97.7278 64.0352 98.1145 63.6289 98.1145 63.1275C98.1145 62.6261 97.7278 62.2197 97.2507 62.2197H85.7723C85.2951 62.2197 84.9084 62.6261 84.9084 63.1275C84.9084 63.6289 85.2951 64.0352 85.7723 64.0352Z" fill="black"/>
<path d="M85.7723 72.0762H88.7323C89.2095 72.0762 89.5961 71.6699 89.5961 71.1685C89.5961 70.6671 89.2095 70.2607 88.7323 70.2607H85.7723C85.2951 70.2607 84.9084 70.6671 84.9084 71.1685C84.9084 71.6699 85.2951 72.0762 85.7723 72.0762Z" fill="black"/>
<path d="M94.3289 70.2607C93.8518 70.2607 93.4651 70.6671 93.4651 71.1685C93.4651 71.6699 93.8518 72.0762 94.3289 72.0762H96.2001C96.6772 72.0762 97.0639 71.6699 97.0639 71.1685C97.0639 70.6671 96.6772 70.2607 96.2001 70.2607H94.3289Z" fill="black"/>
<path d="M85.7723 68.0557H105.118C105.595 68.0557 105.981 67.6494 105.981 67.148C105.981 66.6466 105.595 66.2402 105.118 66.2402H85.7723C85.2951 66.2402 84.9084 66.6466 84.9084 67.148C84.9084 67.6494 85.2951 68.0557 85.7723 68.0557Z" fill="black"/>
<path d="M88.0369 83.098H117.096C118.821 83.098 120.224 81.6231 120.224 79.8105C120.224 77.9978 118.821 76.5234 117.096 76.5234H88.0369C86.312 76.5234 84.9084 77.9978 84.9084 79.8105C84.9084 81.6231 86.312 83.098 88.0369 83.098ZM88.0369 78.3389H117.096C117.868 78.3389 118.497 78.9988 118.497 79.8105C118.497 80.6222 117.868 81.2825 117.096 81.2825H88.0369C87.2645 81.2825 86.6361 80.6222 86.6361 79.8105C86.6361 78.9988 87.2645 78.3389 88.0369 78.3389Z" fill="black"/>
<path d="M88.0369 91.4241H117.096C118.821 91.4241 120.224 89.9493 120.224 88.1366C120.224 86.324 118.821 84.8496 117.096 84.8496H88.0369C86.312 84.8496 84.9084 86.324 84.9084 88.1366C84.9084 89.9493 86.312 91.4241 88.0369 91.4241ZM88.0369 86.6651H117.096C117.868 86.6651 118.497 87.3254 118.497 88.1366C118.497 88.9483 117.868 89.6087 117.096 89.6087H88.0369C87.2645 89.6087 86.6361 88.9483 86.6361 88.1366C86.6361 87.3254 87.2645 86.6651 88.0369 86.6651Z" fill="black"/>
<path d="M88.0369 99.7513H117.096C118.821 99.7513 120.224 98.2769 120.224 96.4643C120.224 94.6516 118.821 93.1768 117.096 93.1768H88.0369C86.312 93.1768 84.9084 94.6516 84.9084 96.4643C84.9084 98.2769 86.312 99.7513 88.0369 99.7513ZM88.0369 94.9922H117.096C117.868 94.9922 118.497 95.6526 118.497 96.4643C118.497 97.2755 117.868 97.9358 117.096 97.9358H88.0369C87.2645 97.9358 86.6361 97.2755 86.6361 96.4643C86.6361 95.6526 87.2645 94.9922 88.0369 94.9922Z" fill="black"/>
<path d="M88.0369 108.077H108.421C110.146 108.077 111.55 106.603 111.55 104.79C111.55 102.978 110.146 101.503 108.421 101.503H88.0369C86.312 101.503 84.9084 102.978 84.9084 104.79C84.9084 106.603 86.312 108.077 88.0369 108.077ZM88.0369 103.318H108.421C109.194 103.318 109.822 103.979 109.822 104.79C109.822 105.602 109.194 106.262 108.421 106.262H88.0369C87.2644 106.262 86.6361 105.602 86.6361 104.79C86.6361 103.979 87.2644 103.318 88.0369 103.318Z" fill="black"/>
<path d="M135.353 104.092H132.089V101.062C132.089 100.288 131.644 99.6214 131.01 99.3272L132.276 93.23C132.639 91.4779 132.198 89.6147 131.095 88.2457C130.044 86.9411 128.509 86.1928 126.882 86.1928C126.61 86.1928 126.341 86.2155 126.076 86.2562V58.5849C126.076 56.9222 124.788 55.5693 123.206 55.5693H81.9262C80.344 55.5693 79.0566 56.9222 79.0566 58.5849V68.3234C79.0566 68.8248 79.4433 69.2312 79.9204 69.2312C80.3976 69.2312 80.7843 68.8248 80.7843 68.3234V58.5849C80.7843 57.9231 81.2965 57.3848 81.9262 57.3848H123.206C123.836 57.3848 124.348 57.9231 124.348 58.5849V86.8404C123.979 87.0407 123.631 87.2846 123.312 87.5693C123.082 87.7741 122.866 87.9999 122.668 88.2457C122.016 89.0565 121.587 90.0394 121.43 91.0881C121.355 91.5834 121.677 92.0484 122.148 92.1264C122.62 92.2049 123.061 91.8667 123.136 91.3715C123.244 90.651 123.538 89.9756 123.987 89.4188C124.709 88.5224 125.764 88.0083 126.882 88.0083C128 88.0083 129.055 88.5224 129.777 89.4188C130.534 90.3592 130.837 91.6392 130.588 92.843L129.275 99.1659H124.489L123.683 95.2815C123.581 94.7919 123.122 94.4816 122.655 94.588C122.189 94.6949 121.893 95.1788 121.995 95.6684L122.754 99.3272C122.12 99.6214 121.675 100.288 121.675 101.062V104.092H118.411C116.92 104.092 115.707 105.366 115.707 106.933V109.246C115.707 110.813 116.92 112.087 118.411 112.087H118.457L118.981 114.533C119.075 114.969 119.235 115.372 119.449 115.733H81.9262C81.2965 115.733 80.7843 115.195 80.7843 114.533V72.4889C80.7843 71.9875 80.3976 71.5811 79.9204 71.5811C79.4433 71.5811 79.0566 71.9875 79.0566 72.4889V114.533C79.0566 116.196 80.344 117.549 81.9262 117.549L131.207 117.537C132.933 117.537 134.404 116.302 134.783 114.533L135.307 112.087H135.353C136.844 112.087 138.057 110.813 138.057 109.246V106.933C138.057 105.366 136.844 104.092 135.353 104.092ZM123.403 101.062C123.403 101.018 123.437 100.981 123.479 100.981H130.285C130.327 100.981 130.361 101.018 130.361 101.062V104.092H123.403V101.062ZM133.098 114.133C132.897 115.069 132.12 115.722 131.207 115.722H122.557C121.644 115.722 120.867 115.069 120.667 114.133L120.228 112.087H133.536L133.098 114.133ZM136.329 109.246C136.329 109.811 135.891 110.272 135.353 110.272H118.411C117.873 110.272 117.435 109.811 117.435 109.246V106.933C117.435 106.367 117.873 105.907 118.411 105.907H135.353C135.891 105.907 136.329 106.367 136.329 106.933V109.246Z" fill="black"/>
<path d="M129.557 87.0693L132.057 83.0693M126.557 86.0693V81.5693M123.557 87.0693L121.057 83.0693" stroke="black" stroke-width="2" stroke-linecap="round"/>
</g>
<defs>
<clipPath id="clip0">
<rect width="59" height="62" fill="white" transform="translate(79.0566 55.5693)"/>
</clipPath>
</defs>
</svg>
