<svg width="198" height="175" viewBox="0 0 198 175" fill="none" xmlns="http://www.w3.org/2000/svg">
<path opacity="0.3" d="M1.34951 90.5719C-3.7228 40.4402 39.9683 19.4753 62.4479 15.2593C135.651 -1.41293 150.061 34.8061 166.776 42.8548C183.492 50.9034 184.645 79.6487 188.679 83.673C192.714 87.6974 196.749 102.645 197.902 115.868C199.055 129.091 178.304 146.913 171.964 149.212C165.623 151.512 151.79 154.386 140.838 161.86C129.887 169.334 108.56 172.208 101.067 173.933C93.5734 175.658 84.9274 164.735 73.3994 161.86C61.8715 158.986 7.68991 153.237 1.34951 90.5719Z" fill="#FB96BA"/>
<path opacity="0.3" d="M178.474 105.041C180.203 91.3925 170.404 69.4362 169.828 62.9086C162.911 21.1376 127.367 3.96118 110.459 0.594362C66.6527 -4.5511 50.8698 25.1802 45.3259 33.2379C35.5271 47.4799 22.2698 37.9852 19.3878 91.3925C16.5058 144.8 77.3908 163.196 115.647 163.196C153.113 163.196 176.745 118.69 178.474 105.041Z" fill="#DC503E"/>
<path d="M125.639 91.8348C134.02 91.8465 133.824 100.229 140.538 100.229C140.093 105.414 139.059 113.661 139.059 113.661H69.6064L70.9082 100.228H117.225L117.956 91.8348H125.622C125.627 91.8348 125.634 91.8348 125.639 91.8348Z" fill="#CCD1D9"/>
<path d="M135.654 98.1523L134.02 113.661H139.06C139.06 113.661 140.093 105.414 140.538 100.23C138.358 100.23 136.907 99.3459 135.654 98.1523Z" fill="#AAB2BC"/>
<path d="M84.7234 105.332C89.3257 105.332 93.0563 109.061 93.0563 113.661C93.0563 118.26 89.3257 121.989 84.7234 121.989C80.1227 121.989 76.3921 118.26 76.3921 113.661C76.3921 109.061 80.1227 105.332 84.7234 105.332Z" fill="#656D78"/>
<path d="M123.942 105.332C128.544 105.332 132.275 109.061 132.275 113.661C132.275 118.26 128.544 121.989 123.942 121.989C119.341 121.989 115.611 118.26 115.611 113.661C115.611 109.061 119.342 105.332 123.942 105.332Z" fill="#656D78"/>
<path d="M84.7236 110.303C86.5797 110.303 88.083 111.806 88.083 113.661C88.083 115.515 86.5797 117.019 84.7236 117.019C82.8676 117.019 81.3643 115.515 81.3643 113.661C81.3643 111.806 82.8676 110.303 84.7236 110.303Z" fill="#CCD1D9"/>
<path d="M123.942 110.303C125.798 110.303 127.302 111.806 127.302 113.661C127.302 115.515 125.798 117.019 123.942 117.019C122.088 117.019 120.583 115.515 120.583 113.661C120.583 111.806 122.088 110.303 123.942 110.303Z" fill="#CCD1D9"/>
<path d="M126.514 81.7881C126.22 81.7696 125.922 81.7612 125.623 81.7612H118.836H118.834L117.956 91.8349H125.622C125.627 91.8349 125.633 91.8349 125.638 91.8349C134.02 91.8466 133.824 100.23 140.537 100.23C140.662 98.7975 140.741 97.5987 140.741 96.8717C140.741 88.8178 134.454 82.2464 126.514 81.7881Z" fill="#5D9CEC"/>
<path d="M126.514 81.7881C126.22 81.7696 125.923 81.7612 125.624 81.7612H120.584C120.883 81.7612 121.18 81.7696 121.474 81.7881C129.414 82.2464 135.701 88.8178 135.701 96.8717C135.701 97.2062 135.684 97.6412 135.654 98.1521C136.907 99.3456 138.358 100.23 140.538 100.23C140.662 98.7975 140.741 97.5987 140.741 96.8717C140.741 88.8178 134.454 82.2464 126.514 81.7881Z" fill="#4A89DC"/>
<path d="M73.6748 71.6881L74.6455 61.6715H120.584L118.834 81.7618L117.956 91.8354L117.225 100.228H70.9082L71.8841 90.1565L73.6748 71.6881Z" fill="#ED5565"/>
<path d="M115.544 61.6715L113.794 81.7618L112.916 91.8354L112.185 100.228H117.225L117.955 91.8354L118.834 81.7618L120.584 61.6715H115.544Z" fill="#DA4453"/>
<path d="M140.089 114.386C140.095 114.378 140.101 114.37 140.107 114.362C140.127 114.331 140.147 114.3 140.164 114.267C140.166 114.265 140.167 114.263 140.168 114.261C140.187 114.226 140.204 114.19 140.22 114.153C140.224 114.143 140.228 114.132 140.232 114.121C140.242 114.095 140.252 114.069 140.261 114.042C140.266 114.025 140.27 114.007 140.275 113.989C140.281 113.968 140.287 113.947 140.291 113.926C140.296 113.907 140.298 113.888 140.301 113.868C140.304 113.851 140.308 113.835 140.31 113.817C140.364 113.39 141.35 105.479 141.791 100.363C141.791 100.358 141.791 100.353 141.792 100.348C141.919 98.8739 142 97.6321 142 96.8719C142 87.8456 134.653 80.5022 125.623 80.5022H120.209L121.84 61.7805C121.843 61.7465 121.843 61.7131 121.844 61.6797C121.844 61.6769 121.844 61.6742 121.844 61.6713C121.844 61.6708 121.844 61.6705 121.844 61.67C121.844 61.1604 121.536 60.7113 121.084 60.5161C121.081 60.5144 121.077 60.5124 121.073 60.5107C121.045 60.4989 121.016 60.4889 120.987 60.4791C120.976 60.4756 120.965 60.4712 120.954 60.4679C120.931 60.4606 120.906 60.4549 120.882 60.4491C120.865 60.445 120.848 60.4402 120.831 60.4368C120.809 60.4326 120.787 60.4299 120.765 60.4267C120.745 60.4237 120.725 60.4202 120.704 60.4183C120.701 60.418 120.697 60.4173 120.694 60.417C120.672 60.415 120.65 60.4153 120.628 60.4145C120.613 60.414 120.599 60.4123 120.584 60.4123H120.568C120.567 60.4123 120.565 60.4123 120.564 60.4123H94.8026C94.1072 60.4123 93.5428 60.9764 93.5428 61.6715C93.5428 62.3649 94.1072 62.9307 94.8026 62.9307H119.211L116.704 91.7036C116.703 91.7058 116.703 91.708 116.703 91.7101L116.07 98.9701H72.2961L73.0282 91.4152H81.363C82.0589 91.4152 82.6228 90.8514 82.6228 90.156C82.6228 89.4605 82.0589 88.8967 81.363 88.8967H73.2725L74.8185 72.9476H88.0838C88.7797 72.9476 89.3436 72.3838 89.3436 71.6884C89.3436 70.993 88.7797 70.4292 88.0838 70.4292H75.0627L75.7897 62.9307H89.7635C90.4572 62.9307 91.0233 62.3649 91.0233 61.6715C91.0233 60.9764 90.4572 60.4123 89.7635 60.4123H74.6463C74.6456 60.4123 74.6451 60.4125 74.6444 60.4125C74.0527 60.4123 73.5394 60.8287 73.4152 61.4059C73.4144 61.4101 73.4129 61.4141 73.412 61.4183C73.4057 61.4497 73.4015 61.4818 73.3973 61.514C73.3961 61.5243 73.3939 61.534 73.3929 61.5442C73.3927 61.5463 73.3922 61.5481 73.3921 61.5501L72.5314 70.4292H57.2598C56.5639 70.4292 56 70.993 56 71.6884C56 72.3838 56.5639 72.9476 57.2598 72.9476H72.2872L70.7412 88.8967H66.2465C65.5506 88.8967 64.9867 89.4605 64.9867 90.156C64.9867 90.8514 65.5506 91.4152 66.2465 91.4152H70.4971L69.6552 100.099C69.6551 100.1 69.6551 100.102 69.6549 100.103L68.3533 113.531C68.3531 113.532 68.353 113.534 68.3528 113.535L68.3523 113.54C68.3506 113.558 68.3508 113.575 68.3498 113.592C68.3486 113.615 68.3463 113.638 68.3463 113.661C68.3463 113.663 68.3464 113.664 68.3464 113.665C68.3464 113.697 68.3488 113.729 68.3511 113.761C68.3521 113.771 68.3518 113.782 68.353 113.792C68.3563 113.824 68.3619 113.856 68.3678 113.888C68.3694 113.898 68.3703 113.907 68.3721 113.916C68.377 113.941 68.3839 113.964 68.3903 113.988C68.3946 114.004 68.3982 114.021 68.4032 114.037C68.4047 114.042 68.4067 114.046 68.4081 114.051C68.469 114.238 68.5725 114.407 68.7076 114.544C68.7101 114.546 68.7121 114.549 68.7146 114.552C68.728 114.565 68.7427 114.577 68.7568 114.59C68.8436 114.67 68.9417 114.737 69.049 114.79C69.0714 114.801 69.0934 114.813 69.1162 114.822C69.1231 114.825 69.1305 114.827 69.1376 114.83C69.1691 114.842 69.2009 114.855 69.2336 114.865C69.2367 114.866 69.2395 114.866 69.2425 114.867C69.2798 114.878 69.3175 114.888 69.3559 114.896C69.361 114.897 69.3662 114.897 69.371 114.898C69.4077 114.905 69.4444 114.911 69.4819 114.915C69.4827 114.915 69.4834 114.915 69.4842 114.915C69.5256 114.919 69.5666 114.921 69.6072 114.921C69.6077 114.921 69.6084 114.921 69.609 114.921H75.2172C75.8365 119.614 79.8619 123.249 84.7238 123.249C89.5853 123.249 93.6107 119.614 94.23 114.921H114.437C115.056 119.614 119.081 123.249 123.943 123.249C128.804 123.249 132.83 119.614 133.45 114.921H139.059C139.06 114.921 139.061 114.921 139.062 114.921C139.104 114.921 139.145 114.919 139.186 114.914C139.194 114.914 139.201 114.912 139.208 114.911C139.241 114.908 139.273 114.903 139.305 114.897C139.319 114.894 139.332 114.89 139.346 114.887C139.371 114.881 139.395 114.875 139.42 114.868C139.436 114.863 139.452 114.858 139.468 114.852C139.489 114.845 139.51 114.838 139.53 114.829C139.547 114.822 139.564 114.815 139.581 114.807C139.599 114.799 139.618 114.79 139.636 114.781C139.653 114.772 139.669 114.763 139.686 114.754C139.703 114.744 139.72 114.733 139.737 114.722C139.753 114.712 139.769 114.702 139.784 114.691C139.801 114.679 139.817 114.667 139.834 114.654C139.848 114.643 139.862 114.632 139.875 114.621C139.892 114.606 139.909 114.591 139.925 114.576C139.937 114.565 139.949 114.554 139.96 114.542C139.977 114.525 139.994 114.506 140.01 114.487C140.019 114.477 140.029 114.467 140.037 114.456C140.056 114.433 140.072 114.41 140.089 114.386ZM139.48 96.8721C139.48 97.344 139.445 98.0297 139.385 98.8551C137.513 98.4736 136.362 97.1582 134.966 95.5558C133.221 93.552 131.091 91.1066 127.007 90.6509L127.659 83.1715C134.338 84.1589 139.48 89.9258 139.48 96.8721ZM125.143 83.0208L124.485 90.5754H119.331L119.989 83.0208H125.143ZM117.225 101.488C117.226 101.488 117.226 101.488 117.227 101.488C117.269 101.488 117.311 101.486 117.352 101.482C117.36 101.481 117.367 101.479 117.375 101.478C117.408 101.475 117.441 101.47 117.473 101.463C117.487 101.461 117.5 101.457 117.514 101.453C117.539 101.447 117.565 101.441 117.589 101.434C117.606 101.429 117.622 101.423 117.638 101.417C117.659 101.41 117.681 101.403 117.701 101.394C117.719 101.387 117.736 101.379 117.753 101.371C117.771 101.362 117.79 101.354 117.808 101.344C117.825 101.335 117.842 101.326 117.859 101.316C117.876 101.306 117.893 101.296 117.91 101.285C117.926 101.274 117.942 101.263 117.958 101.252C117.974 101.24 117.99 101.228 118.006 101.216C118.021 101.204 118.035 101.192 118.049 101.18C118.065 101.166 118.081 101.152 118.096 101.137C118.109 101.125 118.121 101.113 118.134 101.1C118.149 101.084 118.164 101.068 118.178 101.051C118.189 101.038 118.2 101.025 118.211 101.011C118.225 100.994 118.238 100.976 118.251 100.957C118.261 100.944 118.271 100.93 118.28 100.916C118.293 100.897 118.304 100.877 118.316 100.857C118.324 100.843 118.333 100.828 118.341 100.813C118.351 100.793 118.36 100.773 118.37 100.752C118.377 100.736 118.385 100.72 118.392 100.703C118.4 100.684 118.407 100.663 118.414 100.643C118.42 100.625 118.427 100.607 118.432 100.589C118.438 100.569 118.442 100.549 118.447 100.529C118.452 100.509 118.458 100.49 118.461 100.469C118.465 100.449 118.468 100.429 118.471 100.409C118.474 100.388 118.477 100.368 118.479 100.347C118.48 100.344 118.48 100.341 118.48 100.338L119.112 93.0931H125.623C129.482 93.0931 131.223 95.092 133.066 97.2085C134.587 98.9548 136.284 100.903 139.17 101.379C138.804 105.252 138.211 110.224 137.946 112.401H133.45C132.831 107.708 128.805 104.073 123.943 104.073C119.082 104.073 115.056 107.708 114.437 112.401H94.2305C93.6114 107.708 89.586 104.073 84.7241 104.073C79.8622 104.073 75.8365 107.708 75.2174 112.401H70.994L72.052 101.488H117.225V101.488ZM84.7241 120.73C80.8244 120.73 77.6518 117.559 77.6518 113.661C77.6518 109.763 80.8245 106.592 84.7241 106.592C88.6237 106.592 91.7963 109.763 91.7963 113.661C91.7963 117.559 88.6237 120.73 84.7241 120.73ZM123.943 120.73C120.043 120.73 116.871 117.559 116.871 113.661C116.871 109.763 120.044 106.592 123.943 106.592C127.843 106.592 131.015 109.763 131.015 113.661C131.015 117.559 127.843 120.73 123.943 120.73Z" fill="black"/>
<path d="M84.7241 109.044C82.1772 109.044 80.105 111.115 80.105 113.661C80.105 116.207 82.1772 118.278 84.7241 118.278C87.2711 118.278 89.3433 116.207 89.3433 113.661C89.3433 111.115 87.2711 109.044 84.7241 109.044ZM84.7241 115.76C83.5663 115.76 82.6245 114.818 82.6245 113.661C82.6245 112.504 83.5663 111.562 84.7241 111.562C85.8819 111.562 86.8238 112.504 86.8238 113.661C86.8238 114.818 85.8818 115.76 84.7241 115.76Z" fill="black"/>
<path d="M123.943 109.044C121.396 109.044 119.324 111.115 119.324 113.661C119.324 116.207 121.396 118.278 123.943 118.278C126.49 118.278 128.562 116.207 128.562 113.661C128.562 111.115 126.49 109.044 123.943 109.044ZM123.943 115.76C122.785 115.76 121.843 114.818 121.843 113.661C121.843 112.504 122.785 111.562 123.943 111.562C125.101 111.562 126.043 112.504 126.043 113.661C126.043 114.818 125.101 115.76 123.943 115.76Z" fill="black"/>
<path d="M69.1856 81.7612C69.1856 81.0657 68.6218 80.502 67.9259 80.502H61.7671C61.0712 80.502 60.5073 81.0657 60.5073 81.7612C60.5073 82.4566 61.0712 83.0204 61.7671 83.0204H67.9259C68.6218 83.0204 69.1856 82.4566 69.1856 81.7612Z" fill="black"/>
</svg>