<svg width="198" height="175" viewBox="0 0 198 175" fill="none" xmlns="http://www.w3.org/2000/svg">
<path opacity="0.3" d="M0.406153 91.2379C-4.66616 40.9759 39.0249 19.9565 61.5045 15.7296C134.707 -0.986017 149.117 35.3272 165.833 43.3968C182.548 51.4664 183.701 80.2863 187.736 84.3211C191.771 88.3559 195.806 103.342 196.958 116.6C198.111 129.857 177.361 147.725 171.02 150.031C164.68 152.336 150.846 155.218 139.895 162.711C128.943 170.205 107.616 173.087 100.123 174.816C92.6301 176.545 83.9841 165.593 72.4561 162.711C60.9281 159.829 6.74655 154.065 0.406153 91.2379Z" fill="#FB96BA"/>
<path opacity="0.3" d="M177.531 102.46C179.26 89.2027 169.461 67.8759 168.885 61.5355C161.968 20.9622 126.423 4.27827 109.516 1.00798C65.7093 -3.98994 49.9264 24.8888 44.3825 32.7155C34.5837 46.5491 21.3264 37.3267 18.4444 89.2027C15.5624 141.079 76.4474 158.947 114.703 158.947C152.169 158.947 175.802 115.717 177.531 102.46Z" fill="#DC503E"/>
<path d="M116.847 53.0684H77.1113V58.8011H116.847V53.0684Z" fill="#8DE0A8"/>
<path d="M116.847 108.198H77.1113V113.931H116.847V108.198Z" fill="#8DE0A8"/>
<path d="M85.1542 53.0684H77.1113V58.8011H85.1542V53.0684Z" fill="#7BC690"/>
<path d="M85.1542 108.198H77.1113V113.931H85.1542V108.198Z" fill="#7BC690"/>
<path d="M80.9093 108.198V100.083C80.8139 91.9295 86.7965 85.1544 94.6105 84.0011C86.8581 82.8566 80.9083 76.1787 80.9083 68.1108V58.8008H113.046V67.9186C113.141 76.0725 107.159 82.8476 99.3449 84.0012C107.097 85.1456 113.047 91.8236 113.047 99.8915V108.198H80.9093V108.198Z" fill="#CFDCE5"/>
<path d="M99.0314 84.001C91.2789 82.8565 85.3292 76.1786 85.3292 68.1107V58.8008H80.9092V68.1107C80.9092 76.1786 86.859 82.8567 94.6113 84.001C86.7975 85.1544 80.815 91.9295 80.9103 100.083V108.198H85.3303V100.083C85.2349 91.9297 91.2174 85.1545 99.0314 84.001Z" fill="#BAC6CC"/>
<path d="M110.38 108.199C110.38 100.799 104.38 94.8008 96.9776 94.8008C89.5756 94.8008 83.5752 100.799 83.5752 108.199" fill="#FCD577"/>
<path d="M98.9737 94.9489C98.3225 94.8517 97.656 94.8008 96.9776 94.8008C89.5756 94.8008 83.5752 100.799 83.5752 108.199H87.5674C87.5674 101.478 92.5186 95.9126 98.9737 94.9489Z" fill="#EAC36E"/>
<path d="M90.6436 69.1016L92.6174 82.4212L95.7789 79.0213L99.5146 82.4928L104.65 76.9706L100.914 73.4991L104.076 70.0993L90.6436 69.1016Z" fill="#FCD577"/>
<path d="M116.862 59.8699C117.452 59.8699 117.931 59.3912 117.931 58.8009V53.069C117.931 52.4786 117.452 52 116.862 52H109.969C109.378 52 108.899 52.4786 108.899 53.069C108.899 53.6594 109.378 54.138 109.969 54.138H115.792V57.732H78.1956V54.138H106.404C106.995 54.138 107.474 53.6594 107.474 53.069C107.474 52.4786 106.995 52 106.404 52H77.1263C76.5356 52 76.0569 52.4786 76.0569 53.069V58.801C76.0569 59.3914 76.5356 59.87 77.1263 59.87H79.8551V68.111C79.8551 72.2462 81.3492 76.2391 84.0619 79.3545C85.8545 81.413 88.0975 83.0002 90.5881 84.0047C87.0413 85.4449 84.0023 88.0628 82.0833 91.4386C81.7915 91.9518 81.9713 92.6044 82.4845 92.8962C82.9984 93.1879 83.6508 93.0084 83.9427 92.4949C86.2105 88.5059 90.2628 85.726 94.7829 85.0589C95.3075 84.9815 95.696 84.5315 95.696 84.0014C95.696 83.4713 95.3073 83.0213 94.7829 82.944C94.446 82.8942 94.1128 82.8295 93.7816 82.757L95.8504 80.5324L98.6889 83.1702C98.4451 83.3675 98.2918 83.6687 98.2918 84.0015C98.2918 84.5316 98.6805 84.9816 99.2049 85.059C102.727 85.579 105.962 87.3522 108.313 90.0522C110.687 92.7783 111.994 96.2728 111.994 99.8918V107.13H111.427C111.17 103.564 109.628 100.271 107.019 97.7652C106.593 97.3561 105.916 97.3699 105.507 97.7955C105.098 98.2212 105.112 98.898 105.538 99.3068C107.722 101.405 109.026 104.152 109.279 107.13H84.7077C85.2515 100.83 90.5538 95.8696 96.9939 95.8696C99.0697 95.8696 101.122 96.3945 102.928 97.3877C103.446 97.6722 104.096 97.4833 104.38 96.9661C104.665 96.4489 104.476 95.7988 103.959 95.5143C101.837 94.348 99.429 93.7315 96.9939 93.7315C89.3739 93.7315 83.1108 99.6498 82.5617 107.13H81.9949V100.071C81.9769 98.5366 82.1893 97.0218 82.6262 95.5686C82.7962 95.0032 82.4756 94.407 81.91 94.2372C81.3438 94.0674 80.7481 94.3878 80.5779 94.9534C80.0785 96.6144 79.8357 98.3446 79.8561 100.084V107.13H77.126C76.5353 107.13 76.0566 107.608 76.0566 108.199V113.931C76.0566 114.521 76.5353 115 77.126 115H116.861C117.452 115 117.931 114.521 117.931 113.931V108.199C117.931 107.609 117.452 107.13 116.861 107.13H114.132V99.8921C114.132 95.7571 112.638 91.764 109.925 88.6486C108.135 86.5925 105.895 85.0067 103.408 84.0019C105.925 82.9857 108.186 81.3749 109.988 79.2831C112.708 76.1235 114.18 72.0833 114.131 67.9192V59.8699H116.862ZM115.792 112.861H78.1956V109.268H115.792V112.861ZM100.899 82.5922L105.449 77.6986C105.851 77.2662 105.827 76.5899 105.394 76.1877L102.442 73.4439L104.875 70.827C105.155 70.5262 105.238 70.0912 105.088 69.7089C104.937 69.3263 104.581 69.0636 104.171 69.0331L99.497 68.6859C98.9063 68.6416 98.395 69.0839 98.3513 69.6728C98.3075 70.2616 98.7495 70.7743 99.3386 70.8181L101.794 71.0005L100.147 72.7714C99.9541 72.9791 99.8515 73.2548 99.8617 73.5382C99.8719 73.8216 99.9946 74.0891 100.202 74.2823L103.155 77.0261L99.4757 80.9824L96.5233 78.2388C96.0909 77.8367 95.4142 77.8615 95.012 78.2939L93.3652 80.0648L91.9132 70.2671L95.6512 70.5449C96.2407 70.589 96.7531 70.1468 96.7968 69.5579C96.8407 68.9691 96.3987 68.4564 95.8096 68.4126L90.7388 68.0361C90.4166 68.0125 90.0976 68.1365 89.8763 68.3743C89.6552 68.6121 89.5541 68.9376 89.6017 69.2589L91.4996 82.0652C89.2753 81.1886 87.2711 79.7843 85.6748 77.9511C83.301 75.225 81.9937 71.7305 81.9937 68.1115V59.8699H111.993V67.9312C112.074 74.8169 107.408 80.8396 100.899 82.5922Z" fill="black"/>
<path d="M103.268 103.169C103.858 103.169 104.337 102.691 104.337 102.1C104.337 101.51 103.858 101.031 103.268 101.031C102.677 101.031 102.198 101.51 102.198 102.1C102.198 102.691 102.677 103.169 103.268 103.169Z" fill="black"/>
<path d="M101.557 106.02C102.147 106.02 102.626 105.541 102.626 104.951C102.626 104.36 102.147 103.882 101.557 103.882C100.966 103.882 100.487 104.36 100.487 104.951C100.487 105.541 100.966 106.02 101.557 106.02Z" fill="black"/>
<path d="M104.859 105.877C105.45 105.877 105.929 105.399 105.929 104.808C105.929 104.218 105.45 103.739 104.859 103.739C104.269 103.739 103.79 104.218 103.79 104.808C103.79 105.399 104.269 105.877 104.859 105.877Z" fill="black"/>
<path d="M113.718 117.489H112.89V96.4077C112.89 95.3113 112.246 94.3227 111.259 93.9027C110.272 93.4828 109.136 93.7137 108.38 94.4883L103.224 99.7682C102.191 100.826 102.189 102.543 103.221 103.603C104.252 104.663 105.925 104.665 106.958 103.607L107.604 102.946V117.489H106.252C104.792 117.489 103.608 118.704 103.608 120.201C103.608 121.699 104.792 122.913 106.252 122.913H113.718C115.178 122.913 116.361 121.699 116.361 120.201C116.362 118.704 115.178 117.489 113.718 117.489Z" fill="#FFF065"/>
<path d="M117.057 120.712C117.057 118.731 115.461 117.119 113.499 117.119H113.481V105.725C113.481 105.26 113.107 104.882 112.645 104.882C112.184 104.882 111.81 105.26 111.81 105.725V117.963C111.81 118.429 112.184 118.807 112.645 118.807H113.499C114.539 118.807 115.386 119.661 115.386 120.712C115.386 121.762 114.539 122.617 113.499 122.617H105.808C104.768 122.617 103.921 121.762 103.921 120.712C103.921 119.661 104.767 118.807 105.808 118.807H107.201C107.662 118.807 108.036 118.429 108.036 117.963V103.221C108.036 102.88 107.833 102.573 107.521 102.442C107.209 102.311 106.849 102.383 106.61 102.624L105.946 103.294C105.209 104.036 104.012 104.035 103.277 103.292C102.542 102.548 102.543 101.34 103.28 100.597L108.59 95.2456C109.132 94.6997 109.939 94.538 110.646 94.8341C111.353 95.1303 111.81 95.821 111.81 96.594V102.351C111.81 102.817 112.184 103.195 112.645 103.195C113.107 103.195 113.481 102.817 113.481 102.351V96.594C113.481 95.1366 112.619 93.834 111.286 93.2756C109.952 92.7176 108.431 93.0221 107.409 94.0514L102.099 99.4033C100.711 100.803 100.709 103.082 102.095 104.484C103.249 105.651 105.007 105.848 106.365 105.073V117.119H105.808C103.846 117.119 102.25 118.731 102.25 120.712C102.25 122.693 103.846 124.304 105.808 124.304H113.499C115.461 124.304 117.057 122.693 117.057 120.712Z" fill="black"/>
</svg>