<svg width="320" height="140" viewBox="0 0 320 140" fill="none" xmlns="http://www.w3.org/2000/svg">
<rect width="320" height="140" fill="url(#paint0_linear)"/>
<g clip-path="url(#clip0)">
<g style="mix-blend-mode:multiply">
<path d="M266.851 109.435C257.677 145.551 226.477 150.076 198.271 145.551C172.231 147.054 146.988 149.041 100.613 155.959C60.1133 162 54.3169 121.93 70.1132 109.394C98.7354 86.6791 122.509 112.532 148.447 69.5277C173.339 28.2572 277.533 67.3854 266.851 109.435Z" fill="#ECDCDC"/>
</g>
<path d="M279.702 90.5516C302.871 82.8805 319.751 95.0764 327.427 97.5366C330.248 98.4413 338.417 100.503 328.84 101.149C319.263 101.796 293.987 100.171 279.702 90.5516Z" fill="#679F70" stroke="#3A2C08" stroke-width="0.2"/>
<path d="M263.173 78.1664C305.633 73.6181 316.995 90.1932 324.671 92.6534C327.492 93.558 335.835 97.9786 326.258 98.6249C316.681 99.2712 277.457 87.7859 263.173 78.1664Z" fill="#1A1A1C" stroke="#3A2C08" stroke-width="0.2"/>
<path d="M225.917 84.567C224.314 81.7895 228.436 41.6416 230.627 46.449C232.819 51.2564 238.68 62.1974 238.68 62.1974V84.567C238.68 84.567 227.519 87.3445 225.917 84.567Z" fill="#CDA364" stroke="black" stroke-width="0.2"/>
<g style="mix-blend-mode:multiply">
<path d="M230.486 82.1976L231.191 50.4834C233.776 58.8232 239.765 79.1436 239.413 81.2579C239.131 82.9493 232.835 82.4325 230.486 82.1976Z" fill="#C4C4C4"/>
</g>
<path d="M208.386 39.5833C206.665 38.3663 214.049 34.8911 208.73 27.0161C209.713 24.8117 212.003 20.3981 213.299 20.3792C214.92 20.3556 215.544 28.2617 215.597 28.8072C215.65 29.3528 219.467 30.1374 218.988 26.6558C218.51 23.1743 221.572 21.694 223.811 21.8913C226.05 22.0887 225.44 26.9686 224.885 29.8778C224.44 32.2051 230.567 31.4088 233.826 30.9489C233.988 31.4247 234.96 32.9342 236.426 33.332C233.474 33.2511 230.507 37.8495 229.392 40.1588L225.922 36.5006C225.671 38.5411 223.917 42.0562 219.141 42.0228C215.32 41.9961 213.343 38.9717 212.831 37.4628C211.924 38.5753 209.763 40.557 208.386 39.5833Z" fill="#CDA364"/>
<path d="M225.922 36.5006C225.671 38.5411 223.917 42.0562 219.141 42.0228C215.32 41.9961 213.343 38.9717 212.831 37.4628C211.924 38.5753 209.763 40.557 208.386 39.5833C206.665 38.3663 214.049 34.8911 208.73 27.0161C209.713 24.8117 212.003 20.3981 213.299 20.3792C214.92 20.3556 215.544 28.2617 215.597 28.8072C215.65 29.3528 219.467 30.1374 218.988 26.6558C218.51 23.1743 221.572 21.694 223.811 21.8913C226.05 22.0887 225.44 26.9686 224.885 29.8778C224.44 32.2051 230.567 31.4088 233.826 30.9489C233.988 31.4247 234.96 32.9342 236.426 33.332C233.474 33.2511 230.507 37.8495 229.392 40.1588L225.922 36.5006ZM225.922 36.5006C226.123 34.8683 226.068 33.5357 226.016 33.0468" stroke="#3A2C08" stroke-width="0.2"/>
<g style="mix-blend-mode:multiply">
<path d="M223.724 26.6285C224.115 23.3219 221.077 24.6431 220.243 25.9816C219.982 17.8468 224.998 22.2006 225.259 25.3294C225.451 27.6339 223.831 30.8813 222.799 32.5486C222.725 32.7094 222.641 32.841 222.547 32.9429C222.626 32.8243 222.71 32.6923 222.799 32.5486C223.245 31.5846 223.376 29.5715 223.724 26.6285Z" fill="#C4C4C4"/>
</g>
<path d="M215.501 39.0007C216.495 38.977 218.348 38.7115 218.845 35.0866" stroke="#997948" stroke-linecap="round" stroke-linejoin="round"/>
<path d="M211.776 32.3603C211.776 32.3603 211.811 31.0998 212.8 31.2416" stroke="#3A2C08" stroke-width="0.4" stroke-linecap="round" stroke-linejoin="round"/>
<path d="M206.728 137.267C207.216 127.072 219.756 114.795 225.966 109.931C233.58 98.1607 277.602 107.179 272.141 116.404C267.772 123.784 250.599 135.952 242.559 141.113C230.412 144.079 206.24 147.462 206.728 137.267Z" fill="#7B6130" stroke="#3A2C08" stroke-width="0.2"/>
<g style="mix-blend-mode:multiply">
<path d="M257.407 126.29C239.359 129.671 222.45 123.104 216.252 119.398C216.616 118.878 221.215 114.24 223.468 111.986L230.425 114.717C238.227 119.242 257.168 119.723 265.663 119.398C263.843 124.079 259.4 125.943 257.407 126.29Z" fill="#C4C4C4"/>
</g>
<path d="M236.579 75.8838C232.555 68.6484 230.142 48.6215 229.439 39.5125C230.767 32.7756 234.654 32.4349 236.432 33.1067C240.757 37.1103 251.576 47.0462 260.249 54.7609C268.922 62.4755 276.72 86.3298 279.536 97.2926C275.578 90.8507 246.678 83.1977 232.723 80.1764C233.133 78.0765 235.464 76.4397 236.579 75.8838Z" fill="#121217" stroke="#3A2C08" stroke-width="0.2"/>
<path d="M208.838 27.9291C204.539 25.9512 205.157 17.1008 208.672 13.4203C212.187 9.73983 215.314 8.53974 218.168 8.49738C221.022 8.45503 228.112 10.6984 230.775 14.7088C233.437 18.7192 233.948 27.946 233.929 28.6165C233.911 29.287 234.573 30.0404 235.258 29.9788C235.943 29.9172 236.386 31.3356 235.672 30.9946C234.958 30.6536 234.638 30.6047 233.857 31.2663C233.075 31.9279 230.259 33.5382 227.879 33.8748C225.499 34.2114 225.271 32.668 224.348 32.6427C223.609 32.6225 223.364 33.7802 223.235 35.0892C223.065 34.9372 221.777 35.4434 222.018 33.7143C222.318 31.5529 223.716 28.8992 224.348 26.3853C224.979 23.8714 223.195 23.0189 221.463 23.1723C219.731 23.3258 220.338 27.5732 220.319 28.2437C220.301 28.9141 221.48 31.329 220.207 32.3388C219.189 33.1466 217.781 31.442 217.204 30.4887C217.362 31.0957 217.165 32.2072 215.119 31.7976C212.562 31.2856 213.181 23.3473 212.61 22.2066C212.153 21.2941 209.988 25.8674 208.838 27.9291Z" fill="#21052B" stroke="#3A2C08" stroke-width="0.2" stroke-linecap="round" stroke-linejoin="round"/>
<path d="M192.171 78.959C200.255 76.3086 222.978 78.6064 233.33 80.0866L273.981 85.9238C276.782 87.1342 281.693 92.7102 278.929 105.331C275.474 121.108 259.956 122.005 243.603 118.912C230.52 116.438 209.912 105.368 201.243 100.143C201.056 101.574 200.821 103.15 200.531 104.884C198.362 117.824 182.647 135.136 176 141C170.233 142.291 160.358 144.487 160 141C159.553 136.642 182.067 82.2722 192.171 78.959Z" fill="#96773C"/>
<path d="M201.012 87.3257C201.655 87.7251 202.449 90.8965 201.243 100.143M201.243 100.143C201.056 101.574 200.821 103.15 200.531 104.884C198.362 117.824 182.647 135.136 176 141C170.233 142.291 160.358 144.487 160 141C159.553 136.642 182.067 82.2722 192.171 78.959C200.255 76.3086 222.978 78.6064 233.33 80.0866L273.981 85.9238C276.782 87.1342 281.693 92.7102 278.929 105.331C275.474 121.108 259.956 122.005 243.603 118.912C230.52 116.438 209.912 105.368 201.243 100.143Z" stroke="#3A2C08" stroke-width="0.2"/>
<g style="mix-blend-mode:multiply">
<path d="M255.628 106.733C241.872 108.249 214.149 99.3993 202.006 94.7852C202.006 96.3496 201.71 99.0341 201.321 100.228C224.073 114.777 245.286 121.553 261.373 120.503C277.459 119.454 280.351 104.354 279.671 97.2623C277.388 99.788 269.384 105.218 255.628 106.733Z" fill="#C4C4C4"/>
</g>
<path d="M281.707 57.9939C277.002 58.4171 265.161 55.9302 259.828 54.6338C257.371 46.9284 262.366 41.7815 265.171 40.1713C271.968 42.5814 286.4 47.9307 289.747 50.0469C293.931 52.6922 294.816 53.9818 295.116 55.6005C295.417 57.2191 303.868 72.0595 304.939 74.9646C305.795 77.2887 309.632 88.3984 311.443 93.6627C310.574 94.5975 307.735 95.4936 303.333 91.6C298.93 87.7064 287.081 67.5736 281.707 57.9939Z" fill="#CDA364" stroke="#3A2C08" stroke-width="0.2"/>
<path d="M220.231 27.3524C219.432 28.1381 217.45 29.636 215.914 29.3428C213.995 28.9761 213.375 25.415 216.02 25.4875L217.14 25.5182C215.993 24.8138 213.66 22.8836 213.501 20.7976C213.304 18.1902 215.368 14.8821 218.701 20.9401C218.296 18.8055 217.969 14.5943 219.901 14.8267C221.713 15.0446 222.037 16.1559 221.971 16.7838C222.178 15.4884 222.846 13.1631 224.023 13.3694C225.541 13.6353 221.816 18.6026 222.366 19.8291C222.877 19.1851 223.995 18.0074 224.378 18.4486C224.856 19.0001 224.852 20.7944 223.795 21.7076C224.618 21.7002 225.852 22.2574 224.211 24.5453C222.964 23.0906 220.28 21.6115 220.231 27.3524Z" fill="#FFC122" stroke="#3A2C08" stroke-width="0.2"/>
<path d="M234.493 35.6386C238.45 31.0644 246.763 31.7937 250.819 32.5844C254.874 33.3751 269.465 38.1355 272.879 42.5104C270.145 44.8559 263.801 50.3299 262.021 57.6829C250.615 56.4393 229.547 41.3564 234.493 35.6386Z" fill="#121217" stroke="#3A2C08" stroke-width="0.2"/>
<g style="mix-blend-mode:multiply">
<path d="M274.448 43.4512L272.705 42.8662C268.392 44.9872 261.638 55.0786 262.859 55.3075C263.836 55.4907 263.661 55.6055 265.493 55.9108C265.004 51.5754 272.056 45.6647 274.448 43.4512Z" fill="#C4C4C4"/>
</g>
<g style="mix-blend-mode:multiply">
<path d="M257.8 62.0991C251.197 61.2736 240.359 48.441 235.766 42.1279C245.494 54.1549 257.456 56.8178 262.222 56.6458L265.317 61.5097C265.563 62.0501 264.403 62.9246 257.8 62.0991Z" fill="black"/>
</g>
<path d="M311.178 86.8929C308.996 85.3084 294.968 75.7289 288.227 71.1372C285.213 69.9122 287.261 67.7286 288.861 69.4258C290.462 71.1229 309.582 84.3693 311.513 85.2742C313.444 86.1791 330.664 96.2499 331.755 96.4882C332.847 96.7264 332.275 98.2376 331.522 98.3242C330.769 98.4107 313.906 88.8735 311.178 86.8929Z" fill="#5AC76C" stroke="#3A2C08" stroke-width="0.2"/>
<path d="M275.293 54.1836C277.839 67.4279 311.093 90.4952 321.013 94.831L326.085 95.9172C326.009 94.9622 312.393 82.3263 306.921 74.1919C301.448 66.0575 281.48 57.2194 275.293 54.1836Z" fill="#3F7648" stroke="#3A2C08" stroke-width="0.2"/>
<path d="M268.102 64.8614C268.453 65.0854 269.879 64.6573 270.548 64.4152C273.525 63.6969 277.06 66.4815 278.455 67.9636C276.977 70.1687 273.698 74.5103 272.416 74.2357C271.134 73.9612 268.355 72.6015 267.126 71.956C266.277 70.8433 269.405 68.6254 269.054 68.0621C268.704 67.4989 267.663 64.5815 268.102 64.8614Z" fill="#C983D5" stroke="#3A2C08" stroke-width="0.2"/>
<path d="M269.98 76.2639C269.648 75.8546 271.215 74.3448 272.039 73.6411C272.428 74.1206 275.856 75.4743 274.356 76.1074C272.856 76.7404 270.395 76.7754 269.98 76.2639Z" fill="#B98EC0" stroke="#3A2C08" stroke-width="0.2"/>
<path d="M270.748 62.7688C271.055 62.52 271.254 62.7827 271.315 62.9452C271.325 63.7421 273.557 65.384 274.671 66.1054C274.21 66.0376 273.147 65.9634 272.583 66.2087C271.877 66.5154 271.642 66.8125 270.418 66.4796C269.195 66.1468 270.364 63.0798 270.748 62.7688Z" fill="#AB60B8" stroke="#3A2C08" stroke-width="0.2"/>
<path d="M283.372 62.6063C279.326 59.8489 272.046 63.0327 271.326 63.0129C271.086 63.7102 272.279 65.0576 273.491 65.6846C274.137 66.0182 274.615 66.1456 275.09 66.2513C275.508 66.3443 275.925 66.4206 276.451 66.6057C277.577 67.0013 278.203 69.512 281.048 71.5324C283.893 73.5528 286.685 72.9002 288.549 70.4835C290.413 68.0668 287.418 65.3637 283.372 62.6063Z" fill="#E694F3" stroke="#3A2C08" stroke-width="0.2"/>
<path d="M272.883 70.0078C273.706 67.9973 276.358 67.7506 277.581 67.8785C280.983 68.5034 287.874 70.0041 288.221 71.008C288.654 72.2629 286.663 73.9497 285.377 75.065C284.091 76.1803 277.826 77.0972 275.945 76.5778C274.064 76.0584 272.804 75.7653 271.985 75.1151C271.166 74.4649 272.012 73.7067 272.364 73.421C272.717 73.1353 271.854 72.5208 272.883 70.0078Z" fill="#EACBEF" stroke="#3A2C08" stroke-width="0.2"/>
<path d="M280.963 75.3064C278.763 75.0763 275.209 76.0501 274.233 76.1527C273.325 76.2482 270.436 76.8955 270.079 76.3545C270.127 76.6642 270.466 77.3206 271.433 77.4687C272.643 77.6538 274.547 77.0632 275.722 76.7472C276.896 76.4313 279.141 77.895 281.004 77.7096C282.866 77.5242 286.572 75.1035 286.293 74.694C286.014 74.2845 283.162 75.5366 280.963 75.3064Z" fill="#C199C8"/>
<path d="M270.044 76.2116C270.04 76.2664 270.052 76.3138 270.079 76.3545M270.079 76.3545C270.436 76.8955 273.325 76.2482 274.233 76.1527C275.209 76.0501 278.763 75.0763 280.963 75.3064C283.162 75.5366 286.014 74.2845 286.293 74.694C286.572 75.1035 282.866 77.5242 281.004 77.7096C279.141 77.895 276.896 76.4313 275.722 76.7472C274.547 77.0632 272.643 77.6538 271.433 77.4687C270.466 77.3206 270.127 76.6642 270.079 76.3545Z" stroke="#3A2C08" stroke-width="0.2"/>
<path d="M327.415 96.8007C321.519 94.9322 304.765 88.7551 301.781 85.8878C298.655 84.9859 300.088 87.4081 301.968 88.7891C304.977 90.9996 325.54 97.3469 331.419 101.299C333.65 100.649 332.58 98.4373 327.415 96.8007Z" fill="#52AD60" stroke="#3A2C08" stroke-width="0.2"/>
<path d="M284.011 83.5154C284.098 83.9008 284.417 83.8173 284.565 83.7274C285.066 83.1077 287.835 83.1978 289.157 83.3204C288.753 83.0884 287.871 82.4891 287.58 81.9474C287.216 81.2703 287.214 80.8909 286.047 80.3957C284.88 79.9005 283.902 83.0337 284.011 83.5154Z" fill="#A9584D" stroke="#3A2C08" stroke-width="0.2"/>
<path d="M283.225 80.2338C283.639 80.275 284.495 81.4932 284.87 82.0971C286.765 84.5031 291.266 84.5022 293.279 84.2009C293.481 81.5534 293.591 76.1141 292.414 75.5369C291.236 74.9597 288.212 74.3087 286.846 74.0554C285.491 74.4045 286.577 78.0823 285.953 78.3079C285.329 78.5336 282.707 80.1822 283.225 80.2338Z" fill="#FA8989" stroke="#3A2C08" stroke-width="0.2"/>
<path d="M299.79 79.9835C297.92 78.8038 295.73 75.8403 295.027 75.1558C294.372 74.5192 292.503 72.2234 291.888 72.4277C292.117 72.2142 292.789 71.9077 293.641 72.3898C294.705 72.9925 295.837 74.6348 296.564 75.6093C297.291 76.5839 299.961 76.8229 301.309 78.1207C302.658 79.4185 304.072 83.6126 303.599 83.7618C303.127 83.911 301.661 81.1631 299.79 79.9835Z" fill="#E27E70"/>
<path d="M291.771 72.5179C291.802 72.4725 291.841 72.443 291.888 72.4277M291.888 72.4277C292.503 72.2235 294.372 74.5192 295.027 75.1558C295.73 75.8403 297.92 78.8038 299.79 79.9835C301.661 81.1631 303.127 83.911 303.599 83.7618C304.072 83.6126 302.658 79.4185 301.309 78.1207C299.961 76.8229 297.291 76.5839 296.564 75.6093C295.837 74.6348 294.705 72.9925 293.641 72.3898C292.789 71.9077 292.117 72.2142 291.888 72.4277Z" stroke="#3A2C08" stroke-width="0.2"/>
<path d="M293.828 91.452C288.943 91.1158 285.193 84.1112 284.615 83.6812C284.858 82.9851 286.629 82.664 287.969 82.9215C288.683 83.0585 289.137 83.2541 289.576 83.4652C289.962 83.6509 290.336 83.8485 290.865 84.0288C291.994 84.4142 294.039 82.829 297.524 83.0014C301.009 83.1738 302.799 85.4133 302.769 88.4655C302.739 91.5176 298.713 91.7883 293.828 91.452Z" fill="#E27E70" stroke="#3A2C08" stroke-width="0.2"/>
<path d="M291.753 72.4368C291.239 72.5532 291.536 74.7083 291.748 75.7714C292.35 75.6351 295.881 76.692 295.094 75.2668C294.307 73.8415 292.395 72.2914 291.753 72.4368Z" fill="#A9584D" stroke="#3A2C08" stroke-width="0.2"/>
<path d="M290.166 79.1481C289.569 81.237 291.5 83.0714 292.541 83.7275C295.6 85.3411 301.943 88.4246 302.836 87.8501C303.953 87.1321 303.432 84.5752 303.111 82.9034C302.791 81.2315 298.436 76.6357 296.636 75.8802C294.837 75.1247 293.666 74.5758 292.62 74.5801C291.575 74.5843 291.77 75.7031 291.87 76.1455C291.97 76.588 290.912 76.537 290.166 79.1481Z" fill="#EB5642" stroke="#3A2C08" stroke-width="0.2"/>
<path d="M304.128 70.5381C312.949 82.6559 322.439 96.5317 328.079 98.3023C333.283 101.006 333.767 101.1 332.866 95.7102C331.138 85.3749 309.244 73.5071 304.128 70.5381Z" fill="#1A1A1C" stroke="#3A2C08" stroke-width="0.2"/>
<path d="M323.119 95.3256C317.496 93.3127 312.547 86.7957 310.775 83.7888C310.643 82.1109 309.328 81.9842 309.083 82.7709C308.838 83.5576 312.791 88.9253 314.115 91.1233C315.44 93.3213 322.663 96.0235 327.49 98.2046C331.609 100.066 332.296 98.229 331.837 97.8621C330.135 96.5015 328.741 97.3385 323.119 95.3256Z" fill="#42924F" stroke="#3A2C08" stroke-width="0.2"/>
<path d="M304.614 80.8497C302.19 77.9215 305.302 71.3023 307.161 68.3586C308.887 67.549 308.448 69.2491 311.245 72.4653C314.041 75.6815 315.159 81.9518 313.249 83.7429C311.339 85.534 307.645 84.5099 304.614 80.8497Z" fill="#7ECEDF" stroke="#3A2C08" stroke-width="0.2"/>
<path d="M299.406 72.17C299.56 71.9957 300.127 71.8636 301.165 72.7295C301.214 72.7704 301.263 72.8171 301.312 72.8692C301.049 72.522 300.673 71.7033 301.278 71.2056C302.034 70.5835 302.684 71.3702 303.626 70.5275C304.567 69.6847 305.663 70.2362 305.848 71.0549C306.034 71.8736 304.367 77.4687 303.748 78.7336C303.658 80.3454 307.915 84.7966 307.108 85.3004C306.301 85.8042 306.059 85.4732 303.76 84.2486C301.92 83.2689 300.091 75.788 299.406 72.17Z" fill="#62A9B9"/>
<path d="M303.748 78.7336C303.658 80.3454 307.915 84.7966 307.108 85.3004C306.301 85.8042 306.059 85.4732 303.76 84.2486C301.92 83.2689 300.091 75.788 299.406 72.17C299.56 71.9957 300.127 71.8636 301.165 72.7295C301.214 72.7704 301.263 72.8171 301.312 72.8692M303.748 78.7336C303.339 77.1704 302.306 73.9213 301.312 72.8692M303.748 78.7336C304.367 77.4687 306.034 71.8736 305.848 71.0549C305.663 70.2362 304.567 69.6847 303.626 70.5275C302.684 71.3702 302.034 70.5835 301.278 71.2056C300.673 71.7033 301.049 72.522 301.312 72.8692" stroke="#3A2C08" stroke-width="0.2"/>
<path d="M303.141 71.4537C304.433 71.4792 305.031 72.0782 305.169 72.3745C307.438 76.2343 311.8 84.1001 311.098 84.6847C310.22 85.4156 307.274 85.4255 305.757 84.1576C304.239 82.8897 301.015 73.3567 300.895 72.917C300.775 72.4773 301.526 71.4219 303.141 71.4537Z" fill="#A5E1EF" stroke="#3A2C08" stroke-width="0.2"/>
<path d="M76.8028 100.161C63.9285 104.509 50.2197 127.854 44.9746 138.983C46.5243 139.566 50.0886 140.691 51.9482 140.536C54.2727 140.342 67.1471 129.666 67.3259 123.26C67.5047 116.854 85.0281 98.0254 82.8824 98.0254C81.1658 98.0254 78.1141 99.4489 76.8028 100.161Z" fill="#1A1A1C" stroke="#3A2C08" stroke-width="0.2"/>
<path d="M25.7368 41.0168C6.75163 49.6073 -8.0454 73.1639 -13.8028 89.648C-15.1803 93.4779 -14.0045 95.8983 -13.2444 96.6297C-9.41552 100.924 -16.3138 107.734 -5.26737 101.44C8.54073 93.5722 20.3609 73.689 24.7118 63.7972C35.7595 38.6804 58.9213 45.5102 64.4107 46.2C57.6533 43.3667 40.3253 34.4157 25.7368 41.0168Z" fill="#1A1A1C" stroke="#3A2C08" stroke-width="0.2"/>
<path d="M28.3262 136.978C37.5284 159.02 22.3234 131.008 20.4683 143.804C19.8886 143.469 11.1745 165.051 7.55703 143.804C3.93959 122.558 -12.8842 115.107 -21.0003 100.633C11.4512 108.421 20.4682 118.157 28.3262 136.978Z" fill="#1A1A1C" stroke="#3A2C08" stroke-width="0.2"/>
<path d="M43.1453 58.2257C32.2002 68.7985 23.2803 102.237 20.1885 117.634L22.9711 116.753C25.2127 110.628 29.7422 98.0498 29.9277 96.7407C30.1596 95.1045 36.7684 79.4971 37.9278 76.3505C39.0873 73.2038 46.8555 55.4567 46.1598 55.3308C45.6033 55.2301 43.9182 57.2188 43.1453 58.2257Z" fill="#89CB90" stroke="#3A2C08" stroke-width="0.2"/>
<path d="M37.2313 81.8869C31.1095 90.2444 23.1635 113.815 19.9557 124.555C16.6166 134.884 18.9509 139.851 20.5354 141.044C25.0186 128.206 33.9385 102.051 33.753 100.137C33.5211 97.746 36.7675 88.1802 37.2313 85.537C37.6951 82.8938 44.8836 71.44 37.2313 81.8869Z" fill="#1A1A1C" stroke="#3A2C08" stroke-width="0.2"/>
<path d="M44.8853 45.3857C43.1229 46.4933 38.0446 52.8957 35.7257 55.9584C28.2125 65.9038 21.2637 82.8477 17.6385 99.7598C14.3267 115.21 14.0498 130.654 13.3486 140.289C15.938 141.086 20.9313 142.202 20.1893 140.289C19.2617 137.897 23.7835 107.815 25.8705 96.6132C27.9575 85.4111 43.9577 49.4134 44.3055 48.2806C44.5239 47.5695 45.5645 46.065 45.7643 45.3857C45.8827 44.9828 45.7054 44.8702 44.8853 45.3857Z" fill="#3C9E7B"/>
<path d="M45.7643 45.3857C45.8827 44.9828 45.7054 44.8702 44.8852 45.3857C43.1229 46.4933 38.0446 52.8957 35.7257 55.9584C28.2125 65.9038 21.2637 82.8477 17.6385 99.7598C14.3267 115.21 14.0498 130.654 13.3486 140.289C15.938 141.086 20.9313 142.202 20.1893 140.289C19.2617 137.897 23.7835 107.815 25.8705 96.6132C27.9575 85.4111 43.9577 49.4134 44.3055 48.2806C44.5239 47.5695 45.5645 46.065 45.7643 45.3857ZM45.7643 45.3857C41.0376 51.0353 30.3634 66.8109 25.48 84.7167C20.5966 102.622 20.2105 110.473 20.6279 112.16" stroke="#3A2C08" stroke-width="0.2"/>
<g style="mix-blend-mode:multiply">
<path d="M25.3951 88.8981C27.5136 79.0596 40.3658 54.5401 45.6614 45.5371C45.0139 46.655 37.2471 65.2495 37.0705 66.0145C36.894 66.7794 32.4815 77.0753 31.9514 78.3123L31.9512 78.3126C31.4216 79.5483 27.1263 91.6111 26.7142 93.0821C26.3846 94.259 25.0862 101.34 24.4782 104.733C23.1445 114.344 20.4534 133.872 20.3592 135.096C20.2651 136.32 19.8493 139.764 19.6531 141.333H14.9463C17.2412 126.603 23.2765 98.7366 25.3951 88.8981Z" fill="#C4C4C4"/>
</g>
<path d="M36.023 90.8965C27.3272 105.623 21.1111 126.985 22.1543 133.278C24.7053 131.768 40.9372 107.853 41.4009 104.706C41.7719 102.189 47.3527 93.5882 50.0967 89.6024C50.4059 87.2948 50.4909 82.2517 48.3575 80.5399C45.6908 78.4002 44.7187 76.1702 36.023 90.8965Z" fill="#BECD7F" stroke="#3A2C08" stroke-width="0.2"/>
<g style="mix-blend-mode:multiply">
<path d="M43.906 97.2482C47.367 87.642 44.0674 81.6976 40.8125 83.3883C41.7365 82.2565 42.8584 80.4564 44.3462 79.5773C46.206 78.4783 47.9215 80.1989 48.6823 81.9319C49.291 83.3183 49.9786 86.5955 50.2463 88.0608L43.906 97.2482Z" fill="#C9D3A0"/>
</g>
<path d="M49.059 83.0204C47.4822 78.2878 44.8464 79.0346 43.7256 79.9996C46.5082 75.9719 49.8706 77.4822 52.7692 77.9857C55.6678 78.4892 56.8824 81.8825 58.3345 85.7894C59.1154 87.8905 60.0797 92.6317 58.3345 97.1114C57.7456 98.623 55.861 101.349 54.9721 102.146C50.2184 99.1253 51.03 88.9361 49.059 83.0204Z" fill="#CEDE8C"/>
<path d="M54.9721 102.146C50.2184 99.1253 51.03 88.9361 49.059 83.0204C47.4822 78.2878 44.8464 79.0346 43.7256 79.9996C46.5082 75.9719 49.8706 77.4822 52.7692 77.9857C55.6678 78.4892 56.8824 81.8825 58.3345 85.7894C59.1154 87.8905 60.0797 92.6317 58.3345 97.1114C57.7456 98.623 55.861 101.349 54.9721 102.146ZM54.9721 102.146C55.7064 100.328 56.7344 95.324 54.9721 89.8557C53.2098 84.3875 51.1181 81.0065 50.2926 79.9996" stroke="#3A2C08" stroke-width="0.2"/>
<g style="mix-blend-mode:multiply">
<path d="M55.569 101.393C59.6027 88.2524 53.509 78.8628 51.3887 77.7155C52.6633 77.4068 54.7881 78.6123 55.903 80.1521C57.2966 82.0768 58.9739 87.7423 59.1565 89.2249C59.308 90.4554 59.4117 94.1868 58.4997 96.7038C58.1792 97.5883 56.7528 100.358 55.569 101.393Z" fill="#CCCDC9"/>
</g>
<path d="M60.4208 75.7196C56.0149 78.3627 41.3017 100.93 39.5625 105.084C42.1906 106.217 47.9221 107.136 48.0148 104.417C48.1308 101.019 52.0728 94.2219 54.5076 88.432C56.9425 82.6422 64.8266 73.0764 60.4208 75.7196Z" fill="#3C9E7B" stroke="#3A2C08" stroke-width="0.2"/>
<path d="M61.7345 75.2676C58.3435 79.2502 51.85 87.8431 46.8623 101.284" stroke="#3A2C08" stroke-width="0.2" stroke-linecap="round" stroke-linejoin="round"/>
<path d="M16.13 93.8444C17.2431 95.1534 17.9078 97.5784 18.1011 98.6273C18.8431 106.884 16.3233 130.346 14.9706 141.044C12.9223 128.457 8.1995 101.975 5.69512 96.7392C3.19074 91.5032 -2.45957 91.7047 -4.97168 92.4599C3.84002 89.8167 14.7387 92.2081 16.13 93.8444Z" fill="#A0D1C0" stroke="#3A2C08" stroke-width="0.2"/>
<g style="mix-blend-mode:multiply">
<path d="M14.4806 110.05C11.9952 96.5474 4.23919 92.1336 0.115161 91.6983C-0.794592 91.6155 -2.03339 91.9032 -2.53906 92.0574C-1.65432 92.1142 0.415042 92.3343 1.61456 92.7603C3.11396 93.2929 5.40765 96.2348 5.95753 96.9909C6.50741 97.747 9.05059 109.226 9.463 110.05C9.87541 110.875 13.3809 132.802 13.6558 134.108C13.8758 135.152 14.6639 138.942 15.0305 140.706L16.288 130.247C16.5629 127.429 16.7059 122.14 14.4806 110.05Z" fill="#C4C4C4"/>
</g>
<path d="M1.03536 118.344C-8.0546 116.532 -12.5687 132.022 -13.6895 139.993C-11.3706 141.252 -6.59372 143.014 -6.03719 139.993C-5.48066 136.973 0.842124 127.239 3.93395 122.75L1.03536 118.344Z" fill="#78B77F" stroke="#3A2C08" stroke-width="0.2"/>
<g style="mix-blend-mode:multiply">
<path d="M0.321916 128.184C0.418334 122.981 -3.06346 120.369 -4.81641 119.713C-4.01325 118.91 -1.88593 118.388 -0.922666 118.228C-0.574743 118.361 0.257596 118.958 0.803568 120.275C1.34954 121.592 1.99453 124.035 2.24879 125.092L0.321916 128.184Z" fill="#C4C4C4"/>
</g>
<path d="M3.35503 140.245C2.52023 138.936 4.4718 122.983 -0.977539 118.2C0.426277 117.706 1.92157 117.739 3.35503 118.114C6.30205 118.884 8.98771 121.095 10.0797 123.127C11.3783 125.544 14.1764 136.595 14.9494 140.875L3.35503 140.245Z" fill="#89CB90"/>
<path d="M3.35503 118.114C6.30205 118.884 8.98771 121.095 10.0797 123.127C11.3783 125.544 14.1764 136.595 14.9494 140.875L3.35503 140.245C2.52023 138.936 4.4718 122.983 -0.977539 118.2C0.426277 117.706 1.92157 117.739 3.35503 118.114ZM3.35503 118.114C4.56254 119.159 7.04204 122.989 7.2999 129.951" stroke="#3A2C08" stroke-width="0.2"/>
<path d="M51.5678 124.875C44.704 123.969 37.0363 135.196 34.4082 140.86C36.6498 142.916 41.9677 145.643 45.3069 140.105C48.6461 134.567 57.8288 129.574 62.0027 127.77C61.1525 127.225 58.4317 125.781 51.5678 124.875Z" fill="#407B4D" stroke="#3A2C08" stroke-width="0.2"/>
<g style="mix-blend-mode:multiply">
<path d="M53.0788 128.537C49.3336 128.227 46.7271 127.382 45.5928 126.742C46.1496 126.206 47.7705 125.097 49.7997 124.948C52.3363 124.763 54.9347 125.753 56.0483 126.742C56.9392 127.534 59.5954 128.062 60.8121 128.227L56.6372 130.372C56.4723 129.898 55.5045 128.737 53.0788 128.537Z" fill="#C4C4C4"/>
</g>
<path d="M64.0079 123.456C57.7933 121.543 51.8005 123.953 50.4092 124.75C54.8052 124.75 55.5291 127.486 61.1919 128.4C66.8859 129.319 67.9364 129.278 72.1384 133.116C71.3268 131.48 70.2225 125.37 64.0079 123.456Z" fill="#549863"/>
<path d="M72.1384 133.116C71.3268 131.48 70.2225 125.37 64.0079 123.456C57.7933 121.543 51.8005 123.953 50.4092 124.75C54.8052 124.75 55.5291 127.486 61.1919 128.4C66.8859 129.319 67.9364 129.278 72.1384 133.116ZM72.1384 133.116C70.3669 130.98 66.2607 126.431 64.0079 125.323C61.7551 124.215 58.12 124.169 56.5841 124.285" stroke="#3A2C08" stroke-width="0.2"/>
<g style="mix-blend-mode:multiply">
<path d="M55.8784 124.176C54.4864 123.811 52.4811 124.024 51.6524 124.176L50.4512 124.714C51.335 124.852 53.2849 125.203 54.0141 125.501C54.9255 125.874 57.0799 127.2 58.0742 127.78C59.0685 128.36 65.9457 129.313 66.8572 129.396C67.5863 129.462 70.5306 131.771 71.9116 132.917C71.5801 131.674 67.4786 128.236 64.91 127.78C62.3414 127.324 57.6184 124.631 55.8784 124.176Z" fill="#C4C4C4"/>
</g>
<path d="M-9.44922 53.6935C-15.6573 59.0468 -17.1366 97.2689 -17.1132 115.019L-15.954 114.997C-17.0309 82.2863 -11.5456 59.3977 -11.2167 58.3844C-10.8878 57.3711 -9.36904 57.9721 -8.54579 58.5861C-7.72254 59.2002 -2.39007 59.1002 -3.35519 57.1041C-4.32031 55.108 -8.11276 56.9415 -8.79886 57.4579C-9.48497 57.9743 -10.4383 56.6074 -9.65749 54.9562C-8.87669 53.305 -3.94623 50.3172 -1.42187 48.8851C1.1025 47.4531 2.75372 48.9328 2.76787 49.6878C2.78202 50.4429 2.4767 52.7146 3.90551 54.702C5.33432 56.6895 8.08346 54.8755 7.68852 52.3652C7.29359 49.8548 3.67639 48.6637 3.43511 48.1647C3.19383 47.6656 4.46899 47.6418 6.09662 47.863C7.72427 48.0843 16.7568 47.4115 17.6937 47.8975C18.6305 48.3835 19.8345 50.7528 21.0197 52.1153C22.2049 53.4779 24.561 55.448 25.0035 54.3067C25.446 53.1654 24.0054 50.5487 22.9432 49.5615C21.881 48.5743 18.4957 47.3789 18.8434 47.3724C19.1912 47.3659 23.1279 47.0403 25.0986 47.0034C27.0693 46.9664 33.9822 44.5709 34.6777 44.5579C35.3733 44.5448 36.6744 45.9052 38.089 47.1376C39.5037 48.37 41.9452 48.7019 42.3971 48.064C42.849 47.4261 42.4752 46.0483 40.5969 44.8246C39.0942 43.8457 36.5531 43.5576 35.4703 43.5359C36.852 43.0065 39.9253 39.9276 41.281 38.0138C42.6367 36.1001 43.6163 32.6828 43.9452 31.6695C44.2741 30.6562 47.0563 30.6041 49.4836 30.1809C51.9109 29.7578 54.4093 26.9414 51.0311 26.1235C47.6528 25.3056 45.0597 29.2567 45.0526 28.8792C45.0469 28.5772 45.1796 27.4081 45.2467 26.8614C45.6458 25.4691 46.6716 22.4538 47.582 21.5303C48.72 20.376 49.5056 18.9765 50.433 18.9591C51.3603 18.9417 51.5106 19.5684 51.3768 19.8226C50.8137 20.7144 50.8491 22.6021 51.7671 22.0813C52.685 21.5606 52.4249 20.0548 52.2972 19.4277C52.1694 18.8007 51.332 17.4316 48.4717 19.4994C46.1834 21.1537 45.2027 24.5123 44.9984 25.9848C45.1618 22.331 43.7047 18.8334 43.7 18.5817C43.6953 18.33 44.6014 17.1801 45.0604 16.9197C45.5194 16.6593 45.9548 15.1405 44.5637 15.1666C43.1726 15.1926 43.3451 18.2107 42.8579 16.961C42.3706 15.7112 40.2392 13.3593 39.4253 13.2486C38.6115 13.138 38.6493 15.1515 40.2863 15.8762C41.9234 16.6008 42.5242 17.7225 43.3616 19.0916C43.8368 19.8685 44.1783 21.7061 44.33 23.4796C43.5916 22.5283 41.9511 20.5532 41.2963 20.2633C40.4777 19.901 39.2144 20.5541 39.3468 21.4329C39.4792 22.3116 43.2333 22.8707 44.3536 24.738C44.4022 25.6138 44.4272 26.4475 44.44 27.1282C44.4684 28.646 42.9488 33.2835 41.1415 36.7576C40.7997 36.8885 40.7938 36.7667 40.6106 32.9869L40.6047 32.8651C40.4157 28.9661 36.3584 29.0421 36.053 31.3138C35.7477 33.5856 39.5897 34.3948 39.2561 35.1564C38.9892 35.7656 39.8009 37.4121 40.2401 38.1592C39.4971 39.402 38.662 40.3245 37.9735 40.9712C35.8441 42.9714 30.5482 44.802 27.1607 45.6549C27.0435 45.5902 26.8773 45.3839 27.1498 45.0766C27.4905 44.6926 30.5662 41.7395 29.9394 39.2335C29.3126 36.7275 27.2614 38.6542 27.4009 39.9105C27.5404 41.1668 27.4551 42.8049 27.1239 43.6923C26.8589 44.4023 25.4977 45.6111 24.8502 46.1268C23.198 46.329 16.6695 46.739 11.5293 46.9227C11.1852 47.1247 10.541 47.4021 10.717 46.8953C10.9371 46.2617 12.8795 44.7146 14.0175 43.5603C15.1555 42.406 16.8165 38.2205 14.614 38.2618C12.4114 38.3031 11.9167 42.8443 11.4837 44.489C11.1373 45.8047 10.056 46.6843 9.55861 46.9596C7.83638 47.0064 6.73301 47.0318 5.84827 46.9865C2.24994 46.8022 -1.68909 47.0019 -9.44922 53.6935Z" fill="#4D8F6C" stroke="#3A2C08" stroke-width="0.2"/>
<path d="M56.5906 113.258C53.7152 112.754 49.1316 110.531 47.1992 109.482C47.1992 107.266 50.6775 107.468 52.4167 107.845C53.808 108.643 57.008 110.413 58.6776 111.118C60.3472 111.823 63.5472 111.412 64.9386 111.118V112.251C63.6632 114.265 60.1849 113.887 56.5906 113.258Z" fill="#A0A2C1" stroke="#3A2C08" stroke-width="0.2"/>
<path d="M33.9053 108.194C28.1081 113.481 21.8472 130.724 19.5283 141.171L32.0502 140.541C31.3546 137.017 35.0647 128.207 39.1228 118.137C42.3692 110.082 49.7509 108.152 53.036 108.194C51.3355 107.397 47.5171 105.677 45.8475 105.173C43.7605 104.544 40.1385 102.509 33.9053 108.194Z" fill="#8D8FB3"/>
<path d="M53.036 108.194C51.3355 107.397 47.5171 105.677 45.8475 105.173C43.7605 104.544 40.1385 102.509 33.9053 108.194C28.1081 113.481 21.8472 130.724 19.5283 141.171L32.0502 140.541C31.3546 137.017 35.0647 128.207 39.1228 118.137C42.3692 110.082 49.7509 108.152 53.036 108.194ZM53.036 108.194C48.5812 107.808 37.9791 109.931 31.2089 121.51" stroke="#3A2C08" stroke-width="0.2"/>
<g style="mix-blend-mode:multiply">
<path d="M29.8462 124.425C35.6848 110.802 46.7569 108.065 51.8025 108.276C50.9837 108.269 48.7519 108.724 46.4604 109.884C44.1742 111.042 42.7018 112.194 40.6582 115.055C39.7572 116.316 33.7698 131.707 32.6392 134.426C31.9067 136.189 32.1286 139.412 32.0986 140.733L20.5567 141.181C20.527 141.186 20.4999 141.187 20.4756 141.184L20.5567 141.181C21.3704 141.034 24.2134 137.568 29.8462 124.425Z" fill="#C4C4C4"/>
</g>
<path d="M42.4803 123.95C40.7874 121.465 28.5751 137.02 25.29 141.174L29.05 140.979C30.2558 137.052 37.439 127.441 43.5237 123.95H42.4803Z" fill="#F2C69C" stroke="#3A2C08" stroke-width="0.2"/>
<path d="M42.216 122.542C41.3658 121.661 39.9204 119.37 40.9407 117.256C42.216 114.613 43.4915 118.263 43.3755 121.787C44.0712 120.612 45.8104 118.162 47.2017 117.759C46.3901 118.766 44.7901 120.881 44.8828 121.284C46.2741 120.277 49.6133 118.338 51.8394 118.641C54.6221 119.018 51.6075 121.787 48.4771 122.542C47.4415 122.792 46.7006 122.907 46.1823 122.944C48.5203 123.328 51.8693 124.222 52.1873 125.689C52.651 127.829 49.6365 128.962 46.3901 126.067C46.1189 125.825 45.8891 125.609 45.6944 125.416C46.2355 126.388 47.2249 128.634 46.8539 129.843C46.3901 131.353 41.9841 131.856 42.216 123.927C41.675 124.263 40.3146 124.858 39.2016 124.556C37.8103 124.179 36.6508 123.297 37.1146 122.542C37.5784 121.787 39.5493 120.151 42.216 122.542Z" fill="#EB5642"/>
<path d="M44.6509 123.927C44.6509 124.133 44.8069 124.536 45.6944 125.416M45.6944 125.416C45.8891 125.609 46.1189 125.825 46.3901 126.067C49.6365 128.962 52.651 127.829 52.1873 125.689C51.8162 123.977 47.3176 123.046 45.1147 122.794C45.192 122.962 45.9727 123.146 48.4771 122.542C51.6075 121.787 54.6221 119.018 51.8394 118.641C49.6133 118.338 46.2741 120.277 44.8828 121.284C44.7901 120.881 46.3901 118.766 47.2017 117.759C45.8104 118.162 44.0712 120.612 43.3755 121.787C43.4915 118.263 42.216 114.613 40.9407 117.256C39.9204 119.37 41.3658 121.661 42.216 122.542C39.5493 120.151 37.5784 121.787 37.1146 122.542C36.6508 123.297 37.8103 124.179 39.2016 124.556C40.3146 124.858 41.675 124.263 42.216 123.927C41.9841 131.856 46.3901 131.353 46.8539 129.843C47.2249 128.634 46.2355 126.388 45.6944 125.416Z" stroke="#3A2C08" stroke-width="0.2"/>
<g style="mix-blend-mode:multiply">
<path d="M49.2369 125.014C47.7556 125.305 45.534 124.496 44.6084 124.056C45.1376 124.982 47.4186 127.097 48.3774 127.395C49.3362 127.693 51.3862 128.023 52.0474 126.767C52.5764 125.762 51.5625 124.717 50.9894 124.32C51.0225 124.43 50.7183 124.723 49.2369 125.014Z" fill="#C4C4C4"/>
</g>
<g style="mix-blend-mode:multiply">
<path d="M46.7212 128.233C44.8756 127.829 42.9603 125.81 42.2334 124.852C42.3071 125.557 42.5176 127.222 42.7705 128.233C43.0865 129.498 44.4455 130.951 45.9626 130.667C47.1762 130.439 46.974 128.95 46.7212 128.233Z" fill="#C4C4C4"/>
</g>
<path d="M269.453 120.93C262.74 125.864 264.112 144.121 265.637 152.634L277.806 155.141L269.453 120.93Z" fill="#5F572D" stroke="#3A2C08" stroke-width="0.2"/>
<path d="M273.996 105.168C264.803 122.639 272.109 145.726 276.911 155.087L282.126 156.161C280.269 151.982 276.088 141.118 274.217 131.102C272.346 121.086 279.817 101.838 283.786 93.4652C284.352 90.087 283.188 87.6983 273.996 105.168Z" fill="#1A1A1C" stroke="#3A2C08" stroke-width="0.2"/>
<path d="M255.692 118.612C251.907 123.786 252.027 145.816 252.173 146.364C252.212 147.407 252.028 148.836 251.931 149.42L266.905 152.765C265.096 146.05 261.439 131.549 261.285 127.272C261.093 121.925 265.463 110.14 264.093 110.505C262.724 110.87 259.476 113.437 255.692 118.612Z" fill="#1A1A1C" stroke="#3A2C08" stroke-width="0.2"/>
<path d="M307.731 131.149C308.111 129.933 318.17 110.648 324.594 108.995C328.616 107.96 330.903 108.084 331.953 108.403C332.162 108.501 332.362 108.598 332.552 108.693C332.441 108.595 332.245 108.491 331.953 108.403C327.158 106.154 317.448 103.26 312.542 107.805C307.422 112.549 304.659 118.003 303.917 120.137L307.731 131.149Z" fill="#0E4B37" stroke="#3A2C08" stroke-width="0.2"/>
<path d="M289.518 103.966C282.487 112.458 282.187 128.861 282.916 136.001L291.277 130.605C292.978 124.656 296.383 112.111 296.398 109.526C296.413 106.94 299.019 97.8552 300.32 93.636C299.649 93.5409 296.55 95.4738 289.518 103.966Z" fill="#1A1A1C" stroke="#3A2C08" stroke-width="0.2"/>
<path d="M296.093 109.722C293.805 113.289 283.218 147.116 281.536 152.767C283.886 158.946 293.186 159.63 293.391 158.637L297.004 141.105C302.652 110.556 315.203 98.6448 318.283 95.0078C320.746 92.0983 328.443 87.9977 331.984 86.3111C331.241 85.7266 327.81 84.9589 320.023 86.5644C310.289 88.5712 298.954 105.263 296.093 109.722Z" fill="#1D6D52"/>
<path d="M331.984 86.3111C331.241 85.7266 327.81 84.959 320.023 86.5644C310.289 88.5712 298.954 105.263 296.093 109.722C293.805 113.289 283.218 147.116 281.536 152.767C283.886 158.946 293.186 159.63 293.391 158.637C293.595 157.644 296.586 143.133 297.004 141.105C302.652 110.556 315.203 98.6448 318.283 95.0078C320.746 92.0983 328.443 87.9977 331.984 86.3111ZM331.984 86.3111C325.732 87.8585 306.47 98.195 300.93 109.532" stroke="#3A2C08" stroke-width="0.2"/>
<path d="M309.563 128.549C300.733 131.7 295.615 144.099 294.224 149.594L299.525 157.158L305.591 161.644C304.321 153.357 308.227 144.454 310.325 138.673C313.078 131.086 324.914 126.923 323.325 126.467C321.737 126.01 320.601 124.611 309.563 128.549Z" fill="#3FAA86"/>
<path d="M323.325 126.467C321.737 126.01 320.601 124.611 309.563 128.549C300.733 131.7 295.615 144.099 294.224 149.594L299.525 157.158L305.591 161.644C304.321 153.357 308.227 144.454 310.325 138.673C313.078 131.086 324.914 126.923 323.325 126.467ZM323.325 126.467C319.086 127.145 309.456 130.194 304.849 136.967C300.242 143.74 299.111 150.28 299.121 152.704" stroke="#3A2C08" stroke-width="0.2"/>
<g style="mix-blend-mode:multiply">
<path d="M312.602 134.838C307.071 140.803 304.907 152.003 305.559 161.611L301.615 159.55C301.183 158.952 300.543 156 301.437 148.972C302.554 140.187 312.205 131.287 314.53 130.102C316.39 129.154 321.065 127.197 323.586 126.63C322.743 128.216 318.692 128.27 312.602 134.838Z" fill="#C4C4C4"/>
</g>
<path d="M243.527 115.457C234.488 123.639 239.469 140.38 243.089 147.728L250.54 149.263L257.99 150.799C255.183 145.992 250.243 135.378 248.477 127.868C246.71 120.359 253.658 111.936 257.91 109.102C256.882 107.811 252.565 107.275 243.527 115.457Z" fill="#1D6D52"/>
<path d="M250.54 149.263L257.99 150.799C255.183 145.992 250.243 135.378 248.477 127.868C246.71 120.359 253.658 111.936 257.91 109.102C256.882 107.811 252.565 107.275 243.527 115.457C234.488 123.639 239.469 140.38 243.089 147.728L250.54 149.263ZM250.54 149.263C247.533 145.778 241.555 136.049 243.86 124.865" stroke="#3A2C08" stroke-width="0.2"/>
<g style="mix-blend-mode:multiply">
<path d="M245.775 120.835C242.447 130.964 249.327 144.063 252.53 149.636L257.946 150.752C256.234 147.123 252.502 139.146 251.268 136.268C249.725 132.67 248.019 126.91 248.436 123.483C248.731 121.055 250.928 116.887 252.123 114.91C253.079 113.328 256.363 110.418 257.886 109.16L257.884 109.005C257.653 108.607 256.825 108.335 256.441 108.249C254.171 108.813 248.791 111.653 245.775 120.835Z" fill="#C4C4C4"/>
</g>
<path d="M255.901 112.571C250.847 123.024 258.296 143.386 262.629 152.089L268.465 153.291L274.301 154.494C273.667 153.803 271.622 150.475 268.696 144.073C265.77 137.671 258.947 120.404 255.901 112.571Z" fill="#B7AD72"/>
<path d="M268.465 153.291L274.301 154.494C273.667 153.803 271.622 150.475 268.696 144.073C265.77 137.671 258.947 120.404 255.901 112.571C250.847 123.024 258.296 143.386 262.629 152.089L268.465 153.291ZM268.465 153.291C266.571 150.33 262.041 141.311 259.248 130.304" stroke="#3A2C08" stroke-width="0.2"/>
<g style="mix-blend-mode:multiply">
<path d="M255.931 112.78C255.443 112.301 255.125 114.524 255.013 115.512C254.637 122.244 261.115 126.535 264.182 133.285C264.269 133.487 264.357 133.688 264.444 133.889C264.36 133.685 264.273 133.484 264.182 133.285C260.038 123.692 256.648 113.485 255.931 112.78Z" fill="#C4C4C4"/>
</g>
<path d="M231.358 134.307C231.571 135.283 236.916 143.348 239.562 147.259L231.864 145.672C228.654 141.775 231.092 133.087 231.358 134.307Z" fill="#1A1A1C" stroke="#3A2C08" stroke-width="0.2"/>
<path d="M234.851 128.037C233.589 134.162 237.231 143.284 239.489 146.986L241.972 147.498C234.936 138.928 236.13 121.829 234.851 128.037Z" fill="#3C9E7B" stroke="#3A2C08" stroke-width="0.2"/>
<path d="M221.497 136.935C221.33 138.247 223.075 142.049 223.968 143.787L217.263 142.405C216.453 140.685 221.706 135.295 221.497 136.935Z" fill="#009261"/>
<path d="M221.497 136.935C221.33 138.247 223.075 142.049 223.968 143.787L217.263 142.405C216.453 140.685 221.706 135.295 221.497 136.935ZM221.497 136.935C220.847 137.425 219.767 138.613 220.012 140.043C220.258 141.473 220.562 142.212 220.763 142.328" stroke="#3A2C08" stroke-width="0.2"/>
<g style="mix-blend-mode:multiply">
<path d="M220.796 143.14L223.129 143.621L224.053 143.811C223.546 142.782 222.46 140.566 222.168 139.936C221.875 139.307 221.646 137.757 221.568 137.06C221.235 137.229 220.468 137.857 220.063 139.021C219.657 140.185 220.383 142.252 220.796 143.14Z" fill="#C4C4C4"/>
</g>
<path d="M306.719 104.662C305.305 104.992 303.848 106.659 303.296 107.452L302.507 106.254L303.14 104.442C304.813 103.234 308.486 104.25 306.719 104.662Z" fill="#669460" stroke="#3A2C08" stroke-width="0.2"/>
<path d="M280.167 95.9551C271.127 111.178 274.23 141.719 276.912 155.087L282.562 156.251L288.211 157.415C285.806 152.13 281.398 137.087 283.014 119.194C285.035 96.8289 297.776 82.1095 299.307 79.7067C300.838 77.3039 306.233 73.1086 304.542 73.1485C302.851 73.1883 291.466 76.9259 280.167 95.9551Z" fill="#B7AD72"/>
<path d="M282.562 156.251L288.211 157.415C285.806 152.13 281.398 137.087 283.014 119.194C285.035 96.8289 297.776 82.1095 299.307 79.7067C300.838 77.3039 306.233 73.1086 304.542 73.1485C302.851 73.1883 291.466 76.9259 280.167 95.9551C271.127 111.178 274.23 141.719 276.912 155.087L282.562 156.251ZM282.562 156.251C279.548 143.674 275.012 115.306 280.978 102.446C286.944 89.5847 290.532 84.7295 291.58 83.9096" stroke="#3A2C08" stroke-width="0.2"/>
<g style="mix-blend-mode:multiply">
<path d="M282.897 132.65C282.812 132.148 282.729 131.606 282.648 131.03C282.355 126.776 283.295 117.376 283.635 114.479C284.031 111.109 286.857 102.066 288.109 98.407C289.361 94.7484 294.424 86.9298 296.522 83.5121C298.621 80.0944 303.642 75.0552 303.842 74.7313C304.041 74.4073 305.11 73.7314 304.927 73.3286C304.781 73.0065 303.839 73.112 303.387 73.205C301.123 73.9027 294.78 78.3802 287.511 90.7083C280.656 102.335 281.301 121.472 282.648 131.03C282.695 131.724 282.776 132.281 282.897 132.65Z" fill="#C4C4C4"/>
</g>
<path d="M282.151 139.079C281.437 145.559 288.625 154.565 292.308 158.258C293.825 158.571 295.697 158.951 297.557 159.321C302.689 160.34 307.724 161.275 304.926 160.47C300.16 159.1 291.848 139.136 290.822 135.947C289.797 132.759 290.974 127.047 288.658 127.605C286.343 128.163 283.044 130.979 282.151 139.079Z" fill="#89C880"/>
<path d="M287.782 140.239C288.065 143.512 290.416 151.909 297.557 159.321M297.557 159.321C302.689 160.34 307.724 161.275 304.926 160.47C300.16 159.1 291.848 139.136 290.822 135.947C289.797 132.759 290.974 127.047 288.658 127.605C286.343 128.163 283.044 130.979 282.151 139.079C281.437 145.559 288.625 154.565 292.308 158.258C293.825 158.571 295.697 158.951 297.557 159.321Z" stroke="#3A2C08" stroke-width="0.2"/>
<path d="M296.335 111.713C290.447 128.725 302.631 151.929 312.227 162.105L317.323 163.374L324.293 165.109C317.343 163.03 308.35 131.923 305.741 123.23C303.891 117.07 302.801 108.601 303.389 104.494C298.913 104.607 297.005 109.09 296.335 111.713Z" fill="#76AE6E"/>
<path d="M303.389 104.494C298.913 104.607 297.005 109.09 296.335 111.713C290.447 128.725 302.631 151.929 312.227 162.105L317.323 163.374M303.389 104.494C302.801 108.601 303.891 117.07 305.741 123.23C308.35 131.923 317.343 163.03 324.293 165.109L317.323 163.374M303.389 104.494C301.734 107.024 299.458 110.502 298.796 116.795C297.387 130.184 305.368 147.973 309.598 153.817C312.982 158.492 316.158 162.136 317.323 163.374" stroke="#3A2C08" stroke-width="0.2"/>
<g style="mix-blend-mode:multiply">
<path d="M307.136 137.652C311.027 150.045 317.293 160.357 319.939 163.964L324.082 164.818C322.15 164.42 320.535 161.074 318.645 158.411C316.756 155.747 310.107 137.419 307.053 128.278C304.609 120.966 303.372 109.566 303.059 104.78C301.591 112.534 302.271 122.16 307.136 137.652Z" fill="#C4C4C4"/>
</g>
<g style="mix-blend-mode:multiply">
<path d="M287.302 133.841C287.372 138.614 295.067 155.83 299.914 159.75L305.464 160.893C299.193 158.303 290.85 136.3 290.714 135.43C290.577 134.559 290.3 130.028 290.164 129.158C290.055 128.462 289.672 127.969 289.494 127.809C288.71 128.121 287.233 129.068 287.302 133.841Z" fill="#C4C4C4"/>
</g>
<path d="M101.2 114.566C100.657 107.526 102.568 101.262 104.756 99.3691C107.239 102.444 111.374 109.809 110.096 109.525C108.5 109.17 104.257 113.49 103.015 115.796C101.773 118.102 101.696 120.995 101.2 114.566Z" fill="#6C6E89" stroke="#3A2C08" stroke-width="0.2" stroke-linecap="round" stroke-linejoin="round"/>
<g style="mix-blend-mode:multiply">
<path d="M105.205 112.807C106.358 109.781 103.908 105.417 102.527 103.696C102.527 102.975 103.448 101.194 103.909 100.394C105.782 100.922 108.676 106.754 109.857 109.475C108.952 109.337 106.466 111.666 105.205 112.807Z" fill="#C4C4C4"/>
</g>
<path d="M132.476 120.523C128.076 119.955 121.536 134.361 118.815 141.635H132.476L136.734 134.716C137.148 130.222 136.876 121.091 132.476 120.523Z" fill="#9CAA65" stroke="#3A2C08" stroke-width="0.2" stroke-linecap="round" stroke-linejoin="round"/>
<path d="M146.138 122.119C144.187 117.861 137.374 115.36 131.722 120.394C134.028 120.394 135.671 123.184 136.558 126.2C137.268 128.612 136.854 138.086 136.558 142.521H146.138C146.789 137.14 147.7 125.526 146.138 122.119Z" fill="#BECD7F" stroke="#3A2C08" stroke-width="0.2" stroke-linecap="round" stroke-linejoin="round"/>
<g style="mix-blend-mode:multiply">
<path d="M139.415 125.816C139.334 120.813 135.218 118.553 134.895 118.23C134.008 118.23 132.474 119.441 131.99 120.329C133.362 120.329 135.622 123.234 136.671 125.816C137.51 127.882 137.021 137.975 136.671 142.763H138.446C138.85 140.504 139.495 130.82 139.415 125.816Z" fill="#C4C4C4"/>
</g>
<g style="mix-blend-mode:multiply">
<path d="M133.784 138.863C135.038 133.17 129.482 127.851 126.479 125.908C128.873 121.927 131.668 118.264 134.844 122.285C137.385 125.501 137.067 132.497 136.558 135.244L133.784 138.863Z" fill="#C4C4C4"/>
</g>
<path d="M141.088 123.439C143.619 125.824 142.739 132.28 141.674 142.52" stroke="#3A2C08" stroke-width="0.2" stroke-linecap="round" stroke-linejoin="round"/>
<path d="M139.369 100.12C121.202 101.397 100.22 129.63 92 143.586C92 146.957 107.612 150.682 106.725 143.586C105.838 136.489 124.466 115.2 129.789 108.104C134.046 102.426 137.949 100.416 139.369 100.12Z" fill="#1A1A1C" stroke="#3A2C08" stroke-width="0.2" stroke-linecap="round" stroke-linejoin="round"/>
<g style="mix-blend-mode:multiply">
<path d="M107.591 139.298C107.919 135.91 105.633 128.962 104.449 125.911C105.901 123.475 110.762 118.385 113.011 116.145C113.745 120.144 114.773 128.562 113.011 130.231C111.249 131.901 108.664 137.149 107.591 139.564C107.455 140.887 107.263 142.685 107.591 139.298Z" fill="#232323"/>
</g>
<path d="M121.627 102.782C124.04 107.608 126.48 133.146 127.722 144.5H108.215C108.511 143.731 114.051 138.544 113.111 124.426C112.109 109.372 106.609 103.708 103.886 100.298C105.2 97.9583 106.816 96.6249 109.743 96.1585C113.885 95.4983 118.611 96.7503 121.627 102.782Z" fill="#8D8FB2" stroke="#3A2C08" stroke-width="0.2" stroke-linecap="round" stroke-linejoin="round"/>
<path d="M108.328 96.541C111.626 97.2664 120.299 101.194 120.299 122.857" stroke="#3A2C08" stroke-width="0.2" stroke-linecap="round" stroke-linejoin="round"/>
<g style="mix-blend-mode:multiply">
<path d="M117.494 119.245C116.185 108.767 111.203 99.4508 106.841 97.4062C106.048 97.7116 104.269 98.9553 103.591 100.256C106.955 103.081 112.481 112.415 113.105 124.031C113.617 133.575 110.718 140.955 108.291 144.465H117.494C118.848 140.203 118.855 130.126 117.494 119.245Z" fill="#C4C4C4"/>
</g>
</g>
<path d="M33.798 54.096V60.19H30.498V57H19.63V60.19H16.33L16.352 54.096H16.968C17.892 54.0667 18.5447 53.392 18.926 52.072C19.3073 50.752 19.542 48.8673 19.63 46.418L19.806 41.6H31.642V54.096H33.798ZM22.776 46.748C22.7027 48.5813 22.5487 50.1213 22.314 51.368C22.0793 52.6 21.72 53.5093 21.236 54.096H28.122V44.504H22.842L22.776 46.748ZM41.3268 57.176C40.0801 57.176 38.9581 56.9193 37.9608 56.406C36.9781 55.878 36.2081 55.152 35.6508 54.228C35.0935 53.304 34.8148 52.2553 34.8148 51.082C34.8148 49.9087 35.0935 48.86 35.6508 47.936C36.2081 47.012 36.9781 46.2933 37.9608 45.78C38.9581 45.252 40.0801 44.988 41.3268 44.988C42.5735 44.988 43.6881 45.252 44.6708 45.78C45.6535 46.2933 46.4235 47.012 46.9808 47.936C47.5381 48.86 47.8168 49.9087 47.8168 51.082C47.8168 52.2553 47.5381 53.304 46.9808 54.228C46.4235 55.152 45.6535 55.878 44.6708 56.406C43.6881 56.9193 42.5735 57.176 41.3268 57.176ZM41.3268 54.36C42.2068 54.36 42.9255 54.0667 43.4828 53.48C44.0548 52.8787 44.3408 52.0793 44.3408 51.082C44.3408 50.0847 44.0548 49.2927 43.4828 48.706C42.9255 48.1047 42.2068 47.804 41.3268 47.804C40.4468 47.804 39.7208 48.1047 39.1488 48.706C38.5768 49.2927 38.2908 50.0847 38.2908 51.082C38.2908 52.0793 38.5768 52.8787 39.1488 53.48C39.7208 54.0667 40.4468 54.36 41.3268 54.36ZM55.8093 57.176C54.548 57.176 53.4113 56.9193 52.3993 56.406C51.402 55.878 50.6173 55.152 50.0453 54.228C49.488 53.304 49.2093 52.2553 49.2093 51.082C49.2093 49.9087 49.488 48.86 50.0453 47.936C50.6173 47.012 51.402 46.2933 52.3993 45.78C53.4113 45.252 54.548 44.988 55.8093 44.988C57.056 44.988 58.1413 45.252 59.0653 45.78C60.004 46.2933 60.686 47.034 61.1113 48.002L58.4493 49.432C57.8333 48.3467 56.946 47.804 55.7873 47.804C54.8927 47.804 54.152 48.0973 53.5653 48.684C52.9787 49.2707 52.6853 50.07 52.6853 51.082C52.6853 52.094 52.9787 52.8933 53.5653 53.48C54.152 54.0667 54.8927 54.36 55.7873 54.36C56.9607 54.36 57.848 53.8173 58.4493 52.732L61.1113 54.184C60.686 55.1227 60.004 55.856 59.0653 56.384C58.1413 56.912 57.056 57.176 55.8093 57.176ZM73.0979 47.98H69.0939V57H65.6839V47.98H61.6799V45.164H73.0979V47.98ZM79.5253 44.988C81.3587 44.988 82.7667 45.428 83.7493 46.308C84.732 47.1733 85.2233 48.486 85.2233 50.246V57H82.0113V55.526C81.366 56.626 80.1633 57.176 78.4033 57.176C77.494 57.176 76.702 57.022 76.0273 56.714C75.3673 56.406 74.8613 55.9807 74.5093 55.438C74.1573 54.8953 73.9813 54.2793 73.9813 53.59C73.9813 52.49 74.392 51.6247 75.2133 50.994C76.0493 50.3633 77.3327 50.048 79.0633 50.048H81.7913C81.7913 49.3 81.564 48.728 81.1093 48.332C80.6547 47.9213 79.9727 47.716 79.0633 47.716C78.4327 47.716 77.8093 47.8187 77.1933 48.024C76.592 48.2147 76.0787 48.4787 75.6533 48.816L74.4213 46.418C75.0667 45.9633 75.8367 45.6113 76.7313 45.362C77.6407 45.1127 78.572 44.988 79.5253 44.988ZM79.2613 54.866C79.848 54.866 80.3687 54.734 80.8233 54.47C81.278 54.1913 81.6007 53.788 81.7913 53.26V52.05H79.4373C78.0293 52.05 77.3253 52.512 77.3253 53.436C77.3253 53.876 77.494 54.228 77.8313 54.492C78.1833 54.7413 78.66 54.866 79.2613 54.866ZM97.2467 50.818C98.64 51.2873 99.3367 52.226 99.3367 53.634C99.3367 54.7047 98.9334 55.5333 98.1267 56.12C97.32 56.7067 96.1174 57 94.5187 57H88.2047V45.164H94.2547C95.736 45.164 96.8947 45.4353 97.7307 45.978C98.5667 46.506 98.9847 47.254 98.9847 48.222C98.9847 48.8087 98.8307 49.3293 98.5227 49.784C98.2294 50.224 97.804 50.5687 97.2467 50.818ZM91.3507 50.026H93.9467C95.1494 50.026 95.7507 49.6007 95.7507 48.75C95.7507 47.914 95.1494 47.496 93.9467 47.496H91.3507V50.026ZM94.2327 54.668C95.494 54.668 96.1247 54.2353 96.1247 53.37C96.1247 52.9153 95.978 52.5853 95.6847 52.38C95.3914 52.16 94.9294 52.05 94.2987 52.05H91.3507V54.668H94.2327ZM107.104 52.512H105.322V57H101.89V45.164H105.322V49.762H107.17L110.382 45.164H114.034L109.898 50.84L114.32 57H110.272L107.104 52.512ZM120.389 44.988C122.222 44.988 123.63 45.428 124.613 46.308C125.595 47.1733 126.087 48.486 126.087 50.246V57H122.875V55.526C122.229 56.626 121.027 57.176 119.267 57.176C118.357 57.176 117.565 57.022 116.891 56.714C116.231 56.406 115.725 55.9807 115.373 55.438C115.021 54.8953 114.845 54.2793 114.845 53.59C114.845 52.49 115.255 51.6247 116.077 50.994C116.913 50.3633 118.196 50.048 119.927 50.048H122.655C122.655 49.3 122.427 48.728 121.973 48.332C121.518 47.9213 120.836 47.716 119.927 47.716C119.296 47.716 118.673 47.8187 118.057 48.024C117.455 48.2147 116.942 48.4787 116.517 48.816L115.285 46.418C115.93 45.9633 116.7 45.6113 117.595 45.362C118.504 45.1127 119.435 44.988 120.389 44.988ZM120.125 54.866C120.711 54.866 121.232 54.734 121.687 54.47C122.141 54.1913 122.464 53.788 122.655 53.26V52.05H120.301C118.893 52.05 118.189 52.512 118.189 53.436C118.189 53.876 118.357 54.228 118.695 54.492C119.047 54.7413 119.523 54.866 120.125 54.866ZM148.63 54.184V59.596H145.44V57H135.298V45.164H138.708V54.184H143.482V45.164H146.914V54.184H148.63ZM159.831 50.818C161.224 51.2873 161.921 52.226 161.921 53.634C161.921 54.7047 161.517 55.5333 160.711 56.12C159.904 56.7067 158.701 57 157.103 57H150.789V45.164H156.839C158.32 45.164 159.479 45.4353 160.315 45.978C161.151 46.506 161.569 47.254 161.569 48.222C161.569 48.8087 161.415 49.3293 161.107 49.784C160.813 50.224 160.388 50.5687 159.831 50.818ZM153.935 50.026H156.531C157.733 50.026 158.335 49.6007 158.335 48.75C158.335 47.914 157.733 47.496 156.531 47.496H153.935V50.026ZM156.817 54.668C158.078 54.668 158.709 54.2353 158.709 53.37C158.709 52.9153 158.562 52.5853 158.269 52.38C157.975 52.16 157.513 52.05 156.883 52.05H153.935V54.668H156.817ZM175.98 51.126C175.98 51.17 175.958 51.478 175.914 52.05H166.96C167.122 52.7833 167.503 53.3627 168.104 53.788C168.706 54.2133 169.454 54.426 170.348 54.426C170.964 54.426 171.507 54.338 171.976 54.162C172.46 53.9713 172.908 53.678 173.318 53.282L175.144 55.262C174.03 56.538 172.402 57.176 170.26 57.176C168.926 57.176 167.745 56.9193 166.718 56.406C165.692 55.878 164.9 55.152 164.342 54.228C163.785 53.304 163.506 52.2553 163.506 51.082C163.506 49.9233 163.778 48.882 164.32 47.958C164.878 47.0193 165.633 46.2933 166.586 45.78C167.554 45.252 168.632 44.988 169.82 44.988C170.979 44.988 172.028 45.2373 172.966 45.736C173.905 46.2347 174.638 46.9533 175.166 47.892C175.709 48.816 175.98 49.894 175.98 51.126ZM169.842 47.584C169.065 47.584 168.412 47.804 167.884 48.244C167.356 48.684 167.034 49.2853 166.916 50.048H172.746C172.629 49.3 172.306 48.706 171.778 48.266C171.25 47.8113 170.605 47.584 169.842 47.584ZM188.147 47.98H184.143V57H180.733V47.98H176.729V45.164H188.147V47.98ZM195.026 57.176C193.779 57.176 192.657 56.9193 191.66 56.406C190.677 55.878 189.907 55.152 189.35 54.228C188.793 53.304 188.514 52.2553 188.514 51.082C188.514 49.9087 188.793 48.86 189.35 47.936C189.907 47.012 190.677 46.2933 191.66 45.78C192.657 45.252 193.779 44.988 195.026 44.988C196.273 44.988 197.387 45.252 198.37 45.78C199.353 46.2933 200.123 47.012 200.68 47.936C201.237 48.86 201.516 49.9087 201.516 51.082C201.516 52.2553 201.237 53.304 200.68 54.228C200.123 55.152 199.353 55.878 198.37 56.406C197.387 56.9193 196.273 57.176 195.026 57.176ZM195.026 54.36C195.906 54.36 196.625 54.0667 197.182 53.48C197.754 52.8787 198.04 52.0793 198.04 51.082C198.04 50.0847 197.754 49.2927 197.182 48.706C196.625 48.1047 195.906 47.804 195.026 47.804C194.146 47.804 193.42 48.1047 192.848 48.706C192.276 49.2927 191.99 50.0847 191.99 51.082C191.99 52.0793 192.276 52.8787 192.848 53.48C193.42 54.0667 194.146 54.36 195.026 54.36ZM212.919 50.818C214.312 51.2873 215.009 52.226 215.009 53.634C215.009 54.7047 214.605 55.5333 213.799 56.12C212.992 56.7067 211.789 57 210.191 57H203.877V45.164H209.927C211.408 45.164 212.567 45.4353 213.403 45.978C214.239 46.506 214.657 47.254 214.657 48.222C214.657 48.8087 214.503 49.3293 214.195 49.784C213.901 50.224 213.476 50.5687 212.919 50.818ZM207.023 50.026H209.619C210.821 50.026 211.423 49.6007 211.423 48.75C211.423 47.914 210.821 47.496 209.619 47.496H207.023V50.026ZM209.905 54.668C211.166 54.668 211.797 54.2353 211.797 53.37C211.797 52.9153 211.65 52.5853 211.357 52.38C211.063 52.16 210.601 52.05 209.971 52.05H207.023V54.668H209.905ZM29.42 70.164V82H25.988V72.98H21.06V82H17.65V70.164H29.42ZM38.2545 82.176C37.0079 82.176 35.8859 81.9193 34.8885 81.406C33.9059 80.878 33.1359 80.152 32.5785 79.228C32.0212 78.304 31.7425 77.2553 31.7425 76.082C31.7425 74.9087 32.0212 73.86 32.5785 72.936C33.1359 72.012 33.9059 71.2933 34.8885 70.78C35.8859 70.252 37.0079 69.988 38.2545 69.988C39.5012 69.988 40.6159 70.252 41.5985 70.78C42.5812 71.2933 43.3512 72.012 43.9085 72.936C44.4659 73.86 44.7445 74.9087 44.7445 76.082C44.7445 77.2553 44.4659 78.304 43.9085 79.228C43.3512 80.152 42.5812 80.878 41.5985 81.406C40.6159 81.9193 39.5012 82.176 38.2545 82.176ZM38.2545 79.36C39.1345 79.36 39.8532 79.0667 40.4105 78.48C40.9825 77.8787 41.2685 77.0793 41.2685 76.082C41.2685 75.0847 40.9825 74.2927 40.4105 73.706C39.8532 73.1047 39.1345 72.804 38.2545 72.804C37.3745 72.804 36.6485 73.1047 36.0765 73.706C35.5045 74.2927 35.2185 75.0847 35.2185 76.082C35.2185 77.0793 35.5045 77.8787 36.0765 78.48C36.6485 79.0667 37.3745 79.36 38.2545 79.36ZM67.6135 82L67.5915 72.782L63.0595 80.372H61.4755L56.9435 72.958V82H53.5995V66.6H56.5475L62.3115 76.17L67.9875 66.6H70.9355L70.9575 82H67.6135ZM80.0631 82.176C78.8165 82.176 77.6945 81.9193 76.6971 81.406C75.7145 80.878 74.9445 80.152 74.3871 79.228C73.8298 78.304 73.5511 77.2553 73.5511 76.082C73.5511 74.9087 73.8298 73.86 74.3871 72.936C74.9445 72.012 75.7145 71.2933 76.6971 70.78C77.6945 70.252 78.8165 69.988 80.0631 69.988C81.3098 69.988 82.4245 70.252 83.4071 70.78C84.3898 71.2933 85.1598 72.012 85.7171 72.936C86.2745 73.86 86.5531 74.9087 86.5531 76.082C86.5531 77.2553 86.2745 78.304 85.7171 79.228C85.1598 80.152 84.3898 80.878 83.4071 81.406C82.4245 81.9193 81.3098 82.176 80.0631 82.176ZM80.0631 79.36C80.9431 79.36 81.6618 79.0667 82.2191 78.48C82.7911 77.8787 83.0771 77.0793 83.0771 76.082C83.0771 75.0847 82.7911 74.2927 82.2191 73.706C81.6618 73.1047 80.9431 72.804 80.0631 72.804C79.1831 72.804 78.4571 73.1047 77.8851 73.706C77.3131 74.2927 77.0271 75.0847 77.0271 76.082C77.0271 77.0793 77.3131 77.8787 77.8851 78.48C78.4571 79.0667 79.1831 79.36 80.0631 79.36ZM94.5457 82.176C93.2843 82.176 92.1477 81.9193 91.1357 81.406C90.1383 80.878 89.3537 80.152 88.7817 79.228C88.2243 78.304 87.9457 77.2553 87.9457 76.082C87.9457 74.9087 88.2243 73.86 88.7817 72.936C89.3537 72.012 90.1383 71.2933 91.1357 70.78C92.1477 70.252 93.2843 69.988 94.5457 69.988C95.7923 69.988 96.8777 70.252 97.8017 70.78C98.7403 71.2933 99.4223 72.034 99.8477 73.002L97.1857 74.432C96.5697 73.3467 95.6823 72.804 94.5237 72.804C93.629 72.804 92.8883 73.0973 92.3017 73.684C91.715 74.2707 91.4217 75.07 91.4217 76.082C91.4217 77.094 91.715 77.8933 92.3017 78.48C92.8883 79.0667 93.629 79.36 94.5237 79.36C95.697 79.36 96.5843 78.8173 97.1857 77.732L99.8477 79.184C99.4223 80.1227 98.7403 80.856 97.8017 81.384C96.8777 81.912 95.7923 82.176 94.5457 82.176ZM107.147 77.512H105.365V82H101.933V70.164H105.365V74.762H107.213L110.425 70.164H114.077L109.941 75.84L114.363 82H110.315L107.147 77.512ZM125.09 75.818C126.484 76.2873 127.18 77.226 127.18 78.634C127.18 79.7047 126.777 80.5333 125.97 81.12C125.164 81.7067 123.961 82 122.362 82H116.048V70.164H122.098C123.58 70.164 124.738 70.4353 125.574 70.978C126.41 71.506 126.828 72.254 126.828 73.222C126.828 73.8087 126.674 74.3293 126.366 74.784C126.073 75.224 125.648 75.5687 125.09 75.818ZM119.194 75.026H121.79C122.993 75.026 123.594 74.6007 123.594 73.75C123.594 72.914 122.993 72.496 121.79 72.496H119.194V75.026ZM122.076 79.668C123.338 79.668 123.968 79.2353 123.968 78.37C123.968 77.9153 123.822 77.5853 123.528 77.38C123.235 77.16 122.773 77.05 122.142 77.05H119.194V79.668H122.076ZM141.24 76.126C141.24 76.17 141.218 76.478 141.174 77.05H132.22C132.381 77.7833 132.763 78.3627 133.364 78.788C133.965 79.2133 134.713 79.426 135.608 79.426C136.224 79.426 136.767 79.338 137.236 79.162C137.72 78.9713 138.167 78.678 138.578 78.282L140.404 80.262C139.289 81.538 137.661 82.176 135.52 82.176C134.185 82.176 133.005 81.9193 131.978 81.406C130.951 80.878 130.159 80.152 129.602 79.228C129.045 78.304 128.766 77.2553 128.766 76.082C128.766 74.9233 129.037 73.882 129.58 72.958C130.137 72.0193 130.893 71.2933 131.846 70.78C132.814 70.252 133.892 69.988 135.08 69.988C136.239 69.988 137.287 70.2373 138.226 70.736C139.165 71.2347 139.898 71.9533 140.426 72.892C140.969 73.816 141.24 74.894 141.24 76.126ZM135.102 72.584C134.325 72.584 133.672 72.804 133.144 73.244C132.616 73.684 132.293 74.2853 132.176 75.048H138.006C137.889 74.3 137.566 73.706 137.038 73.266C136.51 72.8113 135.865 72.584 135.102 72.584Z" fill="white"/>
<defs>
<linearGradient id="paint0_linear" x1="160" y1="0" x2="160" y2="140" gradientUnits="userSpaceOnUse">
<stop stop-color="#F2887B"/>
<stop offset="1" stop-color="#EB7869"/>
</linearGradient>
<clipPath id="clip0">
<rect width="320" height="140" fill="white"/>
</clipPath>
</defs>
</svg>
