<svg width="27" height="27" viewBox="0 0 27 27" fill="none" xmlns="http://www.w3.org/2000/svg">
<path d="M8.667 18.55H23.3V19.25H8.1C7.16728 19.25 6.4 18.4827 6.4 17.55C6.4 17.2489 6.47736 16.9748 6.60574 16.7501L6.60959 16.7434L6.61334 16.7366L8.43584 13.4291L8.68296 12.9806L8.46352 12.518L3.60352 2.27145L3.33247 1.7H2.7H1V1H3.77956L4.77848 3.12536L5.04856 3.7H5.6835H25.65C25.8402 3.7 26 3.85979 26 4.05C26 4.13146 25.9794 4.18503 25.9698 4.20186L25.966 4.2084L25.9624 4.21499L21.1294 12.9765L21.1282 12.9787C20.8418 13.501 20.2837 13.85 19.6425 13.85H9.585H8.99484L8.70958 14.3666L7.49458 16.5671L7.43151 16.6814L7.39986 16.808L7.35936 16.97L7.3295 17.0894V17.2125C7.3295 17.9538 7.92571 18.55 8.667 18.55ZM6.4135 24.3C6.4135 23.3607 7.1738 22.6 8.1 22.6C9.03271 22.6 9.8 23.3673 9.8 24.3C9.8 25.2327 9.03272 26 8.1 26C7.1738 26 6.4135 25.2393 6.4135 24.3ZM19.9135 24.3C19.9135 23.3608 20.6738 22.6 21.6 22.6C22.5327 22.6 23.3 23.3673 23.3 24.3C23.3 25.2327 22.5327 26 21.6 26C20.6738 26 19.9135 25.2393 19.9135 24.3Z" stroke="#EB5642" stroke-width="2"/>
</svg>
