<svg width="26" height="27" viewBox="0 0 26 27" fill="none" xmlns="http://www.w3.org/2000/svg">
<path d="M18.85 0C16.588 0 14.417 1.19183 13 3.0752C11.583 1.19183 9.412 0 7.15 0C3.146 0 0 3.56076 0 8.09264C0 13.6545 4.42 18.1864 11.115 25.0725L13 27L14.885 25.0578C21.58 18.1864 26 13.6545 26 8.09264C26 3.56076 22.854 0 18.85 0ZM13.13 22.8801L13 23.0272L12.87 22.8801C6.682 16.5384 2.6 12.345 2.6 8.09264C2.6 5.14986 4.55 2.94278 7.15 2.94278C9.152 2.94278 11.102 4.39946 11.791 6.41526H14.222C14.898 4.39946 16.848 2.94278 18.85 2.94278C21.45 2.94278 23.4 5.14986 23.4 8.09264C23.4 12.345 19.318 16.5384 13.13 22.8801Z" fill="#EB5642"/>
</svg>
