<svg width="35" height="32" viewBox="0 0 35 32" fill="none" xmlns="http://www.w3.org/2000/svg">
<rect x="0.5" y="0.5" width="34" height="31" rx="4.5" fill="#EB5642" stroke="#EB5642"/>
<path d="M14.1 22.6C13.165 22.6 12.4085 23.365 12.4085 24.3C12.4085 25.235 13.165 26 14.1 26C15.035 26 15.8 25.235 15.8 24.3C15.8 23.365 15.035 22.6 14.1 22.6ZM9 9V10.7H10.7L13.76 17.1515L12.6125 19.234C12.4765 19.472 12.4 19.7525 12.4 20.05C12.4 20.985 13.165 21.75 14.1 21.75H24.3V20.05H14.457C14.338 20.05 14.2445 19.9565 14.2445 19.8375L14.27 19.7355L15.035 18.35H21.3675C22.005 18.35 22.566 18.0015 22.855 17.4745L25.898 11.958C25.966 11.839 26 11.6945 26 11.55C26 11.0825 25.6175 10.7 25.15 10.7H12.5785L11.7795 9H9ZM22.6 22.6C21.665 22.6 20.9085 23.365 20.9085 24.3C20.9085 25.235 21.665 26 22.6 26C23.535 26 24.3 25.235 24.3 24.3C24.3 23.365 23.535 22.6 22.6 22.6Z" fill="white"/>
</svg>
