<svg width="57" height="57" viewBox="0 0 57 57" fill="none" xmlns="http://www.w3.org/2000/svg">
<path d="M37.8829 37.04V41H19.3069V37.868L29.3149 28.364C30.4429 27.284 31.1989 26.348 31.5829 25.556C31.9909 24.74 32.1949 23.936 32.1949 23.144C32.1949 21.968 31.7989 21.068 31.0069 20.444C30.2149 19.82 29.0509 19.508 27.5149 19.508C24.9469 19.508 22.9789 20.384 21.6109 22.136L18.3349 19.616C19.3189 18.296 20.6389 17.276 22.2949 16.556C23.9749 15.812 25.8469 15.44 27.9109 15.44C30.6469 15.44 32.8309 16.088 34.4629 17.384C36.0949 18.68 36.9109 20.444 36.9109 22.676C36.9109 24.044 36.6229 25.328 36.0469 26.528C35.4709 27.728 34.3669 29.096 32.7349 30.632L26.0029 37.04H37.8829Z" fill="white"/>
<circle cx="28.5" cy="28.5" r="28" stroke="white"/>
</svg>
