<svg width="57" height="57" viewBox="0 0 57 57" fill="none" xmlns="http://www.w3.org/2000/svg">
<path d="M30.312 26.204C32.64 26.492 34.416 27.284 35.64 28.58C36.864 29.876 37.476 31.496 37.476 33.44C37.476 34.904 37.104 36.236 36.36 37.436C35.616 38.636 34.488 39.596 32.976 40.316C31.488 41.012 29.664 41.36 27.504 41.36C25.704 41.36 23.964 41.108 22.284 40.604C20.628 40.076 19.212 39.356 18.036 38.444L20.052 34.808C20.964 35.576 22.068 36.188 23.364 36.644C24.684 37.076 26.04 37.292 27.432 37.292C29.088 37.292 30.384 36.956 31.32 36.284C32.28 35.588 32.76 34.652 32.76 33.476C32.76 32.3 32.304 31.388 31.392 30.74C30.504 30.068 29.136 29.732 27.288 29.732H24.984V26.528L30.708 19.724H19.26V15.8H36.432V18.932L30.312 26.204Z" fill="white"/>
<circle cx="28.5" cy="28.5" r="28" stroke="white"/>
</svg>
