<svg width="70" height="69" viewBox="0 0 70 69" fill="none" xmlns="http://www.w3.org/2000/svg">
<circle cx="35" cy="34.5" r="34.5" fill="#F8AAA0"/>
<path d="M52.7669 27.7256H17.2336C16.1014 27.7256 15.1836 28.6434 15.1836 29.7756V50.2756C15.1836 51.4078 16.1014 52.3256 17.2336 52.3256H52.7669C53.8991 52.3256 54.8169 51.4078 54.8169 50.2756V29.7756C54.8169 28.6434 53.8991 27.7256 52.7669 27.7256Z" fill="#549414"/>
<path d="M50.7169 27.7256H17.2336C16.1014 27.7256 15.1836 28.6434 15.1836 29.7756V50.2756C15.1836 51.4078 16.1014 52.3256 17.2336 52.3256H50.7169C51.8491 52.3256 52.7669 51.4078 52.7669 50.2756V29.7756C52.7669 28.6434 51.8491 27.7256 50.7169 27.7256Z" fill="#60A917"/>
<path d="M52.0846 33.8757V46.1757C50.1977 46.1757 48.668 47.7053 48.668 49.5923H21.3346C21.3346 47.7053 19.8049 46.1757 17.918 46.1757V33.8757C19.8049 33.8757 21.3346 32.346 21.3346 30.459H48.668C48.668 32.346 50.1977 33.8757 52.0846 33.8757Z" fill="#90AC00"/>
<path d="M50.0346 33.8757V46.1757C48.1477 46.1757 46.618 47.7053 46.618 49.5923H21.3346C21.3346 47.7053 19.8049 46.1757 17.918 46.1757V33.8757C19.8049 33.8757 21.3346 32.346 21.3346 30.459H46.618C46.618 32.346 48.1477 33.8757 50.0346 33.8757Z" fill="#A4C400"/>
<path d="M43.8812 40.025C43.8812 45.7103 39.2961 50.1793 33.9729 49.5301C29.5312 48.9835 26.1146 44.9313 26.1146 40.025C26.0533 36.2645 28.1887 32.813 31.5812 31.1895H38.4146C41.8071 32.813 43.9425 36.2645 43.8812 40.025Z" fill="#549414"/>
<path d="M41.8312 40.025C41.8312 44.9313 38.4146 48.9835 33.9729 49.5301C29.5312 48.9835 26.1146 44.9313 26.1146 40.025C26.0533 36.2645 28.1887 32.813 31.5812 31.1895H36.3646C39.7571 32.813 41.8925 36.2645 41.8312 40.025Z" fill="#60A917"/>
<path d="M22.018 44.1258C24.2823 44.1258 26.118 42.2901 26.118 40.0258C26.118 37.7614 24.2823 35.9258 22.018 35.9258C19.7536 35.9258 17.918 37.7614 17.918 40.0258C17.918 42.2901 19.7536 44.1258 22.018 44.1258Z" fill="#549414"/>
<path d="M47.9828 44.1258C50.2472 44.1258 52.0828 42.2901 52.0828 40.0258C52.0828 37.7614 50.2472 35.9258 47.9828 35.9258C45.7184 35.9258 43.8828 37.7614 43.8828 40.0258C43.8828 42.2901 45.7184 44.1258 47.9828 44.1258Z" fill="#549414"/>
<path d="M44.5673 22.2585C44.5671 27.4088 40.4896 31.6346 35.3426 31.8187C30.1956 32.0028 25.8266 28.0791 25.4584 22.942C25.0902 17.8049 28.855 13.2983 33.9756 12.7465C36.6757 12.4555 39.3723 13.3259 41.3928 15.1404C43.4133 16.955 44.5674 19.5428 44.5673 22.2585Z" fill="#9F4343"/>
<path d="M33.9753 31.7701C38.6927 31.7701 42.5169 27.5114 42.5169 22.2581C42.5169 17.0048 38.6927 12.7461 33.9753 12.7461C29.2578 12.7461 25.4336 17.0048 25.4336 22.2581C25.4336 27.5114 29.2578 31.7701 33.9753 31.7701Z" fill="#DF3C3C"/>
<path d="M52.7667 27.0417H44.061C46.3417 22.729 45.2666 17.4065 41.4908 14.3171C37.715 11.2276 32.285 11.2276 28.5092 14.3171C24.7334 17.4065 23.6583 22.729 25.939 27.0417H17.2333C15.7238 27.0417 14.5 28.2655 14.5 29.7751V50.2751C14.5 51.7847 15.7238 53.0084 17.2333 53.0084H52.7667C54.2762 53.0084 55.5 51.7847 55.5 50.2751V29.7751C55.5 28.2655 54.2762 27.0417 52.7667 27.0417ZM35 13.3751C39.9061 13.3751 43.8833 17.3523 43.8833 22.2584C43.8833 27.1645 39.9061 31.1417 35 31.1417C30.0939 31.1417 26.1167 27.1645 26.1167 22.2584C26.1167 17.3523 30.0939 13.3751 35 13.3751ZM51.4 36.6836C50.4267 35.6921 49.0705 35.1728 47.6839 35.2607C46.2973 35.3485 45.0175 36.035 44.1772 37.1414C43.5363 34.7188 42.0257 32.617 39.9337 31.2374C40.1865 31.1007 39.1683 31.1417 48.038 31.1417C48.3281 32.8641 49.6776 34.2136 51.4 34.5037V36.6836ZM18.6 43.3666C19.5733 44.3581 20.9295 44.8774 22.3161 44.7895C23.7027 44.7016 24.9825 44.0152 25.8228 42.9087C26.4889 45.3957 28.0707 47.5389 30.2508 48.9084H21.962C21.6719 47.186 20.3224 45.8365 18.6 45.5464V43.3666ZM30.0663 31.2374C27.9743 32.617 26.4637 34.7188 25.8228 37.1414C24.9825 36.035 23.7027 35.3485 22.3161 35.2607C20.9295 35.1728 19.5733 35.6921 18.6 36.6836V34.5037C20.3224 34.2136 21.6719 32.8641 21.962 31.1417C30.8453 31.1417 29.8135 31.1007 30.0663 31.2374ZM22.0167 36.6084C23.9036 36.6084 25.4333 38.1381 25.4333 40.0251C25.4333 41.912 23.9036 43.4417 22.0167 43.4417C20.1297 43.4417 18.6 41.912 18.6 40.0251C18.6 38.1381 20.1297 36.6084 22.0167 36.6084ZM26.8 40.0251C26.7382 36.6265 28.6111 33.4875 31.6312 31.9276C33.8107 32.6999 36.1893 32.6999 38.3688 31.9276C41.3889 33.4875 43.2618 36.6265 43.2 40.0251C43.2 44.9246 39.5237 48.9084 35 48.9084C30.4763 48.9084 26.8 44.9246 26.8 40.0251ZM44.1772 42.9087C45.0175 44.0152 46.2973 44.7016 47.6839 44.7895C49.0705 44.8774 50.4267 44.3581 51.4 43.3666V45.5464C49.6776 45.8365 48.3281 47.186 48.038 48.9084H39.7833C41.9506 47.5325 43.5196 45.3902 44.1772 42.9087ZM47.9833 43.4417C46.0964 43.4417 44.5667 41.912 44.5667 40.0251C44.5667 38.1381 46.0964 36.6084 47.9833 36.6084C49.8703 36.6084 51.4 38.1381 51.4 40.0251C51.4 41.912 49.8703 43.4417 47.9833 43.4417ZM54.1333 50.2751C54.1333 51.0299 53.5215 51.6417 52.7667 51.6417H17.2333C16.4785 51.6417 15.8667 51.0299 15.8667 50.2751V29.7751C15.8667 29.0203 16.4785 28.4084 17.2333 28.4084H26.8C27.1702 28.9003 27.5842 29.3578 28.0368 29.7751H21.3333C20.9559 29.7751 20.65 30.081 20.65 30.4584C20.65 31.968 19.4262 33.1917 17.9167 33.1917C17.5393 33.1917 17.2333 33.4977 17.2333 33.8751V46.1751C17.2333 46.5525 17.5393 46.8584 17.9167 46.8584C19.4262 46.8584 20.65 48.0822 20.65 49.5917C20.65 49.9691 20.9559 50.2751 21.3333 50.2751H48.6667C49.0441 50.2751 49.35 49.9691 49.35 49.5917C49.35 48.0822 50.5738 46.8584 52.0833 46.8584C52.4607 46.8584 52.7667 46.5525 52.7667 46.1751V33.8751C52.7667 33.4977 52.4607 33.1917 52.0833 33.1917C50.5738 33.1917 49.35 31.968 49.35 30.4584C49.35 30.081 49.0441 29.7751 48.6667 29.7751H41.9427C42.4025 29.3587 42.8233 28.9012 43.2 28.4084H52.7667C53.5215 28.4084 54.1333 29.0203 54.1333 29.7751V50.2751Z" fill="black"/>
<path d="M20.6485 41.3914C20.6485 41.7688 20.9545 42.0747 21.3319 42.0747H22.6985C23.0759 42.0747 23.3819 41.7688 23.3819 41.3914C23.3819 41.014 23.0759 40.708 22.6985 40.708V38.658C22.7001 38.3804 22.5336 38.1294 22.2772 38.023C22.0208 37.9165 21.7255 37.9758 21.53 38.1729L20.8467 38.8562C20.6496 39.0517 20.5903 39.347 20.6968 39.6034C20.8032 39.8598 21.0542 40.0263 21.3319 40.0247V40.708C20.9545 40.708 20.6485 41.014 20.6485 41.3914Z" fill="black"/>
<path d="M48.6673 40.708V38.658C48.6689 38.3804 48.5024 38.1294 48.246 38.023C47.9896 37.9165 47.6943 37.9758 47.4988 38.1729L46.8154 38.8562C46.6183 39.0517 46.5591 39.347 46.6655 39.6034C46.772 39.8598 47.023 40.0263 47.3006 40.0247V40.708C46.9232 40.708 46.6173 41.014 46.6173 41.3914C46.6173 41.7688 46.9232 42.0747 47.3006 42.0747H48.6673C49.0447 42.0747 49.3506 41.7688 49.3506 41.3914C49.3506 41.014 49.0447 40.708 48.6673 40.708Z" fill="black"/>
<path d="M34.999 36.6083C35.7537 36.6083 36.3656 37.2202 36.3656 37.975C36.3656 38.3524 36.6716 38.6583 37.049 38.6583C37.4264 38.6583 37.7323 38.3524 37.7323 37.975C37.7283 36.7319 36.8859 35.6481 35.6823 35.3373V34.5583C35.6823 34.1809 35.3764 33.875 34.999 33.875C34.6216 33.875 34.3156 34.1809 34.3156 34.5583V35.3373C32.9995 35.6946 32.1481 36.9673 32.3202 38.3202C32.4924 39.673 33.6353 40.692 34.999 40.7083C35.7537 40.7083 36.3656 41.3202 36.3656 42.075C36.3656 42.8298 35.7537 43.4417 34.999 43.4417C34.2442 43.4417 33.6323 42.8298 33.6323 42.075C33.6323 41.6976 33.3264 41.3917 32.949 41.3917C32.5716 41.3917 32.2656 41.6976 32.2656 42.075C32.2697 43.3181 33.112 44.4019 34.3156 44.7127V45.4917C34.3156 45.8691 34.6216 46.175 34.999 46.175C35.3764 46.175 35.6823 45.8691 35.6823 45.4917V44.7127C36.9984 44.3554 37.8498 43.0827 37.6777 41.7298C37.5056 40.377 36.3626 39.358 34.999 39.3417C34.2442 39.3417 33.6323 38.7298 33.6323 37.975C33.6323 37.2202 34.2442 36.6083 34.999 36.6083Z" fill="black"/>
<path d="M32.043 25.9028L38.957 18.6133M32.043 18.6133L38.957 25.9028" stroke="black" stroke-width="1.5" stroke-linecap="round" stroke-linejoin="round"/>
</svg>
