<svg width="70" height="69" viewBox="0 0 70 69" fill="none" xmlns="http://www.w3.org/2000/svg">
<circle cx="35" cy="34.5" r="34.5" fill="#F8AAA0"/>
<g clip-path="url(#clip0)">
<path d="M40.3023 46.3994L42.1023 52.3994H28.9023L30.7023 46.3994H40.3023Z" fill="#707070"/>
<path d="M52.9016 42.1992V45.1992C52.9016 45.862 52.3643 46.3992 51.7016 46.3992H19.3016C18.6388 46.3992 18.1016 45.862 18.1016 45.1992V42.1992H52.9016Z" fill="#707070"/>
<path d="M51.1016 42.1992V45.1992C51.1016 45.862 50.5643 46.3992 49.9016 46.3992H19.3016C18.6388 46.3992 18.1016 45.862 18.1016 45.1992V42.1992H51.1016Z" fill="#9E9E9E"/>
<path d="M52.9016 18.7996L52.9017 42.1996H18.1016V18.7996C18.1016 18.1369 18.6388 17.5996 19.3016 17.5996H51.9356C52.1412 17.6397 52.3321 17.7351 52.4876 17.8756C52.7551 18.1075 52.9066 18.4456 52.9016 18.7996Z" fill="#0377BC"/>
<path d="M51.1016 18.7996L51.1017 42.1996H18.1016V18.7996C18.1016 18.1369 18.6388 17.5996 19.3016 17.5996H50.1356C50.3412 17.6397 50.5321 17.7351 50.6876 17.8756C50.9551 18.1075 51.1066 18.4456 51.1016 18.7996Z" fill="#02A9F4"/>
<path d="M30.7016 20.5996H21.7016C21.3702 20.5996 21.1016 20.8682 21.1016 21.1996V26.5996C21.1016 26.931 21.3702 27.1996 21.7016 27.1996H30.7016C31.0329 27.1996 31.3016 26.931 31.3016 26.5996V21.1996C31.3016 20.8682 31.0329 20.5996 30.7016 20.5996Z" fill="#FDD834"/>
<path d="M28.9016 20.5996H21.7016C21.3702 20.5996 21.1016 20.8682 21.1016 21.1996V26.5996C21.1016 26.931 21.3702 27.1996 21.7016 27.1996H28.9016C29.2329 27.1996 29.5016 26.931 29.5016 26.5996V21.1996C29.5016 20.8682 29.2329 20.5996 28.9016 20.5996Z" fill="#FFEB3A"/>
<path d="M50.3337 29.732L48.8097 36.332C48.7468 36.6111 48.4957 36.807 48.2097 36.8H38.9157C38.6661 36.8018 38.4415 36.6489 38.3517 36.416L35.8137 29.816C35.7422 29.6308 35.767 29.4222 35.8799 29.2589C35.9928 29.0955 36.1791 28.9986 36.3777 29H49.7457C49.9285 28.9992 50.1017 29.0817 50.2162 29.2243C50.3306 29.3668 50.3739 29.5537 50.3337 29.732Z" fill="#707070"/>
<path d="M48.5337 29.732L47.0097 36.332C46.9468 36.6111 46.6957 36.807 46.4097 36.8H38.9157C38.6661 36.8018 38.4415 36.6489 38.3517 36.416L35.8137 29.816C35.7422 29.6308 35.767 29.4222 35.8799 29.2589C35.9928 29.0955 36.1791 28.9986 36.3777 29H47.9457C48.1285 28.9992 48.3017 29.0817 48.4162 29.2243C48.5306 29.3668 48.5739 29.5537 48.5337 29.732Z" fill="#9E9E9E"/>
<path d="M38.5031 42.7992C39.4972 42.7992 40.3031 41.9933 40.3031 40.9992C40.3031 40.0051 39.4972 39.1992 38.5031 39.1992C37.509 39.1992 36.7031 40.0051 36.7031 40.9992C36.7031 41.9933 37.509 42.7992 38.5031 42.7992Z" fill="#37474F"/>
<path d="M46.3 42.7992C47.2941 42.7992 48.1 41.9933 48.1 40.9992C48.1 40.0051 47.2941 39.1992 46.3 39.1992C45.3059 39.1992 44.5 40.0051 44.5 40.9992C44.5 41.9933 45.3059 42.7992 46.3 42.7992Z" fill="#37474F"/>
<path d="M43.3023 23.5996H45.7023L43.3023 26.5996L40.9023 23.5996H43.3023Z" fill="#F44335"/>
<path d="M51.7 17H19.3C18.3059 17 17.5 17.8059 17.5 18.8V45.2C17.5 46.1941 18.3059 47 19.3 47H29.896L28.456 51.8H27.1C26.7686 51.8 26.5 52.0686 26.5 52.4C26.5 52.7314 26.7686 53 27.1 53H43.9C44.2314 53 44.5 52.7314 44.5 52.4C44.5 52.0686 44.2314 51.8 43.9 51.8H42.544L41.104 47H51.7C52.6941 47 53.5 46.1941 53.5 45.2V18.8C53.5 17.8059 52.6941 17 51.7 17ZM41.296 51.8H29.704L31.144 47H39.856L41.296 51.8ZM51.7 45.8H19.3C18.9686 45.8 18.7 45.5314 18.7 45.2V42.8H21.1C21.4314 42.8 21.7 42.5314 21.7 42.2C21.7 41.8686 21.4314 41.6 21.1 41.6H18.7V18.8C18.7 18.4686 18.9686 18.2 19.3 18.2H51.7C52.0314 18.2 52.3 18.4686 52.3 18.8V41.6H48.616C48.7851 40.991 48.6939 40.3391 48.364 39.8H48.7C49.0314 39.8 49.3 39.5314 49.3 39.2C49.3 38.8686 49.0314 38.6 48.7 38.6H37.114L33.664 29.39C33.5761 29.1548 33.3511 28.9992 33.1 29H30.7C30.3686 29 30.1 29.2686 30.1 29.6C30.1 29.9314 30.3686 30.2 30.7 30.2H32.686L36.136 39.41C36.1956 39.5623 36.3148 39.6837 36.466 39.746C36.1134 40.2961 36.0109 40.97 36.184 41.6H23.5C23.1686 41.6 22.9 41.8686 22.9 42.2C22.9 42.5314 23.1686 42.8 23.5 42.8H36.928C37.8241 43.5979 39.1759 43.5979 40.072 42.8H44.728C45.6241 43.5979 46.9759 43.5979 47.872 42.8H52.3V45.2C52.3 45.5314 52.0314 45.8 51.7 45.8ZM37.3 41C37.3 40.3373 37.8373 39.8 38.5 39.8C39.1627 39.8 39.7 40.3373 39.7 41C39.7 41.6627 39.1627 42.2 38.5 42.2C37.8373 42.2 37.3 41.6627 37.3 41ZM40.564 39.8H44.236C43.9061 40.3391 43.8149 40.991 43.984 41.6H40.816C40.9851 40.991 40.8939 40.3391 40.564 39.8ZM45.1 41C45.1 40.3373 45.6373 39.8 46.3 39.8C46.9627 39.8 47.5 40.3373 47.5 41C47.5 41.6627 46.9627 42.2 46.3 42.2C45.6373 42.2 45.1 41.6627 45.1 41Z" fill="black"/>
<path d="M21.7 27.8H30.7C31.3627 27.8 31.9 27.2627 31.9 26.6V21.2C31.9 20.5373 31.3627 20 30.7 20H21.7C21.0373 20 20.5 20.5373 20.5 21.2V26.6C20.5 27.2627 21.0373 27.8 21.7 27.8ZM21.7 21.2H30.7V26.6H21.7V21.2Z" fill="black"/>
<path d="M37.7903 36.6324C37.9692 37.096 38.4154 37.4014 38.9123 37.4004H48.2183C48.7774 37.4008 49.2626 37.0151 49.3883 36.4704L50.9123 29.8704C50.9947 29.5139 50.9099 29.1394 50.682 28.8531C50.4542 28.5668 50.1082 28.4002 49.7423 28.4004H36.3743C35.9783 28.3996 35.6074 28.5942 35.383 28.9206C35.1587 29.2469 35.1098 29.6629 35.2523 30.0324L37.7903 36.6324ZM49.7423 29.6004L48.2183 36.2004H38.9123L36.3743 29.6004H49.7423Z" fill="black"/>
<path d="M21.1 30.2H27.1C27.4314 30.2 27.7 29.9314 27.7 29.6C27.7 29.2686 27.4314 29 27.1 29H21.1C20.7686 29 20.5 29.2686 20.5 29.6C20.5 29.9314 20.7686 30.2 21.1 30.2Z" fill="black"/>
<path d="M21.1 33.2H30.7C31.0314 33.2 31.3 32.9314 31.3 32.6C31.3 32.2686 31.0314 32 30.7 32H21.1C20.7686 32 20.5 32.2686 20.5 32.6C20.5 32.9314 20.7686 33.2 21.1 33.2Z" fill="black"/>
<path d="M21.1 36.2H30.7C31.0314 36.2 31.3 35.9314 31.3 35.6C31.3 35.2686 31.0314 35 30.7 35H21.1C20.7686 35 20.5 35.2686 20.5 35.6C20.5 35.9314 20.7686 36.2 21.1 36.2Z" fill="black"/>
<path d="M31.3 38.6C31.3 38.2686 31.0314 38 30.7 38H21.1C20.7686 38 20.5 38.2686 20.5 38.6C20.5 38.9314 20.7686 39.2 21.1 39.2H30.7C31.0314 39.2 31.3 38.9314 31.3 38.6Z" fill="black"/>
<path d="M42.83 26.9724C42.9439 27.1143 43.1161 27.1969 43.298 27.1969C43.48 27.1969 43.6522 27.1143 43.766 26.9724L46.166 23.9724C46.3083 23.7923 46.3354 23.5469 46.2359 23.3401C46.1363 23.1333 45.9275 23.0014 45.698 23.0004H43.898V20.0004C43.898 19.669 43.6294 19.4004 43.298 19.4004C42.9667 19.4004 42.698 19.669 42.698 20.0004V23.0004H40.898C40.6685 23.0014 40.4597 23.1333 40.3602 23.3401C40.2606 23.5469 40.2877 23.7923 40.43 23.9724L42.83 26.9724ZM44.45 24.2004L43.298 25.6404L42.146 24.2004H44.45Z" fill="black"/>
<path d="M47.5 31.9998C47.8314 31.9998 48.1 31.7312 48.1 31.3998C48.1 31.0684 47.8314 30.7998 47.5 30.7998H39.1C38.7686 30.7998 38.5 31.0684 38.5 31.3998C38.5 31.7312 38.7686 31.9998 39.1 31.9998H47.5Z" fill="black"/>
<path d="M46.8992 33.2002H40.2992C39.9678 33.2002 39.6992 33.4688 39.6992 33.8002C39.6992 34.1316 39.9678 34.4002 40.2992 34.4002H46.8992C47.2306 34.4002 47.4992 34.1316 47.4992 33.8002C47.4992 33.4688 47.2306 33.2002 46.8992 33.2002Z" fill="black"/>
</g>
<defs>
<clipPath id="clip0">
<rect x="17.5" y="17" width="36" height="36" fill="white"/>
</clipPath>
</defs>
</svg>
