<svg width="70" height="69" viewBox="0 0 70 69" fill="none" xmlns="http://www.w3.org/2000/svg">
<circle cx="35" cy="34.5" r="34.5" fill="#F8AAA0"/>
<g clip-path="url(#clip0)">
<path d="M52.3681 33.2784C52.3712 43.412 44.2579 51.6812 34.1261 51.871C23.9944 52.0609 15.577 44.1013 15.2006 33.9748C14.8241 23.8482 22.6272 15.2857 32.7451 14.7227C42.8113 13.9171 52.3681 22.262 52.3681 33.2784Z" fill="#283593"/>
<path d="M32.7449 51.8341C42.4415 51.8341 50.3022 43.5264 50.3022 33.2784C50.3022 23.0303 42.4415 14.7227 32.7449 14.7227C23.0482 14.7227 15.1875 23.0303 15.1875 33.2784C15.1875 43.5264 23.0482 51.8341 32.7449 51.8341Z" fill="#3F51B5"/>
<path d="M49.6135 33.2784C49.6135 42.0245 42.5235 49.1145 33.7775 49.1145C25.0315 49.1145 17.9414 42.0245 17.9414 33.2784C17.9414 24.5324 25.0315 17.4424 33.7775 17.4424C37.9775 17.4424 42.0054 19.1108 44.9753 22.0807C47.9451 25.0505 49.6135 29.0785 49.6135 33.2784Z" fill="#00838F"/>
<path d="M47.547 33.2789C47.5643 41.642 41.0757 48.5769 32.7299 49.115C24.4072 48.5653 17.9375 41.6542 17.9375 33.3134C17.9375 24.9725 24.4072 18.0614 32.7299 17.5117C41.0492 18.0481 47.528 24.9424 47.547 33.2789Z" fill="#00BCD4"/>
<path d="M35.8424 33.2784C35.8448 34.3059 35.0917 35.179 34.075 35.3273C33.0583 35.4756 32.0871 34.8541 31.7959 33.8687C31.5048 32.8833 31.9821 31.8337 32.9162 31.4056C33.5548 31.1129 34.2985 31.1649 34.8903 31.5436C35.482 31.9223 35.8407 32.5758 35.8424 33.2784Z" fill="#CFD8DC"/>
<path d="M32.9169 35.1508C32.1885 34.8119 31.7227 34.0814 31.7227 33.2781C31.7227 32.4747 32.1885 31.7442 32.9169 31.4053C33.6453 31.7442 34.1111 32.4747 34.1111 33.2781C34.1111 34.0814 33.6453 34.8119 32.9169 35.1508Z" fill="#F5F5F5"/>
<path d="M55.1208 45.6723C55.122 50.4818 51.3222 54.4325 46.5164 54.6186C41.7105 54.8047 37.6166 51.1598 37.2458 46.3646C36.875 41.5694 40.3598 37.3384 45.1372 36.7835C47.6735 36.4888 50.2149 37.2915 52.122 38.9894C54.0291 40.6873 55.1202 43.1189 55.1208 45.6723Z" fill="#549414"/>
<path d="M45.1368 54.5609C49.5098 54.5609 53.0548 50.5812 53.0548 45.6721C53.0548 40.7629 49.5098 36.7832 45.1368 36.7832C40.7638 36.7832 37.2188 40.7629 37.2188 45.6721C37.2188 50.5812 40.7638 54.5609 45.1368 54.5609Z" fill="#60A917"/>
<path d="M33.7784 18.8193C33.3981 18.8193 33.0898 19.1276 33.0898 19.5079V20.1964C33.0898 20.5766 33.3981 20.8849 33.7784 20.8849C34.1586 20.8849 34.4669 20.5766 34.4669 20.1964V19.5079C34.4669 19.1276 34.1586 18.8193 33.7784 18.8193Z" fill="black"/>
<path d="M33.7784 47.7374C34.1586 47.7374 34.4669 47.4292 34.4669 47.0489V46.3604C34.4669 45.9801 34.1586 45.6719 33.7784 45.6719C33.3981 45.6719 33.0898 45.9801 33.0898 46.3604V47.0489C33.0898 47.4292 33.3981 47.7374 33.7784 47.7374Z" fill="black"/>
<path d="M27.4932 21.0089C27.303 20.678 26.8807 20.564 26.5499 20.7541C26.219 20.9442 26.105 21.3666 26.2951 21.6974L26.6394 22.2964C26.7629 22.5103 26.9914 22.6416 27.2384 22.6407C27.4849 22.6416 27.7131 22.5108 27.8367 22.2976C27.9604 22.0844 27.9607 21.8213 27.8374 21.6079L27.4932 21.0089Z" fill="black"/>
<path d="M22.7982 26.1383L22.1992 25.794C21.9852 25.671 21.7218 25.6716 21.5083 25.7954C21.2948 25.9192 21.1636 26.1476 21.1641 26.3944C21.1646 26.6412 21.2967 26.8691 21.5107 26.9921L22.1097 27.3363C22.4405 27.5265 22.8629 27.4124 23.053 27.0816C23.2431 26.7507 23.1291 26.3284 22.7982 26.1383Z" fill="black"/>
<path d="M21.3859 33.2784C21.3859 32.8981 21.0776 32.5898 20.6974 32.5898H20.0088C19.6286 32.5898 19.3203 32.8981 19.3203 33.2784C19.3203 33.6586 19.6286 33.9669 20.0088 33.9669H20.6974C21.0776 33.9669 21.3859 33.6586 21.3859 33.2784Z" fill="black"/>
<path d="M46.1719 33.2784C46.1719 33.6586 46.4801 33.9669 46.8604 33.9669H47.5489C47.9292 33.9669 48.2375 33.6586 48.2375 33.2784C48.2375 32.8981 47.9292 32.5898 47.5489 32.5898H46.8604C46.4801 32.5898 46.1719 32.8981 46.1719 33.2784Z" fill="black"/>
<path d="M22.1059 39.2199L21.5069 39.5642C21.1761 39.7543 21.062 40.1766 21.2522 40.5075C21.4423 40.8383 21.8646 40.9523 22.1954 40.7622L22.7944 40.418C23.1253 40.2278 23.2393 39.8055 23.0492 39.4747C22.8591 39.1439 22.4368 39.0298 22.1059 39.2199Z" fill="black"/>
<path d="M46.3017 26.0487C46.2109 25.8893 46.0602 25.7728 45.8831 25.725C45.706 25.6772 45.5172 25.702 45.3585 25.7939L44.7594 26.1382C44.4854 26.2934 44.3516 26.6147 44.4345 26.9185C44.5173 27.2223 44.7957 27.4312 45.1106 27.4257C45.3653 27.4257 45.4893 27.3156 46.047 26.992C46.2063 26.9011 46.3229 26.7504 46.3707 26.5733C46.4185 26.3963 46.3937 26.2074 46.3017 26.0487Z" fill="black"/>
<path d="M27.5829 44.0125C27.425 43.9199 27.2368 43.8941 27.0598 43.9406C26.8828 43.9871 26.7316 44.1021 26.6396 44.2603L26.2954 44.8593C26.1721 45.0728 26.1724 45.3358 26.2961 45.5491C26.4197 45.7623 26.6479 45.8931 26.8944 45.8921C27.1414 45.8931 27.3699 45.7617 27.4934 45.5479L27.8377 44.9488C28.0245 44.6197 27.9107 44.2015 27.5829 44.0125Z" fill="black"/>
<path d="M41.0087 20.7539C40.85 20.6619 40.6611 20.6371 40.484 20.6849C40.3069 20.7328 40.1563 20.8493 40.0654 21.0086L39.7212 21.6077C39.5979 21.8211 39.5982 22.0842 39.7218 22.2974C39.8455 22.5106 40.0737 22.6414 40.3202 22.6404C40.5671 22.6414 40.7957 22.5101 40.9192 22.2962L41.2634 21.6972C41.3554 21.5384 41.3802 21.3496 41.3324 21.1725C41.2845 20.9954 41.168 20.8447 41.0087 20.7539Z" fill="black"/>
<path d="M52.3669 38.303C54.6523 29.8712 50.9823 20.9566 43.423 16.5777C35.8637 12.1988 26.3048 13.4502 20.1275 19.6275C13.9502 25.8048 12.6988 35.3637 17.0777 42.923C21.4566 50.4823 30.3712 54.1523 38.803 51.8669C41.1288 54.7117 44.8697 55.9868 48.4487 55.1546C52.0278 54.3224 54.8224 51.5278 55.6546 47.9487C56.4868 44.3697 55.2117 40.6288 52.3669 38.303ZM15.8751 33.2768C15.8598 26.3672 19.8223 20.0658 26.0562 17.0859C32.2902 14.106 39.6825 14.9798 45.0499 19.3309C50.4173 23.682 52.8015 30.7337 51.1758 37.4492C50.7728 37.1898 50.3518 36.9597 49.9158 36.7607C51.464 29.5939 48.1045 22.2639 41.6648 18.7581C35.2251 15.2523 27.2454 16.4093 22.0664 21.5995C16.8874 26.7898 15.7479 34.772 19.2677 41.2041C22.7875 47.6361 30.1248 50.9796 37.2882 49.4158C37.4857 49.8525 37.7159 50.2737 37.9768 50.6758C32.6435 51.963 27.0145 50.7335 22.7036 47.3398C18.3927 43.9462 15.876 38.7632 15.8751 33.2768ZM39.8702 38.3925L36.1384 34.6538C36.5655 33.9124 36.6237 33.0146 36.2959 32.2242C35.9682 31.4338 35.2917 30.8407 34.4653 30.6191V22.9489C34.4653 22.5686 34.157 22.2604 33.7768 22.2604C33.3965 22.2604 33.0882 22.5686 33.0882 22.9489V30.6191C32.0174 30.8577 31.1904 31.7091 30.9829 32.7864C30.7754 33.8637 31.2272 34.9614 32.1328 35.5806C33.0384 36.1999 34.2252 36.2226 35.1538 35.6384L38.8787 39.3702C36.7788 41.7545 36.0043 45.0281 36.8131 48.1007C30.2562 49.4444 23.5947 46.3254 20.4277 40.4288C17.2607 34.5323 18.3391 27.2563 23.0802 22.5318C27.8213 17.8073 35.1011 16.7545 40.9864 19.9422C46.8718 23.1299 49.9674 29.8023 48.6007 36.3545C45.5327 35.5369 42.2591 36.3011 39.8702 38.3925ZM33.7768 31.8997C34.5373 31.8997 35.1538 32.5162 35.1538 33.2768C35.1538 34.0373 34.5373 34.6538 33.7768 34.6538C33.0162 34.6538 32.3997 34.0373 32.3997 33.2768C32.3997 32.5162 33.0162 31.8997 33.7768 31.8997ZM46.1702 53.9325C41.6071 53.9325 37.9079 50.2333 37.9079 45.6702C37.9079 41.1071 41.6071 37.4079 46.1702 37.4079C50.7333 37.4079 54.4325 41.1071 54.4325 45.6702C54.4325 47.8615 53.562 49.9631 52.0125 51.5125C50.463 53.062 48.3615 53.9325 46.1702 53.9325Z" fill="black"/>
<path d="M46.892 45.02C47.628 45.14 48.192 45.416 48.584 45.848C48.976 46.272 49.172 46.8 49.172 47.432C49.172 47.92 49.044 48.372 48.788 48.788C48.532 49.196 48.14 49.524 47.612 49.772C47.092 50.02 46.452 50.144 45.692 50.144C45.1 50.144 44.516 50.068 43.94 49.916C43.372 49.756 42.888 49.532 42.488 49.244L43.244 47.756C43.564 47.996 43.932 48.184 44.348 48.32C44.772 48.448 45.204 48.512 45.644 48.512C46.132 48.512 46.516 48.42 46.796 48.236C47.076 48.044 47.216 47.776 47.216 47.432C47.216 46.744 46.692 46.4 45.644 46.4H44.756V45.116L46.484 43.16H42.908V41.6H48.788V42.86L46.892 45.02Z" fill="black"/>
</g>
<defs>
<clipPath id="clip0">
<rect x="14.5" y="14" width="42" height="42" fill="white"/>
</clipPath>
</defs>
</svg>
