<svg width="70" height="69" viewBox="0 0 70 69" fill="none" xmlns="http://www.w3.org/2000/svg">
<circle cx="35" cy="34.5" r="34.5" fill="#F8AAA0"/>
<g clip-path="url(#clip0)">
<path d="M54.8337 45.6666C54.8349 50.3233 51.1558 54.1486 46.5025 54.3288C41.8492 54.5091 37.8852 50.9798 37.5262 46.3369C37.1671 41.6939 40.5414 37.5972 45.1671 37.0599C47.6229 36.7746 50.0836 37.5518 51.9301 39.1958C53.7766 40.8398 54.8331 43.1942 54.8337 45.6666Z" fill="#FEC108"/>
<path d="M45.1667 54.2729C49.4009 54.2729 52.8333 50.4196 52.8333 45.6662C52.8333 40.9129 49.4009 37.0596 45.1667 37.0596C40.9325 37.0596 37.5 40.9129 37.5 45.6662C37.5 50.4196 40.9325 54.2729 45.1667 54.2729Z" fill="#FFDC00"/>
<path d="M38.8346 17.6668V51.0001C38.8346 52.1047 37.9392 53.0001 36.8346 53.0001H18.168C17.0634 53.0001 16.168 52.1047 16.168 51.0001V17.6668C16.168 16.5622 17.0634 15.6668 18.168 15.6668C38.3413 15.6668 37.0346 15.6268 37.5013 15.7801C38.3008 16.0628 38.8351 16.8189 38.8346 17.6668Z" fill="#0377BC"/>
<path d="M36.8346 17.6668V51.0001C36.8346 52.1047 35.9392 53.0001 34.8346 53.0001H18.168C17.0634 53.0001 16.168 52.1047 16.168 51.0001V17.6668C16.168 16.5622 17.0634 15.6668 18.168 15.6668C36.348 15.6668 35.0413 15.6268 35.5013 15.7801C36.3008 16.0628 36.8351 16.8189 36.8346 17.6668Z" fill="#02A9F4"/>
<path d="M34.1693 15.667L32.2626 17.7003C31.8925 18.096 31.3776 18.3245 30.8359 18.3337H24.2359C23.6775 18.325 23.1482 18.0833 22.7759 17.667L20.8359 15.667H34.1693Z" fill="#7F8E94"/>
<path d="M38.8346 49V52.3333C38.8346 53.4379 37.9392 54.3333 36.8346 54.3333H18.168C17.0634 54.3333 16.168 53.4379 16.168 52.3333V49C16.168 50.1046 17.0634 51 18.168 51H36.8346C37.9392 51 38.8346 50.1046 38.8346 49Z" fill="#7F8E94"/>
<path d="M22.8359 34.9997V47.6663H18.8359V34.9997C18.8359 34.6315 19.1344 34.333 19.5026 34.333H22.1693C22.5375 34.333 22.8359 34.6315 22.8359 34.9997Z" fill="#BB193B"/>
<path d="M20.8359 34.9997V47.6663H18.8359V34.9997C18.8359 34.6315 19.1344 34.333 19.5026 34.333H20.1693C20.5375 34.333 20.8359 34.6315 20.8359 34.9997Z" fill="#EF314C"/>
<path d="M29.5 31.0007V47.6673H25.5V31.0007C25.5 30.6325 25.7985 30.334 26.1667 30.334H28.8333C29.2015 30.334 29.5 30.6325 29.5 31.0007Z" fill="#6A1B9A"/>
<path d="M27.5 31.0007V47.6673H25.5V31.0007C25.5 30.6325 25.7985 30.334 26.1667 30.334H26.8333C27.2015 30.334 27.5 30.6325 27.5 31.0007Z" fill="#9D27B0"/>
<path d="M36.168 24.3337V47.667H32.168V24.3337C32.168 23.9655 32.4664 23.667 32.8346 23.667H35.5013C35.8695 23.667 36.168 23.9655 36.168 24.3337Z" fill="#FEC108"/>
<path d="M34.168 24.3337V47.667H32.168V24.3337C32.168 23.9655 32.4664 23.667 32.8346 23.667H33.5013C33.8695 23.667 34.168 23.9655 34.168 24.3337Z" fill="#FFDC00"/>
<path d="M53.8359 24.9998H49.8359C49.6518 24.9998 49.5026 25.1491 49.5026 25.3332V33.9998C49.5026 34.1802 49.3563 34.3265 49.1759 34.3265H43.1759C42.9918 34.3265 42.8426 34.1773 42.8426 33.9932V25.3265C42.8426 25.1461 42.6964 24.9998 42.5159 24.9998H38.8359V23.8532L45.9026 16.3332C45.9685 16.2539 46.0662 16.208 46.1693 16.208C46.2723 16.208 46.3701 16.2539 46.4359 16.3332L54.1026 24.4932C54.1793 24.5904 54.1915 24.7236 54.1338 24.8331C54.0762 24.9426 53.9595 25.008 53.8359 24.9998Z" fill="#549414"/>
<path d="M51.8359 24.9999H47.8359C47.6518 24.9999 47.5026 25.1492 47.5026 25.3333V33.9999C47.5026 34.0866 47.4682 34.1697 47.4069 34.2309C47.3457 34.2922 47.2626 34.3266 47.1759 34.3266H43.1759C42.9918 34.3266 42.8426 34.1774 42.8426 33.9933V25.3266C42.8426 25.1462 42.6963 24.9999 42.5159 24.9999H38.8359V23.8533L45.1693 17.1133L52.1026 24.4933C52.1792 24.5905 52.1915 24.7237 52.1338 24.8332C52.0762 24.9428 51.9594 25.0081 51.8359 24.9999Z" fill="#60A917"/>
<path d="M18.1667 55H36.8333C37.5655 55.001 38.2659 54.7009 38.7702 54.1701C39.2746 53.6393 39.5384 52.9245 39.5 52.1933C42.1529 54.9052 46.1833 55.7415 49.6961 54.3091C53.2089 52.8766 55.5052 49.4603 55.5052 45.6667C55.5052 41.873 53.2089 38.4568 49.6961 37.0243C46.1833 35.5918 42.1529 36.4281 39.5 39.14V25.6667H42.1667V34C42.1667 34.5523 42.6144 35 43.1667 35H49.1667C49.4313 35.0018 49.6856 34.8979 49.8734 34.7114C50.0611 34.5249 50.1667 34.2713 50.1667 34.0067V25.6667H53.8333C54.2213 25.6734 54.5767 25.4507 54.7397 25.0986C54.9028 24.7466 54.8427 24.3315 54.5867 24.04L46.9533 15.92C46.768 15.6878 46.4896 15.5493 46.1926 15.5416C45.8957 15.5339 45.6104 15.6577 45.4133 15.88L39.5 22.1733V17.6667C39.5 16.1939 38.3061 15 36.8333 15H18.1667C16.6939 15 15.5 16.1939 15.5 17.6667V52.3333C15.5 53.8061 16.6939 55 18.1667 55ZM36.8333 53.6667H18.1667C17.4303 53.6667 16.8333 53.0697 16.8333 52.3333V51.2933C17.236 51.5357 17.6967 51.6647 18.1667 51.6667H36.8333C37.3033 51.6647 37.764 51.5357 38.1667 51.2933V52.3333C38.1667 53.0697 37.5697 53.6667 36.8333 53.6667ZM46.1667 37.6667C49.9918 37.6597 53.2867 40.3615 54.0292 44.1138C54.7716 47.8662 52.7539 51.6192 49.2143 53.0694C45.6748 54.5196 41.6038 53.2613 39.5 50.0667V41.2667C40.9703 39.0164 43.4786 37.6619 46.1667 37.6667ZM46.1667 17L53.0333 24.3333H49.8333C49.281 24.3333 48.8333 24.781 48.8333 25.3333V33.6667H43.5V25.3267C43.5 24.7781 43.0553 24.3333 42.5067 24.3333H39.5V24.12L46.1667 17ZM32.6267 16.3333L31.7733 17.2467C31.5289 17.5069 31.1903 17.6582 30.8333 17.6667H24.2333C23.8648 17.6672 23.5125 17.5152 23.26 17.2467L22.3733 16.3333H32.6267ZM16.8333 17.6667C16.8333 16.9303 17.4303 16.3333 18.1667 16.3333H20.5467L22.2533 18.16C22.7582 18.697 23.4629 19.0011 24.2 19H30.8333C31.5704 19.0011 32.2751 18.697 32.78 18.16L34.4533 16.3333H36.8333C37.5697 16.3333 38.1667 16.9303 38.1667 17.6667V49C38.1667 49.7364 37.5697 50.3333 36.8333 50.3333H18.1667C17.4303 50.3333 16.8333 49.7364 16.8333 49V17.6667Z" fill="black"/>
<path d="M18.8346 48.3333H36.168C36.5362 48.3333 36.8346 48.0349 36.8346 47.6667V24.3333C36.8346 23.597 36.2377 23 35.5013 23H32.8346C32.0983 23 31.5013 23.597 31.5013 24.3333V47H30.168V31C30.168 30.2636 29.571 29.6667 28.8346 29.6667H26.168C25.4316 29.6667 24.8346 30.2636 24.8346 31V47H23.5013V35C23.5013 34.2636 22.9043 33.6667 22.168 33.6667H19.5013C18.7649 33.6667 18.168 34.2636 18.168 35V47.6667C18.168 48.0349 18.4664 48.3333 18.8346 48.3333ZM35.5013 24.3333V35H32.8346V24.3333H35.5013ZM32.8346 36.3333H35.5013V47H32.8346V36.3333ZM28.8346 31V42.3333H26.168V31H28.8346ZM26.168 43.6667H28.8346V47H26.168V43.6667ZM19.5013 47V41.6667H22.168V47H19.5013ZM22.168 35V40.3333H19.5013V35H22.168Z" fill="black"/>
<path d="M46.1667 49.0003C45.4303 49.0003 44.8333 48.4034 44.8333 47.667C44.8333 47.2988 44.5349 47.0003 44.1667 47.0003C43.7985 47.0003 43.5 47.2988 43.5 47.667C43.5039 48.8798 44.3257 49.9371 45.5 50.2403V51.0003C45.5 51.3685 45.7985 51.667 46.1667 51.667C46.5349 51.667 46.8333 51.3685 46.8333 51.0003V50.2403C48.1173 49.8918 48.948 48.6501 48.7801 47.3302C48.6121 46.0104 47.497 45.0163 46.1667 45.0003C45.4303 45.0003 44.8333 44.4034 44.8333 43.667C44.8333 42.9306 45.4303 42.3337 46.1667 42.3337C46.903 42.3337 47.5 42.9306 47.5 43.667C47.5 44.0352 47.7985 44.3337 48.1667 44.3337C48.5349 44.3337 48.8333 44.0352 48.8333 43.667C48.8294 42.4542 48.0076 41.3968 46.8333 41.0937V40.3337C46.8333 39.9655 46.5349 39.667 46.1667 39.667C45.7985 39.667 45.5 39.9655 45.5 40.3337V41.0937C44.216 41.4422 43.3854 42.6839 43.5533 44.0037C43.7212 45.3236 44.8363 46.3177 46.1667 46.3337C46.903 46.3337 47.5 46.9306 47.5 47.667C47.5 48.4034 46.903 49.0003 46.1667 49.0003Z" fill="black"/>
</g>
<defs>
<clipPath id="clip0">
<rect x="15.5" y="15" width="40" height="40" fill="white"/>
</clipPath>
</defs>
</svg>
