<svg width="70" height="69" viewBox="0 0 70 69" fill="none" xmlns="http://www.w3.org/2000/svg">
<circle cx="35" cy="34.5" r="34.5" fill="#F8AAA0"/>
<g clip-path="url(#clip0)">
<path d="M47.2487 21.8281H22.7487C20.1714 21.8281 18.082 23.9026 18.082 26.4616V50.7874C18.082 53.3464 20.1714 55.4209 22.7487 55.4209H47.2487C49.826 55.4209 51.9154 53.3464 51.9154 50.7874V26.4616C51.9154 23.9026 49.826 21.8281 47.2487 21.8281Z" fill="#60A917"/>
<path d="M47.25 21.8281H45.5C48.0773 21.8281 50.1667 23.9026 50.1667 26.4616V50.7874C50.1667 53.3464 48.0773 55.4209 45.5 55.4209H47.25C49.8273 55.4209 51.9167 53.3464 51.9167 50.7874V26.4616C51.9167 23.9026 49.8273 21.8281 47.25 21.8281Z" fill="#6A1B9A"/>
<path d="M33.2478 30.5163C33.25 33.9226 30.5534 36.728 27.1264 36.8848C23.6994 37.0415 20.7544 34.4941 20.4412 31.1021C20.1281 27.7101 22.5575 24.6735 25.9561 24.209C27.7925 23.958 29.6484 24.5078 31.0461 25.7168C32.4437 26.9258 33.2465 28.6758 33.2478 30.5163Z" fill="#FEC108"/>
<path d="M49.5837 46.7331C49.586 50.1393 46.8893 52.9448 43.4623 53.1016C40.0353 53.2583 37.0903 50.7109 36.7772 47.3189C36.464 43.9268 38.8934 40.8903 42.292 40.4258C44.1284 40.1748 45.9844 40.7246 47.382 41.9336C48.7797 43.1425 49.5825 44.8926 49.5837 46.7331Z" fill="#FEC108"/>
<path d="M25.9557 36.8236C29.0163 36.8236 31.4974 33.9998 31.4974 30.5163C31.4974 27.0329 29.0163 24.209 25.9557 24.209C22.8952 24.209 20.4141 27.0329 20.4141 30.5163C20.4141 33.9998 22.8952 36.8236 25.9557 36.8236Z" fill="#FFDC00"/>
<path d="M42.2917 53.0404C45.3522 53.0404 47.8333 50.2165 47.8333 46.7331C47.8333 43.2497 45.3522 40.4258 42.2917 40.4258C39.2311 40.4258 36.75 43.2497 36.75 46.7331C36.75 50.2165 39.2311 53.0404 42.2917 53.0404Z" fill="#FFDC00"/>
<path d="M26.832 37.4659C22.966 37.4659 19.832 34.3542 19.832 30.5157C19.832 26.6772 22.966 23.5654 26.832 23.5654C30.698 23.5654 33.832 26.6772 33.832 30.5157C33.832 32.359 33.0945 34.1268 31.7818 35.4302C30.469 36.7336 28.6885 37.4659 26.832 37.4659ZM26.832 24.7238C23.6104 24.7238 20.9987 27.3169 20.9987 30.5157C20.9987 33.7144 23.6104 36.3075 26.832 36.3075C30.0537 36.3075 32.6654 33.7144 32.6654 30.5157C32.6654 28.9796 32.0508 27.5064 30.9568 26.4202C29.8629 25.334 28.3791 24.7238 26.832 24.7238Z" fill="#E4C05C"/>
<path d="M43.1643 53.6829C40.333 53.6829 37.7806 51.9895 36.6971 49.3924C35.6136 46.7953 36.2125 43.8059 38.2145 41.8181C40.2165 39.8304 43.2273 39.2357 45.8431 40.3115C48.4588 41.3872 50.1643 43.9216 50.1643 46.7327C50.1643 48.576 49.4268 50.3438 48.114 51.6472C46.8013 52.9506 45.0208 53.6829 43.1643 53.6829ZM43.1643 40.9408C39.9426 40.9408 37.3309 43.5339 37.3309 46.7327C37.3309 49.9314 39.9426 52.5245 43.1643 52.5245C46.3859 52.5245 48.9976 49.9314 48.9976 46.7327C48.9976 43.5339 46.3859 40.9408 43.1643 40.9408Z" fill="#E4C05C"/>
<path d="M45.4987 33.9912L43.1654 36.8871L40.832 33.9912H45.4987Z" fill="#EF314C"/>
<path d="M29.1667 43.2582H24.5L26.8333 40.3623L29.1667 43.2582Z" fill="#EF314C"/>
<path d="M47.25 21.249H22.75C19.8505 21.249 17.5 23.5828 17.5 26.4617V50.7875C17.5 53.6664 19.8505 56.0002 22.75 56.0002H47.25C50.1495 56.0002 52.5 53.6664 52.5 50.7875V26.4617C52.5 23.5828 50.1495 21.249 47.25 21.249ZM51.3333 50.7875C51.3333 53.0266 49.5052 54.8418 47.25 54.8418H22.75C20.4948 54.8418 18.6667 53.0266 18.6667 50.7875V26.4617C18.6667 24.2226 20.4948 22.4074 22.75 22.4074H47.25C49.5052 22.4074 51.3333 24.2226 51.3333 26.4617V50.7875Z" fill="black"/>
<path d="M33.8311 31.0949H41.9978C42.3199 31.0949 42.5811 31.3543 42.5811 31.6741V33.4117H40.8311C40.608 33.4127 40.405 33.54 40.3082 33.7396C40.2114 33.9392 40.2378 34.1762 40.3761 34.35L42.7094 37.2459C42.8202 37.3829 42.9875 37.4626 43.1644 37.4626C43.3414 37.4626 43.5087 37.3829 43.6194 37.2459L45.9528 34.35C46.0911 34.1762 46.1175 33.9392 46.0207 33.7396C45.9239 33.54 45.7209 33.4127 45.4978 33.4117H43.7478V31.6741C43.7478 30.7145 42.9643 29.9366 41.9978 29.9366H33.8311C33.5184 26.2238 30.3127 23.4162 26.5635 23.5716C22.8144 23.727 19.8555 26.79 19.8555 30.5158C19.8555 34.2415 22.8144 37.3046 26.5635 37.4599C30.3127 37.6153 33.5184 34.8078 33.8311 31.0949ZM44.3311 34.5701L43.1644 35.9601L42.0444 34.5701H44.3311ZM20.9978 30.5158C20.9978 27.317 23.6095 24.7239 26.8311 24.7239C30.0528 24.7239 32.6644 27.317 32.6644 30.5158C32.6644 33.7145 30.0528 36.3076 26.8311 36.3076C25.284 36.3076 23.8003 35.6974 22.7063 34.6112C21.6124 33.525 20.9978 32.0519 20.9978 30.5158Z" fill="black"/>
<path d="M27.4167 35.1499V34.4896C28.5402 34.1868 29.267 33.108 29.12 31.9614C28.9731 30.8147 27.9974 29.951 26.8333 29.9372C26.189 29.9372 25.6667 29.4186 25.6667 28.7788C25.6667 28.1391 26.189 27.6205 26.8333 27.6205C27.4777 27.6205 28 28.1391 28 28.7788C28 29.0987 28.2612 29.358 28.5833 29.358C28.9055 29.358 29.1667 29.0987 29.1667 28.7788C29.1632 27.7252 28.4442 26.8066 27.4167 26.5432V25.8829C27.4167 25.563 27.1555 25.3037 26.8333 25.3037C26.5112 25.3037 26.25 25.563 26.25 25.8829V26.5432C25.1265 26.846 24.3997 27.9247 24.5466 29.0714C24.6936 30.218 25.6693 31.0817 26.8333 31.0956C27.4777 31.0956 28 31.6142 28 32.2539C28 32.8937 27.4777 33.4123 26.8333 33.4123C26.189 33.4123 25.6667 32.8937 25.6667 32.2539C25.6667 31.9341 25.4055 31.6748 25.0833 31.6748C24.7612 31.6748 24.5 31.9341 24.5 32.2539C24.5034 33.3076 25.2225 34.2262 26.25 34.4896V35.1499C26.25 35.4697 26.5112 35.7291 26.8333 35.7291C27.1555 35.7291 27.4167 35.4697 27.4167 35.1499Z" fill="black"/>
<path d="M43.1653 39.7832C39.5161 39.7706 36.4694 42.5436 36.1653 46.1543H27.9986C27.6765 46.1543 27.4153 45.895 27.4153 45.5751V43.8375H29.1653C29.3884 43.8365 29.5914 43.7092 29.6882 43.5096C29.785 43.31 29.7586 43.0731 29.6203 42.8993L27.287 40.0033C27.1762 39.8663 27.0089 39.7866 26.832 39.7866C26.655 39.7866 26.4877 39.8663 26.377 40.0033L24.0436 42.8993C23.9053 43.0731 23.8789 43.31 23.9757 43.5096C24.0725 43.7092 24.2755 43.8365 24.4986 43.8375H26.2486V45.5751C26.2486 46.5347 27.0321 47.3127 27.9986 47.3127H36.1653C36.4809 51.0597 39.7406 53.878 43.522 53.6733C47.3034 53.4687 50.2352 50.3151 50.1387 46.5563C50.0421 42.7974 46.9523 39.7963 43.1653 39.7832ZM25.712 42.6792L26.832 41.2891L27.952 42.6792H25.712ZM43.1653 52.5253C39.9436 52.5253 37.332 49.9322 37.332 46.7335C37.332 43.5347 39.9436 40.9416 43.1653 40.9416C46.387 40.9416 48.9986 43.5347 48.9986 46.7335C48.9986 49.9322 46.387 52.5253 43.1653 52.5253Z" fill="black"/>
<path d="M43.1654 43.8373C43.8097 43.8373 44.332 44.3559 44.332 44.9956C44.332 45.3155 44.5932 45.5748 44.9154 45.5748C45.2375 45.5748 45.4987 45.3155 45.4987 44.9956C45.4953 43.942 44.7762 43.0234 43.7487 42.76V42.0997C43.7487 41.7798 43.4875 41.5205 43.1654 41.5205C42.8432 41.5205 42.582 41.7798 42.582 42.0997V42.76C41.4585 43.0628 40.7317 44.1415 40.8787 45.2882C41.0256 46.4348 42.0013 47.2985 43.1654 47.3124C43.8097 47.3124 44.332 47.831 44.332 48.4707C44.332 49.1105 43.8097 49.6291 43.1654 49.6291C42.521 49.6291 41.9987 49.1105 41.9987 48.4707C41.9987 48.1509 41.7375 47.8915 41.4154 47.8915C41.0932 47.8915 40.832 48.1509 40.832 48.4707C40.8355 49.5244 41.5545 50.443 42.582 50.7064V51.3667C42.582 51.6865 42.8432 51.9458 43.1654 51.9458C43.4875 51.9458 43.7487 51.6865 43.7487 51.3667V50.7064C44.8722 50.4036 45.599 49.3248 45.4521 48.1782C45.3051 47.0315 44.3294 46.1678 43.1654 46.154C42.521 46.154 41.9987 45.6354 41.9987 44.9956C41.9987 44.3559 42.521 43.8373 43.1654 43.8373Z" fill="black"/>
<path d="M20.4154 43.8369C20.0932 43.8369 19.832 44.0962 19.832 44.4161V50.7871C19.832 51.107 20.0932 51.3663 20.4154 51.3663C20.7375 51.3663 20.9987 51.107 20.9987 50.7871V44.4161C20.9987 44.0962 20.7375 43.8369 20.4154 43.8369Z" fill="black"/>
<path d="M20.4154 38.625C20.0932 38.625 19.832 38.8843 19.832 39.2042V41.5209C19.832 41.8408 20.0932 42.1001 20.4154 42.1001C20.7375 42.1001 20.9987 41.8408 20.9987 41.5209V39.2042C20.9987 38.8843 20.7375 38.625 20.4154 38.625Z" fill="black"/>
<path d="M49.5833 25.3037C49.2612 25.3037 49 25.563 49 25.8829V32.2539C49 32.5738 49.2612 32.8331 49.5833 32.8331C49.9055 32.8331 50.1667 32.5738 50.1667 32.2539V25.8829C50.1667 25.563 49.9055 25.3037 49.5833 25.3037Z" fill="black"/>
<path d="M49.5833 34.5703C49.2612 34.5703 49 34.8296 49 35.1495V37.4662C49 37.7861 49.2612 38.0454 49.5833 38.0454C49.9055 38.0454 50.1667 37.7861 50.1667 37.4662V35.1495C50.1667 34.8296 49.9055 34.5703 49.5833 34.5703Z" fill="black"/>
<path d="M44.5 21.0003C44.4998 25.8455 40.6639 29.8209 35.8219 29.9941C30.9799 30.1673 26.8698 26.4762 26.5234 21.6434C26.177 16.8106 29.7187 12.571 34.5359 12.0518C37.076 11.7781 39.6128 12.5969 41.5136 14.3039C43.4144 16.011 44.5001 18.4455 44.5 21.0003Z" fill="#0377BC"/>
<path d="M34.5 30C38.9183 30 42.5 25.9706 42.5 21C42.5 16.0294 38.9183 12 34.5 12C30.0817 12 26.5 16.0294 26.5 21C26.5 25.9706 30.0817 30 34.5 30Z" fill="#02A9F4"/>
<path d="M33.3676 25.8045C33.5078 25.9447 33.703 26.0153 33.9004 25.9972C34.0977 25.9791 34.2769 25.8743 34.3893 25.7109L40.3995 17.021C40.5869 16.7188 40.5051 16.3226 40.2133 16.1196C39.9215 15.9166 39.522 15.9778 39.3043 16.259L33.7482 24.2804L31.6447 22.1681C31.3828 21.906 30.9583 21.906 30.6964 22.1681C30.4345 22.4302 30.4345 22.8552 30.6964 23.1173L33.3676 25.8045Z" fill="black"/>
<circle cx="35.5" cy="21" r="9.25" stroke="black" stroke-width="1.5"/>
</g>
<defs>
<clipPath id="clip0">
<rect x="17.5" y="11" width="35" height="45" fill="white"/>
</clipPath>
</defs>
</svg>
