<svg width="15" height="15" viewBox="0 0 15 15" fill="none" xmlns="http://www.w3.org/2000/svg">
<path d="M14.5376 2.26607C14.9548 1.8489 14.9548 1.17253 14.5376 0.755357C14.1204 0.338185 13.4441 0.338185 13.0269 0.755357L8.50008 5.28218C8.10955 5.6727 7.47639 5.6727 7.08586 5.28218L2.55904 0.755357C2.14187 0.338185 1.4655 0.338185 1.04833 0.755357C0.631154 1.17253 0.631154 1.8489 1.04833 2.26607L5.57515 6.79289C5.96567 7.18342 5.96567 7.81658 5.57515 8.20711L1.04833 12.7339C0.631154 13.1511 0.631153 13.8275 1.04833 14.2446C1.4655 14.6618 2.14187 14.6618 2.55904 14.2446L7.08586 9.71782C7.47639 9.3273 8.10955 9.3273 8.50008 9.71782L13.0269 14.2446C13.4441 14.6618 14.1204 14.6618 14.5376 14.2446C14.9548 13.8275 14.9548 13.1511 14.5376 12.7339L10.0108 8.20711C9.62027 7.81658 9.62027 7.18342 10.0108 6.79289L14.5376 2.26607Z" fill="#F26F6F"/>
</svg>
