<svg width="25" height="24" viewBox="0 0 25 24" fill="none" xmlns="http://www.w3.org/2000/svg">
<path d="M23.7493 11.84C22.9468 11.1787 21.6785 11.1219 20.846 12.0153L18.7794 14.2338C18.5122 13.3751 17.7103 12.7498 16.7649 12.7498H13.077C12.7971 12.7498 12.7034 12.6429 12.2173 12.2685C10.364 10.6528 7.58028 10.6579 5.73256 12.2839L4.37703 13.4773C3.7677 13.1548 3.05619 13.1468 2.44353 13.4529L0.888782 14.23C0.541438 14.4039 0.40086 14.8262 0.57425 15.1736L4.79277 23.6106C4.96667 23.9579 5.38897 24.0985 5.73631 23.9251L7.29106 23.1475C8.05742 22.7646 8.48394 21.9827 8.45628 21.1868H16.7648C18.3055 21.1868 19.7778 20.451 20.7021 19.2182L24.0774 14.7176C24.7322 13.8452 24.6286 12.5661 23.7493 11.84ZM6.662 21.8899L5.73627 22.353L2.14634 15.1736L3.07255 14.7105C3.41989 14.5371 3.84172 14.6772 4.01563 15.025L6.97653 20.9468C7.14997 21.2941 7.00934 21.716 6.662 21.8899ZM22.9524 13.8738L19.5772 18.3745C18.9168 19.2552 17.8654 19.7806 16.7649 19.7806H7.96555L5.33084 14.5108L6.66153 13.3395C7.98566 12.1747 9.98244 12.1747 11.3066 13.3395C12.0865 14.0262 12.5716 14.156 13.0769 14.156H16.7648C17.1525 14.156 17.4679 14.4715 17.4679 14.8591C17.4679 15.2467 17.1524 15.5622 16.7648 15.5622H13.174C12.7858 15.5622 12.4709 15.8772 12.4709 16.2653C12.4709 16.6533 12.7859 16.9683 13.174 16.9683H17.2359C17.8195 16.9683 18.382 16.7236 18.7794 16.2967L21.8749 12.9739C22.158 12.6701 22.592 12.6954 22.8582 12.9284C23.1366 13.1721 23.1667 13.5888 22.9524 13.8738Z" fill="black"/>
<path d="M15.2839 4.79784C15.7653 4.29305 16.062 3.61059 16.062 2.85919C16.062 1.31147 14.8115 0 13.2497 0C11.6997 0 10.3905 1.30912 10.3905 2.85919C10.3905 3.58758 10.676 4.27519 11.1944 4.80347C9.9087 5.52436 8.98438 6.90802 8.98438 8.53073V9.23381C8.98438 9.62189 9.29937 9.93689 9.68745 9.93689H16.7651C17.1532 9.93689 17.4682 9.62189 17.4682 9.23381V8.53073C17.4682 6.93989 16.5932 5.53467 15.2839 4.79784ZM13.2497 1.4062C14.0119 1.4062 14.6559 2.07178 14.6559 2.85923C14.6559 3.6345 14.025 4.26539 13.2497 4.26539C12.4623 4.26539 11.7967 3.62137 11.7967 2.85923C11.7967 2.08537 12.4759 1.4062 13.2497 1.4062ZM10.3905 8.53073C10.3905 6.98067 11.6997 5.67155 13.2497 5.67155C14.8002 5.67155 16.062 6.95395 16.062 8.53073H10.3905Z" fill="black"/>
</svg>
