<svg width="25" height="24" viewBox="0 0 25 24" fill="none" xmlns="http://www.w3.org/2000/svg">
<g clip-path="url(#clip0)">
<path d="M24.3961 0.723435C24.3599 0.396592 24.1019 0.138413 23.7748 0.102158C18.2106 -0.515822 13.4675 1.71001 9.59845 5.69273C8.49121 6.83256 7.53082 8.03905 6.71106 9.20341C5.32367 9.14702 3.7854 9.7747 2.69482 10.8653L0.70593 12.8542C0.480893 13.0792 0.435117 13.4275 0.594235 13.703C0.753354 13.9786 1.07763 14.1128 1.38525 14.0306C1.84668 13.9067 2.59649 13.7626 3.31683 13.729C3.58014 13.7168 3.79895 13.7206 3.98077 13.7345C3.54187 14.5787 3.2055 15.2858 3.09399 15.4629C2.91931 15.7408 2.95977 16.1025 3.19195 16.3346L4.34277 17.4855C2.6679 19.7697 2.64026 20.9396 2.64612 21.1053C2.65838 21.4563 2.93213 21.7851 3.3855 21.7851C3.77807 21.7851 4.90399 21.6185 6.95367 20.0964L8.16418 21.3069C8.39801 21.5407 8.7633 21.5799 9.04162 21.4012C9.23095 21.2794 9.89654 20.9571 10.6947 20.54C10.7079 21.1349 10.6271 22.0085 10.4519 23.1927C10.3523 23.8643 11.1688 24.2686 11.6447 23.7929L13.6335 21.804C14.6591 20.7784 15.2538 19.2552 15.2099 17.8262C16.4365 16.9691 17.7126 15.958 18.9041 14.7896C22.8489 10.9211 25.0062 6.21385 24.3961 0.723435ZM23.051 1.44707C23.1633 2.96318 23.0435 4.43278 22.6947 5.85496C21.8284 5.58214 20.9816 5.04619 20.2167 4.28154C19.4492 3.51378 18.9121 2.66344 18.6404 1.79405C20.062 1.45036 21.5325 1.33391 23.051 1.44707ZM3.22509 12.3239L3.68908 11.8597C4.2503 11.2987 4.98016 10.8946 5.70599 10.7129C5.32678 11.3148 4.98877 11.8896 4.69067 12.42C4.23016 12.3184 3.7182 12.2995 3.22509 12.3239ZM4.55572 15.7097C4.70788 15.4094 4.8919 15.0329 5.22973 14.3946L6.15533 15.3204C5.81091 15.6899 5.5 16.0409 5.21985 16.3736L4.55572 15.7097ZM7.99426 15.4407C8.50659 14.9286 8.99786 14.835 9.60815 14.8218C9.59478 15.4165 9.49939 15.9245 8.98871 16.4352C6.80572 18.6181 5.30938 19.593 4.41455 20.0281C4.85602 19.116 5.83343 17.6015 7.99426 15.4407ZM8.78509 19.9391L8.05999 19.2138C8.39105 18.9325 8.74096 18.6207 9.1101 18.275L10.0954 19.2603C9.44757 19.6062 9.1773 19.7364 8.78509 19.9391ZM12.6389 20.8096L12.076 21.3726C12.1216 20.6905 12.1059 20.1936 12.0414 19.8102C12.5585 19.519 13.1201 19.1889 13.7086 18.8196C13.5409 19.563 13.1639 20.2848 12.6389 20.8096ZM11.3755 18.5517L10.1148 17.2908C11.0477 16.2643 11.0129 15.2752 11.0129 14.1196C11.0129 13.7312 10.6982 13.4165 10.3098 13.4165C9.23022 13.4165 8.19128 13.3586 7.13861 14.3148L5.93469 13.1109C9.22217 7.34618 13.0222 3.69652 17.2916 2.19359C17.6296 3.28728 18.2875 4.34105 19.2225 5.27599C20.153 6.20671 21.2018 6.86296 22.2908 7.20225C20.7791 11.4483 17.1303 15.2459 11.3755 18.5517Z" fill="black"/>
<path d="M18.2268 6.27023C16.8559 4.89951 14.6253 4.89951 13.2546 6.27023C11.8839 7.64114 11.8839 9.87174 13.2546 11.2425C14.6253 12.6132 16.8559 12.6134 18.2268 11.2425C19.5976 9.87174 19.5976 7.64114 18.2268 6.27023ZM17.2324 10.248C16.4099 11.0705 15.0714 11.0705 14.2491 10.248C13.4265 9.42551 13.4265 8.08719 14.2491 7.26468C15.0714 6.44235 16.4097 6.44217 17.2324 7.26468C18.0549 8.08719 18.0549 9.42551 17.2324 10.248Z" fill="black"/>
</g>
<defs>
<clipPath id="clip0">
<rect x="0.5" width="24" height="24" fill="white"/>
</clipPath>
</defs>
</svg>
