<svg width="25" height="22" viewBox="0 0 25 22" fill="none" xmlns="http://www.w3.org/2000/svg">
<path d="M24.5 7.38801C24.5 7.28503 24.4755 7.18695 24.4215 7.09868L20.8514 0.821603C20.7485 0.640156 20.5523 0.522461 20.3414 0.522461H4.65366C4.44279 0.522461 4.24663 0.635252 4.14365 0.821603L0.578463 7.09868C0.529424 7.18695 0.5 7.28503 0.5 7.38801C0.5 8.79545 1.34839 10.0018 2.55966 10.5364V20.8886C2.55966 21.2123 2.82448 21.4771 3.14814 21.4771H6.39947C6.40437 21.4771 6.40928 21.4771 6.41418 21.4771H10.9749C10.9798 21.4771 10.9847 21.4771 10.9896 21.4771H21.847C22.1706 21.4771 22.4354 21.2123 22.4354 20.8886V10.6099C22.4354 10.5854 22.4354 10.5658 22.4305 10.5462C23.6467 10.0116 24.5 8.80035 24.5 7.38801ZM4.99693 1.70432H19.9982L22.7885 6.61318H2.21148L4.99693 1.70432ZM17.5805 7.78523C17.3942 8.84449 16.4673 9.64874 15.3541 9.64874C14.2409 9.64874 13.3141 8.84449 13.1277 7.78523H17.5805ZM11.8772 7.78523C11.6908 8.84449 10.764 9.64874 9.6508 9.64874C8.5376 9.64874 7.61075 8.84449 7.41949 7.78523H11.8772ZM1.71618 7.78523H6.17389C5.98754 8.84449 5.05578 9.64874 3.94258 9.64874C2.82938 9.65364 1.90253 8.84449 1.71618 7.78523ZM10.3864 20.3001H7.00266V13.9495C7.00266 13.4885 7.37536 13.1109 7.84123 13.1109H9.55272C10.0137 13.1109 10.3913 13.4836 10.3913 13.9495V20.3001H10.3864ZM21.2585 20.3001H11.5633V13.9495C11.5633 12.8412 10.661 11.934 9.54781 11.934H7.83633C6.72803 11.934 5.8208 12.8363 5.8208 13.9495V20.3051H3.73662V10.8257C3.80527 10.8306 3.87393 10.8306 3.94258 10.8306C5.12934 10.8306 6.17879 10.2274 6.79669 9.31036C7.41459 10.2274 8.46404 10.8306 9.6508 10.8306C10.8376 10.8306 11.8821 10.2274 12.5049 9.31036C13.1228 10.2274 14.1723 10.8306 15.3541 10.8306C16.5409 10.8306 17.5854 10.2274 18.2033 9.31036C18.8212 10.2274 19.8707 10.8306 21.0574 10.8306C21.1261 10.8306 21.1898 10.8257 21.2585 10.8257V20.3001ZM21.0574 9.65364C19.9442 9.65364 19.0174 8.84939 18.831 7.79014H23.2887C23.0975 8.84449 22.1706 9.65364 21.0574 9.65364Z" fill="black"/>
</svg>
