<svg width="320" height="140" viewBox="0 0 320 140" fill="none" xmlns="http://www.w3.org/2000/svg">
<rect width="320" height="140" fill="#88B18B"/>
<path d="M23.876 50.796H21.412V57H17.87V41.6H21.412V47.826H23.964L28.012 41.6H31.774L26.736 49.036L31.928 57H27.88L23.876 50.796ZM38.039 44.988C39.8723 44.988 41.2803 45.428 42.263 46.308C43.2457 47.1733 43.737 48.486 43.737 50.246V57H40.525V55.526C39.8797 56.626 38.677 57.176 36.917 57.176C36.0077 57.176 35.2157 57.022 34.541 56.714C33.881 56.406 33.375 55.9807 33.023 55.438C32.671 54.8953 32.495 54.2793 32.495 53.59C32.495 52.49 32.9057 51.6247 33.727 50.994C34.563 50.3633 35.8463 50.048 37.577 50.048H40.305C40.305 49.3 40.0777 48.728 39.623 48.332C39.1683 47.9213 38.4863 47.716 37.577 47.716C36.9463 47.716 36.323 47.8187 35.707 48.024C35.1057 48.2147 34.5923 48.4787 34.167 48.816L32.935 46.418C33.5803 45.9633 34.3503 45.6113 35.245 45.362C36.1543 45.1127 37.0857 44.988 38.039 44.988ZM37.775 54.866C38.3617 54.866 38.8823 54.734 39.337 54.47C39.7917 54.1913 40.1143 53.788 40.305 53.26V52.05H37.951C36.543 52.05 35.839 52.512 35.839 53.436C35.839 53.876 36.0077 54.228 36.345 54.492C36.697 54.7413 37.1737 54.866 37.775 54.866ZM51.9324 52.512H50.1504V57H46.7184V45.164H50.1504V49.762H51.9984L55.2104 45.164H58.8624L54.7264 50.84L59.1484 57H55.1004L51.9324 52.512ZM78.9221 45.164L73.5761 57.726C73.0334 59.09 72.3587 60.0507 71.5521 60.608C70.7601 61.1653 69.7994 61.444 68.6701 61.444C68.0541 61.444 67.4454 61.3487 66.8441 61.158C66.2427 60.9673 65.7514 60.7033 65.3701 60.366L66.6241 57.924C66.8881 58.1587 67.1887 58.342 67.5261 58.474C67.8781 58.606 68.2227 58.672 68.5601 58.672C69.0294 58.672 69.4107 58.5547 69.7041 58.32C69.9974 58.1 70.2614 57.726 70.4961 57.198L70.5401 57.088L65.4141 45.164H68.9561L72.2781 53.194L75.6221 45.164H78.9221ZM87.3477 57L84.7517 53.37L82.0677 57H78.3277L82.8817 51.038L78.4817 45.164H82.3317L84.8397 48.618L87.4137 45.164H91.0657L86.6657 50.95L91.2417 57H87.3477ZM97.3144 44.988C99.1477 44.988 100.556 45.428 101.538 46.308C102.521 47.1733 103.012 48.486 103.012 50.246V57H99.8004V55.526C99.1551 56.626 97.9524 57.176 96.1924 57.176C95.2831 57.176 94.4911 57.022 93.8164 56.714C93.1564 56.406 92.6504 55.9807 92.2984 55.438C91.9464 54.8953 91.7704 54.2793 91.7704 53.59C91.7704 52.49 92.1811 51.6247 93.0024 50.994C93.8384 50.3633 95.1217 50.048 96.8524 50.048H99.5804C99.5804 49.3 99.3531 48.728 98.8984 48.332C98.4437 47.9213 97.7617 47.716 96.8524 47.716C96.2217 47.716 95.5984 47.8187 94.9824 48.024C94.3811 48.2147 93.8677 48.4787 93.4424 48.816L92.2104 46.418C92.8557 45.9633 93.6257 45.6113 94.5204 45.362C95.4297 45.1127 96.3611 44.988 97.3144 44.988ZM97.0504 54.866C97.6371 54.866 98.1577 54.734 98.6124 54.47C99.0671 54.1913 99.3897 53.788 99.5804 53.26V52.05H97.2264C95.8184 52.05 95.1144 52.512 95.1144 53.436C95.1144 53.876 95.2831 54.228 95.6204 54.492C95.9724 54.7413 96.4491 54.866 97.0504 54.866ZM117.72 52.512H116.07V57H112.682V52.512H111.032L108.524 57H104.476L108.194 50.884L104.74 45.164H108.37L110.988 49.762H112.682V45.164H116.07V49.762H117.742L120.382 45.164H124.012L120.558 50.884L124.298 57H120.228L117.72 52.512ZM126.082 45.164H129.492V52.204L135.256 45.164H138.402V57H134.992V49.96L129.25 57H126.082V45.164ZM150.743 50.818C152.136 51.2873 152.833 52.226 152.833 53.634C152.833 54.7047 152.429 55.5333 151.623 56.12C150.816 56.7067 149.613 57 148.015 57H141.701V45.164H147.751C149.232 45.164 150.391 45.4353 151.227 45.978C152.063 46.506 152.481 47.254 152.481 48.222C152.481 48.8087 152.327 49.3293 152.019 49.784C151.725 50.224 151.3 50.5687 150.743 50.818ZM144.847 50.026H147.443C148.645 50.026 149.247 49.6007 149.247 48.75C149.247 47.914 148.645 47.496 147.443 47.496H144.847V50.026ZM147.729 54.668C148.99 54.668 149.621 54.2353 149.621 53.37C149.621 52.9153 149.474 52.5853 149.181 52.38C148.887 52.16 148.425 52.05 147.795 52.05H144.847V54.668H147.729ZM159.984 44.988C161.818 44.988 163.226 45.428 164.208 46.308C165.191 47.1733 165.682 48.486 165.682 50.246V57H162.47V55.526C161.825 56.626 160.622 57.176 158.862 57.176C157.953 57.176 157.161 57.022 156.486 56.714C155.826 56.406 155.32 55.9807 154.968 55.438C154.616 54.8953 154.44 54.2793 154.44 53.59C154.44 52.49 154.851 51.6247 155.672 50.994C156.508 50.3633 157.792 50.048 159.522 50.048H162.25C162.25 49.3 162.023 48.728 161.568 48.332C161.114 47.9213 160.432 47.716 159.522 47.716C158.892 47.716 158.268 47.8187 157.652 48.024C157.051 48.2147 156.538 48.4787 156.112 48.816L154.88 46.418C155.526 45.9633 156.296 45.6113 157.19 45.362C158.1 45.1127 159.031 44.988 159.984 44.988ZM159.72 54.866C160.307 54.866 160.828 54.734 161.282 54.47C161.737 54.1913 162.06 53.788 162.25 53.26V52.05H159.896C158.488 52.05 157.784 52.512 157.784 53.436C157.784 53.876 157.953 54.228 158.29 54.492C158.642 54.7413 159.119 54.866 159.72 54.866ZM178.608 47.98H174.604V57H171.194V47.98H167.19V45.164H178.608V47.98ZM186.839 48.948C188.379 48.9627 189.56 49.3147 190.381 50.004C191.202 50.6787 191.613 51.6393 191.613 52.886C191.613 54.1913 191.151 55.2107 190.227 55.944C189.318 56.6627 188.034 57.022 186.377 57.022L180.437 57V45.164H183.847V48.948H186.839ZM186.069 54.58C186.729 54.5947 187.235 54.4553 187.587 54.162C187.939 53.8687 188.115 53.4287 188.115 52.842C188.115 52.27 187.939 51.852 187.587 51.588C187.25 51.324 186.744 51.1847 186.069 51.17L183.847 51.148V54.58H186.069ZM25.328 75.84C26.032 76.06 26.5747 76.3973 26.956 76.852C27.352 77.3067 27.55 77.8493 27.55 78.48C27.55 79.228 27.2933 79.888 26.78 80.46C26.2667 81.0173 25.5627 81.45 24.668 81.758C23.7733 82.066 22.7613 82.22 21.632 82.22C20.708 82.22 19.7987 82.1247 18.904 81.934C18.0093 81.7433 17.1807 81.4573 16.418 81.076L17.342 78.678C18.5887 79.2793 19.9673 79.58 21.478 79.58C22.2847 79.58 22.9153 79.4627 23.37 79.228C23.8393 78.9787 24.074 78.634 24.074 78.194C24.074 77.8127 23.9127 77.5267 23.59 77.336C23.2673 77.1307 22.798 77.028 22.182 77.028H19.762V74.894H21.874C22.4753 74.894 22.9373 74.7987 23.26 74.608C23.5827 74.4173 23.744 74.1387 23.744 73.772C23.744 73.3907 23.5387 73.0973 23.128 72.892C22.732 72.6867 22.16 72.584 21.412 72.584C20.268 72.584 19.0213 72.8553 17.672 73.398L16.836 71.022C18.4787 70.3033 20.0773 69.944 21.632 69.944C22.7027 69.944 23.656 70.076 24.492 70.34C25.3427 70.604 26.01 70.9927 26.494 71.506C26.978 72.0047 27.22 72.5913 27.22 73.266C27.22 73.8233 27.0513 74.3293 26.714 74.784C26.3767 75.224 25.9147 75.576 25.328 75.84ZM34.6445 69.988C36.4778 69.988 37.8858 70.428 38.8685 71.308C39.8512 72.1733 40.3425 73.486 40.3425 75.246V82H37.1305V80.526C36.4852 81.626 35.2825 82.176 33.5225 82.176C32.6132 82.176 31.8212 82.022 31.1465 81.714C30.4865 81.406 29.9805 80.9807 29.6285 80.438C29.2765 79.8953 29.1005 79.2793 29.1005 78.59C29.1005 77.49 29.5112 76.6247 30.3325 75.994C31.1685 75.3633 32.4518 75.048 34.1825 75.048H36.9105C36.9105 74.3 36.6832 73.728 36.2285 73.332C35.7738 72.9213 35.0918 72.716 34.1825 72.716C33.5518 72.716 32.9285 72.8187 32.3125 73.024C31.7112 73.2147 31.1978 73.4787 30.7725 73.816L29.5405 71.418C30.1858 70.9633 30.9558 70.6113 31.8505 70.362C32.7598 70.1127 33.6912 69.988 34.6445 69.988ZM34.3805 79.866C34.9672 79.866 35.4878 79.734 35.9425 79.47C36.3972 79.1913 36.7198 78.788 36.9105 78.26V77.05H34.5565C33.1485 77.05 32.4445 77.512 32.4445 78.436C32.4445 78.876 32.6132 79.228 32.9505 79.492C33.3025 79.7413 33.7792 79.866 34.3805 79.866ZM62.8863 79.184V84.596H59.6963V82H49.5543V70.164H52.9643V79.184H57.7383V70.164H61.1703V79.184H62.8863ZM74.0865 75.818C75.4799 76.2873 76.1765 77.226 76.1765 78.634C76.1765 79.7047 75.7732 80.5333 74.9665 81.12C74.1599 81.7067 72.9572 82 71.3585 82H65.0445V70.164H71.0945C72.5759 70.164 73.7345 70.4353 74.5705 70.978C75.4065 71.506 75.8245 72.254 75.8245 73.222C75.8245 73.8087 75.6705 74.3293 75.3625 74.784C75.0692 75.224 74.6439 75.5687 74.0865 75.818ZM68.1905 75.026H70.7865C71.9892 75.026 72.5905 74.6007 72.5905 73.75C72.5905 72.914 71.9892 72.496 70.7865 72.496H68.1905V75.026ZM71.0725 79.668C72.3339 79.668 72.9645 79.2353 72.9645 78.37C72.9645 77.9153 72.8179 77.5853 72.5245 77.38C72.2312 77.16 71.7692 77.05 71.1385 77.05H68.1905V79.668H71.0725ZM90.2361 76.126C90.2361 76.17 90.2141 76.478 90.1701 77.05H81.2161C81.3774 77.7833 81.7587 78.3627 82.3601 78.788C82.9614 79.2133 83.7094 79.426 84.6041 79.426C85.2201 79.426 85.7627 79.338 86.2321 79.162C86.7161 78.9713 87.1634 78.678 87.5741 78.282L89.4001 80.262C88.2854 81.538 86.6574 82.176 84.5161 82.176C83.1814 82.176 82.0007 81.9193 80.9741 81.406C79.9474 80.878 79.1554 80.152 78.5981 79.228C78.0407 78.304 77.7621 77.2553 77.7621 76.082C77.7621 74.9233 78.0334 73.882 78.5761 72.958C79.1334 72.0193 79.8887 71.2933 80.8421 70.78C81.8101 70.252 82.8881 69.988 84.0761 69.988C85.2347 69.988 86.2834 70.2373 87.2221 70.736C88.1607 71.2347 88.8941 71.9533 89.4221 72.892C89.9647 73.816 90.2361 74.894 90.2361 76.126ZM84.0981 72.584C83.3207 72.584 82.6681 72.804 82.1401 73.244C81.6121 73.684 81.2894 74.2853 81.1721 75.048H87.0021C86.8847 74.3 86.5621 73.706 86.0341 73.266C85.5061 72.8113 84.8607 72.584 84.0981 72.584ZM102.403 72.98H98.3986V82H94.9886V72.98H90.9846V70.164H102.403V72.98ZM108.83 69.988C110.663 69.988 112.071 70.428 113.054 71.308C114.037 72.1733 114.528 73.486 114.528 75.246V82H111.316V80.526C110.671 81.626 109.468 82.176 107.708 82.176C106.799 82.176 106.007 82.022 105.332 81.714C104.672 81.406 104.166 80.9807 103.814 80.438C103.462 79.8953 103.286 79.2793 103.286 78.59C103.286 77.49 103.697 76.6247 104.518 75.994C105.354 75.3633 106.637 75.048 108.368 75.048H111.096C111.096 74.3 110.869 73.728 110.414 73.332C109.959 72.9213 109.277 72.716 108.368 72.716C107.737 72.716 107.114 72.8187 106.498 73.024C105.897 73.2147 105.383 73.4787 104.958 73.816L103.726 71.418C104.371 70.9633 105.141 70.6113 106.036 70.362C106.945 70.1127 107.877 69.988 108.83 69.988ZM108.566 79.866C109.153 79.866 109.673 79.734 110.128 79.47C110.583 79.1913 110.905 78.788 111.096 78.26V77.05H108.742C107.334 77.05 106.63 77.512 106.63 78.436C106.63 78.876 106.799 79.228 107.136 79.492C107.488 79.7413 107.965 79.866 108.566 79.866ZM129.059 82V74.916L125.517 80.856H124.065L120.611 74.894V82H117.509V70.164H121.095L124.879 77.006L128.905 70.164H132.117L132.161 82H129.059ZM135.449 70.164H138.859V77.204L144.623 70.164H147.769V82H144.359V74.96L138.617 82H135.449V70.164Z" fill="white"/>
</svg>
