<svg width="37" height="38" viewBox="0 0 37 38" fill="none" xmlns="http://www.w3.org/2000/svg">
<g clip-path="url(#clip0)">
<path d="M18.5 37.998C28.7173 37.998 37 29.4915 37 18.998C37 8.50464 28.7173 -0.00195312 18.5 -0.00195312C8.28273 -0.00195312 0 8.50464 0 18.998C0 29.4915 8.28273 37.998 18.5 37.998Z" fill="#DC4E41"/>
<g clip-path="url(#clip1)">
<path d="M11.4422 19.8507C11.3766 23.1198 13.5689 26.2395 16.5848 27.2569C19.4255 28.2371 22.9182 27.5038 24.8085 25.0053C26.1886 23.2546 26.5023 20.9206 26.3529 18.7401C23.9201 18.7178 21.4873 18.7252 19.0581 18.729C19.0542 19.6191 19.0581 20.5058 19.0618 21.3958C20.5184 21.4372 21.9754 21.4182 23.432 21.4483C23.0643 22.7425 22.2267 23.9469 20.9553 24.4143C18.5008 25.5252 15.3689 24.0739 14.5965 21.4294C13.6642 18.897 15.1905 15.8409 17.7103 15.1043C19.2728 14.5397 20.8825 15.1754 22.2194 16.0096C22.8968 15.3586 23.5306 14.663 24.1532 13.9598C22.6343 12.6545 20.6823 11.8542 18.6756 12.03C14.7383 12.0781 11.2928 15.8111 11.4422 19.8507Z" fill="#DC4E41"/>
<path d="M11.4422 19.8491C11.2928 15.8095 14.738 12.0764 18.6752 12.028C20.682 11.8522 22.6343 12.6526 24.1529 13.9579C23.5299 14.6613 22.8961 15.3567 22.2191 16.0076C20.8821 15.1734 19.2725 14.5377 17.71 15.1023C15.1898 15.8393 13.6636 18.8953 14.5962 21.4274C15.3685 24.0719 18.5005 25.5232 20.955 24.4123C22.226 23.9449 23.064 22.7405 23.4317 21.4464C21.975 21.4166 20.5181 21.4352 19.0614 21.3939C19.0578 20.5038 19.0542 19.6171 19.0578 18.727C21.487 18.7233 23.9197 18.7158 26.3525 18.7382C26.5019 20.919 26.1886 23.253 24.8082 25.0033C22.9179 27.5019 19.4255 28.2351 16.5844 27.255C13.5693 26.2379 11.3766 23.1182 11.4422 19.8491Z" fill="white"/>
</g>
</g>
<defs>
<clipPath id="clip0">
<rect width="37" height="38" fill="white"/>
</clipPath>
<clipPath id="clip1">
<rect x="11" y="12" width="16" height="16" fill="white"/>
</clipPath>
</defs>
</svg>
