<svg width="38" height="38" viewBox="0 0 38 38" fill="none" xmlns="http://www.w3.org/2000/svg">
<path d="M19 38C29.4934 38 38 29.4934 38 19C38 8.50659 29.4934 0 19 0C8.50659 0 0 8.50659 0 19C0 29.4934 8.50659 38 19 38Z" fill="#4D76A1"/>
<path fill-rule="evenodd" clip-rule="evenodd" d="M18.253 26.9456H19.6278C19.6278 26.9456 20.0431 26.9004 20.2551 26.674C20.4502 26.4661 20.444 26.0757 20.444 26.0757C20.444 26.0757 20.4171 24.248 21.2733 23.9788C22.1173 23.7137 23.2011 25.7453 24.3498 26.5264C25.2185 27.1176 25.8785 26.988 25.8785 26.988L28.9501 26.9456C28.9501 26.9456 30.5568 26.8475 29.795 25.5958C29.7325 25.4934 29.3513 24.6699 27.5113 22.9777C25.5853 21.2067 25.8433 21.4931 28.1632 18.4296C29.5761 16.5638 30.1409 15.4248 29.9645 14.9369C29.7962 14.4723 28.7571 14.5951 28.7571 14.5951L25.2987 14.6164C25.2987 14.6164 25.0424 14.5818 24.8522 14.6944C24.6664 14.8048 24.5468 15.0622 24.5468 15.0622C24.5468 15.0622 23.9995 16.506 23.2695 17.7338C21.7295 20.3247 21.1137 20.4614 20.8621 20.3006C20.2766 19.9256 20.4228 18.7943 20.4228 17.9906C20.4228 15.4798 20.8071 14.433 19.6743 14.162C19.2984 14.0719 19.0217 14.0125 18.0603 14.003C16.8264 13.9903 15.7819 14.0067 15.1905 14.2938C14.7971 14.4846 14.4936 14.91 14.6785 14.9344C14.907 14.9647 15.4247 15.0727 15.6992 15.443C16.0536 15.9207 16.0411 16.9935 16.0411 16.9935C16.0411 16.9935 16.2447 19.9491 15.5655 20.3163C15.0994 20.5682 14.4599 20.054 13.087 17.7035C12.3835 16.4995 11.8524 15.1686 11.8524 15.1686C11.8524 15.1686 11.75 14.9199 11.5673 14.7869C11.3456 14.6257 11.0359 14.5743 11.0359 14.5743L7.74952 14.5957C7.74952 14.5957 7.25618 14.6093 7.07508 14.8218C6.91397 15.0108 7.06228 15.4019 7.06228 15.4019C7.06228 15.4019 9.63515 21.3657 12.5484 24.3711C15.2196 27.1265 18.253 26.9456 18.253 26.9456Z" fill="white"/>
</svg>
