<svg width="320" height="140" viewBox="0 0 320 140" fill="none" xmlns="http://www.w3.org/2000/svg">
<rect width="320" height="140" fill="#F47E6F"/>
<path d="M30.564 41.6V57H27.044V51.456C25.7093 51.94 24.47 52.182 23.326 52.182C21.258 52.182 19.674 51.6907 18.574 50.708C17.474 49.7107 16.924 48.2807 16.924 46.418V41.6H20.444V46.022C20.444 47.078 20.7227 47.8773 21.28 48.42C21.852 48.948 22.6733 49.212 23.744 49.212C24.9173 49.212 26.0173 48.9847 27.044 48.53V41.6H30.564ZM38.7265 44.988C40.5598 44.988 41.9678 45.428 42.9505 46.308C43.9332 47.1733 44.4245 48.486 44.4245 50.246V57H41.2125V55.526C40.5672 56.626 39.3645 57.176 37.6045 57.176C36.6952 57.176 35.9032 57.022 35.2285 56.714C34.5685 56.406 34.0625 55.9807 33.7105 55.438C33.3585 54.8953 33.1825 54.2793 33.1825 53.59C33.1825 52.49 33.5932 51.6247 34.4145 50.994C35.2505 50.3633 36.5338 50.048 38.2645 50.048H40.9925C40.9925 49.3 40.7652 48.728 40.3105 48.332C39.8558 47.9213 39.1738 47.716 38.2645 47.716C37.6338 47.716 37.0105 47.8187 36.3945 48.024C35.7932 48.2147 35.2798 48.4787 34.8545 48.816L33.6225 46.418C34.2678 45.9633 35.0378 45.6113 35.9325 45.362C36.8418 45.1127 37.7732 44.988 38.7265 44.988ZM38.4625 54.866C39.0492 54.866 39.5698 54.734 40.0245 54.47C40.4792 54.1913 40.8018 53.788 40.9925 53.26V52.05H38.6385C37.2305 52.05 36.5265 52.512 36.5265 53.436C36.5265 53.876 36.6952 54.228 37.0325 54.492C37.3845 54.7413 37.8612 54.866 38.4625 54.866ZM53.0379 57.176C51.7765 57.176 50.6399 56.9193 49.6279 56.406C48.6305 55.878 47.8459 55.152 47.2739 54.228C46.7165 53.304 46.4379 52.2553 46.4379 51.082C46.4379 49.9087 46.7165 48.86 47.2739 47.936C47.8459 47.012 48.6305 46.2933 49.6279 45.78C50.6399 45.252 51.7765 44.988 53.0379 44.988C54.2845 44.988 55.3699 45.252 56.2939 45.78C57.2325 46.2933 57.9145 47.034 58.3399 48.002L55.6779 49.432C55.0619 48.3467 54.1745 47.804 53.0159 47.804C52.1212 47.804 51.3805 48.0973 50.7939 48.684C50.2072 49.2707 49.9139 50.07 49.9139 51.082C49.9139 52.094 50.2072 52.8933 50.7939 53.48C51.3805 54.0667 52.1212 54.36 53.0159 54.36C54.1892 54.36 55.0765 53.8173 55.6779 52.732L58.3399 54.184C57.9145 55.1227 57.2325 55.856 56.2939 56.384C55.3699 56.912 54.2845 57.176 53.0379 57.176ZM70.3264 47.98H66.3224V57H62.9124V47.98H58.9084V45.164H70.3264V47.98ZM77.2057 57.176C75.9591 57.176 74.8371 56.9193 73.8397 56.406C72.8571 55.878 72.0871 55.152 71.5297 54.228C70.9724 53.304 70.6937 52.2553 70.6937 51.082C70.6937 49.9087 70.9724 48.86 71.5297 47.936C72.0871 47.012 72.8571 46.2933 73.8397 45.78C74.8371 45.252 75.9591 44.988 77.2057 44.988C78.4524 44.988 79.5671 45.252 80.5497 45.78C81.5324 46.2933 82.3024 47.012 82.8597 47.936C83.4171 48.86 83.6957 49.9087 83.6957 51.082C83.6957 52.2553 83.4171 53.304 82.8597 54.228C82.3024 55.152 81.5324 55.878 80.5497 56.406C79.5671 56.9193 78.4524 57.176 77.2057 57.176ZM77.2057 54.36C78.0857 54.36 78.8044 54.0667 79.3617 53.48C79.9337 52.8787 80.2197 52.0793 80.2197 51.082C80.2197 50.0847 79.9337 49.2927 79.3617 48.706C78.8044 48.1047 78.0857 47.804 77.2057 47.804C76.3257 47.804 75.5997 48.1047 75.0277 48.706C74.4557 49.2927 74.1697 50.0847 74.1697 51.082C74.1697 52.0793 74.4557 52.8787 75.0277 53.48C75.5997 54.0667 76.3257 54.36 77.2057 54.36ZM99.9647 50.84C100.669 51.06 101.211 51.3973 101.593 51.852C101.989 52.3067 102.187 52.8493 102.187 53.48C102.187 54.228 101.93 54.888 101.417 55.46C100.903 56.0173 100.199 56.45 99.3047 56.758C98.4101 57.066 97.3981 57.22 96.2687 57.22C95.3447 57.22 94.4354 57.1247 93.5407 56.934C92.6461 56.7433 91.8174 56.4573 91.0547 56.076L91.9787 53.678C93.2254 54.2793 94.6041 54.58 96.1147 54.58C96.9214 54.58 97.5521 54.4627 98.0067 54.228C98.4761 53.9787 98.7107 53.634 98.7107 53.194C98.7107 52.8127 98.5494 52.5267 98.2267 52.336C97.9041 52.1307 97.4347 52.028 96.8187 52.028H94.3987V49.894H96.5107C97.1121 49.894 97.5741 49.7987 97.8967 49.608C98.2194 49.4173 98.3807 49.1387 98.3807 48.772C98.3807 48.3907 98.1754 48.0973 97.7647 47.892C97.3687 47.6867 96.7967 47.584 96.0487 47.584C94.9047 47.584 93.6581 47.8553 92.3087 48.398L91.4727 46.022C93.1154 45.3033 94.7141 44.944 96.2687 44.944C97.3394 44.944 98.2927 45.076 99.1287 45.34C99.9794 45.604 100.647 45.9927 101.131 46.506C101.615 47.0047 101.857 47.5913 101.857 48.266C101.857 48.8233 101.688 49.3293 101.351 49.784C101.013 50.224 100.551 50.576 99.9647 50.84ZM109.281 44.988C111.115 44.988 112.523 45.428 113.505 46.308C114.488 47.1733 114.979 48.486 114.979 50.246V57H111.767V55.526C111.122 56.626 109.919 57.176 108.159 57.176C107.25 57.176 106.458 57.022 105.783 56.714C105.123 56.406 104.617 55.9807 104.265 55.438C103.913 54.8953 103.737 54.2793 103.737 53.59C103.737 52.49 104.148 51.6247 104.969 50.994C105.805 50.3633 107.089 50.048 108.819 50.048H111.547C111.547 49.3 111.32 48.728 110.865 48.332C110.411 47.9213 109.729 47.716 108.819 47.716C108.189 47.716 107.565 47.8187 106.949 48.024C106.348 48.2147 105.835 48.4787 105.409 48.816L104.177 46.418C104.823 45.9633 105.593 45.6113 106.487 45.362C107.397 45.1127 108.328 44.988 109.281 44.988ZM109.017 54.866C109.604 54.866 110.125 54.734 110.579 54.47C111.034 54.1913 111.357 53.788 111.547 53.26V52.05H109.193C107.785 52.05 107.081 52.512 107.081 53.436C107.081 53.876 107.25 54.228 107.587 54.492C107.939 54.7413 108.416 54.866 109.017 54.866ZM131.227 54.184V59.552H128.037V57H119.721V59.552H116.531V54.184H117.015C117.748 54.1693 118.254 53.7367 118.533 52.886C118.811 52.0353 118.987 50.8253 119.061 49.256L119.215 45.164H129.533V54.184H131.227ZM122.163 49.498C122.119 50.7007 122.023 51.6833 121.877 52.446C121.745 53.2087 121.488 53.788 121.107 54.184H126.101V47.98H122.229L122.163 49.498ZM137.984 44.988C139.818 44.988 141.226 45.428 142.208 46.308C143.191 47.1733 143.682 48.486 143.682 50.246V57H140.47V55.526C139.825 56.626 138.622 57.176 136.862 57.176C135.953 57.176 135.161 57.022 134.486 56.714C133.826 56.406 133.32 55.9807 132.968 55.438C132.616 54.8953 132.44 54.2793 132.44 53.59C132.44 52.49 132.851 51.6247 133.672 50.994C134.508 50.3633 135.792 50.048 137.522 50.048H140.25C140.25 49.3 140.023 48.728 139.568 48.332C139.114 47.9213 138.432 47.716 137.522 47.716C136.892 47.716 136.268 47.8187 135.652 48.024C135.051 48.2147 134.538 48.4787 134.112 48.816L132.88 46.418C133.526 45.9633 134.296 45.6113 135.19 45.362C136.1 45.1127 137.031 44.988 137.984 44.988ZM137.72 54.866C138.307 54.866 138.828 54.734 139.282 54.47C139.737 54.1913 140.06 53.788 140.25 53.26V52.05H137.896C136.488 52.05 135.784 52.512 135.784 53.436C135.784 53.876 135.953 54.228 136.29 54.492C136.642 54.7413 137.119 54.866 137.72 54.866ZM155.706 50.818C157.099 51.2873 157.796 52.226 157.796 53.634C157.796 54.7047 157.392 55.5333 156.586 56.12C155.779 56.7067 154.576 57 152.978 57H146.664V45.164H152.714C154.195 45.164 155.354 45.4353 156.19 45.978C157.026 46.506 157.444 47.254 157.444 48.222C157.444 48.8087 157.29 49.3293 156.982 49.784C156.688 50.224 156.263 50.5687 155.706 50.818ZM149.81 50.026H152.406C153.608 50.026 154.21 49.6007 154.21 48.75C154.21 47.914 153.608 47.496 152.406 47.496H149.81V50.026ZM152.692 54.668C153.953 54.668 154.584 54.2353 154.584 53.37C154.584 52.9153 154.437 52.5853 154.144 52.38C153.85 52.16 153.388 52.05 152.758 52.05H149.81V54.668H152.692ZM164.947 44.988C166.781 44.988 168.189 45.428 169.171 46.308C170.154 47.1733 170.645 48.486 170.645 50.246V57H167.433V55.526C166.788 56.626 165.585 57.176 163.825 57.176C162.916 57.176 162.124 57.022 161.449 56.714C160.789 56.406 160.283 55.9807 159.931 55.438C159.579 54.8953 159.403 54.2793 159.403 53.59C159.403 52.49 159.814 51.6247 160.635 50.994C161.471 50.3633 162.755 50.048 164.485 50.048H167.213C167.213 49.3 166.986 48.728 166.531 48.332C166.077 47.9213 165.395 47.716 164.485 47.716C163.855 47.716 163.231 47.8187 162.615 48.024C162.014 48.2147 161.501 48.4787 161.075 48.816L159.843 46.418C160.489 45.9633 161.259 45.6113 162.153 45.362C163.063 45.1127 163.994 44.988 164.947 44.988ZM164.683 54.866C165.27 54.866 165.791 54.734 166.245 54.47C166.7 54.1913 167.023 53.788 167.213 53.26V52.05H164.859C163.451 52.05 162.747 52.512 162.747 53.436C162.747 53.876 162.916 54.228 163.253 54.492C163.605 54.7413 164.082 54.866 164.683 54.866ZM185.133 51.126C185.133 51.17 185.111 51.478 185.067 52.05H176.113C176.274 52.7833 176.655 53.3627 177.257 53.788C177.858 54.2133 178.606 54.426 179.501 54.426C180.117 54.426 180.659 54.338 181.129 54.162C181.613 53.9713 182.06 53.678 182.471 53.282L184.297 55.262C183.182 56.538 181.554 57.176 179.413 57.176C178.078 57.176 176.897 56.9193 175.871 56.406C174.844 55.878 174.052 55.152 173.495 54.228C172.937 53.304 172.659 52.2553 172.659 51.082C172.659 49.9233 172.93 48.882 173.473 47.958C174.03 47.0193 174.785 46.2933 175.739 45.78C176.707 45.252 177.785 44.988 178.973 44.988C180.131 44.988 181.18 45.2373 182.119 45.736C183.057 46.2347 183.791 46.9533 184.319 47.892C184.861 48.816 185.133 49.894 185.133 51.126ZM178.995 47.584C178.217 47.584 177.565 47.804 177.037 48.244C176.509 48.684 176.186 49.2853 176.069 50.048H181.899C181.781 49.3 181.459 48.706 180.931 48.266C180.403 47.8113 179.757 47.584 178.995 47.584ZM199.313 57V49.916L195.771 55.856H194.319L190.865 49.894V57H187.763V45.164H191.349L195.133 52.006L199.159 45.164H202.371L202.415 57H199.313ZM211.929 48.948C213.469 48.9627 214.635 49.3073 215.427 49.982C216.219 50.6567 216.615 51.6247 216.615 52.886C216.615 54.206 216.167 55.2253 215.273 55.944C214.378 56.6627 213.109 57.022 211.467 57.022L205.703 57V45.164H209.113V48.948H211.929ZM217.891 45.164H221.301V57H217.891V45.164ZM211.159 54.58C211.819 54.5947 212.325 54.4553 212.677 54.162C213.029 53.8687 213.205 53.4287 213.205 52.842C213.205 52.27 213.029 51.852 212.677 51.588C212.339 51.324 211.833 51.1847 211.159 51.17L209.113 51.148V54.58H211.159ZM236.115 51.126C236.115 51.17 236.093 51.478 236.049 52.05H227.095C227.256 52.7833 227.638 53.3627 228.239 53.788C228.84 54.2133 229.588 54.426 230.483 54.426C231.099 54.426 231.642 54.338 232.111 54.162C232.595 53.9713 233.042 53.678 233.453 53.282L235.279 55.262C234.164 56.538 232.536 57.176 230.395 57.176C229.06 57.176 227.88 56.9193 226.853 56.406C225.826 55.878 225.034 55.152 224.477 54.228C223.92 53.304 223.641 52.2553 223.641 51.082C223.641 49.9233 223.912 48.882 224.455 47.958C225.012 47.0193 225.768 46.2933 226.721 45.78C227.689 45.252 228.767 44.988 229.955 44.988C231.114 44.988 232.162 45.2373 233.101 45.736C234.04 46.2347 234.773 46.9533 235.301 47.892C235.844 48.816 236.115 49.894 236.115 51.126ZM229.977 47.584C229.2 47.584 228.547 47.804 228.019 48.244C227.491 48.684 227.168 49.2853 227.051 50.048H232.881C232.764 49.3 232.441 48.706 231.913 48.266C231.385 47.8113 230.74 47.584 229.977 47.584ZM26.692 75.818C28.0853 76.2873 28.782 77.226 28.782 78.634C28.782 79.7047 28.3787 80.5333 27.572 81.12C26.7653 81.7067 25.5627 82 23.964 82H17.65V70.164H23.7C25.1813 70.164 26.34 70.4353 27.176 70.978C28.012 71.506 28.43 72.254 28.43 73.222C28.43 73.8087 28.276 74.3293 27.968 74.784C27.6747 75.224 27.2493 75.5687 26.692 75.818ZM20.796 75.026H23.392C24.5947 75.026 25.196 74.6007 25.196 73.75C25.196 72.914 24.5947 72.496 23.392 72.496H20.796V75.026ZM23.678 79.668C24.9393 79.668 25.57 79.2353 25.57 78.37C25.57 77.9153 25.4233 77.5853 25.13 77.38C24.8367 77.16 24.3747 77.05 23.744 77.05H20.796V79.668H23.678ZM36.8795 82.176C35.6329 82.176 34.5109 81.9193 33.5135 81.406C32.5309 80.878 31.7609 80.152 31.2035 79.228C30.6462 78.304 30.3675 77.2553 30.3675 76.082C30.3675 74.9087 30.6462 73.86 31.2035 72.936C31.7609 72.012 32.5309 71.2933 33.5135 70.78C34.5109 70.252 35.6329 69.988 36.8795 69.988C38.1262 69.988 39.2409 70.252 40.2235 70.78C41.2062 71.2933 41.9762 72.012 42.5335 72.936C43.0909 73.86 43.3695 74.9087 43.3695 76.082C43.3695 77.2553 43.0909 78.304 42.5335 79.228C41.9762 80.152 41.2062 80.878 40.2235 81.406C39.2409 81.9193 38.1262 82.176 36.8795 82.176ZM36.8795 79.36C37.7595 79.36 38.4782 79.0667 39.0355 78.48C39.6075 77.8787 39.8935 77.0793 39.8935 76.082C39.8935 75.0847 39.6075 74.2927 39.0355 73.706C38.4782 73.1047 37.7595 72.804 36.8795 72.804C35.9995 72.804 35.2735 73.1047 34.7015 73.706C34.1295 74.2927 33.8435 75.0847 33.8435 76.082C33.8435 77.0793 34.1295 77.8787 34.7015 78.48C35.2735 79.0667 35.9995 79.36 36.8795 79.36ZM57.5001 70.164V82H54.0681V72.98H49.1401V82H45.7301V70.164H57.5001ZM67.7646 69.988C68.8646 69.988 69.862 70.2447 70.7566 70.758C71.666 71.2567 72.3773 71.968 72.8906 72.892C73.404 73.8013 73.6606 74.8647 73.6606 76.082C73.6606 77.2993 73.404 78.37 72.8906 79.294C72.3773 80.2033 71.666 80.9147 70.7566 81.428C69.862 81.9267 68.8646 82.176 67.7646 82.176C66.254 82.176 65.066 81.6993 64.2006 80.746V86.268H60.7686V70.164H64.0466V71.528C64.8973 70.5013 66.1366 69.988 67.7646 69.988ZM67.1706 79.36C68.0506 79.36 68.7693 79.0667 69.3266 78.48C69.8986 77.8787 70.1846 77.0793 70.1846 76.082C70.1846 75.0847 69.8986 74.2927 69.3266 73.706C68.7693 73.1047 68.0506 72.804 67.1706 72.804C66.2906 72.804 65.5646 73.1047 64.9926 73.706C64.4353 74.2927 64.1566 75.0847 64.1566 76.082C64.1566 77.0793 64.4353 77.8787 64.9926 78.48C65.5646 79.0667 66.2906 79.36 67.1706 79.36ZM81.61 82.176C80.3633 82.176 79.2413 81.9193 78.244 81.406C77.2613 80.878 76.4913 80.152 75.934 79.228C75.3767 78.304 75.098 77.2553 75.098 76.082C75.098 74.9087 75.3767 73.86 75.934 72.936C76.4913 72.012 77.2613 71.2933 78.244 70.78C79.2413 70.252 80.3633 69.988 81.61 69.988C82.8567 69.988 83.9713 70.252 84.954 70.78C85.9367 71.2933 86.7067 72.012 87.264 72.936C87.8213 73.86 88.1 74.9087 88.1 76.082C88.1 77.2553 87.8213 78.304 87.264 79.228C86.7067 80.152 85.9367 80.878 84.954 81.406C83.9713 81.9193 82.8567 82.176 81.61 82.176ZM81.61 79.36C82.49 79.36 83.2087 79.0667 83.766 78.48C84.338 77.8787 84.624 77.0793 84.624 76.082C84.624 75.0847 84.338 74.2927 83.766 73.706C83.2087 73.1047 82.49 72.804 81.61 72.804C80.73 72.804 80.004 73.1047 79.432 73.706C78.86 74.2927 78.574 75.0847 78.574 76.082C78.574 77.0793 78.86 77.8787 79.432 78.48C80.004 79.0667 80.73 79.36 81.61 79.36ZM96.0925 82.176C94.8312 82.176 93.6945 81.9193 92.6825 81.406C91.6852 80.878 90.9005 80.152 90.3285 79.228C89.7712 78.304 89.4925 77.2553 89.4925 76.082C89.4925 74.9087 89.7712 73.86 90.3285 72.936C90.9005 72.012 91.6852 71.2933 92.6825 70.78C93.6945 70.252 94.8312 69.988 96.0925 69.988C97.3392 69.988 98.4245 70.252 99.3485 70.78C100.287 71.2933 100.969 72.034 101.395 73.002L98.7325 74.432C98.1165 73.3467 97.2292 72.804 96.0705 72.804C95.1759 72.804 94.4352 73.0973 93.8485 73.684C93.2619 74.2707 92.9685 75.07 92.9685 76.082C92.9685 77.094 93.2619 77.8933 93.8485 78.48C94.4352 79.0667 95.1759 79.36 96.0705 79.36C97.2439 79.36 98.1312 78.8173 98.7325 77.732L101.395 79.184C100.969 80.1227 100.287 80.856 99.3485 81.384C98.4245 81.912 97.3392 82.176 96.0925 82.176ZM109.706 73.948C111.246 73.9627 112.412 74.3073 113.204 74.982C113.996 75.6567 114.392 76.6247 114.392 77.886C114.392 79.206 113.945 80.2253 113.05 80.944C112.155 81.6627 110.887 82.022 109.244 82.022L103.48 82V70.164H106.89V73.948H109.706ZM115.668 70.164H119.078V82H115.668V70.164ZM108.936 79.58C109.596 79.5947 110.102 79.4553 110.454 79.162C110.806 78.8687 110.982 78.4287 110.982 77.842C110.982 77.27 110.806 76.852 110.454 76.588C110.117 76.324 109.611 76.1847 108.936 76.17L106.89 76.148V79.58H108.936Z" fill="white"/>
</svg>
