<svg width="36" height="36" viewBox="0 0 36 36" fill="none" xmlns="http://www.w3.org/2000/svg">
<path d="M10.7236 13.0404C10.9955 13.0404 11.2674 12.9288 11.2674 12.7057V10.9067H12.3204C12.5504 10.9067 12.648 10.6836 12.648 10.4953C12.648 10.2723 12.5296 10.0701 12.3204 10.0701H11.2674V8.89169H13.0734C13.2825 8.89169 13.401 8.6685 13.401 8.41055C13.401 8.18737 13.3034 7.94336 13.0734 7.94336H10.6538C10.4168 7.94336 10.1797 8.05503 10.1797 8.27805V12.7057C10.1797 12.9288 10.4516 13.0404 10.7236 13.0404Z" fill="black"/>
<path d="M15.0127 13.0404C15.2846 13.0404 15.5566 12.9288 15.5566 12.7057V11.0253H16.0168L16.972 12.88C17.0487 13.0264 17.1812 13.0823 17.3206 13.0823C17.6414 13.0823 18.0039 12.7895 18.0039 12.5174C18.0039 12.4826 17.9971 12.4338 17.969 12.392L17.1184 10.851C17.6064 10.6627 17.9621 10.2165 17.9621 9.43546C17.9621 8.29904 17.2021 7.94336 16.2468 7.94336H14.8034C14.6012 7.94336 14.4688 8.09669 14.4688 8.271V12.7057C14.4688 12.9288 14.7408 13.0404 15.0127 13.0404ZM15.5566 8.89169H16.2468C16.6373 8.89169 16.8744 9.05206 16.8744 9.54025C16.8744 10.0283 16.6373 10.1886 16.2468 10.1886H15.5566V8.89169Z" fill="black"/>
<path d="M19.7125 13.0404H22.1948C22.4248 13.0404 22.5226 12.7963 22.5226 12.5733C22.5226 12.3152 22.404 12.0922 22.1948 12.0922H20.3262V10.9067H21.3721C21.6021 10.9067 21.6997 10.6836 21.6997 10.4953C21.6997 10.2723 21.5811 10.0701 21.3721 10.0701H20.3262V8.89169H22.1948C22.404 8.89169 22.5226 8.6685 22.5226 8.41055C22.5226 8.18737 22.4248 7.94336 22.1948 7.94336H19.7125C19.4754 7.94336 19.2383 8.05503 19.2383 8.27805V12.7057C19.2383 12.9288 19.4754 13.0404 19.7125 13.0404Z" fill="black"/>
<path d="M24.1655 13.0404H26.6479C26.878 13.0404 26.9755 12.7963 26.9755 12.5733C26.9755 12.3152 26.857 12.0922 26.6479 12.0922H24.7791V10.9067H25.825C26.0551 10.9067 26.1527 10.6836 26.1527 10.4953C26.1527 10.2723 26.0341 10.0701 25.825 10.0701H24.7791V8.89169H26.6479C26.857 8.89169 26.9755 8.6685 26.9755 8.41055C26.9755 8.18737 26.878 7.94336 26.6479 7.94336H24.1655C23.9284 7.94336 23.6914 8.05503 23.6914 8.27805V12.7057C23.6912 12.9288 23.9284 13.0404 24.1655 13.0404Z" fill="black"/>
<path d="M27.5343 19.8335L25.9463 19.1835L24.6065 16.1911C24.4037 15.738 23.9525 15.4453 23.4571 15.4453H11.6091C11.2692 15.4453 10.9938 15.7209 10.9938 16.0607V17.2449H8.61523C8.27541 17.2449 8 17.5204 8 17.8601C8 18.1999 8.27541 18.4755 8.61523 18.4755H10.9938V19.706H9.92741C9.58759 19.706 9.31218 19.9814 9.31218 20.3212C9.31218 20.6609 9.58759 20.9364 9.92741 20.9364H10.9938V22.1669H9.92741C9.58759 22.1669 9.31218 22.4423 9.31218 22.7821C9.31218 23.122 9.58759 23.3974 9.92741 23.3974H10.9938V24.6503C10.9938 24.9901 11.2692 25.2655 11.6091 25.2655H12.3994C12.4401 26.2827 13.2776 27.0978 14.3018 27.0978C15.3259 27.0978 16.1636 26.2827 16.2041 25.2655H23.5829C23.6236 26.2827 24.4612 27.0978 25.4853 27.0978C26.5096 27.0978 27.347 26.2827 27.3877 25.2655H28.3848C28.7246 25.2655 29 24.9901 29 24.6503V22.0209C29 21.0564 28.4247 20.1978 27.5343 19.8335ZM23.4834 16.6939L24.5359 19.0444H22.2473V16.6759H23.4571C23.4682 16.6759 23.4786 16.683 23.4834 16.6939ZM14.3018 25.8673C13.9303 25.8673 13.628 25.5627 13.628 25.1883C13.628 24.8139 13.9303 24.5093 14.3018 24.5093C14.6734 24.5093 14.9755 24.8139 14.9755 25.1883C14.9755 25.5626 14.6734 25.8673 14.3018 25.8673ZM25.4853 25.8673C25.1138 25.8673 24.8116 25.5627 24.8116 25.1883C24.8116 24.8139 25.1139 24.5093 25.4853 24.5093C25.857 24.5093 26.1592 24.8139 26.1592 25.1883C26.1592 25.5626 25.8569 25.8673 25.4853 25.8673ZM27.7695 24.035H27.0019C26.6538 23.5759 26.1036 23.2787 25.4853 23.2787C24.867 23.2787 24.3168 23.5759 23.9689 24.035H15.8183C15.4703 23.5759 14.9201 23.2787 14.3018 23.2787C13.6835 23.2787 13.1334 23.5759 12.7852 24.035H12.2243V20.9364H13.1266C13.4665 20.9364 13.7419 20.6609 13.7419 20.3212C13.7419 19.9814 13.4665 19.706 13.1266 19.706H12.2243V16.6759H21.0169V19.6597C21.0169 19.9995 21.2923 20.2749 21.6321 20.2749H25.3643L27.0683 20.9723C27.4943 21.1466 27.7695 21.5582 27.7695 22.0209V24.035Z" fill="black"/>
<circle cx="18" cy="18" r="17.5" stroke="#99E486"/>
</svg>
