<svg width="22" height="22" viewBox="0 0 22 22" fill="none" xmlns="http://www.w3.org/2000/svg">
<path d="M7.062 15.3H18.8V15.5H6.6C5.94228 15.5 5.4 14.9577 5.4 14.3C5.4 14.0864 5.45486 13.8948 5.54324 13.7401L5.54709 13.7334L5.55084 13.7266L7.03584 11.0316L7.28296 10.5831L7.06352 10.1205L3.10352 1.77145L2.83247 1.2H2.2H1V1H2.96206L3.72598 2.62536L3.99606 3.2H4.631H20.9C20.9244 3.2 20.9486 3.20907 20.9698 3.23023C20.9909 3.25139 21 3.27561 21 3.3C21 3.31603 20.998 3.32913 20.996 3.33736C20.9958 3.33815 20.9956 3.33885 20.9954 3.33945L20.9924 3.34499L17.0544 10.484L17.0532 10.4862C16.8518 10.8535 16.4587 11.1 16.005 11.1H7.81H7.21984L6.93458 11.6166L5.94458 13.4096L5.88151 13.5239L5.84986 13.6505L5.81686 13.7825L5.787 13.9019V14.025C5.787 14.7313 6.35572 15.3 7.062 15.3ZM5.411 19.8C5.411 19.1357 5.9488 18.6 6.6 18.6C7.25772 18.6 7.8 19.1423 7.8 19.8C7.8 20.4577 7.25772 21 6.6 21C5.9488 21 5.411 20.4643 5.411 19.8ZM16.411 19.8C16.411 19.1357 16.9488 18.6 17.6 18.6C18.2577 18.6 18.8 19.1423 18.8 19.8C18.8 20.4577 18.2577 21 17.6 21C16.9488 21 16.411 20.4643 16.411 19.8Z" stroke="#EB5642" stroke-width="2"/>
</svg>
