<svg width="15" height="15" viewBox="0 0 15 15" fill="none" xmlns="http://www.w3.org/2000/svg">
<path d="M10.1175 5.7225C9.9825 3.63 9.135 1.59 7.545 0C5.94 1.605 5.055 3.645 4.8825 5.7225C5.8425 6.2325 6.7275 6.8925 7.5 7.695C8.2725 6.9 9.1575 6.24 10.1175 5.7225ZM5.2425 7.71C5.1375 7.635 5.0175 7.5675 4.905 7.4925C5.0175 7.575 5.1375 7.635 5.2425 7.71ZM10.0575 7.5225C9.96 7.59 9.855 7.6425 9.7575 7.7175C9.855 7.6425 9.96 7.59 10.0575 7.5225ZM7.5 10.0875C5.8875 7.6275 3.135 6 0 6C0 9.99 2.52 13.365 6.0225 14.6175C6.495 14.79 6.99 14.9175 7.5 15C8.01 14.91 8.4975 14.7825 8.9775 14.6175C12.48 13.365 15 9.99 15 6C11.865 6 9.1125 7.6275 7.5 10.0875Z" fill="#474747"/>
</svg>
