<svg width="69" height="69" viewBox="0 0 69 69" fill="none" xmlns="http://www.w3.org/2000/svg">
<circle cx="34.5" cy="34.5" r="34.5" fill="#F8AAA0"/>
<path d="M15.6504 15.6504H53.3504V53.3504H15.6504V15.6504Z" fill="#505968"/>
<path d="M15.6504 19.5498H53.3504V53.3498H15.6504V19.5498Z" fill="#ADF0FF"/>
<path d="M48.8003 22.1504C40.2018 22.1508 32.6176 27.7812 30.129 36.0116C29.9973 36.4662 30.1256 36.9564 30.4631 37.2882L33.6631 40.4882C33.9949 40.8252 34.4847 40.9533 34.939 40.8216C43.1695 38.333 48.7998 30.7489 48.8003 22.1504Z" fill="#EFF2FA"/>
<path d="M35.1492 41.4918C35.1493 43.2576 34.4479 44.9512 33.1992 46.1998C36.7891 46.1998 39.6992 43.2897 39.6992 39.6998V38.6299C38.2808 39.5303 36.7513 40.2425 35.1492 40.7482V41.4918Z" fill="#EE2849"/>
<path d="M31.25 31.25C27.6601 31.25 24.75 34.1601 24.75 37.75C25.9986 36.5013 27.6921 35.7999 29.458 35.8H30.2015C30.7073 34.1979 31.4195 32.6684 32.3199 31.25H31.25Z" fill="#EE2849"/>
<path d="M42.2996 30.6002C43.3766 30.6002 44.2496 29.7272 44.2496 28.6502C44.2496 27.5732 43.3766 26.7002 42.2996 26.7002C41.2227 26.7002 40.3496 27.5732 40.3496 28.6502C40.3496 29.7272 41.2227 30.6002 42.2996 30.6002Z" fill="#1598FC"/>
<path d="M49.4508 18.2505C49.2787 18.2481 49.1138 18.1808 48.9893 18.062C48.9319 17.9988 48.8858 17.9262 48.8528 17.8475C48.8195 17.7693 48.8018 17.6854 48.8008 17.6005C48.803 17.4283 48.8703 17.2635 48.9893 17.139C49.1444 16.9893 49.3624 16.9239 49.5743 16.9635C49.6175 16.9696 49.6595 16.9827 49.6984 17.0025C49.7383 17.0156 49.7757 17.0353 49.8089 17.061C49.8473 17.087 49.8804 17.113 49.9129 17.139C50.0314 17.2637 50.0984 17.4285 50.1008 17.6005C50.0997 17.6854 50.0821 17.7693 50.0488 17.8475C50.0158 17.9262 49.9696 17.9988 49.9123 18.062C49.8798 18.088 49.8473 18.114 49.8083 18.14C49.775 18.1657 49.7377 18.1854 49.6978 18.1985C49.6589 18.2182 49.6169 18.2314 49.5736 18.2375C49.5331 18.245 49.492 18.2494 49.4508 18.2505Z" fill="#FFD33F"/>
<path d="M51.4002 18.2499C51.2281 18.2475 51.0633 18.1802 50.9387 18.0614C50.9091 18.0295 50.883 17.9947 50.8607 17.9574C50.8349 17.9242 50.8151 17.8869 50.8022 17.8469C50.7834 17.8101 50.7703 17.7706 50.7632 17.7299C50.7556 17.6869 50.7513 17.6435 50.7502 17.5999C50.7479 17.5147 50.7658 17.43 50.8022 17.3529C50.8352 17.2742 50.8813 17.2016 50.9387 17.1384C51.1993 16.8979 51.601 16.8979 51.8617 17.1384C51.9191 17.2016 51.9652 17.2742 51.9982 17.3529C52.0315 17.431 52.0491 17.515 52.0502 17.5999C52.0538 17.9553 51.7687 18.2463 51.4133 18.2499C51.4089 18.25 51.4046 18.25 51.4002 18.2499Z" fill="#3FD100"/>
<path d="M47.4996 18.2502C47.3275 18.2478 47.1627 18.1805 47.0381 18.0617C46.9807 17.9985 46.9346 17.9259 46.9016 17.8472C46.8683 17.769 46.8507 17.6851 46.8496 17.6002C46.8496 17.2412 47.1406 16.9502 47.4996 16.9502C47.8586 16.9502 48.1496 17.2412 48.1496 17.6002C48.1486 17.6851 48.1309 17.769 48.0976 17.8472C48.0646 17.9259 48.0185 17.9985 47.9611 18.0617C47.8365 18.1804 47.6717 18.2477 47.4996 18.2502Z" fill="#EE2849"/>
<path d="M30.129 36.0116C29.9973 36.4662 30.1256 36.9563 30.4631 37.2882L33.6624 40.4874C33.9943 40.825 34.4844 40.9533 34.939 40.8215C35.5928 40.6201 36.2352 40.3839 36.8637 40.1137L30.8369 34.0869C30.5667 34.7154 30.3304 35.3578 30.129 36.0116Z" fill="#505968"/>
<path d="M43.1484 22.9986L47.9552 27.8054C48.5137 25.9723 48.7985 24.0667 48.8002 22.1504C46.8848 22.1535 44.9804 22.4393 43.1484 22.9986Z" fill="#EE2849"/>
<path d="M24.5007 38.3506C24.7436 38.4513 25.0233 38.3955 25.2092 38.2096C26.3292 37.0838 27.8514 36.4507 29.4394 36.45C29.4569 36.9386 29.6579 37.4028 30.0023 37.75L33.2029 40.9493C33.5487 41.2943 34.0115 41.4966 34.4996 41.5161C34.4985 43.1022 33.8658 44.6224 32.7414 45.7411C32.4879 45.9953 32.4886 46.4069 32.7428 46.6604C32.8641 46.7813 33.0283 46.8495 33.1996 46.85C37.1465 46.8454 40.345 43.6469 40.3496 39.7V38.9707C45.9997 35.2335 49.413 28.9241 49.4496 22.15C49.4496 21.791 49.1586 21.5 48.7996 21.5C42.0256 21.5366 35.7161 24.95 31.9789 30.6H31.2496C27.3027 30.6046 24.1042 33.8031 24.0996 37.75C24.0995 38.0128 24.2578 38.2499 24.5007 38.3506ZM30.9246 36.8283C30.7585 36.6644 30.693 36.424 30.753 36.1985C30.8505 35.8735 30.9682 35.5627 31.0826 35.2481L35.7041 39.8703C35.3895 39.9841 35.0768 40.1017 34.7538 40.1992C34.5286 40.2598 34.2883 40.1942 34.1252 40.0276L30.9246 36.8283ZM34.6985 45.355C35.4213 44.1965 35.8029 42.8576 35.7996 41.4921V41.21C36.9242 40.8269 38.0119 40.3433 39.0496 39.765C39.0169 42.3933 37.2384 44.6783 34.6985 45.355ZM47.6082 26.5395L44.4102 23.3415C45.6313 23.0391 46.8802 22.8616 48.1373 22.8117C48.0879 24.069 47.9107 25.3181 47.6082 26.5395ZM42.9808 23.7497L47.1993 27.9694C45.5385 33.0158 41.8434 37.1379 37.008 39.3386L31.613 33.9436C33.8133 29.1078 37.9348 25.4119 42.9808 23.7497ZM31.1846 31.9C30.6063 32.9377 30.1227 34.0254 29.7397 35.15H29.4569C28.0916 35.1468 26.753 35.5284 25.5946 36.2511C26.2712 33.7111 28.5563 31.9324 31.1846 31.9Z" fill="black"/>
<path d="M42.2992 31.2498C43.7351 31.2498 44.8992 30.0857 44.8992 28.6498C44.8992 27.2139 43.7351 26.0498 42.2992 26.0498C40.8633 26.0498 39.6992 27.2139 39.6992 28.6498C39.6992 30.0857 40.8633 31.2498 42.2992 31.2498ZM42.2992 27.3498C43.0172 27.3498 43.5992 27.9318 43.5992 28.6498C43.5992 29.3678 43.0172 29.9498 42.2992 29.9498C41.5812 29.9498 40.9992 29.3678 40.9992 28.6498C40.9992 27.9318 41.5812 27.3498 42.2992 27.3498Z" fill="black"/>
<path d="M53.35 15H15.65C15.291 15 15 15.291 15 15.65V53.35C15 53.709 15.291 54 15.65 54H53.35C53.709 54 54 53.709 54 53.35V15.65C54 15.291 53.709 15 53.35 15ZM16.3 16.3H52.7V18.9H16.3V16.3ZM52.7 52.7H16.3V20.2H52.7V52.7Z" fill="black"/>
<path d="M20.2006 47.5C20.3731 47.5 20.5383 47.4314 20.6602 47.3095L27.1602 40.8096C27.4096 40.5513 27.4025 40.1399 27.1443 39.8905C26.8924 39.6472 26.4931 39.6472 26.2411 39.8905L19.7411 46.3904C19.4873 46.6443 19.4874 47.0559 19.7413 47.3097C19.8631 47.4315 20.0283 47.5 20.2006 47.5Z" fill="black"/>
<path d="M30.1418 43.7908L23.6418 50.2908C23.3836 50.5402 23.3764 50.9517 23.6259 51.2099C23.8752 51.4681 24.2868 51.4753 24.545 51.2259C24.5504 51.2207 24.5557 51.2153 24.5609 51.2099L31.0609 44.7099C31.3103 44.4517 31.3032 44.0403 31.045 43.7908C30.793 43.5476 30.3937 43.5476 30.1418 43.7908Z" fill="black"/>
<path d="M20.2006 51.4004C20.3731 51.4004 20.5383 51.3318 20.6602 51.21L30.4102 41.4599C30.6596 41.2017 30.6525 40.7903 30.3943 40.5408C30.1424 40.2976 29.7431 40.2976 29.4911 40.5408L19.7411 50.2909C19.4873 50.5448 19.4874 50.9563 19.7413 51.2101C19.8631 51.3319 20.0283 51.4004 20.2006 51.4004Z" fill="black"/>
</svg>
