<svg width="69" height="69" viewBox="0 0 69 69" fill="none" xmlns="http://www.w3.org/2000/svg">
<circle cx="34.5" cy="34.5" r="34.5" fill="#F8AAA0"/>
<path d="M25.4615 32.0513C25.4614 29.5712 24.4761 27.1927 22.7224 25.4389L20.9426 23.6592L19.1629 25.4389C17.4092 27.1927 16.4239 29.5712 16.4238 32.0513H20.2971V33.3424H21.5882V32.0513H25.4615Z" fill="#FF8800"/>
<path d="M39.0181 24.3052C39.018 21.8251 38.0328 19.4466 36.2791 17.6929L34.4993 15.9131L32.7195 17.6929C30.9658 19.4466 29.9805 21.8251 29.9805 24.3052H33.8537V25.5963H35.1448V24.3052H39.0181Z" fill="#FF8800"/>
<path d="M52.5747 29.4692C52.5747 26.9891 51.5894 24.6106 49.8357 22.8569L48.0559 21.0771L46.2762 22.8569C44.5225 24.6106 43.5372 26.9891 43.5371 29.4692H47.4104V30.7603H48.7015V29.4692H52.5747Z" fill="#FF8800"/>
<path d="M17.7159 53.3548L17.0703 47.5449H51.9298L50.6387 53.3548H17.7159Z" fill="#ADF0FF"/>
<path d="M15.7793 44.9619H53.2209V47.5441H15.7793V44.9619Z" fill="#ADF0FF"/>
<path d="M34.4994 25.596V28.1782C31.2907 28.1782 28.6895 25.577 28.6895 22.3683V19.7861C31.8982 19.7861 34.4994 22.3874 34.4994 25.596Z" fill="#FF421D"/>
<path d="M40.3099 19.7861V22.3683C40.3099 25.5771 37.7087 28.1782 34.5 28.1782V25.596C34.5 22.3874 37.1012 19.7861 40.3099 19.7861Z" fill="#DE0418"/>
<path d="M38.3733 31.4062H40.9554C40.9554 33.5454 39.2213 35.2795 37.0822 35.2795H34.5C34.5 33.1403 36.2341 31.4062 38.3733 31.4062Z" fill="#33BC00"/>
<path d="M28.6895 35.2793H30.6261C32.7653 35.2793 34.4994 37.0134 34.4994 39.1526H32.5627C30.4236 39.1526 28.6895 37.4185 28.6895 35.2793Z" fill="#008100"/>
<path d="M48.0569 30.1146V33.3423C45.2048 33.3423 42.8926 31.0301 42.8926 28.1779V24.9502C45.7448 24.9502 48.0569 27.2624 48.0569 30.1146Z" fill="#FF421D"/>
<path d="M53.221 24.9502V28.1779C53.221 31.0301 50.9088 33.3423 48.0566 33.3423V30.1146C48.0566 27.2624 50.3688 24.9502 53.221 24.9502Z" fill="#DE0418"/>
<path d="M20.9437 32.6966V35.9243C18.0915 35.9243 15.7793 33.6121 15.7793 30.7599V27.5322C18.6315 27.5322 20.9437 29.8444 20.9437 32.6966Z" fill="#FF421D"/>
<path d="M26.1077 27.5322V30.7599C26.1077 33.6121 23.7955 35.9243 20.9434 35.9243V32.6966C20.9434 29.8444 23.2555 27.5322 26.1077 27.5322Z" fill="#DE0418"/>
<path d="M41.6016 36.5703H44.1837C46.3229 36.5703 48.057 38.3044 48.057 40.4436H45.4748C43.3357 40.4436 41.6016 38.7095 41.6016 36.5703Z" fill="#79D60D"/>
<path d="M23.5255 38.5068H26.1077C26.1077 39.9329 24.9516 41.089 23.5255 41.089H20.9434C20.9434 39.6629 22.0994 38.5068 23.5255 38.5068Z" fill="#33BC00"/>
<path d="M48.7012 40.4435V33.95C51.6396 33.6185 53.8615 31.1352 53.8656 28.1782V24.3049H53.22C52.7631 24.306 52.308 24.3618 51.8644 24.4708C51.4335 23.7146 50.9044 23.0187 50.2912 22.4012L48.0556 20.1644L45.8195 22.4012C45.2063 23.0187 44.6776 23.7146 44.2469 24.4708C43.8033 24.3618 43.3482 24.306 42.8913 24.3049H42.2457V28.1782C42.2498 31.1352 44.4717 33.6185 47.4101 33.95V37.2875C46.5623 36.4161 45.3981 35.9246 44.1824 35.9247H40.9546V36.5703C40.9575 39.0647 42.979 41.0863 45.4735 41.0891H47.4101V44.3168H35.1447V35.9247H37.0814C39.5758 35.9219 41.5974 33.9004 41.6002 31.4059V30.7604H38.3725C37.1567 30.7603 35.9926 31.2518 35.1447 32.1231V28.7908C38.4411 28.4553 40.9502 25.6817 40.9546 22.3683V19.1405H40.3091C39.6544 19.1405 39.0034 19.2407 38.3789 19.4375C37.9367 18.6308 37.3837 17.89 36.736 17.2368L34.4992 15L32.263 17.2368C31.615 17.89 31.0618 18.6307 30.6195 19.4375C29.995 19.2407 29.344 19.1405 28.6893 19.1405H28.0437V22.3683C28.0482 25.6817 30.5572 28.4553 33.8536 28.7908V35.9964C33.0058 35.1251 31.8416 34.6335 30.6259 34.6336H28.0437V35.2792C28.0466 37.7736 30.0681 39.7952 32.5625 39.798H33.8536V44.3168H21.5883V41.7346H23.5249C25.3066 41.7325 26.7505 40.2886 26.7526 38.5069V37.8614H23.5249C22.8242 37.8639 22.1438 38.0966 21.5883 38.5237V36.5322C24.5266 36.2007 26.7486 33.7174 26.7526 30.7604V26.8871H26.1071C25.6502 26.8882 25.1951 26.944 24.7514 27.053C24.3205 26.2968 23.7915 25.6009 23.1782 24.9834L20.9427 22.7465L18.7066 24.9834C18.0934 25.6009 17.5647 26.2968 17.134 27.053C16.6904 26.944 16.2352 26.8882 15.7784 26.8871H15.1328V30.7604C15.1368 33.7174 17.3588 36.2007 20.2972 36.5322V44.3168H15.1328V48.1901H16.4917L17.1372 54H51.1543L52.4454 48.1901H53.8656V44.3168H48.7012V40.4435ZM52.5745 28.1782C52.5716 30.4235 50.9231 32.3273 48.7012 32.6512V30.1148C48.7088 27.8716 50.3552 25.9711 52.5745 25.6438V28.1782ZM46.7323 23.314L48.0556 21.99L49.3797 23.314C49.8614 23.796 50.2838 24.3339 50.6378 24.9162C50.6307 24.9195 50.6243 24.9246 50.6178 24.9285C50.3571 25.0599 50.1068 25.211 49.869 25.3804C49.8083 25.4236 49.7554 25.4746 49.6973 25.5198C49.5256 25.6499 49.3611 25.7892 49.2047 25.9375C49.1279 26.0117 49.0595 26.0924 48.9872 26.1705C48.8626 26.3048 48.7412 26.4404 48.6295 26.5856C48.5592 26.6773 48.4953 26.7722 48.4307 26.8671C48.3319 27.0123 48.237 27.1608 48.1538 27.3144C48.1241 27.3674 48.0892 27.4145 48.0582 27.4687C48.0305 27.4151 47.9937 27.3674 47.9627 27.3144C47.8768 27.1601 47.7845 27.0123 47.6857 26.8671C47.6212 26.7715 47.5566 26.6766 47.4869 26.5856C47.3752 26.4404 47.2539 26.3048 47.1293 26.1705C47.057 26.0924 46.9886 26.0117 46.9117 25.9375C46.7552 25.7892 46.5905 25.6498 46.4185 25.5198C46.3604 25.4746 46.3075 25.4236 46.2475 25.381C46.0097 25.2116 45.7594 25.0606 45.4986 24.9291C45.4915 24.9253 45.4857 24.9201 45.4786 24.9169C45.8311 24.3345 46.252 23.7964 46.7323 23.314ZM43.5368 28.1782V25.6438C43.8138 25.6852 44.0865 25.7517 44.3515 25.8426C46.1707 26.4781 47.3947 28.1879 47.4101 30.1148V32.6512C45.1882 32.3273 43.5396 30.4235 43.5368 28.1782ZM45.4735 39.798C43.9402 39.7961 42.6191 38.7176 42.3103 37.2158H44.1824C45.7156 37.2177 47.0367 38.2962 47.3455 39.798H45.4735ZM38.3725 32.0514H40.2445C39.9357 33.5532 38.6146 34.6317 37.0814 34.6336H35.2093C35.5181 33.1318 36.8392 32.0534 38.3725 32.0514ZM39.6635 22.3683C39.6603 24.9697 37.7254 27.164 35.1447 27.4926V25.596C35.1453 25.2104 35.1886 24.8262 35.2738 24.4501C35.6455 22.8234 36.7791 21.4759 38.3182 20.8312C38.7483 20.651 39.2009 20.5301 39.6635 20.4716V22.3683ZM33.1758 18.1496L34.4992 16.8256L35.8226 18.1496C36.3558 18.6846 36.8157 19.2878 37.1905 19.9436C37.1814 19.9488 37.1737 19.9559 37.164 19.961C36.9018 20.1087 36.6503 20.2746 36.4113 20.4574C36.3467 20.5059 36.2893 20.5601 36.2273 20.6111C36.0541 20.753 35.8884 20.9038 35.7309 21.063C35.6631 21.132 35.5966 21.2011 35.5321 21.2728C35.3809 21.4408 35.2387 21.6166 35.106 21.7995C35.0608 21.8641 35.0117 21.9202 34.9685 21.9835C34.8001 22.2309 34.6491 22.4898 34.5166 22.7582C34.5108 22.7698 34.5031 22.7795 34.4979 22.7904C34.4927 22.7788 34.4843 22.7691 34.4792 22.7582C34.3467 22.4898 34.1957 22.2309 34.0273 21.9835C33.984 21.919 33.935 21.8615 33.8898 21.7995C33.757 21.6166 33.6149 21.4408 33.4637 21.2728C33.3992 21.2011 33.3346 21.1314 33.2649 21.063C33.1074 20.9038 32.9417 20.753 32.7685 20.6111C32.7039 20.5601 32.6484 20.5059 32.5845 20.4574C32.3455 20.2746 32.094 20.1087 31.8318 19.961C31.8228 19.9559 31.815 19.9488 31.8053 19.9436C32.1809 19.2876 32.6417 18.6845 33.1758 18.1496ZM29.3348 22.3683V20.4716C29.7951 20.5297 30.2454 20.6495 30.6737 20.828C32.2128 21.4726 33.3464 22.8201 33.7181 24.4469C33.8057 24.8238 33.8511 25.2091 33.8536 25.596V27.4926C31.273 27.164 29.338 24.9697 29.3348 22.3683ZM32.5625 38.5069C31.0293 38.505 29.7082 37.4265 29.3994 35.9247H30.6259C32.1592 35.9267 33.4803 37.0051 33.7891 38.5069H32.5625ZM23.5249 39.1524H25.3512C25.0767 39.9257 24.3455 40.4427 23.5249 40.4435H21.6987C21.9731 39.6703 22.7043 39.1533 23.5249 39.1524ZM25.4615 30.7604C25.4587 33.0057 23.8102 34.9095 21.5883 35.2333V32.697C21.5959 30.4538 23.2423 28.5532 25.4615 28.2259V30.7604ZM19.6194 25.8962L20.9427 24.5722L22.2667 25.8962C22.7485 26.3782 23.1709 26.9161 23.5249 27.4984C23.5178 27.5016 23.5114 27.5068 23.5049 27.5107C23.2442 27.6421 22.9939 27.7932 22.7561 27.9626C22.6954 28.0058 22.6424 28.0568 22.5843 28.102C22.4126 28.2321 22.2482 28.3714 22.0918 28.5197C22.015 28.5939 21.9465 28.6746 21.8742 28.7527C21.7497 28.887 21.6283 29.0225 21.5166 29.1678C21.4462 29.2595 21.3823 29.3544 21.3178 29.4492C21.219 29.5945 21.1241 29.743 21.0408 29.8966C21.0112 29.9495 20.9763 29.9967 20.9453 30.0509C20.9175 29.9973 20.8808 29.9495 20.8498 29.8966C20.7639 29.7423 20.6716 29.5945 20.5728 29.4492C20.5083 29.3537 20.4437 29.2588 20.374 29.1678C20.2623 29.0225 20.141 28.887 20.0164 28.7527C19.9441 28.6746 19.8756 28.5939 19.7988 28.5197C19.6423 28.3714 19.4776 28.232 19.3056 28.102C19.2475 28.0568 19.1946 28.0058 19.1346 27.9632C18.8967 27.7938 18.6464 27.6428 18.3857 27.5113C18.3786 27.5074 18.3728 27.5023 18.3657 27.4991C18.7182 26.9167 19.1391 26.3785 19.6194 25.8962ZM16.4239 30.7604V28.2259C16.7009 28.2673 16.9736 28.3339 17.2386 28.4248C18.8669 28.987 20.0363 30.4231 20.2572 32.1315C20.2822 32.319 20.2956 32.5078 20.2972 32.697V35.2333C18.0753 34.9095 16.4267 33.0057 16.4239 30.7604ZM50.1214 52.7089H18.296L17.7938 48.1901H51.1239L50.1214 52.7089ZM52.5745 46.899H16.4239V45.6079H52.5745V46.899Z" fill="black"/>
</svg>
