<svg width="20" height="17" viewBox="0 0 20 17" fill="none" xmlns="http://www.w3.org/2000/svg">
<path d="M10.0002 3.83333C12.3002 3.83333 14.1668 5.7 14.1668 8C14.1668 8.54167 14.0585 9.05 13.8668 9.525L16.3002 11.9583C17.5585 10.9083 18.5502 9.55 19.1585 8C17.7168 4.34167 14.1585 1.75 9.99183 1.75C8.82516 1.75 7.7085 1.95833 6.67516 2.33333L8.47516 4.13333C8.95016 3.94167 9.4585 3.83333 10.0002 3.83333ZM1.66683 1.55833L3.56683 3.45833L3.95016 3.84167C2.56683 4.91667 1.4835 6.35 0.833496 8C2.27516 11.6583 5.8335 14.25 10.0002 14.25C11.2918 14.25 12.5252 14 13.6502 13.55L14.0002 13.9L16.4418 16.3333L17.5002 15.275L2.72516 0.5L1.66683 1.55833ZM6.27516 6.16667L7.56683 7.45833C7.52516 7.63333 7.50016 7.81667 7.50016 8C7.50016 9.38333 8.61683 10.5 10.0002 10.5C10.1835 10.5 10.3668 10.475 10.5418 10.4333L11.8335 11.725C11.2752 12 10.6585 12.1667 10.0002 12.1667C7.70016 12.1667 5.8335 10.3 5.8335 8C5.8335 7.34167 6.00016 6.725 6.27516 6.16667ZM9.86683 5.51667L12.4918 8.14167L12.5085 8.00833C12.5085 6.625 11.3918 5.50833 10.0085 5.50833L9.86683 5.51667Z" fill="#B2B2B2"/>
</svg>
