<svg width="69" height="69" viewBox="0 0 69 69" fill="none" xmlns="http://www.w3.org/2000/svg">
<circle cx="34.5" cy="34.5" r="34.5" fill="#F8AAA0"/>
<path d="M25.7992 11.7998H43.3992C44.2829 11.7998 44.9992 12.5161 44.9992 13.3998V45.3998C44.9992 46.2835 44.2829 46.9998 43.3992 46.9998H25.7992C24.9155 46.9998 24.1992 46.2835 24.1992 45.3998V13.3998C24.1992 12.5161 24.9155 11.7998 25.7992 11.7998Z" fill="#505968"/>
<path d="M24.1992 15H44.9992V43.8H24.1992V15Z" fill="#ADF0FF"/>
<path d="M29.8008 18.2002H39.4008V27.8002H29.8008V18.2002Z" fill="#EFF2FA"/>
<path d="M29.7992 31H39.3992C40.2829 31 40.9992 31.7163 40.9992 32.6C40.9992 33.4837 40.2829 34.2 39.3992 34.2H29.7992C28.9155 34.2 28.1992 33.4837 28.1992 32.6C28.1992 31.7163 28.9155 31 29.7992 31Z" fill="#1598FC"/>
<path d="M29.7992 37.4004H39.3992C40.2829 37.4004 40.9992 38.1167 40.9992 39.0004C40.9992 39.8841 40.2829 40.6004 39.3992 40.6004H29.7992C28.9155 40.6004 28.1992 39.8841 28.1992 39.0004C28.1992 38.1167 28.9155 37.4004 29.7992 37.4004Z" fill="#3FD100"/>
<path d="M34.5992 24.5998C35.9247 24.5998 36.9992 23.5253 36.9992 22.1998C36.9992 20.8743 35.9247 19.7998 34.5992 19.7998C33.2737 19.7998 32.1992 20.8743 32.1992 22.1998C32.1992 23.5253 33.2737 24.5998 34.5992 24.5998Z" fill="#F2CBA7"/>
<path d="M31.4004 27.7996C31.4004 26.0323 32.8331 24.5996 34.6004 24.5996C36.3677 24.5996 37.8004 26.0323 37.8004 27.7996H31.4004Z" fill="#EE2849"/>
<path d="M43.4003 58.2004H34.6003L28.6003 52.2004C27.9379 51.5375 27.9379 50.4633 28.6003 49.8004C29.2632 49.138 30.3374 49.138 31.0003 49.8004L33.0003 51.8004V39.0004C33.0003 38.1167 33.7166 37.4004 34.6003 37.4004C35.484 37.4004 36.2003 38.1167 36.2003 39.0004V47.8004C36.2003 46.9167 36.9166 46.2004 37.8003 46.2004C38.684 46.2004 39.4003 46.9167 39.4003 47.8004C39.4003 46.9167 40.1166 46.2004 41.0003 46.2004C41.884 46.2004 42.6003 46.9167 42.6003 47.8004C42.6003 46.9167 43.3166 46.2004 44.2003 46.2004C45.084 46.2004 45.8003 46.9167 45.8003 47.8004V52.406C45.8004 54.5793 44.9371 56.6637 43.4003 58.2004Z" fill="#F2CBA7"/>
<path d="M29.8 28.6004H39.4C39.8418 28.6004 40.2 28.2422 40.2 27.8004V18.2004C40.2 17.7586 39.8418 17.4004 39.4 17.4004H29.8C29.3582 17.4004 29 17.7586 29 18.2004V27.8004C29 28.2422 29.3582 28.6004 29.8 28.6004ZM32.3368 27.0004C32.7779 25.7505 34.1488 25.0948 35.3987 25.5359C36.0832 25.7775 36.6216 26.3159 36.8632 27.0004H32.3368ZM33 22.2004C33 21.3167 33.7163 20.6004 34.6 20.6004C35.4837 20.6004 36.2 21.3167 36.2 22.2004C36.2 23.0841 35.4837 23.8004 34.6 23.8004C33.7163 23.8004 33 23.0841 33 22.2004ZM30.6 19.0004H38.6V27.0004H38.52C38.3085 25.9739 37.7038 25.0709 36.8352 24.4844C38.1003 23.2504 38.1256 21.2244 36.8915 19.9593C35.6575 18.6942 33.6315 18.6689 32.3664 19.903C31.1013 21.1371 31.076 23.163 32.3101 24.4281C32.3286 24.4471 32.3474 24.4659 32.3664 24.4844C31.4972 25.0706 30.8919 25.9736 30.68 27.0004H30.6V19.0004Z" fill="black"/>
<path d="M29.8004 35.0002H39.4004C40.7259 35.0002 41.8004 33.9257 41.8004 32.6002C41.8004 31.2747 40.7259 30.2002 39.4004 30.2002H29.8004C28.4749 30.2002 27.4004 31.2747 27.4004 32.6002C27.4004 33.9257 28.4749 35.0002 29.8004 35.0002ZM29.8004 31.8002H39.4004C39.8422 31.8002 40.2004 32.1584 40.2004 32.6002C40.2004 33.042 39.8422 33.4002 39.4004 33.4002H29.8004C29.3586 33.4002 29.0004 33.042 29.0004 32.6002C29.0004 32.1584 29.3586 31.8002 29.8004 31.8002Z" fill="black"/>
<path d="M25.8004 47.8H32.2004V49.8688L31.566 49.2344C30.5783 48.2902 29.0225 48.2902 28.0348 49.2344C27.0614 50.2102 27.0614 51.7898 28.0348 52.7656L34.0348 58.7656C34.1848 58.9156 34.3882 59 34.6004 59H43.4004C43.6126 59 43.816 58.9156 43.966 58.7656C45.6584 57.0826 46.607 54.7924 46.6004 52.4056V47.8C46.5993 47.087 46.279 46.412 45.7276 45.96C45.7736 45.7768 45.798 45.5889 45.8004 45.4V13.4C45.8004 12.0745 44.7259 11 43.4004 11H25.8004C24.4749 11 23.4004 12.0745 23.4004 13.4V45.4C23.4004 46.7255 24.4749 47.8 25.8004 47.8ZM25.8004 46.2C25.3586 46.2 25.0004 45.8418 25.0004 45.4V44.6H32.2004V46.2H25.8004ZM25.0004 15.8H44.2004V43H37.0004V41.4H39.4004C40.7259 41.4 41.8004 40.3255 41.8004 39C41.8004 37.6745 40.7259 36.6 39.4004 36.6H29.8004C28.4749 36.6 27.4004 37.6745 27.4004 39C27.4004 40.3255 28.4749 41.4 29.8004 41.4H32.2004V43H25.0004V15.8ZM36.8532 38.2H39.4004C39.8422 38.2 40.2004 38.5582 40.2004 39C40.2004 39.4418 39.8422 39.8 39.4004 39.8H37.0004V39C36.9977 38.7268 36.9479 38.4562 36.8532 38.2ZM32.2004 39V39.8H29.8004C29.3586 39.8 29.0004 39.4418 29.0004 39C29.0004 38.5582 29.3586 38.2 29.8004 38.2H32.3476C32.2528 38.4562 32.203 38.7268 32.2004 39ZM45.0004 52.4056C45.0059 54.2555 44.3127 56.0392 43.0596 57.4H34.9316L29.166 51.6344C28.8156 51.284 28.8156 50.716 29.166 50.3656C29.5164 50.0152 30.0844 50.0152 30.4348 50.3656L32.4348 52.3656C32.7473 52.678 33.2538 52.6779 33.5662 52.3654C33.7161 52.2154 33.8004 52.012 33.8004 51.8V39C33.801 38.5582 34.1597 38.2005 34.6015 38.2011C35.0425 38.2017 35.3998 38.559 35.4004 39V49.4C35.4004 49.8418 35.7586 50.2 36.2004 50.2C36.6422 50.2 37.0004 49.8418 37.0004 49.4V47.8C37.0004 47.3582 37.3586 47 37.8004 47C38.2422 47 38.6004 47.3582 38.6004 47.8V49.4C38.6004 49.8418 38.9586 50.2 39.4004 50.2C39.8422 50.2 40.2004 49.8418 40.2004 49.4V47.8C40.2004 47.3582 40.5586 47 41.0004 47C41.4422 47 41.8004 47.3582 41.8004 47.8V49.4C41.8004 49.8418 42.1586 50.2 42.6004 50.2C43.0422 50.2 43.4004 49.8418 43.4004 49.4V47.8C43.4004 47.3582 43.7586 47 44.2004 47C44.6422 47 45.0004 47.3582 45.0004 47.8V52.4056ZM42.6004 46.012C41.6902 45.1949 40.3106 45.1949 39.4004 46.012C38.7389 45.4442 37.8286 45.2637 37.0004 45.536V44.6H44.2004V45.4C43.6096 45.3987 43.0395 45.6168 42.6004 46.012ZM25.8004 12.6H43.4004C43.8422 12.6 44.2004 12.9582 44.2004 13.4V14.2H25.0004V13.4C25.0004 12.9582 25.3586 12.6 25.8004 12.6Z" fill="black"/>
</svg>
