<svg width="16" height="16" viewBox="0 0 16 16" fill="none" xmlns="http://www.w3.org/2000/svg">
<path d="M8 0C3.584 0 0 3.584 0 8C0 12.416 3.584 16 8 16C12.416 16 16 12.416 16 8C16 3.584 12.416 0 8 0ZM9.128 12.872V14.4H6.992V12.856C5.624 12.568 4.464 11.688 4.376 10.136H5.944C6.024 10.976 6.6 11.632 8.064 11.632C9.632 11.632 9.984 10.848 9.984 10.36C9.984 9.696 9.632 9.072 7.848 8.648C5.864 8.168 4.504 7.352 4.504 5.712C4.504 4.336 5.616 3.44 6.992 3.144V1.6H9.128V3.16C10.616 3.52 11.36 4.648 11.408 5.872H9.84C9.8 4.984 9.328 4.376 8.064 4.376C6.864 4.376 6.144 4.92 6.144 5.688C6.144 6.36 6.664 6.8 8.28 7.216C9.896 7.632 11.624 8.328 11.624 10.344C11.616 11.808 10.52 12.608 9.128 12.872Z" fill="#474747"/>
</svg>
