<svg width="320" height="140" viewBox="0 0 320 140" fill="none" xmlns="http://www.w3.org/2000/svg">
<rect width="320" height="140" fill="#A5B2D4"/>
<path d="M28.584 48.97C29.5227 49.2487 30.2413 49.7033 30.74 50.334C31.2387 50.9647 31.488 51.742 31.488 52.666C31.488 54.03 30.9673 55.0933 29.926 55.856C28.8993 56.6187 27.4253 57 25.504 57H17.914V41.6H25.086C26.8753 41.6 28.2687 41.9447 29.266 42.634C30.2633 43.3233 30.762 44.306 30.762 45.582C30.762 46.3447 30.5713 47.0193 30.19 47.606C29.8087 48.178 29.2733 48.6327 28.584 48.97ZM21.456 47.98H24.778C25.5553 47.98 26.142 47.826 26.538 47.518C26.934 47.1953 27.132 46.726 27.132 46.11C27.132 45.5087 26.9267 45.0467 26.516 44.724C26.12 44.4013 25.5407 44.24 24.778 44.24H21.456V47.98ZM25.372 54.36C27.044 54.36 27.88 53.7 27.88 52.38C27.88 51.104 27.044 50.466 25.372 50.466H21.456V54.36H25.372ZM39.5866 57.176C38.3399 57.176 37.2179 56.9193 36.2206 56.406C35.2379 55.878 34.4679 55.152 33.9106 54.228C33.3532 53.304 33.0746 52.2553 33.0746 51.082C33.0746 49.9087 33.3532 48.86 33.9106 47.936C34.4679 47.012 35.2379 46.2933 36.2206 45.78C37.2179 45.252 38.3399 44.988 39.5866 44.988C40.8332 44.988 41.9479 45.252 42.9306 45.78C43.9132 46.2933 44.6832 47.012 45.2406 47.936C45.7979 48.86 46.0766 49.9087 46.0766 51.082C46.0766 52.2553 45.7979 53.304 45.2406 54.228C44.6832 55.152 43.9132 55.878 42.9306 56.406C41.9479 56.9193 40.8332 57.176 39.5866 57.176ZM39.5866 54.36C40.4666 54.36 41.1852 54.0667 41.7426 53.48C42.3146 52.8787 42.6006 52.0793 42.6006 51.082C42.6006 50.0847 42.3146 49.2927 41.7426 48.706C41.1852 48.1047 40.4666 47.804 39.5866 47.804C38.7066 47.804 37.9806 48.1047 37.4086 48.706C36.8366 49.2927 36.5506 50.0847 36.5506 51.082C36.5506 52.0793 36.8366 52.8787 37.4086 53.48C37.9806 54.0667 38.7066 54.36 39.5866 54.36ZM55.9003 50.84C56.6043 51.06 57.1469 51.3973 57.5283 51.852C57.9243 52.3067 58.1223 52.8493 58.1223 53.48C58.1223 54.228 57.8656 54.888 57.3523 55.46C56.8389 56.0173 56.1349 56.45 55.2403 56.758C54.3456 57.066 53.3336 57.22 52.2043 57.22C51.2803 57.22 50.3709 57.1247 49.4763 56.934C48.5816 56.7433 47.7529 56.4573 46.9903 56.076L47.9143 53.678C49.1609 54.2793 50.5396 54.58 52.0503 54.58C52.8569 54.58 53.4876 54.4627 53.9423 54.228C54.4116 53.9787 54.6463 53.634 54.6463 53.194C54.6463 52.8127 54.4849 52.5267 54.1623 52.336C53.8396 52.1307 53.3703 52.028 52.7543 52.028H50.3343V49.894H52.4463C53.0476 49.894 53.5096 49.7987 53.8323 49.608C54.1549 49.4173 54.3163 49.1387 54.3163 48.772C54.3163 48.3907 54.1109 48.0973 53.7003 47.892C53.3043 47.6867 52.7323 47.584 51.9843 47.584C50.8403 47.584 49.5936 47.8553 48.2443 48.398L47.4083 46.022C49.0509 45.3033 50.6496 44.944 52.2043 44.944C53.2749 44.944 54.2283 45.076 55.0643 45.34C55.9149 45.604 56.5823 45.9927 57.0663 46.506C57.5503 47.0047 57.7923 47.5913 57.7923 48.266C57.7923 48.8233 57.6236 49.3293 57.2863 49.784C56.9489 50.224 56.4869 50.576 55.9003 50.84ZM69.6608 50.818C71.0541 51.2873 71.7508 52.226 71.7508 53.634C71.7508 54.7047 71.3474 55.5333 70.5408 56.12C69.7341 56.7067 68.5314 57 66.9328 57H60.6188V45.164H66.6688C68.1501 45.164 69.3088 45.4353 70.1448 45.978C70.9808 46.506 71.3987 47.254 71.3987 48.222C71.3987 48.8087 71.2448 49.3293 70.9368 49.784C70.6434 50.224 70.2181 50.5687 69.6608 50.818ZM63.7648 50.026H66.3608C67.5634 50.026 68.1648 49.6007 68.1648 48.75C68.1648 47.914 67.5634 47.496 66.3608 47.496H63.7648V50.026ZM66.6468 54.668C67.9081 54.668 68.5388 54.2353 68.5388 53.37C68.5388 52.9153 68.3921 52.5853 68.0988 52.38C67.8054 52.16 67.3434 52.05 66.7128 52.05H63.7648V54.668H66.6468ZM81.2783 44.988C82.3783 44.988 83.3756 45.2447 84.2703 45.758C85.1796 46.2567 85.891 46.968 86.4043 47.892C86.9176 48.8013 87.1743 49.8647 87.1743 51.082C87.1743 52.2993 86.9176 53.37 86.4043 54.294C85.891 55.2033 85.1796 55.9147 84.2703 56.428C83.3756 56.9267 82.3783 57.176 81.2783 57.176C79.7676 57.176 78.5796 56.6993 77.7143 55.746V61.268H74.2823V45.164H77.5603V46.528C78.411 45.5013 79.6503 44.988 81.2783 44.988ZM80.6843 54.36C81.5643 54.36 82.283 54.0667 82.8403 53.48C83.4123 52.8787 83.6983 52.0793 83.6983 51.082C83.6983 50.0847 83.4123 49.2927 82.8403 48.706C82.283 48.1047 81.5643 47.804 80.6843 47.804C79.8043 47.804 79.0783 48.1047 78.5063 48.706C77.949 49.2927 77.6703 50.0847 77.6703 51.082C77.6703 52.0793 77.949 52.8787 78.5063 53.48C79.0783 54.0667 79.8043 54.36 80.6843 54.36ZM93.9843 44.988C95.8177 44.988 97.2257 45.428 98.2083 46.308C99.191 47.1733 99.6823 48.486 99.6823 50.246V57H96.4703V55.526C95.825 56.626 94.6223 57.176 92.8623 57.176C91.953 57.176 91.161 57.022 90.4863 56.714C89.8263 56.406 89.3203 55.9807 88.9683 55.438C88.6163 54.8953 88.4403 54.2793 88.4403 53.59C88.4403 52.49 88.851 51.6247 89.6723 50.994C90.5083 50.3633 91.7917 50.048 93.5223 50.048H96.2503C96.2503 49.3 96.023 48.728 95.5683 48.332C95.1137 47.9213 94.4317 47.716 93.5223 47.716C92.8917 47.716 92.2683 47.8187 91.6523 48.024C91.051 48.2147 90.5377 48.4787 90.1123 48.816L88.8803 46.418C89.5257 45.9633 90.2957 45.6113 91.1903 45.362C92.0997 45.1127 93.031 44.988 93.9843 44.988ZM93.7203 54.866C94.307 54.866 94.8277 54.734 95.2823 54.47C95.737 54.1913 96.0597 53.788 96.2503 53.26V52.05H93.8963C92.4883 52.05 91.7843 52.512 91.7843 53.436C91.7843 53.876 91.953 54.228 92.2903 54.492C92.6423 54.7413 93.119 54.866 93.7203 54.866ZM112.608 47.98H108.604V57H105.194V47.98H101.19V45.164H112.608V47.98Z" fill="white"/>
</svg>
