<svg width="32" height="32" viewBox="0 0 32 32" fill="none" xmlns="http://www.w3.org/2000/svg">
<circle cx="16" cy="16" r="15" fill="#EB5642" stroke="#EB5642" stroke-width="2"/>
<path d="M13.464 14.422C15.264 14.422 16.584 14.764 17.424 15.448C18.276 16.12 18.702 17.044 18.702 18.22C18.702 18.964 18.522 19.636 18.162 20.236C17.814 20.824 17.28 21.292 16.56 21.64C15.852 21.976 14.976 22.144 13.932 22.144C13.044 22.144 12.186 22.012 11.358 21.748C10.53 21.472 9.846 21.094 9.306 20.614L10.134 19.192C10.566 19.6 11.118 19.93 11.79 20.182C12.462 20.422 13.17 20.542 13.914 20.542C14.862 20.542 15.594 20.344 16.11 19.948C16.638 19.54 16.902 18.988 16.902 18.292C16.902 17.536 16.614 16.966 16.038 16.582C15.462 16.186 14.478 15.988 13.086 15.988H10.224L10.89 9.4H18V10.966H12.402L12.06 14.422H13.464Z" fill="white"/>
</svg>
