<svg width="32" height="32" viewBox="0 0 32 32" fill="none" xmlns="http://www.w3.org/2000/svg">
<circle cx="16" cy="16" r="15" fill="#EB5642" stroke="#EB5642" stroke-width="2"/>
<path d="M15.688 14.692C16.924 14.812 17.866 15.196 18.514 15.844C19.162 16.48 19.486 17.296 19.486 18.292C19.486 19.012 19.306 19.666 18.946 20.254C18.586 20.83 18.046 21.292 17.326 21.64C16.618 21.976 15.748 22.144 14.716 22.144C13.816 22.144 12.952 22.012 12.124 21.748C11.296 21.472 10.618 21.094 10.09 20.614L10.918 19.192C11.35 19.6 11.902 19.93 12.574 20.182C13.246 20.422 13.96 20.542 14.716 20.542C15.652 20.542 16.378 20.344 16.894 19.948C17.422 19.552 17.686 19.006 17.686 18.31C17.686 17.614 17.428 17.074 16.912 16.69C16.396 16.306 15.616 16.114 14.572 16.114H13.564V14.854L16.732 10.966H10.666V9.4H18.982V10.624L15.688 14.692Z" fill="white"/>
</svg>
