<svg width="32" height="32" viewBox="0 0 32 32" fill="none" xmlns="http://www.w3.org/2000/svg">
<circle cx="16" cy="16" r="15" fill="#EB5642" stroke="#EB5642" stroke-width="2"/>
<path d="M21.72 20.434V22H12.666V20.776L17.796 15.826C18.42 15.226 18.84 14.71 19.056 14.278C19.272 13.834 19.38 13.39 19.38 12.946C19.38 12.286 19.146 11.776 18.678 11.416C18.222 11.044 17.562 10.858 16.698 10.858C15.306 10.858 14.232 11.314 13.476 12.226L12.252 11.164C12.744 10.564 13.386 10.096 14.178 9.76C14.982 9.424 15.876 9.256 16.86 9.256C18.18 9.256 19.23 9.574 20.01 10.21C20.79 10.834 21.18 11.686 21.18 12.766C21.18 13.438 21.036 14.074 20.748 14.674C20.46 15.274 19.914 15.958 19.11 16.726L15.258 20.434H21.72Z" fill="white"/>
</svg>
