<svg width="26" height="30" viewBox="0 0 26 30" fill="none" xmlns="http://www.w3.org/2000/svg">
<path d="M24.1307 0.487336C24.0824 0.31029 23.9622 0.161327 23.799 0.0765304C23.4769 -0.0934268 23.0776 0.0291787 22.9071 0.350371L22.9058 0.352824C22.9058 0.371002 19.563 6.83846 9.30128 7.96545C7.96269 8.10787 6.65427 8.45615 5.42258 8.99792C3.21794 9.95377 1.28008 11.3933 0.132699 13.5C0.132699 15.7322 0.132699 18 0.132699 20.0533C0.136625 21.8783 -0.371126 23.5 0.574216 24.783C3.80354 24.4484 -1.48202 21.2163 0.887233 25.4027C0.848957 25.7641 1.37117 24.8646 1.73353 24.9028C2.09597 24.941 2.30724 26.4003 2.34552 26.0389C2.82306 21.7164 -0.206382 25.4027 1.35433 25.8519C3.38481 28.3385 6.42507 29.7418 9.68769 29.9708C11.8836 30.1122 14.0821 29.7387 16.1072 28.8802C18.3056 27.9603 20.2471 26.5219 21.7648 24.6885C25.6763 19.9624 27.5391 12.019 24.1307 0.487336Z" fill="#6EAF74"/>
</svg>
