<svg width="26" height="30" viewBox="0 0 26 30" fill="none" xmlns="http://www.w3.org/2000/svg">
<path d="M1.78337 0.487336C1.83167 0.31029 1.95187 0.161327 2.1151 0.0765304C2.43716 -0.0934268 2.83642 0.0291787 3.00694 0.350371L3.00821 0.352824C3.00821 0.371002 6.35103 6.83846 16.6128 7.96545C17.9514 8.10787 19.2598 8.45615 20.4915 8.99792C22.6961 9.95377 24.634 11.3933 25.7814 13.5C25.7814 15.7322 25.7814 18 25.7814 20.0533C25.7774 21.8783 26.2852 23.5 25.3398 24.783C22.1105 24.4484 27.3961 21.2163 25.0268 25.4027C25.0651 25.7641 24.5429 24.8646 24.1805 24.9028C23.8181 24.941 23.6068 26.4003 23.5685 26.0389C23.091 21.7164 26.1204 25.4027 24.5597 25.8519C22.5293 28.3385 19.489 29.7418 16.2264 29.9708C14.0305 30.1122 11.832 29.7387 9.80686 28.8802C7.60851 27.9603 5.66697 26.5219 4.14921 24.6885C0.237717 19.9624 -1.62507 12.019 1.78337 0.487336Z" fill="#6EAF74"/>
</svg>
