<svg width="15" height="21" viewBox="0 0 15 21" fill="none" xmlns="http://www.w3.org/2000/svg">
<path d="M4 8.24V4.5C4 3.12 5.12 2 6.5 2C7.88 2 9 3.12 9 4.5V8.24C10.21 7.43 11 6.06 11 4.5C11 2.01 8.99 0 6.5 0C4.01 0 2 2.01 2 4.5C2 6.06 2.79 7.43 4 8.24ZM13.84 12.87L9.3 10.61C9.13 10.54 8.95 10.5 8.76 10.5H8V4.5C8 3.67 7.33 3 6.5 3C5.67 3 5 3.67 5 4.5V15.24L1.57 14.52C1.49 14.51 1.42 14.49 1.33 14.49C1.02 14.49 0.74 14.62 0.54 14.82L-0.25 15.62L4.69 20.56C4.96 20.83 5.34 21 5.75 21H12.54C13.29 21 13.87 20.45 13.98 19.72L14.73 14.45C14.74 14.38 14.75 14.31 14.75 14.25C14.75 13.63 14.37 13.09 13.84 12.87Z" fill="black"/>
</svg>
