<svg width="69" height="69" viewBox="0 0 69 69" fill="none" xmlns="http://www.w3.org/2000/svg">
<circle cx="34.5" cy="34.5" r="34.5" fill="#F8AAA0"/>
<g clip-path="url(#clip0)">
<path d="M24.0387 15.1328C22.6125 15.1328 21.4564 16.2889 21.4564 17.7151V18.1024C20.2412 17.0353 18.391 17.1554 17.3239 18.3706C16.3493 19.4805 16.3538 21.1424 17.3345 22.247C15.9154 22.3893 14.8805 23.655 15.0229 25.0741C15.1549 26.3903 16.2602 27.3939 17.583 27.3986H18.2286V30.6264H26.621V17.7151C26.621 16.2889 25.4648 15.1328 24.0387 15.1328Z" fill="#008100"/>
<path d="M38.4982 24.1811L38.6977 23.9816C40.0205 22.6609 40.0223 20.5178 38.7016 19.1949C37.5408 18.0323 35.7129 17.8711 34.3666 18.8125V18.3606C34.3666 16.578 32.9214 15.1328 31.1387 15.1328C29.3561 15.1328 27.9109 16.578 27.9109 18.3606V18.8125C26.3774 17.7436 24.2676 18.1203 23.1987 19.654C22.2614 20.9988 22.4225 22.822 23.5811 23.9816L23.7806 24.1811C22.0036 24.3236 20.6786 25.8796 20.821 27.6566C20.9555 29.3334 22.3552 30.6258 24.0375 30.6264C24.394 30.6264 24.6831 30.9155 24.6831 31.272V35.791H37.5944V31.272C37.5944 30.9155 37.8835 30.6264 38.24 30.6264C40.0226 30.6265 41.4679 29.1815 41.4681 27.3988C41.4681 25.7161 40.1755 24.3156 38.4982 24.1811Z" fill="#33BC00"/>
<path d="M47.2773 20.2972L51.1507 16.4238L53.0875 18.3607L49.2142 22.234L47.2773 20.2972Z" fill="#008100"/>
<path d="M44.6953 15.7783H47.9231V20.9429H44.6953V15.7783Z" fill="#008100"/>
<path d="M39.5293 18.3607L41.4662 16.4238L45.3395 20.2972L43.4026 22.234L39.5293 18.3607Z" fill="#008100"/>
<path d="M46.3106 20.2979C42.9346 20.3246 40.2044 23.0547 40.1777 26.4307V27.6954C40.1778 27.9665 40.2023 28.237 40.2507 28.5037L41.576 35.7915H51.0452L52.2189 29.3358L52.3699 28.5037C52.3971 28.3518 52.4165 28.1985 52.428 28.0447C52.4371 27.9285 52.4435 27.8116 52.4435 27.6954V26.4307C52.4396 23.0452 49.6961 20.3017 46.3106 20.2979Z" fill="#FF6536"/>
<path d="M39.5308 28.6895C36.3235 28.693 33.7243 31.2922 33.7207 34.4996V35.7907H45.3409V34.4996C45.3374 31.2922 42.7381 28.693 39.5308 28.6895Z" fill="#FBBF00"/>
<path d="M29.2027 28.6895C25.9953 28.693 23.3961 31.2922 23.3926 34.4996V35.7907H35.0128V34.4996C35.0092 31.2922 32.41 28.693 29.2027 28.6895Z" fill="#DE0418"/>
<path d="M19.519 25.4619H18.2278C16.4461 25.464 15.0021 26.908 15 28.6897C15.0043 32.6099 18.1811 35.7867 22.1012 35.791H23.3924C25.1741 35.7889 26.6181 34.3449 26.6202 32.5631C26.6159 28.643 23.4391 25.4662 19.519 25.4619Z" fill="#FBBF00"/>
<path d="M15.6465 39.0195H53.0894V53.222H15.6465V39.0195Z" fill="#ADF0FF"/>
<path d="M15.6465 35.1455H53.0894V39.0189H15.6465V35.1455Z" fill="#ADF0FF"/>
<path d="M52.4539 28.0442H52.4293C52.4384 27.928 52.4429 27.8111 52.4429 27.6949V26.4302C52.44 24.7113 51.717 23.0722 50.4494 21.9113L54 18.3606L51.1518 15.5111L48.5695 18.0934V15.1328H44.6961V18.739L41.4683 15.5111L38.6187 18.3606L42.1758 21.9177C41.4909 22.5417 40.9552 23.3117 40.6084 24.1708L40.4495 24.6226V24.6298L40.345 24.9713C39.8303 24.5165 39.1829 24.2395 38.4986 24.1811L38.6981 23.9816C40.021 22.6609 40.0227 20.5178 38.702 19.1949C37.5413 18.0323 35.7133 17.8711 34.367 18.8125V18.3606C34.367 16.578 32.9218 15.1328 31.1392 15.1328C29.3565 15.1328 27.9113 16.578 27.9113 18.3606V18.8125C27.5238 18.5438 27.0838 18.3601 26.6202 18.2735V17.7151C26.6202 16.2889 25.4641 15.1328 24.0379 15.1328C22.6118 15.1328 21.4557 16.2889 21.4557 17.7151V18.1024C20.2419 17.0337 18.3916 17.1512 17.3228 18.365C16.3448 19.4757 16.3492 21.1415 17.3331 22.247C15.9201 22.378 14.881 23.6297 15.012 25.0426C15.0675 25.6403 15.3304 26.1998 15.7553 26.6239C15.2689 27.2025 15.0015 27.9338 15 28.6897C15.0023 31.0056 16.135 33.1746 18.0342 34.4998H15V53.8668H53.734V34.4998H51.2809L52.4539 28.0442ZM48.5695 19.919L51.1518 17.3368L52.1756 18.3606L49.3997 21.1366C49.3719 21.1204 49.3416 21.1095 49.3138 21.094C49.1763 21.0165 49.0337 20.95 48.891 20.8835C48.8155 20.848 48.7444 20.8048 48.6676 20.7725L48.5708 20.6757L48.5695 19.919ZM45.9872 16.4239H47.2784V20.2973H45.9872V16.4239ZM40.4444 18.3606L41.4683 17.3368L44.6599 20.5285C44.4663 20.5833 44.2726 20.646 44.0822 20.7221C43.8123 20.8298 43.5504 20.9564 43.2984 21.1011C43.2733 21.1153 43.2455 21.1243 43.221 21.1385L40.4444 18.3606ZM41.4683 26.4302C41.4683 26.105 41.5009 25.7806 41.5657 25.4619H47.9239V24.1708H42.0292C42.3852 23.5052 42.89 22.9308 43.5044 22.4923C45.1822 21.2985 47.432 21.2985 49.1098 22.4923C50.3857 23.3988 51.146 24.8651 51.1518 26.4302V27.6949C51.1518 27.8116 51.1455 27.9282 51.133 28.0442H47.9239V29.3353H50.9064L49.9671 34.4998H45.3417C45.3419 34.0654 45.2929 33.6322 45.1958 33.2087H47.9239V31.9176H44.7342C44.6503 31.7484 44.5579 31.5851 44.4598 31.4269C44.4262 31.3733 44.3888 31.3236 44.3539 31.2713C44.2855 31.1687 44.2171 31.0661 44.1422 30.9686C44.097 30.9092 44.0473 30.8537 44.0002 30.7962C43.9298 30.711 43.8588 30.6258 43.7833 30.5444C43.7297 30.4863 43.6729 30.4321 43.6167 30.3766C43.5412 30.3017 43.4656 30.2275 43.3862 30.1571C43.3255 30.1035 43.2629 30.0525 43.2003 30.0009C43.1196 29.9363 43.0376 29.8718 42.9537 29.8072C42.8891 29.7588 42.8201 29.7129 42.7516 29.6671C42.6655 29.6094 42.5773 29.5541 42.487 29.5012C42.4159 29.4592 42.3449 29.4186 42.2726 29.3798C42.1797 29.3301 42.0841 29.2836 41.9879 29.2391C41.9143 29.2049 41.8407 29.1707 41.7652 29.139C41.7329 29.1255 41.7007 29.1093 41.671 29.0964L41.5212 28.2707C41.4862 28.0808 41.4686 27.8881 41.4683 27.6949V26.4302ZM40.9053 30.1952C42.1848 30.6025 43.216 31.5592 43.7181 32.8046C43.9375 33.3428 44.0504 33.9186 44.0505 34.4998H35.0126C35.0154 32.0053 37.037 29.9837 39.5316 29.9809C39.6245 29.9809 39.7162 29.988 39.8072 29.9944L39.8614 29.9983C40.2159 30.0226 40.5663 30.0887 40.9053 30.1952ZM25.9746 19.4949C26.5302 19.4935 27.0631 19.7143 27.4549 20.1082C27.8549 20.5079 28.5032 20.5076 28.9029 20.1076C29.0946 19.9157 29.2023 19.6557 29.2025 19.3845V18.3606C29.2025 17.291 30.0696 16.4239 31.1392 16.4239C32.2088 16.4239 33.0759 17.291 33.0759 18.3606V19.3845C33.0762 19.95 33.5349 20.4081 34.1004 20.4077C34.3716 20.4076 34.6316 20.2999 34.8234 20.1082C35.6502 19.2999 36.9757 19.315 37.784 20.1418C38.5793 20.9554 38.5793 22.2552 37.784 23.0688L37.4057 23.4471C36.9447 23.9078 36.9444 24.655 37.4051 25.1159C37.6266 25.3375 37.9271 25.462 38.2404 25.4619C39.31 25.4619 40.1771 26.329 40.1771 27.3986C40.1743 27.8777 39.9921 28.3383 39.6665 28.6897C39.6213 28.6897 39.5767 28.6897 39.5316 28.6897C39.2841 28.6914 39.037 28.7088 38.7917 28.742C38.7239 28.7504 38.6568 28.762 38.5897 28.773C38.399 28.8041 38.2101 28.8448 38.0235 28.895C37.9725 28.9086 37.9209 28.9195 37.8705 28.9344C37.6452 29.0017 37.4242 29.0828 37.2088 29.1771C37.1597 29.1984 37.1126 29.2243 37.0642 29.2468C36.8921 29.3269 36.7268 29.4149 36.5684 29.5109C36.5129 29.5445 36.4567 29.5754 36.4025 29.6122C36.2056 29.7368 36.0163 29.873 35.8357 30.0202L35.8247 30.0299C35.65 30.1767 35.484 30.3337 35.3276 30.4999C35.2824 30.547 35.2398 30.5954 35.1985 30.6439C35.0737 30.7842 34.9558 30.9301 34.8447 31.0815C34.815 31.1222 34.7802 31.161 34.7544 31.2023C34.6223 31.3933 34.5018 31.592 34.3935 31.7975C34.3857 31.8117 34.3761 31.8246 34.3683 31.8388C34.3606 31.8246 34.3509 31.8117 34.3431 31.7975C34.2348 31.592 34.1144 31.3933 33.9823 31.2023C33.9532 31.161 33.9216 31.1222 33.8919 31.0815C33.7808 30.9296 33.6629 30.7837 33.5381 30.6439C33.4949 30.5954 33.4516 30.547 33.409 30.4999C33.2526 30.3337 33.0866 30.1767 32.9119 30.0299L32.9009 30.0202C32.7203 29.873 32.531 29.7368 32.3341 29.6122C32.2792 29.5774 32.2237 29.5477 32.1682 29.5109C32.0077 29.4153 31.8424 29.3273 31.6724 29.2468C31.624 29.2243 31.5769 29.1984 31.5278 29.1771C31.3124 29.0828 31.0914 29.0017 30.8661 28.9344C30.8157 28.9195 30.7641 28.9086 30.7131 28.895C30.5265 28.8448 30.3376 28.8041 30.1469 28.773C30.0824 28.762 30.0127 28.7511 29.9449 28.742C29.6988 28.7088 29.4508 28.6913 29.2025 28.6897C29.0308 28.6897 28.8603 28.6988 28.6912 28.7136C28.6363 28.7188 28.5827 28.7272 28.5285 28.7336C28.4142 28.7472 28.3006 28.762 28.1876 28.782C28.1231 28.7937 28.0585 28.8079 27.9978 28.8208C27.8952 28.8427 27.7926 28.8666 27.6918 28.8937C27.6273 28.9112 27.5627 28.9299 27.4982 28.9499C27.3994 28.9802 27.3013 29.0144 27.2038 29.0499C27.1392 29.0725 27.0799 29.0951 27.0192 29.1203C26.9185 29.1616 26.819 29.2068 26.7209 29.2539C26.6667 29.2798 26.6125 29.3037 26.5589 29.3308C26.4407 29.3915 26.3252 29.4599 26.2116 29.5244C26.1806 29.5432 26.147 29.5593 26.118 29.5787C26.0766 29.6045 26.0373 29.6342 25.9966 29.6613C25.9105 29.4698 25.8167 29.2828 25.7151 29.1003C25.679 29.0357 25.6383 28.9751 25.6002 28.9118C25.5195 28.7775 25.4369 28.6445 25.3471 28.5161C25.2981 28.4451 25.2451 28.3773 25.1929 28.3082C25.1064 28.1933 25.0179 28.0803 24.9243 27.9706C24.8662 27.9021 24.8062 27.835 24.7448 27.7691C24.6493 27.665 24.5508 27.5641 24.4492 27.4664C24.3846 27.4018 24.3201 27.3424 24.2555 27.283C24.147 27.1856 24.0341 27.0932 23.9198 27.0029C23.8552 26.9512 23.7907 26.8976 23.7261 26.8479C23.5925 26.7498 23.4537 26.6581 23.313 26.5697C23.2594 26.5361 23.209 26.4987 23.1548 26.4664C22.9611 26.3528 22.7675 26.2469 22.5673 26.1507C22.5777 26.1384 22.5893 26.1275 22.5996 26.1158C22.6693 26.0368 22.7453 25.9636 22.8269 25.897C22.8501 25.8776 22.8733 25.8583 22.8979 25.8395C22.9959 25.765 23.101 25.7001 23.2116 25.6459C23.2245 25.6394 23.2387 25.6355 23.2516 25.6297C23.3531 25.5847 23.4583 25.5486 23.566 25.5219C23.5977 25.5135 23.6306 25.5064 23.6622 25.5C23.7859 25.475 23.9117 25.4623 24.0379 25.4619C24.6897 25.4622 25.2183 24.9341 25.2186 24.2824C25.2188 23.9691 25.0943 23.6686 24.8727 23.4471L24.4944 23.0688C24.3952 22.9703 24.306 22.8622 24.2284 22.746C24.2148 22.7253 24.2064 22.7014 24.1929 22.6814C24.133 22.5844 24.0812 22.4828 24.0379 22.3774C24.0341 22.3683 24.0328 22.3586 24.0295 22.3496C23.8393 21.8598 23.8393 21.3165 24.0295 20.8267C24.0328 20.8177 24.0341 20.808 24.0379 20.7996C24.0823 20.6949 24.1353 20.5941 24.1961 20.4981C24.209 20.4775 24.2168 20.4542 24.2303 20.4336C24.6174 19.8478 25.2725 19.4953 25.9746 19.4949ZM26.4311 30.9395L26.4433 30.9292C26.6204 30.7934 26.8073 30.6708 27.0024 30.5625C27.034 30.5451 27.0669 30.5264 27.0966 30.5096C27.2864 30.4095 27.4833 30.3232 27.6854 30.2513C27.7222 30.2384 27.759 30.2262 27.7958 30.2139C28.0014 30.1452 28.2118 30.0914 28.4252 30.0532C28.4549 30.048 28.4853 30.0448 28.5156 30.0402C30.964 29.6452 33.2691 31.3097 33.6642 33.7581C33.7037 34.0033 33.7229 34.2514 33.7214 34.4998H25.9746V34.4824C26.0134 34.4308 26.0392 34.3739 26.0766 34.3204C26.1141 34.2668 26.1599 34.1951 26.1967 34.1267C26.251 34.0284 26.3002 33.9274 26.3439 33.8239C26.3723 33.7594 26.4033 33.6948 26.4272 33.6302C26.4671 33.5144 26.5003 33.3962 26.5266 33.2765C26.5402 33.219 26.5595 33.1629 26.5692 33.1048C26.6019 32.926 26.6189 32.7448 26.6202 32.5631C26.62 32.0164 26.5566 31.4716 26.4311 30.9395ZM17.5823 23.5252C18.234 23.5255 18.7626 22.9974 18.7629 22.3457C18.7631 22.0324 18.6387 21.7319 18.417 21.5104L18.3615 21.4549C17.7323 20.8055 17.7486 19.769 18.3979 19.1398C19.0329 18.5246 20.0416 18.5246 20.6765 19.1398C21.1504 19.6133 21.9185 19.613 22.3919 19.139C22.6189 18.9118 22.7466 18.6038 22.7468 18.2825V17.7151C22.7468 17.002 23.3248 16.4239 24.0379 16.4239C24.751 16.4239 25.3291 17.002 25.3291 17.7151V18.2651H25.3181C25.2994 18.269 25.2813 18.2761 25.2626 18.28C25.0865 18.318 24.9138 18.3703 24.7461 18.4362C24.69 18.4581 24.6357 18.484 24.5809 18.5085C24.4474 18.5685 24.318 18.6374 24.1935 18.7144C24.1432 18.7454 24.0928 18.7745 24.0444 18.8087C22.5111 19.8509 22.113 21.9388 23.1552 23.4721C23.2791 23.6543 23.4205 23.8238 23.5777 23.9784L23.7771 24.1779C23.6356 24.1901 23.4949 24.2117 23.3562 24.2424C23.3123 24.2514 23.2704 24.265 23.2271 24.276C23.1335 24.2999 23.0418 24.3263 22.9515 24.358C22.903 24.3748 22.8566 24.3941 22.8094 24.4135C22.7264 24.4475 22.6448 24.4849 22.5648 24.5258C22.5196 24.5491 22.4744 24.5723 22.4305 24.5975C22.3491 24.6446 22.271 24.6956 22.1936 24.7498C22.1568 24.7756 22.1193 24.7989 22.0845 24.826C21.9832 24.9032 21.8866 24.9864 21.7952 25.0752C21.7875 25.0829 21.7791 25.0887 21.7714 25.0965C21.6725 25.1954 21.5802 25.3007 21.4951 25.4115C21.4705 25.4438 21.4486 25.4761 21.4253 25.5116C21.3827 25.5716 21.3375 25.6291 21.2962 25.6924H21.284C21.0262 25.6267 20.765 25.5757 20.5015 25.5394C20.437 25.5303 20.3724 25.5219 20.3079 25.5148C20.0461 25.4821 19.7828 25.4645 19.519 25.4619H18.2278C18.0801 25.4629 17.9325 25.4742 17.7863 25.4955C17.7411 25.5019 17.6965 25.5116 17.652 25.5193C17.5493 25.5381 17.4486 25.5607 17.3486 25.5897C17.3008 25.6033 17.2543 25.6168 17.2072 25.633C17.1025 25.6685 16.9997 25.7095 16.8993 25.7556C16.865 25.7711 16.8302 25.784 16.7966 25.8008C16.7869 25.8053 16.7766 25.8086 16.7676 25.8137C16.465 25.5713 16.2895 25.2041 16.2911 24.8163C16.2911 24.1032 16.8692 23.5252 17.5823 23.5252ZM16.2911 28.6897C16.294 27.6213 17.1594 26.7558 18.2278 26.753H19.519C20.165 26.7541 20.8063 26.8632 21.4163 27.0758H21.4234C22.9536 27.6077 24.1934 28.7527 24.8449 30.2359C24.9378 30.4484 25.0177 30.6664 25.0844 30.8885V30.8918C25.2471 31.4339 25.3295 31.997 25.3291 32.5631C25.3273 33.0296 25.1551 33.4793 24.8449 33.8278C24.5901 34.1209 24.2525 34.3297 23.8765 34.4269H23.8733C23.7168 34.4717 23.5551 34.4962 23.3924 34.4998H22.1012C18.8939 34.4963 16.2947 31.8971 16.2911 28.6897ZM52.4429 52.5757H16.2911V39.6644H52.4429V52.5757ZM52.4429 35.791V38.3732H16.2911V35.791H52.4429Z" fill="black"/>
<path d="M45.3418 28.0439H46.6329V29.3351H45.3418V28.0439Z" fill="black"/>
<path d="M27.9103 24.1711C27.9103 23.458 28.4883 22.88 29.2014 22.88C29.9145 22.88 30.4925 23.458 30.4925 24.1711V24.8167H31.7837V24.1711C31.7837 22.745 30.6275 21.5889 29.2014 21.5889C27.7753 21.5889 26.6191 22.745 26.6191 24.1711V24.8167H27.9103V24.1711Z" fill="black"/>
<path d="M35.6575 25.462V24.1709C33.8758 24.173 32.4318 25.617 32.4297 27.3987H33.7208C33.7208 26.3291 34.5879 25.462 35.6575 25.462Z" fill="black"/>
</g>
<defs>
<clipPath id="clip0">
<rect x="15" y="15" width="39" height="39" fill="white"/>
</clipPath>
</defs>
</svg>
