<svg width="28" height="29" viewBox="0 0 28 29" fill="none" xmlns="http://www.w3.org/2000/svg">
<path d="M8.988 19.6414H24.2V20.4414H8.4C7.41228 20.4414 6.6 19.6291 6.6 18.6414C6.6 18.3228 6.68186 18.0322 6.81824 17.7935L6.82209 17.7868L6.82584 17.78L8.71584 14.35L8.96296 13.9015L8.74352 13.4389L3.70352 2.81286L3.43247 2.24141H2.8H1V1.44141H3.94306L4.98898 3.66677L5.25906 4.24141H5.894H26.6C26.8177 4.24141 27 4.42369 27 4.64141C27 4.73137 26.9774 4.79343 26.9638 4.81727L26.96 4.82381L26.9564 4.8304L21.9444 13.9164L21.9432 13.9186C21.6398 14.4719 21.0487 14.8414 20.37 14.8414H9.94H9.34984L9.06458 15.358L7.80458 17.64L7.7415 17.7543L7.70986 17.8809L7.66786 18.0489L7.638 18.1683V18.2914C7.638 19.0397 8.23972 19.6414 8.988 19.6414ZM6.614 25.6414C6.614 24.6472 7.4188 23.8414 8.4 23.8414C9.38772 23.8414 10.2 24.6537 10.2 25.6414C10.2 26.6291 9.38771 27.4414 8.4 27.4414C7.4188 27.4414 6.614 26.6357 6.614 25.6414ZM20.614 25.6414C20.614 24.6472 21.4188 23.8414 22.4 23.8414C23.3877 23.8414 24.2 24.6537 24.2 25.6414C24.2 26.6291 23.3877 27.4414 22.4 27.4414C21.4188 27.4414 20.614 26.6357 20.614 25.6414Z" stroke="black" stroke-width="2"/>
</svg>
