<svg width="28" height="28" viewBox="0 0 28 28" fill="none" xmlns="http://www.w3.org/2000/svg">
<path d="M20.3 0C17.864 0 15.526 1.23597 14 3.1891C12.474 1.23597 10.136 0 7.7 0C3.388 0 0 3.69264 0 8.39237C0 14.1602 4.76 18.8599 11.97 26.0011L14 28L16.03 25.9858C23.24 18.8599 28 14.1602 28 8.39237C28 3.69264 24.612 0 20.3 0ZM14.14 23.7275L14 23.8801L13.86 23.7275C7.196 17.151 2.8 12.8022 2.8 8.39237C2.8 5.3406 4.9 3.05177 7.7 3.05177C9.856 3.05177 11.956 4.5624 12.698 6.65286H15.316C16.044 4.5624 18.144 3.05177 20.3 3.05177C23.1 3.05177 25.2 5.3406 25.2 8.39237C25.2 12.8022 20.804 17.151 14.14 23.7275Z" fill="#121217"/>
</svg>
