<svg width="34" height="34" viewBox="0 0 34 34" fill="none" xmlns="http://www.w3.org/2000/svg">
<path d="M23.8712 0H10.1288C4.54375 0 0 4.54375 0 10.1288V23.8712C0 29.4562 4.54375 34 10.1288 34H23.8712C29.4562 34 34 29.4562 34 23.8712V10.1288C33.9999 4.54375 29.4562 0 23.8712 0ZM30.5796 23.8712C30.5796 27.5761 27.5761 30.5796 23.8712 30.5796H10.1288C6.42388 30.5796 3.4204 27.5761 3.4204 23.8712V10.1288C3.4204 6.42381 6.42388 3.4204 10.1288 3.4204H23.8712C27.5761 3.4204 30.5796 6.42381 30.5796 10.1288V23.8712Z" fill="#C9BEBE"/>
<path d="M16.9999 8.20605C12.1511 8.20605 8.2063 12.1509 8.2063 16.9996C8.2063 21.8483 12.1511 25.7932 16.9999 25.7932C21.8487 25.7932 25.7935 21.8484 25.7935 16.9996C25.7935 12.1508 21.8487 8.20605 16.9999 8.20605ZM16.9999 22.3729C14.0323 22.3729 11.6267 19.9672 11.6267 16.9997C11.6267 14.0321 14.0324 11.6265 16.9999 11.6265C19.9675 11.6265 22.3731 14.0321 22.3731 16.9997C22.3731 19.9672 19.9674 22.3729 16.9999 22.3729Z" fill="url(#paint0_linear)"/>
<path d="M25.8107 10.3793C26.9745 10.3793 27.9179 9.4359 27.9179 8.27217C27.9179 7.10843 26.9745 6.16504 25.8107 6.16504C24.647 6.16504 23.7036 7.10843 23.7036 8.27217C23.7036 9.4359 24.647 10.3793 25.8107 10.3793Z" fill="#C9BEBE"/>
<defs>
<linearGradient id="paint0_linear" x1="16.9999" y1="33.9007" x2="16.9999" y2="0.26375" gradientUnits="userSpaceOnUse">
<stop stop-color="#E09B3D"/>
<stop offset="0.0001" stop-color="#7024C4"/>
<stop offset="0.0002" stop-color="#C21975"/>
<stop offset="0.0003" stop-color="#C9BEBE"/>
</linearGradient>
</defs>
</svg>
