<svg width="86" height="79" viewBox="0 0 129 118" fill="none" xmlns="http://www.w3.org/2000/svg">
<path d="M5.53807 72.6155H12.6317C16.3225 72.6155 18.169 70.7778 18.169 67.1049V12.7078H12.7233V66.9639H5.49188V50.1968H0V67.1049C0 70.7778 1.84577 72.6155 5.53807 72.6155Z" fill="#ed5542"/>
<path d="M0 87.1384H129V81.6923H0V87.1384Z" fill="#ed5542"/>
<path d="M10.9014 5.44615H127.183V0H10.9014V5.44615Z" fill="#ed5542"/>
<path fill-rule="evenodd" clip-rule="evenodd" d="M45.4229 18.4069V37.0576C45.4229 38.4699 44.8125 39.3341 43.5925 39.6469C44.8125 39.9622 45.4229 40.9824 45.4229 42.7084V67.1049C45.4229 70.7778 43.5764 72.6155 39.8856 72.6155H27.2539V12.7078H40.1596C43.668 12.7078 45.4229 14.608 45.4229 18.4069ZM32.7458 37.0576H39.9764V18.3594H32.7458V37.0576ZM32.7458 66.9639H39.9764V42.7084H32.7458V66.9639Z" fill="#ed5542"/>
<path fill-rule="evenodd" clip-rule="evenodd" d="M72.6758 18.4069V72.6155H67.2301V42.7084H59.9987V72.6155H54.5068V18.4069C54.5068 14.608 56.2464 12.7078 59.7247 12.7078H67.4125C70.9216 12.7078 72.6758 14.608 72.6758 18.4069ZM67.2301 37.0576H59.9987V18.3594H67.2301V37.0576Z" fill="#ed5542"/>
<path d="M99.9297 72.6155V18.4069C99.9297 14.608 98.1748 12.7078 94.6664 12.7078H86.9778C83.4995 12.7078 81.7607 14.608 81.7607 18.4069V72.6155H87.2526V18.3594H94.4832V72.6155H99.9297Z" fill="#ed5542"/>
<path fill-rule="evenodd" clip-rule="evenodd" d="M109.014 12.7078H121.919C125.428 12.7078 127.183 14.608 127.183 18.4069V67.1049C127.183 70.7778 125.337 72.6155 121.645 72.6155H109.014V12.7078ZM121.737 66.9639H114.505V18.3594H121.737V66.9639Z" fill="#ed5542"/>
<path d="M0 118H3.2794V111.238H10.7394V108.176H3.2794V104.722H10.9014V101.661H0V118Z" fill="#ed5542"/>
<path d="M21.2114 101.661H18.1689V118H27.2535V114.937H21.2114V101.661Z" fill="#ed5542"/>
<path fill-rule="evenodd" clip-rule="evenodd" d="M30.8877 109.83C30.8877 105.071 33.9535 101.661 38.1449 101.661C42.3571 101.661 45.4229 105.071 45.4229 109.83C45.4229 114.59 42.3571 118 38.1449 118C33.9535 118 30.8877 114.59 30.8877 109.83ZM33.9327 109.83C33.9327 112.766 35.5803 115.017 38.1449 115.017C40.7102 115.017 42.3779 112.766 42.3779 109.83C42.3779 106.871 40.7102 104.645 38.1449 104.645C35.5803 104.645 33.9327 106.871 33.9327 109.83Z" fill="#ed5542"/>
<path d="M67.9242 113.468L64.9241 101.661H62.2833L59.2602 113.468L56.4754 101.661H52.6904L57.2372 118H60.8307L63.5918 106.781L66.3759 118H69.9701L74.4932 101.661H70.6846L67.9242 113.468Z" fill="#ed5542"/>
<path d="M79.9434 118H90.8448V114.937H83.223V111.238H90.6828V108.176H83.223V104.722H90.8448V101.661H79.9434V118Z" fill="#ed5542"/>
<path fill-rule="evenodd" clip-rule="evenodd" d="M104.411 101.661C107.217 101.661 108.933 103.89 108.933 106.927C108.933 109.818 107.439 111.361 105.985 111.777L109.014 118H105.724L103.078 112.193H100.978V118H98.1123V101.661H104.411ZM100.978 109.132H103.987C105.138 109.132 106.006 108.299 106.006 106.927C106.006 105.556 105.138 104.722 103.987 104.722H100.978V109.132Z" fill="#ed5542"/>
<path d="M119.578 106.19C119.578 105.242 120.253 104.602 121.465 104.602C122.815 104.602 124.245 105.147 125.316 106.333L126.886 103.866C125.574 102.42 123.828 101.661 121.723 101.661C118.605 101.661 116.699 103.843 116.699 106.475C116.699 112.427 124.324 110.506 124.324 113.304C124.324 114.205 123.569 115.06 122.02 115.06C120.194 115.06 118.745 114.086 117.811 112.925L116.282 115.485C117.514 116.98 119.341 118 121.882 118C125.456 118 127.184 115.818 127.184 112.925C127.184 107.02 119.578 108.704 119.578 106.19Z" fill="#ed5542"/>
</svg>
