<svg width="27" height="27" viewBox="0 0 27 27" fill="none" xmlns="http://www.w3.org/2000/svg">
<g clip-path="url(#clip0)">
<path d="M13.4998 26.9997C20.9556 26.9997 26.9997 20.9556 26.9997 13.4998C26.9997 6.04408 20.9556 0 13.4998 0C6.04408 0 0 6.04408 0 13.4998C0 20.9556 6.04408 26.9997 13.4998 26.9997Z" fill="#41B4E6"/>
<path d="M27.0001 13.4997C27.0001 13.1708 26.9877 12.8448 26.9646 12.5217L21.3695 6.92676L5.63062 13.1177L11.6524 19.1396L11.7314 19.4239L11.8337 19.3208L11.8341 19.3212L11.7314 19.4239L18.3927 26.0852C23.4298 24.1255 27.0001 19.2298 27.0001 13.4997Z" fill="#0091C8"/>
<path d="M12.189 15.4666L18.2899 20.0728L21.3696 6.92676L5.63062 13.1177L10.4198 14.704L19.1601 8.84123L12.189 15.4666Z" fill="white"/>
<path d="M10.4197 14.7046L11.7313 19.4245L12.1889 15.4671L19.16 8.8418L10.4197 14.7046Z" fill="#D2D2D7"/>
<path d="M14.1718 16.9638L11.7314 19.4242L12.189 15.4668L14.1718 16.9638Z" fill="#B9B9BE"/>
</g>
<defs>
<clipPath id="clip0">
<rect width="27" height="27" fill="white"/>
</clipPath>
</defs>
</svg>
