<svg width="36" height="35" viewBox="0 0 36 35" fill="none" xmlns="http://www.w3.org/2000/svg">
<g clip-path="url(#clip0)">
<path d="M17.9054 35.0006C27.5753 35.0006 35.4143 27.1656 35.4143 17.5008C35.4143 7.8359 27.5753 0.000976562 17.9054 0.000976562C8.23549 0.000976562 0.396484 7.8359 0.396484 17.5008C0.396484 27.1656 8.23549 35.0006 17.9054 35.0006Z" fill="#C9BEBE"/>
<path d="M35.4148 17.5C35.4148 17.0736 35.3987 16.6511 35.3688 16.2322L28.1121 8.97949L7.69922 17.0048L15.5093 24.8109L15.6118 25.1795L15.7444 25.0459L15.7449 25.0464L15.6118 25.1795L24.2512 33.8144C30.7843 31.2742 35.4148 24.9279 35.4148 17.5Z" fill="#9B9292"/>
<path d="M16.2051 20.0496L24.1177 26.0206L28.1119 8.97949L7.69897 17.0048L13.9104 19.0611L25.2464 11.4612L16.2051 20.0496Z" fill="#1D1C1C"/>
<path d="M13.9106 19.0609L15.6118 25.1793L16.2053 20.0493L25.2466 11.4609L13.9106 19.0609Z" fill="#D2D2D7"/>
<path d="M18.7769 21.9904L15.6118 25.1798L16.2053 20.0498L18.7769 21.9904Z" fill="#B9B9BE"/>
</g>
<defs>
<clipPath id="clip0">
<rect width="35.0182" height="35" fill="white" transform="translate(0.396484)"/>
</clipPath>
</defs>
</svg>
