<svg width="27" height="27" viewBox="0 0 27 27" fill="none" xmlns="http://www.w3.org/2000/svg">
<g clip-path="url(#clip0)">
<path d="M12.8453 0.0156144C5.71466 0.355136 0.0875612 6.29361 0.109193 13.4323C0.115779 15.6066 0.640689 17.6589 1.56666 19.4722L0.144966 26.3732C0.0680604 26.7465 0.404741 27.0734 0.775581 26.9856L7.5378 25.3835C9.27512 26.2489 11.2265 26.7487 13.2917 26.7802C20.58 26.8916 26.6571 21.1045 26.8842 13.819C27.1277 6.00942 20.6822 -0.357614 12.8453 0.0156144ZM20.9141 20.805C18.9337 22.7854 16.3007 23.876 13.5 23.876C11.8602 23.876 10.2901 23.5081 8.83345 22.7825L7.89172 22.3134L3.74578 23.2957L4.61848 19.0593L4.15453 18.1507C3.39832 16.6698 3.01489 15.0683 3.01489 13.3909C3.01489 10.5902 4.10552 7.95719 6.08589 5.97675C8.04857 4.01407 10.7246 2.90568 13.5002 2.90568C16.3009 2.90575 18.9338 3.99638 20.9142 5.97668C22.8945 7.95706 23.9852 10.5901 23.9852 13.3907C23.9852 16.1664 22.8768 18.8424 20.9141 20.805Z" fill="#7AD06D"/>
<path d="M19.999 16.2953L17.4052 15.5505C17.0642 15.4526 16.697 15.5493 16.4485 15.8025L15.8142 16.4487C15.5468 16.7212 15.1409 16.8088 14.7869 16.6656C13.5599 16.169 10.9788 13.8741 10.3197 12.7262C10.1295 12.3951 10.161 11.9811 10.3945 11.679L10.9482 10.9625C11.1652 10.6818 11.211 10.3049 11.0675 9.9804L9.97622 7.51224C9.71483 6.92108 8.9594 6.749 8.46587 7.16639C7.74195 7.77867 6.883 8.70909 6.77859 9.73986C6.59449 11.5572 7.37388 13.8481 10.3212 16.5989C13.7261 19.7768 16.4527 20.1967 18.228 19.7666C19.2349 19.5227 20.0396 18.545 20.5475 17.7444C20.8937 17.1986 20.6203 16.4737 19.999 16.2953Z" fill="#7AD06D"/>
</g>
<defs>
<clipPath id="clip0">
<rect width="27" height="27" fill="white"/>
</clipPath>
</defs>
</svg>
