<svg width="34" height="34" viewBox="0 0 34 34" fill="none" xmlns="http://www.w3.org/2000/svg">
<g clip-path="url(#clip0)">
<path d="M16.1756 0.0196626C7.19627 0.447209 0.110289 7.92528 0.137529 16.9148C0.145823 19.6528 0.80682 22.2371 1.97286 24.5205L0.182577 33.2108C0.0857328 33.6808 0.509701 34.0924 0.976684 33.9819L9.49207 31.9644C11.6798 33.0541 14.1371 33.6836 16.7378 33.7233C25.9155 33.8635 33.5682 26.5761 33.8542 17.4017C34.1609 7.56742 26.0443 -0.450329 16.1756 0.0196626ZM26.3363 26.1989C23.8425 28.6927 20.5268 30.0661 17.0001 30.0661C14.935 30.0661 12.958 29.6028 11.1236 28.6891L9.93775 28.0983L4.71694 29.3353L5.81589 24.0005L5.23165 22.8565C4.27939 20.9915 3.79655 18.9749 3.79655 16.8626C3.79655 13.3358 5.16994 10.0202 7.66374 7.52628C10.1353 5.05475 13.5051 3.65901 17.0003 3.65901C20.527 3.65909 23.8426 5.03247 26.3364 7.5262C28.8302 10.02 30.2036 13.3356 30.2037 16.8624C30.2036 20.3577 28.8078 23.7275 26.3363 26.1989Z" fill="#C9BEBE"/>
<path d="M25.1839 20.5195L21.9176 19.5816C21.4882 19.4583 21.0257 19.5801 20.7128 19.899L19.9141 20.7127C19.5773 21.0559 19.0662 21.1661 18.6205 20.9858C17.0754 20.3605 13.8251 17.4706 12.9951 16.0251C12.7556 15.6081 12.7952 15.0868 13.0892 14.7064L13.7866 13.8042C14.0598 13.4507 14.1174 12.976 13.9367 12.5674L12.5626 9.45936C12.2334 8.71493 11.2821 8.49823 10.6606 9.02384C9.74903 9.79486 8.6674 10.9665 8.53591 12.2645C8.30409 14.553 9.28554 17.4378 12.9969 20.9018C17.2846 24.9036 20.7181 25.4323 22.9537 24.8908C24.2217 24.5837 25.235 23.3524 25.8745 22.3443C26.3105 21.6569 25.9663 20.7441 25.1839 20.5195Z" fill="#C9BEBE"/>
</g>
<defs>
<clipPath id="clip0">
<rect width="34" height="34" fill="white"/>
</clipPath>
</defs>
</svg>
