<svg width="39" height="39" viewBox="0 0 39 39" fill="none" xmlns="http://www.w3.org/2000/svg">
<path d="M31.5516 0H24.4932C22.8471 0 21.5078 1.33925 21.5078 2.9854V10.0439C21.5078 11.69 22.8471 13.0293 24.4932 13.0293H31.5516C33.1978 13.0293 34.5371 11.69 34.5371 10.0439V2.9854C34.5372 1.33925 33.1979 0 31.5516 0ZM32.252 10.0439C32.252 10.43 31.9378 10.7441 31.5517 10.7441H24.4933C24.1072 10.7441 23.793 10.43 23.793 10.0439V2.9854C23.793 2.59929 24.1072 2.28516 24.4933 2.28516H31.5517C31.9378 2.28516 32.252 2.59929 32.252 2.9854V10.0439Z" fill="#EB5642"/>
<path d="M26.0822 15.8818C25.534 15.8818 25.0171 16.0178 24.5633 16.258C23.9787 15.3821 22.9814 14.8042 21.8517 14.8042C21.2683 14.8042 20.7202 14.9583 20.246 15.2281C19.6524 14.4219 18.6968 13.898 17.6212 13.898C17.2827 13.898 16.9559 13.95 16.6486 14.0462V13.0292H16.92C18.5661 13.0292 19.9054 11.6899 19.9054 10.0438V2.9854C19.9054 1.33925 18.5661 0 16.92 0H9.8616C8.21545 0 6.8762 1.33925 6.8762 2.9854V10.0439C6.8762 11.69 8.21545 13.0293 9.8616 13.0293H10.133V20.1073C9.95636 19.9301 9.75793 19.7722 9.54008 19.637C8.83823 19.2009 8.0152 19.0492 7.20816 19.2046C6.34041 19.2394 5.56162 19.6181 5.05577 20.2558C4.52439 20.9255 4.33983 21.8236 4.54922 22.7198L6.05072 29.1458C6.9072 34.5072 11.0895 38.5186 11.2676 38.6872C11.4798 38.888 11.7609 38.9999 12.0531 38.9999H24.9042C25.2888 38.9999 25.6476 38.8064 25.8589 38.485C28.135 35.0228 29.3384 31.0029 29.339 26.8598L29.3402 19.1396C29.3402 19.1396 29.3402 19.1396 29.3402 19.1395C29.3401 17.3432 27.8785 15.8818 26.0822 15.8818ZM12.5331 36.7148C11.6123 35.7353 8.89856 32.5724 8.30153 28.75C8.29711 28.7219 8.2917 28.694 8.28523 28.6664L6.77428 22.1998C6.72386 21.9838 6.74922 21.7978 6.84581 21.676C6.94239 21.5542 7.10761 21.4906 7.32843 21.4696C7.43957 21.459 7.48565 21.4458 7.58841 21.4396C7.84762 21.4239 8.11338 21.441 8.33413 21.5781C8.55488 21.7152 8.70889 21.93 8.768 22.183L10.0712 27.7608C10.1801 28.2266 10.5674 28.5753 11.042 28.6346L11.1335 28.646C11.4589 28.6867 11.7858 28.5858 12.0315 28.3689C12.2772 28.1521 12.4179 27.8401 12.4179 27.5123V9.3533C12.4179 8.81697 12.8543 8.38058 13.3906 8.38058C13.927 8.38058 14.3634 8.81697 14.3634 9.3533V17.1559V20.0676C14.3634 20.6986 14.8749 21.2102 15.5059 21.2102C16.1369 21.2102 16.6485 20.6986 16.6485 20.0676V17.1559C16.6485 16.6196 17.0848 16.1832 17.6212 16.1832C18.1575 16.1832 18.5939 16.6196 18.5939 17.1559V18.062V20.1977C18.5939 20.8287 19.1054 21.3403 19.7365 21.3403C20.3675 21.3403 20.879 20.8287 20.879 20.1977V18.062C20.879 17.5257 21.3154 17.0893 21.8517 17.0893C22.3881 17.0893 22.8244 17.5257 22.8244 18.062V19.1396V20.9956C22.8244 21.6266 23.336 22.1382 23.967 22.1382C24.598 22.1382 25.1095 21.6266 25.1095 20.9956V19.1396C25.1095 18.6032 25.5459 18.1668 26.0823 18.1668C26.6186 18.1668 27.055 18.6032 27.055 19.1393L27.0537 26.8596C27.0533 30.3517 26.0947 33.746 24.2762 36.7148H12.5331ZM9.16136 10.0439V2.9854C9.16136 2.59929 9.47549 2.28516 9.8616 2.28516H16.92C17.3061 2.28516 17.6202 2.59929 17.6202 2.9854V10.0439C17.6202 10.43 17.3061 10.7441 16.92 10.7441H16.6486V9.35322C16.6486 7.55686 15.1871 6.09535 13.3907 6.09535C11.5944 6.09535 10.1329 7.55686 10.1329 9.35322V10.7441H9.86145C9.47549 10.7441 9.16136 10.43 9.16136 10.0439Z" fill="#EB5642"/>
</svg>
