<svg width="31" height="39" viewBox="0 0 31 39" fill="currentColor" xmlns="http://www.w3.org/2000/svg">
	<path d="M27.5516 0H20.4932C18.8471 0 17.5078 1.33925 17.5078 2.9854V10.0439C17.5078 11.69 18.8471 13.0293 20.4932 13.0293H27.5516C29.1978 13.0293 30.5371 11.69 30.5371 10.0439V2.9854C30.5372 1.33925 29.1979 0 27.5516 0ZM28.252 10.0439C28.252 10.43 27.9378 10.7441 27.5517 10.7441H20.4933C20.1072 10.7441 19.793 10.43 19.793 10.0439V2.9854C19.793 2.59929 20.1072 2.28516 20.4933 2.28516H27.5517C27.9378 2.28516 28.252 2.59929 28.252 2.9854V10.0439Z" />
	<path d="M22.0822 15.8818C21.534 15.8818 21.0171 16.0178 20.5633 16.258C19.9787 15.3821 18.9814 14.8042 17.8517 14.8042C17.2683 14.8042 16.7202 14.9583 16.246 15.2281C15.6524 14.4219 14.6968 13.898 13.6212 13.898C13.2827 13.898 12.9559 13.95 12.6486 14.0462V13.0292H12.92C14.5661 13.0292 15.9054 11.6899 15.9054 10.0438V2.9854C15.9054 1.33925 14.5661 0 12.92 0H5.8616C4.21545 0 2.8762 1.33925 2.8762 2.9854V10.0439C2.8762 11.69 4.21545 13.0293 5.8616 13.0293H6.133V20.1073C5.95636 19.9301 5.75793 19.7722 5.54008 19.637C4.83823 19.2009 4.0152 19.0492 3.20816 19.2046C2.34041 19.2394 1.56162 19.6181 1.05577 20.2558C0.524392 20.9255 0.339827 21.8236 0.549224 22.7198L2.05072 29.1458C2.9072 34.5072 7.08949 38.5186 7.26758 38.6872C7.4798 38.888 7.76087 38.9999 8.05307 38.9999H20.9042C21.2888 38.9999 21.6476 38.8064 21.8589 38.485C24.135 35.0228 25.3384 31.0029 25.339 26.8598L25.3402 19.1396C25.3402 19.1396 25.3402 19.1396 25.3402 19.1395C25.3401 17.3432 23.8785 15.8818 22.0822 15.8818ZM8.5331 36.7148C7.61226 35.7353 4.89856 32.5724 4.30153 28.75C4.29711 28.7219 4.2917 28.694 4.28523 28.6664L2.77428 22.1998C2.72386 21.9838 2.74922 21.7978 2.84581 21.676C2.94239 21.5542 3.10761 21.4906 3.32843 21.4696C3.43957 21.459 3.48565 21.4458 3.58841 21.4396C3.84762 21.4239 4.11338 21.441 4.33413 21.5781C4.55488 21.7152 4.70889 21.93 4.768 22.183L6.07123 27.7608C6.18008 28.2266 6.56741 28.5753 7.04196 28.6346L7.13352 28.646C7.45885 28.6867 7.78578 28.5858 8.03151 28.3689C8.27724 28.1521 8.41793 27.8401 8.41793 27.5123V9.3533C8.41793 8.81697 8.85432 8.38058 9.39065 8.38058C9.92697 8.38058 10.3634 8.81697 10.3634 9.3533V17.1559V20.0676C10.3634 20.6986 10.8749 21.2102 11.5059 21.2102C12.1369 21.2102 12.6485 20.6986 12.6485 20.0676V17.1559C12.6485 16.6196 13.0848 16.1832 13.6212 16.1832C14.1575 16.1832 14.5939 16.6196 14.5939 17.1559V18.062V20.1977C14.5939 20.8287 15.1054 21.3403 15.7365 21.3403C16.3675 21.3403 16.879 20.8287 16.879 20.1977V18.062C16.879 17.5257 17.3154 17.0893 17.8517 17.0893C18.3881 17.0893 18.8244 17.5257 18.8244 18.062V19.1396V20.9956C18.8244 21.6266 19.336 22.1382 19.967 22.1382C20.598 22.1382 21.1095 21.6266 21.1095 20.9956V19.1396C21.1095 18.6032 21.5459 18.1668 22.0823 18.1668C22.6186 18.1668 23.055 18.6032 23.055 19.1393L23.0537 26.8596C23.0533 30.3517 22.0947 33.746 20.2762 36.7148H8.5331ZM5.16136 10.0439V2.9854C5.16136 2.59929 5.47549 2.28516 5.8616 2.28516H12.92C13.3061 2.28516 13.6202 2.59929 13.6202 2.9854V10.0439C13.6202 10.43 13.3061 10.7441 12.92 10.7441H12.6486V9.35322C12.6486 7.55686 11.1871 6.09535 9.39072 6.09535C7.59436 6.09535 6.13285 7.55686 6.13285 9.35322V10.7441H5.86145C5.47549 10.7441 5.16136 10.43 5.16136 10.0439Z"/>
</svg>