<svg width="100%" height="100%" viewBox="0 0 40 40" fill="currentColor" xmlns="http://www.w3.org/2000/svg">
	<path d="M35.8373 32.9858L34.0509 10.4768C33.9397 9.02656 32.7132 7.89062 31.2588 7.89062H27.7305V7.73203C27.7305 3.46852 24.262 0 19.9986 0C15.7352 0 12.2666 3.46852 12.2666 7.73195V7.89055H8.73835C7.2839 7.89055 6.05742 9.02648 5.94648 10.4737L4.15953 32.9888C4.02124 34.7916 4.64663 36.5863 5.87523 37.9127C7.10382 39.2391 8.84546 40 10.6535 40H29.3435C31.1515 40 32.8932 39.2392 34.1218 37.9127C35.3503 36.5863 35.9757 34.7916 35.8373 32.9858ZM14.6095 7.73195C14.6095 4.76047 17.0271 2.34297 19.9985 2.34297C22.9699 2.34297 25.3875 4.76055 25.3875 7.73195V7.89055H14.6095V7.73195ZM32.4029 36.3207C31.6046 37.1824 30.5182 37.657 29.3435 37.657H10.6536C9.4789 37.657 8.39249 37.1824 7.59421 36.3207C6.79601 35.4589 6.40585 34.3392 6.49554 33.1711L8.28234 10.6559C8.30046 10.419 8.50078 10.2335 8.73835 10.2335H12.2666V13.1191C12.2666 13.766 12.7912 14.2905 13.4381 14.2905C14.0851 14.2905 14.6096 13.766 14.6096 13.1191V10.2335H25.3877V13.1191C25.3877 13.766 25.9122 14.2905 26.5591 14.2905C27.2061 14.2905 27.7306 13.766 27.7306 13.1191V10.2335H31.2589C31.4965 10.2335 31.6967 10.419 31.7152 10.659L33.5015 33.168C33.5912 34.3392 33.201 35.4588 32.4029 36.3207Z"/>
	<path d="M21.8109 24.3672L25.3637 20.8143C25.8213 20.3568 25.8213 19.6151 25.3639 19.1576C24.9065 18.7001 24.1647 18.7001 23.7072 19.1576L20.1543 22.7105L16.6014 19.1576C16.144 18.7001 15.4022 18.7001 14.9447 19.1576C14.4872 19.6151 14.4872 20.3568 14.9447 20.8143L18.4976 24.3672L14.9447 27.9201C14.4872 28.3776 14.4872 29.1193 14.9447 29.5768C15.1734 29.8056 15.4733 29.92 15.773 29.92C16.0727 29.92 16.3726 29.8056 16.6012 29.5768L20.1541 26.0239L23.707 29.5768C23.9358 29.8056 24.2356 29.92 24.5353 29.92C24.8351 29.92 25.1349 29.8056 25.3636 29.5768C25.8211 29.1193 25.8211 28.3776 25.3636 27.9201L21.8109 24.3672Z"/>
</svg>
