<svg width="40" height="40" viewBox="0 0 40 40" fill="none" xmlns="http://www.w3.org/2000/svg">
<g clip-path="url(#clip0)">
<path d="M35.3769 21.4035V1.29303C35.3769 0.621643 34.8334 0.078125 34.162 0.078125C33.1149 0.078125 1.85883 0.078125 1.2149 0.078125C0.543518 0.078125 0 0.621643 0 1.29303V30.6934C0 31.3641 0.543518 31.9083 1.2149 31.9083H20.0742C21.0202 36.4844 25.0812 39.9347 29.9326 39.9347C35.4837 39.9347 40 35.4187 40 29.8672C40 26.3208 38.1567 23.1967 35.3769 21.4035ZM29.9326 37.5049C25.9784 37.5049 22.7402 34.4852 22.341 30.6934C21.8445 26.1972 25.3882 22.2305 29.9326 22.2305C34.1348 22.2305 37.5702 25.6476 37.5702 29.8672C37.5702 34.079 34.1443 37.5049 29.9326 37.5049ZM2.42981 29.4785V2.50793H12.3077V13.1277C12.3077 14.0854 13.3685 14.668 14.1763 14.1522L17.6889 11.9128L21.2009 14.1522C22.0038 14.6646 23.0692 14.0918 23.0692 13.1277V2.50793H32.9471V20.2615C31.9955 19.9619 30.9824 19.8007 29.9326 19.8007C24.5126 19.8007 20.0781 24.108 19.8734 29.4785H2.42981ZM20.6393 10.9125L18.3417 9.44733C17.9483 9.19617 17.4368 9.19098 17.0352 9.44733L14.7375 10.9125V2.50793H20.6393V10.9125Z" fill="#4E4C70"/>
<path d="M27.6578 24.9951C26.984 25.6235 26.5977 26.513 26.5977 27.4347C26.5977 29.0607 29.0275 29.0201 29.0275 27.4347C29.0275 26.2845 30.7581 26.2015 30.8399 27.3672C30.8683 27.7862 30.6122 28.1683 30.217 28.2971C29.3229 28.5901 28.7195 29.4159 28.7195 30.3537V31.4114C28.7195 33.002 31.1494 33.0334 31.1494 31.4114C31.1494 30.9042 31.1494 31.0605 31.1494 30.5438C32.4869 30.0229 33.3658 28.6816 33.2642 27.2006C33.0726 24.4092 29.7037 23.0844 27.6578 24.9951Z" fill="#4E4C70"/>
<path d="M29.9336 33.5166C29.2006 33.5166 28.6055 34.1111 28.6055 34.845C28.6055 35.5787 29.2006 36.1732 29.9336 36.1732C30.6675 36.1732 31.262 35.5787 31.262 34.845C31.262 34.1111 30.6675 33.5166 29.9336 33.5166Z" fill="#4E4C70"/>
</g>
<defs>
<clipPath id="clip0">
<rect width="40" height="40" fill="white"/>
</clipPath>
</defs>
</svg>
