<svg width="100%" height="100%" viewBox="0 0 40 40" fill="currentColor" xmlns="http://www.w3.org/2000/svg">
<g clip-path="url(#clip0)">
<path d="M38.5512 0.037446C38.5402 0.0401022 38.5292 0.0422897 38.5183 0.0452585L2.05835 9.98887C1.14202 10.2388 0.889906 11.4211 1.62155 12.024L12.9691 21.3726L10.8798 27.6404C10.5752 28.5541 11.447 29.4277 12.3621 29.1227L18.6299 27.0334L27.9786 38.381C28.5839 39.1156 29.7641 38.8587 30.0136 37.9442L39.9572 1.48417C39.9603 1.47268 39.9627 1.46104 39.9654 1.44948C40.1711 0.590494 39.3955 -0.166383 38.5512 0.037446ZM4.85898 11.6544L33.7475 3.77573L14.342 19.467L4.85898 11.6544ZM18.3269 24.6638L13.8444 26.158L15.3386 21.6755L30.9525 9.04988L18.3269 24.6638ZM28.3479 35.1434L20.5353 25.6603L36.2267 6.2548L28.3479 35.1434Z"/>
<path d="M3.65669 36.3526C3.1988 35.8951 2.45676 35.8955 1.99934 36.3534L0.342852 38.0115C-0.11457 38.4693 -0.114258 39.2113 0.343634 39.6687C0.780666 40.1054 1.56434 40.105 2.0009 39.668L3.65747 38.0099C4.11489 37.5521 4.11458 36.8101 3.65669 36.3526Z"/>
<path d="M8.62535 31.379C8.16746 30.9216 7.42558 30.9219 6.96808 31.3798L5.31159 33.0378C4.89581 33.454 4.8962 34.2793 5.31237 34.6951C5.70761 35.0899 6.57456 35.0897 6.96964 34.6943L8.62613 33.0363C9.08355 32.5784 9.08324 31.8364 8.62535 31.379Z"/>
</g>
<defs>
<clipPath id="clip0">
<rect width="40" height="40"/>
</clipPath>
</defs>
</svg>
