<svg width="66" height="66" viewBox="0 0 66 66" fill="none" xmlns="http://www.w3.org/2000/svg">
<g clip-path="url(#clip0)">
<path d="M18.1827 3.50586C7.39855 8.93418 0 20.1032 0 33.0001C0 47.1418 8.89545 59.2058 21.3962 63.9021L18.1827 3.50586Z" fill="#669096"/>
<path d="M47.9829 3.58984C47.9791 3.5907 9.46094 51.9627 9.46094 51.9627L21.3983 63.8998C25.0097 65.2561 28.9179 65.9995 33.0003 65.9995C51.2255 65.9995 66 51.2249 66 32.9997C66 20.1689 58.6771 9.04887 47.9829 3.58984Z" fill="#669096"/>
<path d="M30.308 8.35352L18.1836 10.3424V31.6614H42.4561L47.9781 18.6698L30.308 8.35352Z" fill="#FEE187"/>
<path d="M31.0859 35.0781L33.0725 49.9768H54.6492V37.0647L31.0859 35.0781Z" fill="#71E2F0"/>
<path d="M33.0725 24.1504L31.0859 37.0632H54.6492V24.1511L33.0725 24.1504Z" fill="#C2FBFF"/>
<path d="M11.4473 37.1116V50.0239L33.0716 49.976V37.0639L23.1385 34.084L11.4473 37.1116Z" fill="#C2FBFF"/>
<path d="M11.4473 24.1989V37.111L33.0716 37.0632V24.1504L11.4473 24.1989Z" fill="white"/>
<path d="M33.0734 29.8906C37.1879 29.8906 40.5227 33.2255 40.5227 37.34C40.5227 41.4536 37.1879 44.7892 33.0734 44.7892L31.418 37.34L33.0734 29.8906Z" fill="#38C6D9"/>
<path d="M33.0703 29.8906V44.7892C28.9558 44.7892 25.6211 41.4536 25.6211 37.34C25.6211 33.2253 28.9559 29.8906 33.0703 29.8906Z" fill="#71E2F0"/>
<path d="M49.1361 25.5866H33.0715L31.6367 24.1511L33.0715 22.7266H56.6348V51.9634H33.0715L31.6367 50.6388L33.0715 49.0938H49.1361C49.1361 46.5372 51.2086 44.4648 53.7651 44.4648V30.2156C51.2086 30.2156 49.1361 28.1431 49.1361 25.5866Z" fill="#38C6D9"/>
<path d="M16.9595 25.5865H33.0719V22.7266H9.46094V51.9632H33.072V49.0937H16.9595C16.9595 46.5371 14.887 44.5124 12.3305 44.5124V30.2633C14.887 30.2633 16.9595 28.143 16.9595 25.5865Z" fill="#71E2F0"/>
<path d="M41.4038 22.7269L41.4548 33.9352C41.4548 35.7152 42.903 37.1635 44.683 37.1635C46.463 37.1635 47.9113 35.7152 47.9113 33.9352V10.3424L30.3086 8.35352L30.3087 10.3425C30.3086 16.792 35.159 21.957 41.4038 22.7269Z" fill="#FFC61B"/>
<path d="M47.9767 3.59124C43.4813 1.29675 38.3917 0 32.9984 0L29.6211 4.85039L33.0191 10.3418H47.9766V3.59124H47.9767Z" fill="#121149"/>
<path d="M18.1836 10.3418H33.0206L32.9998 0C27.6715 0 22.6393 1.26518 18.1836 3.50874V10.3418Z" fill="#273B7A"/>
</g>
<defs>
<clipPath id="clip0">
<rect width="66" height="66" fill="white"/>
</clipPath>
</defs>
</svg>
