<svg width="66" height="66" viewBox="0 0 66 66" fill="none" xmlns="http://www.w3.org/2000/svg">
<path d="M7.80664 26.1598V45.7187H19.9238V22L7.80664 26.1598Z" fill="#FC80AA"/>
<path d="M64.4599 37.3828H34.374L31.624 52.25L34.374 66H57.3553L64.4599 37.3828Z" fill="#F8B55E"/>
<path d="M4.51758 37.3828L11.6222 66H34.3764V37.3828H4.51758Z" fill="#FFCD6E"/>
<path d="M34.4886 0C34.4506 0 34.4129 0.00116016 34.375 0.00141797L33 1.37504L34.375 3.86873C34.4129 3.86848 34.4507 3.86732 34.4887 3.86732C42.5208 3.86732 49.0551 10.4018 49.0551 18.4337V35.42H52.9223V18.4336C52.9223 8.26921 44.6529 0 34.4886 0V0Z" fill="#F8B55E"/>
<path d="M16.5928 14.0084H20.6099C22.4767 8.16842 27.9343 3.91877 34.3744 3.86914V0.00195312C25.7855 0.0541602 18.5715 6.01027 16.5928 14.0084Z" fill="#FFCD6E"/>
<path d="M66 40.7305H65.9994C65.9973 39.8501 65.9861 31.0664 65.9861 31.0664H34.375L33 38.5L34.375 46.5544C34.4132 46.5068 34.4515 46.4592 34.4887 46.4109C36.1956 48.6278 38.8753 50.0586 41.8831 50.0586C44.8908 50.0586 47.5707 48.6278 49.2775 46.4109C50.9844 48.6278 53.6642 50.0586 56.672 50.0586C61.7715 50.0586 65.9283 45.9454 65.999 40.8624H65.9996C65.9995 40.8557 65.9995 40.8421 65.9994 40.8224C65.9999 40.7917 66 40.7613 66 40.7305Z" fill="#EFE2DD"/>
<path d="M2.97754 31.0664V40.7305C2.97754 45.874 7.16209 50.0586 12.3056 50.0586C15.3134 50.0586 17.9931 48.6278 19.6999 46.4109C21.4068 48.6278 24.0866 50.0586 27.0944 50.0586C30.0365 50.0586 32.6643 48.6891 34.3751 46.5544V31.0664H2.97754Z" fill="#F7F0EB"/>
<path d="M17.9893 22V54.057H28.173V25.1175L17.9893 22Z" fill="#FDA0C1"/>
<path d="M31.9276 10.5307C29.3727 8.86625 26.1821 8.60831 23.393 9.84052L18.0041 12.2214L12.615 9.84052C9.82588 8.60831 6.63532 8.86625 4.0804 10.5307C1.52535 12.1951 0 15.0093 0 18.0584C0 21.1462 1.55512 23.9796 4.16006 25.6376C5.63127 26.5741 7.30022 27.0483 8.97858 27.0483C10.2715 27.0483 11.5701 26.7667 12.7875 26.1978L18.004 23.7603L23.2204 26.1978C24.4377 26.7667 25.7364 27.0483 27.0293 27.0483C28.7077 27.0483 30.3766 26.574 31.8478 25.6376C34.4528 23.9796 36.008 21.1462 36.008 18.0584C36.0079 15.0093 34.4826 12.1951 31.9276 10.5307ZM13.482 18.759L10.0588 20.3586C9.7118 20.5208 9.34828 20.603 8.97858 20.603C8.50433 20.603 8.03498 20.4638 7.62094 20.2002C6.8738 19.7247 6.44531 18.944 6.44531 18.0584C6.44531 17.1839 6.86568 16.4086 7.59838 15.9311C8.01565 15.6592 8.49312 15.5156 8.97948 15.5156C9.3323 15.5156 9.67918 15.5897 10.0102 15.736L13.482 17.2699V18.759ZM28.387 20.2002C27.9729 20.4638 27.5034 20.603 27.0293 20.603C26.6596 20.603 26.2961 20.5208 25.9491 20.3586L22.5259 18.759V17.2699L25.9977 15.736C26.3287 15.5897 26.6756 15.5156 27.0284 15.5156C27.5147 15.5156 27.9923 15.6593 28.4095 15.9311C29.1424 16.4084 29.5626 17.1838 29.5626 18.0584C29.5626 18.944 29.1341 19.7247 28.387 20.2002Z" fill="#FDA0C1"/>
<path d="M18.0046 23.9526C21.2588 23.9526 23.8969 21.3145 23.8969 18.0603C23.8969 14.806 21.2588 12.168 18.0046 12.168C14.7504 12.168 12.1123 14.806 12.1123 18.0603C12.1123 21.3145 14.7504 23.9526 18.0046 23.9526Z" fill="#FC80AA"/>
</svg>
