<svg width="320" height="140" viewBox="0 0 320 140" fill="none" xmlns="http://www.w3.org/2000/svg">
<rect width="320" height="140" fill="#F47E6F"/>
<path d="M33.798 54.096V60.19H30.498V57H19.63V60.19H16.33L16.352 54.096H16.968C17.892 54.0667 18.5447 53.392 18.926 52.072C19.3073 50.752 19.542 48.8673 19.63 46.418L19.806 41.6H31.642V54.096H33.798ZM22.776 46.748C22.7027 48.5813 22.5487 50.1213 22.314 51.368C22.0793 52.6 21.72 53.5093 21.236 54.096H28.122V44.504H22.842L22.776 46.748ZM41.3268 57.176C40.0801 57.176 38.9581 56.9193 37.9608 56.406C36.9781 55.878 36.2081 55.152 35.6508 54.228C35.0935 53.304 34.8148 52.2553 34.8148 51.082C34.8148 49.9087 35.0935 48.86 35.6508 47.936C36.2081 47.012 36.9781 46.2933 37.9608 45.78C38.9581 45.252 40.0801 44.988 41.3268 44.988C42.5735 44.988 43.6881 45.252 44.6708 45.78C45.6535 46.2933 46.4235 47.012 46.9808 47.936C47.5381 48.86 47.8168 49.9087 47.8168 51.082C47.8168 52.2553 47.5381 53.304 46.9808 54.228C46.4235 55.152 45.6535 55.878 44.6708 56.406C43.6881 56.9193 42.5735 57.176 41.3268 57.176ZM41.3268 54.36C42.2068 54.36 42.9255 54.0667 43.4828 53.48C44.0548 52.8787 44.3408 52.0793 44.3408 51.082C44.3408 50.0847 44.0548 49.2927 43.4828 48.706C42.9255 48.1047 42.2068 47.804 41.3268 47.804C40.4468 47.804 39.7208 48.1047 39.1488 48.706C38.5768 49.2927 38.2908 50.0847 38.2908 51.082C38.2908 52.0793 38.5768 52.8787 39.1488 53.48C39.7208 54.0667 40.4468 54.36 41.3268 54.36ZM55.8093 57.176C54.548 57.176 53.4113 56.9193 52.3993 56.406C51.402 55.878 50.6173 55.152 50.0453 54.228C49.488 53.304 49.2093 52.2553 49.2093 51.082C49.2093 49.9087 49.488 48.86 50.0453 47.936C50.6173 47.012 51.402 46.2933 52.3993 45.78C53.4113 45.252 54.548 44.988 55.8093 44.988C57.056 44.988 58.1413 45.252 59.0653 45.78C60.004 46.2933 60.686 47.034 61.1113 48.002L58.4493 49.432C57.8333 48.3467 56.946 47.804 55.7873 47.804C54.8927 47.804 54.152 48.0973 53.5653 48.684C52.9787 49.2707 52.6853 50.07 52.6853 51.082C52.6853 52.094 52.9787 52.8933 53.5653 53.48C54.152 54.0667 54.8927 54.36 55.7873 54.36C56.9607 54.36 57.848 53.8173 58.4493 52.732L61.1113 54.184C60.686 55.1227 60.004 55.856 59.0653 56.384C58.1413 56.912 57.056 57.176 55.8093 57.176ZM73.0979 47.98H69.0939V57H65.6839V47.98H61.6799V45.164H73.0979V47.98ZM79.5253 44.988C81.3587 44.988 82.7667 45.428 83.7493 46.308C84.732 47.1733 85.2233 48.486 85.2233 50.246V57H82.0113V55.526C81.366 56.626 80.1633 57.176 78.4033 57.176C77.494 57.176 76.702 57.022 76.0273 56.714C75.3673 56.406 74.8613 55.9807 74.5093 55.438C74.1573 54.8953 73.9813 54.2793 73.9813 53.59C73.9813 52.49 74.392 51.6247 75.2133 50.994C76.0493 50.3633 77.3327 50.048 79.0633 50.048H81.7913C81.7913 49.3 81.564 48.728 81.1093 48.332C80.6547 47.9213 79.9727 47.716 79.0633 47.716C78.4327 47.716 77.8093 47.8187 77.1933 48.024C76.592 48.2147 76.0787 48.4787 75.6533 48.816L74.4213 46.418C75.0667 45.9633 75.8367 45.6113 76.7313 45.362C77.6407 45.1127 78.572 44.988 79.5253 44.988ZM79.2613 54.866C79.848 54.866 80.3687 54.734 80.8233 54.47C81.278 54.1913 81.6007 53.788 81.7913 53.26V52.05H79.4373C78.0293 52.05 77.3253 52.512 77.3253 53.436C77.3253 53.876 77.494 54.228 77.8313 54.492C78.1833 54.7413 78.66 54.866 79.2613 54.866ZM97.2467 50.818C98.64 51.2873 99.3367 52.226 99.3367 53.634C99.3367 54.7047 98.9334 55.5333 98.1267 56.12C97.32 56.7067 96.1174 57 94.5187 57H88.2047V45.164H94.2547C95.736 45.164 96.8947 45.4353 97.7307 45.978C98.5667 46.506 98.9847 47.254 98.9847 48.222C98.9847 48.8087 98.8307 49.3293 98.5227 49.784C98.2294 50.224 97.804 50.5687 97.2467 50.818ZM91.3507 50.026H93.9467C95.1494 50.026 95.7507 49.6007 95.7507 48.75C95.7507 47.914 95.1494 47.496 93.9467 47.496H91.3507V50.026ZM94.2327 54.668C95.494 54.668 96.1247 54.2353 96.1247 53.37C96.1247 52.9153 95.978 52.5853 95.6847 52.38C95.3914 52.16 94.9294 52.05 94.2987 52.05H91.3507V54.668H94.2327ZM107.104 52.512H105.322V57H101.89V45.164H105.322V49.762H107.17L110.382 45.164H114.034L109.898 50.84L114.32 57H110.272L107.104 52.512ZM120.389 44.988C122.222 44.988 123.63 45.428 124.613 46.308C125.595 47.1733 126.087 48.486 126.087 50.246V57H122.875V55.526C122.229 56.626 121.027 57.176 119.267 57.176C118.357 57.176 117.565 57.022 116.891 56.714C116.231 56.406 115.725 55.9807 115.373 55.438C115.021 54.8953 114.845 54.2793 114.845 53.59C114.845 52.49 115.255 51.6247 116.077 50.994C116.913 50.3633 118.196 50.048 119.927 50.048H122.655C122.655 49.3 122.427 48.728 121.973 48.332C121.518 47.9213 120.836 47.716 119.927 47.716C119.296 47.716 118.673 47.8187 118.057 48.024C117.455 48.2147 116.942 48.4787 116.517 48.816L115.285 46.418C115.93 45.9633 116.7 45.6113 117.595 45.362C118.504 45.1127 119.435 44.988 120.389 44.988ZM120.125 54.866C120.711 54.866 121.232 54.734 121.687 54.47C122.141 54.1913 122.464 53.788 122.655 53.26V52.05H120.301C118.893 52.05 118.189 52.512 118.189 53.436C118.189 53.876 118.357 54.228 118.695 54.492C119.047 54.7413 119.523 54.866 120.125 54.866Z" fill="white"/>
</svg>
