<svg width="36" height="36" viewBox="0 0 36 36" fill="none" xmlns="http://www.w3.org/2000/svg">
<path d="M18 12C14.685 12 12 14.685 12 18C12 21.315 14.685 24 18 24C21.315 24 24 21.315 24 18C24 14.685 21.315 12 18 12ZM31.41 16.5C30.72 10.245 25.755 5.28 19.5 4.59V1.5H16.5V4.59C10.245 5.28 5.28 10.245 4.59 16.5H1.5V19.5H4.59C5.28 25.755 10.245 30.72 16.5 31.41V34.5H19.5V31.41C25.755 30.72 30.72 25.755 31.41 19.5H34.5V16.5H31.41ZM18 28.5C12.195 28.5 7.5 23.805 7.5 18C7.5 12.195 12.195 7.5 18 7.5C23.805 7.5 28.5 12.195 28.5 18C28.5 23.805 23.805 28.5 18 28.5Z" fill="#515151"/>
</svg>
