<svg width="36" height="36" viewBox="0 0 36 36" fill="none" xmlns="http://www.w3.org/2000/svg">
<path d="M18 33C25.455 33 31.5 26.955 31.5 19.5C24.045 19.5 18 25.545 18 33ZM8.4 15.375C8.4 17.445 10.08 19.125 12.15 19.125C12.945 19.125 13.665 18.885 14.28 18.465L14.25 18.75C14.25 20.82 15.93 22.5 18 22.5C20.07 22.5 21.75 20.82 21.75 18.75L21.72 18.465C22.32 18.885 23.055 19.125 23.85 19.125C25.92 19.125 27.6 17.445 27.6 15.375C27.6 13.875 26.715 12.6 25.455 12C26.715 11.4 27.6 10.125 27.6 8.625C27.6 6.555 25.92 4.875 23.85 4.875C23.055 4.875 22.335 5.115 21.72 5.535L21.75 5.25C21.75 3.18 20.07 1.5 18 1.5C15.93 1.5 14.25 3.18 14.25 5.25L14.28 5.535C13.68 5.115 12.945 4.875 12.15 4.875C10.08 4.875 8.4 6.555 8.4 8.625C8.4 10.125 9.285 11.4 10.545 12C9.285 12.6 8.4 13.875 8.4 15.375ZM18 8.25C20.07 8.25 21.75 9.93 21.75 12C21.75 14.07 20.07 15.75 18 15.75C15.93 15.75 14.25 14.07 14.25 12C14.25 9.93 15.93 8.25 18 8.25ZM4.5 19.5C4.5 26.955 10.545 33 18 33C18 25.545 11.955 19.5 4.5 19.5Z" fill="#515151"/>
</svg>
