<svg width="320" height="140" viewBox="0 0 320 140" fill="none" xmlns="http://www.w3.org/2000/svg">
<rect width="320" height="140" fill="url(#paint0_linear)"/>
<g clip-path="url(#clip0)">
<g style="mix-blend-mode:multiply">
<path d="M266.851 109.435C257.677 145.551 226.477 150.076 198.271 145.551C172.231 147.054 146.988 149.041 100.613 155.959C60.1133 162 54.3169 121.93 70.1132 109.394C98.7354 86.6791 122.509 112.532 148.447 69.5277C173.339 28.2572 277.533 67.3854 266.851 109.435Z" fill="#ECDCDC"/>
</g>
<path d="M279.703 90.5516C302.872 82.8805 319.752 95.0764 327.428 97.5366C330.249 98.4413 338.418 100.503 328.841 101.149C319.264 101.796 293.988 100.171 279.703 90.5516Z" fill="#679F70" stroke="#3A2C08" stroke-width="0.2"/>
<path d="M263.175 78.1664C305.635 73.6181 316.997 90.1932 324.673 92.6534C327.494 93.558 335.837 97.9786 326.26 98.6249C316.683 99.2712 277.459 87.7859 263.175 78.1664Z" fill="#1A1A1C" stroke="#3A2C08" stroke-width="0.2"/>
<path d="M225.916 84.567C224.313 81.7895 228.435 41.6416 230.626 46.449C232.818 51.2564 238.679 62.1974 238.679 62.1974V84.567C238.679 84.567 227.518 87.3445 225.916 84.567Z" fill="#CDA364" stroke="black" stroke-width="0.2"/>
<g style="mix-blend-mode:multiply">
<path d="M230.486 82.1976L231.191 50.4834C233.776 58.8232 239.765 79.1436 239.413 81.2579C239.131 82.9493 232.835 82.4325 230.486 82.1976Z" fill="#C4C4C4"/>
</g>
<path d="M208.385 39.5833C206.664 38.3663 214.048 34.8911 208.729 27.0161C209.712 24.8117 212.002 20.3981 213.298 20.3792C214.919 20.3556 215.543 28.2617 215.596 28.8072C215.649 29.3528 219.466 30.1374 218.987 26.6558C218.509 23.1743 221.571 21.694 223.81 21.8913C226.049 22.0887 225.439 26.9686 224.884 29.8778C224.439 32.2051 230.566 31.4088 233.825 30.9489C233.987 31.4247 234.959 32.9342 236.425 33.332C233.473 33.2511 230.506 37.8495 229.391 40.1588L225.921 36.5006C225.67 38.5411 223.916 42.0562 219.14 42.0228C215.319 41.9961 213.342 38.9717 212.83 37.4628C211.923 38.5753 209.762 40.557 208.385 39.5833Z" fill="#CDA364"/>
<path d="M225.921 36.5006C225.67 38.5411 223.916 42.0562 219.14 42.0228C215.319 41.9961 213.342 38.9717 212.83 37.4628C211.923 38.5753 209.762 40.557 208.385 39.5833C206.664 38.3663 214.048 34.8911 208.729 27.0161C209.712 24.8117 212.002 20.3981 213.298 20.3792C214.919 20.3556 215.543 28.2617 215.596 28.8072C215.649 29.3528 219.466 30.1374 218.987 26.6558C218.509 23.1743 221.571 21.694 223.81 21.8913C226.049 22.0887 225.439 26.9686 224.884 29.8778C224.439 32.2051 230.566 31.4088 233.825 30.9489C233.987 31.4247 234.959 32.9342 236.425 33.332C233.473 33.2511 230.506 37.8495 229.391 40.1588L225.921 36.5006ZM225.921 36.5006C226.122 34.8683 226.067 33.5357 226.016 33.0468" stroke="#3A2C08" stroke-width="0.2"/>
<g style="mix-blend-mode:multiply">
<path d="M223.725 26.6285C224.116 23.3219 221.078 24.6431 220.244 25.9816C219.983 17.8468 224.999 22.2006 225.26 25.3294C225.452 27.6339 223.831 30.8813 222.8 32.5486C222.726 32.7094 222.642 32.841 222.548 32.9429C222.627 32.8243 222.711 32.6923 222.8 32.5486C223.246 31.5846 223.377 29.5715 223.725 26.6285Z" fill="#C4C4C4"/>
</g>
<path d="M215.5 39.0007C216.494 38.977 218.347 38.7115 218.844 35.0866" stroke="#997948" stroke-linecap="round" stroke-linejoin="round"/>
<path d="M211.777 32.3603C211.777 32.3603 211.812 31.0998 212.801 31.2416" stroke="#3A2C08" stroke-width="0.4" stroke-linecap="round" stroke-linejoin="round"/>
<path d="M206.728 137.267C207.216 127.072 219.756 114.795 225.966 109.931C233.58 98.1607 277.602 107.179 272.141 116.404C267.772 123.784 250.599 135.952 242.559 141.113C230.412 144.079 206.24 147.462 206.728 137.267Z" fill="#7B6130" stroke="#3A2C08" stroke-width="0.2"/>
<g style="mix-blend-mode:multiply">
<path d="M257.407 126.29C239.359 129.671 222.45 123.104 216.252 119.398C216.616 118.878 221.215 114.24 223.468 111.986L230.425 114.717C238.227 119.242 257.168 119.723 265.663 119.398C263.843 124.079 259.4 125.943 257.407 126.29Z" fill="#C4C4C4"/>
</g>
<path d="M236.579 75.8838C232.555 68.6484 230.142 48.6215 229.439 39.5125C230.767 32.7756 234.654 32.4349 236.432 33.1067C240.757 37.1103 251.576 47.0462 260.249 54.7609C268.922 62.4755 276.72 86.3298 279.536 97.2926C275.578 90.8507 246.678 83.1977 232.723 80.1764C233.133 78.0765 235.464 76.4397 236.579 75.8838Z" fill="#121217" stroke="#3A2C08" stroke-width="0.2"/>
<path d="M208.839 27.9291C204.54 25.9512 205.158 17.1008 208.673 13.4203C212.188 9.73983 215.315 8.53974 218.169 8.49738C221.023 8.45503 228.113 10.6984 230.776 14.7088C233.438 18.7192 233.949 27.946 233.93 28.6165C233.912 29.287 234.574 30.0404 235.259 29.9788C235.944 29.9172 236.387 31.3356 235.673 30.9946C234.959 30.6536 234.639 30.6047 233.858 31.2663C233.076 31.9279 230.26 33.5382 227.88 33.8748C225.5 34.2114 225.272 32.668 224.349 32.6427C223.61 32.6225 223.365 33.7802 223.236 35.0892C223.066 34.9372 221.778 35.4434 222.019 33.7143C222.319 31.5529 223.717 28.8992 224.349 26.3853C224.98 23.8714 223.195 23.0189 221.464 23.1723C219.732 23.3258 220.339 27.5732 220.32 28.2437C220.302 28.9141 221.481 31.329 220.208 32.3388C219.19 33.1466 217.782 31.442 217.205 30.4887C217.363 31.0957 217.166 32.2072 215.12 31.7976C212.563 31.2856 213.182 23.3473 212.611 22.2066C212.154 21.2941 209.989 25.8674 208.839 27.9291Z" fill="#21052B" stroke="#3A2C08" stroke-width="0.2" stroke-linecap="round" stroke-linejoin="round"/>
<path d="M192.172 78.959C200.256 76.3086 222.979 78.6064 233.331 80.0866L273.982 85.9238C276.783 87.1342 281.694 92.7102 278.93 105.331C275.475 121.108 259.957 122.005 243.604 118.912C230.521 116.438 209.913 105.368 201.244 100.143C201.057 101.574 200.822 103.15 200.532 104.884C198.363 117.824 182.648 135.136 176.001 141C170.234 142.291 160.359 144.487 160.001 141C159.554 136.642 182.068 82.2722 192.172 78.959Z" fill="#96773C"/>
<path d="M201.013 87.3257C201.656 87.7251 202.45 90.8965 201.244 100.143M201.244 100.143C201.057 101.574 200.822 103.15 200.532 104.884C198.363 117.824 182.648 135.136 176.001 141C170.234 142.291 160.359 144.487 160.001 141C159.554 136.642 182.068 82.2722 192.172 78.959C200.256 76.3086 222.979 78.6064 233.331 80.0866L273.982 85.9238C276.783 87.1342 281.694 92.7102 278.93 105.331C275.475 121.108 259.957 122.005 243.604 118.912C230.521 116.438 209.913 105.368 201.244 100.143Z" stroke="#3A2C08" stroke-width="0.2"/>
<g style="mix-blend-mode:multiply">
<path d="M255.627 106.733C241.872 108.249 214.148 99.3993 202.005 94.7852C202.005 96.3496 201.709 99.0341 201.32 100.228C224.072 114.777 245.285 121.553 261.372 120.503C277.458 119.454 280.35 104.354 279.67 97.2623C277.387 99.788 269.383 105.218 255.627 106.733Z" fill="#C4C4C4"/>
</g>
<path d="M281.707 57.9939C277.002 58.4171 265.161 55.9302 259.828 54.6338C257.371 46.9284 262.366 41.7815 265.171 40.1713C271.968 42.5814 286.4 47.9307 289.747 50.0469C293.931 52.6922 294.816 53.9818 295.116 55.6005C295.417 57.2191 303.868 72.0595 304.939 74.9646C305.795 77.2887 309.632 88.3984 311.443 93.6627C310.574 94.5975 307.735 95.4936 303.333 91.6C298.93 87.7064 287.081 67.5736 281.707 57.9939Z" fill="#CDA364" stroke="#3A2C08" stroke-width="0.2"/>
<path d="M220.23 27.3524C219.431 28.1381 217.449 29.636 215.913 29.3428C213.994 28.9761 213.374 25.415 216.019 25.4875L217.14 25.5182C215.992 24.8138 213.659 22.8836 213.5 20.7976C213.303 18.1902 215.367 14.8821 218.701 20.9401C218.295 18.8055 217.968 14.5943 219.9 14.8267C221.712 15.0446 222.036 16.1559 221.97 16.7838C222.177 15.4884 222.845 13.1631 224.022 13.3694C225.54 13.6353 221.815 18.6026 222.365 19.8291C222.876 19.1851 223.994 18.0074 224.377 18.4486C224.855 19.0001 224.851 20.7944 223.794 21.7076C224.617 21.7002 225.851 22.2574 224.21 24.5453C222.963 23.0906 220.279 21.6115 220.23 27.3524Z" fill="#FFC122" stroke="#3A2C08" stroke-width="0.2"/>
<path d="M234.493 35.6386C238.45 31.0644 246.763 31.7937 250.819 32.5844C254.874 33.3751 269.465 38.1355 272.879 42.5104C270.145 44.8559 263.801 50.3299 262.021 57.6829C250.615 56.4393 229.547 41.3564 234.493 35.6386Z" fill="#121217" stroke="#3A2C08" stroke-width="0.2"/>
<g style="mix-blend-mode:multiply">
<path d="M274.447 43.4512L272.704 42.8662C268.391 44.9872 261.637 55.0786 262.858 55.3075C263.835 55.4907 263.66 55.6055 265.492 55.9108C265.003 51.5754 272.055 45.6647 274.447 43.4512Z" fill="#C4C4C4"/>
</g>
<g style="mix-blend-mode:multiply">
<path d="M257.8 62.0991C251.197 61.2736 240.359 48.441 235.766 42.1279C245.494 54.1549 257.456 56.8178 262.222 56.6458L265.317 61.5097C265.563 62.0501 264.403 62.9246 257.8 62.0991Z" fill="black"/>
</g>
<path d="M311.18 86.8929C308.998 85.3084 294.97 75.7289 288.229 71.1372C285.215 69.9122 287.263 67.7286 288.863 69.4258C290.463 71.1229 309.584 84.3693 311.515 85.2742C313.446 86.1791 330.666 96.2499 331.757 96.4882C332.849 96.7264 332.277 98.2376 331.524 98.3242C330.77 98.4107 313.908 88.8735 311.18 86.8929Z" fill="#5AC76C" stroke="#3A2C08" stroke-width="0.2"/>
<path d="M275.295 54.1836C277.841 67.4279 311.095 90.4952 321.015 94.831L326.087 95.9172C326.011 94.9622 312.395 82.3263 306.923 74.1919C301.45 66.0575 281.482 57.2194 275.295 54.1836Z" fill="#3F7648" stroke="#3A2C08" stroke-width="0.2"/>
<path d="M268.103 64.8614C268.454 65.0854 269.88 64.6573 270.549 64.4152C273.526 63.6969 277.061 66.4815 278.456 67.9636C276.977 70.1687 273.699 74.5103 272.417 74.2357C271.135 73.9612 268.356 72.6015 267.127 71.956C266.278 70.8433 269.406 68.6254 269.055 68.0621C268.705 67.4989 267.664 64.5815 268.103 64.8614Z" fill="#C983D5" stroke="#3A2C08" stroke-width="0.2"/>
<path d="M269.983 76.2639C269.651 75.8546 271.218 74.3448 272.042 73.6411C272.431 74.1206 275.859 75.4743 274.359 76.1074C272.859 76.7404 270.398 76.7754 269.983 76.2639Z" fill="#B98EC0" stroke="#3A2C08" stroke-width="0.2"/>
<path d="M270.751 62.7688C271.058 62.52 271.257 62.7827 271.318 62.9452C271.328 63.7421 273.559 65.384 274.674 66.1054C274.213 66.0376 273.15 65.9634 272.586 66.2087C271.88 66.5154 271.645 66.8125 270.421 66.4796C269.198 66.1468 270.367 63.0798 270.751 62.7688Z" fill="#AB60B8" stroke="#3A2C08" stroke-width="0.2"/>
<path d="M283.374 62.6063C279.328 59.8489 272.048 63.0327 271.328 63.0129C271.088 63.7102 272.281 65.0576 273.493 65.6846C274.139 66.0182 274.617 66.1456 275.092 66.2513C275.51 66.3443 275.927 66.4206 276.453 66.6057C277.579 67.0013 278.205 69.512 281.05 71.5324C283.895 73.5528 286.686 72.9002 288.551 70.4835C290.415 68.0668 287.42 65.3637 283.374 62.6063Z" fill="#E694F3" stroke="#3A2C08" stroke-width="0.2"/>
<path d="M272.886 70.0078C273.709 67.9973 276.361 67.7506 277.584 67.8785C280.986 68.5034 287.877 70.0041 288.224 71.008C288.657 72.2629 286.666 73.9497 285.38 75.065C284.094 76.1803 277.829 77.0972 275.948 76.5778C274.067 76.0584 272.807 75.7653 271.988 75.1151C271.169 74.4649 272.015 73.7067 272.367 73.421C272.72 73.1353 271.856 72.5208 272.886 70.0078Z" fill="#EACBEF" stroke="#3A2C08" stroke-width="0.2"/>
<path d="M280.964 75.3064C278.764 75.0763 275.21 76.0501 274.234 76.1527C273.326 76.2482 270.437 76.8955 270.08 76.3545C270.128 76.6642 270.467 77.3206 271.434 77.4687C272.644 77.6538 274.548 77.0632 275.722 76.7472C276.897 76.4313 279.142 77.895 281.005 77.7096C282.867 77.5242 286.573 75.1035 286.294 74.694C286.015 74.2845 283.163 75.5366 280.964 75.3064Z" fill="#C199C8"/>
<path d="M270.045 76.2116C270.041 76.2664 270.053 76.3138 270.08 76.3545M270.08 76.3545C270.437 76.8955 273.326 76.2482 274.234 76.1527C275.21 76.0501 278.764 75.0763 280.964 75.3064C283.163 75.5366 286.015 74.2845 286.294 74.694C286.573 75.1035 282.867 77.5242 281.005 77.7096C279.142 77.895 276.897 76.4313 275.722 76.7472C274.548 77.0632 272.644 77.6538 271.434 77.4687C270.467 77.3206 270.128 76.6642 270.08 76.3545Z" stroke="#3A2C08" stroke-width="0.2"/>
<path d="M327.415 96.8007C321.519 94.9322 304.765 88.7551 301.781 85.8878C298.655 84.9859 300.088 87.4081 301.968 88.7891C304.977 90.9996 325.54 97.3469 331.419 101.299C333.65 100.649 332.58 98.4373 327.415 96.8007Z" fill="#52AD60" stroke="#3A2C08" stroke-width="0.2"/>
<path d="M284.012 83.5154C284.099 83.9008 284.418 83.8173 284.566 83.7274C285.067 83.1077 287.836 83.1978 289.158 83.3204C288.754 83.0884 287.872 82.4891 287.581 81.9474C287.217 81.2703 287.215 80.8909 286.048 80.3957C284.881 79.9005 283.903 83.0337 284.012 83.5154Z" fill="#A9584D" stroke="#3A2C08" stroke-width="0.2"/>
<path d="M283.225 80.2338C283.639 80.275 284.495 81.4932 284.87 82.0971C286.765 84.5031 291.266 84.5022 293.279 84.2009C293.481 81.5534 293.591 76.1141 292.414 75.5369C291.236 74.9597 288.212 74.3087 286.846 74.0554C285.491 74.4045 286.577 78.0823 285.953 78.3079C285.329 78.5336 282.707 80.1822 283.225 80.2338Z" fill="#FA8989" stroke="#3A2C08" stroke-width="0.2"/>
<path d="M299.791 79.9835C297.921 78.8038 295.731 75.8403 295.027 75.1558C294.373 74.5192 292.504 72.2234 291.889 72.4277C292.118 72.2142 292.79 71.9077 293.642 72.3898C294.706 72.9925 295.838 74.6348 296.565 75.6093C297.292 76.5839 299.962 76.8229 301.31 78.1207C302.659 79.4185 304.073 83.6126 303.6 83.7618C303.128 83.911 301.662 81.1631 299.791 79.9835Z" fill="#E27E70"/>
<path d="M291.772 72.5179C291.803 72.4725 291.842 72.443 291.889 72.4277M291.889 72.4277C292.504 72.2235 294.373 74.5192 295.027 75.1558C295.731 75.8403 297.921 78.8038 299.791 79.9835C301.662 81.1631 303.128 83.911 303.6 83.7618C304.073 83.6126 302.659 79.4185 301.31 78.1207C299.962 76.8229 297.292 76.5839 296.565 75.6093C295.838 74.6348 294.706 72.9925 293.642 72.3898C292.79 71.9077 292.118 72.2142 291.889 72.4277Z" stroke="#3A2C08" stroke-width="0.2"/>
<path d="M293.828 91.452C288.943 91.1158 285.193 84.1112 284.615 83.6812C284.858 82.9851 286.629 82.664 287.969 82.9215C288.683 83.0585 289.137 83.2541 289.576 83.4652C289.962 83.6509 290.336 83.8485 290.865 84.0288C291.994 84.4142 294.039 82.829 297.524 83.0014C301.009 83.1738 302.799 85.4133 302.769 88.4655C302.739 91.5176 298.713 91.7883 293.828 91.452Z" fill="#E27E70" stroke="#3A2C08" stroke-width="0.2"/>
<path d="M291.753 72.4368C291.239 72.5532 291.536 74.7083 291.748 75.7714C292.35 75.6351 295.881 76.692 295.094 75.2668C294.307 73.8415 292.395 72.2914 291.753 72.4368Z" fill="#A9584D" stroke="#3A2C08" stroke-width="0.2"/>
<path d="M290.165 79.1481C289.568 81.237 291.499 83.0714 292.54 83.7275C295.599 85.3411 301.942 88.4246 302.835 87.8501C303.952 87.1321 303.431 84.5752 303.11 82.9034C302.79 81.2315 298.435 76.6357 296.635 75.8802C294.836 75.1247 293.665 74.5758 292.619 74.5801C291.574 74.5843 291.769 75.7031 291.869 76.1455C291.969 76.588 290.911 76.537 290.165 79.1481Z" fill="#EB5642" stroke="#3A2C08" stroke-width="0.2"/>
<path d="M304.129 70.5381C312.95 82.6559 322.44 96.5317 328.08 98.3023C333.284 101.006 333.768 101.1 332.867 95.7102C331.139 85.3749 309.245 73.5071 304.129 70.5381Z" fill="#1A1A1C" stroke="#3A2C08" stroke-width="0.2"/>
<path d="M323.121 95.3256C317.498 93.3127 312.549 86.7957 310.777 83.7888C310.645 82.1109 309.33 81.9842 309.085 82.7709C308.84 83.5576 312.793 88.9253 314.117 91.1233C315.442 93.3213 322.665 96.0235 327.492 98.2046C331.611 100.066 332.298 98.229 331.839 97.8621C330.137 96.5015 328.743 97.3385 323.121 95.3256Z" fill="#42924F" stroke="#3A2C08" stroke-width="0.2"/>
<path d="M304.614 80.8497C302.19 77.9215 305.302 71.3023 307.161 68.3586C308.887 67.549 308.448 69.2491 311.245 72.4653C314.041 75.6815 315.159 81.9518 313.249 83.7429C311.339 85.534 307.645 84.5099 304.614 80.8497Z" fill="#7ECEDF" stroke="#3A2C08" stroke-width="0.2"/>
<path d="M299.407 72.17C299.561 71.9957 300.128 71.8636 301.166 72.7295C301.215 72.7704 301.264 72.8171 301.313 72.8692C301.05 72.522 300.674 71.7033 301.279 71.2056C302.035 70.5835 302.685 71.3702 303.627 70.5275C304.568 69.6847 305.664 70.2362 305.849 71.0549C306.035 71.8736 304.368 77.4687 303.749 78.7336C303.659 80.3454 307.916 84.7966 307.109 85.3004C306.302 85.8042 306.06 85.4732 303.761 84.2486C301.921 83.2689 300.092 75.788 299.407 72.17Z" fill="#62A9B9"/>
<path d="M303.749 78.7336C303.659 80.3454 307.916 84.7966 307.109 85.3004C306.302 85.8042 306.06 85.4732 303.761 84.2486C301.921 83.2689 300.092 75.788 299.407 72.17C299.561 71.9957 300.128 71.8636 301.166 72.7295C301.215 72.7704 301.264 72.8171 301.313 72.8692M303.749 78.7336C303.34 77.1704 302.307 73.9213 301.313 72.8692M303.749 78.7336C304.368 77.4687 306.035 71.8736 305.849 71.0549C305.664 70.2362 304.568 69.6847 303.627 70.5275C302.685 71.3702 302.035 70.5835 301.279 71.2056C300.674 71.7033 301.05 72.522 301.313 72.8692" stroke="#3A2C08" stroke-width="0.2"/>
<path d="M303.143 71.4537C304.435 71.4792 305.033 72.0782 305.171 72.3745C307.44 76.2343 311.802 84.1001 311.1 84.6847C310.222 85.4156 307.276 85.4255 305.759 84.1576C304.241 82.8897 301.017 73.3567 300.897 72.917C300.777 72.4773 301.528 71.4219 303.143 71.4537Z" fill="#A5E1EF" stroke="#3A2C08" stroke-width="0.2"/>
<path d="M76.8028 100.161C63.9285 104.509 50.2197 127.854 44.9746 138.983C46.5243 139.566 50.0886 140.691 51.9482 140.536C54.2727 140.342 67.1471 129.666 67.3259 123.26C67.5047 116.854 85.0281 98.0254 82.8824 98.0254C81.1658 98.0254 78.1141 99.4489 76.8028 100.161Z" fill="#1A1A1C" stroke="#3A2C08" stroke-width="0.2"/>
<path d="M25.7359 41.0168C6.75066 49.6073 -8.04638 73.1639 -13.8037 89.648C-15.1813 93.4779 -14.0055 95.8983 -13.2454 96.6297C-9.41649 100.924 -16.3148 107.734 -5.26835 101.44C8.53975 93.5722 20.3599 73.689 24.7109 63.7972C35.7586 38.6804 58.9203 45.5102 64.4097 46.2C57.6523 43.3667 40.3243 34.4157 25.7359 41.0168Z" fill="#1A1A1C" stroke="#3A2C08" stroke-width="0.2"/>
<path d="M28.3262 136.978C37.5284 159.02 22.3234 131.008 20.4683 143.804C19.8886 143.469 11.1745 165.051 7.55703 143.804C3.93959 122.558 -12.8842 115.107 -21.0003 100.633C11.4512 108.421 20.4682 118.157 28.3262 136.978Z" fill="#1A1A1C" stroke="#3A2C08" stroke-width="0.2"/>
<path d="M43.1443 58.2257C32.1992 68.7985 23.2793 102.237 20.1875 117.634L22.9701 116.753C25.2117 110.628 29.7412 98.0498 29.9267 96.7407C30.1586 95.1045 36.7674 79.4971 37.9268 76.3505C39.0863 73.2038 46.8545 55.4567 46.1588 55.3308C45.6023 55.2301 43.9173 57.2188 43.1443 58.2257Z" fill="#89CB90" stroke="#3A2C08" stroke-width="0.2"/>
<path d="M37.2313 81.8869C31.1095 90.2444 23.1635 113.815 19.9557 124.555C16.6166 134.884 18.9509 139.851 20.5354 141.044C25.0186 128.206 33.9385 102.051 33.753 100.137C33.5211 97.746 36.7675 88.1802 37.2313 85.537C37.6951 82.8938 44.8836 71.44 37.2313 81.8869Z" fill="#1A1A1C" stroke="#3A2C08" stroke-width="0.2"/>
<path d="M44.8862 45.3857C43.1239 46.4933 38.0456 52.8957 35.7267 55.9584C28.2135 65.9038 21.2647 82.8477 17.6395 99.7598C14.3277 115.21 14.0507 130.654 13.3496 140.289C15.939 141.086 20.9323 142.202 20.1903 140.289C19.2627 137.897 23.7845 107.815 25.8715 96.6132C27.9585 85.4111 43.9587 49.4134 44.3065 48.2806C44.5248 47.5695 45.5655 46.065 45.7652 45.3857C45.8837 44.9828 45.7063 44.8702 44.8862 45.3857Z" fill="#3C9E7B"/>
<path d="M45.7652 45.3857C45.8837 44.9828 45.7063 44.8702 44.8862 45.3857C43.1239 46.4933 38.0456 52.8957 35.7267 55.9584C28.2135 65.9038 21.2647 82.8477 17.6395 99.7598C14.3277 115.21 14.0507 130.654 13.3496 140.289C15.939 141.086 20.9323 142.202 20.1903 140.289C19.2627 137.897 23.7845 107.815 25.8715 96.6132C27.9585 85.4111 43.9587 49.4134 44.3065 48.2806C44.5248 47.5695 45.5655 46.065 45.7652 45.3857ZM45.7652 45.3857C41.0386 51.0353 30.3644 66.8109 25.481 84.7167C20.5976 102.622 20.2115 110.473 20.6289 112.16" stroke="#3A2C08" stroke-width="0.2"/>
<g style="mix-blend-mode:multiply">
<path d="M25.396 88.8981C27.5146 79.0596 40.3667 54.5401 45.6623 45.5371C45.0149 46.655 37.248 65.2495 37.0715 66.0145C36.895 66.7794 32.4825 77.0753 31.9523 78.3123L31.9522 78.3126C31.4226 79.5483 27.1273 91.6111 26.7152 93.0821C26.3855 94.259 25.0872 101.34 24.4792 104.733C23.1454 114.344 20.4544 133.872 20.3602 135.096C20.2661 136.32 19.8502 139.764 19.6541 141.333H14.9473C17.2421 126.603 23.2775 98.7366 25.396 88.8981Z" fill="#C4C4C4"/>
</g>
<path d="M36.024 90.8965C27.3282 105.623 21.1121 126.985 22.1553 133.278C24.7063 131.768 40.9381 107.853 41.4019 104.706C41.7729 102.189 47.3537 93.5882 50.0977 89.6024C50.4068 87.2948 50.4919 82.2517 48.3585 80.5399C45.6918 78.4002 44.7197 76.1702 36.024 90.8965Z" fill="#BECD7F" stroke="#3A2C08" stroke-width="0.2"/>
<g style="mix-blend-mode:multiply">
<path d="M43.906 97.2482C47.367 87.642 44.0674 81.6976 40.8125 83.3883C41.7365 82.2565 42.8584 80.4564 44.3462 79.5773C46.206 78.4783 47.9215 80.1989 48.6823 81.9319C49.291 83.3183 49.9786 86.5955 50.2463 88.0608L43.906 97.2482Z" fill="#C9D3A0"/>
</g>
<path d="M49.058 83.0204C47.4812 78.2878 44.8454 79.0346 43.7246 79.9996C46.5073 75.9719 49.8696 77.4822 52.7682 77.9857C55.6668 78.4892 56.8814 81.8825 58.3335 85.7894C59.1144 87.8905 60.0787 92.6317 58.3335 97.1114C57.7446 98.623 55.86 101.349 54.9711 102.146C50.2174 99.1253 51.029 88.9361 49.058 83.0204Z" fill="#CEDE8C"/>
<path d="M54.9711 102.146C50.2174 99.1253 51.029 88.9361 49.058 83.0204C47.4812 78.2878 44.8454 79.0346 43.7246 79.9996C46.5073 75.9719 49.8696 77.4822 52.7682 77.9857C55.6668 78.4892 56.8814 81.8825 58.3335 85.7894C59.1144 87.8905 60.0787 92.6317 58.3335 97.1114C57.7446 98.623 55.86 101.349 54.9711 102.146ZM54.9711 102.146C55.7054 100.328 56.7335 95.324 54.9711 89.8557C53.2088 84.3875 51.1171 81.0065 50.2916 79.9996" stroke="#3A2C08" stroke-width="0.2"/>
<g style="mix-blend-mode:multiply">
<path d="M55.569 101.393C59.6027 88.2524 53.509 78.8628 51.3887 77.7155C52.6633 77.4068 54.7881 78.6123 55.903 80.1521C57.2966 82.0768 58.9739 87.7423 59.1565 89.2249C59.308 90.4554 59.4117 94.1868 58.4997 96.7038C58.1792 97.5883 56.7528 100.358 55.569 101.393Z" fill="#CCCDC9"/>
</g>
<path d="M60.4208 75.7196C56.0149 78.3627 41.3017 100.93 39.5625 105.084C42.1906 106.217 47.9221 107.136 48.0148 104.417C48.1308 101.019 52.0728 94.2219 54.5076 88.432C56.9425 82.6422 64.8266 73.0764 60.4208 75.7196Z" fill="#3C9E7B" stroke="#3A2C08" stroke-width="0.2"/>
<path d="M61.7354 75.2676C58.3445 79.2502 51.851 87.8431 46.8633 101.284" stroke="#3A2C08" stroke-width="0.2" stroke-linecap="round" stroke-linejoin="round"/>
<path d="M16.1291 93.8444C17.2421 95.1534 17.9069 97.5784 18.1001 98.6273C18.8421 106.884 16.3223 130.346 14.9696 141.044C12.9213 128.457 8.19852 101.975 5.69414 96.7392C3.18976 91.5032 -2.46055 91.7047 -4.97266 92.4599C3.83905 89.8167 14.7377 92.2081 16.1291 93.8444Z" fill="#A0D1C0" stroke="#3A2C08" stroke-width="0.2"/>
<g style="mix-blend-mode:multiply">
<path d="M14.4806 110.05C11.9952 96.5474 4.23919 92.1336 0.115161 91.6983C-0.794592 91.6155 -2.03339 91.9032 -2.53906 92.0574C-1.65432 92.1142 0.415042 92.3343 1.61456 92.7603C3.11396 93.2929 5.40765 96.2348 5.95753 96.9909C6.50741 97.747 9.05059 109.226 9.463 110.05C9.87541 110.875 13.3809 132.802 13.6558 134.108C13.8758 135.152 14.6639 138.942 15.0305 140.706L16.288 130.247C16.5629 127.429 16.7059 122.14 14.4806 110.05Z" fill="#C4C4C4"/>
</g>
<path d="M1.03536 118.344C-8.0546 116.532 -12.5687 132.022 -13.6895 139.993C-11.3706 141.252 -6.59372 143.014 -6.03719 139.993C-5.48066 136.973 0.842124 127.239 3.93395 122.75L1.03536 118.344Z" fill="#78B77F" stroke="#3A2C08" stroke-width="0.2"/>
<g style="mix-blend-mode:multiply">
<path d="M0.321916 128.184C0.418334 122.981 -3.06346 120.369 -4.81641 119.713C-4.01325 118.91 -1.88593 118.388 -0.922666 118.228C-0.574743 118.361 0.257596 118.958 0.803568 120.275C1.34954 121.592 1.99453 124.035 2.24879 125.092L0.321916 128.184Z" fill="#C4C4C4"/>
</g>
<path d="M3.35405 140.245C2.51926 138.936 4.47083 122.983 -0.978516 118.2C0.4253 117.706 1.92059 117.739 3.35405 118.114C6.30108 118.884 8.98673 121.095 10.0788 123.127C11.3773 125.544 14.1754 136.595 14.9484 140.875L3.35405 140.245Z" fill="#89CB90"/>
<path d="M3.35405 118.114C6.30108 118.884 8.98673 121.095 10.0788 123.127C11.3773 125.544 14.1754 136.595 14.9484 140.875L3.35405 140.245C2.51926 138.936 4.47083 122.983 -0.978516 118.2C0.4253 117.706 1.92059 117.739 3.35405 118.114ZM3.35405 118.114C4.56157 119.159 7.04107 122.989 7.29892 129.951" stroke="#3A2C08" stroke-width="0.2"/>
<path d="M51.5678 124.875C44.704 123.969 37.0363 135.196 34.4082 140.86C36.6498 142.916 41.9677 145.643 45.3069 140.105C48.6461 134.567 57.8288 129.574 62.0027 127.77C61.1525 127.225 58.4317 125.781 51.5678 124.875Z" fill="#407B4D" stroke="#3A2C08" stroke-width="0.2"/>
<g style="mix-blend-mode:multiply">
<path d="M53.0798 128.537C49.3346 128.227 46.728 127.382 45.5938 126.742C46.1505 126.206 47.7714 125.097 49.8007 124.948C52.3372 124.763 54.9357 125.753 56.0493 126.742C56.9402 127.534 59.5963 128.062 60.8131 128.227L56.6382 130.372C56.4732 129.898 55.5055 128.737 53.0798 128.537Z" fill="#C4C4C4"/>
</g>
<path d="M64.0089 123.456C57.7943 121.543 51.8015 123.953 50.4102 124.75C54.8061 124.75 55.5301 127.486 61.1929 128.4C66.8869 129.319 67.9374 129.278 72.1394 133.116C71.3278 131.48 70.2235 125.37 64.0089 123.456Z" fill="#549863"/>
<path d="M72.1394 133.116C71.3278 131.48 70.2235 125.37 64.0089 123.456C57.7943 121.543 51.8015 123.953 50.4102 124.75C54.8061 124.75 55.5301 127.486 61.1929 128.4C66.8869 129.319 67.9374 129.278 72.1394 133.116ZM72.1394 133.116C70.3679 130.98 66.2617 126.431 64.0089 125.323C61.7561 124.215 58.121 124.169 56.585 124.285" stroke="#3A2C08" stroke-width="0.2"/>
<g style="mix-blend-mode:multiply">
<path d="M55.8784 124.176C54.4864 123.811 52.4811 124.024 51.6524 124.176L50.4512 124.714C51.335 124.852 53.2849 125.203 54.0141 125.501C54.9255 125.874 57.0799 127.2 58.0742 127.78C59.0685 128.36 65.9457 129.313 66.8572 129.396C67.5863 129.462 70.5306 131.771 71.9116 132.917C71.5801 131.674 67.4786 128.236 64.91 127.78C62.3414 127.324 57.6184 124.631 55.8784 124.176Z" fill="#C4C4C4"/>
</g>
<path d="M-9.44922 53.6935C-15.6573 59.0468 -17.1366 97.2689 -17.1132 115.019L-15.954 114.997C-17.0309 82.2863 -11.5456 59.3977 -11.2167 58.3844C-10.8878 57.3711 -9.36904 57.9721 -8.54579 58.5861C-7.72254 59.2002 -2.39007 59.1002 -3.35519 57.1041C-4.32031 55.108 -8.11276 56.9415 -8.79886 57.4579C-9.48497 57.9743 -10.4383 56.6074 -9.65749 54.9562C-8.87669 53.305 -3.94623 50.3172 -1.42187 48.8851C1.1025 47.4531 2.75372 48.9328 2.76787 49.6878C2.78202 50.4429 2.4767 52.7146 3.90551 54.702C5.33432 56.6895 8.08346 54.8755 7.68852 52.3652C7.29359 49.8548 3.67639 48.6637 3.43511 48.1647C3.19383 47.6656 4.46899 47.6418 6.09662 47.863C7.72427 48.0843 16.7568 47.4115 17.6937 47.8975C18.6305 48.3835 19.8345 50.7528 21.0197 52.1153C22.2049 53.4779 24.561 55.448 25.0035 54.3067C25.446 53.1654 24.0054 50.5487 22.9432 49.5615C21.881 48.5743 18.4957 47.3789 18.8434 47.3724C19.1912 47.3659 23.1279 47.0403 25.0986 47.0034C27.0693 46.9664 33.9822 44.5709 34.6777 44.5579C35.3733 44.5448 36.6744 45.9052 38.089 47.1376C39.5037 48.37 41.9452 48.7019 42.3971 48.064C42.849 47.4261 42.4752 46.0483 40.5969 44.8246C39.0942 43.8457 36.5531 43.5576 35.4703 43.5359C36.852 43.0065 39.9253 39.9276 41.281 38.0138C42.6367 36.1001 43.6163 32.6828 43.9452 31.6695C44.2741 30.6562 47.0563 30.6041 49.4836 30.1809C51.9109 29.7578 54.4093 26.9414 51.0311 26.1235C47.6528 25.3056 45.0597 29.2567 45.0526 28.8792C45.0469 28.5772 45.1796 27.4081 45.2467 26.8614C45.6458 25.4691 46.6716 22.4538 47.582 21.5303C48.72 20.376 49.5056 18.9765 50.433 18.9591C51.3603 18.9417 51.5106 19.5684 51.3768 19.8226C50.8137 20.7144 50.8491 22.6021 51.7671 22.0813C52.685 21.5606 52.4249 20.0548 52.2972 19.4277C52.1694 18.8007 51.332 17.4316 48.4717 19.4994C46.1834 21.1537 45.2027 24.5123 44.9984 25.9848C45.1618 22.331 43.7047 18.8334 43.7 18.5817C43.6953 18.33 44.6014 17.1801 45.0604 16.9197C45.5194 16.6593 45.9548 15.1405 44.5637 15.1666C43.1726 15.1926 43.3451 18.2107 42.8579 16.961C42.3706 15.7112 40.2392 13.3593 39.4253 13.2486C38.6115 13.138 38.6493 15.1515 40.2863 15.8762C41.9234 16.6008 42.5242 17.7225 43.3616 19.0916C43.8368 19.8685 44.1783 21.7061 44.33 23.4796C43.5916 22.5283 41.9511 20.5532 41.2963 20.2633C40.4777 19.901 39.2144 20.5541 39.3468 21.4329C39.4792 22.3116 43.2333 22.8707 44.3536 24.738C44.4022 25.6138 44.4272 26.4475 44.44 27.1282C44.4684 28.646 42.9488 33.2835 41.1415 36.7576C40.7997 36.8885 40.7938 36.7667 40.6106 32.9869L40.6047 32.8651C40.4157 28.9661 36.3584 29.0421 36.053 31.3138C35.7477 33.5856 39.5897 34.3948 39.2561 35.1564C38.9892 35.7656 39.8009 37.4121 40.2401 38.1592C39.4971 39.402 38.662 40.3245 37.9735 40.9712C35.8441 42.9714 30.5482 44.802 27.1607 45.6549C27.0435 45.5902 26.8773 45.3839 27.1498 45.0766C27.4905 44.6926 30.5662 41.7395 29.9394 39.2335C29.3126 36.7275 27.2614 38.6542 27.4009 39.9105C27.5404 41.1668 27.4551 42.8049 27.1239 43.6923C26.8589 44.4023 25.4977 45.6111 24.8502 46.1268C23.198 46.329 16.6695 46.739 11.5293 46.9227C11.1852 47.1247 10.541 47.4021 10.717 46.8953C10.9371 46.2617 12.8795 44.7146 14.0175 43.5603C15.1555 42.406 16.8165 38.2205 14.614 38.2618C12.4114 38.3031 11.9167 42.8443 11.4837 44.489C11.1373 45.8047 10.056 46.6843 9.55861 46.9596C7.83638 47.0064 6.73301 47.0318 5.84827 46.9865C2.24994 46.8022 -1.68909 47.0019 -9.44922 53.6935Z" fill="#4D8F6C" stroke="#3A2C08" stroke-width="0.2"/>
<path d="M56.5906 113.258C53.7152 112.754 49.1316 110.531 47.1992 109.482C47.1992 107.266 50.6775 107.468 52.4167 107.845C53.808 108.643 57.008 110.413 58.6776 111.118C60.3472 111.823 63.5472 111.412 64.9386 111.118V112.251C63.6632 114.265 60.1849 113.887 56.5906 113.258Z" fill="#A0A2C1" stroke="#3A2C08" stroke-width="0.2"/>
<path d="M33.9043 108.194C28.1072 113.481 21.8462 130.724 19.5273 141.171L32.0492 140.541C31.3536 137.017 35.0638 128.207 39.1218 118.137C42.3682 110.082 49.7499 108.152 53.035 108.194C51.3345 107.397 47.5161 105.677 45.8465 105.173C43.7595 104.544 40.1375 102.509 33.9043 108.194Z" fill="#8D8FB3"/>
<path d="M53.035 108.194C51.3345 107.397 47.5161 105.677 45.8465 105.173C43.7595 104.544 40.1375 102.509 33.9043 108.194C28.1072 113.481 21.8462 130.724 19.5273 141.171L32.0492 140.541C31.3536 137.017 35.0638 128.207 39.1218 118.137C42.3682 110.082 49.7499 108.152 53.035 108.194ZM53.035 108.194C48.5802 107.808 37.9782 109.931 31.2079 121.51" stroke="#3A2C08" stroke-width="0.2"/>
<g style="mix-blend-mode:multiply">
<path d="M29.8472 124.425C35.6858 110.802 46.7579 108.065 51.8035 108.276C50.9847 108.269 48.7529 108.724 46.4613 109.884C44.1751 111.042 42.7027 112.194 40.6592 115.055C39.7582 116.316 33.7708 131.707 32.6402 134.426C31.9076 136.189 32.1296 139.412 32.0996 140.733L20.5577 141.181C20.5279 141.186 20.5009 141.187 20.4766 141.184L20.5577 141.181C21.3714 141.034 24.2144 137.568 29.8472 124.425Z" fill="#C4C4C4"/>
</g>
<path d="M42.4812 123.95C40.7884 121.465 28.5761 137.02 25.291 141.174L29.051 140.979C30.2568 137.052 37.44 127.441 43.5247 123.95H42.4812Z" fill="#F2C69C" stroke="#3A2C08" stroke-width="0.2"/>
<path d="M42.2151 122.542C41.3648 121.661 39.9194 119.37 40.9397 117.256C42.2151 114.613 43.4905 118.263 43.3746 121.787C44.0702 120.612 45.8094 118.162 47.2007 117.759C46.3891 118.766 44.7891 120.881 44.8818 121.284C46.2732 120.277 49.6123 118.338 51.8384 118.641C54.6211 119.018 51.6066 121.787 48.4761 122.542C47.4405 122.792 46.6996 122.907 46.1814 122.944C48.5194 123.328 51.8683 124.222 52.1863 125.689C52.65 127.829 49.6355 128.962 46.3891 126.067C46.118 125.825 45.8881 125.609 45.6934 125.416C46.2345 126.388 47.2239 128.634 46.8529 129.843C46.3891 131.353 41.9831 131.856 42.2151 123.927C41.674 124.263 40.3137 124.858 39.2006 124.556C37.8093 124.179 36.6499 123.297 37.1136 122.542C37.5774 121.787 39.5483 120.151 42.2151 122.542Z" fill="#EB5642"/>
<path d="M44.65 123.927C44.65 124.133 44.8059 124.536 45.6934 125.416M45.6934 125.416C45.8881 125.609 46.118 125.825 46.3891 126.067C49.6355 128.962 52.65 127.829 52.1863 125.689C51.8153 123.977 47.3166 123.046 45.1137 122.794C45.191 122.962 45.9717 123.146 48.4761 122.542C51.6066 121.787 54.6211 119.018 51.8384 118.641C49.6123 118.338 46.2732 120.277 44.8818 121.284C44.7891 120.881 46.3891 118.766 47.2007 117.759C45.8094 118.162 44.0702 120.612 43.3746 121.787C43.4905 118.263 42.2151 114.613 40.9397 117.256C39.9194 119.37 41.3648 121.661 42.2151 122.542C39.5483 120.151 37.5774 121.787 37.1136 122.542C36.6499 123.297 37.8093 124.179 39.2006 124.556C40.3137 124.858 41.674 124.263 42.2151 123.927C41.9831 131.856 46.3891 131.353 46.8529 129.843C47.2239 128.634 46.2345 126.388 45.6934 125.416Z" stroke="#3A2C08" stroke-width="0.2"/>
<g style="mix-blend-mode:multiply">
<path d="M49.2379 125.014C47.7566 125.305 45.535 124.496 44.6094 124.056C45.1386 124.982 47.4195 127.097 48.3784 127.395C49.3372 127.693 51.3871 128.023 52.0484 126.767C52.5774 125.762 51.5635 124.717 50.9904 124.32C51.0234 124.43 50.7192 124.723 49.2379 125.014Z" fill="#C4C4C4"/>
</g>
<g style="mix-blend-mode:multiply">
<path d="M46.7222 128.233C44.8766 127.829 42.9613 125.81 42.2344 124.852C42.3081 125.557 42.5186 127.222 42.7715 128.233C43.0875 129.498 44.4465 130.951 45.9636 130.667C47.1772 130.439 46.975 128.95 46.7222 128.233Z" fill="#C4C4C4"/>
</g>
<path d="M269.454 120.93C262.741 125.864 264.113 144.121 265.638 152.634L277.807 155.141L269.454 120.93Z" fill="#5F572D" stroke="#3A2C08" stroke-width="0.2"/>
<path d="M273.996 105.168C264.803 122.639 272.109 145.726 276.911 155.087L282.126 156.161C280.269 151.982 276.088 141.118 274.217 131.102C272.346 121.086 279.817 101.838 283.786 93.4652C284.352 90.087 283.188 87.6983 273.996 105.168Z" fill="#1A1A1C" stroke="#3A2C08" stroke-width="0.2"/>
<path d="M255.693 118.612C251.908 123.786 252.028 145.816 252.174 146.364C252.213 147.407 252.029 148.836 251.932 149.42L266.906 152.765C265.097 146.05 261.44 131.549 261.286 127.272C261.094 121.925 265.464 110.14 264.094 110.505C262.725 110.87 259.477 113.437 255.693 118.612Z" fill="#1A1A1C" stroke="#3A2C08" stroke-width="0.2"/>
<path d="M307.732 131.149C308.112 129.933 318.171 110.648 324.595 108.995C328.617 107.96 330.904 108.084 331.954 108.403C332.163 108.501 332.363 108.598 332.553 108.693C332.442 108.595 332.246 108.491 331.954 108.403C327.159 106.154 317.449 103.26 312.543 107.805C307.423 112.549 304.66 118.003 303.918 120.137L307.732 131.149Z" fill="#0E4B37" stroke="#3A2C08" stroke-width="0.2"/>
<path d="M289.518 103.966C282.487 112.458 282.187 128.861 282.916 136.001L291.277 130.605C292.978 124.656 296.383 112.111 296.398 109.526C296.413 106.94 299.019 97.8552 300.32 93.636C299.649 93.5409 296.55 95.4738 289.518 103.966Z" fill="#1A1A1C" stroke="#3A2C08" stroke-width="0.2"/>
<path d="M296.093 109.722C293.805 113.289 283.218 147.116 281.536 152.767C283.886 158.946 293.186 159.63 293.391 158.637L297.004 141.105C302.652 110.556 315.203 98.6448 318.283 95.0078C320.746 92.0983 328.443 87.9977 331.984 86.3111C331.241 85.7266 327.81 84.9589 320.023 86.5644C310.289 88.5712 298.954 105.263 296.093 109.722Z" fill="#1D6D52"/>
<path d="M331.984 86.3111C331.241 85.7266 327.81 84.959 320.023 86.5644C310.289 88.5712 298.954 105.263 296.093 109.722C293.805 113.289 283.218 147.116 281.536 152.767C283.886 158.946 293.186 159.63 293.391 158.637C293.595 157.644 296.586 143.133 297.004 141.105C302.652 110.556 315.203 98.6448 318.283 95.0078C320.746 92.0983 328.443 87.9977 331.984 86.3111ZM331.984 86.3111C325.732 87.8585 306.47 98.195 300.93 109.532" stroke="#3A2C08" stroke-width="0.2"/>
<path d="M309.565 128.549C300.735 131.7 295.617 144.099 294.226 149.594L299.527 157.158L305.593 161.644C304.323 153.357 308.229 144.454 310.327 138.673C313.08 131.086 324.916 126.923 323.327 126.467C321.738 126.01 320.603 124.611 309.565 128.549Z" fill="#3FAA86"/>
<path d="M323.327 126.467C321.738 126.01 320.603 124.611 309.565 128.549C300.735 131.7 295.617 144.099 294.226 149.594L299.527 157.158L305.593 161.644C304.323 153.357 308.229 144.454 310.327 138.673C313.08 131.086 324.916 126.923 323.327 126.467ZM323.327 126.467C319.088 127.145 309.458 130.194 304.851 136.967C300.244 143.74 299.113 150.28 299.123 152.704" stroke="#3A2C08" stroke-width="0.2"/>
<g style="mix-blend-mode:multiply">
<path d="M312.602 134.838C307.071 140.803 304.907 152.003 305.559 161.611L301.615 159.55C301.183 158.952 300.543 156 301.437 148.972C302.554 140.187 312.205 131.287 314.53 130.102C316.39 129.154 321.065 127.197 323.586 126.63C322.743 128.216 318.692 128.27 312.602 134.838Z" fill="#C4C4C4"/>
</g>
<path d="M243.528 115.457C234.489 123.639 239.47 140.38 243.09 147.728L250.541 149.263L257.991 150.799C255.184 145.992 250.244 135.378 248.478 127.868C246.711 120.359 253.659 111.936 257.911 109.102C256.883 107.811 252.566 107.275 243.528 115.457Z" fill="#1D6D52"/>
<path d="M250.541 149.263L257.991 150.799C255.184 145.992 250.244 135.378 248.478 127.868C246.711 120.359 253.659 111.936 257.911 109.102C256.883 107.811 252.566 107.275 243.528 115.457C234.489 123.639 239.47 140.38 243.09 147.728L250.541 149.263ZM250.541 149.263C247.534 145.778 241.556 136.049 243.861 124.865" stroke="#3A2C08" stroke-width="0.2"/>
<g style="mix-blend-mode:multiply">
<path d="M245.776 120.835C242.448 130.964 249.328 144.063 252.531 149.636L257.947 150.752C256.235 147.123 252.503 139.146 251.269 136.268C249.726 132.67 248.02 126.91 248.437 123.483C248.732 121.055 250.929 116.887 252.124 114.91C253.08 113.328 256.364 110.418 257.887 109.16L257.885 109.005C257.654 108.607 256.826 108.335 256.442 108.249C254.172 108.813 248.792 111.653 245.776 120.835Z" fill="#C4C4C4"/>
</g>
<path d="M255.901 112.571C250.847 123.024 258.296 143.386 262.629 152.089L268.465 153.291L274.301 154.494C273.667 153.803 271.622 150.475 268.696 144.073C265.77 137.671 258.947 120.404 255.901 112.571Z" fill="#B7AD72"/>
<path d="M268.465 153.291L274.301 154.494C273.667 153.803 271.622 150.475 268.696 144.073C265.77 137.671 258.947 120.404 255.901 112.571C250.847 123.024 258.296 143.386 262.629 152.089L268.465 153.291ZM268.465 153.291C266.571 150.33 262.041 141.311 259.248 130.304" stroke="#3A2C08" stroke-width="0.2"/>
<g style="mix-blend-mode:multiply">
<path d="M255.932 112.78C255.444 112.301 255.126 114.524 255.014 115.512C254.638 122.244 261.116 126.535 264.183 133.285C264.27 133.487 264.358 133.688 264.445 133.889C264.361 133.685 264.274 133.484 264.183 133.285C260.039 123.692 256.649 113.485 255.932 112.78Z" fill="#C4C4C4"/>
</g>
<path d="M231.358 134.307C231.571 135.283 236.916 143.348 239.562 147.259L231.864 145.672C228.654 141.775 231.092 133.087 231.358 134.307Z" fill="#1A1A1C" stroke="#3A2C08" stroke-width="0.2"/>
<path d="M234.852 128.037C233.59 134.162 237.232 143.284 239.49 146.986L241.973 147.498C234.937 138.928 236.131 121.829 234.852 128.037Z" fill="#3C9E7B" stroke="#3A2C08" stroke-width="0.2"/>
<path d="M221.498 136.935C221.331 138.247 223.076 142.049 223.969 143.787L217.264 142.405C216.454 140.685 221.707 135.295 221.498 136.935Z" fill="#009261"/>
<path d="M221.498 136.935C221.331 138.247 223.076 142.049 223.969 143.787L217.264 142.405C216.454 140.685 221.707 135.295 221.498 136.935ZM221.498 136.935C220.848 137.425 219.768 138.613 220.013 140.043C220.259 141.473 220.563 142.212 220.764 142.328" stroke="#3A2C08" stroke-width="0.2"/>
<g style="mix-blend-mode:multiply">
<path d="M220.797 143.14L223.13 143.621L224.054 143.811C223.547 142.782 222.461 140.566 222.169 139.936C221.876 139.307 221.647 137.757 221.569 137.06C221.236 137.229 220.469 137.857 220.064 139.021C219.658 140.185 220.384 142.252 220.797 143.14Z" fill="#C4C4C4"/>
</g>
<path d="M306.719 104.662C305.305 104.992 303.848 106.659 303.296 107.452L302.507 106.254L303.14 104.442C304.813 103.234 308.486 104.25 306.719 104.662Z" fill="#669460" stroke="#3A2C08" stroke-width="0.2"/>
<path d="M280.167 95.9551C271.127 111.178 274.23 141.719 276.912 155.087L282.562 156.251L288.211 157.415C285.806 152.13 281.398 137.087 283.014 119.194C285.035 96.8289 297.776 82.1095 299.307 79.7067C300.838 77.3039 306.233 73.1086 304.542 73.1485C302.851 73.1883 291.466 76.9259 280.167 95.9551Z" fill="#B7AD72"/>
<path d="M282.562 156.251L288.211 157.415C285.806 152.13 281.398 137.087 283.014 119.194C285.035 96.8289 297.776 82.1095 299.307 79.7067C300.838 77.3039 306.233 73.1086 304.542 73.1485C302.851 73.1883 291.466 76.9259 280.167 95.9551C271.127 111.178 274.23 141.719 276.912 155.087L282.562 156.251ZM282.562 156.251C279.548 143.674 275.012 115.306 280.978 102.446C286.944 89.5847 290.532 84.7295 291.58 83.9096" stroke="#3A2C08" stroke-width="0.2"/>
<g style="mix-blend-mode:multiply">
<path d="M282.899 132.65C282.814 132.148 282.731 131.606 282.65 131.03C282.357 126.776 283.297 117.376 283.637 114.479C284.033 111.109 286.859 102.066 288.111 98.407C289.363 94.7484 294.426 86.9298 296.524 83.5121C298.623 80.0944 303.644 75.0552 303.844 74.7313C304.043 74.4073 305.112 73.7314 304.929 73.3286C304.783 73.0065 303.841 73.112 303.389 73.205C301.125 73.9027 294.782 78.3802 287.513 90.7083C280.658 102.335 281.303 121.472 282.65 131.03C282.697 131.724 282.778 132.281 282.899 132.65Z" fill="#C4C4C4"/>
</g>
<path d="M282.152 139.079C281.438 145.559 288.626 154.565 292.309 158.258C293.826 158.571 295.698 158.951 297.558 159.321C302.69 160.34 307.725 161.275 304.927 160.47C300.161 159.1 291.849 139.136 290.823 135.947C289.797 132.759 290.975 127.047 288.659 127.605C286.343 128.163 283.045 130.979 282.152 139.079Z" fill="#89C880"/>
<path d="M287.783 140.239C288.066 143.512 290.417 151.909 297.558 159.321M297.558 159.321C302.69 160.34 307.725 161.275 304.927 160.47C300.161 159.1 291.849 139.136 290.823 135.947C289.797 132.759 290.975 127.047 288.659 127.605C286.343 128.163 283.045 130.979 282.152 139.079C281.438 145.559 288.626 154.565 292.309 158.258C293.826 158.571 295.698 158.951 297.558 159.321Z" stroke="#3A2C08" stroke-width="0.2"/>
<path d="M296.337 111.713C290.449 128.725 302.633 151.929 312.228 162.105L317.325 163.374L324.295 165.109C317.345 163.03 308.352 131.923 305.743 123.23C303.893 117.07 302.803 108.601 303.391 104.494C298.914 104.607 297.007 109.09 296.337 111.713Z" fill="#76AE6E"/>
<path d="M303.391 104.494C298.914 104.607 297.007 109.09 296.337 111.713C290.449 128.725 302.633 151.929 312.228 162.105L317.325 163.374M303.391 104.494C302.803 108.601 303.893 117.07 305.743 123.23C308.352 131.923 317.345 163.03 324.295 165.109L317.325 163.374M303.391 104.494C301.736 107.024 299.46 110.502 298.798 116.795C297.389 130.184 305.369 147.973 309.6 153.817C312.984 158.492 316.16 162.136 317.325 163.374" stroke="#3A2C08" stroke-width="0.2"/>
<g style="mix-blend-mode:multiply">
<path d="M307.136 137.652C311.027 150.045 317.293 160.357 319.939 163.964L324.082 164.818C322.15 164.42 320.535 161.074 318.645 158.411C316.756 155.747 310.107 137.419 307.053 128.278C304.609 120.966 303.372 109.566 303.059 104.78C301.591 112.534 302.271 122.16 307.136 137.652Z" fill="#C4C4C4"/>
</g>
<g style="mix-blend-mode:multiply">
<path d="M287.303 133.841C287.373 138.614 295.068 155.83 299.915 159.75L305.465 160.893C299.194 158.303 290.851 136.3 290.715 135.43C290.578 134.559 290.301 130.028 290.165 129.158C290.056 128.462 289.673 127.969 289.495 127.809C288.711 128.121 287.234 129.068 287.303 133.841Z" fill="#C4C4C4"/>
</g>
<path d="M101.199 114.566C100.656 107.526 102.567 101.262 104.755 99.3691C107.238 102.444 111.373 109.809 110.095 109.525C108.499 109.17 104.256 113.49 103.014 115.796C101.772 118.102 101.695 120.995 101.199 114.566Z" fill="#6C6E89" stroke="#3A2C08" stroke-width="0.2" stroke-linecap="round" stroke-linejoin="round"/>
<g style="mix-blend-mode:multiply">
<path d="M105.205 112.807C106.358 109.781 103.908 105.417 102.527 103.696C102.527 102.975 103.448 101.194 103.909 100.394C105.782 100.922 108.676 106.754 109.857 109.475C108.952 109.337 106.466 111.666 105.205 112.807Z" fill="#C4C4C4"/>
</g>
<path d="M132.475 120.523C128.075 119.955 121.535 134.361 118.814 141.635H132.475L136.733 134.716C137.147 130.222 136.875 121.091 132.475 120.523Z" fill="#9CAA65" stroke="#3A2C08" stroke-width="0.2" stroke-linecap="round" stroke-linejoin="round"/>
<path d="M146.137 122.119C144.186 117.861 137.373 115.36 131.721 120.394C134.027 120.394 135.67 123.184 136.557 126.2C137.267 128.612 136.853 138.086 136.557 142.521H146.137C146.788 137.14 147.699 125.526 146.137 122.119Z" fill="#BECD7F" stroke="#3A2C08" stroke-width="0.2" stroke-linecap="round" stroke-linejoin="round"/>
<g style="mix-blend-mode:multiply">
<path d="M139.415 125.816C139.334 120.813 135.218 118.553 134.895 118.23C134.008 118.23 132.474 119.441 131.99 120.329C133.362 120.329 135.622 123.234 136.671 125.816C137.51 127.882 137.021 137.975 136.671 142.763H138.446C138.85 140.504 139.495 130.82 139.415 125.816Z" fill="#C4C4C4"/>
</g>
<g style="mix-blend-mode:multiply">
<path d="M133.785 138.863C135.039 133.17 129.483 127.851 126.48 125.908C128.874 121.927 131.669 118.264 134.845 122.285C137.386 125.501 137.068 132.497 136.559 135.244L133.785 138.863Z" fill="#C4C4C4"/>
</g>
<path d="M141.088 123.439C143.619 125.824 142.739 132.28 141.674 142.52" stroke="#3A2C08" stroke-width="0.2" stroke-linecap="round" stroke-linejoin="round"/>
<path d="M139.369 100.12C121.202 101.397 100.22 129.63 92 143.586C92 146.957 107.612 150.682 106.725 143.586C105.838 136.489 124.466 115.2 129.789 108.104C134.046 102.426 137.949 100.416 139.369 100.12Z" fill="#1A1A1C" stroke="#3A2C08" stroke-width="0.2" stroke-linecap="round" stroke-linejoin="round"/>
<g style="mix-blend-mode:multiply">
<path d="M107.591 139.298C107.919 135.91 105.633 128.962 104.449 125.911C105.901 123.475 110.762 118.385 113.011 116.145C113.745 120.144 114.773 128.562 113.011 130.231C111.249 131.901 108.664 137.149 107.591 139.564C107.455 140.887 107.263 142.685 107.591 139.298Z" fill="#232323"/>
</g>
<path d="M121.628 102.782C124.041 107.608 126.481 133.146 127.723 144.5H108.216C108.512 143.731 114.052 138.544 113.112 124.426C112.11 109.372 106.61 103.708 103.887 100.298C105.201 97.9583 106.817 96.6249 109.744 96.1585C113.886 95.4983 118.612 96.7503 121.628 102.782Z" fill="#8D8FB2" stroke="#3A2C08" stroke-width="0.2" stroke-linecap="round" stroke-linejoin="round"/>
<path d="M108.328 96.541C111.626 97.2664 120.299 101.194 120.299 122.857" stroke="#3A2C08" stroke-width="0.2" stroke-linecap="round" stroke-linejoin="round"/>
<g style="mix-blend-mode:multiply">
<path d="M117.495 119.245C116.186 108.767 111.204 99.4508 106.842 97.4062C106.049 97.7116 104.27 98.9553 103.592 100.256C106.956 103.081 112.482 112.415 113.106 124.031C113.618 133.575 110.719 140.955 108.292 144.465H117.495C118.849 140.203 118.856 130.126 117.495 119.245Z" fill="#C4C4C4"/>
</g>
</g>
<path d="M23.876 50.796H21.412V57H17.87V41.6H21.412V47.826H23.964L28.012 41.6H31.774L26.736 49.036L31.928 57H27.88L23.876 50.796ZM38.039 44.988C39.8723 44.988 41.2803 45.428 42.263 46.308C43.2457 47.1733 43.737 48.486 43.737 50.246V57H40.525V55.526C39.8797 56.626 38.677 57.176 36.917 57.176C36.0077 57.176 35.2157 57.022 34.541 56.714C33.881 56.406 33.375 55.9807 33.023 55.438C32.671 54.8953 32.495 54.2793 32.495 53.59C32.495 52.49 32.9057 51.6247 33.727 50.994C34.563 50.3633 35.8463 50.048 37.577 50.048H40.305C40.305 49.3 40.0777 48.728 39.623 48.332C39.1683 47.9213 38.4863 47.716 37.577 47.716C36.9463 47.716 36.323 47.8187 35.707 48.024C35.1057 48.2147 34.5923 48.4787 34.167 48.816L32.935 46.418C33.5803 45.9633 34.3503 45.6113 35.245 45.362C36.1543 45.1127 37.0857 44.988 38.039 44.988ZM37.775 54.866C38.3617 54.866 38.8823 54.734 39.337 54.47C39.7917 54.1913 40.1143 53.788 40.305 53.26V52.05H37.951C36.543 52.05 35.839 52.512 35.839 53.436C35.839 53.876 36.0077 54.228 36.345 54.492C36.697 54.7413 37.1737 54.866 37.775 54.866ZM56.6624 47.98H52.6584V57H49.2484V47.98H45.2444V45.164H56.6624V47.98ZM63.0898 44.988C64.9231 44.988 66.3311 45.428 67.3138 46.308C68.2965 47.1733 68.7878 48.486 68.7878 50.246V57H65.5758V55.526C64.9305 56.626 63.7278 57.176 61.9678 57.176C61.0585 57.176 60.2665 57.022 59.5918 56.714C58.9318 56.406 58.4258 55.9807 58.0738 55.438C57.7218 54.8953 57.5458 54.2793 57.5458 53.59C57.5458 52.49 57.9565 51.6247 58.7778 50.994C59.6138 50.3633 60.8971 50.048 62.6278 50.048H65.3558C65.3558 49.3 65.1285 48.728 64.6738 48.332C64.2191 47.9213 63.5371 47.716 62.6278 47.716C61.9971 47.716 61.3738 47.8187 60.7578 48.024C60.1565 48.2147 59.6431 48.4787 59.2178 48.816L57.9858 46.418C58.6311 45.9633 59.4011 45.6113 60.2958 45.362C61.2051 45.1127 62.1365 44.988 63.0898 44.988ZM62.8258 54.866C63.4125 54.866 63.9331 54.734 64.3878 54.47C64.8425 54.1913 65.1651 53.788 65.3558 53.26V52.05H63.0018C61.5938 52.05 60.8898 52.512 60.8898 53.436C60.8898 53.876 61.0585 54.228 61.3958 54.492C61.7478 54.7413 62.2245 54.866 62.8258 54.866ZM83.1211 45.164V57H79.6891V47.98H75.9491L75.8391 50.07C75.7805 51.6247 75.6338 52.9153 75.3991 53.942C75.1645 54.9687 74.7831 55.7753 74.2551 56.362C73.7271 56.9487 72.9938 57.242 72.0551 57.242C71.5565 57.242 70.9625 57.154 70.2731 56.978L70.4491 54.162C70.6838 54.1913 70.8525 54.206 70.9551 54.206C71.4685 54.206 71.8498 54.0227 72.0991 53.656C72.3631 53.2747 72.5391 52.798 72.6271 52.226C72.7151 51.6393 72.7811 50.8693 72.8251 49.916L73.0011 45.164H83.1211ZM91.9655 57.176C90.7188 57.176 89.5968 56.9193 88.5995 56.406C87.6168 55.878 86.8468 55.152 86.2895 54.228C85.7322 53.304 85.4535 52.2553 85.4535 51.082C85.4535 49.9087 85.7322 48.86 86.2895 47.936C86.8468 47.012 87.6168 46.2933 88.5995 45.78C89.5968 45.252 90.7188 44.988 91.9655 44.988C93.2122 44.988 94.3268 45.252 95.3095 45.78C96.2922 46.2933 97.0622 47.012 97.6195 47.936C98.1768 48.86 98.4555 49.9087 98.4555 51.082C98.4555 52.2553 98.1768 53.304 97.6195 54.228C97.0622 55.152 96.2922 55.878 95.3095 56.406C94.3268 56.9193 93.2122 57.176 91.9655 57.176ZM91.9655 54.36C92.8455 54.36 93.5642 54.0667 94.1215 53.48C94.6935 52.8787 94.9795 52.0793 94.9795 51.082C94.9795 50.0847 94.6935 49.2927 94.1215 48.706C93.5642 48.1047 92.8455 47.804 91.9655 47.804C91.0855 47.804 90.3595 48.1047 89.7875 48.706C89.2155 49.2927 88.9295 50.0847 88.9295 51.082C88.9295 52.0793 89.2155 52.8787 89.7875 53.48C90.3595 54.0667 91.0855 54.36 91.9655 54.36ZM110.298 47.98H104.226V57H100.816V45.164H110.298V47.98Z" fill="white"/>
<defs>
<linearGradient id="paint0_linear" x1="160" y1="0" x2="160" y2="140" gradientUnits="userSpaceOnUse">
<stop stop-color="#F2887B"/>
<stop offset="1" stop-color="#EB7869"/>
</linearGradient>
<clipPath id="clip0">
<rect width="320" height="140" fill="white"/>
</clipPath>
</defs>
</svg>
