<svg width="287" height="148" viewBox="0 0 287 148" fill="none" xmlns="http://www.w3.org/2000/svg">
<g clip-path="url(#clip0)">
<path d="M227.046 10.6994C230.007 4.71263 237.502 -0.980759 240.879 -3.0791C239.879 -3.20867 238.641 -3.36227 237.236 -3.52837C235.608 -3.72079 233.755 -3.93 231.788 -4.13812C230.781 -4.24453 229.745 -4.35066 228.693 -4.45412C225.573 -4.76098 222.316 -5.0443 219.305 -5.24167C217.259 -5.37577 215.305 -5.77777 213.627 -5.50538C202.768 -3.74279 204.639 -3.61112 196.149 0.825331C187.659 5.26178 187.981 7.53142 184.236 10.2344C182.133 11.7521 178.708 13.5305 174.811 15.9562C171.768 17.8505 168.437 20.1396 165.223 23.0077C161.711 26.1423 157.352 32.329 155.043 35.6764C154.653 36.1803 154.282 36.7165 153.935 37.2872C153.633 37.7225 153.554 37.7924 153.579 37.7022C153.648 37.4489 154.534 35.9316 153.579 37.7022C153.494 37.8598 153.394 38.0433 153.278 38.2561C150.994 42.443 150.231 44.9256 149.279 47.0011C148.385 48.9497 147.326 50.5393 144.687 52.8434C139.917 57.0082 140.908 61.3545 142.053 68.5938C142.216 69.6251 142.382 70.7152 142.535 71.8717C143.516 79.2919 148.81 86.6602 151.334 89.4169C151.254 86.9357 150.979 79.3804 150.522 69.0079C149.951 56.0424 155.431 56.9271 164.025 49.7072C172.619 42.4873 176.637 41.3883 188.468 37.1529C200.3 32.9175 206.593 23.8793 210.311 22.9008C214.029 21.9224 223.344 18.183 227.046 10.6994Z" fill="#51938F"/>
<path d="M240.879 -3.0791C237.502 -0.98076 230.007 4.71263 227.046 10.6994C223.344 18.183 214.029 21.9224 210.311 22.9008C206.593 23.8793 200.3 32.9175 188.468 37.1529C176.637 41.3883 172.619 42.4873 164.025 49.7072C155.431 56.9271 149.951 56.0424 150.522 69.0079C150.979 79.3804 151.254 86.9357 151.334 89.4169M240.879 -3.0791C237.371 -1.03615 229.497 3.7638 226.061 6.62003C221.766 10.1903 217.501 15.1881 212.391 16.3936C207.28 17.599 201.895 19.9045 199.545 22.5858C197.194 25.267 195.949 28.9768 190.416 31.0589C184.883 33.1409 177.026 34.7489 171.863 38.0419C166.701 41.3348 162.697 43.3506 158.894 46.9407C155.09 50.5308 150.932 52.6345 149.282 58.8351C147.633 65.0357 148.418 71.4654 148.381 75.7098C148.35 79.1053 150.337 86.2626 151.334 89.4169M240.879 -3.0791C239.879 -3.20867 238.641 -3.36227 237.236 -3.52837M151.334 89.4169C148.81 86.6602 143.516 79.2919 142.535 71.8717C142.382 70.7152 142.216 69.6251 142.053 68.5938M237.236 -3.52837C234.688 -2.79004 228.507 -0.204633 224.168 4.23035C218.745 9.77409 220.835 10.9912 213.386 13.2791C205.938 15.5669 203.03 10.9947 197.439 18.7869C191.848 26.5792 188.676 28.0257 184.343 29.118C180.01 30.2104 181.586 28.7918 175.099 32.0734C168.612 35.355 171.384 34.8679 165.796 38.8487C160.207 42.8296 148.851 52.1068 146.94 58.0866C145.411 62.8705 143.045 67.0847 142.053 68.5938M237.236 -3.52837C235.608 -3.72079 233.755 -3.93 231.788 -4.13812M142.053 68.5938C140.908 61.3545 139.917 57.0082 144.687 52.8434C147.326 50.5393 148.385 48.9497 149.279 47.0011M228.693 -4.45412C225.573 -2.76086 218.678 1.48697 216.054 4.93228C212.774 9.23891 212.024 6.57246 202.17 9.69466C192.317 12.8169 197.688 10.7337 189.519 17.5968C181.35 24.46 180.952 25.7058 174.233 26.9911C168.858 28.0194 158.962 29.0273 153.935 37.2872M228.693 -4.45412C225.573 -4.76098 222.316 -5.0443 219.305 -5.24167M228.693 -4.45412C229.745 -4.35066 230.781 -4.24453 231.788 -4.13812M153.935 37.2872C152.708 39.0544 155.163 34.8003 153.278 38.2561C150.994 42.443 150.231 44.9256 149.279 47.0011M153.935 37.2872C155.589 34.9032 161.014 26.764 165.223 23.0077C168.437 20.1396 171.768 17.8505 174.811 15.9562M219.305 -5.24167C217.259 -5.37577 215.305 -5.77777 213.627 -5.50538C202.768 -3.74279 204.639 -3.61111 196.149 0.825331C187.659 5.26178 187.981 7.53142 184.236 10.2344C182.133 11.7521 178.708 13.5305 174.811 15.9562M219.305 -5.24167C217.393 -2.80164 211.886 2.66677 205.158 5.02013C196.748 7.96182 199.273 4.37491 193.697 8.49711C188.122 12.6193 191.292 12.0491 186.444 15.2731C182.565 17.8523 177.073 16.8032 174.811 15.9562M149.279 47.0011C150.856 46.1863 154.834 43.7486 158.125 40.5163C162.238 36.476 159.69 37.052 164.81 34.1402C169.931 31.2284 169.168 31.4136 173.238 30.1056C177.308 28.7976 179.464 27.427 184.012 25.9974C188.561 24.5678 190.261 20.8224 192.443 19.3551C194.625 17.8878 197.74 12.2605 203.088 11.4982C208.436 10.736 216.144 9.08038 219.146 5.92062C221.548 3.39282 228.574 -1.83846 231.788 -4.13812" stroke="black" stroke-width="0.3"/>
<g style="mix-blend-mode:multiply">
<path d="M181.622 16.8643C180.348 17.1594 176.557 16.3401 174.821 15.8936C177.105 14.5287 181.898 11.6601 182.802 11.1045C183.933 10.4099 184.901 9.94624 185.806 8.94954C186.712 7.95284 187.974 6.76108 188.752 5.80118C189.531 4.84127 190.769 3.91952 192.077 3.18478C193.446 2.41507 195.516 1.08891 197.313 0.155866C199.109 -0.777176 201.196 -1.65667 202.096 -2.51399C202.996 -3.3713 204.342 -3.16378 206.567 -4.3588C208.793 -5.55381 210.752 -4.97271 211.714 -5.29706C212.676 -5.62142 214.73 -5.6647 215.942 -5.60213C216.912 -5.55208 218.56 -5.33426 219.264 -5.23161C214.073 2.37751 202.772 5.69338 201.543 6.04893C200.315 6.40447 197.721 6.32839 196.849 6.48885C195.977 6.64932 194.388 7.98154 193.874 8.26803C193.36 8.55452 191.1 10.2647 189.678 12.6505C188.256 15.0364 183.214 16.4954 181.622 16.8643Z" fill="#A7D0CE"/>
</g>
<g style="mix-blend-mode:multiply">
<path d="M163.964 29.3472C153.343 33.0868 150.039 43.6843 148.851 48.2419C148.486 49.4469 147.089 50.6202 146.436 51.0562C138.438 56.475 141.143 62.0816 141.268 63.8864C141.368 65.3303 147.833 75.8848 151.052 80.9816C150.017 78.1526 148.432 71.228 150.373 66.1611C151.404 63.4727 150.029 62.1136 153.762 57.4319C157.442 54.2379 161.634 52.3262 163.751 50.0167C166.885 46.5971 176.174 41.8013 177.506 41.1633C178.837 40.5253 187.096 37.6301 188.985 37.0474C190.874 36.4647 195.119 33.7926 197.121 32.8523C199.123 31.912 203.364 28.2301 203.724 27.7287C203.864 27.534 206.023 25.0948 208.942 23.548C212.035 21.909 215.958 21.1298 218.416 19.8677C219.8 18.7453 222.775 16.3178 223.603 15.5872C224.638 14.674 228.302 9.24598 228.617 7.96364C228.868 6.93776 231.273 4.82076 232.444 3.89049C234.523 1.92187 233.11 -1.71413 222.455 9.74655C219.112 9.17556 219.947 2.92247 214.602 9.05338C200.704 24.9928 198.623 10.5426 195.826 11.9401C193.127 13.2891 191.376 16.5003 183.186 22.845C175.699 28.6446 175.919 25.1383 163.964 29.3472Z" fill="#85CCC8"/>
</g>
<g style="mix-blend-mode:multiply">
<path d="M191.964 31.2213C164.885 36.5455 151.83 53.0519 150.106 56.3325L158.855 53.6292C160.795 51.9887 165.93 48.3683 167.553 46.8708C169.581 44.9989 178.484 40.8458 180.362 40.0688C182.24 39.2918 189.384 36.9325 191.827 35.8751C194.271 34.8176 198.07 32.4333 199.522 31.1953C200.684 30.2049 202.891 28.5071 203.85 27.782C205.586 26.837 206.633 24.8834 209.759 23.2238C215.228 21.4027 221.818 17.5792 222.532 16.6521C223.806 14.9985 227.175 10.6945 227.664 9.55993C228.153 8.42538 230.036 6.65417 231.101 4.88572C232.166 3.11726 235.665 0.878201 237.302 -0.529958C238.939 -1.93812 241.427 -3.087 240.936 -3.09646C240.543 -3.10403 235.002 -3.92254 232.28 -4.33085C215.049 -0.712873 213.864 26.9155 191.964 31.2213Z" fill="#C4C4C4"/>
</g>
<path d="M181.349 0.281594C185.216 8.84188 197.857 22.9564 205.33 31.0435C207.128 33.0094 208.554 32.0378 209.043 31.3062C208.969 30.3116 206.489 26.1412 197.163 17.4173C187.836 8.69336 182.093 -6.26195 180.388 -12.6491C180.015 -13.878 178.851 -16.1509 177.182 -15.4114C175.097 -14.4871 178.596 -5.81068 181.349 0.281594Z" fill="#5C956D" stroke="black" stroke-width="0.3"/>
<g style="mix-blend-mode:multiply">
<path d="M197.335 20.6277C185.755 8.57073 179.702 -8.46447 178.123 -15.4749C177.153 -15.7866 176.586 -14.8278 176.522 -13.3581C176.458 -11.8884 178.836 -5.37959 180.137 -2.19351C181.437 0.992572 183.097 3.50565 184.183 5.41734C185.268 7.32904 188.897 11.9442 189.837 13.0338C190.589 13.9055 194.338 18.5131 196.118 20.7079L202.451 27.8381L204.794 30.5451L206.053 30.822L197.335 20.6277Z" fill="#C4C4C4"/>
</g>
<path d="M193.883 36.81C195.116 29.3941 203.289 29.828 207.22 30.972C208.433 30.7281 205.52 28.7903 203.796 28.3798C202.073 27.9693 194.549 25.0663 196.919 18.6583C199.29 12.2504 207.384 4.18621 223.036 6.71613C238.688 9.24605 240.707 30.1849 240.606 31.9534C240.44 34.8893 241.866 37.1684 242.385 38.2839C242.029 37.977 240.289 38.655 236.565 40.7167C231.909 43.2937 226.096 52.0347 213.919 54.8629C201.743 57.691 192.34 46.08 193.883 36.81Z" fill="#FF878E" stroke="black" stroke-width="0.3"/>
<g style="mix-blend-mode:multiply">
<path d="M214.628 21.2624C209.747 20.6166 203.873 14.7755 201.546 11.9357L204.88 8.28436L233.331 12.3067L236.448 17.094C236.541 17.5641 235.998 18.9481 233.075 20.7233C229.422 22.9423 220.729 22.0696 214.628 21.2624Z" fill="#C4C4C4"/>
</g>
<path d="M196.367 36.9092C197.085 34.0833 201.471 31.7384 204.332 32.8236C206.165 33.5191 206.586 37.744 202.487 38.5519C199.209 39.1982 197.799 43.5941 198.007 46.1231C196.82 45.0454 195.469 40.4416 196.367 36.9092Z" fill="#FDB8BC"/>
<g style="mix-blend-mode:multiply">
<path d="M196.543 42.9966C196.53 34.668 202.488 33.6519 205.412 34.1209C205.343 33.2634 204.146 31.8722 201.793 32.0865C200.081 32.2425 196.991 33.354 195.883 36.2891C195.103 38.3568 196.049 41.8381 196.543 42.9966Z" fill="#EFCED0"/>
</g>
<path d="M204.253 48.8877C201.107 43.8872 204.709 38.449 208.359 36.9134C210.96 35.8189 216.271 38.8863 211.235 42.1262C207.869 44.2918 209.197 50.3019 209.964 52.9381C208.299 52.9051 206.94 53.16 204.253 48.8877Z" fill="#FDB8BC"/>
<g style="mix-blend-mode:multiply">
<path d="M202.013 42.8663C203.371 37.5029 207.983 35.5552 210.398 36.8498C202.501 40.3364 204.44 50.045 209.897 52.9389C206.094 54.3907 200.744 47.8755 202.013 42.8663Z" fill="#EFCED0"/>
</g>
<path d="M211.08 12.0518C205.299 13.271 203.184 18.2565 204.065 22.1162C204.693 24.8675 210.282 27.3924 209.977 21.4121C209.772 17.4149 215.941 14.4419 218.53 13.5274C217.533 12.1945 215.804 11.0552 211.08 12.0518Z" fill="#FDB8BC"/>
<path d="M225.037 15.089C218.906 15.5751 214.205 19.9897 213.958 23.9411C213.783 26.7577 218.43 30.76 219.828 24.9375C220.762 21.0456 230.177 18.4096 232.919 18.2645C232.339 16.7039 229.943 14.7001 225.037 15.089Z" fill="#FDB8BC"/>
<path d="M217.028 46.3026C214.288 43.12 214.537 39.4694 217.263 36.5985C219.206 34.5521 225.301 35.2302 221.989 40.2187C219.775 43.5531 222.748 46.9668 224.508 49.0735C222.724 49.5751 220.321 50.1276 217.028 46.3026Z" fill="#FDB8BC"/>
<path d="M231.316 26.3233C227.336 24.9812 224.047 26.5844 222.412 30.19C221.247 32.7601 224.167 38.1533 227.544 33.2082C229.801 29.9029 234.082 31.3736 236.696 32.2128C236.49 30.3708 236.098 27.9365 231.316 26.3233Z" fill="#FDB8BC"/>
<g style="mix-blend-mode:multiply">
<path d="M222.236 49.4959C216.074 45.7288 216.661 39.7883 218.065 37.1809C217.233 36.9639 215.098 37.2603 214.527 39.5523C214.111 41.2212 214.486 44.9077 216.505 46.9882C218.044 48.5741 220.979 49.5815 222.236 49.4959Z" fill="#EFCED0"/>
</g>
<g style="mix-blend-mode:multiply">
<path d="M236.906 31.8482C227.102 22.8512 223.055 31.9411 223.602 34.8516C222.743 34.8058 220.799 33.8758 220.95 31.5186C221.061 29.8022 223.284 26.2668 226.039 25.3618C229.764 24.1378 236.571 25.7427 236.906 31.8482Z" fill="#EFCED0"/>
</g>
<g style="mix-blend-mode:multiply">
<path d="M204.081 33.2646C203.993 32.1171 204.883 30.8705 205.339 30.3907L232.61 43.5905L230.552 45.4436C229.252 45.5795 225.321 45.3259 219.994 43.2243C213.336 40.5974 204.191 34.6988 204.081 33.2646Z" fill="#E4A7A7"/>
</g>
<g style="mix-blend-mode:multiply">
<path d="M216.893 17.0484C212.707 20.6667 212.554 25.0464 215.588 27.0956C215.165 18.4741 227.858 14.3883 232.891 17.9687C230.662 11.7039 220.802 13.6691 216.893 17.0484Z" fill="#EFCED0"/>
</g>
<g style="mix-blend-mode:multiply">
<path d="M204.366 23.1031C204.353 14.7745 215.663 13.0844 218.587 13.5534C218.518 12.6959 216.613 10.7452 214.262 10.5223C208.603 9.986 205.058 13.5647 203.706 16.3956C202.347 19.2395 203.872 21.9446 204.366 23.1031Z" fill="#EFCED0"/>
</g>
<g style="mix-blend-mode:multiply">
<path d="M222.882 18.0631C214.427 16.9562 205.824 24.1242 202.58 27.8466C199.51 27.8267 197.591 24.4792 197.04 23.6904C196.49 22.9017 194.825 13.6884 207.398 8.39687C220.542 2.86504 228 8.4011 230.786 9.99846C233.572 11.5958 237.903 18.5936 238.72 21.7484C239.374 24.2723 240.871 28.7763 240.889 34.5666C238.554 30.5196 231.337 19.1699 222.882 18.0631Z" fill="#ECCCCC"/>
</g>
<path d="M225.604 42.1548C220.167 40.2199 209.144 35.684 206.328 32.2774C203.513 28.8709 207.864 27.3424 210.496 27.2747C212.776 27.216 216.79 30.9794 220.699 32.8432C224.607 34.707 237.61 39.1085 239.529 41.1201C241.448 43.1317 240.576 43.812 239.048 45.0026C237.521 46.1932 232.4 44.5734 225.604 42.1548Z" fill="#FBC726" stroke="black" stroke-width="0.3"/>
<g style="mix-blend-mode:multiply">
<path d="M232.71 41.8394C228.514 40.8248 213.76 32.9938 206.951 29.1379C205.795 28.9349 204.627 30.1158 205.516 31.4268C207.622 34.5337 216.142 38.4779 221.885 40.8594C226.249 42.6692 236.597 45.8893 238.346 45.4132C239.102 45.2074 239.832 44.6752 240.197 44.0725C240.561 43.4699 238.677 43.2822 232.71 41.8394Z" fill="#DCD275"/>
</g>
<path d="M147.754 -4.18132L123.657 -0.84438C125.726 0.768654 130.452 5.5877 135.15 9.53631C142.706 15.8862 151.578 24.5616 156.479 29.4593C162.367 35.3429 168.247 41.7085 173.067 47.7516C174.618 49.6959 176.059 51.6069 177.356 53.4576C179.148 56.0155 180.418 58.8485 181.257 61.8413C183.009 68.0918 182.883 75.0397 181.714 81.6353C180.08 90.8568 176.408 99.3898 172.984 104.366C175.411 105.749 183.173 105.689 190.622 95.9775C193.878 91.7327 197.075 85.6443 199.74 77.0267C201.646 70.8634 202.074 64.2005 201.318 57.4539C200.516 50.3018 198.385 43.0555 195.276 36.21C192.579 30.2724 189.146 24.6364 185.207 19.625C181.528 14.9441 177.408 10.8081 173.032 7.48034C170.526 5.57413 167.936 3.93313 165.298 2.60682L158.878 -2.32757L147.754 -4.18132Z" fill="#62ACA8"/>
<path d="M199.74 77.0267C201.646 70.8634 202.074 64.2005 201.318 57.4539M199.74 77.0267C199.885 72.4444 195.401 67.8674 193.14 66.1516M199.74 77.0267C197.075 85.6443 193.878 91.7327 190.622 95.9775M147.754 -4.18132L123.657 -0.84438C125.726 0.768654 130.452 5.58769 135.15 9.53631M147.754 -4.18132C148.346 -3.99847 150.178 -1.55797 152.331 1.38022M147.754 -4.18132L158.878 -2.32757L165.298 2.60682C167.936 3.93314 170.526 5.57413 173.032 7.48033M176.966 28.8575C175.053 30.615 171.595 36.8544 173.067 47.7516M176.966 28.8575C175.058 26.384 173.114 24.0732 171.196 21.9494M176.966 28.8575C178.962 31.4446 180.918 34.2097 182.763 37.1245M173.067 47.7516C174.618 49.6959 176.059 51.6069 177.356 53.4576C179.148 56.0155 180.418 58.8485 181.257 61.8413M173.067 47.7516C168.247 41.7085 162.367 35.3429 156.479 29.4593M171.196 21.9494C173.716 19.7888 180.045 16.299 185.207 19.625M171.196 21.9494C169.253 19.7967 167.336 17.8362 165.512 16.0935M185.207 19.625C181.528 14.9441 177.408 10.8081 173.032 7.48033M185.207 19.625C189.146 24.6364 192.579 30.2724 195.276 36.21M165.512 16.0935C162.333 17.5533 156.075 22.2702 156.479 29.4593M165.512 16.0935C163.733 14.3929 162.041 12.8998 160.498 11.6378M156.479 29.4593C151.578 24.5616 142.706 15.8862 135.15 9.53631M160.498 11.6378C162.782 9.7376 168.485 6.24584 173.032 7.48033M160.498 11.6378C158.677 10.1476 155.216 5.31712 152.331 1.38022M182.763 37.1245C184.915 35.2125 190.43 32.3528 195.276 36.21M182.763 37.1245C184.683 40.1575 186.483 43.3527 188.081 46.6784M195.276 36.21C198.385 43.0555 200.516 50.3018 201.318 57.4539M188.081 46.6784C185.827 49.3646 181.307 56.158 181.257 61.8413M188.081 46.6784C188.913 48.4088 189.69 50.1745 190.401 51.9712M181.257 61.8413C183.009 68.0918 182.883 75.0397 181.714 81.6353M190.401 51.9712C191.202 53.9948 191.92 56.0576 192.538 58.1532C192.853 59.8613 193.143 62.6816 193.14 66.1516M190.401 51.9712C193.358 51.893 199.68 52.8801 201.318 57.4539M193.14 66.1516C193.138 69.1427 192.918 72.6165 192.308 76.2768M190.622 95.9775C183.173 105.689 175.411 105.749 172.984 104.366C176.408 99.3898 180.08 90.8568 181.714 81.6353M190.622 95.9775C192.315 90.6018 189.945 85.534 190.157 84.8491C191.152 81.9708 191.843 79.0695 192.308 76.2768M192.308 76.2768C189.904 76.2513 184.418 77.2874 181.714 81.6353M152.331 1.38022C146.794 2.73961 135.824 5.68055 135.15 9.53631" stroke="#3A2C08" stroke-width="0.3"/>
<g style="mix-blend-mode:multiply">
<path d="M189.809 66.9064C188.184 41.0212 149.64 6.25769 137.375 -3.4398L123.286 -0.844253C130.429 5.8086 158.878 30.2984 163.718 36.9557C167.094 41.6001 172.14 46.3327 175.932 51.4309C178.784 55.2654 180.765 59.4999 181.689 62.985C183.84 71.1036 181.73 80.4768 180.816 86.0215C180.085 90.4573 175.998 99.7582 172.987 104.213L173.131 104.561C174.248 104.971 176.128 105.119 177.075 104.965C181.693 101.643 191.283 90.3721 189.809 66.9064Z" fill="#C4C4C4"/>
</g>
<path d="M53.7016 0.801853C53.1232 -1.25724 55.4582 -4.60472 56.698 -6.02107C57.8547 -5.13544 59.6901 -3.32922 60.6191 -1.29187C61.1108 -0.213482 61.3485 0.929659 61.0972 2.03532C60.9482 2.69092 60.7961 3.29189 60.6459 3.8378C60.064 5.95195 59.5093 7.24022 59.2642 7.67693C58.4095 6.91732 57.0614 5.61076 55.8966 4.24381C55.161 3.38055 54.4985 2.4932 54.0796 1.70432C53.9098 1.38461 53.78 1.08106 53.7016 0.801853Z" fill="#D2C75F"/>
<path d="M56.698 -6.02107C55.4582 -4.60472 53.1232 -1.25724 53.7016 0.801853C53.78 1.08106 53.9098 1.38461 54.0796 1.70432M56.698 -6.02107C57.8547 -5.13544 59.6901 -3.32922 60.6191 -1.29187M56.698 -6.02107C57.6562 -5.22272 58.3354 -4.1347 58.8039 -2.90392M59.2642 7.67693C59.6021 6.03924 59.88 3.39559 59.619 0.775372M59.2642 7.67693C58.4095 6.91732 57.0614 5.61076 55.8966 4.24381M59.2642 7.67693C59.5093 7.24022 60.064 5.95195 60.6459 3.8378M59.619 0.775372C58.431 1.16902 56.0233 2.41381 55.8966 4.24381M59.619 0.775372C59.5598 0.180773 59.4728 -0.412621 59.3524 -0.992779M55.8966 4.24381C55.161 3.38055 54.4985 2.4932 54.0796 1.70432M59.8193 3.56923C60.0559 3.51618 60.5526 3.49562 60.6459 3.8378M60.6459 3.8378C60.7961 3.29189 60.9482 2.69092 61.0972 2.03532C61.3485 0.929659 61.1108 -0.213482 60.6191 -1.29187M59.3524 -0.992779C59.6623 -1.14671 60.3495 -1.42204 60.6191 -1.29187M59.3524 -0.992779C59.2155 -1.65287 59.0354 -2.29582 58.8039 -2.90392M58.8039 -2.90392C57.5784 -2.55379 54.9177 -1.14196 54.0796 1.70432" stroke="black" stroke-width="0.3"/>
<path d="M121.835 74.3425C120.514 74.7946 119.995 76.7964 119.9 77.7408C120.691 77.873 122.427 77.9698 123.044 77.2991C123.661 76.6284 124.132 74.6493 124.29 73.7436C124.022 73.7548 123.155 73.8903 121.835 74.3425Z" fill="#ECE17E" stroke="black" stroke-width="0.3"/>
<path d="M190.262 40.9792C189.538 42.1853 186.884 42.5799 185.647 42.6265C185.641 42.5689 185.635 42.5086 185.63 42.4458C185.511 40.9204 185.731 37.9375 187.513 36.8858C187.879 36.6697 188.223 36.4777 188.541 36.308C189.835 35.618 190.716 35.2962 191.038 35.2155C191.075 36.4316 191.01 38.9117 190.535 40.3549C190.456 40.5953 190.365 40.8069 190.262 40.9792Z" fill="#B1A7C7"/>
<path d="M191.038 35.2155C191.075 36.4316 191.01 38.9117 190.535 40.3549M191.038 35.2155C190.728 36.2578 190.13 37.801 189.309 39.1964M191.038 35.2155C190.716 35.2962 189.835 35.618 188.541 36.308M185.63 42.4458C185.635 42.5086 185.641 42.5689 185.647 42.6265C186.884 42.5799 189.538 42.1853 190.262 40.9792C190.365 40.8069 190.456 40.5953 190.535 40.3549M185.63 42.4458C185.511 40.9204 185.731 37.9375 187.513 36.8858C187.879 36.6697 188.223 36.4777 188.541 36.308M185.63 42.4458C186.728 42.2976 187.713 41.4551 188.541 40.3549M188.541 40.3549C188.882 40.494 189.757 40.6886 190.535 40.3549M188.541 40.3549C188.815 39.9916 189.071 39.6002 189.309 39.1964M189.309 39.1964C188.797 38.7537 187.927 37.5564 188.541 36.308" stroke="black" stroke-width="0.3"/>
<path d="M44.3592 22.4411C45.0827 23.6472 47.7375 24.0419 48.9745 24.0884C48.9805 24.0308 48.9859 23.9705 48.9908 23.9078C49.11 22.3823 48.8901 19.3994 47.1081 18.3477C46.7418 18.1316 46.3984 17.9396 46.08 17.7699C44.7858 17.0799 43.9054 16.7581 43.5828 16.6774C43.5462 17.8935 43.6112 20.3736 44.0862 21.8168C44.1654 22.0572 44.2559 22.2689 44.3592 22.4411Z" fill="#B1A7C7"/>
<path d="M43.5828 16.6774C43.5462 17.8935 43.6112 20.3736 44.0862 21.8168M43.5828 16.6774C43.8931 17.7198 44.4913 19.2629 45.3126 20.6583M43.5828 16.6774C43.9054 16.7581 44.7858 17.0799 46.08 17.7699M48.9908 23.9078C48.9859 23.9705 48.9805 24.0308 48.9745 24.0884C47.7375 24.0419 45.0827 23.6472 44.3592 22.4411C44.2559 22.2689 44.1654 22.0572 44.0862 21.8168M48.9908 23.9078C49.11 22.3823 48.8901 19.3994 47.1081 18.3477C46.7418 18.1316 46.3984 17.9396 46.08 17.7699M48.9908 23.9078C47.8929 23.7595 46.908 22.917 46.08 21.8168M46.08 21.8168C45.7395 21.9559 44.864 22.1505 44.0862 21.8168M46.08 21.8168C45.8066 21.4535 45.5502 21.0621 45.3126 20.6583M45.3126 20.6583C45.8242 20.2157 46.694 19.0183 46.08 17.7699" stroke="black" stroke-width="0.3"/>
<path d="M284.52 -3.13981C286.872 -3.48962 288.295 -2.98275 289.115 -2.24232C289.832 -1.59437 290.087 -0.767577 290.096 -0.179512C289.896 2.28031 288.147 6.92704 282.967 8.9077C281.911 9.3115 280.713 9.60449 279.355 9.74554C277.626 9.92529 276.28 9.92969 275.199 9.82199C271.27 9.43068 270.835 7.55947 268.187 7.24287C272.427 7.08382 275.184 5.47858 277.254 3.57376C279.011 1.95642 280.272 0.123109 281.522 -1.2243C282.459 -2.23466 283.39 -2.97181 284.52 -3.13981Z" fill="#C37D5E"/>
<path d="M268.187 7.24287C270.966 7.31254 275.065 7.02016 278.915 5.97531M268.187 7.24287C272.427 7.08382 275.184 5.47858 277.254 3.57376M268.187 7.24287C270.835 7.55947 271.27 9.43068 275.199 9.82199M289.115 -2.24232C288.295 -2.98275 286.872 -3.48962 284.52 -3.13981C283.39 -2.97181 282.459 -2.23466 281.522 -1.2243M289.115 -2.24232C289.832 -1.59437 290.087 -0.767578 290.096 -0.179512C289.896 2.28031 288.147 6.92704 282.967 8.9077M289.115 -2.24232C288.665 -0.171458 287.458 1.47436 285.806 2.77342M282.441 4.74616C282.991 5.52861 283.866 7.45633 282.967 8.9077M282.441 4.74616C281.324 5.23934 280.132 5.64494 278.915 5.97531M282.441 4.74616C283.677 4.20111 284.821 3.54908 285.806 2.77342M282.967 8.9077C281.911 9.3115 280.713 9.60449 279.355 9.74554C277.626 9.92529 276.28 9.92969 275.199 9.82199M278.915 5.97531C278.643 5.3068 277.93 3.89057 277.254 3.57376M277.254 3.57376C279.011 1.95642 280.272 0.123109 281.522 -1.2243M276.394 6.59583C276.353 7.57038 276.056 9.57999 275.199 9.82199M285.806 2.77342C285.484 1.87426 284.177 -0.184099 281.522 -1.2243" stroke="black" stroke-width="0.3"/>
<path d="M132.778 9.46097C132.223 7.8318 131.461 6.9521 130.705 6.52148C129.793 6.00229 128.888 6.13593 128.362 6.3959C126.781 7.38106 124.374 9.95801 124.212 13.7999C124.154 15.175 124.384 16.7122 125.042 18.3965C125.075 18.481 125.108 18.5642 125.141 18.6461C127.595 24.7522 129.692 23.506 131.293 25.8717C129.781 22.6475 129.895 19.9646 130.506 17.6765C130.949 16.0194 131.652 14.5694 132.188 13.2709C132.778 11.8421 133.165 10.5968 132.778 9.46097Z" fill="#BE9E4A"/>
<path d="M131.293 25.8717C131.19 25.6434 128.908 21.6607 128.258 16.8748M131.293 25.8717C129.781 22.6475 129.895 19.9646 130.506 17.6765M131.293 25.8717C129.692 23.506 127.595 24.7522 125.141 18.6461M130.705 6.52148C131.461 6.9521 132.223 7.8318 132.778 9.46097C133.165 10.5968 132.778 11.8421 132.188 13.2709M130.705 6.52148C129.793 6.0023 128.888 6.13593 128.362 6.3959C126.781 7.38106 124.374 9.95801 124.212 13.7999M130.705 6.52148C129.678 7.79129 129.007 9.16684 128.601 10.579M128.172 12.7929C127.485 12.6509 125.732 12.6536 124.212 13.7999M128.172 12.7929C128.252 12.0515 128.391 11.3104 128.601 10.579M128.172 12.7929C128.083 13.6164 128.067 14.4403 128.106 15.2512M124.212 13.7999C124.154 15.175 124.384 16.7122 125.042 18.3965C125.075 18.481 125.108 18.5642 125.141 18.6461M128.258 16.8748C128.801 16.848 130.011 16.9707 130.506 17.6765M128.258 16.8748C128.185 16.3422 128.133 15.7997 128.106 15.2512M130.506 17.6765C130.949 16.0194 131.652 14.5694 132.188 13.2709M128.601 10.579C129.386 10.6 131.202 11.1677 132.188 13.2709M128.106 15.2512C127.176 15.519 125.281 16.5729 125.141 18.6461" stroke="black" stroke-width="0.3"/>
<path d="M157.004 29.9958C158.021 29.1053 158.864 28.886 159.499 28.9671C160.097 29.0436 160.511 29.387 160.711 29.6868C161.162 30.5333 161.583 32.0665 161.26 33.7677C160.994 35.1704 160.223 36.6872 158.548 38.0275C158.138 38.3552 157.764 38.6282 157.419 38.8556C154.647 40.6855 153.818 39.5658 152.215 40.3444C155.434 38.1008 155.709 35.2536 155.972 33.0243C156.041 32.4421 156.109 31.9021 156.228 31.426C156.375 30.8383 156.601 30.3479 157.004 29.9958Z" fill="#D2C75F"/>
<path d="M152.215 40.3444C153.625 39.5747 155.65 38.1217 157.232 36.2265M152.215 40.3444C153.818 39.5658 154.647 40.6855 157.419 38.8556M152.215 40.3444C156.275 37.515 155.651 33.7255 156.228 31.426M159.499 28.9671C158.864 28.886 158.021 29.1053 157.004 29.9958C156.601 30.3479 156.375 30.8383 156.228 31.426M159.499 28.9671C160.097 29.0436 160.511 29.387 160.711 29.6868C161.162 30.5333 161.583 32.0665 161.26 33.7677M159.499 28.9671C159.618 29.5121 159.666 30.0487 159.654 30.5745M159.379 32.3606C159.743 32.4291 160.63 32.8065 161.26 33.7677M159.379 32.3606C159.255 32.8008 159.093 33.2306 158.899 33.6483M159.379 32.3606C159.542 31.7821 159.639 31.1856 159.654 30.5745M161.26 33.7677C160.994 35.1704 160.223 36.6872 158.548 38.0275C158.138 38.3552 157.764 38.6282 157.419 38.8556M157.232 36.2265C157.538 36.5299 158.005 37.4803 157.419 38.8556M157.232 36.2265C157.89 35.4379 158.471 34.5727 158.899 33.6483M158.899 33.6483C158.4 33.3774 157.318 32.8255 155.972 33.0243M159.654 30.5745C158.981 30.4678 157.353 30.4887 156.228 31.426" stroke="black" stroke-width="0.3"/>
<path d="M245.286 22.0154C246.236 21.5476 247.011 21.3865 247.632 21.4107C248.862 21.4587 249.488 22.2342 249.676 22.7926C250.052 24.4255 249.89 27.7354 247.122 30.1663C246.436 30.7687 245.59 31.3172 244.552 31.7727C243.966 32.0302 243.439 32.2333 242.963 32.3919C239.197 33.6458 238.587 32.1046 236.49 32.5133C240.091 31.2066 241.566 28.8448 242.532 26.666C243.449 24.5978 243.906 22.6947 245.286 22.0154Z" fill="#D2C75F"/>
<path d="M236.49 32.5133C238.313 31.9623 241.237 30.8432 243.668 29.3757M236.49 32.5133C238.587 32.1046 239.197 33.6458 242.963 32.3919M236.49 32.5133C240.091 31.2066 241.566 28.8448 242.532 26.666M247.632 21.4107C247.011 21.3865 246.236 21.5476 245.286 22.0154C243.906 22.6947 243.449 24.5978 242.532 26.666M247.632 21.4107C248.862 21.4587 249.488 22.2342 249.676 22.7926C250.052 24.4255 249.89 27.7354 247.122 30.1663M247.632 21.4107C248.19 22.3779 247.936 24.4083 247.738 25.3026C247.57 25.8097 247.274 26.3044 246.88 26.7822M243.668 29.3757C243.742 30.1036 243.703 31.7258 242.963 32.3919M243.668 29.3757C244.445 28.9068 245.172 28.4024 245.796 27.8695M242.963 32.3919C243.439 32.2333 243.966 32.0302 244.552 31.7727C245.59 31.3172 246.436 30.7687 247.122 30.1663M242.532 26.666C243.691 26.2016 246.183 25.5748 246.88 26.7822M246.88 26.7822C246.573 27.1556 246.206 27.5187 245.796 27.8695M245.796 27.8695C246.237 28.1401 247.121 28.9783 247.122 30.1663" stroke="black" stroke-width="0.3"/>
<path d="M64.3401 69.001C65.5264 70.484 67.306 70.6076 68.0475 70.484C69.0746 70.484 68.7893 67.8888 66.9354 66.4058C65.4523 65.2194 64.2164 64.0577 63.2278 63.8105C63.1042 64.9228 63.1537 67.518 64.3401 69.001Z" fill="#ECE17E" stroke="black" stroke-width="0.3"/>
<path d="M162.105 100.271C162.75 101.091 163.717 101.159 164.121 101.091C164.679 101.091 164.524 99.6568 163.516 98.8373C162.709 98.1818 162.037 97.5399 161.5 97.4033C161.433 98.0179 161.459 99.4519 162.105 100.271Z" fill="#ECE17E" stroke="black" stroke-width="0.3"/>
<path d="M123.199 48.6396C123.485 46.7621 124.964 45.7653 125.668 45.5016C126.558 44.988 127.608 47.3782 126.744 49.5894C126.053 51.3584 125.564 52.9824 124.831 53.6908C124.168 52.7893 122.913 50.5171 123.199 48.6396Z" fill="#FFC37C" stroke="black" stroke-width="0.3"/>
<path d="M88.8554 31.1851C90.7093 32.6681 90.9945 35.2633 89.9674 35.2633C89.3367 35.3684 87.9549 35.2947 86.826 34.3576C86.6277 34.1931 86.4372 34.0018 86.26 33.7803C85.7353 33.1244 85.433 32.251 85.2697 31.3846C85.0637 30.2919 85.0788 29.2102 85.1477 28.5898C86.0422 28.8135 87.139 29.7857 88.4383 30.8475C88.5751 30.9593 88.7141 31.0721 88.8554 31.1851Z" fill="#D2C75F"/>
<path d="M89.9674 35.2633C90.9945 35.2633 90.7093 32.6681 88.8554 31.1851C88.7141 31.0721 88.5751 30.9593 88.4383 30.8475M89.9674 35.2633C89.5509 35.0924 89.0577 34.6303 88.5426 34.0117M89.9674 35.2633C89.3367 35.3684 87.9549 35.2947 86.826 34.3576M85.1477 28.5898C86.0422 28.8135 87.139 29.7857 88.4383 30.8475M85.1477 28.5898C85.4967 29.277 86.0106 30.221 86.5933 31.1851M85.1477 28.5898C85.0788 29.2102 85.0637 30.2919 85.2697 31.3846M87.7998 33.0388C88.0126 32.6902 88.4383 31.7638 88.4383 30.8475M87.7998 33.0388C87.3861 32.4565 86.9749 31.8165 86.5933 31.1851M87.7998 33.0388C88.0484 33.3888 88.298 33.7179 88.5426 34.0117M86.5933 31.1851C86.3317 31.3181 85.7008 31.5442 85.2697 31.3846M85.2697 31.3846C85.433 32.251 85.7353 33.1244 86.26 33.7803C86.4372 34.0018 86.6277 34.1931 86.826 34.3576M88.5426 34.0117C88.1745 34.1959 87.3157 34.5229 86.826 34.3576" stroke="black" stroke-width="0.3"/>
<path d="M234.93 62.9233C236.783 64.4063 237.069 67.0016 236.042 67.0016C235.411 67.1067 234.029 67.033 232.9 66.0959C232.702 65.9313 232.511 65.7401 232.334 65.5186C231.81 64.8627 231.507 63.9893 231.344 63.1229C231.138 62.0301 231.153 60.9485 231.222 60.3281C232.116 60.5517 233.213 61.5239 234.512 62.5858C234.649 62.6976 234.788 62.8103 234.93 62.9233Z" fill="#D2C75F"/>
<path d="M236.042 67.0016C237.069 67.0016 236.783 64.4063 234.93 62.9233C234.788 62.8103 234.649 62.6976 234.512 62.5858M236.042 67.0016C235.625 66.8307 235.132 66.3686 234.617 65.75M236.042 67.0016C235.411 67.1067 234.029 67.033 232.9 66.0959M231.222 60.3281C232.116 60.5517 233.213 61.5239 234.512 62.5858M231.222 60.3281C231.571 61.0153 232.085 61.9592 232.668 62.9233M231.222 60.3281C231.153 60.9485 231.138 62.0301 231.344 63.1229M233.874 64.7771C234.087 64.4284 234.512 63.5021 234.512 62.5858M233.874 64.7771C233.46 64.1948 233.049 63.5547 232.668 62.9233M233.874 64.7771C234.123 65.1271 234.372 65.4562 234.617 65.75M232.668 62.9233C232.406 63.0564 231.775 63.2825 231.344 63.1229M231.344 63.1229C231.507 63.9893 231.81 64.8627 232.334 65.5186C232.511 65.7401 232.702 65.9313 232.9 66.0959M234.617 65.75C234.249 65.9341 233.39 66.2612 232.9 66.0959" stroke="black" stroke-width="0.3"/>
<path d="M197.825 98.1388C196.599 96.1216 196.275 92.5097 195.818 88.3397C195.739 87.6223 195.656 86.8884 195.564 86.1433C195.409 84.8826 195.454 83.6586 195.643 82.5219C196.405 77.9375 199.492 74.7744 201.075 76.3568C202.392 77.3061 204.679 79.8107 205.309 83.3422C205.471 84.2517 205.524 85.2293 205.421 86.266C205.276 87.7341 204.772 89.1938 204.072 90.5715C202.359 93.9445 199.475 96.8265 197.825 98.1388Z" fill="#C37D5E"/>
<path d="M201.075 76.3568C199.492 74.7744 196.405 77.9375 195.643 82.5219M201.075 76.3568C201.534 76.9994 201.654 78.3716 201.548 80.1591M201.075 76.3568C202.392 77.3061 204.679 79.8107 205.309 83.3422M197.825 98.1388C196.599 96.1216 196.275 92.5097 195.818 88.3397M197.825 98.1388C198.558 95.6171 199.516 91.9758 200.281 88.37M197.825 98.1388C199.475 96.8265 202.359 93.9445 204.072 90.5715M200.994 84.6616C199.946 84.4613 197.443 84.9165 195.818 88.3397M200.994 84.6616C200.791 85.8608 200.548 87.1133 200.281 88.37M200.994 84.6616C201.138 83.8088 201.261 82.9828 201.357 82.2014M195.818 88.3397C195.739 87.6223 195.656 86.8884 195.564 86.1433C195.409 84.8826 195.454 83.6586 195.643 82.5219M195.643 82.5219C196.995 81.2851 200.068 79.0809 201.548 80.1591M201.548 80.1591C201.511 80.7924 201.445 81.4778 201.357 82.2014M200.281 88.37C201.186 88.2148 203.21 88.4378 204.072 90.5715M204.072 90.5715C204.772 89.1938 205.276 87.7341 205.421 86.266C205.524 85.2293 205.471 84.2517 205.309 83.3422M201.357 82.2014C202.181 82.0633 204.125 82.0982 205.309 83.3422" stroke="black" stroke-width="0.3"/>
<path d="M96.3163 19.5657C95.6035 19.3271 94.0897 18.3833 93.7373 16.5172C93.66 16.1075 93.6562 15.6762 93.704 15.2427C93.8741 13.7015 94.6969 12.1328 95.1892 11.4113C95.6054 11.7861 95.958 12.4399 96.3163 13.2423C96.6099 13.8998 96.9073 14.657 97.2467 15.4422C97.3667 15.7199 97.4558 16.0016 97.5179 16.2808C97.6718 16.9719 97.6608 17.6475 97.5467 18.2086C97.3451 19.1999 96.8217 19.8341 96.3163 19.5657Z" fill="#D2C75F"/>
<path d="M96.3163 19.5657C95.6035 19.3271 94.0897 18.3833 93.7373 16.5172C93.66 16.1075 93.6562 15.6762 93.704 15.2427M96.3163 19.5657C96.0638 19.3349 95.8588 18.9947 95.6937 18.5794M96.3163 19.5657C96.8217 19.8341 97.3451 19.1999 97.5467 18.2086M95.1892 11.4113C95.1289 12.0353 95.0801 12.8641 95.0741 13.7597M95.1892 11.4113C95.6054 11.7861 95.958 12.4399 96.3163 13.2423M95.1892 11.4113C94.6969 12.1328 93.8741 13.7015 93.704 15.2427M95.1892 16.2808C95.5322 16.5603 96.478 16.9517 97.5179 16.2808M95.1892 16.2808C95.1521 15.9408 95.125 15.5923 95.1065 15.2427M95.1892 16.2808C95.2833 17.1413 95.4424 17.9474 95.6937 18.5794M97.5179 16.2808C97.4558 16.0016 97.3667 15.7199 97.2467 15.4422C96.9073 14.657 96.6099 13.8998 96.3163 13.2423M97.5179 16.2808C97.6718 16.9719 97.6608 17.6475 97.5467 18.2086M95.0741 13.7597C95.3958 13.7855 96.0946 13.7182 96.3163 13.2423M95.0741 13.7597C95.0708 14.2418 95.08 14.7434 95.1065 15.2427M95.1065 15.2427C94.9117 15.3662 94.3585 15.5393 93.704 15.2427M95.6937 18.5794C96.1348 18.703 97.123 18.8018 97.5467 18.2086" stroke="black" stroke-width="0.3"/>
<path d="M145.027 20.3079C144.314 20.0693 142.801 19.1255 142.448 17.2594C142.371 16.8497 142.367 16.4183 142.415 15.9848C142.585 14.4437 143.408 12.8749 143.9 12.1535C144.316 12.5283 144.669 13.1821 145.027 13.9845C145.321 14.642 145.618 15.3992 145.958 16.1844C146.078 16.4621 146.167 16.7438 146.229 17.023C146.383 17.714 146.372 18.3896 146.258 18.9508C146.056 19.942 145.533 20.5762 145.027 20.3079Z" fill="#D2C75F"/>
<path d="M145.027 20.3079C144.314 20.0693 142.801 19.1255 142.448 17.2594C142.371 16.8497 142.367 16.4183 142.415 15.9848M145.027 20.3079C144.775 20.077 144.57 19.7369 144.405 19.3216M145.027 20.3079C145.533 20.5762 146.056 19.942 146.258 18.9508M143.9 12.1535C143.84 12.7775 143.791 13.6063 143.785 14.5019M143.9 12.1535C144.316 12.5283 144.669 13.1821 145.027 13.9845M143.9 12.1535C143.408 12.8749 142.585 14.4437 142.415 15.9848M143.9 17.023C144.243 17.3025 145.189 17.6938 146.229 17.023M143.9 17.023C143.863 16.683 143.836 16.3344 143.817 15.9848M143.9 17.023C143.994 17.8835 144.153 18.6896 144.405 19.3216M146.229 17.023C146.167 16.7438 146.078 16.4621 145.958 16.1844C145.618 15.3992 145.321 14.642 145.027 13.9845M146.229 17.023C146.383 17.714 146.372 18.3896 146.258 18.9508M143.785 14.5019C144.107 14.5277 144.806 14.4603 145.027 13.9845M143.785 14.5019C143.782 14.984 143.791 15.4855 143.817 15.9848M143.817 15.9848C143.623 16.1084 143.069 16.2814 142.415 15.9848M144.405 19.3216C144.846 19.4451 145.834 19.544 146.258 18.9508" stroke="black" stroke-width="0.3"/>
<path d="M145.561 47.2167C144.57 46.4664 141.87 45.2808 138.994 46.5408C138.241 46.8709 137.543 47.3725 136.912 47.9641C135.132 49.6314 133.877 52.0136 133.38 53.2855C134.28 53.5038 135.501 53.3751 136.93 53.1156C138.102 52.903 139.413 52.6025 140.801 52.3332C141.854 52.1288 142.8 51.7127 143.587 51.1997C145.679 49.8366 146.653 47.7898 145.561 47.2167Z" fill="#ECE17E"/>
<path d="M145.561 47.2167C144.57 46.4664 141.87 45.2808 138.994 46.5408C138.241 46.8709 137.543 47.3725 136.912 47.9641M145.561 47.2167C144.791 47.0351 143.852 47.1511 142.831 47.465M145.561 47.2167C146.653 47.7898 145.679 49.8366 143.587 51.1997M133.38 53.2855C133.877 52.0136 135.132 49.6314 136.912 47.9641M133.38 53.2855C134.32 52.475 135.681 51.4068 137.194 50.3881M133.38 53.2855C134.28 53.5038 135.501 53.3751 136.93 53.1156M139.078 49.2018C138.856 48.6314 138.112 47.5854 136.912 47.9641M139.078 49.2018C138.437 49.5759 137.804 49.978 137.194 50.3881M139.078 49.2018C140.348 48.4604 141.645 47.8293 142.831 47.465M137.194 50.3881C137.656 50.7309 138.251 51.7563 136.93 53.1156M136.93 53.1156C138.102 52.903 139.413 52.6025 140.801 52.3332C141.854 52.1288 142.8 51.7127 143.587 51.1997M142.831 47.465C143.527 48.0459 144.654 49.6063 143.587 51.1997" stroke="black" stroke-width="0.3"/>
<path d="M90.9695 60.5485C91.1887 59.4511 92.1705 58.1077 93.336 56.5462C93.6835 56.0805 94.0474 55.5955 94.4122 55.0918C94.6868 54.7126 94.9937 54.3748 95.319 54.0779C97.3454 52.2284 100.083 51.9696 100.144 53.2299C100.356 54.2107 100.322 56.5022 98.6493 58.2599C98.5355 58.3795 98.4142 58.4965 98.2849 58.6106C97.1618 59.6008 95.5307 60.1191 94.0276 60.3676C92.8126 60.5686 91.6813 60.5932 90.9695 60.5485Z" fill="#704A4A"/>
<path d="M100.144 53.2299C100.356 54.2107 100.322 56.5022 98.6493 58.2599M100.144 53.2299C100.014 53.9884 99.2611 54.8953 98.2083 55.822M100.144 53.2299C100.083 51.9696 97.3454 52.2284 95.319 54.0779M90.9695 60.5485C91.1887 59.4511 92.1705 58.1077 93.336 56.5462M90.9695 60.5485C91.7351 60.1521 92.7096 59.6116 93.7363 58.9894M90.9695 60.5485C91.6813 60.5932 92.8126 60.5686 94.0276 60.3676M95.7269 57.7129C95.3911 57.3025 94.4429 56.4946 93.336 56.5462M95.7269 57.7129C95.0693 58.161 94.3921 58.5919 93.7363 58.9894M95.7269 57.7129C96.3125 57.314 96.8826 56.9014 97.4083 56.4866M93.336 56.5462C93.6835 56.0805 94.0474 55.5955 94.4122 55.0918C94.6868 54.7126 94.9937 54.3748 95.319 54.0779M93.7363 58.9894C93.9372 59.2765 94.2766 59.9541 94.0276 60.3676M94.0276 60.3676C95.5307 60.1191 97.1618 59.6008 98.2849 58.6106C98.4142 58.4965 98.5355 58.3795 98.6493 58.2599M98.6493 58.2599C98.7376 57.8849 98.773 56.8723 98.2083 55.822M98.2083 55.822C97.9572 56.043 97.6891 56.2651 97.4083 56.4866M97.4083 56.4866C97.1808 55.8483 96.4446 54.4728 95.319 54.0779" stroke="black" stroke-width="0.3"/>
<path d="M109.373 77.5054C109.098 76.8119 109.161 75.7046 109.248 74.4087C109.274 74.0222 109.302 73.619 109.323 73.205C109.34 72.8934 109.389 72.5932 109.464 72.3093C109.928 70.5404 111.366 69.4041 111.856 70.0875C112.33 70.5595 113.141 71.8543 112.842 73.4435C112.821 73.5516 112.796 73.661 112.765 73.7717C112.495 74.7325 111.77 75.6133 111.019 76.2967C110.412 76.8491 109.787 77.2726 109.373 77.5054Z" fill="#704A4A"/>
<path d="M111.856 70.0875C112.33 70.5595 113.141 71.8543 112.842 73.4435M111.856 70.0875C112.059 70.5588 111.966 71.3391 111.712 72.2389M111.856 70.0875C111.366 69.4041 109.928 70.5404 109.464 72.3093M109.373 77.5054C109.098 76.8119 109.161 75.7046 109.248 74.4087M109.373 77.5054C109.658 77.0063 110.007 76.3509 110.357 75.6309M109.373 77.5054C109.787 77.2726 110.412 76.8491 111.019 76.2967M111.008 74.1957C110.672 74.0877 109.848 73.979 109.248 74.4087M111.008 74.1957C110.802 74.6846 110.58 75.171 110.357 75.6309M111.008 74.1957C111.191 73.7604 111.361 73.3231 111.505 72.9006M109.248 74.4087C109.274 74.0222 109.302 73.619 109.323 73.205C109.34 72.8934 109.389 72.5932 109.464 72.3093M110.357 75.6309C110.573 75.7188 111.008 75.9751 111.019 76.2967M111.019 76.2967C111.77 75.6133 112.495 74.7325 112.765 73.7717C112.796 73.661 112.821 73.5516 112.842 73.4435M112.842 73.4435C112.755 73.2017 112.408 72.6222 111.712 72.2389M111.712 72.2389C111.652 72.4535 111.582 72.6749 111.505 72.9006M111.505 72.9006C111.147 72.6257 110.236 72.1227 109.464 72.3093" stroke="black" stroke-width="0.3"/>
<path d="M239.108 2.21293C239.058 2.66663 238.954 3.11975 238.81 3.56697C237.91 6.34865 235.41 8.90205 234.103 9.94724C233.424 8.81456 233.201 6.88648 232.98 4.61805C232.905 3.84945 232.831 3.04177 232.738 2.21273C232.634 1.2763 232.702 0.369157 232.884 -0.458044C233.497 -3.24805 235.406 -5.12868 236.378 -4.15651C237.056 -3.67208 238.131 -2.54395 238.723 -0.938187C239.058 -0.0304497 239.239 1.02992 239.108 2.21293Z" fill="#FFE999"/>
<path d="M236.378 -4.15651C236.681 -3.57771 236.799 -2.72863 236.785 -1.71888M236.378 -4.15651C237.056 -3.67208 238.131 -2.54395 238.723 -0.938187M236.378 -4.15651C235.406 -5.12868 233.497 -3.24805 232.884 -0.458044M234.103 9.94724C235.41 8.90205 237.91 6.34865 238.81 3.56697M234.103 9.94724C234.684 8.34857 235.456 5.92121 236.022 3.48555M234.103 9.94724C233.424 8.81456 233.201 6.88648 232.98 4.61805M236.459 1.35374C237.238 1.59004 238.798 2.3635 238.81 3.56697M236.459 1.35374C236.528 0.958605 236.587 0.569954 236.636 0.191591M236.459 1.35374C236.338 2.05112 236.189 2.76869 236.022 3.48555M238.81 3.56697C238.954 3.11975 239.058 2.66663 239.108 2.21293C239.239 1.02992 239.058 -0.0304497 238.723 -0.938187M236.785 -1.71888C237.391 -1.57698 238.627 -1.22219 238.723 -0.938187M236.785 -1.71888C236.777 -1.12952 236.724 -0.485436 236.636 0.191591M236.636 0.191591C235.702 -0.272997 233.645 -1.05335 232.884 -0.458044M232.884 -0.458044C232.702 0.369157 232.634 1.2763 232.738 2.21273C232.831 3.04177 232.905 3.84945 232.98 4.61805M236.022 3.48555C235.249 3.31725 233.559 3.30812 232.98 4.61805" stroke="black" stroke-width="0.3"/>
<path d="M156.631 63.556C156.761 63.1184 156.943 62.6908 157.165 62.2764C158.544 59.6985 161.457 57.6292 162.929 56.8324C163.396 58.0677 163.273 60.0047 163.088 62.2764C163.026 63.0461 162.956 63.8542 162.9 64.6864C162.836 65.6265 162.608 66.5071 162.282 67.289C161.184 69.9259 158.971 71.438 158.187 70.3087C157.606 69.7116 156.749 68.4108 156.45 66.7253C156.282 65.7726 156.292 64.6969 156.631 63.556Z" fill="#FFE999"/>
<path d="M158.187 70.3087C157.992 69.6854 158.026 68.8288 158.219 67.8376M158.187 70.3087C157.606 69.7116 156.749 68.4108 156.45 66.7253M158.187 70.3087C158.971 71.438 161.184 69.9259 162.282 67.289M162.929 56.8324C161.457 57.6292 158.544 59.6985 157.165 62.2764M162.929 56.8324C162.073 58.3027 160.884 60.5546 159.894 62.8511M162.929 56.8324C163.396 58.0677 163.273 60.0047 163.088 62.2764M159.086 64.8716C158.361 64.5009 156.963 63.4628 157.165 62.2764M159.086 64.8716C158.948 65.2483 158.82 65.6202 158.705 65.9838M159.086 64.8716C159.329 64.2068 159.603 63.527 159.894 62.8511M157.165 62.2764C156.943 62.6908 156.761 63.1184 156.631 63.556C156.292 64.6969 156.282 65.7726 156.45 66.7253M158.219 67.8376C157.648 67.5904 156.495 67.0219 156.45 66.7253M158.219 67.8376C158.332 67.259 158.499 66.6346 158.705 65.9838M158.705 65.9838C159.541 66.6068 161.428 67.7399 162.282 67.289M162.282 67.289C162.608 66.5071 162.836 65.6265 162.9 64.6864C162.956 63.8542 163.026 63.0461 163.088 62.2764M159.894 62.8511C160.624 63.1539 162.286 63.4628 163.088 62.2764" stroke="black" stroke-width="0.3"/>
<path d="M218.183 14.6174C219.741 15.7042 221.482 15.3192 222.159 14.9909C223.144 14.7003 222.136 12.2919 219.938 11.394C218.18 10.6757 216.666 9.9111 215.648 9.95373C215.844 11.0555 216.626 13.5307 218.183 14.6174Z" fill="#ECE17E" stroke="black" stroke-width="0.3"/>
<path d="M270.959 52.2766C273.462 53.6123 275.532 52.1439 276.256 51.0356C276.577 50.5438 276.702 49.966 276.579 49.4665C276.426 48.8402 275.883 48.3369 274.85 48.2804C274.473 48.4731 274.023 48.6907 273.525 48.8366C272.811 49.0454 271.998 49.1069 271.153 48.7363C271.052 48.6922 270.952 48.6527 270.852 48.6172C269.523 48.1468 268.263 48.3898 267.823 48.0495C267.808 48.0831 267.795 48.1174 267.784 48.1523C267.597 48.7257 267.867 49.4537 268.413 50.1712C268.857 50.7555 269.483 51.3327 270.192 51.8136C270.439 51.9809 270.696 52.1364 270.959 52.2766Z" fill="#CBA9B3"/>
<path d="M267.784 48.1523C267.795 48.1174 267.808 48.0831 267.823 48.0495C268.263 48.3898 269.523 48.1468 270.852 48.6172M267.784 48.1523C267.597 48.7257 267.867 49.4537 268.413 50.1712M267.784 48.1523C268.357 48.5052 269.159 48.9247 270.069 49.2902M276.579 49.4665C276.702 49.966 276.577 50.5438 276.256 51.0356C275.532 52.1439 273.462 53.6123 270.959 52.2766C270.696 52.1364 270.439 51.9809 270.192 51.8136M276.579 49.4665C276.426 48.8402 275.883 48.3369 274.85 48.2804C274.473 48.4731 274.023 48.6907 273.525 48.8366M276.579 49.4665C275.938 49.9213 275.166 50.1308 274.341 50.1712M272.02 49.9196C271.859 50.365 271.268 51.3675 270.192 51.8136M272.02 49.9196C271.691 49.8413 271.365 49.7484 271.046 49.645M272.02 49.9196C272.798 50.1049 273.591 50.2078 274.341 50.1712M270.192 51.8136C269.483 51.3327 268.857 50.7555 268.413 50.1712M268.413 50.1712C268.811 50.1354 269.699 49.9091 270.069 49.2902M270.069 49.2902C270.384 49.4166 270.711 49.5365 271.046 49.645M271.046 49.645C271.072 49.4134 271.07 48.8834 270.852 48.6172M270.852 48.6172C270.952 48.6527 271.052 48.6922 271.153 48.7363C271.998 49.1069 272.811 49.0454 273.525 48.8366M273.525 48.8366C273.747 49.0489 274.221 49.6132 274.341 50.1712" stroke="black" stroke-width="0.3"/>
<path d="M62.1171 35.2635C62.073 33.7806 62.8402 33.1626 63.2293 33.0391C63.4163 33.7405 63.706 34.7499 64.0421 35.7979C64.5942 37.5196 65.2714 39.3458 65.8245 40.0832C66.1388 40.5022 66.5714 41.0987 67.0053 41.7641C68.1072 43.454 69.2177 45.5879 68.4197 46.3859C67.8259 46.9798 67.26 47.3373 66.5642 47.3291C65.9567 47.3221 65.2503 47.0363 64.3397 46.3859C63.0287 45.4495 62.4872 42.4436 62.266 39.6083C62.2149 38.9528 62.1809 38.3064 62.1585 37.6967C62.1243 36.7674 62.1171 35.9237 62.1171 35.2635Z" fill="#704A4A"/>
<path d="M63.2293 33.0391C62.8402 33.1626 62.073 33.7806 62.1171 35.2635C62.1171 36.3567 62.137 37.9534 62.266 39.6083M63.2293 33.0391C63.2292 33.8671 63.2581 34.889 63.3283 36.005M63.2293 33.0391C63.4163 33.7405 63.706 34.7499 64.0421 35.7979M66.5642 47.3291C65.9567 47.3221 65.2503 47.0363 64.3397 46.3859C63.0287 45.4495 62.4872 42.4436 62.266 39.6083M66.5642 47.3291C67.26 47.3373 67.8259 46.9798 68.4197 46.3859C69.2177 45.5879 68.1072 43.454 67.0053 41.7641M66.5642 47.3291C65.6986 46.7083 65.0437 45.4045 64.5538 43.7907M63.6993 39.7125C63.2718 39.8902 62.3867 40.1182 62.266 39.6083M63.6993 39.7125C63.6015 39.0205 63.5216 38.325 63.4572 37.6451M63.6993 39.7125C63.9012 41.1419 64.1793 42.5569 64.5538 43.7907M63.3283 36.005C63.467 36.1141 63.804 36.2255 64.0421 35.7979M63.3283 36.005C63.3616 36.5341 63.4041 37.0843 63.4572 37.6451M64.0421 35.7979C64.5942 37.5196 65.2714 39.3458 65.8245 40.0832C66.1388 40.5022 66.5714 41.0987 67.0053 41.7641M63.4572 37.6451C63.1347 37.8211 62.4151 38.0674 62.1171 37.6451M64.5538 43.7907C65.2708 43.6755 66.765 43.1089 67.0053 41.7641" stroke="black" stroke-width="0.3"/>
<path d="M24.9486 95.5215C23.9312 96.6013 22.9517 96.4957 22.5892 96.3079C22.9529 95.6797 23.4618 94.7611 23.9653 93.7824C24.7923 92.1746 25.6047 90.4044 25.7351 89.4919C25.8091 88.9734 25.9251 88.2457 26.0887 87.4684C26.5044 85.4943 27.2281 83.2001 28.3566 83.2001C29.1965 83.2001 29.8494 83.3474 30.3357 83.8452C30.7602 84.2797 31.0577 84.9813 31.2417 86.0851C31.5065 87.6742 29.764 90.1827 27.9155 92.3439C27.4881 92.8436 27.0551 93.3247 26.6398 93.7716C26.0069 94.4529 25.4154 95.0547 24.9486 95.5215Z" fill="#704A4A"/>
<path d="M22.5892 96.3079C22.9517 96.4957 23.9312 96.6013 24.9486 95.5215C25.7216 94.7485 26.8366 93.6054 27.9155 92.3439M22.5892 96.3079C23.1748 95.7225 23.8769 94.9795 24.6164 94.1407M22.5892 96.3079C22.9529 95.6797 23.4618 94.7611 23.9653 93.7824M30.3357 83.8452C30.7602 84.2797 31.0577 84.9813 31.2417 86.0851C31.5065 87.6742 29.764 90.1827 27.9155 92.3439M30.3357 83.8452C29.8494 83.3474 29.1965 83.2001 28.3566 83.2001C27.2281 83.2001 26.5044 85.4943 26.0887 87.4684M30.3357 83.8452C30.5087 84.8963 30.0499 86.2813 29.2552 87.7688M26.9757 91.2568C27.4036 91.4334 28.1908 91.8981 27.9155 92.3439M26.9757 91.2568C26.5555 91.8152 26.1203 92.3635 25.685 92.8898M26.9757 91.2568C27.8437 90.1032 28.6476 88.9061 29.2552 87.7688M24.6164 94.1407C24.5955 93.9654 24.4359 93.6484 23.9653 93.7824M24.6164 94.1407C24.967 93.743 25.326 93.3239 25.685 92.8898M23.9653 93.7824C24.7923 92.1746 25.6047 90.4044 25.7351 89.4919C25.8091 88.9734 25.9251 88.2457 26.0887 87.4684M25.685 92.8898C26.0375 92.9934 26.7205 93.3281 26.6327 93.8374M29.2552 87.7688C28.6667 87.3433 27.2095 86.6874 26.0887 87.4684" stroke="black" stroke-width="0.3"/>
<path d="M133.297 57.6413C133.332 56.564 132.727 56.1152 132.419 56.0254C132.181 56.8499 131.73 58.2601 131.254 59.4275C130.954 60.1666 130.643 60.8084 130.371 61.1425C130.029 61.5627 129.508 62.2286 129.053 62.9326C128.34 64.0338 127.787 65.2281 128.323 65.721C128.62 65.9949 128.909 66.1996 129.221 66.311C129.828 66.5283 130.524 66.391 131.543 65.721C132.347 65.1924 132.784 63.7561 133.021 62.1756C133.267 60.5349 133.297 58.7387 133.297 57.6413Z" fill="#B1A7C7"/>
<path d="M132.419 56.0254C132.727 56.1152 133.332 56.564 133.297 57.6413C133.297 58.7387 133.267 60.5349 133.021 62.1756M132.419 56.0254C132.438 57.0673 132.352 58.629 132.058 60.2563M132.419 56.0254C132.181 56.8499 131.73 58.2601 131.254 59.4275M129.221 66.311C129.828 66.5283 130.524 66.391 131.543 65.721C132.347 65.1924 132.784 63.7561 133.021 62.1756M129.221 66.311C128.909 66.1996 128.62 65.9949 128.323 65.721C127.787 65.2281 128.34 64.0338 129.053 62.9326M129.221 66.311C129.732 65.8987 130.166 65.3599 130.534 64.7403M131.563 62.3281C131.71 62.4736 132.206 62.6468 133.021 62.1756M131.563 62.3281C131.771 61.6488 131.933 60.9467 132.058 60.2563M131.563 62.3281C131.299 63.1932 130.962 64.0211 130.534 64.7403M132.058 60.2563C131.85 60.249 131.399 60.0729 131.254 59.4275M131.254 59.4275C130.954 60.1666 130.643 60.8084 130.371 61.1425C130.029 61.5627 129.508 62.2286 129.053 62.9326M130.534 64.7403C130.108 64.4628 129.215 63.7128 129.053 62.9326" stroke="black" stroke-width="0.3"/>
<path d="M172.361 7.08544C172.189 11.0388 172.381 13.0024 171.752 12.9565C170.964 12.097 169.014 10.3206 168.153 7.72517C167.68 6.29939 167.744 4.69784 168.177 3.2014C169.302 -0.677724 172.914 -3.85061 176.111 -1.42491C174.38 1.22979 173.418 2.63798 172.899 4.04563C172.565 4.94925 172.415 5.85266 172.361 7.08544Z" fill="#D2C75F"/>
<path d="M176.111 -1.42491C172.914 -3.85061 169.302 -0.677724 168.177 3.2014M176.111 -1.42491C174.38 1.22979 173.418 2.63798 172.899 4.04563M176.111 -1.42491C173.008 -0.633695 171.481 1.39497 170.872 3.77038M171.752 12.9565C172.381 13.0024 172.189 11.0388 172.361 7.08544C172.415 5.85266 172.565 4.94925 172.899 4.04563M171.752 12.9565C170.964 12.097 169.014 10.3206 168.153 7.72517C167.68 6.29939 167.744 4.69784 168.177 3.2014M171.752 12.9565C170.869 10.6625 170.067 6.91298 170.872 3.77038M171.101 2.18534C170.386 2.25014 168.801 2.54409 168.177 3.2014M170.336 5.56236C169.89 5.57858 168.803 5.84458 168.013 6.7788M172.899 4.04563C172.763 3.85787 172.169 3.53995 170.872 3.77038" stroke="black" stroke-width="0.3"/>
<path d="M108.051 2.58642C104.637 4.5868 102.811 5.33474 103.145 5.8689C104.273 6.16369 106.756 7.05807 109.453 6.60596C110.934 6.35759 112.32 5.5526 113.44 4.46953C116.344 1.66196 117.46 -3.01415 113.822 -4.70659C112.284 -1.93528 111.489 -0.426282 110.487 0.690476C109.844 1.40737 109.116 1.96263 108.051 2.58642Z" fill="#D2C75F"/>
<path d="M113.822 -4.70659C117.46 -3.01415 116.344 1.66196 113.44 4.46953M113.822 -4.70659C112.284 -1.93528 111.489 -0.426283 110.487 0.690476M113.822 -4.70659C114.573 -1.59309 113.493 0.704784 111.678 2.3531M103.145 5.8689C102.811 5.33474 104.637 4.5868 108.051 2.58642C109.116 1.96263 109.844 1.40737 110.487 0.690476M103.145 5.8689C104.273 6.16369 106.756 7.05807 109.453 6.60596C110.934 6.35759 112.32 5.5526 113.44 4.46953M103.145 5.8689C105.586 5.57753 109.276 4.53376 111.678 2.3531M112.972 1.41C113.249 2.07232 113.73 3.61146 113.44 4.46953M110.344 3.66507C110.538 4.06631 110.811 5.15234 110.354 6.28662M110.487 0.690476C110.716 0.722324 111.275 1.09944 111.678 2.3531" stroke="black" stroke-width="0.3"/>
<path d="M105.592 35.4854C107.307 34.4131 107.621 33.6686 109.154 30.7072C112.427 32.1166 109.957 37.3646 106.564 38.0343C104.845 38.3737 103.238 37.8465 102.51 37.6785C102.286 37.3425 103.442 36.8297 105.592 35.4854Z" fill="#ECE17E" stroke="black" stroke-width="0.3"/>
<path d="M14.5302 7.03452C14.7706 9.04279 15.3107 9.64351 17.3378 12.2915C14.6693 14.6536 10.972 10.1841 11.81 6.82912C12.2346 5.129 13.3955 3.89955 13.8574 3.31227C14.2568 3.25259 14.2289 4.51663 14.5302 7.03452Z" fill="#ECE17E" stroke="black" stroke-width="0.3"/>
<path d="M30.1025 30.7621C30.3428 32.7703 30.883 33.3711 32.9101 36.019C30.2416 38.3812 26.5442 33.9116 27.3822 30.5567C27.8069 28.8565 28.9677 27.6271 29.4297 27.0398C29.829 26.9801 29.8012 28.2442 30.1025 30.7621Z" fill="#ECE17E" stroke="black" stroke-width="0.3"/>
</g>
<defs>
<clipPath id="clip0">
<rect width="287" height="148" fill="white"/>
</clipPath>
</defs>
</svg>
