<svg width="486" height="148" viewBox="0 0 486 148" fill="none" xmlns="http://www.w3.org/2000/svg">
<path d="M393.434 15.0695C397.427 6.99548 407.535 -0.682804 412.09 -3.5127C410.741 -3.68744 409.072 -3.89458 407.177 -4.11859C404.981 -4.3781 402.483 -4.66024 399.829 -4.94092C398.472 -5.08443 397.074 -5.22756 395.656 -5.36708C391.448 -5.78093 387.056 -6.16302 382.995 -6.4292C380.236 -6.61005 377.6 -7.15221 375.337 -6.78485C360.692 -4.40776 363.216 -4.23018 351.766 1.75295C340.316 7.73608 340.751 10.797 335.7 14.4423C332.864 16.4892 328.244 18.8875 322.989 22.1589C318.885 24.7136 314.393 27.8007 310.058 31.6687C305.321 35.8962 299.442 44.24 296.329 48.7544C295.802 49.4339 295.303 50.1569 294.834 50.9266C294.427 51.5136 294.32 51.608 294.354 51.4864C294.447 51.1448 295.643 49.0982 294.354 51.4864C294.239 51.6988 294.105 51.9464 293.948 52.2333C290.868 57.8799 289.839 61.2281 288.555 64.027C287.35 66.655 285.921 68.7988 282.362 71.9062C275.929 77.523 277.266 83.3846 278.81 93.1477C279.029 94.5386 279.253 96.0086 279.46 97.5684C280.783 107.575 287.923 117.513 291.327 121.23C291.219 117.884 290.848 107.695 290.232 93.7062C289.462 76.2205 296.852 77.4136 308.442 67.6766C320.032 57.9396 325.451 56.4574 341.407 50.7455C357.363 45.0335 365.851 32.8442 370.865 31.5247C375.879 30.2052 388.442 25.162 393.434 15.0695Z" fill="#51938F"/>
<path d="M412.09 -3.5127C407.535 -0.682804 397.427 6.99548 393.434 15.0695C388.442 25.162 375.879 30.2052 370.865 31.5247C365.851 32.8442 357.363 45.0335 341.407 50.7455C325.451 56.4574 320.032 57.9396 308.442 67.6766C296.852 77.4136 289.462 76.2205 290.232 93.7062C290.848 107.695 291.219 117.884 291.327 121.23M412.09 -3.5127C407.359 -0.757511 396.739 5.71586 392.105 9.56787C386.313 14.3829 380.562 21.1231 373.67 22.7488C366.777 24.3744 359.515 27.4837 356.345 31.0998C353.175 34.7158 351.495 39.7189 344.034 42.5269C336.573 45.3348 325.976 47.5033 319.013 51.9444C312.051 56.3854 306.651 59.1038 301.522 63.9456C296.392 68.7873 290.785 71.6244 288.56 79.9868C286.335 88.3492 287.394 97.0205 287.344 102.745C287.303 107.324 289.982 116.976 291.327 121.23M412.09 -3.5127C410.741 -3.68744 409.072 -3.89458 407.177 -4.11859M291.327 121.23C287.923 117.513 280.783 107.575 279.46 97.5684C279.253 96.0086 279.029 94.5386 278.81 93.1477M407.177 -4.11859C403.74 -3.12286 395.405 0.363905 389.554 6.34507C382.239 13.8215 385.058 15.463 375.012 18.5485C364.967 21.6339 361.045 15.4677 353.505 25.9766C345.965 36.4854 341.688 38.4362 335.844 39.9094C330 41.3826 332.125 39.4694 323.377 43.8951C314.628 48.3208 318.366 47.6639 310.83 53.0325C303.294 58.4012 287.979 70.9128 285.401 78.9774C283.339 85.429 280.148 91.1125 278.81 93.1477M407.177 -4.11859C404.981 -4.3781 402.483 -4.66024 399.829 -4.94092M278.81 93.1477C277.266 83.3846 275.929 77.523 282.362 71.9062C285.921 68.7988 287.35 66.655 288.555 64.027M395.656 -5.36708C391.448 -3.08351 382.148 2.64526 378.61 7.29171C374.187 13.0998 373.175 9.50371 359.886 13.7144C346.597 17.9251 353.842 15.1157 342.824 24.3715C331.807 33.6274 331.27 35.3075 322.209 37.041C314.96 38.4278 301.614 39.787 294.834 50.9266M395.656 -5.36708C391.448 -5.78093 387.056 -6.16302 382.995 -6.4292M395.656 -5.36708C397.074 -5.22756 398.472 -5.08443 399.829 -4.94092M294.834 50.9266C293.18 53.3099 296.49 47.5727 293.948 52.2333C290.868 57.8799 289.839 61.2281 288.555 64.027M294.834 50.9266C297.065 47.7115 304.382 36.7347 310.058 31.6687C314.393 27.8007 318.885 24.7136 322.989 22.1589M382.995 -6.4292C380.236 -6.61005 377.6 -7.15221 375.337 -6.78485C360.692 -4.40776 363.216 -4.23018 351.766 1.75295C340.316 7.73608 340.751 10.797 335.7 14.4423C332.864 16.4892 328.244 18.8875 322.989 22.1589M382.995 -6.4292C380.416 -3.1385 372.989 4.23637 363.916 7.41018C352.574 11.3774 355.978 6.54002 348.459 12.0994C340.94 17.6587 345.215 16.8897 338.677 21.2377C333.446 24.7161 326.039 23.3012 322.989 22.1589M288.555 64.027C290.683 62.9281 296.047 59.6406 300.485 55.2815C306.032 49.8326 302.596 50.6093 309.501 46.6824C316.407 42.7556 315.378 43.0053 320.867 41.2413C326.356 39.4772 329.263 37.6288 335.398 35.7008C341.533 33.7728 343.825 28.7217 346.768 26.7428C349.711 24.764 353.911 17.1747 361.124 16.1468C368.337 15.1188 378.732 12.886 382.781 8.62462C386.019 5.21554 395.496 -1.83952 399.829 -4.94092" stroke="black" stroke-width="0.3"/>
<g style="mix-blend-mode:multiply">
<path d="M332.174 23.3832C330.456 23.7811 325.343 22.6762 323.002 22.074C326.081 20.2333 332.546 16.3646 333.766 15.6153C335.291 14.6786 336.596 14.0533 337.817 12.7091C339.038 11.3649 340.74 9.75768 341.79 8.46312C342.84 7.16856 344.51 5.92546 346.273 4.93456C348.121 3.89651 350.912 2.10801 353.335 0.849675C355.757 -0.408655 358.572 -1.59477 359.786 -2.75097C360.999 -3.90718 362.814 -3.62731 365.816 -5.23894C368.817 -6.85058 371.459 -6.06688 372.757 -6.50432C374.055 -6.94176 376.825 -7.00012 378.459 -6.91574C379.767 -6.84824 381.99 -6.55449 382.938 -6.41604C375.938 3.84586 360.697 8.31774 359.04 8.79725C357.383 9.27675 353.886 9.17413 352.71 9.39054C351.534 9.60695 349.391 11.4036 348.698 11.79C348.004 12.1764 344.956 14.4827 343.039 17.7004C341.121 20.9181 334.321 22.8857 332.174 23.3832Z" fill="#A7D0CE"/>
</g>
<g style="mix-blend-mode:multiply">
<path d="M308.36 40.218C294.036 45.2612 289.581 59.5534 287.978 65.6999C287.485 67.325 285.601 68.9073 284.721 69.4953C273.935 76.8033 277.583 84.3646 277.752 86.7986C277.887 88.7458 286.605 102.98 290.947 109.854C289.551 106.038 287.413 96.6997 290.031 89.8663C291.421 86.2407 289.567 84.4078 294.602 78.0938C299.565 73.7863 305.218 71.2082 308.073 68.0934C312.3 63.4817 324.827 57.0139 326.623 56.1535C328.419 55.2931 339.557 51.3885 342.105 50.6027C344.652 49.8168 350.376 46.2131 353.077 44.945C355.777 43.6768 361.496 38.7113 361.982 38.0352C362.171 37.7726 365.082 34.483 369.019 32.3969C373.19 30.1866 378.481 29.1357 381.796 27.4336C383.662 25.9199 387.674 22.6461 388.791 21.6608C390.187 20.4292 395.128 13.1088 395.553 11.3794C395.892 9.99584 399.135 7.14078 400.714 5.88619C403.519 3.23125 401.613 -1.67238 387.243 13.7839C382.735 13.0138 383.86 4.58068 376.651 12.849C357.909 34.3455 355.102 14.8574 351.331 16.7422C347.69 18.5615 345.329 22.8921 334.283 31.4489C324.187 39.2704 324.482 34.5417 308.36 40.218Z" fill="#85CCC8"/>
</g>
<g style="mix-blend-mode:multiply">
<path d="M346.122 42.7461C309.602 49.9264 291.996 72.1875 289.671 76.6119L301.47 72.9662C304.086 70.7537 311.012 65.8712 313.201 63.8516C315.936 61.3271 327.943 55.726 330.475 54.6781C333.008 53.6302 342.643 50.4485 345.938 49.0224C349.233 47.5962 354.357 44.3807 356.315 42.7111C357.882 41.3754 360.859 39.0857 362.152 38.1078C364.493 36.8332 365.905 34.1987 370.121 31.9604C377.497 29.5044 386.384 24.3479 387.347 23.0976C389.065 20.8676 393.608 15.063 394.268 13.5329C394.928 12.0028 397.467 9.61409 398.904 7.2291C400.34 4.8441 405.059 1.82443 407.267 -0.0746555C409.474 -1.97374 412.83 -3.52316 412.167 -3.53592C411.637 -3.54613 404.164 -4.65 400.494 -5.20066C377.255 -0.321345 375.657 36.9392 346.122 42.7461Z" fill="#C4C4C4"/>
</g>
<path d="M331.805 1.01864C337.021 12.5633 354.068 31.5986 364.148 42.5051C366.572 45.1565 368.495 43.8461 369.154 42.8595C369.055 41.518 365.711 35.8938 353.133 24.1284C340.554 12.363 332.81 -7.80619 330.509 -16.4201C330.006 -18.0774 328.436 -21.1427 326.186 -20.1454C323.374 -18.8989 328.093 -7.1976 331.805 1.01864Z" fill="#5C956D" stroke="black" stroke-width="0.3"/>
<g style="mix-blend-mode:multiply">
<path d="M353.366 28.4573C337.748 12.1969 329.586 -10.7773 327.457 -20.2318C326.148 -20.6521 325.383 -19.3591 325.297 -17.377C325.21 -15.3949 328.417 -6.61692 330.172 -2.32007C331.926 1.97678 334.164 5.36599 335.628 7.94417C337.093 10.5223 341.986 16.7465 343.254 18.216C344.269 19.3916 349.324 25.6055 351.725 28.5655L360.265 38.1815L363.426 41.8323L365.123 42.2058L353.366 28.4573Z" fill="#C4C4C4"/>
</g>
<path d="M348.71 50.2815C350.374 40.2801 361.395 40.8654 366.698 42.4082C368.333 42.0792 364.404 39.4659 362.08 38.9123C359.756 38.3586 349.608 34.4435 352.805 25.8016C356.002 17.1597 366.919 6.28402 388.028 9.69595C409.137 13.1079 411.859 41.3467 411.723 43.7317C411.499 47.6912 413.422 50.7649 414.122 52.2693C413.641 51.8553 411.295 52.7698 406.272 55.5502C399.994 59.0257 392.154 70.8141 375.732 74.6282C359.311 78.4423 346.63 62.7833 348.71 50.2815Z" fill="#FF878E" stroke="black" stroke-width="0.3"/>
<g style="mix-blend-mode:multiply">
<path d="M376.688 29.3141C370.105 28.4432 362.184 20.5657 359.046 16.7359L363.542 11.8115L401.912 17.2361L406.115 23.6925C406.241 24.3265 405.508 26.1929 401.567 28.587C396.64 31.5797 384.916 30.4028 376.688 29.3141Z" fill="#C4C4C4"/>
</g>
<path d="M352.06 50.4152C353.028 46.6041 358.944 43.4417 362.801 44.9051C365.274 45.8432 365.841 51.541 360.314 52.6305C355.892 53.5021 353.991 59.4307 354.272 62.8413C352.671 61.3879 350.849 55.1791 352.06 50.4152Z" fill="#FDB8BC"/>
<g style="mix-blend-mode:multiply">
<path d="M352.299 58.6246C352.282 47.3924 360.316 46.0221 364.259 46.6546C364.167 45.498 362.552 43.6219 359.38 43.9109C357.07 44.1213 352.904 45.6203 351.409 49.5787C350.356 52.3672 351.633 57.0622 352.299 58.6246Z" fill="#EFCED0"/>
</g>
<path d="M362.695 66.5704C358.452 59.8265 363.311 52.4923 368.232 50.4215C371.74 48.9453 378.903 53.0821 372.111 57.4515C367.572 60.3721 369.363 68.4776 370.397 72.0328C368.152 71.9884 366.319 72.3321 362.695 66.5704Z" fill="#FDB8BC"/>
<g style="mix-blend-mode:multiply">
<path d="M359.673 58.4491C361.505 51.2159 367.725 48.5891 370.981 50.3352C360.332 55.0373 362.947 68.1306 370.306 72.0334C365.177 73.9913 357.963 65.2047 359.673 58.4491Z" fill="#EFCED0"/>
</g>
<path d="M371.904 16.892C364.108 18.5363 361.255 25.2599 362.443 30.4652C363.29 34.1757 370.828 37.5808 370.416 29.5157C370.141 24.1248 378.461 20.1154 381.952 18.8821C380.606 17.0845 378.276 15.548 371.904 16.892Z" fill="#FDB8BC"/>
<path d="M390.725 20.9875C382.456 21.643 376.116 27.5966 375.783 32.9256C375.547 36.7242 381.814 42.1219 383.699 34.2693C384.96 29.0206 397.657 25.4657 401.354 25.27C400.572 23.1653 397.341 20.4629 390.725 20.9875Z" fill="#FDB8BC"/>
<path d="M379.925 63.0831C376.23 58.7911 376.565 53.8678 380.242 49.9959C382.863 47.236 391.083 48.1506 386.616 54.8783C383.63 59.3751 387.639 63.979 390.014 66.8201C387.607 67.4966 384.367 68.2416 379.925 63.0831Z" fill="#FDB8BC"/>
<path d="M399.192 36.1384C393.825 34.3283 389.39 36.4904 387.184 41.3531C385.613 44.8193 389.551 52.0927 394.105 45.4236C397.149 40.9659 402.923 42.9494 406.448 44.0811C406.17 41.5969 405.642 38.3139 399.192 36.1384Z" fill="#FDB8BC"/>
<g style="mix-blend-mode:multiply">
<path d="M386.948 67.3908C378.639 62.3103 379.43 54.2988 381.324 50.7824C380.201 50.4897 377.322 50.8894 376.552 53.9805C375.991 56.2313 376.497 61.203 379.22 64.0088C381.296 66.1477 385.254 67.5062 386.948 67.3908Z" fill="#EFCED0"/>
</g>
<g style="mix-blend-mode:multiply">
<path d="M406.732 43.5893C393.511 31.4557 388.053 43.7147 388.791 47.6398C387.632 47.5781 385.01 46.3238 385.214 43.1448C385.363 40.83 388.362 36.0621 392.076 34.8417C397.101 33.1909 406.281 35.3553 406.732 43.5893Z" fill="#EFCED0"/>
</g>
<g style="mix-blend-mode:multiply">
<path d="M362.465 45.5006C362.346 43.9531 363.546 42.2719 364.162 41.6248L400.94 59.4264L398.165 61.9257C396.412 62.1089 391.109 61.7668 383.926 58.9326C374.947 55.3899 362.613 47.4349 362.465 45.5006Z" fill="#E4A7A7"/>
</g>
<g style="mix-blend-mode:multiply">
<path d="M379.741 23.6307C374.096 28.5104 373.89 34.417 377.981 37.1806C377.411 25.5535 394.53 20.0432 401.317 24.8718C398.311 16.4229 385.013 19.0733 379.741 23.6307Z" fill="#EFCED0"/>
</g>
<g style="mix-blend-mode:multiply">
<path d="M362.848 31.796C362.831 20.5637 378.084 18.2844 382.028 18.9169C381.935 17.7604 379.366 15.1297 376.195 14.8291C368.563 14.1058 363.782 18.9321 361.958 22.75C360.126 26.5853 362.182 30.2335 362.848 31.796Z" fill="#EFCED0"/>
</g>
<g style="mix-blend-mode:multiply">
<path d="M387.821 24.9991C376.418 23.5063 364.816 33.1734 360.441 38.1935C356.301 38.1666 353.713 33.6521 352.97 32.5883C352.227 31.5246 349.982 19.0992 366.938 11.9629C384.665 4.50254 394.723 11.9686 398.481 14.1229C402.238 16.2771 408.078 25.7145 409.18 29.9692C410.062 33.373 412.081 39.4473 412.105 47.2563C408.956 41.7984 399.223 26.4919 387.821 24.9991Z" fill="#ECCCCC"/>
</g>
<path d="M391.49 57.4897C384.158 54.8803 369.292 48.763 365.495 44.1688C361.697 39.5747 367.566 37.5133 371.115 37.422C374.191 37.3429 379.604 42.4182 384.875 44.9318C390.146 47.4454 407.682 53.3814 410.27 56.0943C412.858 58.8072 411.682 59.7247 409.622 61.3304C407.562 62.936 400.656 60.7515 391.49 57.4897Z" fill="#FBC726" stroke="black" stroke-width="0.3"/>
<g style="mix-blend-mode:multiply">
<path d="M401.074 57.064C395.415 55.6958 375.517 45.1345 366.334 39.9344C364.775 39.6607 363.2 41.2532 364.399 43.0213C367.24 47.2113 378.729 52.5306 386.474 55.7423C392.36 58.1831 406.316 62.5259 408.674 61.8838C409.694 61.6063 410.679 60.8884 411.171 60.0757C411.662 59.263 409.121 59.0098 401.074 57.064Z" fill="#DCD275"/>
</g>
<path d="M286.498 -5.00003L254 -0.499725C256.79 1.67566 263.164 8.17478 269.5 13.5C279.69 22.0637 291.655 33.7636 298.265 40.3688C306.206 48.3036 314.135 56.8884 320.636 65.0384C322.727 67.6605 324.671 70.2377 326.42 72.7337C328.837 76.1834 330.549 80.004 331.68 84.0401C334.043 92.4699 333.873 101.84 332.297 110.735C330.093 123.171 325.141 134.679 320.523 141.391C323.797 143.256 334.264 143.175 344.311 130.077C348.702 124.353 353.013 116.142 356.608 104.52C359.178 96.2076 359.755 87.2219 358.735 78.1231C357.655 68.4776 354.78 58.705 350.587 49.473C346.95 41.4654 342.321 33.8645 337.009 27.1059C332.047 20.7931 326.489 15.2152 320.589 10.7273C317.209 8.15649 313.716 5.94338 310.158 4.15468L301.5 -2.5L286.498 -5.00003Z" fill="#62ACA8"/>
<path d="M356.608 104.52C359.178 96.2076 359.755 87.2219 358.735 78.1231M356.608 104.52C356.803 98.3399 350.755 92.1672 347.707 89.8533M356.608 104.52C353.013 116.142 348.702 124.353 344.311 130.077M286.498 -5.00003L254 -0.499725C256.79 1.67566 263.164 8.17478 269.5 13.5M286.498 -5.00003C287.296 -4.75343 289.767 -1.4621 292.67 2.50044M286.498 -5.00003L301.5 -2.5L310.158 4.15468C313.716 5.94338 317.209 8.15648 320.589 10.7273M325.894 39.5571C323.314 41.9274 318.65 50.342 320.636 65.0384M325.894 39.5571C323.321 36.2214 320.699 33.1049 318.113 30.2407M325.894 39.5571C328.585 43.0463 331.224 46.7753 333.712 50.7063M320.636 65.0384C322.727 67.6605 324.671 70.2377 326.42 72.7337C328.837 76.1834 330.549 80.004 331.68 84.0401M320.636 65.0384C314.135 56.8884 306.206 48.3036 298.265 40.3688M318.113 30.2407C321.51 27.3268 330.047 22.6204 337.009 27.1059M318.113 30.2407C315.491 27.3375 312.907 24.6935 310.447 22.3433M337.009 27.1059C332.047 20.7931 326.489 15.2152 320.589 10.7273M337.009 27.1059C342.321 33.8645 346.95 41.4654 350.587 49.473M310.447 22.3433C306.159 24.312 297.72 30.6733 298.265 40.3688M310.447 22.3433C308.047 20.0498 305.766 18.0361 303.685 16.3341M298.265 40.3688C291.655 33.7636 279.69 22.0637 269.5 13.5M303.685 16.3341C306.765 13.7715 314.457 9.06238 320.589 10.7273M303.685 16.3341C301.228 14.3244 296.561 7.80987 292.67 2.50044M333.712 50.7063C336.614 48.1277 344.052 44.271 350.587 49.473M333.712 50.7063C336.301 54.7967 338.728 59.1058 340.884 63.5909M350.587 49.473C354.78 58.705 357.655 68.4776 358.735 78.1231M340.884 63.5909C337.844 67.2137 331.748 76.3755 331.68 84.0401M340.884 63.5909C342.006 65.9247 343.054 68.306 344.013 70.729M331.68 84.0401C334.043 92.4699 333.873 101.84 332.297 110.735M344.013 70.729C345.093 73.4582 346.061 76.2401 346.894 79.0663C347.32 81.3699 347.711 85.1735 347.707 89.8533M344.013 70.729C348 70.6236 356.527 71.9548 358.735 78.1231M347.707 89.8533C347.704 93.8871 347.407 98.5719 346.585 103.508M344.311 130.077C334.264 143.175 323.797 143.256 320.523 141.391C325.141 134.679 330.093 123.171 332.297 110.735M344.311 130.077C346.594 122.827 343.398 115.993 343.683 115.069C345.025 111.187 345.958 107.275 346.585 103.508M346.585 103.508C343.342 103.474 335.944 104.871 332.297 110.735M292.67 2.50044C285.203 4.33375 270.408 8.3 269.5 13.5" stroke="#3A2C08" stroke-width="0.3"/>
<g style="mix-blend-mode:multiply">
<path d="M343.215 90.8706C341.023 55.961 289.042 9.07791 272.5 -4.00043L253.5 -0.499999C263.133 8.47225 301.5 41.5 308.027 50.4782C312.58 56.7419 319.386 63.1243 324.5 70C328.346 75.1713 331.018 80.8821 332.264 85.5821C335.165 96.5312 332.32 109.172 331.087 116.65C330.1 122.632 324.589 135.176 320.529 141.184L320.722 141.652C322.228 142.206 324.764 142.405 326.041 142.198C332.269 137.717 345.202 122.517 343.215 90.8706Z" fill="#C4C4C4"/>
</g>
<path d="M159.653 1.72035C158.873 -1.05661 162.022 -5.57113 163.694 -7.48127C165.254 -6.28688 167.73 -3.85095 168.982 -1.10331C169.646 0.351033 169.966 1.89271 169.627 3.38383C169.426 4.268 169.221 5.07849 169.019 5.81472C168.234 8.66593 167.486 10.4033 167.155 10.9923C166.003 9.96786 164.184 8.2058 162.614 6.36228C161.622 5.19806 160.728 4.00135 160.163 2.93744C159.934 2.50626 159.759 2.0969 159.653 1.72035Z" fill="#D2C75F"/>
<path d="M163.694 -7.48127C162.022 -5.57113 158.873 -1.05661 159.653 1.72035C159.759 2.0969 159.934 2.50626 160.163 2.93744M163.694 -7.48127C165.254 -6.28688 167.73 -3.85095 168.982 -1.10331M163.694 -7.48127C164.987 -6.40458 165.903 -4.93725 166.534 -3.27738M167.155 10.9923C167.611 8.78365 167.986 5.21835 167.634 1.68463M167.155 10.9923C166.003 9.96786 164.184 8.2058 162.614 6.36228M167.155 10.9923C167.486 10.4033 168.234 8.66593 169.019 5.81472M167.634 1.68463C166.032 2.21552 162.784 3.89428 162.614 6.36228M167.634 1.68463C167.554 0.882736 167.437 0.0824673 167.274 -0.699953M162.614 6.36228C161.622 5.19806 160.728 4.00135 160.163 2.93744M167.904 5.45252C168.223 5.38097 168.893 5.35325 169.019 5.81472M169.019 5.81472C169.221 5.07849 169.426 4.268 169.627 3.38383C169.966 1.89271 169.646 0.351033 168.982 -1.10331M167.274 -0.699953C167.692 -0.907553 168.619 -1.27886 168.982 -1.10331M167.274 -0.699953C167.09 -1.59017 166.847 -2.45728 166.534 -3.27738M166.534 -3.27738C164.882 -2.80518 161.293 -0.901136 160.163 2.93744" stroke="black" stroke-width="0.3"/>
<path d="M53.7174 49.1122C52.0508 51.4922 53.6317 55.4969 54.6304 57.2018C56.1231 56.4542 59.1621 54.4877 59.3771 52.6031C59.592 50.7184 57.9572 46.8116 57.1129 45.0937C56.6755 45.4416 55.384 46.7323 53.7174 49.1122Z" fill="#ECE17E" stroke="black" stroke-width="0.3"/>
<path d="M251.539 100.899C249.759 101.509 249.058 104.209 248.93 105.482C249.997 105.661 252.338 105.791 253.17 104.886C254.002 103.982 254.637 101.313 254.85 100.091C254.489 100.107 253.32 100.289 251.539 100.899Z" fill="#ECE17E" stroke="black" stroke-width="0.3"/>
<path d="M343.822 55.9043C342.846 57.531 339.266 58.0632 337.597 58.126C337.589 58.0483 337.582 57.967 337.575 57.8823C337.415 55.8251 337.711 51.8023 340.115 50.3839C340.609 50.0924 341.072 49.8335 341.501 49.6046C343.246 48.6741 344.434 48.2401 344.869 48.1313C344.918 49.7713 344.831 53.1161 344.19 55.0625C344.083 55.3867 343.961 55.6721 343.822 55.9043Z" fill="#B1A7C7"/>
<path d="M344.869 48.1313C344.918 49.7713 344.831 53.1161 344.19 55.0625M344.869 48.1313C344.45 49.537 343.644 51.6182 342.536 53.5M344.869 48.1313C344.434 48.2401 343.246 48.6741 341.501 49.6046M337.575 57.8823C337.582 57.967 337.589 58.0483 337.597 58.126C339.266 58.0632 342.846 57.531 343.822 55.9043C343.961 55.6721 344.083 55.3867 344.19 55.0625M337.575 57.8823C337.415 55.8251 337.711 51.8023 340.115 50.3839C340.609 50.0924 341.072 49.8335 341.501 49.6046M337.575 57.8823C339.056 57.6824 340.384 56.5462 341.501 55.0625M341.501 55.0625C341.96 55.25 343.141 55.5125 344.19 55.0625M341.501 55.0625C341.87 54.5725 342.215 54.0446 342.536 53.5M342.536 53.5C341.846 52.9031 340.673 51.2883 341.501 49.6046" stroke="black" stroke-width="0.3"/>
<path d="M37.3804 71.3271C35.6791 74.1634 29.4362 75.0914 26.5274 75.2009C26.5134 75.0654 26.5005 74.9237 26.489 74.7761C26.2088 71.189 26.7259 64.1747 30.9164 61.7016C31.7777 61.1933 32.5852 60.7418 33.3338 60.3427C36.3772 58.7203 38.4474 57.9635 39.2061 57.7738C39.2921 60.6335 39.1393 66.4655 38.0222 69.8593C37.8362 70.4245 37.6234 70.9221 37.3804 71.3271Z" fill="#B1A7C7"/>
<path d="M39.2061 57.7738C39.2921 60.6335 39.1393 66.4655 38.0222 69.8593M39.2061 57.7738C38.4764 60.2249 37.0696 63.8537 35.1385 67.1349M39.2061 57.7738C38.4474 57.9635 36.3772 58.7203 33.3338 60.3427M26.489 74.7761C26.5005 74.9237 26.5134 75.0654 26.5274 75.2009C29.4362 75.0914 35.6791 74.1634 37.3804 71.3271C37.6234 70.9221 37.8362 70.4245 38.0222 69.8593M26.489 74.7761C26.2088 71.189 26.7259 64.1747 30.9164 61.7016C31.7777 61.1933 32.5852 60.7418 33.3338 60.3427M26.489 74.7761C29.0709 74.4274 31.3867 72.4463 33.3338 69.8593M33.3338 69.8593C34.1346 70.1862 36.1934 70.6439 38.0222 69.8593M33.3338 69.8593C33.9768 69.0049 34.5796 68.0844 35.1385 67.1349M35.1385 67.1349C33.9354 66.094 31.8901 63.2784 33.3338 60.3427" stroke="black" stroke-width="0.3"/>
<path d="M147.053 30.9043C148.029 32.531 151.609 33.0632 153.278 33.126C153.286 33.0483 153.293 32.967 153.3 32.8823C153.46 30.8251 153.164 26.8023 150.76 25.3839C150.266 25.0924 149.803 24.8335 149.374 24.6046C147.629 23.6741 146.441 23.2401 146.006 23.1313C145.957 24.7713 146.044 28.1161 146.685 30.0625C146.792 30.3867 146.914 30.6721 147.053 30.9043Z" fill="#B1A7C7"/>
<path d="M146.006 23.1313C145.957 24.7713 146.044 28.1161 146.685 30.0625M146.006 23.1313C146.425 24.537 147.231 26.6182 148.339 28.5M146.006 23.1313C146.441 23.2401 147.629 23.6741 149.374 24.6046M153.3 32.8823C153.293 32.967 153.286 33.0483 153.278 33.126C151.609 33.0632 148.029 32.531 147.053 30.9043C146.914 30.6721 146.792 30.3867 146.685 30.0625M153.3 32.8823C153.46 30.8251 153.164 26.8023 150.76 25.3839C150.266 25.0924 149.803 24.8335 149.374 24.6046M153.3 32.8823C151.819 32.6824 150.491 31.5462 149.374 30.0625M149.374 30.0625C148.915 30.25 147.734 30.5125 146.685 30.0625M149.374 30.0625C149.005 29.5725 148.66 29.0446 148.339 28.5M148.339 28.5C149.029 27.9031 150.202 26.2883 149.374 24.6046" stroke="black" stroke-width="0.3"/>
<path d="M470.942 -3.59551C474.114 -4.06727 476.033 -3.38368 477.138 -2.38512C478.105 -1.51128 478.449 -0.396238 478.462 0.396846C478.192 3.71424 475.833 9.98098 468.848 12.6521C467.423 13.1967 465.807 13.5919 463.976 13.7821C461.644 14.0245 459.829 14.0304 458.37 13.8852C453.072 13.3575 452.485 10.8339 448.915 10.4069C454.632 10.1924 458.351 8.02753 461.142 5.45863C463.512 3.27744 465.213 0.804971 466.898 -1.01219C468.162 -2.37479 469.418 -3.36893 470.942 -3.59551Z" fill="#C37D5E"/>
<path d="M448.915 10.4069C452.663 10.5009 458.191 10.1066 463.382 8.69744M448.915 10.4069C454.632 10.1924 458.351 8.02753 461.142 5.45863M448.915 10.4069C452.485 10.8339 453.072 13.3575 458.37 13.8852M477.138 -2.38512C476.033 -3.38368 474.114 -4.06727 470.942 -3.59551C469.418 -3.36893 468.162 -2.37479 466.898 -1.01219M477.138 -2.38512C478.105 -1.51128 478.449 -0.396238 478.462 0.396846C478.192 3.71424 475.833 9.98098 468.848 12.6521M477.138 -2.38512C476.532 0.407709 474.903 2.62732 472.677 4.37926M468.138 7.03977C468.88 8.095 470.059 10.6948 468.848 12.6521M468.138 7.03977C466.631 7.70488 465.023 8.25189 463.382 8.69744M468.138 7.03977C469.804 6.30469 471.347 5.42534 472.677 4.37926M468.848 12.6521C467.423 13.1967 465.807 13.5919 463.976 13.7821C461.644 14.0245 459.829 14.0304 458.37 13.8852M463.382 8.69744C463.015 7.79586 462.054 5.88589 461.142 5.45863M461.142 5.45863C463.512 3.27744 465.213 0.804971 466.898 -1.01219M459.982 9.53429C459.927 10.8486 459.527 13.5588 458.37 13.8852M472.677 4.37926C472.242 3.16663 470.478 0.39066 466.898 -1.01219" stroke="black" stroke-width="0.3"/>
<path d="M266.299 13.3991C265.551 11.2019 264.523 10.0155 263.503 9.43479C262.273 8.73459 261.053 8.91482 260.344 9.26542C258.212 10.594 254.966 14.0694 254.747 19.2507C254.669 21.1052 254.979 23.1784 255.866 25.4498C255.911 25.5638 255.955 25.676 255.999 25.7864C259.309 34.0214 262.137 32.3407 264.297 35.5311C264.295 35.5282 264.294 35.5249 264.292 35.5211C262.258 31.1774 262.411 27.5623 263.235 24.4789C263.832 22.244 264.781 20.2884 265.504 18.5373C266.299 16.6104 266.821 14.9309 266.299 13.3991Z" fill="#BE9E4A"/>
<path d="M264.297 35.5311C264.157 35.2232 261.08 29.8521 260.203 23.3976M264.297 35.5311C262.257 31.1829 262.411 27.5646 263.235 24.4789M264.297 35.5311C262.137 32.3407 259.309 34.0214 255.999 25.7864M263.503 9.43479C264.523 10.0155 265.551 11.2019 266.299 13.3991C266.821 14.9309 266.299 16.6104 265.504 18.5373M263.503 9.43479C262.273 8.73459 261.053 8.91482 260.344 9.26542C258.212 10.594 254.966 14.0694 254.747 19.2507M263.503 9.43479C262.119 11.1473 261.213 13.0024 260.666 14.9069M260.087 17.8926C259.161 17.7011 256.796 17.7048 254.747 19.2507M260.087 17.8926C260.195 16.8927 260.382 15.8932 260.666 14.9069M260.087 17.8926C259.967 19.0032 259.945 20.1143 259.999 21.208M254.747 19.2507C254.669 21.1052 254.979 23.1784 255.866 25.4498C255.911 25.5638 255.955 25.676 255.999 25.7864M260.203 23.3976C260.935 23.3614 262.567 23.527 263.235 24.4789M260.203 23.3976C260.105 22.6793 260.035 21.9476 259.999 21.208M263.235 24.4789C263.832 22.244 264.781 20.2884 265.504 18.5373M260.666 14.9069C261.724 14.9352 264.173 15.7008 265.504 18.5373M259.999 21.208C258.744 21.5692 256.188 22.9904 255.999 25.7864" stroke="black" stroke-width="0.3"/>
<path d="M298.969 41.0928C300.341 39.8919 301.478 39.5961 302.334 39.7055C303.141 39.8086 303.698 40.2718 303.968 40.6761C304.577 41.8178 305.144 43.8855 304.709 46.1797C304.351 48.0714 303.311 50.1171 301.052 51.9246C300.499 52.3666 299.994 52.7347 299.529 53.0414C295.791 55.5092 294.673 53.9993 292.511 55.0492C296.852 52.0235 297.222 48.1837 297.577 45.1771C297.67 44.392 297.762 43.6637 297.923 43.0216C298.121 42.229 298.426 41.5677 298.969 41.0928Z" fill="#D2C75F"/>
<path d="M292.511 55.0492C294.412 54.0113 297.143 52.0517 299.276 49.4958M292.511 55.0492C294.673 53.9993 295.791 55.5092 299.529 53.0414M292.511 55.0492C297.986 51.2335 297.145 46.1228 297.923 43.0216M302.334 39.7055C301.478 39.5961 300.341 39.8919 298.969 41.0928C298.426 41.5677 298.121 42.229 297.923 43.0216M302.334 39.7055C303.141 39.8086 303.698 40.2718 303.968 40.6761C304.577 41.8178 305.144 43.8855 304.709 46.1797M302.334 39.7055C302.495 40.4405 302.559 41.1641 302.542 41.8734M302.172 44.282C302.664 44.3745 303.859 44.8834 304.709 46.1797M302.172 44.282C302.005 44.8758 301.786 45.4554 301.525 46.0187M302.172 44.282C302.392 43.5019 302.522 42.6974 302.542 41.8734M304.709 46.1797C304.351 48.0714 303.311 50.1171 301.052 51.9246C300.499 52.3666 299.994 52.7347 299.529 53.0414M299.276 49.4958C299.69 49.9049 300.32 51.1867 299.529 53.0414M299.276 49.4958C300.164 48.4322 300.948 47.2654 301.525 46.0187M301.525 46.0187C300.852 45.6534 299.393 44.9091 297.577 45.1771M302.542 41.8734C301.635 41.7294 299.44 41.7576 297.923 43.0216" stroke="black" stroke-width="0.3"/>
<path d="M418.031 30.3301C419.312 29.6991 420.357 29.4819 421.195 29.5146C422.854 29.5793 423.698 30.6251 423.952 31.3782C424.458 33.5804 424.24 38.0442 420.507 41.3226C419.582 42.1351 418.44 42.8747 417.041 43.4891C416.25 43.8363 415.54 44.1103 414.898 44.3241C409.819 46.0152 408.996 43.9366 406.168 44.4879C411.025 42.7256 413.015 39.5404 414.317 36.602C415.553 33.8128 416.17 31.2461 418.031 30.3301Z" fill="#D2C75F"/>
<path d="M406.168 44.4879C408.628 43.7448 412.571 42.2355 415.85 40.2564M406.168 44.4879C408.996 43.9366 409.819 46.0152 414.898 44.3241M406.168 44.4879C411.025 42.7256 413.015 39.5404 414.317 36.602M421.195 29.5146C420.357 29.4819 419.312 29.6991 418.031 30.3301C416.17 31.2461 415.553 33.8128 414.317 36.602M421.195 29.5146C422.854 29.5793 423.698 30.6251 423.952 31.3782C424.458 33.5804 424.24 38.0442 420.507 41.3226M421.195 29.5146C421.948 30.8189 421.604 33.5572 421.338 34.7632C421.111 35.4472 420.712 36.1144 420.181 36.7588M415.85 40.2564C415.948 41.238 415.897 43.4259 414.898 44.3241M415.85 40.2564C416.897 39.624 417.877 38.9437 418.718 38.2251M414.898 44.3241C415.54 44.1103 416.25 43.8363 417.041 43.4891C418.44 42.8747 419.582 42.1351 420.507 41.3226M414.317 36.602C415.88 35.9757 419.241 35.1304 420.181 36.7588M420.181 36.7588C419.767 37.2623 419.272 37.752 418.718 38.2251M418.718 38.2251C419.314 38.59 420.505 39.7204 420.507 41.3226" stroke="black" stroke-width="0.3"/>
<path d="M174 93.6963C175.6 95.6963 178 95.863 179 95.6963C180.385 95.6963 180 92.1963 177.5 90.1963C175.5 88.5963 173.833 87.0296 172.5 86.6963C172.333 88.1963 172.4 91.6963 174 93.6963Z" fill="#ECE17E" stroke="black" stroke-width="0.3"/>
<path d="M305.85 135.868C306.72 136.973 308.025 137.065 308.569 136.973C309.322 136.973 309.113 135.039 307.753 133.934C306.665 133.05 305.759 132.184 305.034 132C304.943 132.829 304.979 134.763 305.85 135.868Z" fill="#ECE17E" stroke="black" stroke-width="0.3"/>
<path d="M253.38 66.2358C253.766 63.7037 255.761 62.3594 256.71 62.0037C257.91 61.3111 259.327 64.5346 258.162 67.5168C257.229 69.9025 256.569 72.0927 255.581 73.048C254.687 71.8323 252.995 68.7678 253.38 66.2358Z" fill="#FFC37C" stroke="black" stroke-width="0.3"/>
<path d="M207.062 42.6963C209.563 44.6963 209.947 48.1963 208.562 48.1963C207.712 48.3381 205.848 48.2386 204.326 46.9749C204.058 46.753 203.801 46.4951 203.562 46.1963C202.855 45.3118 202.447 44.1339 202.227 42.9654C201.949 41.4917 201.969 40.0329 202.062 39.1963C203.269 39.4979 204.748 40.809 206.5 42.241C206.684 42.3918 206.872 42.5439 207.062 42.6963Z" fill="#D2C75F"/>
<path d="M208.562 48.1963C209.947 48.1963 209.563 44.6963 207.062 42.6963C206.872 42.5439 206.684 42.3918 206.5 42.241M208.562 48.1963C208.001 47.9658 207.335 47.3426 206.641 46.5083M208.562 48.1963C207.712 48.3381 205.848 48.2386 204.326 46.9749M202.062 39.1963C203.269 39.4979 204.748 40.809 206.5 42.241M202.062 39.1963C202.533 40.1231 203.226 41.3961 204.012 42.6963M202.062 39.1963C201.969 40.0329 201.949 41.4917 202.227 42.9654M205.639 45.1963C205.926 44.7261 206.5 43.4768 206.5 42.241M205.639 45.1963C205.081 44.411 204.526 43.5478 204.012 42.6963M205.639 45.1963C205.974 45.6683 206.311 46.1121 206.641 46.5083M204.012 42.6963C203.659 42.8757 202.808 43.1806 202.227 42.9654M202.227 42.9654C202.447 44.1339 202.855 45.3118 203.562 46.1963C203.801 46.4951 204.058 46.753 204.326 46.9749M206.641 46.5083C206.144 46.7567 204.986 47.1978 204.326 46.9749" stroke="black" stroke-width="0.3"/>
<path d="M404.062 85.5C406.563 87.5 406.947 91 405.562 91C404.712 91.1418 402.848 91.0424 401.326 89.7786C401.058 89.5567 400.801 89.2988 400.562 89C399.855 88.1155 399.447 86.9376 399.227 85.7691C398.949 84.2954 398.969 82.8366 399.062 82C400.269 82.3016 401.748 83.6127 403.5 85.0447C403.684 85.1955 403.872 85.3476 404.062 85.5Z" fill="#D2C75F"/>
<path d="M405.562 91C406.947 91 406.563 87.5 404.062 85.5C403.872 85.3476 403.684 85.1955 403.5 85.0447M405.562 91C405.001 90.7696 404.335 90.1464 403.641 89.3121M405.562 91C404.712 91.1418 402.848 91.0424 401.326 89.7786M399.062 82C400.269 82.3016 401.748 83.6127 403.5 85.0447M399.062 82C399.533 82.9268 400.226 84.1998 401.012 85.5M399.062 82C398.969 82.8366 398.949 84.2954 399.227 85.7691M402.639 88C402.926 87.5298 403.5 86.2805 403.5 85.0447M402.639 88C402.081 87.2147 401.526 86.3515 401.012 85.5M402.639 88C402.974 88.472 403.311 88.9158 403.641 89.3121M401.012 85.5C400.659 85.6794 399.808 85.9843 399.227 85.7691M399.227 85.7691C399.447 86.9376 399.855 88.1155 400.562 89C400.801 89.2988 401.058 89.5567 401.326 89.7786M403.641 89.3121C403.144 89.5605 401.986 90.0015 401.326 89.7786" stroke="black" stroke-width="0.3"/>
<path d="M354.023 132.993C352.369 130.272 351.933 125.401 351.315 119.777C351.209 118.81 351.097 117.82 350.973 116.815C350.764 115.115 350.825 113.464 351.08 111.931C352.107 105.749 356.271 101.483 358.405 103.617C360.182 104.897 363.266 108.275 364.116 113.037C364.335 114.264 364.405 115.582 364.267 116.981C364.071 118.961 363.391 120.929 362.447 122.787C360.137 127.336 356.248 131.223 354.023 132.993Z" fill="#C37D5E"/>
<path d="M358.405 103.617C356.271 101.483 352.107 105.749 351.08 111.931M358.405 103.617C359.024 104.483 359.186 106.334 359.044 108.745M358.405 103.617C360.182 104.897 363.266 108.275 364.116 113.037M354.023 132.993C352.369 130.272 351.933 125.401 351.315 119.777M354.023 132.993C355.011 129.592 356.303 124.681 357.335 119.818M354.023 132.993C356.248 131.223 360.137 127.336 362.447 122.787M358.296 114.817C356.882 114.547 353.507 115.161 351.315 119.777M358.296 114.817C358.023 116.434 357.695 118.123 357.335 119.818M358.296 114.817C358.49 113.667 358.656 112.553 358.785 111.499M351.315 119.777C351.209 118.81 351.097 117.82 350.973 116.815C350.764 115.115 350.825 113.464 351.08 111.931M351.08 111.931C352.903 110.263 357.047 107.291 359.044 108.745M359.044 108.745C358.994 109.599 358.905 110.523 358.785 111.499M357.335 119.818C358.555 119.609 361.284 119.91 362.447 122.787M362.447 122.787C363.391 120.929 364.071 118.961 364.267 116.981C364.405 115.582 364.335 114.264 364.116 113.037M358.785 111.499C359.896 111.313 362.518 111.36 364.116 113.037" stroke="black" stroke-width="0.3"/>
<path d="M56.0209 18.9926C54.3672 16.2721 53.9306 11.401 53.3132 5.77725C53.207 4.80977 53.0955 3.82002 52.9715 2.81511C52.7617 1.11486 52.8235 -0.535881 53.0781 -2.0688C54.105 -8.25145 58.2689 -12.5173 60.4029 -10.3833C62.1803 -9.10296 65.2645 -5.72528 66.1139 -0.962533C66.3327 0.26404 66.4032 1.58248 66.265 2.98061C66.0694 4.96051 65.3892 6.92908 64.4455 8.78716C62.1351 13.336 58.2457 17.2228 56.0209 18.9926Z" fill="#C37D5E"/>
<path d="M60.4029 -10.3833C58.2689 -12.5173 54.105 -8.25145 53.0781 -2.0688M60.4029 -10.3833C61.022 -9.5166 61.1841 -7.66611 61.042 -5.25542M60.4029 -10.3833C62.1803 -9.10296 65.2645 -5.72528 66.1139 -0.962533M56.0209 18.9926C54.3672 16.2721 53.9306 11.401 53.3132 5.77725M56.0209 18.9926C57.0095 15.5917 58.3012 10.681 59.3332 5.81817M56.0209 18.9926C58.2457 17.2228 62.1351 13.336 64.4455 8.78716M60.2939 0.816885C58.8805 0.54674 55.5055 1.16061 53.3132 5.77725M60.2939 0.816885C60.0211 2.43419 59.6929 4.12327 59.3332 5.81817M60.2939 0.816885C60.4879 -0.333319 60.6539 -1.44722 60.7834 -2.50108M53.3132 5.77725C53.207 4.80977 53.0955 3.82002 52.9715 2.81511C52.7617 1.11486 52.8235 -0.535882 53.0781 -2.0688M53.0781 -2.0688C54.9006 -3.73686 59.0448 -6.70947 61.042 -5.25542M61.042 -5.25542C60.9917 -4.40134 60.9032 -3.47695 60.7834 -2.50108M59.3332 5.81817C60.5527 5.60884 63.2824 5.90957 64.4455 8.78716M64.4455 8.78716C65.3892 6.92908 66.0694 4.96051 66.265 2.98061C66.4032 1.58248 66.3327 0.26404 66.1139 -0.962533M60.7834 -2.50108C61.8945 -2.68729 64.5163 -2.64027 66.1139 -0.962533" stroke="black" stroke-width="0.3"/>
<path d="M217.126 27.0265C216.164 26.7047 214.123 25.4319 213.648 22.9151C213.543 22.3626 213.538 21.7809 213.603 21.1963C213.832 19.1178 214.942 17.0022 215.606 16.0292C216.167 16.5347 216.643 17.4164 217.126 18.4985C217.522 19.3852 217.923 20.4065 218.381 21.4654C218.542 21.84 218.663 22.2199 218.746 22.5964C218.954 23.5283 218.939 24.4395 218.785 25.1963C218.513 26.5331 217.807 27.3884 217.126 27.0265Z" fill="#D2C75F"/>
<path d="M217.126 27.0265C216.164 26.7047 214.123 25.4319 213.648 22.9151C213.543 22.3626 213.538 21.7809 213.603 21.1963M217.126 27.0265C216.785 26.7152 216.509 26.2565 216.286 25.6963M217.126 27.0265C217.807 27.3884 218.513 26.5331 218.785 25.1963M215.606 16.0292C215.524 16.8708 215.459 17.9885 215.45 19.1963M215.606 16.0292C216.167 16.5347 216.643 17.4164 217.126 18.4985M215.606 16.0292C214.942 17.0022 213.832 19.1178 213.603 21.1963M215.606 22.5964C216.068 22.9733 217.344 23.5011 218.746 22.5964M215.606 22.5964C215.556 22.1378 215.519 21.6678 215.494 21.1963M215.606 22.5964C215.733 23.7568 215.947 24.844 216.286 25.6963M218.746 22.5964C218.663 22.2199 218.542 21.84 218.381 21.4654C217.923 20.4065 217.522 19.3852 217.126 18.4985M218.746 22.5964C218.954 23.5283 218.939 24.4395 218.785 25.1963M215.45 19.1963C215.884 19.2311 216.827 19.1403 217.126 18.4985M215.45 19.1963C215.446 19.8466 215.459 20.5229 215.494 21.1963M215.494 21.1963C215.231 21.363 214.485 21.5963 213.603 21.1963M216.286 25.6963C216.881 25.863 218.214 25.9963 218.785 25.1963" stroke="black" stroke-width="0.3"/>
<path d="M282.817 28.0265C281.856 27.7047 279.814 26.4319 279.339 23.9151C279.235 23.3626 279.23 22.7809 279.294 22.1963C279.524 20.1178 280.633 18.0022 281.297 17.0292C281.858 17.5347 282.334 18.4164 282.817 19.4985C283.213 20.3852 283.614 21.4065 284.072 22.4654C284.234 22.84 284.354 23.2199 284.438 23.5964C284.645 24.5283 284.63 25.4395 284.477 26.1963C284.205 27.5331 283.499 28.3884 282.817 28.0265Z" fill="#D2C75F"/>
<path d="M282.817 28.0265C281.856 27.7047 279.814 26.4319 279.339 23.9151C279.235 23.3626 279.23 22.7809 279.294 22.1963M282.817 28.0265C282.477 27.7152 282.2 27.2565 281.977 26.6963M282.817 28.0265C283.499 28.3884 284.205 27.5331 284.477 26.1963M281.297 17.0292C281.216 17.8708 281.15 18.9885 281.142 20.1963M281.297 17.0292C281.858 17.5347 282.334 18.4164 282.817 19.4985M281.297 17.0292C280.633 18.0022 279.524 20.1178 279.294 22.1963M281.297 23.5964C281.76 23.9733 283.035 24.5011 284.438 23.5964M281.297 23.5964C281.247 23.1378 281.211 22.6678 281.186 22.1963M281.297 23.5964C281.424 24.7568 281.639 25.844 281.977 26.6963M284.438 23.5964C284.354 23.2199 284.234 22.84 284.072 22.4654C283.614 21.4065 283.213 20.3852 282.817 19.4985M284.438 23.5964C284.645 24.5283 284.63 25.4395 284.477 26.1963M281.142 20.1963C281.576 20.2311 282.518 20.1403 282.817 19.4985M281.142 20.1963C281.138 20.8466 281.15 21.5229 281.186 22.1963M281.186 22.1963C280.923 22.363 280.177 22.5963 279.294 22.1963M281.977 26.6963C282.572 26.863 283.905 26.9963 284.477 26.1963" stroke="black" stroke-width="0.3"/>
<path d="M283.538 64.3164C282.202 63.3045 278.56 61.7056 274.682 63.4049C273.666 63.85 272.725 64.5265 271.874 65.3244C269.474 67.573 267.781 70.7857 267.111 72.5009C268.324 72.7954 269.971 72.6219 271.899 72.2719C273.478 71.9851 275.246 71.5799 277.119 71.2166C278.539 70.941 279.815 70.3798 280.876 69.688C283.698 67.8497 285.011 65.0893 283.538 64.3164Z" fill="#ECE17E"/>
<path d="M283.538 64.3164C282.202 63.3045 278.56 61.7056 274.682 63.4049C273.666 63.85 272.725 64.5265 271.874 65.3244M283.538 64.3164C282.5 64.0715 281.234 64.228 279.856 64.6512M283.538 64.3164C285.011 65.0893 283.698 67.8497 280.876 69.688M267.111 72.5009C267.781 70.7857 269.474 67.573 271.874 65.3244M267.111 72.5009C268.378 71.4079 270.214 69.9673 272.255 68.5935M267.111 72.5009C268.324 72.7954 269.971 72.6219 271.899 72.2719M274.795 66.9936C274.495 66.2244 273.492 64.8136 271.874 65.3244M274.795 66.9936C273.931 67.498 273.076 68.0404 272.255 68.5935M274.795 66.9936C276.508 65.9937 278.256 65.1426 279.856 64.6512M272.255 68.5935C272.878 69.0558 273.679 70.4386 271.899 72.2719M271.899 72.2719C273.478 71.9851 275.246 71.5799 277.119 71.2166C278.539 70.941 279.815 70.3798 280.876 69.688M279.856 64.6512C280.795 65.4348 282.314 67.5391 280.876 69.688" stroke="black" stroke-width="0.3"/>
<path d="M209.914 82.2971C210.209 80.8171 211.533 79.0054 213.105 76.8994C213.574 76.2714 214.065 75.6173 214.557 74.9379C214.927 74.4266 215.341 73.971 215.78 73.5706C218.512 71.0763 222.205 70.7273 222.286 72.427C222.572 73.7497 222.526 76.8401 220.271 79.2106C220.118 79.3718 219.954 79.5297 219.779 79.6835C218.265 81.0189 216.065 81.7179 214.038 82.0531C212.399 82.3241 210.874 82.3574 209.914 82.2971Z" fill="#704A4A"/>
<path d="M222.286 72.427C222.572 73.7497 222.526 76.8401 220.271 79.2106M222.286 72.427C222.112 73.4499 221.096 74.6729 219.676 75.9227M222.286 72.427C222.205 70.7273 218.512 71.0763 215.78 73.5706M209.914 82.2971C210.209 80.8171 211.533 79.0054 213.105 76.8994M209.914 82.2971C210.946 81.7625 212.26 81.0336 213.645 80.1944M209.914 82.2971C210.874 82.3574 212.399 82.3241 214.038 82.0531M216.33 78.4729C215.877 77.9194 214.598 76.8298 213.105 76.8994M216.33 78.4729C215.443 79.0772 214.53 79.6583 213.645 80.1944M216.33 78.4729C217.119 77.9349 217.888 77.3784 218.597 76.8191M213.105 76.8994C213.574 76.2714 214.065 75.6173 214.557 74.9379C214.927 74.4266 215.341 73.971 215.78 73.5706M213.645 80.1944C213.916 80.5816 214.374 81.4954 214.038 82.0531M214.038 82.0531C216.065 81.7179 218.265 81.0189 219.779 79.6835C219.954 79.5297 220.118 79.3718 220.271 79.2106M220.271 79.2106C220.39 78.7049 220.438 77.3393 219.676 75.9227M219.676 75.9227C219.338 76.2208 218.976 76.5203 218.597 76.8191M218.597 76.8191C218.291 75.9582 217.298 74.1032 215.78 73.5706" stroke="black" stroke-width="0.3"/>
<path d="M234.733 105.166C234.363 104.231 234.447 102.737 234.564 100.989C234.599 100.468 234.637 99.9245 234.666 99.3662C234.688 98.946 234.755 98.5411 234.855 98.1582C235.481 95.7727 237.421 94.2402 238.083 95.1618C238.722 95.7984 239.815 97.5446 239.411 99.6878C239.384 99.8336 239.349 99.9812 239.307 100.13C238.944 101.426 237.966 102.614 236.953 103.536C236.134 104.281 235.292 104.852 234.733 105.166Z" fill="#704A4A"/>
<path d="M238.083 95.1618C238.722 95.7984 239.815 97.5446 239.411 99.6878M238.083 95.1618C238.355 95.7975 238.23 96.8497 237.888 98.0633M238.083 95.1618C237.421 94.2402 235.481 95.7727 234.855 98.1582M234.733 105.166C234.363 104.231 234.447 102.737 234.564 100.989M234.733 105.166C235.117 104.493 235.589 103.609 236.06 102.638M234.733 105.166C235.292 104.852 236.134 104.281 236.953 103.536M236.939 100.702C236.485 100.557 235.375 100.41 234.564 100.989M236.939 100.702C236.661 101.362 236.361 102.018 236.06 102.638M236.939 100.702C237.186 100.115 237.414 99.5254 237.609 98.9556M234.564 100.989C234.599 100.468 234.637 99.9245 234.666 99.3662C234.688 98.946 234.755 98.5411 234.855 98.1582M236.06 102.638C236.352 102.756 236.939 103.102 236.953 103.536M236.953 103.536C237.966 102.614 238.944 101.426 239.307 100.13C239.349 99.9812 239.384 99.8336 239.411 99.6878M239.411 99.6878C239.295 99.3617 238.827 98.5802 237.888 98.0633M237.888 98.0633C237.806 98.3527 237.712 98.6513 237.609 98.9556M237.609 98.9556C237.125 98.5849 235.898 97.9065 234.855 98.1582" stroke="black" stroke-width="0.3"/>
<path d="M409.698 3.62369C409.63 4.23557 409.491 4.84667 409.296 5.4498C408.082 9.20127 404.711 12.6449 402.949 14.0544C402.032 12.5269 401.732 9.9266 401.434 6.86732C401.333 5.83076 401.232 4.74151 401.108 3.62342C400.968 2.36053 401.059 1.13713 401.304 0.0215387C402.132 -3.74115 404.706 -6.27743 406.017 -4.96633C406.931 -4.31302 408.38 -2.79158 409.18 -0.625997C409.631 0.598206 409.876 2.02826 409.698 3.62369Z" fill="#FFE999"/>
<path d="M406.017 -4.96633C406.425 -4.18575 406.584 -3.04065 406.566 -1.67886M406.017 -4.96633C406.931 -4.31302 408.38 -2.79158 409.18 -0.625997M406.017 -4.96633C404.706 -6.27743 402.132 -3.74115 401.304 0.0215387M402.949 14.0544C404.711 12.6449 408.082 9.20127 409.296 5.4498M402.949 14.0544C403.732 11.8984 404.772 8.62481 405.536 5.33999M402.949 14.0544C402.032 12.5269 401.732 9.9266 401.434 6.86732M406.126 2.46497C407.176 2.78365 409.28 3.82677 409.296 5.4498M406.126 2.46497C406.218 1.93208 406.299 1.40793 406.365 0.897658M406.126 2.46497C405.962 3.40547 405.761 4.37322 405.536 5.33999M409.296 5.4498C409.491 4.84667 409.63 4.23557 409.698 3.62369C409.876 2.02826 409.631 0.598206 409.18 -0.625997M406.566 -1.67886C407.383 -1.4875 409.05 -1.00902 409.18 -0.625997M406.566 -1.67886C406.555 -0.884041 406.483 -0.0154023 406.365 0.897658M406.365 0.897658C405.105 0.271099 402.33 -0.781307 401.304 0.0215387M401.304 0.0215387C401.059 1.13713 400.968 2.36053 401.108 3.62342C401.232 4.7415 401.333 5.83076 401.434 6.86732M405.536 5.33999C404.494 5.11302 402.215 5.10071 401.434 6.86732" stroke="black" stroke-width="0.3"/>
<path d="M298.467 86.3527C298.643 85.7626 298.888 85.1859 299.187 84.627C301.047 81.1504 304.976 78.3596 306.96 77.2851C307.591 78.951 307.425 81.5633 307.176 84.627C307.091 85.665 306.997 86.7548 306.921 87.8772C306.835 89.145 306.528 90.3327 306.088 91.3871C304.607 94.9433 301.623 96.9825 300.566 95.4596C299.782 94.6544 298.626 92.9 298.223 90.627C297.996 89.342 298.009 87.8913 298.467 86.3527Z" fill="#FFE999"/>
<path d="M300.566 95.4596C300.302 94.6189 300.349 93.4638 300.609 92.127M300.566 95.4596C299.782 94.6544 298.626 92.9 298.223 90.627M300.566 95.4596C301.623 96.9825 304.607 94.9433 306.088 91.3871M306.96 77.2851C304.976 78.3596 301.047 81.1504 299.187 84.627M306.96 77.2851C305.807 79.2679 304.202 82.305 302.867 85.4021M306.96 77.2851C307.591 78.951 307.425 81.5633 307.176 84.627M301.777 88.127C300.8 87.627 298.914 86.227 299.187 84.627M301.777 88.127C301.592 88.635 301.419 89.1365 301.264 89.627M301.777 88.127C302.105 87.2304 302.475 86.3136 302.867 85.4021M299.187 84.627C298.888 85.1859 298.643 85.7626 298.467 86.3527C298.009 87.8913 297.996 89.342 298.223 90.627M300.609 92.127C299.839 91.7936 298.283 91.027 298.223 90.627M300.609 92.127C300.761 91.3467 300.986 90.5046 301.264 89.627M301.264 89.627C302.392 90.467 304.937 91.9952 306.088 91.3871M306.088 91.3871C306.528 90.3327 306.835 89.145 306.921 87.8772C306.997 86.7548 307.091 85.665 307.176 84.627M302.867 85.4021C303.853 85.8104 306.094 86.227 307.176 84.627" stroke="black" stroke-width="0.3"/>
<path d="M381.479 20.3531C383.579 21.8187 385.928 21.2995 386.84 20.8568C388.169 20.4649 386.81 17.2167 383.846 16.0058C381.475 15.037 379.433 14.0059 378.06 14.0634C378.324 15.5493 379.378 18.8874 381.479 20.3531Z" fill="#ECE17E" stroke="black" stroke-width="0.3"/>
<path d="M452.652 71.1405C456.028 72.9418 458.82 70.9615 459.796 69.4668C460.229 68.8036 460.398 68.0244 460.232 67.3507C460.025 66.506 459.293 65.8272 457.901 65.7511C457.391 66.0109 456.785 66.3044 456.113 66.5011C455.151 66.7828 454.053 66.8656 452.914 66.3658C452.778 66.3064 452.643 66.2531 452.508 66.2053C450.716 65.5709 449.016 65.8986 448.423 65.4396C448.403 65.485 448.385 65.5312 448.37 65.5782C448.118 66.3516 448.483 67.3334 449.219 68.301C449.817 69.089 450.662 69.8675 451.619 70.5161C451.952 70.7416 452.298 70.9514 452.652 71.1405Z" fill="#CBA9B3"/>
<path d="M448.37 65.5782C448.385 65.5312 448.403 65.485 448.423 65.4396C449.016 65.8986 450.716 65.5709 452.508 66.2053M448.37 65.5782C448.118 66.3516 448.483 67.3334 449.219 68.301M448.37 65.5782C449.143 66.0542 450.226 66.62 451.452 67.1129M460.232 67.3507C460.398 68.0244 460.229 68.8036 459.796 69.4668C458.82 70.9615 456.028 72.9418 452.652 71.1405C452.298 70.9514 451.952 70.7416 451.619 70.5161M460.232 67.3507C460.025 66.506 459.293 65.8272 457.901 65.7511C457.391 66.0109 456.785 66.3044 456.113 66.5011M460.232 67.3507C459.367 67.964 458.326 68.2465 457.213 68.301M454.083 67.9617C453.866 68.5625 453.07 69.9145 451.619 70.5161M454.083 67.9617C453.64 67.8561 453.2 67.7308 452.77 67.5914M454.083 67.9617C455.133 68.2116 456.203 68.3505 457.213 68.301M451.619 70.5161C450.662 69.8675 449.817 69.089 449.219 68.301M449.219 68.301C449.755 68.2528 450.953 67.9475 451.452 67.1129M451.452 67.1129C451.877 67.2833 452.318 67.4451 452.77 67.5914M452.77 67.5914C452.805 67.279 452.802 66.5643 452.508 66.2053M452.508 66.2053C452.643 66.2531 452.778 66.3064 452.914 66.3658C454.053 66.8656 455.151 66.7828 456.113 66.5011M456.113 66.5011C456.413 66.7875 457.052 67.5485 457.213 68.301" stroke="black" stroke-width="0.3"/>
<path d="M171.002 48.1963C170.943 46.1963 171.978 45.363 172.502 45.1963C172.755 46.1423 173.145 47.5035 173.599 48.917C174.343 51.2389 175.257 53.7017 176.002 54.6963C176.426 55.2613 177.01 56.0658 177.595 56.9632C179.081 59.2421 180.579 62.1201 179.502 63.1963C178.702 63.9972 177.938 64.4793 177 64.4684C176.181 64.4588 175.228 64.0734 174 63.1963C172.232 61.9334 171.502 57.8795 171.203 54.0558C171.134 53.1717 171.089 52.2999 171.058 51.4778C171.012 50.2245 171.002 49.0865 171.002 48.1963Z" fill="#704A4A"/>
<path d="M172.502 45.1963C171.978 45.363 170.943 46.1963 171.002 48.1963C171.002 49.6705 171.029 51.824 171.203 54.0558M172.502 45.1963C172.502 46.3131 172.541 47.6912 172.636 49.1963M172.502 45.1963C172.755 46.1423 173.145 47.5035 173.599 48.917M177 64.4684C176.181 64.4588 175.228 64.0734 174 63.1963C172.232 61.9334 171.502 57.8795 171.203 54.0558M177 64.4684C177.938 64.4793 178.702 63.9972 179.502 63.1963C180.579 62.1201 179.081 59.2421 177.595 56.9632M177 64.4684C175.833 63.631 174.949 61.8726 174.289 59.6963M173.136 54.1963C172.56 54.436 171.366 54.7435 171.203 54.0558M173.136 54.1963C173.004 53.263 172.897 52.3251 172.81 51.4082M173.136 54.1963C173.409 56.1241 173.784 58.0324 174.289 59.6963M172.636 49.1963C172.823 49.3434 173.278 49.4936 173.599 48.917M172.636 49.1963C172.681 49.9098 172.738 50.6519 172.81 51.4082M173.599 48.917C174.343 51.2389 175.257 53.7017 176.002 54.6963C176.426 55.2613 177.01 56.0658 177.595 56.9632M172.81 51.4082C172.375 51.6455 171.404 51.9777 171.002 51.4082M174.289 59.6963C175.256 59.5409 177.271 58.7768 177.595 56.9632" stroke="black" stroke-width="0.3"/>
<path d="M120.875 129.462C119.503 130.918 118.182 130.776 117.693 130.523C118.184 129.675 118.87 128.436 119.549 127.117C120.665 124.948 121.76 122.561 121.936 121.33C122.036 120.631 122.192 119.65 122.413 118.601C122.974 115.939 123.95 112.845 125.472 112.845C126.604 112.845 127.485 113.044 128.141 113.715C128.713 114.301 129.114 115.247 129.362 116.736C129.72 118.879 127.37 122.262 124.877 125.177C124.3 125.85 123.716 126.499 123.156 127.102C122.303 128.021 121.505 128.832 120.875 129.462Z" fill="#704A4A"/>
<path d="M117.693 130.523C118.182 130.776 119.503 130.918 120.875 129.462C121.918 128.419 123.422 126.878 124.877 125.177M117.693 130.523C118.483 129.733 119.43 128.731 120.427 127.6M117.693 130.523C118.184 129.675 118.87 128.436 119.549 127.117M128.141 113.715C128.713 114.301 129.114 115.247 129.362 116.736C129.72 118.879 127.37 122.262 124.877 125.177M128.141 113.715C127.485 113.044 126.604 112.845 125.472 112.845C123.95 112.845 122.974 115.939 122.413 118.601M128.141 113.715C128.374 115.132 127.755 117 126.683 119.006M123.609 123.71C124.186 123.949 125.248 124.575 124.877 125.177M123.609 123.71C123.043 124.464 122.456 125.203 121.869 125.913M123.609 123.71C124.78 122.155 125.864 120.54 126.683 119.006M120.427 127.6C120.399 127.363 120.184 126.936 119.549 127.117M120.427 127.6C120.9 127.063 121.384 126.498 121.869 125.913M119.549 127.117C120.665 124.948 121.76 122.561 121.936 121.33C122.036 120.631 122.192 119.65 122.413 118.601M121.869 125.913C122.344 126.053 123.265 126.504 123.147 127.191M126.683 119.006C125.89 118.433 123.925 117.548 122.413 118.601" stroke="black" stroke-width="0.3"/>
<path d="M266.998 78.3756C267.045 76.9227 266.228 76.3174 265.814 76.1963C265.492 77.3083 264.884 79.2101 264.243 80.7844C263.837 81.7812 263.419 82.6468 263.051 83.0974C262.59 83.664 261.888 84.5621 261.274 85.5116C260.313 86.9966 259.567 88.6074 260.289 89.2721C260.69 89.6415 261.08 89.9176 261.5 90.0678C262.32 90.3609 263.257 90.1757 264.632 89.2721C265.716 88.5592 266.306 86.6222 266.626 84.4907C266.958 82.2779 266.998 79.8556 266.998 78.3756Z" fill="#B1A7C7"/>
<path d="M265.814 76.1963C266.228 76.3174 267.045 76.9227 266.998 78.3756C266.998 79.8556 266.958 82.2779 266.626 84.4907M265.814 76.1963C265.84 77.6014 265.723 79.7076 265.326 81.9023M265.814 76.1963C265.492 77.3083 264.884 79.2101 264.243 80.7844M261.5 90.0678C262.32 90.3609 263.257 90.1757 264.632 89.2721C265.716 88.5592 266.306 86.6222 266.626 84.4907M261.5 90.0678C261.08 89.9176 260.69 89.6415 260.289 89.2721C259.567 88.6074 260.313 86.9966 261.274 85.5116M261.5 90.0678C262.19 89.5118 262.776 88.7851 263.272 87.9495M264.66 84.6963C264.857 84.8925 265.527 85.1262 266.626 84.4907M264.66 84.6963C264.939 83.7802 265.158 82.8333 265.326 81.9023M264.66 84.6963C264.303 85.863 263.848 86.9796 263.272 87.9495M265.326 81.9023C265.046 81.8924 264.437 81.6549 264.243 80.7844M264.243 80.7844C263.837 81.7812 263.419 82.6468 263.051 83.0974C262.59 83.664 261.888 84.5621 261.274 85.5116M263.272 87.9495C262.697 87.5753 261.492 86.5638 261.274 85.5116" stroke="black" stroke-width="0.3"/>
<path d="M319.683 10.1954C319.45 15.527 319.709 18.1751 318.862 18.1133C317.799 16.9542 315.168 14.5584 314.007 11.0581C313.369 9.13528 313.455 6.97539 314.04 4.95723C315.557 -0.274276 320.429 -4.55333 324.74 -1.28195C322.405 2.29826 321.107 4.19739 320.407 6.09579C319.958 7.31445 319.755 8.5328 319.683 10.1954Z" fill="#D2C75F"/>
<path d="M324.74 -1.28195C320.429 -4.55333 315.557 -0.274276 314.04 4.95723M324.74 -1.28195C322.405 2.29826 321.107 4.19739 320.407 6.09579M324.74 -1.28195C320.555 -0.214897 318.496 2.52102 317.675 5.72458M318.862 18.1133C319.709 18.1751 319.45 15.527 319.683 10.1954C319.755 8.5328 319.958 7.31445 320.407 6.09579M318.862 18.1133C317.799 16.9542 315.168 14.5584 314.007 11.0581C313.369 9.13528 313.455 6.97539 314.04 4.95723M318.862 18.1133C317.67 15.0195 316.589 9.96279 317.675 5.72458M317.983 3.58694C317.019 3.67434 314.881 4.07076 314.04 4.95723M316.951 8.1413C316.351 8.16318 314.883 8.52191 313.819 9.78183M320.407 6.09579C320.225 5.84257 319.423 5.41382 317.675 5.72458" stroke="black" stroke-width="0.3"/>
<path d="M232.95 4.12724C228.345 6.82502 225.883 7.83371 226.334 8.55409C227.855 8.95166 231.203 10.1578 234.84 9.54812C236.838 9.21317 238.707 8.12752 240.218 6.66686C244.133 2.88049 245.639 -3.42587 240.732 -5.70834C238.658 -1.97086 237.586 0.0642167 236.235 1.57031C235.368 2.53714 234.385 3.28598 232.95 4.12724Z" fill="#D2C75F"/>
<path d="M240.732 -5.70834C245.639 -3.42587 244.133 2.88049 240.218 6.66686M240.732 -5.70834C238.658 -1.97086 237.586 0.0642166 236.235 1.57031M240.732 -5.70834C241.745 -1.50938 240.289 1.58961 237.84 3.81258M226.334 8.55409C225.883 7.83371 228.345 6.82502 232.95 4.12724C234.385 3.28598 235.368 2.53714 236.235 1.57031M226.334 8.55409C227.855 8.95167 231.203 10.1578 234.84 9.54812C236.838 9.21317 238.707 8.12752 240.218 6.66686M226.334 8.55409C229.625 8.16115 234.601 6.75349 237.84 3.81258M239.586 2.54069C239.959 3.43391 240.608 5.50964 240.218 6.66686M236.042 5.58195C236.304 6.12306 236.672 7.58773 236.056 9.11746M236.235 1.57031C236.544 1.61326 237.298 2.12185 237.84 3.81258" stroke="black" stroke-width="0.3"/>
<path d="M229.634 48.4959C231.947 47.0498 232.37 46.0457 234.438 42.0519C238.853 43.9526 235.521 51.0303 230.945 51.9335C228.627 52.3911 226.46 51.6802 225.478 51.4536C225.176 51.0005 226.735 50.3089 229.634 48.4959Z" fill="#ECE17E" stroke="black" stroke-width="0.3"/>
<path d="M106.826 10.1258C107.151 12.8342 107.879 13.6444 110.613 17.2155C107.014 20.4012 102.028 14.3734 103.158 9.84878C103.73 7.55593 105.296 5.89785 105.919 5.10584C106.458 5.02535 106.42 6.73007 106.826 10.1258Z" fill="#ECE17E" stroke="black" stroke-width="0.3"/>
<path d="M127.826 42.1258C128.151 44.8342 128.879 45.6444 131.613 49.2155C128.014 52.4012 123.028 46.3734 124.158 41.8488C124.73 39.5559 126.296 37.8979 126.919 37.1058C127.458 37.0253 127.42 38.7301 127.826 42.1258Z" fill="#ECE17E" stroke="black" stroke-width="0.3"/>
<path d="M57.0532 104.904C58.029 106.531 61.6094 107.063 63.2776 107.126C63.2856 107.048 63.293 106.967 63.2996 106.882C63.4603 104.825 63.1638 100.802 60.7604 99.3839C60.2665 99.0924 59.8034 98.8335 59.374 98.6046C57.6286 97.6741 56.4413 97.2401 56.0062 97.1313C55.9568 98.7713 56.0445 102.116 56.6851 104.062C56.7918 104.387 56.9139 104.672 57.0532 104.904Z" fill="#B1A7C7"/>
<path d="M56.0062 97.1313C55.9568 98.7713 56.0445 102.116 56.6851 104.062M56.0062 97.1313C56.4247 98.537 57.2315 100.618 58.339 102.5M56.0062 97.1313C56.4413 97.2401 57.6286 97.6741 59.374 98.6046M63.2996 106.882C63.293 106.967 63.2856 107.048 63.2776 107.126C61.6094 107.063 58.029 106.531 57.0532 104.904C56.9139 104.672 56.7918 104.387 56.6851 104.062M63.2996 106.882C63.4603 104.825 63.1638 100.802 60.7604 99.3839C60.2665 99.0924 59.8034 98.8335 59.374 98.6046M63.2996 106.882C61.8189 106.682 60.4907 105.546 59.374 104.062M59.374 104.062C58.9148 104.25 57.734 104.512 56.6851 104.062M59.374 104.062C59.0052 103.572 58.6595 103.045 58.339 102.5M58.339 102.5C59.029 101.903 60.202 100.288 59.374 98.6046" stroke="black" stroke-width="0.3"/>
</svg>
