<svg width="1921" height="408" viewBox="0 0 1921 408" fill="none" xmlns="http://www.w3.org/2000/svg">
<rect x="0.5" width="1920" height="410" fill="#E6B25E"/>
<path d="M1603.5 334.401C1620.99 487.692 1327.39 464.73 1210.31 445.997C1102.21 452.218 797.89 445.997 643.917 445.997C543.29 445.997 564.357 286.756 633.002 239C803.612 120.307 923.995 322.5 1044.5 213.901C1211.5 63.4005 1558.5 -59.9999 1603.5 334.401Z" fill="#372A0A"/>
<path d="M795.999 406.718C805.898 414.76 812.318 429.367 814.29 435.665C817.262 431.171 822.941 422.254 821.878 422.539C820.55 422.895 812.856 417.561 809.294 415.955C805.731 414.35 785.36 396.768 780.888 388.58C777.783 382.895 772.726 373.55 769.718 367.985C769.192 367.273 768.778 366.523 768.501 365.73C768.85 366.376 769.26 367.137 769.718 367.985C773.855 373.575 784.939 376.856 791.103 381.007C798.052 385.688 812.62 411.366 815.139 414.389C817.657 417.412 822.514 420.662 824.018 418.836C825.221 417.376 828.787 410.068 830.42 406.597C828.571 399.697 772.084 332.344 766.729 327.236C762.445 323.15 751.679 311.452 746.832 306.114C745.573 305.314 747.193 305.335 763.738 311.824C784.42 319.936 816.864 365.571 823.129 377.261C829.393 388.952 831.374 403.781 832.788 400.558C834.202 397.334 839.788 384.175 839.908 379.308C840.027 374.44 815.635 339.732 812.387 332.922C809.788 327.474 780.592 299.628 766.318 286.386C774.847 288.462 794.487 294.597 804.812 302.525C817.718 312.436 838.001 348.814 839.921 355.98C841.841 363.145 842.882 377.658 844.828 374.292C846.384 371.599 849.853 355.499 851.393 347.786C849.483 345.264 844.752 339.155 841.106 334.898C836.548 329.577 812.269 301.665 801.185 288.99C790.101 276.316 766.414 255.925 769.692 256.469C772.97 257.013 792.593 269.675 805.94 278.045C819.288 286.415 843.006 320.735 845.064 324.166C847.122 327.597 851.303 346.388 851.816 345.113C852.328 343.838 856.204 320.044 855.653 319.053C855.103 318.063 851.376 310.528 848.753 309.24C846.13 307.952 807.104 271.76 799.799 265.753C792.495 259.746 762.632 208.867 770.808 219.192C778.985 229.517 806.069 245.584 816.405 253.339C826.74 261.094 843.206 288.54 845.976 294.624C848.745 300.709 855.9 317.849 856.024 317.247C856.147 316.645 856.924 295.104 857.171 293.9C857.418 292.696 851.475 284.333 842.416 277.089C833.357 269.846 805.564 235.195 801.803 229.66C798.042 224.126 777.28 187.023 779.604 190.382C781.928 193.742 791.93 205.568 799.235 211.575C806.539 217.582 841.348 252.913 844.151 256.998C846.954 261.082 857.429 285.298 857.941 284.023C858.351 283.002 857.71 270.052 857.338 263.704C855.63 262.645 849.259 256.084 837.437 238.317C822.659 216.108 807.709 199.633 805.618 198.203C803.526 196.772 799.342 193.911 804.375 195.691C809.408 197.472 818.894 206.307 824.638 210.742C830.382 215.176 855.788 254.733 856.941 255.846C857.863 256.737 856.593 244.277 855.843 237.936C854.179 238.382 847.353 232.815 840.1 225.941C832.848 219.066 817.707 186.999 815.772 182.966C813.837 178.934 793.472 149.688 796.769 151.365C800.066 153.042 817.889 173.866 821.736 176.533C825.583 179.2 839.534 207.888 841.664 211.584C843.793 215.28 855.023 232.751 855.057 230.751C855.091 228.751 851.052 210.491 849.881 208.245C848.709 205.999 840.024 201.215 832.992 183.472C825.96 165.73 805.733 132.75 813.304 138.686C819.36 143.434 839.578 178.294 848.929 195.131L845.872 183.719C844.222 177.562 817.736 129.723 804.699 106.573C813.809 110.087 833.388 147.56 838.896 158.613C833.058 143.402 827.586 81.321 830.12 86.6773C832.222 91.1204 840.425 131.513 844.264 151.154C842.119 130.395 858.155 95.6633 858.32 101.592C858.485 107.522 849.606 179.589 849.325 182.793C849.105 185.31 850.014 191.383 850.242 193.232C850.594 190.031 856.336 171.606 859.334 162.761C861.878 155.252 870.258 137.647 874.131 129.783C873.184 134.398 870.956 145.14 869.616 151.188C867.94 158.748 853.113 197.992 852.088 200.542C851.268 202.582 853.386 211.762 854.547 216.096C854.614 212.096 863.432 188.685 867.271 182.82C871.11 176.956 888.756 158.859 889.747 158.309C890.739 157.759 894.088 158.568 892.37 159.597C890.653 160.627 885.594 169.377 883.312 172.549C881.03 175.721 876.35 191.197 873.165 196.317C869.981 201.436 857.268 227.314 856.613 228.058C856.09 228.654 857.633 238.594 858.47 243.49C860.793 226.654 890.161 203.425 893.26 201.173C896.358 198.92 900.339 193.587 900.623 194.648C900.851 195.498 900.768 198.023 900.698 199.179C898.152 219.431 871.668 242.798 858.744 251.95C859.199 253.648 859.523 264.067 859.628 269.064C862.101 261.29 888.338 242.314 899.121 236.864C909.905 231.415 913.265 224.825 915.353 221.99C917.023 219.722 917.88 221.503 918.099 222.677C912.907 239.428 878.266 270.612 872.032 272.851C865.799 275.09 860.504 277.647 860.186 278.585C859.932 279.336 859.018 292.646 858.593 299.208C861.951 296.507 869.77 290.126 874.189 286.211C879.711 281.318 897.559 271.416 907.584 268.445C915.603 266.069 931.557 253.773 938.531 247.922C938.22 249.238 934.634 255.906 922.787 272.051C910.94 288.197 875.813 299.714 859.731 303.454L855.965 329.779C866.328 323.114 888.212 308.793 892.843 304.821C898.631 299.857 942.874 288.571 941.726 291.723C940.577 294.876 933.128 304.267 908.889 319.011C884.65 333.754 855.826 333.513 855.722 335.248C855.638 336.629 852.053 350.32 850.243 357.098C851.268 355.305 877.93 338.642 886.068 334.797C894.408 330.855 942.229 318.042 942.019 321.511C941.81 324.981 930.11 335.511 909.837 348.055C889.565 360.598 852.344 360.9 851.922 363.573C851.499 366.246 839.508 387.379 840.357 386.298C841.206 385.217 889.359 368.333 900.517 365.343C909.444 362.951 939.392 360.236 953.251 359.177C952.862 359.851 948.344 363.393 933.386 372.18C914.689 383.163 844.099 390.7 841.992 392.402C840.307 393.764 835.798 405.061 833.754 410.539C848.371 405.579 879.942 395.034 889.293 392.528C900.983 389.396 940.217 401.923 938.058 404.493C935.899 407.062 882.301 417.442 870.095 417.583C857.889 417.725 834.536 413.458 832.624 414.824C831.095 415.916 818.694 434.39 812.686 443.491C811.753 443.551 809.777 443.474 809.337 442.681C808.896 441.889 810.675 440.237 811.619 439.51C811.358 438.537 809.135 435.34 802.327 430.337C793.818 424.084 756.409 392.864 760.802 392.255C765.195 391.647 783.624 396.665 795.999 406.718Z" fill="black"/>
<path d="M1089.17 377.582C1094.65 392.961 1102.47 419.902 1113.01 421.103C1119.6 422.575 1169.66 476.183 1176.33 464.553C1184.67 450.015 1200.94 403.206 1140.74 312.344C1129.08 294.754 1105.02 274.106 1095.07 268.701C1097.48 290.324 1094.1 294.708 1090.17 291.33C1087.02 288.627 1082.21 270.981 1080.2 262.496C1073.06 260.766 1068.14 265.899 1066.58 271.667C1065.01 277.436 1063 280.767 1060.26 281.353C1057.51 281.94 1057.79 285.745 1058.18 293.051C1058.58 300.356 1076.73 334.124 1079.57 340.993C1082.41 347.861 1080.69 353.324 1082.8 355.015C1084.92 356.705 1090.7 358.121 1094.5 358.912C1098.3 359.703 1100.4 362.611 1098.11 364.114C1095.81 365.617 1088.07 362.816 1086.86 362.502C1085.64 362.188 1082.32 358.358 1089.17 377.582Z" fill="black"/>
<path d="M1480.46 351.382C1486.23 359.353 1488.1 371.521 1488.31 376.608C1491.42 373.852 1497.44 368.341 1496.59 368.341C1495.53 368.341 1490.86 362.829 1488.52 360.921C1486.19 359.013 1474.52 341.843 1472.82 334.847C1471.64 329.991 1469.74 322.016 1468.61 317.268C1468.36 316.632 1468.2 315.991 1468.15 315.345C1468.28 315.896 1468.44 316.544 1468.61 317.268C1470.58 322.26 1478.18 326.919 1481.95 331.243C1486.19 336.119 1491.92 358.165 1493.19 360.921C1494.47 363.677 1497.44 367.069 1498.92 366.009C1500.11 365.161 1504.23 360.427 1506.14 358.165C1506.14 352.654 1477.49 291.178 1474.52 286.303C1472.14 282.402 1466.45 271.534 1463.91 266.588C1463.13 265.74 1464.33 266.079 1475.37 274.22C1489.16 284.395 1504.23 324.884 1506.56 334.847C1508.9 344.81 1507.41 356.258 1509.11 354.138C1510.81 352.018 1517.6 343.327 1518.66 339.723C1519.72 336.119 1508.47 305.381 1507.41 299.658C1506.56 295.079 1490.36 268.496 1482.37 255.777C1488.31 259.027 1501.72 267.521 1507.83 275.492C1515.47 285.455 1523.33 316.617 1523.33 322.34C1523.33 328.064 1521.2 339.087 1523.33 336.967C1525.02 335.271 1530.82 323.965 1533.51 318.524C1532.59 316.263 1530.29 310.766 1528.42 306.865C1526.08 301.99 1513.56 276.339 1507.83 264.68C1502.1 253.021 1488.52 233.095 1490.86 234.155C1493.19 235.214 1505.29 248.57 1513.56 257.473C1521.84 266.376 1532.66 296.69 1533.51 299.658C1534.36 302.626 1533.72 317.464 1534.36 316.617C1535 315.769 1542.64 298.81 1542.42 297.962C1542.21 297.114 1540.94 290.754 1539.24 289.271C1537.54 287.787 1515.69 253.021 1511.44 247.086C1507.2 241.15 1495.1 197.269 1499.13 206.597C1503.17 215.924 1520.14 233.307 1526.3 241.15C1532.45 248.993 1539.24 272.736 1540.09 277.823C1540.94 282.911 1542.85 297.114 1543.06 296.69C1543.27 296.266 1548.15 280.367 1548.58 279.519C1549 278.671 1546.24 271.252 1540.94 264.044C1535.63 256.837 1521.84 225.463 1520.14 220.588C1518.44 215.712 1510.38 183.914 1511.44 186.882C1512.5 189.85 1517.6 200.661 1521.84 206.597C1526.08 212.532 1544.97 245.814 1546.24 249.417C1547.52 253.021 1550.49 273.16 1551.12 272.312C1551.63 271.633 1553.74 261.854 1554.73 257.049C1553.67 255.918 1550.23 249.757 1544.97 234.155C1538.39 214.652 1530.54 199.389 1529.27 197.905C1527.99 196.421 1525.45 193.454 1528.84 195.785C1532.24 198.117 1537.54 206.597 1540.94 211.048C1544.33 215.5 1555.37 250.053 1556.01 251.113C1556.51 251.961 1558.06 242.422 1558.76 237.546C1557.43 237.546 1553.46 232.035 1549.43 225.463C1545.4 218.892 1540.51 191.97 1539.88 188.578C1539.24 185.186 1529.9 159.324 1532.03 161.232C1534.15 163.14 1543.27 182.218 1545.61 184.974C1547.94 187.73 1552.61 211.896 1553.46 215.076C1554.31 218.256 1559.19 233.519 1559.61 232.035C1560.04 230.551 1560.67 216.136 1560.25 214.228C1559.83 212.32 1554.31 207.021 1552.61 192.394C1550.91 177.767 1542.42 149.149 1546.88 155.084C1550.45 159.833 1558.55 189.85 1562.16 204.265L1562.16 195.149C1562.16 190.231 1551.97 149.29 1546.88 129.434C1552.97 133.872 1560.08 165.709 1561.97 175.046C1560.66 162.544 1568.98 115.185 1569.8 119.683C1570.48 123.414 1568.53 155.155 1567.46 170.559C1570.01 154.66 1588.9 131.978 1587.84 136.43C1586.78 140.881 1565.77 192.818 1564.92 195.149C1564.25 196.981 1563.72 201.688 1563.52 203.112C1564.42 200.797 1572.38 188.212 1576.38 182.218C1579.77 177.131 1589.53 165.684 1593.99 160.596C1592.36 163.846 1588.56 171.407 1586.35 175.647C1583.59 180.946 1564.71 207.233 1563.43 208.928C1562.41 210.285 1562.16 217.549 1562.16 221.011C1563.01 218.044 1574.26 202.357 1578.29 198.753C1582.32 195.149 1599.08 185.186 1599.93 184.974C1600.78 184.762 1603.12 186.034 1601.63 186.458C1600.14 186.882 1594.63 192.394 1592.29 194.302C1589.96 196.209 1583.38 206.809 1579.98 209.988C1576.59 213.168 1561.95 229.915 1561.31 230.339C1560.8 230.678 1559.97 238.394 1559.61 242.21C1564.71 230.127 1591.23 218.68 1593.99 217.62C1596.75 216.56 1600.78 213.38 1600.78 214.228C1600.78 214.906 1600.21 216.772 1599.93 217.62C1593.99 232.204 1569.59 244.33 1558.13 248.57C1558.13 249.926 1556.29 257.755 1555.37 261.5C1558.76 256.201 1582.11 247.298 1591.23 245.39C1600.36 243.482 1604.18 239.242 1606.3 237.546C1608 236.19 1608.28 237.688 1608.21 238.606C1600.99 250.053 1568.95 266.376 1563.86 266.8C1558.76 267.224 1554.31 268.072 1553.88 268.708C1553.54 269.217 1550.21 278.954 1548.58 283.759C1551.62 282.416 1558.72 279.222 1562.8 277.187C1567.89 274.644 1583.17 270.828 1591.23 270.616C1597.68 270.446 1612.03 264.468 1618.39 261.5C1617.9 262.419 1613.9 266.673 1601.84 276.339C1589.79 286.006 1561.31 287.575 1548.58 287.151L1540.51 306.017C1549.57 303.12 1568.74 296.817 1572.98 294.782C1578.29 292.238 1613.51 292.662 1612.03 294.782C1610.54 296.902 1603.12 302.413 1582.11 308.561C1561.1 314.708 1539.67 308.773 1539.24 310.045C1538.9 311.057 1533.5 320.545 1530.79 325.234C1531.92 324.103 1555.11 317.009 1561.95 315.768C1568.95 314.496 1607.15 314.496 1606.3 317.04C1605.45 319.584 1594.63 325.096 1577.01 330.395C1559.4 335.695 1531.6 328.487 1530.75 330.395C1529.9 332.303 1516.75 345.658 1517.6 345.022C1518.44 344.386 1557.7 341.419 1566.62 341.419C1573.75 341.419 1596.61 345.376 1607.15 347.354C1606.72 347.778 1602.65 349.516 1589.75 353.078C1573.62 357.529 1519.51 349.05 1517.6 349.898C1516.07 350.576 1510.45 358.095 1507.83 361.769C1519.72 360.992 1545.35 359.437 1552.82 359.437C1562.16 359.437 1588.9 376.608 1586.78 378.092C1584.65 379.576 1542.64 376.608 1533.51 374.276C1524.39 371.944 1507.83 364.101 1506.14 364.737C1504.78 365.246 1491.85 376.537 1485.55 382.12C1484.85 381.978 1483.39 381.526 1483.22 380.848C1483.05 380.169 1484.7 379.293 1485.55 378.94C1485.55 378.163 1484.53 375.336 1480.46 370.249C1475.37 363.889 1453.72 333.151 1457.12 333.575C1460.51 333.999 1473.24 341.419 1480.46 351.382Z" fill="#663131"/>
<path d="M1513.32 451.183L1589.98 460.467C1573.6 437.086 1550.46 399.161 1528.46 357.751C1512.16 327.079 1496.49 294.494 1484.65 264.491C1480.84 254.838 1477.42 245.452 1474.51 236.483C1470.49 224.087 1468.89 211.232 1469.2 198.267C1469.86 171.188 1478.86 143.624 1491.58 118.739C1509.38 83.9484 1534.46 54.3954 1554.21 38.728C1546.21 30.2429 1515.17 20.9922 1473.58 50.6282C1455.4 63.5812 1435.2 83.9627 1414.03 115.084C1398.89 137.341 1389.04 163.4 1383.8 191.24C1378.26 220.753 1377.9 252.269 1381.93 283.381C1385.43 310.366 1392.24 337.048 1401.82 361.858C1410.78 385.031 1422.16 406.57 1435.54 425.196C1443.21 435.865 1451.54 445.579 1460.44 454.096L1513.32 451.183Z" fill="#BE9E4A"/>
<path d="M1414.03 115.084C1398.89 137.341 1389.04 163.4 1383.8 191.24M1414.03 115.084C1407.85 133.188 1420.14 156.931 1427.06 166.539M1414.03 115.084C1435.2 83.9627 1455.4 63.5812 1473.58 50.6282M1513.32 451.183L1589.98 460.467C1573.6 437.086 1550.46 399.161 1528.46 357.751M1513.32 451.183L1460.44 454.096C1451.54 445.579 1443.21 435.865 1435.54 425.196M1513.32 451.183C1508.33 447.785 1500.14 438.208 1490.63 423.936M1445.99 335.102C1455.77 330.43 1477.2 309.766 1484.65 264.491M1445.99 335.102C1450.58 347.303 1455.51 358.899 1460.56 369.717M1445.99 335.102C1441.19 322.34 1436.77 308.917 1432.97 295.032M1484.65 264.491C1480.84 254.838 1477.42 245.452 1474.51 236.483C1470.49 224.087 1468.89 211.232 1469.2 198.267M1484.65 264.491C1496.49 294.494 1512.16 327.079 1528.46 357.751M1460.56 369.717C1447.87 375.256 1418.35 381.439 1401.82 361.858M1460.56 369.717C1465.68 380.682 1470.93 390.846 1476.08 400.029M1401.82 361.858C1410.78 385.031 1422.16 406.57 1435.54 425.196M1401.82 361.858C1392.24 337.048 1385.43 310.366 1381.93 283.381M1476.08 400.029C1490.55 398.092 1521.28 386.926 1528.46 357.751M1476.08 400.029C1481.1 408.989 1486.02 417.015 1490.63 423.936M1490.63 423.936C1479.2 428.725 1452.18 435.681 1435.54 425.196M1432.97 295.032C1422.05 300.029 1396.55 304.694 1381.93 283.381M1432.97 295.032C1429.02 280.584 1425.75 265.637 1423.44 250.415M1381.93 283.381C1377.9 252.269 1378.26 220.753 1383.8 191.24M1423.44 250.415C1435.71 242.454 1462.06 220.879 1469.2 198.267M1423.44 250.415C1422.24 242.494 1421.29 234.499 1420.65 226.462M1469.2 198.267C1469.86 171.188 1478.86 143.624 1491.58 118.739M1420.65 226.462C1419.93 217.409 1419.59 208.302 1419.69 199.186C1420.52 191.986 1422.81 180.38 1427.06 166.539M1420.65 226.462C1408.76 223.159 1384.75 211.49 1383.8 191.24M1427.06 166.539C1430.73 154.61 1435.86 141.02 1442.76 127.163M1473.58 50.6282C1515.17 20.9922 1546.21 30.2429 1554.21 38.728C1534.46 54.3954 1509.38 83.9484 1491.58 118.739M1473.58 50.6282C1460.25 70.0044 1463.51 93.1205 1461.83 95.5938C1454.34 105.861 1448.03 116.59 1442.76 127.163M1442.76 127.163C1452.33 130.205 1475.48 132.779 1491.58 118.739" stroke="#3A2C08" stroke-width="0.3"/>
<g style="mix-blend-mode:multiply">
<path d="M1441.29 167.599C1416.12 272.855 1496.7 399.597 1533.77 453.283L1589.5 460.032C1569.14 424.757 1522.54 347.987 1508.76 318.991C1490.73 281.079 1467.54 228.193 1468.89 193.173C1470.23 158.153 1490.11 123.338 1500.54 102.336C1508.88 85.5334 1536.55 53.4239 1554.01 39.3317L1553.87 37.7718C1549.91 34.767 1542.59 31.8796 1538.63 31.3339C1516.14 38.9435 1464.1 72.1808 1441.29 167.599Z" fill="#C4C4C4"/>
</g>
<path d="M1218.36 183.94C1210.64 194.744 1256.94 171.593 1280.09 198.602C1281.24 199.946 1282.5 201.578 1283.83 203.472C1289.84 211.962 1297.57 225.716 1305.64 242.346C1312.95 257.39 1320.55 274.786 1327.4 292.768C1332.99 307.414 1338.09 322.448 1342.15 336.914C1351.07 368.7 1354.97 397.743 1348 413.906H1389.67H1431.34C1427.26 392.728 1420.49 363.456 1411.53 332.683C1404.5 308.573 1396.14 283.541 1386.67 260.758C1378.35 240.748 1369.18 222.472 1359.33 208.079C1352.28 197.785 1344.89 189.476 1337.2 183.94C1332.11 180.279 1327.06 177.177 1322.08 174.573C1270.31 147.538 1225.39 174.086 1218.36 183.94Z" fill="#C47D5E"/>
<path d="M1218.36 183.94C1210.64 194.744 1256.94 171.593 1280.09 198.602C1281.24 199.946 1282.5 201.578 1283.83 203.472M1218.36 183.94C1236.57 176.194 1276.42 168.74 1305.64 191.969M1218.36 183.94C1225.39 174.086 1270.31 147.538 1322.08 174.573M1389.67 413.906H1348C1354.97 397.743 1351.07 368.7 1342.15 336.914M1389.67 413.906H1431.34C1427.26 392.728 1420.49 363.456 1411.53 332.683M1389.67 413.906C1389.14 403.149 1388.12 392.375 1386.67 381.67M1386.67 381.67C1395.47 376.099 1412.77 358.501 1411.53 332.683M1386.67 381.67C1384.42 365.068 1381.14 348.632 1377.02 332.683M1411.53 332.683C1404.5 308.573 1396.14 283.541 1386.67 260.758M1386.67 260.758C1384.95 271.682 1378.76 295.165 1367.78 301.704M1386.67 260.758C1378.35 240.748 1369.18 222.472 1359.33 208.079M1367.78 301.704C1366.14 296.839 1364.41 292.047 1362.63 287.336M1367.78 301.704C1371.19 311.755 1374.29 322.112 1377.02 332.683M1359.33 208.079C1352.28 197.785 1344.89 189.476 1337.2 183.94C1332.11 180.279 1327.06 177.177 1322.08 174.573M1359.33 208.079C1359.88 219.022 1358.6 243.883 1349.09 255.78M1349.09 255.78C1345.28 247.897 1341.31 240.381 1337.2 233.297M1349.09 255.78C1353.91 265.757 1358.45 276.321 1362.63 287.336M1305.64 242.346C1314.6 243.41 1333.44 243.09 1337.2 233.297M1305.64 242.346C1297.57 225.716 1289.84 211.962 1283.83 203.472M1305.64 242.346C1312.95 257.39 1320.55 274.786 1327.4 292.768M1337.2 233.297C1333.04 226.136 1328.75 219.418 1324.37 213.211M1305.64 191.969C1309.69 195.187 1313.54 198.995 1317.09 203.472C1319.54 206.556 1321.97 209.807 1324.37 213.211M1305.64 191.969C1303.07 194.267 1295.1 199.786 1283.83 203.472M1322.08 174.573C1326.62 184.236 1333.45 205.492 1324.37 213.211M1362.63 287.336C1356.13 290.957 1339.98 297.113 1327.4 292.768M1327.4 292.768C1332.99 307.414 1338.09 322.448 1342.15 336.914M1377.02 332.683C1369.54 335.504 1352.09 340.299 1342.15 336.914" stroke="#3A2C08" stroke-width="0.3"/>
<g style="mix-blend-mode:multiply">
<path d="M1361.76 285.339C1379.35 329.32 1388.91 386.293 1389.5 413.24H1347.85C1348.8 413.24 1350.83 408.418 1351.4 389.129C1352.11 365.018 1334.99 296.095 1300.34 232.77C1290.14 214.135 1284.23 201.722 1275.85 194.562C1274.29 192.235 1269.36 189.989 1267.24 189.089C1264.97 188.059 1260.75 186.729 1258.93 186.192C1256.97 185.695 1251.64 185.139 1250.06 184.963C1248.48 184.787 1241.2 184.992 1239.44 184.963C1237.68 184.934 1234 185.548 1232.88 185.548C1231.77 185.548 1229.25 186.017 1227.97 186.182C1226.68 186.347 1222.52 186.947 1221.34 187.042C1220.16 187.138 1218.03 187.202 1217.65 186.182C1217.34 185.366 1218.15 184.311 1218.6 183.886C1219.85 182.792 1233.92 179.118 1238.37 178.101C1242.83 177.085 1254.32 176.225 1262.14 176.46C1268.39 176.647 1278.87 178.987 1283.32 180.134C1307.2 186.155 1336.74 222.794 1361.76 285.339Z" fill="#CCDFD4"/>
</g>
<path d="M1517.18 422.018L1557.94 435.011C1551.45 420.587 1542.78 397.547 1535.09 372.728C1529.4 354.345 1524.24 334.985 1520.91 317.427C1519.83 311.778 1518.95 306.316 1518.29 301.132C1517.39 293.969 1517.85 286.806 1519.36 279.781C1522.52 265.109 1530.27 251.037 1539.78 238.81C1553.07 221.716 1569.78 208.228 1582.15 201.745C1578.68 196.299 1562.74 188.048 1537.03 199.871C1525.8 205.039 1512.69 214.041 1497.94 228.788C1487.4 239.335 1479.33 252.499 1473.6 267.111C1467.53 282.601 1464.07 299.718 1463.04 317.07C1462.15 332.122 1463.09 347.35 1465.74 361.847C1468.21 375.388 1472.18 388.291 1477.53 399.816C1480.6 406.418 1484.13 412.567 1488.09 418.126L1517.18 422.018Z" fill="#ECE17E"/>
<path d="M1497.94 228.788C1487.4 239.335 1479.33 252.499 1473.6 267.111M1497.94 228.788C1492.7 238.002 1496.94 252.199 1499.71 258.146M1497.94 228.788C1512.69 214.041 1525.8 205.039 1537.03 199.871M1517.18 422.018L1557.94 435.011C1551.45 420.587 1542.78 397.547 1535.09 372.728M1517.18 422.018L1488.09 418.126C1484.13 412.567 1480.6 406.418 1477.53 399.816M1517.18 422.018C1514.81 419.65 1511.35 413.59 1507.65 404.836M1492.55 351.858C1498.36 350.328 1512.16 341.3 1520.91 317.427M1492.55 351.858C1493.78 358.975 1495.27 365.797 1496.9 372.209M1492.55 351.858C1491.26 344.415 1490.24 336.65 1489.61 328.699M1520.91 317.427C1519.83 311.778 1518.95 306.316 1518.29 301.132C1517.39 293.969 1517.85 286.806 1519.36 279.781M1520.91 317.427C1524.24 334.985 1529.4 354.345 1535.09 372.728M1496.9 372.209C1489.41 373.909 1472.71 374.217 1465.74 361.847M1496.9 372.209C1498.55 378.708 1500.35 384.784 1502.2 390.315M1465.74 361.847C1468.21 375.388 1472.18 388.291 1477.53 399.816M1465.74 361.847C1463.09 347.35 1462.15 332.122 1463.04 317.07M1502.2 390.315C1510.28 390.76 1528.16 387.865 1535.09 372.728M1502.2 390.315C1504.01 395.713 1505.86 400.591 1507.65 404.836M1507.65 404.836C1500.93 406.258 1485.5 407.246 1477.53 399.816M1489.61 328.699C1483.15 330.287 1468.79 330.185 1463.04 317.07M1489.61 328.699C1488.96 320.426 1488.73 311.95 1489.05 303.425M1463.04 317.07C1464.07 299.718 1467.53 282.601 1473.6 267.111M1489.05 303.425C1496.55 300.364 1513.13 291.349 1519.36 279.781M1489.05 303.425C1489.21 298.99 1489.53 294.54 1490.01 290.099M1519.36 279.781C1522.52 265.109 1530.27 251.037 1539.78 238.81M1490.01 290.099C1490.56 285.097 1491.31 280.104 1492.31 275.152C1493.51 271.319 1495.96 265.239 1499.71 258.146M1490.01 290.099C1483.88 287.069 1472.02 278.23 1473.6 267.111M1499.71 258.146C1502.94 252.032 1507.14 245.166 1512.33 238.339M1537.03 199.871C1562.74 188.048 1578.68 196.299 1582.15 201.745C1569.78 208.228 1553.07 221.716 1539.78 238.81M1537.03 199.871C1527.77 209.038 1527.15 221.958 1525.98 223.13C1520.84 227.943 1516.3 233.13 1512.33 238.339M1512.33 238.339C1517.22 240.985 1529.56 244.784 1539.78 238.81" stroke="#3A2C08" stroke-width="0.3"/>
<g style="mix-blend-mode:multiply">
<path d="M1507.34 260.199C1482.74 314.885 1513.47 392.219 1528.09 425.282L1557.72 434.727C1550.3 413.417 1532.89 366.804 1528.38 349.593C1522.5 327.089 1515.36 295.901 1519.71 276.978C1524.07 258.055 1538.5 241.164 1546.35 230.812C1552.63 222.53 1571.02 207.919 1581.99 202.057L1582.07 201.192C1580.23 199.147 1576.54 196.817 1574.44 196.11C1561.41 197.923 1529.64 210.624 1507.34 260.199Z" fill="#C4C4C4"/>
</g>
<path d="M1662.32 287.098C1625.58 295.511 1603.94 338.493 1595.84 357.582C1595.39 355.246 1601.71 339.736 1630.61 296.377C1666.75 242.179 1671.97 188.395 1667.67 211.489C1663.38 234.584 1624.02 278.169 1593.69 311.953C1569.67 338.703 1530.38 357.58 1545.04 415.524L1604.13 428.675C1635.8 439.085 1587.73 426.117 1625.27 355.902C1662.81 285.687 1698.68 316.418 1713.34 349.258C1710.99 326.974 1698.85 278.732 1662.32 287.098Z" fill="#704A4A" stroke="#3A2C08" stroke-width="0.3" stroke-linecap="round" stroke-linejoin="round"/>
<g style="mix-blend-mode:multiply">
<path d="M1620.19 295.899C1628.53 285.167 1651.23 244.764 1661.54 225.903C1661.86 225.16 1662.74 223.286 1663.68 221.732C1664.61 220.177 1666.44 215.588 1667.24 213.488C1666.87 215.251 1666.01 219.228 1665.52 221.032C1664.91 223.286 1661.86 232.824 1660.42 236.723C1658.98 240.621 1654.99 250.977 1653.57 254.136C1652.14 257.295 1647.84 266.516 1646.72 268.819C1645.6 271.123 1640.04 281.264 1638.68 283.697C1637.32 286.129 1633.87 291.428 1633.13 292.601C1632.39 293.774 1626.58 302.552 1624.77 305.348C1622.95 308.143 1619.45 313.972 1618.55 315C1617.66 316.028 1613.78 322.79 1612.06 325.266C1610.34 327.741 1602.13 342.67 1600.43 345.748C1598.73 348.826 1596.83 354.18 1596.25 355.101C1595.78 355.837 1595.82 356.927 1595.89 357.379C1596.1 363.476 1585.81 370.347 1587.13 356.282C1588.77 338.701 1609.78 309.313 1620.19 295.899Z" fill="#BDC6A1"/>
</g>
<g style="mix-blend-mode:multiply">
<path d="M1610.36 397.41C1607.55 412.174 1612.96 429.209 1614.74 433.043L1582.19 413.207C1587.47 390.602 1614.74 338.626 1634.76 317.591C1676.25 274.002 1704.13 318.798 1712.76 348.086C1699.27 315.246 1677.57 310.554 1661.15 315.832C1648.02 320.054 1636.05 336.839 1631.72 344.703C1630.24 347.222 1623.06 360.426 1620 365.838C1616.94 371.25 1611.07 393.721 1610.36 397.41Z" fill="#BDC6A1"/>
</g>
<path d="M1409.84 201.163C1414.36 203.901 1427.39 219.729 1433.34 227.301C1452.63 251.888 1470.46 293.777 1479.76 335.587C1488.26 373.783 1488.97 411.964 1490.77 435.783C1484.12 437.753 1471.31 440.512 1473.21 435.783C1475.6 429.871 1463.99 355.502 1458.64 327.808C1453.28 300.114 1412.22 211.12 1411.33 208.32C1410.77 206.562 1408.1 202.842 1407.58 201.163C1407.28 200.167 1407.73 199.889 1409.84 201.163Z" fill="#987825"/>
<path d="M1407.58 201.163C1407.28 200.167 1407.73 199.889 1409.84 201.163C1414.36 203.901 1427.39 219.729 1433.34 227.301C1452.63 251.888 1470.46 293.777 1479.76 335.587C1488.26 373.783 1488.97 411.964 1490.77 435.783C1484.12 437.753 1471.31 440.512 1473.21 435.783C1475.6 429.871 1463.99 355.502 1458.64 327.808C1453.28 300.114 1412.22 211.12 1411.33 208.32C1410.77 206.562 1408.1 202.842 1407.58 201.163ZM1407.58 201.163C1419.71 215.13 1447.11 254.131 1459.64 298.397C1472.17 342.664 1472.61 358.908 1474.47 367.028" stroke="#3A2C08" stroke-width="0.3"/>
<g style="mix-blend-mode:multiply">
<path d="M1463.35 310.449C1450.73 260.613 1423.3 218.06 1407.5 201.481C1409.18 204.246 1430 250.237 1430.46 252.129C1430.92 254.021 1441.72 279.482 1443.1 282.538C1444.48 285.594 1455.63 315.427 1456.7 319.065C1457.55 321.975 1460.93 339.487 1462.5 347.879C1464.04 358.408 1466.84 373.793 1468.87 387.88C1471.41 405.595 1473.06 421.283 1473.2 422.969C1473.44 425.996 1474.52 434.514 1475.03 438.394H1487.25C1481.3 401.965 1469.47 334.646 1463.35 310.449Z" fill="#C4C4C4"/>
</g>
<path d="M1435.2 261.889C1432.08 263.791 1423.09 274.785 1418.98 280.044C1405.68 297.122 1391.47 309.969 1372.9 355.709C1367.03 382.239 1363 405.431 1361.76 421.974C1366.34 423.343 1392.78 428.137 1391.47 424.852C1389.82 420.745 1397.83 369.09 1401.53 349.855C1405.22 330.619 1433.56 268.806 1434.18 266.86C1434.56 265.639 1436.41 263.056 1436.76 261.889C1436.97 261.198 1436.66 261.004 1435.2 261.889Z" fill="#ECE17E"/>
<path d="M1436.76 261.889C1436.97 261.198 1436.66 261.004 1435.2 261.889C1432.08 263.791 1423.09 274.785 1418.98 280.044C1405.68 297.122 1391.47 309.969 1372.9 355.709C1367.03 382.239 1363 405.431 1361.76 421.974C1366.34 423.343 1392.78 428.137 1391.47 424.852C1389.82 420.745 1397.83 369.09 1401.53 349.855C1405.22 330.619 1433.56 268.806 1434.18 266.86C1434.56 265.639 1436.41 263.056 1436.76 261.889ZM1436.76 261.889C1428.39 271.591 1405.59 298.574 1396.94 329.32C1388.29 360.067 1384.15 373.526 1382.87 379.166" stroke="#3A2C08" stroke-width="0.3"/>
<g style="mix-blend-mode:multiply">
<path d="M1395.77 331.08C1408.67 291.79 1425.9 273.959 1436.82 262.469C1435.66 264.385 1421.27 296.26 1420.95 297.571C1420.63 298.882 1413.16 316.529 1412.21 318.647C1411.26 320.765 1403.55 341.441 1402.81 343.962C1402.22 345.979 1399.89 358.116 1398.8 363.932C1397.74 371.229 1395.8 381.892 1394.4 391.656C1392.64 403.933 1391.5 414.806 1391.41 415.975C1391.24 418.073 1390.49 423.976 1390.14 426.666L1377 422.561C1377 400.863 1386.62 358.954 1395.77 331.08Z" fill="#C4C4C4"/>
</g>
<path d="M1321.65 260.322C1328.67 266.112 1340.92 283.27 1343.44 286.639C1345.97 290.007 1346.39 295.014 1346.39 304.008V387.168C1348.74 388.221 1353.44 392.221 1353.44 399.8C1353.44 409.274 1357.65 435.591 1353.44 437.696C1350.07 439.381 1346.88 437.696 1345.71 436.644C1345.84 439.964 1345.22 441.869 1344.94 442.433C1343.88 444.539 1337.04 444.012 1333.88 441.907C1332.31 440.856 1331.73 438.112 1331.51 435.259C1330.83 437.728 1321.11 438.281 1320.2 434.012C1318.62 426.643 1318.09 414.011 1320.2 404.011C1319.15 406.643 1318.18 415.38 1316.07 418.748C1313.44 422.959 1307.13 418.748 1307.13 414.011C1307.13 410.222 1310.07 390.853 1316.07 388.221C1315.02 382.431 1306.6 319.798 1310.28 313.482C1307.83 310.85 1302.18 304.639 1301.34 300.85C1300.28 296.113 1309.02 266.112 1321.65 260.322Z" fill="#F5C57C"/>
<path d="M1331.34 405.064C1332.22 411.662 1331.54 422.959 1331.34 430.328M1331.34 430.328C1331.56 432.832 1331.58 434.586 1331.54 435.065C1331.34 437.696 1321.14 438.391 1320.2 434.012C1318.62 426.643 1318.09 414.011 1320.2 404.011C1319.15 406.643 1318.18 415.38 1316.07 418.748C1313.44 422.959 1307.13 418.748 1307.13 414.011C1307.13 410.222 1310.07 390.853 1316.07 388.221C1315.02 382.431 1306.6 319.798 1310.28 313.482C1307.83 310.85 1302.18 304.639 1301.34 300.85C1300.28 296.113 1309.02 266.112 1321.65 260.322C1328.67 266.112 1340.92 283.27 1343.44 286.639C1345.97 290.007 1346.39 295.014 1346.39 304.008C1346.39 317.166 1346.39 362.431 1346.39 387.168C1348.74 388.221 1353.44 392.221 1353.44 399.8C1353.44 409.274 1357.65 435.591 1353.44 437.696C1350.07 439.381 1346.88 437.696 1345.71 436.644M1331.34 430.328C1331.4 434.187 1331.36 440.223 1333.88 441.907C1337.04 444.012 1343.88 444.539 1344.94 442.433C1345.22 441.869 1345.84 439.964 1345.71 436.644M1343.44 406.116C1344.03 412.066 1345.43 430.054 1345.71 436.644" stroke="#3A2C08" stroke-width="0.3"/>
<g style="mix-blend-mode:multiply">
<path d="M1338.09 301.376C1336.83 293.375 1323.71 278.744 1317.56 270.322C1317.04 268.743 1322.83 261.375 1323.88 261.901C1324.93 262.427 1341.25 284.007 1342.83 286.112C1344.41 288.217 1345.46 291.375 1345.99 292.428C1346.51 293.481 1347.04 325.061 1346.51 329.271C1345.99 333.482 1346.14 386.796 1346.51 387.168C1347.04 387.694 1345.99 387.343 1345.46 386.642C1333.88 379.273 1339.67 311.376 1338.09 301.376Z" fill="#D9C4A3"/>
</g>
<path d="M1118.4 186.109C1119.98 190.846 1123.67 193.478 1126.83 194.531C1127.84 194.869 1133.14 196.022 1139.98 197.344L1146.3 237.69H1107.35C1101.21 237.163 1088.09 234.742 1084.72 229.268C1080.51 222.426 1079.46 205.583 1076.82 189.793C1074.72 177.161 1073.14 143.476 1072.61 128.213C1074.19 115.405 1077.24 87.8955 1076.82 80.3163C1076.3 70.8423 1077.88 68.737 1079.46 67.6843C1081.03 66.6317 1085.25 67.158 1086.3 68.737C1087.14 70.0002 1088.4 79.4391 1088.93 84.0006C1090.16 82.4216 1092.61 77.8952 1092.61 72.4213C1092.61 65.579 1097.35 64 1099.98 64C1102.61 64 1104.72 66.6317 1104.72 68.737C1104.72 70.4213 1102.61 83.4743 1101.56 89.7903C1103.14 85.7551 1106.51 77.053 1107.35 74.5266C1108.4 71.3686 1111.04 70.8423 1115.25 71.3686C1119.46 71.895 1119.98 76.1056 1119.98 77.6846C1119.98 78.9478 1114.72 92.5974 1112.09 99.2642C1112.79 98.0363 1115.35 95.1593 1119.98 93.475C1125.77 91.3697 1130.51 97.1593 1128.4 103.475C1126.3 109.791 1098.4 128.213 1099.98 131.371C1101.56 134.529 1116.82 181.372 1118.4 186.109Z" fill="#F5C57C" stroke="#3A2C08" stroke-width="0.3"/>
<g style="mix-blend-mode:multiply">
<path d="M1116.51 232.952L1115.46 240.321C1113.18 240.321 1107.67 238.531 1103.88 237.689C1099.14 236.637 1087.56 234.005 1084.93 229.794C1082.3 225.584 1080.73 216.728 1078.61 203.478C1076.51 190.319 1072.3 133.475 1072.3 131.37C1072.3 129.686 1074.4 110.668 1075.45 101.369C1077.03 102.422 1079.98 107.159 1079.14 117.685C1078.09 130.844 1088.61 208.741 1094.93 216.636C1101.25 224.531 1113.7 233.303 1116.51 232.952Z" fill="#D9C4A3"/>
</g>
<path d="M1183.35 201.899C1178.3 201.478 1171.77 200.32 1169.14 199.793C1164.41 215.583 1174.93 227.689 1197.56 227.689C1215.67 227.689 1224.23 210.496 1225.46 201.899C1222.3 203.653 1213.67 206.109 1210.72 201.899C1207.77 197.688 1206.34 193.477 1205.99 191.898C1202.2 196.53 1188.62 193.828 1182.3 191.898C1184.76 195.407 1188.41 202.32 1183.35 201.899Z" fill="#E3BA7B" stroke="#3A2C08" stroke-width="0.3"/>
<g style="mix-blend-mode:multiply">
<path d="M1194.41 209.794C1200.72 206.636 1206.51 204.53 1206.51 192.425C1203.14 194.53 1190.37 195.056 1184.41 195.056C1184.93 196.285 1185.98 199.057 1185.98 200.32C1185.98 203.478 1174.93 200.846 1168.09 199.793C1167.56 204.53 1174.86 215.057 1174.41 215.057C1175.81 215.759 1186.57 213.711 1194.41 209.794Z" fill="#E1E1E1"/>
</g>
<path d="M1056.82 122.949C1056.82 124.213 1048.4 147.687 1044.19 159.266L1079.98 172.424L1088.4 128.212C1094.37 121.896 1106.51 108.317 1107.35 104.528C1108.4 99.7916 1102.61 97.1585 1099.98 97.6848C1097.88 98.1059 1093.14 101.72 1091.03 103.474C1092.61 95.2286 1095.77 78.3159 1095.77 76.6319C1095.77 74.527 1095.25 72.9471 1093.14 71.3686C1091.03 69.7901 1088.4 70.3154 1086.3 71.3686C1084.61 72.2111 1079.63 83.6495 1077.35 89.2634C1076.82 85.7547 1075.56 78.3162 1074.72 76.6319C1073.67 74.5266 1071.56 70.8423 1067.88 71.3686C1064.19 71.8949 1062.09 75.5792 1062.09 76.6319C1062.09 77.474 1063.49 88.913 1064.19 94.5272C1063.14 91.0183 1060.93 83.8953 1060.51 83.4742C1059.98 82.9479 1058.93 80.3161 1054.72 79.7898C1050.51 79.2635 1048.93 83.4741 1048.93 85.5794C1048.93 87.2637 1052.79 98.9135 1054.72 104.528C1044.19 96.6329 1042.09 104.528 1042.09 107.686C1042.09 110.844 1056.82 121.37 1056.82 122.949Z" fill="#FFCECE" stroke="#3A2C08" stroke-width="0.3"/>
<g style="mix-blend-mode:multiply">
<path d="M1063.35 125.054C1062.96 122.705 1049.31 110.493 1042.82 106.106C1041.24 106.106 1041.77 108.212 1042.82 109.264L1042.82 109.264C1043.87 110.317 1051.24 117.686 1053.35 119.265C1055.03 120.528 1056.51 122.598 1057.03 123.475L1043.87 159.266L1057.03 164.003C1059.66 149.266 1064.4 131.37 1063.35 125.054Z" fill="#F9DFDF"/>
</g>
<path d="M842.607 280.323C845.134 277.796 883.661 244.532 902.609 228.216L899.977 280.323C894.012 288.569 881.977 305.376 881.556 306.639C881.134 307.903 901.381 378.396 911.556 399.8L840.502 431.906C839.098 402.256 836.081 312.429 835.238 299.797C834.186 284.007 839.449 283.481 842.607 280.323Z" fill="#536BA8" stroke="#3A2C08" stroke-width="0.3"/>
<path d="M1193.14 222.956C1212.51 222.535 1221.56 209.096 1223.67 202.429C1229.99 197.167 1253.04 213.5 1256.41 213.5C1265.41 213.5 1331.89 259.517 1326.3 261.375C1319.99 263.477 1305.99 306.64 1298.09 304.008C1292.27 302.067 1282.3 293.481 1270.72 284.007C1269.67 318.745 1272.41 405.169 1270.72 409.801C1268.62 415.59 1145.7 435.158 1125.77 417C1102.09 395.421 1129.46 254.536 1125.77 254.01C1122.09 253.483 1097.75 241.633 1102.09 238.743C1106.82 235.584 1127.87 200.32 1127.87 192.953C1127.87 184.13 1170.33 199.974 1171.91 200.5C1173.49 201.026 1168.93 223.483 1193.14 222.956Z" fill="#1D1D25" stroke="#3A2C08" stroke-width="0.3"/>
<path d="M1184.93 235.584C1168.09 230.111 1165.44 208.351 1164.91 198L1171.41 200C1175.09 215.79 1177.03 224.005 1196.51 222.952C1215.98 221.9 1223.54 202.372 1223.91 202C1224.41 201.5 1226.91 201.5 1228.91 201.5L1230.19 201.899C1225.98 226.11 1205.98 242.427 1184.93 235.584Z" fill="black"/>
<path d="M1133.87 241.374C1125.98 241.374 1111.24 228.742 1110.19 228.216C1109.66 230.321 1101.24 238.742 1101.24 239.795C1101.24 240.848 1104.93 244.006 1108.61 246.111C1111.56 247.795 1121.42 252.427 1125.98 254.532C1130.72 255.059 1141.77 241.374 1133.87 241.374Z" fill="black"/>
<g style="mix-blend-mode:multiply">
<path d="M1268.09 264.007C1269.67 260.322 1288.09 290.322 1305.99 297.165C1304.06 300.323 1302.51 302.113 1301.25 302.955C1299.67 304.008 1299.67 304.534 1297.04 303.481C1294.41 302.429 1282.3 295.587 1270.72 284.007C1270.72 298.219 1270.72 357.693 1270.2 362.956C1269.67 368.22 1270.72 395.063 1270.2 409.8C1270.08 413.179 1255.99 411.379 1251.25 412.432C1247.46 413.274 1228.97 414.537 1228.09 414.537C1241.77 408.221 1256.51 279.795 1258.62 271.901C1260.3 265.585 1265.63 264.006 1268.09 264.007Z" fill="black"/>
</g>
<path d="M1156.01 165.027C1154.39 160.646 1166.51 161.372 1171.25 140.318C1173.01 132.485 1168.53 129.165 1183.76 126.177C1193.05 124.356 1217.29 127.858 1224.93 142.486C1227.32 147.062 1216.42 164.537 1217.92 168.104C1217.92 172.245 1215.46 185.582 1205.46 192.95C1197.74 198.638 1184.72 195.818 1181.77 194.529C1168.53 188.74 1167.85 177.352 1168.53 168.104C1165.47 169 1157.31 168.532 1156.01 165.027Z" fill="#F5C57C" stroke="#3A2C08" stroke-width="0.3"/>
<g style="mix-blend-mode:multiply">
<path d="M1216.91 153.5C1219.41 145.5 1211.5 146.5 1207.41 150.5C1208.91 147.5 1215.41 144 1218.41 144C1221.41 144 1221.91 146.5 1222.41 149.5C1222.41 152 1216.91 162.5 1213.41 163.5C1209.91 164.5 1213.91 161 1212.41 159C1211.69 158.04 1215.91 156 1216.91 153.5Z" fill="#F2D3A5"/>
</g>
<path d="M1170.94 174C1170.94 177.5 1182.91 182 1186.66 171.228" stroke="#997948" stroke-width="2" stroke-linecap="round" stroke-linejoin="round"/>
<path d="M1177.04 154.445C1177.04 154.445 1179.61 152.811 1180.83 155.25" stroke="#3A2C08" stroke-width="2" stroke-linecap="round" stroke-linejoin="round"/>
<path d="M1169.67 136.106C1163.03 125.009 1174.49 112.656 1188.09 109.788C1201.7 106.92 1207.04 108.738 1215.3 112.423C1222.42 115.599 1241.95 135.274 1235.46 146.713C1227.17 161.328 1239.79 160.041 1235.46 170.125C1234.74 171.809 1231.97 179.673 1233.61 180.591C1235.24 181.509 1230.49 186.371 1229.41 184.5C1228.33 182.629 1227.19 182.715 1224.41 183C1221.63 183.285 1220.52 184.245 1214.63 181.329C1208.75 178.414 1217.34 172.79 1215.3 171.307C1213.67 170.121 1211.33 172.353 1209.02 175.103C1208.87 174.498 1205.19 173.651 1208.4 170.125C1212.41 165.717 1213.68 158.848 1218.99 154.157C1224.29 149.466 1221.79 144.526 1217.04 144.526C1212.3 144.526 1208.11 150.643 1207.04 152.126C1205.96 153.609 1206.72 155.208 1202.29 155.519C1198.75 155.767 1198.21 149.751 1198.38 146.713C1197.8 148.324 1195.64 150.526 1191.66 146.444C1186.69 141.341 1184.29 132.119 1184.76 128.666C1185.14 125.903 1176.51 136.106 1169.67 136.106Z" fill="#21052B" stroke="#3A2C08" stroke-width="0.3" stroke-linecap="round" stroke-linejoin="round"/>
<path d="M1208.09 150.845C1205.03 150.954 1198.57 150.093 1196.02 146.669C1192.83 142.389 1198.15 134.071 1203.34 139.096L1205.54 141.225C1204.53 137.69 1203.39 129.495 1206.92 125C1211.33 119.382 1221.6 116.527 1217.14 134.882C1220.26 129.834 1227.37 120.746 1230.83 124.778C1234.08 128.56 1232.68 131.398 1231.39 132.54C1234.2 130.313 1239.83 126.86 1241.83 129.448C1244.39 132.785 1227.72 135.92 1226.57 139.405C1228.79 139.05 1233.21 138.74 1233.17 140.335C1233.11 142.329 1229.79 145.936 1225.98 145.826C1227.65 147.329 1228.25 150.844 1220.72 152.424C1223.35 147.161 1219.14 138.739 1208.09 150.845Z" fill="white" stroke="#3A2C08" stroke-width="0.3"/>
<g style="mix-blend-mode:multiply">
<path d="M1203.87 150.5C1204.67 150.9 1206.87 151 1207.87 151C1213.87 145 1216.41 144.5 1218.91 145C1221.41 145.5 1221.41 148 1221.41 149C1221.41 149.8 1221.08 151.667 1220.91 152.5L1224.91 151.001C1225.91 139.501 1217.81 136.225 1210.87 139.001C1205.87 141.001 1202.87 150 1203.87 150.5Z" fill="#D3E2F0"/>
</g>
<path d="M981.03 200.32C978.399 200.32 909.975 216.11 903.659 216.637C897.87 219.795 893.133 312.956 885.764 359.799C878.395 406.643 881.027 436.117 892.08 435.591C903.133 435.065 973.135 425.064 975.767 402.958C978.398 380.852 1011.56 318.219 1012.61 314.535C1013.66 310.85 1025.24 301.903 1028.93 291.902C1032.61 281.902 1017.87 267.165 1022.08 266.638C1026.29 266.112 1053.87 249.269 1058.93 242.427C1062.64 237.401 1079.98 172.425 1079.98 171.372C1079.98 170.319 1046.82 158.74 1044.19 159.266C1041.56 159.793 1031.03 201.373 1028.93 202.952C1026.82 204.531 981.03 214.005 981.03 210.847C981.03 207.689 983.662 200.32 981.03 200.32Z" fill="#6B81BA" stroke="#3A2C08" stroke-width="0.3"/>
<g style="mix-blend-mode:multiply">
<path d="M946.502 220.847C954.923 215.058 970.713 211.373 981.24 211.373C981.59 210.145 981.766 207.163 982.292 204.005C982.777 201.097 980.889 200.32 980.187 200.32L946.502 207.689C944.747 209.443 940.607 213.268 938.08 214.531C935.554 215.794 911.062 229.093 899.132 235.585L896.5 258.743C900.535 258.743 912.876 257.352 922.817 251.901C939.133 242.953 940.602 224.903 946.502 220.847Z" fill="#C4C4C4"/>
</g>
<g style="mix-blend-mode:multiply">
<path d="M865.446 303.481C864.183 300.112 884.92 276.813 895.447 265.585L893.341 290.323L881.762 307.165L889.131 334.534L887.025 350.851C880.358 336.464 866.709 306.849 865.446 303.481Z" fill="#C4C4C4"/>
</g>
<g style="mix-blend-mode:multiply">
<path d="M961.766 417.695C957.555 415.765 953.345 404.958 970.187 377.168C986.984 349.454 1005.53 322.926 1012.76 313.036C1009.8 319.676 1002.29 336.324 995.978 349.798C988.083 366.641 977.03 397.168 976.503 399.274C975.977 401.379 976.503 403.484 974.924 407.169C973.661 410.116 965.626 415.414 961.766 417.695Z" fill="#C4C4C4"/>
</g>
<g style="mix-blend-mode:multiply">
<path d="M1044.93 231.374C1049.56 226.742 1061.94 186.285 1067.56 166.635C1071.77 168.038 1080.19 170.951 1080.19 171.372C1080.19 171.898 1064.4 234.005 1059.66 241.374C1054.93 248.743 1025.45 266.638 1021.24 267.164C1017.03 267.691 1016.6 261.994 1021.24 258.743C1026.5 255.059 1039.14 237.163 1044.93 231.374Z" fill="#C4C4C4"/>
</g>
<path d="M943.659 208.217V195.585C937.343 193.479 931.027 182.426 931.027 171.373C931.027 160.32 936.291 152.425 943.659 148.215C951.028 144.004 960.398 144.02 960.712 146.633C962.607 162.424 977.345 159.793 975.449 163.478C974.688 164.958 972.817 164.531 972.817 165.057C972.817 166.109 972.817 166.636 974.396 167.162C975.975 167.689 976.818 168.215 977.345 168.742C977.766 169.163 977.52 170.321 977.345 170.847C978.397 171.373 978.924 172.952 977.345 174.005C975.766 175.058 979.67 181.233 977.345 187.689C975.449 192.953 967.344 194.005 962.607 195.058V204.006L943.659 208.217Z" fill="#FFCECE"/>
<path d="M977.345 170.847C978.397 171.373 978.924 172.952 977.345 174.005C975.766 175.058 979.67 181.233 977.345 187.689C975.449 192.953 967.344 194.005 962.607 195.058V204.006L943.659 208.217V195.585C937.343 193.479 931.027 182.426 931.027 171.373C931.027 160.32 936.291 152.425 943.659 148.215C951.028 144.004 960.398 144.02 960.712 146.633C962.607 162.424 977.345 159.793 975.449 163.478C974.688 164.958 972.817 164.531 972.817 165.057C972.817 166.109 972.817 166.636 974.396 167.162C975.975 167.689 976.818 168.215 977.345 168.742C977.766 169.163 977.52 170.321 977.345 170.847ZM977.345 170.847C974.713 175.057 961.028 177.689 959.976 170.32" stroke="#3A2C08" stroke-width="0.3"/>
<g style="mix-blend-mode:multiply">
<path d="M967.028 178.214C964.502 177.793 963.519 175.583 963.344 174.53C963.87 174.53 965.449 175.583 969.66 174.53C973.87 173.477 976.502 172.074 977.555 170.846C977.73 171.021 978.081 171.477 978.081 171.898C978.081 172.425 978.607 173.477 977.555 174.004C976.502 174.53 970.186 178.741 967.028 178.214Z" fill="#F2CACA"/>
</g>
<path d="M948.083 178.741C948.083 177.688 944.398 177.688 944.398 178.741C944.399 180.846 945.451 182.426 949.136 183.478" stroke="black" stroke-width="0.3"/>
<path d="M949.451 199.794C945.766 202.426 950.187 216.11 938.081 216.637C934.923 221.374 930.503 224.532 903.133 235.585C882.186 244.044 853.839 224.139 840.982 210.321C837.04 206.084 834.554 202.42 834.184 200.32C832.605 191.373 837.342 193.478 839.447 196.11C840.371 197.265 845.29 198.688 850.183 198.215C852.413 198 854.723 197.347 857.026 195.899C861.18 193.288 865.313 188.092 868.922 178.215C878.922 150.845 910.502 152.951 921.028 151.372C931.555 149.793 928.397 142.951 939.45 137.161C941.558 136.057 944.011 135.642 946.502 135.715C950.763 135.841 955.135 137.396 958.082 139.375C962.443 142.305 963.682 146.162 956.819 147.688C945.45 150.214 947.871 168.039 950.503 176.636C949.846 176.088 948.41 175.322 946.502 175.13C945.353 175.015 944.033 175.108 942.608 175.583C940.172 176.395 940.241 179.017 941.17 181.373C941.833 183.052 942.932 184.596 943.871 185.251C944.175 185.464 944.463 185.583 944.713 185.583C946.819 185.583 952.082 187.162 952.082 189.268C952.082 191.373 953.135 197.162 949.451 199.794Z" fill="#F39E50"/>
<path d="M942.608 175.583C939.24 172.951 932.291 174.004 928.081 175.583C923.87 177.162 921.765 183.478 920.186 187.689C918.607 191.899 915.449 191.373 912.817 192.426C910.185 193.478 905.448 202.952 903.133 204.005C900.818 205.057 894.922 202.952 894.922 206.11C894.922 209.268 886.5 210.321 884.921 210.321C883.342 210.321 880.184 207.689 877.553 207.689C874.921 207.689 868.079 212.426 867.552 207.689C867.131 203.9 860.359 198.25 857.026 195.899M942.608 175.583C940.172 176.395 940.241 179.017 941.17 181.373M942.608 175.583C944.033 175.108 945.353 175.015 946.502 175.13M840.982 210.321C837.04 206.084 834.554 202.42 834.184 200.32C832.605 191.373 837.342 193.478 839.447 196.11C840.371 197.265 845.29 198.688 850.183 198.215M840.982 210.321C853.839 224.139 882.186 244.044 903.133 235.585C930.503 224.532 934.923 221.374 938.081 216.637C950.187 216.11 945.766 202.426 949.451 199.794C953.135 197.162 952.082 191.373 952.082 189.268C952.082 187.162 946.819 185.583 944.713 185.583C943.691 185.583 942.048 183.597 941.17 181.373M840.982 210.321C850.014 216.637 869.868 229.058 877.026 228.216C885.974 227.163 888.079 224.005 894.922 225.058C901.764 226.111 908.606 224.005 911.238 218.216C913.87 212.426 914.922 203.478 923.87 202.952C932.818 202.426 931.765 184.531 943.871 185.251M850.183 198.215C852.464 200.665 845.446 210.321 857.026 212.426C863.326 213.572 873.342 225.058 877.553 217.163C880.03 212.519 893.343 216.637 901.238 215.584C909.133 214.531 909.133 208.742 911.238 201.899C912.922 196.426 921.028 198.759 927.028 185.583C928.386 183.302 933.115 179.267 941.17 181.373M850.183 198.215C852.413 198 854.723 197.347 857.026 195.899M857.026 195.899C861.18 193.288 865.313 188.092 868.922 178.215C878.922 150.845 910.502 152.951 921.028 151.372C931.555 149.793 928.397 142.951 939.45 137.161C941.558 136.057 944.011 135.642 946.502 135.715M946.502 175.13C948.41 175.322 949.846 176.088 950.503 176.636C947.871 168.039 945.45 150.214 956.819 147.688C963.682 146.162 962.443 142.305 958.082 139.375M946.502 175.13C946.525 172.474 946.031 166.214 943.871 162.425C941.17 157.688 941.345 148.74 944.713 145.582C948.081 142.424 952.292 137.906 958.082 139.375M958.082 139.375C955.135 137.396 950.763 135.841 946.502 135.715M946.502 135.715C943.871 137.601 938.607 142.319 938.607 146.108C938.607 150.845 939.134 153.477 938.607 156.109C938.081 158.74 940.575 162.951 941.17 165.056C941.765 167.162 939.766 173.099 942.608 175.13" stroke="#3A2C08" stroke-width="0.3"/>
<g style="mix-blend-mode:multiply">
<path d="M905.449 168.214C912.608 165.687 921.064 155.582 924.397 150.845C922.643 151.196 915.54 151.316 900.186 154.003C879.133 157.687 872.291 171.372 870.712 173.477C869.448 175.161 866.325 183.302 864.922 187.162C869.483 182.425 881.959 172.244 885.449 171.372C893.87 169.266 896.502 171.372 905.449 168.214Z" fill="#EAD4C1"/>
</g>
<g style="mix-blend-mode:multiply">
<path d="M961.238 142.423C959.132 138.213 948.079 134.529 941.763 136.109C936.5 139.795 933.869 158.213 937.554 161.371C940.501 163.898 934.922 172.424 943.869 175.056C946.395 175.056 949.483 175.758 950.711 176.109C945.658 159.687 950.711 151.021 953.869 148.741C959.132 146.636 963.343 146.634 961.238 142.423Z" fill="#E3D0B2"/>
</g>
<g style="mix-blend-mode:multiply">
<path d="M940.188 206.636C943.136 202.005 944.223 190.846 944.399 185.583C946.504 185.583 952.294 187.688 952.294 189.267C952.294 190.846 952.294 194.004 951.768 196.11C951.241 198.215 950.407 199.05 949.662 199.794L949.633 199.823C949.079 200.376 947.557 201.896 947.557 204.531C947.557 208.215 945.452 213.479 944.399 214.531C943.557 215.373 939.837 216.286 938.083 216.637C937.732 217.163 936.504 218.742 934.399 220.847C931.767 223.479 910.187 233.479 899.661 236.637C891.239 239.164 881.414 236.286 877.555 234.532C895.976 241.901 924.398 221.374 926.504 216.11C928.609 210.847 936.504 212.426 940.188 206.636Z" fill="#C8B9AC"/>
</g>
<path d="M962.1 164.684C962.1 164.684 963.579 162.018 965.817 163.577" stroke="#093567" stroke-width="2" stroke-linecap="round" stroke-linejoin="round"/>
<path d="M1027 102.696C1028.6 105.096 1027 110.363 1026 112.696C1024.15 112.042 1021.04 110.491 1019 108.265C1017.92 107.086 1017.14 105.719 1017 104.196C1016.92 103.293 1016.86 102.459 1016.83 101.696C1016.7 98.7421 1016.87 96.8586 1017 96.1963C1018.41 96.8144 1020.69 97.9284 1022.75 99.1963C1024.06 99.997 1025.27 100.859 1026.14 101.696C1026.49 102.036 1026.78 102.371 1027 102.696Z" fill="#D2C75F"/>
<path d="M1026 112.696C1027 110.363 1028.6 105.096 1027 102.696C1026.78 102.371 1026.49 102.036 1026.14 101.696M1026 112.696C1024.15 112.042 1021.04 110.491 1019 108.265M1026 112.696C1024.44 112.072 1023.12 110.959 1022 109.576M1017 96.1963C1017.25 98.4377 1018 101.944 1019.42 105.196M1017 96.1963C1018.41 96.8144 1020.69 97.9284 1022.75 99.1963M1017 96.1963C1016.87 96.8586 1016.7 98.7421 1016.83 101.696M1019.42 105.196C1020.78 104.196 1023.35 101.596 1022.75 99.1963M1019.42 105.196C1019.75 105.934 1020.11 106.659 1020.5 107.353M1022.75 99.1963C1024.06 99.997 1025.27 100.859 1026.14 101.696M1018 101.696C1017.72 101.863 1017.09 102.096 1016.83 101.696M1016.83 101.696C1016.86 102.459 1016.92 103.293 1017 104.196C1017.14 105.719 1017.92 107.086 1019 108.265M1020.5 107.353C1020.17 107.68 1019.4 108.319 1019 108.265M1020.5 107.353C1020.95 108.143 1021.45 108.892 1022 109.576M1022 109.576C1023.43 108.616 1026.25 105.696 1026.14 101.696" stroke="black" stroke-width="0.3"/>
<path d="M1126.61 139.259C1124.94 141.639 1126.52 145.643 1127.52 147.348C1129.01 146.601 1132.05 144.634 1132.27 142.75C1132.48 140.865 1130.85 136.958 1130 135.24C1129.56 135.588 1128.27 136.879 1126.61 139.259Z" fill="#ECE17E" stroke="black" stroke-width="0.3"/>
<path d="M1114.04 141.095C1112.26 141.705 1111.56 144.405 1111.43 145.679C1112.5 145.857 1114.84 145.987 1115.67 145.083C1116.5 144.178 1117.14 141.509 1117.35 140.288C1116.99 140.303 1115.82 140.486 1114.04 141.095Z" fill="#ECE17E" stroke="black" stroke-width="0.3"/>
<path d="M1149.32 125.101C1148.34 126.727 1144.76 127.259 1143.1 127.322C1143.09 127.245 1143.08 127.163 1143.07 127.079C1142.91 125.021 1143.21 120.999 1145.61 119.58C1146.11 119.289 1146.57 119.03 1147 118.801C1148.74 117.87 1149.93 117.436 1150.37 117.328C1150.42 118.968 1150.33 122.312 1149.69 124.259C1149.58 124.583 1149.46 124.868 1149.32 125.101Z" fill="#B1A7C7"/>
<path d="M1150.37 117.328C1150.42 118.968 1150.33 122.312 1149.69 124.259M1150.37 117.328C1149.95 118.733 1149.14 120.814 1148.03 122.696M1150.37 117.328C1149.93 117.436 1148.74 117.87 1147 118.801M1143.07 127.079C1143.08 127.163 1143.09 127.245 1143.1 127.322C1144.76 127.259 1148.34 126.727 1149.32 125.101C1149.46 124.868 1149.58 124.583 1149.69 124.259M1143.07 127.079C1142.91 125.021 1143.21 120.999 1145.61 119.58C1146.11 119.289 1146.57 119.03 1147 118.801M1143.07 127.079C1144.55 126.879 1145.88 125.742 1147 124.259M1147 124.259C1147.46 124.446 1148.64 124.709 1149.69 124.259M1147 124.259C1147.37 123.769 1147.71 123.241 1148.03 122.696M1148.03 122.696C1147.34 122.099 1146.17 120.485 1147 118.801" stroke="black" stroke-width="0.3"/>
<path d="M1125.56 124.101C1126.53 125.727 1130.11 126.259 1131.78 126.322C1131.79 126.245 1131.79 126.163 1131.8 126.079C1131.96 124.021 1131.67 119.999 1129.26 118.58C1128.77 118.289 1128.31 118.03 1127.88 117.801C1126.13 116.87 1124.94 116.436 1124.51 116.328C1124.46 117.968 1124.55 121.312 1125.19 123.259C1125.29 123.583 1125.42 123.868 1125.56 124.101Z" fill="#B1A7C7"/>
<path d="M1124.51 116.328C1124.46 117.968 1124.55 121.312 1125.19 123.259M1124.51 116.328C1124.93 117.733 1125.73 119.814 1126.84 121.696M1124.51 116.328C1124.94 116.436 1126.13 116.87 1127.88 117.801M1131.8 126.079C1131.79 126.163 1131.79 126.245 1131.78 126.322C1130.11 126.259 1126.53 125.727 1125.56 124.101C1125.42 123.868 1125.29 123.583 1125.19 123.259M1131.8 126.079C1131.96 124.021 1131.67 119.999 1129.26 118.58C1128.77 118.289 1128.31 118.03 1127.88 117.801M1131.8 126.079C1130.32 125.879 1128.99 124.742 1127.88 123.259M1127.88 123.259C1127.42 123.446 1126.24 123.709 1125.19 123.259M1127.88 123.259C1127.51 122.769 1127.16 122.241 1126.84 121.696M1126.84 121.696C1127.53 121.099 1128.7 119.485 1127.88 117.801" stroke="black" stroke-width="0.3"/>
<path d="M1038.5 84.1963C1038.29 87.3961 1037.21 89.1265 1036 89.9941C1034.94 90.7533 1033.78 90.8519 1033 90.6963C1029.82 89.7272 1024.2 86.0902 1023.07 78.6963C1022.84 77.1889 1022.8 75.5253 1023 73.6963C1023.26 71.3654 1023.64 69.5904 1024.09 68.1963C1025.73 63.1309 1028.33 63.0944 1029.5 59.6963C1028.5 65.3284 1029.82 69.423 1031.74 72.6963C1033.36 75.4756 1035.42 77.6628 1036.84 79.6963C1037.9 81.2211 1038.6 82.6595 1038.5 84.1963Z" fill="#C37D5E"/>
<path d="M1029.5 59.6963C1028.61 63.3386 1027.82 68.8242 1028.1 74.1963M1029.5 59.6963C1028.5 65.3284 1029.82 69.423 1031.74 72.6963M1029.5 59.6963C1028.33 63.0944 1025.73 63.1309 1024.09 68.1963M1036 89.9941C1037.21 89.1265 1038.29 87.3961 1038.5 84.1963C1038.6 82.6595 1037.9 81.2211 1036.84 79.6963M1036 89.9941C1034.94 90.7533 1033.78 90.8519 1033 90.6963C1029.82 89.7272 1024.2 86.0902 1023.07 78.6963M1036 89.9941C1033.4 88.808 1031.58 86.7446 1030.34 84.1963M1028.71 79.1963C1027.52 79.6963 1024.73 80.2963 1023.07 78.6963M1028.71 79.1963C1028.38 77.5822 1028.18 75.8949 1028.1 74.1963M1028.71 79.1963C1029.07 80.9802 1029.6 82.6747 1030.34 84.1963M1023.07 78.6963C1022.84 77.1889 1022.8 75.5253 1023 73.6963C1023.26 71.3654 1023.64 69.5904 1024.09 68.1963M1028.1 74.1963C1029.06 74.0296 1031.13 73.4963 1031.74 72.6963M1031.74 72.6963C1033.36 75.4756 1035.42 77.6628 1036.84 79.6963M1028 70.6963C1026.73 70.363 1024.17 69.3963 1024.09 68.1963M1030.34 84.1963C1031.62 84.0296 1034.7 82.8963 1036.84 79.6963" stroke="black" stroke-width="0.3"/>
<path d="M1122.1 56.8539C1122.91 59.0303 1123.96 60.1888 1125 60.7422C1126.25 61.4093 1127.46 61.1966 1128.16 60.8272C1130.26 59.4422 1133.41 55.8815 1133.49 50.6963C1133.52 48.8403 1133.15 46.7762 1132.21 44.5292C1132.16 44.4164 1132.11 44.3055 1132.06 44.1963C1128.54 36.0525 1125.75 37.808 1123.51 34.6763C1123.51 34.6791 1123.51 34.6824 1123.51 34.6861C1125.66 38.9741 1125.61 42.592 1124.87 45.6963C1124.33 47.9463 1123.43 49.9265 1122.76 51.6963C1122.01 53.6437 1121.54 55.3364 1122.1 56.8539Z" fill="#BE9E4A"/>
<path d="M1123.51 34.6763C1123.66 34.9804 1126.88 40.2675 1127.93 46.6963M1123.51 34.6763C1125.66 38.9686 1125.61 42.5897 1124.87 45.6963M1123.51 34.6763C1125.75 37.808 1128.54 36.0525 1132.06 44.1963M1125 60.7422C1123.96 60.1888 1122.91 59.0303 1122.1 56.8539C1121.54 55.3364 1122.01 53.6437 1122.76 51.6963M1125 60.7422C1126.25 61.4093 1127.46 61.1966 1128.16 60.8272C1130.26 59.4422 1133.41 55.8815 1133.49 50.6963M1125 60.7422C1126.34 58.9933 1127.19 57.1147 1127.69 55.1963M1128.19 52.1963C1129.12 52.363 1131.48 52.2963 1133.49 50.6963M1128.19 52.1963C1128.11 53.1987 1127.95 54.2028 1127.69 55.1963M1128.19 52.1963C1128.28 51.0828 1128.27 49.9716 1128.19 48.8797M1133.49 50.6963C1133.52 48.8403 1133.15 46.7762 1132.21 44.5292C1132.16 44.4164 1132.11 44.3055 1132.06 44.1963M1127.93 46.6963C1127.19 46.752 1125.56 46.63 1124.87 45.6963M1127.93 46.6963C1128.04 47.4117 1128.13 48.1413 1128.19 48.8797M1124.87 45.6963C1124.33 47.9463 1123.43 49.9265 1122.76 51.6963M1127.69 55.1963C1126.63 55.1963 1124.16 54.4963 1122.76 51.6963M1128.19 48.8797C1129.43 48.4852 1131.95 46.9963 1132.06 44.1963" stroke="black" stroke-width="0.3"/>
<path d="M1145 110.587C1144.31 112.451 1143.38 113.325 1142.5 113.665C1141.67 113.986 1140.9 113.831 1140.43 113.584C1139.25 112.807 1137.63 111.12 1136.86 108.696C1136.22 106.698 1136.15 104.197 1137.38 101.292C1137.68 100.581 1137.97 99.9661 1138.26 99.4309C1140.56 95.1239 1142.41 95.9897 1143.94 93.8607C1141.35 99.0152 1142.99 102.886 1144.21 105.951C1144.53 106.752 1144.82 107.497 1145 108.196C1145.22 109.058 1145.28 109.85 1145 110.587Z" fill="#D2C75F"/>
<path d="M1143.94 93.8607C1142.66 95.8429 1141.06 99.1393 1140.34 102.696M1143.94 93.8607C1142.41 95.9897 1140.56 95.1239 1138.26 99.4309M1143.94 93.8607C1140.67 100.361 1144.14 104.821 1145 108.196M1142.5 113.665C1143.38 113.325 1144.31 112.451 1145 110.587C1145.28 109.85 1145.22 109.058 1145 108.196M1142.5 113.665C1141.67 113.986 1140.9 113.831 1140.43 113.584C1139.25 112.807 1137.63 111.12 1136.86 108.696M1142.5 113.665C1141.96 113.044 1141.52 112.385 1141.17 111.696M1140.28 109.196C1139.76 109.363 1138.35 109.496 1136.86 108.696M1140.28 109.196C1140.13 108.541 1140.04 107.872 1139.99 107.196M1140.28 109.196C1140.47 110.058 1140.76 110.896 1141.17 111.696M1136.86 108.696C1136.22 106.698 1136.15 104.197 1137.38 101.292C1137.68 100.581 1137.97 99.9661 1138.26 99.4309M1140.34 102.696C1139.73 102.519 1138.46 101.619 1138.26 99.4309M1140.34 102.696C1140.04 104.176 1139.9 105.702 1139.99 107.196M1139.99 107.196C1140.83 107.196 1142.61 107.151 1144.21 105.951M1141.17 111.696C1142.12 111.363 1144.2 110.195 1145 108.196" stroke="black" stroke-width="0.3"/>
<path d="M1104.51 69.5483C1104.6 70.9737 1104.94 71.9874 1105.38 72.6963C1106.27 74.1007 1107.6 74.3088 1108.38 74.1519C1110.54 73.4897 1114.29 71.0687 1115.26 66.1963C1115.51 64.9888 1115.58 63.6308 1115.41 62.1117C1115.31 61.2533 1115.2 60.5013 1115.06 59.8384C1113.98 54.5941 1111.77 54.9209 1110.84 52.1963C1111.74 57.2832 1109.98 60.5992 1108.08 63.1963C1106.28 65.6615 1104.37 67.4789 1104.51 69.5483Z" fill="#D2C75F"/>
<path d="M1110.84 52.1963C1111.42 54.6976 1112.09 58.8674 1112.01 62.6963M1110.84 52.1963C1111.77 54.9209 1113.98 54.5941 1115.06 59.8384M1110.84 52.1963C1111.74 57.2832 1109.98 60.5992 1108.08 63.1963M1105.38 72.6963C1104.94 71.9874 1104.6 70.9737 1104.51 69.5483C1104.37 67.4789 1106.28 65.6615 1108.08 63.1963M1105.38 72.6963C1106.27 74.1007 1107.6 74.3088 1108.38 74.1519C1110.54 73.4897 1114.29 71.0687 1115.26 66.1963M1105.38 72.6963C1106.89 72.6963 1109.09 71.0296 1110 70.1963C1110.48 69.6576 1110.86 68.9779 1111.15 68.1963M1112.01 62.6963C1112.91 62.291 1114.78 61.1521 1115.06 59.8384M1112.01 62.6963C1111.99 63.9196 1111.89 65.1081 1111.69 66.1963M1115.06 59.8384C1115.2 60.5013 1115.31 61.2533 1115.41 62.1117C1115.58 63.6308 1115.51 64.9888 1115.26 66.1963M1108.08 63.1963C1108.32 64.863 1109.27 68.1963 1111.15 68.1963M1111.15 68.1963C1111.38 67.5856 1111.56 66.9127 1111.69 66.1963M1111.69 66.1963C1112.3 66.5296 1113.88 66.9963 1115.26 66.1963" stroke="black" stroke-width="0.3"/>
<path d="M1038.5 101.696C1040.1 103.696 1042.5 103.863 1043.5 103.696C1044.88 103.696 1044.5 100.196 1042 98.1963C1040 96.5963 1038.33 95.0296 1037 94.6963C1036.83 96.1963 1036.9 99.6963 1038.5 101.696Z" fill="#ECE17E" stroke="black" stroke-width="0.3"/>
<path d="M1032.35 118.064C1033.22 119.169 1034.52 119.261 1035.07 119.169C1035.82 119.169 1035.61 117.235 1034.25 116.13C1033.17 115.246 1032.26 114.38 1031.53 114.196C1031.44 115.025 1031.48 116.959 1032.35 118.064Z" fill="#ECE17E" stroke="black" stroke-width="0.3"/>
<path d="M1123.49 77.3643C1122.28 79.6251 1119.95 80.2316 1118.94 80.2522C1117.58 80.5077 1117.31 76.9968 1119.4 74.57C1121.07 72.6285 1122.42 70.7813 1123.67 70.2078C1124.11 71.6513 1124.69 75.1035 1123.49 77.3643Z" fill="#FFC37C" stroke="black" stroke-width="0.3"/>
<path d="M1071.56 50.6963C1074.06 52.6963 1074.45 56.1963 1073.06 56.1963C1072.21 56.3381 1070.35 56.2386 1068.83 54.9749C1068.56 54.753 1068.3 54.4951 1068.06 54.1963C1067.35 53.3118 1066.95 52.1339 1066.73 50.9654C1066.45 49.4917 1066.47 48.0329 1066.56 47.1963C1067.77 47.4979 1069.25 48.809 1071 50.241C1071.18 50.3918 1071.37 50.5439 1071.56 50.6963Z" fill="#D2C75F"/>
<path d="M1073.06 56.1963C1074.45 56.1963 1074.06 52.6963 1071.56 50.6963C1071.37 50.5439 1071.18 50.3918 1071 50.241M1073.06 56.1963C1072.5 55.9658 1071.84 55.3426 1071.14 54.5083M1073.06 56.1963C1072.21 56.3381 1070.35 56.2386 1068.83 54.9749M1066.56 47.1963C1067.77 47.4979 1069.25 48.809 1071 50.241M1066.56 47.1963C1067.03 48.1231 1067.73 49.3961 1068.51 50.6963M1066.56 47.1963C1066.47 48.0329 1066.45 49.4917 1066.73 50.9654M1070.14 53.1963C1070.43 52.7261 1071 51.4768 1071 50.241M1070.14 53.1963C1069.58 52.411 1069.03 51.5478 1068.51 50.6963M1070.14 53.1963C1070.47 53.6683 1070.81 54.1121 1071.14 54.5083M1068.51 50.6963C1068.16 50.8757 1067.31 51.1806 1066.73 50.9654M1066.73 50.9654C1066.95 52.1339 1067.35 53.3118 1068.06 54.1963C1068.3 54.4951 1068.56 54.753 1068.83 54.9749M1071.14 54.5083C1070.64 54.7567 1069.49 55.1978 1068.83 54.9749" stroke="black" stroke-width="0.3"/>
<path d="M1016.56 133.696C1019.06 135.696 1019.45 139.196 1018.06 139.196C1017.21 139.338 1015.35 139.239 1013.83 137.975C1013.56 137.753 1013.3 137.495 1013.06 137.196C1012.35 136.312 1011.95 135.134 1011.73 133.965C1011.45 132.492 1011.47 131.033 1011.56 130.196C1012.77 130.498 1014.25 131.809 1016 133.241C1016.18 133.392 1016.37 133.544 1016.56 133.696Z" fill="#D2C75F"/>
<path d="M1018.06 139.196C1019.45 139.196 1019.06 135.696 1016.56 133.696C1016.37 133.544 1016.18 133.392 1016 133.241M1018.06 139.196C1017.5 138.966 1016.84 138.343 1016.14 137.508M1018.06 139.196C1017.21 139.338 1015.35 139.239 1013.83 137.975M1011.56 130.196C1012.77 130.498 1014.25 131.809 1016 133.241M1011.56 130.196C1012.03 131.123 1012.73 132.396 1013.51 133.696M1011.56 130.196C1011.47 131.033 1011.45 132.492 1011.73 133.965M1015.14 136.196C1015.43 135.726 1016 134.477 1016 133.241M1015.14 136.196C1014.58 135.411 1014.03 134.548 1013.51 133.696M1015.14 136.196C1015.47 136.668 1015.81 137.112 1016.14 137.508M1013.51 133.696C1013.16 133.876 1012.31 134.181 1011.73 133.965M1011.73 133.965C1011.95 135.134 1012.35 136.312 1013.06 137.196C1013.3 137.495 1013.56 137.753 1013.83 137.975M1016.14 137.508C1015.64 137.757 1014.49 138.198 1013.83 137.975" stroke="black" stroke-width="0.3"/>
<path d="M1046.62 32.1963C1048.78 32.7306 1051.41 34.9517 1054.5 37.4592C1055.03 37.8906 1055.58 38.3305 1056.14 38.7717C1057.08 39.5182 1057.87 40.376 1058.5 41.2713C1061.05 44.8823 1061.1 49.1045 1058.99 49.1045C1057.48 49.3535 1054.28 49.2065 1051.5 47.2464C1050.78 46.7416 1050.1 46.1166 1049.47 45.3471C1048.59 44.2574 1047.95 42.9308 1047.5 41.5274C1046.39 38.0919 1046.39 34.1971 1046.62 32.1963Z" fill="#C37D5E"/>
<path d="M1058.99 49.1045C1061.1 49.1045 1061.05 44.8823 1058.5 41.2713M1058.99 49.1045C1058.25 48.9805 1057.26 48.1348 1056.14 46.8562M1058.99 49.1045C1057.48 49.3535 1054.28 49.2065 1051.5 47.2464M1046.62 32.1963C1048.78 32.7306 1051.41 34.9517 1054.5 37.4592M1046.62 32.1963C1047.81 34.3948 1049.6 37.5014 1051.5 40.454M1046.62 32.1963C1046.39 34.1971 1046.39 38.0919 1047.5 41.5274M1053.5 43.4401C1054.33 42.8675 1055.7 40.8696 1054.5 37.4592M1053.5 43.4401C1052.83 42.4934 1052.16 41.483 1051.5 40.454M1053.5 43.4401C1053.97 44.1134 1054.44 44.7544 1054.9 45.3471M1054.5 37.4592C1055.03 37.8906 1055.58 38.3305 1056.14 38.7717C1057.08 39.5182 1057.87 40.376 1058.5 41.2713M1058.5 41.2713C1058.42 43.0196 1057.84 46.5842 1056.14 46.8562M1056.14 46.8562C1055.74 46.4033 1055.32 45.8959 1054.9 45.3471M1051.5 40.454C1051 41.1696 1049.5 42.3862 1047.5 41.5274M1047.5 41.5274C1047.95 42.9308 1048.59 44.2574 1049.47 45.3471C1050.1 46.1166 1050.78 46.7416 1051.5 47.2464M1054.9 45.3471C1054.44 45.9969 1053.12 47.2865 1051.5 47.2464" stroke="black" stroke-width="0.3"/>
<path d="M1081.63 35.0265C1080.66 34.7047 1078.62 33.4319 1078.15 30.9151C1078.04 30.3626 1078.04 29.7809 1078.1 29.1963C1078.33 27.1178 1079.44 25.0022 1080.11 24.0292C1080.67 24.5347 1081.14 25.4164 1081.63 26.4985C1082.02 27.3852 1082.42 28.4065 1082.88 29.4654C1083.04 29.84 1083.16 30.2199 1083.25 30.5964C1083.45 31.5283 1083.44 32.4395 1083.29 33.1963C1083.01 34.5331 1082.31 35.3884 1081.63 35.0265Z" fill="#D2C75F"/>
<path d="M1081.63 35.0265C1080.66 34.7047 1078.62 33.4319 1078.15 30.9151C1078.04 30.3626 1078.04 29.7809 1078.1 29.1963M1081.63 35.0265C1081.29 34.7152 1081.01 34.2565 1080.79 33.6963M1081.63 35.0265C1082.31 35.3884 1083.01 34.5331 1083.29 33.1963M1080.11 24.0292C1080.02 24.8708 1079.96 25.9885 1079.95 27.1963M1080.11 24.0292C1080.67 24.5347 1081.14 25.4164 1081.63 26.4985M1080.11 24.0292C1079.44 25.0022 1078.33 27.1178 1078.1 29.1963M1080.11 30.5964C1080.57 30.9733 1081.84 31.5011 1083.25 30.5964M1080.11 30.5964C1080.06 30.1378 1080.02 29.6678 1079.99 29.1963M1080.11 30.5964C1080.23 31.7568 1080.45 32.844 1080.79 33.6963M1083.25 30.5964C1083.16 30.2199 1083.04 29.84 1082.88 29.4654C1082.42 28.4065 1082.02 27.3852 1081.63 26.4985M1083.25 30.5964C1083.45 31.5283 1083.44 32.4395 1083.29 33.1963M1079.95 27.1963C1080.38 27.2311 1081.33 27.1403 1081.63 26.4985M1079.95 27.1963C1079.95 27.8466 1079.96 28.5229 1079.99 29.1963M1079.99 29.1963C1079.73 29.363 1078.99 29.5963 1078.1 29.1963M1080.79 33.6963C1081.38 33.863 1082.71 33.9963 1083.29 33.1963" stroke="black" stroke-width="0.3"/>
<path d="M1104.32 126.223C1103.36 125.901 1101.31 124.628 1100.84 122.111C1100.73 121.559 1100.73 120.977 1100.79 120.393C1101.02 118.314 1102.13 116.198 1102.8 115.225C1103.36 115.731 1103.83 116.613 1104.32 117.695C1104.71 118.582 1105.11 119.603 1105.57 120.662C1105.73 121.036 1105.85 121.416 1105.94 121.793C1106.15 122.725 1106.13 123.636 1105.98 124.393C1105.7 125.729 1105 126.585 1104.32 126.223Z" fill="#D2C75F"/>
<path d="M1104.32 126.223C1103.36 125.901 1101.31 124.628 1100.84 122.111C1100.73 121.559 1100.73 120.977 1100.79 120.393M1104.32 126.223C1103.98 125.911 1103.7 125.453 1103.48 124.893M1104.32 126.223C1105 126.585 1105.7 125.729 1105.98 124.393M1102.8 115.225C1102.72 116.067 1102.65 117.185 1102.64 118.393M1102.8 115.225C1103.36 115.731 1103.83 116.613 1104.32 117.695M1102.8 115.225C1102.13 116.198 1101.02 118.314 1100.79 120.393M1102.8 121.793C1103.26 122.17 1104.54 122.697 1105.94 121.793M1102.8 121.793C1102.75 121.334 1102.71 120.864 1102.69 120.393M1102.8 121.793C1102.92 122.953 1103.14 124.04 1103.48 124.893M1105.94 121.793C1105.85 121.416 1105.73 121.036 1105.57 120.662C1105.11 119.603 1104.71 118.582 1104.32 117.695M1105.94 121.793C1106.15 122.725 1106.13 123.636 1105.98 124.393M1102.64 118.393C1103.08 118.427 1104.02 118.337 1104.32 117.695M1102.64 118.393C1102.64 119.043 1102.65 119.719 1102.69 120.393M1102.69 120.393C1102.42 120.559 1101.68 120.793 1100.79 120.393M1103.48 124.893C1104.07 125.059 1105.41 125.193 1105.98 124.393" stroke="black" stroke-width="0.3"/>
<path d="M1139.63 85.4247C1141.22 84.8927 1144.6 82.7887 1145.38 78.628C1145.59 77.5383 1145.56 76.3798 1145.38 75.2264C1144.88 71.9761 1143.19 68.7657 1142.15 67.2446C1141.22 68.0802 1140.43 69.5379 1139.63 71.3267C1138.98 72.7926 1138.32 74.4809 1137.56 76.2315C1136.99 77.5599 1136.73 78.9294 1136.7 80.1963C1136.63 83.563 1138.17 86.205 1139.63 85.4247Z" fill="#ECE17E"/>
<path d="M1139.63 85.4247C1141.22 84.8927 1144.6 82.7887 1145.38 78.628C1145.59 77.5383 1145.56 76.3798 1145.38 75.2264M1139.63 85.4247C1140.42 84.7065 1141.01 83.5724 1141.44 82.1963M1139.63 85.4247C1138.17 86.205 1136.63 83.563 1136.7 80.1963M1142.15 67.2446C1143.19 68.7657 1144.88 71.9761 1145.38 75.2264M1142.15 67.2446C1142.33 68.9075 1142.49 71.2365 1142.47 73.6963M1142.15 67.2446C1141.22 68.0802 1140.43 69.5379 1139.63 71.3267M1142.36 76.6963C1143.16 76.883 1144.89 76.8505 1145.38 75.2264M1142.36 76.6963C1142.43 75.6984 1142.46 74.6867 1142.47 73.6963M1142.36 76.6963C1142.22 78.6744 1141.93 80.5985 1141.44 82.1963M1142.47 73.6963C1141.74 73.9499 1140.14 73.831 1139.63 71.3267M1139.63 71.3267C1138.98 72.7926 1138.32 74.4809 1137.56 76.2315C1136.99 77.5599 1136.73 78.9294 1136.7 80.1963M1141.44 82.1963C1140.26 82.5296 1137.66 82.5963 1136.7 80.1963" stroke="black" stroke-width="0.3"/>
<path d="M1077.83 35.4449C1079.09 36.2828 1080.26 38.198 1081.61 40.4543C1082.01 41.1271 1082.42 41.8303 1082.86 42.5442C1083.2 43.0816 1083.46 43.6381 1083.66 44.1963C1084.93 47.6741 1083.84 51.2205 1082.24 50.6473C1080.91 50.4071 1078.07 49.1853 1076.74 46.1963C1076.64 45.993 1076.56 45.7815 1076.49 45.5616C1075.83 43.6521 1076.02 41.352 1076.49 39.3503C1076.86 37.7323 1077.41 36.3092 1077.83 35.4449Z" fill="#704A4A"/>
<path d="M1082.24 50.6473C1080.91 50.4071 1078.07 49.1853 1076.74 46.1963M1082.24 50.6473C1081.36 50.0956 1080.62 48.6901 1080 46.9008M1082.24 50.6473C1083.84 51.2205 1084.93 47.6741 1083.66 44.1963M1077.83 35.4449C1079.09 36.2828 1080.26 38.198 1081.61 40.4543M1077.83 35.4449C1077.93 36.6033 1078.11 38.0962 1078.35 39.6963M1077.83 35.4449C1077.41 36.3092 1076.86 37.7323 1076.49 39.3503M1078.92 42.8346C1079.61 42.6271 1081.1 41.8607 1081.61 40.4543M1078.92 42.8346C1078.7 41.7843 1078.51 40.7184 1078.35 39.6963M1078.92 42.8346C1079.12 43.7699 1079.34 44.6928 1079.58 45.5616M1081.61 40.4543C1082.01 41.1271 1082.42 41.8303 1082.86 42.5442C1083.2 43.0816 1083.46 43.6381 1083.66 44.1963M1078.35 39.6963C1077.89 39.799 1076.87 39.8735 1076.49 39.3503M1076.49 39.3503C1076.02 41.352 1075.83 43.6521 1076.49 45.5616C1076.56 45.7815 1076.64 45.993 1076.74 46.1963M1076.74 46.1963C1077.16 46.4993 1078.4 47.0645 1080 46.9008M1080 46.9008C1079.86 46.4741 1079.72 46.0256 1079.58 45.5616M1079.58 45.5616C1080.5 45.6065 1082.59 45.3963 1083.66 44.1963" stroke="black" stroke-width="0.3"/>
<path d="M1046.89 101.948C1047.89 102.009 1049.21 102.718 1050.74 103.564C1051.2 103.817 1051.67 104.081 1052.17 104.344C1052.54 104.542 1052.88 104.774 1053.18 105.027C1055.08 106.605 1055.64 109.012 1054.53 109.22C1053.68 109.529 1051.64 109.78 1049.87 108.506C1049.75 108.42 1049.63 108.326 1049.51 108.225C1048.49 107.346 1047.83 105.957 1047.42 104.649C1047.09 103.592 1046.93 102.587 1046.89 101.948Z" fill="#704A4A"/>
<path d="M1054.53 109.22C1053.68 109.529 1051.64 109.78 1049.87 108.506M1054.53 109.22C1053.84 109.198 1052.94 108.638 1051.98 107.814M1054.53 109.22C1055.64 109.012 1055.08 106.605 1053.18 105.027M1046.89 101.948C1047.89 102.009 1049.21 102.718 1050.74 103.564M1046.89 101.948C1047.33 102.581 1047.93 103.383 1048.61 104.221M1046.89 101.948C1046.93 102.587 1047.09 103.592 1047.42 104.649M1050 105.837C1050.32 105.487 1050.92 104.544 1050.74 103.564M1050 105.837C1049.52 105.306 1049.05 104.756 1048.61 104.221M1050 105.837C1050.42 106.309 1050.86 106.766 1051.29 107.184M1050.74 103.564C1051.2 103.817 1051.67 104.081 1052.17 104.344C1052.54 104.542 1052.88 104.774 1053.18 105.027M1048.61 104.221C1048.38 104.435 1047.82 104.82 1047.42 104.649M1047.42 104.649C1047.83 105.957 1048.49 107.346 1049.51 108.225C1049.63 108.326 1049.75 108.42 1049.87 108.506M1049.87 108.506C1050.21 108.539 1051.12 108.446 1051.98 107.814M1051.98 107.814C1051.76 107.618 1051.53 107.406 1051.29 107.184M1051.29 107.184C1051.83 106.903 1052.97 106.078 1053.18 105.027" stroke="black" stroke-width="0.3"/>
<path d="M1089.94 33.422C1090.12 32.8319 1090.36 32.2552 1090.66 31.6963C1092.52 28.2197 1096.45 25.429 1098.43 24.3544C1099.06 26.0204 1098.9 28.6327 1098.65 31.6963C1098.56 32.7343 1098.47 33.8242 1098.39 34.9466C1098.31 36.2143 1098 37.402 1097.56 38.4564C1096.08 42.0126 1093.1 44.0519 1092.04 42.5289C1091.25 41.7237 1090.1 39.9693 1089.7 37.6963C1089.47 36.4113 1089.48 34.9607 1089.94 33.422Z" fill="#FFE999"/>
<path d="M1092.04 42.5289C1091.78 41.6883 1091.82 40.5331 1092.08 39.1963M1092.04 42.5289C1091.25 41.7237 1090.1 39.9693 1089.7 37.6963M1092.04 42.5289C1093.1 44.0519 1096.08 42.0126 1097.56 38.4564M1098.43 24.3544C1096.45 25.429 1092.52 28.2197 1090.66 31.6963M1098.43 24.3544C1097.28 26.3372 1095.67 29.3743 1094.34 32.4714M1098.43 24.3544C1099.06 26.0204 1098.9 28.6327 1098.65 31.6963M1093.25 35.1963C1092.27 34.6963 1090.39 33.2963 1090.66 31.6963M1093.25 35.1963C1093.06 35.7043 1092.89 36.2058 1092.74 36.6963M1093.25 35.1963C1093.58 34.2997 1093.95 33.383 1094.34 32.4714M1090.66 31.6963C1090.36 32.2552 1090.12 32.8319 1089.94 33.422C1089.48 34.9607 1089.47 36.4113 1089.7 37.6963M1092.08 39.1963C1091.31 38.863 1089.76 38.0963 1089.7 37.6963M1092.08 39.1963C1092.23 38.416 1092.46 37.5739 1092.74 36.6963M1092.74 36.6963C1093.86 37.5364 1096.41 39.0645 1097.56 38.4564M1097.56 38.4564C1098 37.402 1098.31 36.2143 1098.39 34.9466C1098.47 33.8242 1098.56 32.7343 1098.65 31.6963M1094.34 32.4714C1095.33 32.8797 1097.57 33.2963 1098.65 31.6963" stroke="black" stroke-width="0.3"/>
<path d="M1162.97 94.3527C1163.14 93.7626 1163.39 93.1859 1163.69 92.627C1165.55 89.1504 1169.48 86.3596 1171.46 85.2851C1172.09 86.951 1171.93 89.5633 1171.68 92.627C1171.59 93.665 1171.5 94.7548 1171.42 95.8772C1171.34 97.145 1171.03 98.3327 1170.59 99.3871C1169.11 102.943 1166.12 104.983 1165.07 103.46C1164.28 102.654 1163.13 100.9 1162.72 98.627C1162.5 97.342 1162.51 95.8913 1162.97 94.3527Z" fill="#FFE999"/>
<path d="M1165.07 103.46C1164.8 102.619 1164.85 101.464 1165.11 100.127M1165.07 103.46C1164.28 102.654 1163.13 100.9 1162.72 98.627M1165.07 103.46C1166.12 104.983 1169.11 102.943 1170.59 99.3871M1171.46 85.2851C1169.48 86.3596 1165.55 89.1504 1163.69 92.627M1171.46 85.2851C1170.31 87.2679 1168.7 90.305 1167.37 93.4021M1171.46 85.2851C1172.09 86.951 1171.93 89.5633 1171.68 92.627M1166.28 96.127C1165.3 95.627 1163.41 94.227 1163.69 92.627M1166.28 96.127C1166.09 96.635 1165.92 97.1365 1165.76 97.627M1166.28 96.127C1166.61 95.2304 1166.97 94.3136 1167.37 93.4021M1163.69 92.627C1163.39 93.1859 1163.14 93.7626 1162.97 94.3527C1162.51 95.8913 1162.5 97.342 1162.72 98.627M1165.11 100.127C1164.34 99.7936 1162.78 99.027 1162.72 98.627M1165.11 100.127C1165.26 99.3467 1165.49 98.5046 1165.76 97.627M1165.76 97.627C1166.89 98.467 1169.44 99.9952 1170.59 99.3871M1170.59 99.3871C1171.03 98.3327 1171.34 97.145 1171.42 95.8772C1171.5 94.7548 1171.59 93.665 1171.68 92.627M1167.37 93.4021C1168.35 93.8104 1170.59 94.227 1171.68 92.627" stroke="black" stroke-width="0.3"/>
<path d="M1033.85 132.694C1035.95 134.16 1038.3 133.64 1039.21 133.198C1040.54 132.806 1039.18 129.558 1036.22 128.347C1033.85 127.378 1031.8 126.347 1030.43 126.404C1030.7 127.89 1031.75 131.228 1033.85 132.694Z" fill="#ECE17E" stroke="black" stroke-width="0.3"/>
<path d="M1058.81 72.4028C1060.65 78.6558 1056.39 82.6321 1053.56 83.7464C1052.3 84.2408 1050.94 84.2539 1049.88 83.7464C1048.54 83.1101 1047.66 81.6555 1048.01 79.3052C1048.62 78.5448 1049.32 77.6342 1049.88 76.5806C1050.68 75.0716 1051.19 73.2696 1050.75 71.1963C1050.7 70.9496 1050.66 70.7052 1050.62 70.4635C1050.18 67.256 1051.31 64.5321 1050.75 63.384C1050.83 63.3664 1050.92 63.353 1051 63.3436C1052.38 63.1895 1053.89 64.1364 1055.25 65.6963C1056.36 66.9667 1057.37 68.6436 1058.12 70.4635C1058.38 71.0963 1058.61 71.7465 1058.81 72.4028Z" fill="#CBA9B3"/>
<path d="M1051 63.3436C1050.92 63.353 1050.83 63.3664 1050.75 63.384C1051.31 64.5321 1050.18 67.256 1050.62 70.4635M1051 63.3436C1052.38 63.1895 1053.89 64.1364 1055.25 65.6963M1051 63.3436C1051.53 64.7974 1052.1 66.7982 1052.5 69.0144M1049.88 83.7464C1050.94 84.2539 1052.3 84.2408 1053.56 83.7464C1056.39 82.6321 1060.65 78.6558 1058.81 72.4028C1058.61 71.7465 1058.38 71.0963 1058.12 70.4635M1049.88 83.7464C1048.54 83.1101 1047.66 81.6555 1048.01 79.3052C1048.62 78.5448 1049.32 77.6342 1049.88 76.5806M1049.88 83.7464C1051.2 82.5133 1052.03 80.8732 1052.5 79.036M1053.01 73.6963C1054.09 73.5411 1056.62 72.6773 1058.12 70.4635M1053.01 73.6963C1052.99 72.9204 1052.93 72.1435 1052.85 71.3776M1053.01 73.6963C1053.07 75.534 1052.93 77.3664 1052.5 79.036M1058.12 70.4635C1057.37 68.6436 1056.36 66.9667 1055.25 65.6963M1055.25 65.6963C1054.99 66.575 1054.06 68.4689 1052.5 69.0144M1052.5 69.0144C1052.64 69.7809 1052.76 70.5732 1052.85 71.3776M1052.85 71.3776C1052.31 71.3286 1051.12 71.0773 1050.62 70.4635M1050.62 70.4635C1050.66 70.7052 1050.7 70.9496 1050.75 71.1963C1051.19 73.2696 1050.68 75.0716 1049.88 76.5806M1049.88 76.5806C1050.25 77.1789 1051.3 78.5078 1052.5 79.036" stroke="black" stroke-width="0.3"/>
<path d="M1027.28 145.744C1029.24 149.034 1032.65 148.786 1034.26 148.013C1034.98 147.671 1035.52 147.091 1035.73 146.429C1035.99 145.6 1035.72 144.64 1034.56 143.853C1033.99 143.812 1033.32 143.749 1032.65 143.569C1031.68 143.311 1030.7 142.814 1029.98 141.796C1029.9 141.675 1029.81 141.559 1029.72 141.448C1028.51 139.978 1026.89 139.377 1026.62 138.677C1026.58 138.706 1026.54 138.736 1026.5 138.768C1025.89 139.299 1025.69 140.328 1025.82 141.537C1025.92 142.521 1026.24 143.624 1026.72 144.675C1026.89 145.04 1027.08 145.399 1027.28 145.744Z" fill="#CBA9B3"/>
<path d="M1026.5 138.768C1026.54 138.736 1026.58 138.706 1026.62 138.677C1026.89 139.377 1028.51 139.978 1029.72 141.448M1026.5 138.768C1025.89 139.299 1025.69 140.328 1025.82 141.537M1026.5 138.768C1026.92 139.576 1027.55 140.621 1028.34 141.678M1035.73 146.429C1035.52 147.091 1034.98 147.671 1034.26 148.013C1032.65 148.786 1029.24 149.034 1027.28 145.744C1027.08 145.399 1026.89 145.04 1026.72 144.675M1035.73 146.429C1035.99 145.6 1035.72 144.64 1034.56 143.853C1033.99 143.812 1033.32 143.749 1032.65 143.569M1035.73 146.429C1034.67 146.506 1033.64 146.208 1032.66 145.678M1030.15 143.767C1029.66 144.168 1028.28 144.912 1026.72 144.675M1030.15 143.767C1029.83 143.447 1029.52 143.112 1029.22 142.77M1030.15 143.767C1030.92 144.524 1031.77 145.197 1032.66 145.678M1026.72 144.675C1026.24 143.624 1025.92 142.521 1025.82 141.537M1025.82 141.537C1026.3 141.774 1027.48 142.133 1028.34 141.678M1028.34 141.678C1028.62 142.043 1028.91 142.41 1029.22 142.77M1029.22 142.77C1029.41 142.521 1029.78 141.908 1029.72 141.448M1029.72 141.448C1029.81 141.559 1029.9 141.675 1029.98 141.796C1030.7 142.814 1031.68 143.311 1032.65 143.569M1032.65 143.569C1032.75 143.969 1032.91 144.951 1032.66 145.678" stroke="black" stroke-width="0.3"/>
<path d="M1035.5 56.1963C1035.44 54.1963 1036.48 53.363 1037 53.1963C1037.25 54.1423 1037.65 55.5035 1038.1 56.917C1038.84 59.2389 1039.76 61.7017 1040.5 62.6963C1040.93 63.2613 1041.51 64.0658 1042.09 64.9632C1043.58 67.2421 1045.08 70.1201 1044 71.1963C1043.2 71.9972 1042.44 72.4793 1041.5 72.4684C1040.68 72.4588 1039.73 72.0734 1038.5 71.1963C1036.73 69.9334 1036 65.8795 1035.7 62.0558C1035.63 61.1717 1035.59 60.2999 1035.56 59.4778C1035.51 58.2245 1035.5 57.0865 1035.5 56.1963Z" fill="#704A4A"/>
<path d="M1037 53.1963C1036.48 53.363 1035.44 54.1963 1035.5 56.1963C1035.5 57.6705 1035.53 59.824 1035.7 62.0558M1037 53.1963C1037 54.3131 1037.04 55.6912 1037.14 57.1963M1037 53.1963C1037.25 54.1423 1037.65 55.5035 1038.1 56.917M1041.5 72.4684C1040.68 72.4588 1039.73 72.0734 1038.5 71.1963C1036.73 69.9334 1036 65.8795 1035.7 62.0558M1041.5 72.4684C1042.44 72.4793 1043.2 71.9972 1044 71.1963C1045.08 70.1201 1043.58 67.2421 1042.09 64.9632M1041.5 72.4684C1040.33 71.631 1039.45 69.8726 1038.79 67.6963M1037.64 62.1963C1037.06 62.436 1035.87 62.7435 1035.7 62.0558M1037.64 62.1963C1037.5 61.263 1037.4 60.3251 1037.31 59.4082M1037.64 62.1963C1037.91 64.1241 1038.28 66.0324 1038.79 67.6963M1037.14 57.1963C1037.32 57.3434 1037.78 57.4936 1038.1 56.917M1037.14 57.1963C1037.18 57.9098 1037.24 58.6519 1037.31 59.4082M1038.1 56.917C1038.84 59.2389 1039.76 61.7017 1040.5 62.6963C1040.93 63.2613 1041.51 64.0658 1042.09 64.9632M1037.31 59.4082C1036.87 59.6455 1035.9 59.9777 1035.5 59.4082M1038.79 67.6963C1039.76 67.5409 1041.77 66.7768 1042.09 64.9632" stroke="black" stroke-width="0.3"/>
<path d="M1131.5 86.3756C1131.55 84.9227 1130.73 84.3174 1130.31 84.1963C1129.99 85.3083 1129.38 87.2101 1128.74 88.7844C1128.34 89.7812 1127.92 90.6468 1127.55 91.0974C1127.09 91.664 1126.39 92.5621 1125.77 93.5116C1124.81 94.9966 1124.07 96.6074 1124.79 97.2721C1125.19 97.6415 1125.58 97.9176 1126 98.0678C1126.82 98.3609 1127.76 98.1757 1129.13 97.2721C1130.22 96.5592 1130.81 94.6222 1131.13 92.4907C1131.46 90.2779 1131.5 87.8556 1131.5 86.3756Z" fill="#B1A7C7"/>
<path d="M1130.31 84.1963C1130.73 84.3174 1131.55 84.9227 1131.5 86.3756C1131.5 87.8556 1131.46 90.2779 1131.13 92.4907M1130.31 84.1963C1130.34 85.6014 1130.22 87.7076 1129.83 89.9023M1130.31 84.1963C1129.99 85.3083 1129.38 87.2101 1128.74 88.7844M1126 98.0678C1126.82 98.3609 1127.76 98.1757 1129.13 97.2721C1130.22 96.5592 1130.81 94.6222 1131.13 92.4907M1126 98.0678C1125.58 97.9176 1125.19 97.6415 1124.79 97.2721C1124.07 96.6074 1124.81 94.9966 1125.77 93.5116M1126 98.0678C1126.69 97.5118 1127.28 96.7851 1127.77 95.9495M1129.16 92.6963C1129.36 92.8925 1130.03 93.1262 1131.13 92.4907M1129.16 92.6963C1129.44 91.7802 1129.66 90.8333 1129.83 89.9023M1129.16 92.6963C1128.8 93.863 1128.35 94.9796 1127.77 95.9495M1129.83 89.9023C1129.55 89.8924 1128.94 89.6549 1128.74 88.7844M1128.74 88.7844C1128.34 89.7812 1127.92 90.6468 1127.55 91.0974C1127.09 91.664 1126.39 92.5621 1125.77 93.5116M1127.77 95.9495C1127.2 95.5753 1125.99 94.5638 1125.77 93.5116" stroke="black" stroke-width="0.3"/>
<path d="M1092.64 95.5198C1095.95 91.3303 1097.29 89.0303 1097.94 89.576C1098.12 91.1376 1098.86 94.6195 1097.75 98.138C1097.15 100.071 1095.81 101.773 1094.16 103.068C1089.87 106.426 1083.42 107.049 1081.83 101.875C1085.82 100.335 1087.98 99.5531 1089.66 98.4221C1090.74 97.6961 1091.61 96.8262 1092.64 95.5198Z" fill="#D2C75F"/>
<path d="M1081.83 101.875C1083.42 107.049 1089.87 106.426 1094.16 103.068M1081.83 101.875C1085.82 100.335 1087.98 99.5531 1089.66 98.4221M1081.83 101.875C1085.85 103.456 1089.12 102.44 1091.66 100.321M1097.94 89.576C1097.29 89.0303 1095.95 91.3303 1092.64 95.5198C1091.61 96.8262 1090.74 97.6961 1089.66 98.4221M1097.94 89.576C1098.12 91.1376 1098.86 94.6195 1097.75 98.138C1097.15 100.071 1095.81 101.773 1094.16 103.068M1097.94 89.576C1097.1 92.7825 1095.02 97.5171 1091.66 100.321M1090.16 101.875C1090.99 102.368 1092.96 103.296 1094.16 103.068M1093.66 98.7832C1094.16 99.1165 1095.56 99.6832 1097.16 99.2832M1089.66 98.4221C1089.66 98.7342 1090.06 99.5509 1091.66 100.321" stroke="black" stroke-width="0.3"/>
<path d="M1079.9 66.5198C1076.6 62.3303 1075.26 60.0303 1074.61 60.576C1074.42 62.1376 1073.69 65.6195 1074.79 69.138C1075.4 71.0709 1076.73 72.7729 1078.39 74.0681C1082.68 77.4256 1089.13 78.0494 1090.72 72.8747C1086.73 71.3351 1084.56 70.5531 1082.89 69.4221C1081.81 68.6961 1080.93 67.8262 1079.9 66.5198Z" fill="#D2C75F"/>
<path d="M1090.72 72.8747C1089.13 78.0494 1082.68 77.4256 1078.39 74.0681M1090.72 72.8747C1086.73 71.3351 1084.56 70.5531 1082.89 69.4221M1090.72 72.8747C1086.7 74.456 1083.43 73.4401 1080.89 71.3208M1074.61 60.576C1075.26 60.0303 1076.6 62.3303 1079.9 66.5198C1080.93 67.8262 1081.81 68.6961 1082.89 69.4221M1074.61 60.576C1074.42 62.1376 1073.69 65.6195 1074.79 69.138C1075.4 71.0709 1076.73 72.7729 1078.39 74.0681M1074.61 60.576C1075.45 63.7825 1077.53 68.5171 1080.89 71.3208M1082.39 72.8747C1081.55 73.3675 1079.59 74.2961 1078.39 74.0681M1078.89 69.7832C1078.39 70.1165 1076.99 70.6832 1075.39 70.2832M1082.89 69.4221C1082.89 69.7342 1082.49 70.5509 1080.89 71.3208" stroke="black" stroke-width="0.3"/>
<path d="M1097.38 54.4559C1097.7 57.1643 1098.43 57.9744 1101.17 61.5456C1097.57 64.7312 1092.58 58.7035 1093.71 54.1789C1094.28 51.886 1095.85 50.2279 1096.47 49.4359C1097.01 49.3554 1096.97 51.0602 1097.38 54.4559Z" fill="#ECE17E" stroke="black" stroke-width="0.3"/>
<path d="M1069.33 78.3221C1069.65 81.0305 1070.38 81.8406 1073.11 85.4118C1069.52 88.5974 1064.53 82.5697 1065.66 78.0451C1066.23 75.7522 1067.8 74.0941 1068.42 73.3021C1068.96 73.2216 1068.92 74.9264 1069.33 78.3221Z" fill="#ECE17E" stroke="black" stroke-width="0.3"/>
<path d="M1011.33 115.322C1011.65 118.03 1012.38 118.841 1015.11 122.412C1011.52 125.597 1006.53 119.57 1007.66 115.045C1008.23 112.752 1009.8 111.094 1010.42 110.302C1010.96 110.222 1010.92 111.926 1011.33 115.322Z" fill="#ECE17E" stroke="black" stroke-width="0.3"/>
<path d="M586.939 236.949C618.655 279.666 622.465 350.59 614.871 394.519C613.195 404.775 607.57 408.718 604.966 409.408C591.096 414.243 577.822 442.993 560.975 415.247C539.916 380.563 558.417 316.533 560.975 289.061C567.468 219.305 507.306 205.823 494.2 200.555C512.794 202.612 562.567 204.125 586.939 236.949Z" fill="#ECE17E" stroke="#3A2C08" stroke-width="0.3"/>
<g style="mix-blend-mode:multiply">
<path d="M584.619 264.769C575.043 225.097 520.4 205.109 494.561 200.359C553.84 221.449 554.98 248.809 557.26 252.799C559.414 256.568 555.179 287.12 553.84 294.408C548.71 322.338 554.946 382.757 560.076 415.246L580.026 418.666C584.776 401.947 594.195 304.44 584.619 264.769Z" fill="#D9D6C0"/>
</g>
<path d="M601.717 451.156C582.04 542.729 571.648 449.009 563.194 499.003C565.761 498.447 703.813 564.977 667.267 488.775C640.477 432.916 718.565 385.037 782.404 397.577C712.868 333.167 616.536 382.187 601.717 451.156Z" fill="#704A4A" stroke="#3A2C08" stroke-width="0.3"/>
<path d="M477.76 484.042C539.395 554.569 475.695 481.775 523.933 497.393C523.755 494.772 606.223 472.271 537.723 422.773C469.222 373.275 432.517 320.337 419.52 216.463C390.765 344.132 425.129 423.818 477.76 484.042Z" fill="#704A4A" stroke="#3A2C08" stroke-width="0.3"/>
<path d="M552.696 227.226C551.138 232.386 552.11 253.525 552.79 263.449C555.031 295.647 578.282 357.689 588.65 381.874C599.018 406.058 626.5 459.855 641.515 479.861C647.927 477.014 659.746 443.818 655.043 441.344C649.165 438.251 617.658 385.023 602.683 359.599C587.708 334.174 557.735 236.669 556.487 233.865C555.704 232.106 555.178 227.398 554.413 225.732C553.959 224.743 553.421 224.825 552.696 227.226Z" fill="#704A4A"/>
<path d="M554.413 225.732C553.959 224.743 553.421 224.825 552.696 227.226C551.138 232.386 552.11 253.525 552.79 263.449C555.031 295.647 578.282 357.689 588.65 381.874C599.018 406.058 626.5 459.855 641.515 479.861C647.927 477.014 659.746 443.818 655.043 441.344C649.165 438.251 617.658 385.023 602.683 359.599C587.708 334.174 557.735 236.669 556.487 233.865C555.704 232.106 555.178 227.398 554.413 225.732ZM554.413 225.732C554.79 244.802 560.774 293.761 581.689 337.032C602.603 380.303 632.173 424.564 634.394 429.746" stroke="#3A2C08" stroke-width="0.3"/>
<g style="mix-blend-mode:multiply">
<path d="M579.487 335.664C569.324 311.62 552.191 253.106 554.47 226.199C555.084 229.502 571.274 279.253 572.225 281.052C573.175 282.851 581.917 310.592 582.967 313.925L582.967 313.926C584.016 317.255 596.635 346.876 598.318 350.462C599.664 353.331 608.977 370.341 613.54 378.019C627.234 399.095 654.606 442.316 656.501 444.869C658.395 447.421 663.426 454.867 665.705 458.27L656.353 466.415C635.862 433.679 590.481 361.675 579.487 335.664Z" fill="#895151"/>
</g>
<path d="M645.839 259.203C640.112 262.751 634.716 271.004 632.734 274.687C620.041 304.615 603.797 395.216 595.988 436.776C618.76 392.256 668.215 299.083 683.856 282.549C699.456 266.057 717.705 273.518 726.203 279.35C726.225 279.365 726.247 279.38 726.269 279.395C726.247 279.38 726.225 279.365 726.203 279.35C696.49 258.933 652.994 254.771 645.839 259.203Z" fill="#BE9E4A" stroke="#3A2C08" stroke-width="0.3"/>
<g style="mix-blend-mode:multiply">
<path d="M637.597 325.188C663.102 277.772 692.276 267.106 708.192 270.437C711.688 271.221 715.966 273.784 717.668 274.968C714.297 274.116 706.309 272.451 701.319 272.6C695.082 272.785 685.219 280.986 682.626 283.578C679.206 286.998 655.351 326.608 653.557 329.748C651.277 333.738 616.253 398.162 613.657 402.707C611.581 406.342 597.109 429.297 593.621 435.441L607.957 406.697C613.657 384.467 614.761 367.64 637.597 325.188Z" fill="#C4C4C4"/>
</g>
<path d="M427.181 294.296C441.276 296.255 465.868 292.785 476.402 290.805C479.712 280.525 459.848 277.014 451.213 276.168C443.566 277.788 429.494 280.472 420.694 281.248C411.893 282.025 397.658 275.336 391.64 271.894C391.64 271.894 389.083 273.318 391.363 279.588C393.643 285.858 409.562 291.846 427.181 294.296Z" fill="#AC6B4E" stroke="#3A2C08" stroke-width="0.3"/>
<path d="M540.016 304.691C559.018 337.885 562.308 427.256 557.461 479.196L500.295 457.567C508.789 442.253 504.735 395.825 500.949 343.037C497.92 300.806 466.549 280.822 451.243 276.108C460.324 274.95 480.613 272.673 489.113 272.831C499.738 273.029 519.584 269 540.016 304.691Z" fill="#C37D5E"/>
<path d="M451.243 276.108C460.324 274.95 480.613 272.673 489.113 272.831C499.738 273.029 519.584 269 540.016 304.691C559.018 337.885 562.308 427.256 557.461 479.196L500.295 457.567C508.789 442.253 504.736 395.825 500.949 343.037C497.92 300.806 466.549 280.822 451.243 276.108ZM451.243 276.108C472.491 280.974 518.516 306.667 532.633 370.513" stroke="#3A2C08" stroke-width="0.3"/>
<g style="mix-blend-mode:multiply">
<path d="M534.599 386.077C527.86 314.136 480.569 284.896 456.842 278.333C460.651 279.527 470.328 284.971 479.228 293.781C488.106 302.57 493.219 310.112 498.427 326.441C500.723 333.641 505.513 414.004 506.696 428.314C507.462 437.586 501.616 452.212 499.781 458.389L552.671 477.709C552.801 477.778 552.925 477.823 553.043 477.845L552.671 477.709C549.115 475.811 541.1 455.481 534.599 386.077Z" fill="#C4C4C4"/>
</g>
<path d="M652.613 349.346C625.904 354.212 610.776 405.335 607.773 429.635C618.611 434.615 641.738 438.403 647.546 413.718C653.355 389.033 681.63 359.362 695.042 347.611C691.213 346.597 679.323 344.48 652.613 349.346Z" fill="#C37D5E" stroke="#3A2C08" stroke-width="0.3"/>
<g style="mix-blend-mode:multiply">
<path d="M662.653 361.199C648.301 364.545 637.556 364.522 632.553 363.498C633.987 360.828 638.935 355.256 646.1 351.746C656.097 346.849 664.598 349.223 670.346 350.269C674.813 351.081 686.696 351.684 691.436 350.838L678.431 363.862C677.245 362.29 671.948 359.032 662.653 361.199Z" fill="#C4C4C4"/>
</g>
<path d="M697.341 329.101C671.845 329.428 652.372 345.625 648.136 350.273C664.545 344.99 670.536 354.333 692.771 350.938C715.129 347.526 719.001 346.109 739.298 355.386C734.303 350.254 722.837 328.773 697.341 329.101Z" fill="#DF9A7B"/>
<path d="M739.298 355.386C734.303 350.254 722.837 328.773 697.341 329.101C671.845 329.428 652.372 345.625 648.136 350.273C664.545 344.99 670.536 354.333 692.771 350.938C715.129 347.526 719.001 346.109 739.298 355.386ZM739.298 355.386C730.119 349.542 709.325 337.497 699.584 336.069C689.844 334.64 676.22 338.837 670.625 341.113" stroke="#3A2C08" stroke-width="0.3"/>
<g style="mix-blend-mode:multiply">
<path d="M667.867 341.556C662.233 341.868 655.004 345.072 652.093 346.635L648.256 350.088C651.721 349.542 659.421 348.507 662.501 348.745C666.352 349.041 676.62 351.977 681.75 351.977C686.264 351.977 710.653 347.849 714.239 347.987C715.964 348.054 720.124 348.435 724.499 349.697C729.455 351.127 734.749 353.525 738.219 354.916C735.488 350.675 716.046 342.769 705.91 344.155C695.775 345.541 674.909 341.165 667.867 341.556Z" fill="#C4C4C4"/>
</g>
<path d="M512.711 358.631C543.378 364.219 560.748 422.916 564.195 450.817C551.752 456.535 525.197 460.885 518.529 432.542C511.86 404.2 479.394 370.131 463.995 356.64C468.392 355.475 482.044 353.044 512.711 358.631Z" fill="#ECE17E" stroke="#3A2C08" stroke-width="0.3"/>
<g style="mix-blend-mode:multiply">
<path d="M501.179 372.242C517.657 376.084 529.994 376.057 535.738 374.882C534.091 371.815 528.41 365.418 520.184 361.388C508.706 355.765 498.945 358.491 492.345 359.692C487.217 360.625 473.572 361.317 468.13 360.346L483.062 375.3C484.424 373.494 490.506 369.754 501.179 372.242Z" fill="#C4C4C4"/>
</g>
<path d="M466.095 337.787C495.369 338.163 517.728 356.76 522.591 362.096C503.751 356.03 496.873 366.758 471.342 362.861C445.671 358.942 441.226 357.316 417.921 367.968C423.657 362.075 436.822 337.411 466.095 337.787Z" fill="#F8EE9D"/>
<path d="M417.921 367.968C423.657 362.075 436.822 337.411 466.095 337.787C495.369 338.163 517.728 356.76 522.591 362.096C503.751 356.03 496.873 366.758 471.342 362.861C445.671 358.942 441.226 357.316 417.921 367.968ZM417.921 367.968C428.46 361.257 452.336 347.427 463.52 345.787C474.703 344.147 490.346 348.966 496.769 351.58" stroke="#3A2C08" stroke-width="0.3"/>
<g style="mix-blend-mode:multiply">
<path d="M499.935 352.089C506.404 352.448 514.705 356.126 518.047 357.921L522.452 361.886C518.474 361.258 509.633 360.071 506.096 360.343C501.675 360.684 489.885 364.055 483.995 364.055C478.813 364.055 450.809 359.316 446.692 359.474C444.711 359.55 439.935 359.988 434.911 361.437C429.221 363.079 423.143 365.832 419.159 367.429C422.295 362.56 444.618 353.482 456.255 355.074C467.892 356.665 491.849 351.641 499.935 352.089Z" fill="#C4C4C4"/>
</g>
</svg>
