<svg width="289" height="203" viewBox="0 0 289 203" fill="none" xmlns="http://www.w3.org/2000/svg">
<g clip-path="url(#clip0)">
<path d="M258.564 -7.15003C264.649 -10.5936 270.164 -18.7589 272.16 -22.4111C272.354 -21.3735 272.586 -20.0886 272.842 -18.6295C273.138 -16.9392 273.464 -15.015 273.796 -12.9703C273.966 -11.9248 274.138 -10.8478 274.307 -9.75436C274.809 -6.5111 275.295 -3.12378 275.677 0.0122229C275.936 2.14282 276.47 4.16208 276.283 5.93203C275.073 17.3847 274.826 15.4362 270.684 24.5686C266.541 33.701 264.15 33.4962 261.543 37.5681C260.079 39.8545 258.42 43.5379 256.111 47.7523C254.308 51.0434 252.11 54.6582 249.299 58.1843C246.227 62.0381 240.014 66.9549 236.65 69.5624C236.146 70.0001 235.607 70.4187 235.031 70.815C234.594 71.1561 234.525 71.2424 234.618 71.2113C234.879 71.1239 236.413 70.1092 234.618 71.2113C234.458 71.3094 234.272 71.4242 234.057 71.5579C229.813 74.1887 227.263 75.1314 225.149 76.247C223.164 77.2944 221.565 78.4942 219.31 81.3867C215.234 86.6151 210.634 85.8316 203.001 85.0572C201.913 84.9468 200.764 84.8367 199.546 84.7441C191.734 84.1504 183.724 79.0462 180.696 76.5684C183.294 76.5077 191.207 76.3549 202.075 76.2286C215.66 76.0708 214.416 70.3946 221.462 60.9916C228.508 51.5887 229.423 47.3246 233.161 34.7119C236.899 22.0991 245.979 14.9946 246.785 11.0516C247.591 7.10857 250.958 -2.84559 258.564 -7.15003Z" fill="#51938F"/>
<path d="M272.16 -22.4111C270.164 -18.7589 264.649 -10.5936 258.564 -7.15003C250.958 -2.84559 247.591 7.10857 246.785 11.0516C245.979 14.9945 236.899 22.0991 233.161 34.7119C229.423 47.3246 228.508 51.5887 221.462 60.9916C214.416 70.3946 215.66 76.0708 202.075 76.2286C191.207 76.3549 183.294 76.5077 180.696 76.5684M272.16 -22.4111C270.229 -18.6258 265.671 -10.1157 262.885 -6.35805C259.404 -1.66098 254.428 3.08703 253.466 8.49897C252.503 13.9109 250.407 19.6734 247.742 22.2867C245.076 24.9 241.271 26.4174 239.417 32.3214C237.563 38.2254 236.34 46.5317 233.198 52.1196C230.057 57.7075 228.183 62.0096 224.652 66.194C221.121 70.3783 219.165 74.8471 212.78 76.9324C206.395 79.0177 199.629 78.571 195.194 78.8575C191.647 79.0867 184.051 77.4269 180.696 76.5684M272.16 -22.4111C272.354 -21.3735 272.586 -20.0886 272.842 -18.6295M180.696 76.5684C183.724 79.0462 191.734 84.1504 199.546 84.7441C200.764 84.8367 201.913 84.9468 203.001 85.0572M272.842 -18.6295C272.219 -15.9233 269.876 -9.31274 265.493 -4.51939C260.015 1.47231 258.621 -0.641316 256.663 7.27727C254.706 15.1959 259.654 17.9691 251.835 24.2666C244.016 30.5642 242.688 33.9633 241.799 38.5559C240.91 43.1485 242.301 41.4189 239.248 48.3903C236.196 55.3618 236.544 52.4361 232.708 58.5087C228.873 64.5813 219.837 76.9911 213.698 79.3367C208.787 81.2133 204.52 83.9322 203.001 85.0572M272.842 -18.6295C273.138 -16.9392 273.464 -15.015 273.796 -12.9703M203.001 85.0572C210.634 85.8316 215.234 86.6151 219.31 81.3867C221.565 78.4942 223.164 77.2944 225.149 76.247M274.307 -9.75436C272.719 -6.39483 268.68 1.06 265.232 4.00311C260.922 7.682 263.752 8.31053 261.063 18.7915C258.373 29.2725 260.238 23.5367 253.54 32.475C246.842 41.4133 245.563 41.9019 244.611 48.9993C243.849 54.6771 243.372 65.0794 235.031 70.815M274.307 -9.75436C274.809 -6.5111 275.295 -3.12378 275.677 0.0122236M274.307 -9.75436C274.138 -10.8478 273.966 -11.9248 273.796 -12.9703M235.031 70.815C233.255 72.1997 237.559 69.3864 234.057 71.5579C229.813 74.1887 227.263 75.1314 225.149 76.247M235.031 70.815C237.427 68.947 245.618 62.8024 249.299 58.1843C252.11 54.6582 254.308 51.0434 256.111 47.7523M275.677 0.0122236C275.936 2.14282 276.47 4.16208 276.283 5.93203C275.073 17.3847 274.826 15.4362 270.684 24.5686C266.541 33.701 264.15 33.4962 261.543 37.5681C260.079 39.8545 258.42 43.5379 256.111 47.7523M275.677 0.0122236C273.238 2.15306 267.843 8.22704 265.775 15.3963C263.19 24.3579 266.792 21.5104 262.808 27.578C258.824 33.6455 259.235 30.2988 256.148 35.554C253.678 39.7582 255.094 45.438 256.111 47.7523M225.149 76.247C225.909 74.5506 228.225 70.251 231.412 66.6235C235.395 62.0891 234.942 64.7855 237.687 59.2643C240.432 53.7431 240.283 54.5512 241.413 50.221C242.544 45.8908 243.851 43.5576 245.08 38.7198C246.309 33.8819 250.125 31.8874 251.532 29.5211C252.938 27.1549 258.639 23.5719 259.124 17.9374C259.609 12.303 260.891 4.14975 264.019 0.82824C266.521 -1.82896 271.58 -9.47795 273.796 -12.9703" stroke="black" stroke-width="0.3"/>
<g style="mix-blend-mode:multiply">
<path d="M254.765 40.6848C254.531 42.0334 255.608 45.9482 256.176 47.7371C257.47 45.2708 260.189 40.0937 260.717 39.1159C261.377 37.8937 261.805 36.8551 262.794 35.8506C263.783 34.8462 264.956 33.4575 265.914 32.588C266.872 31.7186 267.763 30.3703 268.455 28.961C269.179 27.4847 270.445 25.2439 271.316 23.312C272.186 21.3802 272.984 19.1473 273.828 18.1568C274.671 17.1663 274.376 15.7718 275.496 13.376C276.615 10.9802 275.894 8.96647 276.177 7.94182C276.46 6.91717 276.385 4.76801 276.249 3.50489C276.141 2.49439 275.817 0.783801 275.669 0.0548209C268.018 5.92357 265.21 17.9282 264.91 19.2332C264.61 20.5382 264.84 23.2444 264.723 24.1651C264.606 25.0858 263.306 26.8242 263.037 27.3781C262.767 27.9321 261.112 30.3941 258.701 32.0191C256.29 33.6442 255.058 38.9992 254.765 40.6848Z" fill="#A7D0CE"/>
</g>
<g style="mix-blend-mode:multiply">
<path d="M242.745 59.8693C239.455 71.1885 228.571 75.2586 223.876 76.7663C222.638 77.2183 221.493 78.7466 221.075 79.4543C215.877 88.1296 209.859 85.6285 207.966 85.6028C206.451 85.5822 195.042 79.4402 189.528 76.3718C192.545 77.2891 199.875 78.5426 205.058 76.2182C207.808 74.985 209.308 76.3423 213.985 72.168C217.109 68.1355 218.863 63.6425 221.153 61.2956C224.545 57.8208 229.017 47.8324 229.606 46.4035C230.196 44.9746 232.741 36.1735 233.24 34.1652C233.739 32.1568 236.285 27.5648 237.151 25.4174C238.017 23.2701 241.619 18.6228 242.122 18.217C242.317 18.0594 244.741 15.661 246.188 12.5202C247.721 9.19215 248.307 5.04566 249.483 2.4034C250.575 0.891594 252.939 -2.35908 253.655 -3.2673C254.549 -4.40258 260.009 -8.54791 261.331 -8.95162C262.389 -9.27458 264.461 -11.9112 265.366 -13.1891C267.302 -15.4772 271.185 -14.2117 259.826 -2.40766C260.618 1.05295 267.105 -0.18345 261.008 5.76068C245.157 21.2145 260.382 22.5489 259.084 25.553C257.831 28.4527 254.577 30.47 248.422 39.3999C242.796 47.5626 246.448 47.1294 242.745 59.8693Z" fill="#85CCC8"/>
</g>
<g style="mix-blend-mode:multiply">
<path d="M239.156 30.7129C235.167 59.3267 218.675 73.933 215.346 75.9257L217.662 66.6237C219.264 64.5009 222.749 58.922 224.22 57.1388C226.058 54.9098 229.881 45.3625 230.584 43.3545C231.286 41.3465 233.336 33.7421 234.299 31.1267C235.262 28.5113 237.533 24.4015 238.743 22.8113C239.71 21.5392 241.356 19.1333 242.058 18.0894C242.945 16.2197 244.926 15.0113 246.479 11.6471C248.064 5.82463 251.676 -1.28544 252.604 -2.08583C254.258 -3.51348 258.56 -7.28523 259.718 -7.86284C260.875 -8.44045 262.617 -10.5109 264.403 -11.7273C266.19 -12.9438 268.326 -16.7314 269.703 -18.5243C271.079 -20.3171 272.135 -22.9848 272.174 -22.4717C272.204 -22.0613 273.383 -16.3172 273.968 -13.4965C271.19 4.72461 242.381 7.57222 239.156 30.7129Z" fill="#C4C4C4"/>
</g>
<path d="M229.081 9.02417C226.648 -1.36438 230.82 -5.57856 233.21 -6.38707C234.792 -8.3974 238.109 -8.98664 239.569 -9.02996C265.671 -10.7297 277.589 19.4138 276.611 23.0638C275.633 26.7138 283.903 31.5379 284.28 33.3775C284.656 35.2171 282.975 38.2442 284.895 39.1931C286.814 40.142 292.179 54.1853 290.332 61.0798C288.484 67.9743 290.621 68.1121 290.308 80.634C289.996 93.1559 280.745 116.323 267.63 114.982C254.514 113.641 252.684 83.1583 251.062 82.7236C249.44 82.2889 247.014 75.1189 247.812 64.031C248.61 52.9431 232.122 22.0099 229.081 9.02417Z" fill="#72CDA1" stroke="black" stroke-width="0.5"/>
<g style="mix-blend-mode:multiply">
<path d="M267.653 4.25925C268.78 5.57909 274.573 15.0429 275.127 16.2555C275.291 16.9226 276.863 21.9353 276.752 22.3479C276.642 22.7604 276.691 23.9526 276.553 24.4682C276.414 24.9839 277.289 25.8446 277.481 26.2277C277.635 26.5342 280.357 29.2458 281.699 30.5633C282.484 31.2528 284.089 32.6996 284.222 32.9712C284.356 33.2428 284.349 34.0122 284.328 34.3629C284.256 35.2279 284.085 37.0609 283.974 37.4734C283.863 37.886 284.191 38.4037 284.369 38.611L284.905 39.0862C285.106 39.2996 285.562 39.7706 285.78 39.9469C286.052 40.1673 287.207 42.8716 287.799 44.0988C288.391 45.326 289.943 51.6369 290.201 52.7377C290.458 53.8384 290.886 56.6427 290.747 57.7108C290.608 58.779 290.687 60.2738 290.031 62.3088C289.506 63.9367 289.535 65.7622 289.616 66.4715L289.703 68.4844L290.038 71.6325L290.304 75.3146L290.365 80.4522C290.186 81.9888 289.809 85.3291 289.729 86.3983C289.629 87.7347 289.401 88.4474 286.578 97.1969C284.319 104.197 279.169 109.66 276.876 111.517C274.33 112.077 272.903 100.514 273.491 97.6548C274.08 94.7957 273.418 89.6493 271.598 79.2235C269.777 68.7978 252.563 18.1332 250.839 14.2996C249.116 10.466 235.052 -6.25737 236.374 -8.21021C237.431 -9.77249 245.135 -8.83516 248.855 -8.17121C257.874 -6.63985 266.526 2.93941 267.653 4.25925Z" fill="#C4C4C4"/>
</g>
<g style="mix-blend-mode:multiply">
<path d="M264.702 93.9396C268.231 99.7952 270.877 96.1452 271.759 93.5883C274.185 87.463 267.816 65.6785 260.955 41.7644C254.095 17.8502 238.222 -5.30249 233.452 -6.58073C232.83 -6.74749 230.809 -4.2129 229.884 -2.96398C230.501 -2.9167 234.44 1.70328 245.264 19.805C258.793 42.4321 260.289 86.6202 264.702 93.9396Z" fill="#A6C7A9"/>
</g>
<path d="M259.045 30.9257C262.281 28.8802 270.801 26.9102 284.343 34.0678M253.847 19.1688C257.838 15.981 268.393 10.8082 275.645 17.8599M253.248 26.8146C249.706 27.49 242.596 31.8248 242.49 43.7611M260.722 45.9577C256.971 46.5771 249.144 50.787 247.841 62.6716M245.071 9.66775C242.395 9.62271 236.642 12.0409 235.028 25.5897M267.908 57.7793C273.206 57.2384 286.454 58.2971 289.721 68.1797M267.684 65.1316C263.013 65.8405 253.277 70.4803 251.706 83.3684M273.422 84.4817C277.388 84.3122 285.976 85.2914 288.596 90.5643M270.343 79.188C267.391 77.5828 254.492 84.1147 254.872 97.6535" stroke="black" stroke-width="0.5"/>
<path d="M243.393 5.90394C234.866 -10.2906 225.781 -17.161 211.602 -25.8868C209.409 -28.8767 211.618 -32.1247 215.339 -30.1015C229.322 -22.4978 235.157 -10.8106 240.501 -3.89839C251.382 10.177 263.303 39.159 267.879 57.7721C272.454 76.3851 274.244 92.7703 274.412 94.8629C274.774 99.3705 272.312 100.784 271.283 91.6188C268.202 64.1935 254.052 26.1471 243.393 5.90394Z" fill="#99ECC4" stroke="black" stroke-width="0.5"/>
<g style="mix-blend-mode:multiply">
<path d="M266.736 43.0119C273.533 62.8219 274.358 83.6179 273.839 90.8327C272.218 92.5594 268.631 63.9494 263.929 48.3253C259.227 32.7012 244.35 1.89327 235.739 -8.53453L240.277 -9.19059C242.148 -6.14381 258.239 18.2494 266.736 43.0119Z" fill="#72CDA1"/>
</g>
</g>
<defs>
<clipPath id="clip0">
<rect width="105" height="131" transform="matrix(-1 0 0 1 288.5 0)" fill="white"/>
</clipPath>
</defs>
</svg>
