<svg width="411" height="270" viewBox="0 0 411 270" fill="none" xmlns="http://www.w3.org/2000/svg">
<g clip-path="url(#clip0)">
<path d="M260.52 145.034C265.969 146.255 275.895 140.485 280.176 137.448C278.489 134.406 268.746 137.158 264.58 136.817C261.247 136.544 255.682 139.1 253.316 140.412L252.473 138.891C251.723 135.456 252.194 125.75 252.832 117.247C253.292 111.115 253.838 105.608 254.076 103.532C254.398 100.713 256.055 93.7198 257.714 87.1993C258.971 82.2606 260.229 77.593 260.91 75.2153C262.175 70.8019 263.096 63.618 263.399 60.5777C266.402 60.0169 273.793 59.7184 279.332 63.0109C284.572 66.1265 292.851 65.6578 296.922 64.9488C290.479 65.8137 280.718 57.3819 275.059 54.1113C270.376 51.4051 267.817 50.6149 267.123 50.5581L267.238 47.1798C267.071 43.2727 271.533 35.6253 276.62 28.5649C281.651 21.5833 287.292 15.1757 289.673 13.5258C293.116 11.1396 296.621 3.92028 299.284 -2.20777C300.324 -4.6017 301.235 -6.8291 301.964 -8.53679C304.559 -14.6159 327.036 -29.0695 333.626 -32.7244C340.217 -36.3793 350.462 -33.4437 358.85 -31.4667C367.238 -29.4897 368.704 -31.6282 372.751 -21.9405C375.646 -15.0102 371.998 -5.8083 367.994 1.50567C366.401 4.41559 364.752 7.02667 363.437 9.07697C360.065 14.3319 353.301 27.4646 348.291 36.8725C346.433 40.3613 344.816 43.3378 343.702 45.2104C340.41 50.7485 333.798 62.4138 330.904 67.5542C331.301 64.6829 329.503 59.051 328.378 57.0231C327.479 55.4008 326.427 55.8955 326.014 56.3457C328.05 63.0385 327.005 69.9089 324.98 76.0906C322.2 84.5779 317.57 91.7668 316.525 95.4148C315.838 97.8141 314.406 104.606 312.859 112.316C311.153 120.816 309.307 130.431 308.161 136.512C307.974 136.174 307.419 134.935 306.7 132.682C305.801 129.866 300.57 122.824 299.837 123.893C299.104 124.962 304.165 134.088 306.695 138.65C307.708 140.476 306.938 143.873 305.658 147.308C303.741 152.455 300.681 157.688 300.769 157.846L296.27 149.735C293.459 144.665 289.127 140.439 288.956 142.522C288.786 144.605 293.063 147.536 299.64 161.787C306.217 176.037 288.192 185.37 288.643 183.794C289.005 182.533 288.121 179.664 287.634 178.388C287.258 179.701 286.302 182.441 285.491 182.891C284.477 183.453 282.394 183.282 282.62 182.494C282.846 181.706 284.989 177.203 285.44 175.627C285.802 174.366 284.804 172.886 284.26 172.304C282.626 174.536 278.31 178.786 274.121 177.927C271.542 177.398 268.843 172.593 266.587 167.24C264.263 161.726 262.409 155.631 261.64 153.031C260.427 148.931 260.388 145.991 260.52 145.034Z" fill="#9BD7A2"/>
<path d="M284.26 172.304C282.626 174.536 278.31 178.786 274.121 177.927C271.542 177.398 268.843 172.593 266.587 167.24M284.26 172.304C284.804 172.886 285.802 174.366 285.44 175.627C284.989 177.203 282.846 181.706 282.62 182.494C282.394 183.282 284.477 183.453 285.491 182.891C286.302 182.441 287.258 179.701 287.634 178.388C288.121 179.664 289.005 182.533 288.643 183.794C288.192 185.37 306.217 176.037 299.64 161.787C293.063 147.536 288.786 144.605 288.956 142.522C289.127 140.439 293.459 144.665 296.27 149.735C299.082 154.804 300.915 158.11 300.769 157.846C300.681 157.688 303.741 152.455 305.658 147.308M284.26 172.304C283.832 168.789 283.182 162.362 282.974 157.011M358.85 -31.4667C367.238 -29.4897 368.704 -31.6282 372.751 -21.9405C375.646 -15.0102 371.998 -5.8083 367.994 1.50567M358.85 -31.4667C350.462 -33.4437 340.217 -36.3793 333.626 -32.7244C327.036 -29.0695 304.559 -14.6159 301.964 -8.53679C301.235 -6.8291 300.324 -4.6017 299.284 -2.20777M358.85 -31.4667C355.484 -27.9025 352.236 -24.0491 349.106 -19.958M339.78 -6.57866C333.078 -8.02645 315.597 -9.17919 299.284 -2.20777M339.78 -6.57866C336.376 -1.24644 333.133 4.34155 330.048 10.101M339.78 -6.57866C342.764 -11.254 345.872 -15.7328 349.106 -19.958M299.284 -2.20777C296.621 3.92029 293.116 11.1396 289.673 13.5258C287.292 15.1757 281.651 21.5833 276.62 28.5649M330.048 10.101C334.523 12.5477 344.437 21.3275 348.291 36.8725M330.048 10.101C327.755 14.3836 325.549 18.761 323.431 23.1985M348.291 36.8725C346.433 40.3613 344.816 43.3378 343.702 45.2104C340.41 50.7485 333.798 62.4138 330.904 67.5542C331.301 64.6829 329.503 59.051 328.378 57.0231C327.479 55.4008 326.427 55.8955 326.014 56.3457C328.05 63.0385 327.005 69.9089 324.98 76.0906M348.291 36.8725C353.301 27.4646 360.065 14.3319 363.437 9.07697C364.752 7.02667 366.401 4.41559 367.994 1.50567M349.106 -19.958C354.689 -17.3619 366.284 -9.4345 367.994 1.50567M323.431 23.1985C313.186 20.5057 289.481 17.8091 276.62 28.5649M323.431 23.1985C317.532 35.5545 314.002 45.8071 309.434 58.3469M276.62 28.5649C271.533 35.6253 267.071 43.2727 267.238 47.1798L267.123 50.5581C267.817 50.6149 270.376 51.4051 275.059 54.1113C280.912 57.4941 291.153 66.3981 297.573 64.8264C293.8 65.5931 284.87 66.3033 279.332 63.0109C273.793 59.7184 266.402 60.0169 263.399 60.5777C263.096 63.618 262.175 70.8019 260.91 75.2153C260.229 77.593 258.971 82.2606 257.714 87.1993M309.434 58.3469C316.596 60.3992 321.441 68.0064 324.98 76.0906M309.434 58.3469C306.89 65.3283 302.853 74.7917 300.713 81.4689M324.98 76.0906C322.2 84.5779 317.57 91.7668 316.525 95.4148C315.838 97.8141 314.406 104.606 312.859 112.316M300.713 81.4689C292.107 79.2281 271.458 77.2371 257.714 87.1993M300.713 81.4689C299.126 86.4229 297.648 91.2575 296.279 95.9202M257.714 87.1993C256.055 93.7198 254.398 100.713 254.076 103.532C253.838 105.608 253.292 111.115 252.832 117.247M296.279 95.9202C301.123 97.6963 311.22 103.462 312.859 112.316M296.279 95.9202C294.905 100.601 293.641 105.109 292.485 109.39M312.859 112.316C311.153 120.816 309.307 130.431 308.161 136.512C307.974 136.174 307.419 134.935 306.7 132.682C305.801 129.866 300.57 122.824 299.837 123.893C299.104 124.962 304.165 134.088 306.695 138.65C307.708 140.476 306.938 143.873 305.658 147.308M292.485 109.39C281.871 105.767 263.965 110.544 252.832 117.247M292.485 109.39C290.563 116.51 288.942 123.002 287.614 128.622M252.832 117.247C252.194 125.75 251.723 135.456 252.473 138.891L253.316 140.412C255.682 139.1 261.247 136.544 264.58 136.817C268.746 137.158 278.489 134.406 280.176 137.448C275.895 140.485 265.969 146.255 260.52 145.034C260.388 145.991 260.427 148.931 261.64 153.031C262.409 155.631 264.263 161.726 266.587 167.24M287.614 128.622C284.737 140.8 283.242 148.88 283.068 150.363C282.876 152 282.871 154.375 282.974 157.011M287.614 128.622C293.028 132.404 304.216 141.436 305.658 147.308M282.974 157.011C279.7 158.205 271.839 161.922 266.587 167.24" stroke="black" stroke-width="0.3"/>
<g style="mix-blend-mode:multiply">
<path d="M272.667 148.407C272.338 150.083 276.786 159.806 278.664 158.725C274.813 160.858 266.963 165.513 266.372 167.073C265.634 169.022 269.981 173.959 270.919 175.398C271.857 176.837 274.935 178.349 278.075 177.448C280.586 176.727 283.229 173.643 284.237 172.191C283.187 166.443 281.536 153.704 283.332 148.731C283.711 146.654 288.663 125.201 291.092 114.735C289.856 113.079 282.134 107.036 279.462 102.129C277.324 98.2032 280.017 85.6624 281.631 79.8827C285.627 79.0107 295.897 80.789 300.533 81.7872L308.184 62.3119C308.179 61.7004 307.849 59.7732 306.567 56.9568C304.965 53.4364 305.549 36.318 305.741 32.5017C305.934 28.6855 304.143 21.1103 308.104 21.1144C311.272 21.1177 319.504 22.3836 323.224 23.0161C324.058 20.7341 333.368 3.32463 336.76 -1.91561C340.152 -7.15584 349.13 -20.214 350.488 -21.8678C351.574 -23.1908 356.459 -28.7657 358.765 -31.3878C358.307 -31.5291 357.334 -31.8221 357.103 -31.8642C356.813 -31.9167 353.624 -32.4949 352.087 -33.0879C350.549 -33.681 343.701 -34.3625 342.046 -34.4403C340.391 -34.5181 336.497 -34.0177 335.003 -33.3786C333.509 -32.7396 328.079 -29.3253 326.846 -28.6418C325.614 -27.9582 317.21 -22.2552 313.641 -19.5885C310.072 -16.9217 303.037 -10.0339 302.452 -9.37807C301.868 -8.72221 300.69 -5.67517 299.407 -2.4752C298.124 0.724766 294.399 7.55463 293.54 8.95516C292.682 10.3557 290.759 12.7016 290.248 13.1038C289.736 13.5061 287.766 15.1674 286.702 16.1128C285.639 17.0582 277.686 27.0312 272.562 34.5325C267.438 42.0338 267.337 48.137 267.21 48.7412C267.108 49.2245 267.098 50.143 267.106 50.5419C267.941 50.8728 269.864 51.6159 270.869 51.9406C272.126 52.3464 273.364 52.9758 275.81 54.5004C278.256 56.025 280.696 57.731 282.448 58.965C284.199 60.1991 288.005 62.2505 290.475 63.6905C292.452 64.8426 295.883 64.9958 297.351 64.9284C295.852 65.3684 290.806 65.2498 286.812 65.2952C282.818 65.3405 279.75 63.2715 277.551 62.0009C275.352 60.7302 270.095 60.2308 268.881 60.1573C267.909 60.0986 264.754 60.3476 263.297 60.4794C263.194 61.3193 262.88 63.7555 262.452 66.7815C262.025 69.8074 259.146 81.5154 257.76 86.9912C256.797 89.5526 254 104.265 253.824 105.358C253.648 106.452 253.401 113.95 252.824 117.376C252.246 120.803 252.26 138.411 252.293 138.826C252.319 139.157 252.855 140.1 253.12 140.53L253.568 140.203C254.6 139.284 260.6 137.496 263.47 136.717C265.688 137.099 267.144 136.606 268.714 136.6C270.284 136.595 275.869 135.817 277.652 136.126C279.079 136.373 279.858 137.196 280.069 137.577L275.652 140.46C273.071 143.818 272.995 146.73 272.667 148.407Z" fill="#C4C4C4"/>
</g>
<g style="mix-blend-mode:multiply">
<path d="M293.924 145.996C295.084 147.437 298.961 154.454 300.754 157.782L305.772 147.232C305.86 146.761 305.172 145.069 301.73 141.036C297.997 136.661 291.205 131.304 287.705 128.47C287.602 128.913 285.186 138.693 284.768 140.643C284.733 140.808 288.165 140.601 288.97 142.418C289.098 142.144 289.236 142.013 289.723 142.062C290.21 142.112 292.474 144.194 293.924 145.996Z" fill="#C0CABF"/>
</g>
<g style="mix-blend-mode:multiply">
<path d="M307.181 133.94C307.314 134.404 307.926 135.983 308.215 136.714L312.836 112.133C313.307 107.526 302.837 97.8726 296.372 96.02L291.566 112.793C294.691 111.249 299.77 125.236 299.648 124.896C299.55 124.624 299.809 124.078 299.951 123.838C300.18 123.871 300.768 124.049 301.289 124.505C301.941 125.074 304.042 127.837 304.656 128.944C305.27 130.051 307.015 133.36 307.181 133.94Z" fill="#C0CABF"/>
</g>
<g style="mix-blend-mode:multiply">
<path d="M327.762 56.2576C330.119 59.1859 330.909 66.8525 330.957 67.2329L338.286 54.453C342.55 44.9861 332.999 23.6419 325.133 19.6416L316.137 40.1426C315.746 45.3118 322.511 53.0067 325.942 56.208C326.983 55.7936 327.589 56.0684 327.762 56.2576Z" fill="#C0CABF"/>
</g>
<g style="mix-blend-mode:multiply">
<path d="M259.727 129.547C258.401 131.352 255.038 137.091 253.396 140.114C256.652 138.912 263.379 136.57 264.24 136.816C265.316 137.125 267.777 136.665 270.776 136.36C273.775 136.055 277.312 135.904 278.388 136.212C279.249 136.459 280.079 137.085 280.386 137.367C283.693 135.985 286.384 137.338 290.012 117.998C290.322 116.347 268.023 118.258 259.727 129.547Z" fill="#AECFB3"/>
</g>
<g style="mix-blend-mode:multiply">
<path d="M271.467 36.4045C271.191 36.0808 266.09 44.4261 267.085 50.4112C270.468 50.7982 277.28 55.5392 278.141 55.7859C279.217 56.0942 288.976 64.713 294.665 65.1786C297.67 65.4245 299.433 64.7979 300.663 64.5681C301.544 64.4038 307.476 61.7904 307.783 62.0726C309.265 59.8006 310.837 52.9371 313.206 48.5544C315.297 44.6877 287.337 55.0453 271.467 36.4045Z" fill="#AECFB3"/>
</g>
</g>
<defs>
<clipPath id="clip0">
<rect x="233.5" width="145" height="201" fill="white"/>
</clipPath>
</defs>
</svg>
