<svg width="260" height="494" viewBox="0 0 260 494" fill="none" xmlns="http://www.w3.org/2000/svg">
<path d="M111.107 270.071C107.471 267.876 101.408 256.956 88.0712 247.409C74.7345 237.862 58.4895 210.647 66.1511 175.885C72.7899 184.34 78.0474 188.029 81.4931 183.735C83.8996 175.676 73.4766 168.742 67.0647 172.171C71.5154 140.093 83.2999 120.189 82.4838 98.8427C84.6235 100.076 91.036 107.008 92.2872 103.111C93.695 96.6834 83.8468 95.3579 82.4838 96.9195C80.8863 87.8052 78.0962 79.9667 67.4355 67.8315C65.9632 66.7426 65.3105 65.4359 62.2648 62.1693C60.0243 59.7664 55.4481 52.2969 53.1275 49.1027C55.7381 51.4983 62.2648 49.756 62.2648 46.2716C62.2648 38.2139 54.4328 49.1027 49.8642 42.7872C47.6272 39.6949 45.5965 39.0973 44.2366 38.7051C43.9361 37.8252 43.7727 37.071 43.7727 36.4717C43.397 36.4341 42.988 36.3848 42.5538 36.3232C42.6891 35.3742 43.0783 33.9837 43.7727 31.8984C43.7727 30.8531 43.0475 29.8658 42.6849 29.5028C39.4216 24.494 29.4141 23.8406 30.0668 29.5028C30.5438 33.6415 37.9584 35.6714 42.5538 36.3232C42.2926 38.1546 42.9767 38.3417 44.2366 38.7051C46.7316 46.0101 58.6754 61.9742 64.9866 69.823C72.3647 75.675 84.5205 96.3255 76.6463 122.134C74.7682 120.054 70.6015 118.032 68.4623 120.928C67.9623 121.605 67.7155 122.217 67.6676 122.758C67.4066 125.71 73.0599 126.556 75.8631 124.302C66.4845 155.398 58.3154 189.458 64.748 216.122C65.2597 218.244 68.2966 224.053 68.8603 225.695C68.1039 226.057 64.1547 226.784 61.9547 235.055C59.7546 243.325 67.0647 253.101 68.8603 248.452C71.1214 246.739 68.3331 235.239 70.1799 229.918C71.115 231.45 72.0854 232.839 73.081 234.278C79.7549 243.929 85.5218 249.352 92.9066 260.868C97.8968 268.65 78.8376 273.499 75.6561 277.845C75.0883 278.621 74.1483 281.505 74.8309 284.005C75.598 286.815 78.414 289.141 86.1097 287.448C97.745 284.887 100.048 270.529 99.7448 263.67C99.8963 264.431 101.472 267.967 106.562 276.015C112.925 286.075 107.471 308.025 105.653 311.683C103.835 315.341 101.108 315.798 93.3817 318.085C85.6552 320.371 67.9295 309.854 64.748 308.025C63.278 307.18 59.2851 308.287 57.2528 310.851C54.8866 313.835 55.1779 318.794 65.2025 324.944C80.1102 334.089 97.1693 322.962 103.835 316.256C104.29 316.103 104.563 316.896 102.017 321.286C98.8358 326.773 83.8372 340.491 78.8376 344.149C73.8381 347.807 46.5678 362.897 37.4777 370.214C28.3876 377.53 24.5529 394.448 23.8426 393.878C17.9085 389.111 -2.20283 392.742 0.512576 398.882C0.721423 399.354 1.06851 399.857 1.57184 400.393C7.7531 406.978 18.9945 400.698 23.8426 396.735C22.0246 409.539 26.8133 419.378 28.3876 422.8C31.5691 429.715 29.468 439.324 28.8421 442.462C28.1126 446.12 25.2061 448.864 22.9336 448.864C20.661 448.864 17.025 444.291 17.025 445.206C17.025 446.12 19.2975 450.694 22.9336 451.608C26.5696 452.522 29.2966 449.779 30.6601 446.12C31.7509 443.194 32.9599 433.279 32.8084 428.096C34.2628 431.023 44.7468 443.395 48.6859 448.273C39.7502 451.608 39.1698 463.432 44.3471 464.143C44.8472 464.211 45.4326 464.155 46.1133 463.954C52.2945 462.125 52.4575 454.577 51.397 450.31C56.851 455.797 71.111 458.467 76.5651 459.381C82.0191 460.296 87.2153 457.058 87.6698 459.344C88.2885 462.457 89.2705 463.52 93.3817 465.783C95.7916 467.109 98.1747 467.873 99.7448 466.655C100.936 465.73 101.314 464.098 99.7448 462.125C97.3945 459.169 94.2925 457.606 92.3088 456.955C94.9247 457.415 99.978 457.137 106.108 453.437C112.056 449.846 112.665 444.739 110.473 442.031C109.316 440.601 107.267 439.492 105.199 440.176C101.51 441.396 91.5637 452.522 83.3826 456.18C76.8378 459.107 67.0205 454.961 62.9299 452.522C74.2926 453.437 81.1101 445.206 81.1101 441.548C81.1101 440.781 80.9502 440.195 80.6556 439.764C79.5452 438.142 76.521 438.731 72.929 440.176C68.384 442.005 63.3844 450.236 61.1119 450.694C58.8394 451.151 55.0198 448.864 50.6583 444.749C47.3351 441.614 37.7807 430.116 33.8417 424.172C45.6646 427.625 51.087 422.385 51.1829 417.908C51.2013 417.049 51.0239 416.219 50.6583 415.483C48.3858 410.911 40.6592 414.569 37.4777 416.855C34.2962 419.141 32.4782 422.342 31.5691 421.885C30.6601 421.428 26.5696 406.338 26.5696 397.65C26.5696 390.699 32.0236 381.95 34.7507 378.444C35.9627 386.065 37.1675 400.199 45.894 400.199C49.2809 400.199 51.0904 399.185 51.9211 397.773C53.7657 394.638 51.5338 390.611 49.53 389.225C47.986 388.156 41.5682 382.56 39.7502 381.188C37.9322 379.816 35.6597 376.615 40.6592 371.585C44.6589 367.561 67.778 353.447 78.8376 346.893C78.6861 348.722 78.3831 353.661 78.3831 358.782C78.3831 365.184 85.2007 377.073 93.3817 374.329C94.8525 373.836 95.8385 373.18 96.4402 372.425C99.185 368.983 93.9282 363.483 90.2002 361.983C86.5642 360.52 82.3221 351.313 80.6556 346.893C85.9228 339.827 87.0363 341.427 97.0178 332.718C109.545 321.786 110.956 308.025 111.562 303.909C117.016 311.683 133.832 313.969 139.287 306.653C141.371 303.858 142.403 301.263 141.085 298.249C139.382 294.358 136.243 292.722 132.924 294.764C128.932 297.22 122.925 302.537 119.743 303.452C117.198 304.183 113.532 301.623 112.017 300.251C115.653 287.813 110.502 276.168 107.472 271.9C122.016 285.618 133.832 282.874 137.469 276.93C141.105 270.985 136.105 265.041 133.832 264.583C132.014 264.218 131.56 265.346 131.56 265.955C133.832 265.498 138.283 270.88 133.832 276.015C128.616 282.034 115.652 272.814 111.107 270.071Z" fill="#9BC89D"/>
<g style="mix-blend-mode:multiply">
<path d="M80.8534 104.611C81.256 98.4054 80.3196 92.2223 78.1161 86.3163C75.9125 80.4104 67.7885 70.2265 64.6557 66.7421C60.7397 62.3866 53.5605 53.4577 50.9498 49.1022C48.3392 44.7467 44.4232 37.1245 44.4232 35.1645C44.4232 33.2045 31.37 25.8001 30.0646 28.849C30.1372 29.7202 30.6303 31.7241 32.0226 32.7694C33.763 34.076 40.0721 36.036 43.7705 36.4716C43.8431 37.0523 44.0751 38.4316 44.4232 39.3027C44.8583 40.3916 47.0339 44.7471 47.9041 46.0537C48.7743 47.3604 51.82 52.1515 52.4727 53.0226C53.1254 53.8937 59.2169 62.1692 59.8695 63.2581C60.5222 64.347 64.4382 69.3558 64.8733 69.7914C65.3084 70.2269 65.5259 70.2269 65.961 70.6625C66.3091 71.0109 68.654 73.7923 69.877 75.018C73.3579 80.4624 76.4036 86.7775 76.8373 89.4286C76.9573 90.1619 78.5595 96.5324 79.1236 102.299C79.6878 108.065 77.5499 119.33 77.3109 120.311C77.1198 121.095 76.2821 123.12 75.8871 124.034L69.9189 145.011L66.8012 158.237L64.9009 168.373C64.7029 169.542 64.2358 172.308 63.9507 174.02C63.5944 176.16 62.763 186.444 62.4958 188.584C62.2286 190.725 62.4958 199.998 62.763 203.654C62.9768 206.579 64.4555 214.027 65.1681 217.386L68.8203 225.59L70.1268 229.989C74.4421 235.834 83.2331 247.68 83.8745 248.298C84.5158 248.916 89.2645 255.391 91.5059 258.611L91.9384 259.26C91.9384 259.26 92.8033 259.476 93.0195 258.827C93.0196 256.927 89.222 252.493 86.0722 248.816L85.8451 248.551C81.9742 244.03 71.6752 230.176 67.6496 221.391C63.6241 212.606 64.0266 203.499 63.302 195.762C62.5774 188.025 64.9122 175.936 65.4758 169.65C66.0394 163.364 70.3065 149.179 71.0311 145.472C71.7557 141.765 75.4592 129.111 77.3109 124.034C79.1627 118.957 80.4509 110.817 80.8534 104.611Z" fill="#9BC89D"/>
</g>
<g style="mix-blend-mode:multiply">
<path d="M86.6692 98.2413C89.5526 98.8543 92.4596 101.669 92.2855 103.329C92.2855 103.743 90.9802 104.635 90.1459 104.164C89.7698 103.952 88.1364 103.286 87.8175 103.158C87.4985 103.03 84.5321 100.397 84.0696 100.045C83.6996 99.7643 82.831 99.0662 82.4429 98.7522C82.6503 98.3265 83.7858 97.6283 86.6692 98.2413Z" fill="#9BC89D"/>
</g>
<g style="mix-blend-mode:multiply">
<path d="M73.3864 121.72C74.6226 121.967 75.6413 123.564 75.9961 124.332C75.3322 124.71 73.7298 125.494 72.631 125.604C71.2575 125.741 68.7164 125.02 68.3387 124.676C67.961 124.332 67.3429 123.335 67.6176 122.785C67.8923 122.235 71.8412 121.41 73.3864 121.72Z" fill="#9BC89D"/>
</g>
<g style="mix-blend-mode:multiply">
<path d="M68.3765 229.272C69.6634 227.932 69.256 226.309 68.8914 225.665C68.1516 225.665 65.9314 227.372 65.1271 228.209C64.3228 229.047 61.0739 233.761 61.4916 239.417C62.1029 247.693 67.1539 249.69 67.7009 249.69C68.1384 249.69 68.6768 248.874 68.8914 248.466C68.6447 248.219 67.881 247.287 66.8 245.536C65.4488 243.346 65.288 238.772 65.3845 235.971C65.481 233.169 66.7679 230.947 68.3765 229.272Z" fill="#9BC89D"/>
</g>
<g style="mix-blend-mode:multiply">
<path d="M70.4688 174.974C80.0814 176.426 81.2516 183.544 81.4141 183.869C79.4698 186.182 76.6766 185.366 76.3504 185.345C76.0242 185.325 73.7407 183.869 72.7009 182.957C71.6611 182.045 68.3378 178.549 67.8281 177.977C67.4203 177.52 66.5353 176.336 66.1766 175.814C64.7136 174.892 68.7822 174.719 70.4688 174.974Z" fill="#9BC89D"/>
</g>
<g style="mix-blend-mode:multiply">
<path d="M87.5014 458.754C87.6311 458.124 90.0569 458.637 91.2536 458.972C92.6245 459.297 96.9871 461.76 98.1372 463.181C99.6758 465.082 99.4059 465.716 99.6758 466.63C99.4778 466.793 98.9902 467.119 98.6231 467.119C98.1642 467.119 97.0035 467.228 96.5716 467.119C96.1396 467.011 95.1677 466.63 94.3039 466.25C93.4401 465.87 92.5223 465.463 92.0364 465.082C91.5505 464.702 89.6339 463.371 89.202 462.964C88.7701 462.557 88.0683 461.172 87.9333 460.438C87.7983 459.705 87.3394 459.542 87.5014 458.754Z" fill="#9BC89D"/>
</g>
<g style="mix-blend-mode:multiply">
<path d="M103.859 449.318C108.016 446.785 110.098 444.217 110.586 442.965C110.147 440.093 107.063 439.682 105.103 440.26C103.533 440.723 100.203 443.628 99.4709 444.365C98.739 445.101 93.1437 449.421 91.8551 450.791C89.4464 453.351 92.5069 453.963 93.7385 453.732C96.195 453.27 98.6622 452.484 103.859 449.318Z" fill="#9BC89D"/>
</g>
<g style="mix-blend-mode:multiply">
<path d="M77.3961 444.708C79.4363 443.34 80.9412 440.635 80.7444 439.813C79.0154 437.572 74.0366 439.813 73.4266 440.006C72.8166 440.198 71.0118 441.131 70.4018 441.693C69.7917 442.256 68.5208 443.483 67.987 443.969C67.4532 444.455 65.8869 446.34 64.8929 447.34C64.0977 448.14 62.6085 449.849 61.9633 450.603C62.0853 450.779 63.0409 451.024 65.8869 450.603C69.4443 450.077 75.3559 446.077 77.3961 444.708Z" fill="#9BC89D"/>
</g>
<g style="mix-blend-mode:multiply">
<path d="M136.756 304.571C138.981 303.327 140.602 300.322 141.117 298.214C139.16 293.378 135.074 293.447 133.46 294.552C132.764 295.029 129.511 297.247 128.721 297.8C127.932 298.352 125.391 300.252 124.841 300.667C124.292 301.082 121.339 302.705 120.652 303.051C120.103 303.327 119.187 303.603 118.798 303.707C118.89 304.582 119.945 306.485 123.434 307.093C127.794 307.853 133.975 306.125 136.756 304.571Z" fill="#9BC89D"/>
</g>
<g style="mix-blend-mode:multiply">
<path d="M78.3601 358.945C81.3463 353.024 85.0076 371.041 96.4219 372.139C96.4219 373.996 92.5845 374.563 90.6597 374.681C88.8938 374.789 84.8231 373.024 82.2559 369.113C80.4018 366.288 78.5308 362.451 78.3601 358.945Z" fill="#9BC89D"/>
</g>
<g style="mix-blend-mode:multiply">
<path d="M104.277 314.015C103.75 314.376 103.127 314.769 102.429 315.18C98.1059 317.25 89.9682 318.348 89.0372 318.406C87.9447 318.475 79.3871 315.222 77.7701 314.765C76.0488 314.279 65.2328 307.395 62.4057 307.689C60.8215 307.854 58.0292 309.358 57.256 310.929C63.1337 316.714 75.9417 321.342 84.5996 321.342C89.9606 321.342 97.8279 317.886 102.429 315.18C103.179 314.821 103.815 314.432 104.277 314.015Z" fill="#9BC89D"/>
</g>
<g style="mix-blend-mode:multiply">
<path d="M93.6672 262.935C98.5353 277.495 80.3968 283.888 74.9579 284.059C74.382 283.595 74.5402 282.073 74.6124 281.142C74.7693 279.12 76.1483 276.932 77.2809 276.429C78.3302 275.964 86.6186 270.981 88.0454 270.071C90.4238 268.553 94.0997 266.395 93.6672 262.935Z" fill="#9BC89D"/>
</g>
<g style="mix-blend-mode:multiply">
<path d="M48.7619 453.983C48.7619 451.363 49.033 448.36 49.0058 448.224C46.3743 448.497 42.7933 452.618 42.2235 453.983C41.9167 454.718 40.867 459.196 41.4639 461.407C41.9414 463.176 43.7428 463.873 44.5838 464C44.9184 463.782 45.8101 463.007 46.7 461.653C47.8123 459.961 48.7619 456.603 48.7619 453.983Z" fill="#9BC89D"/>
</g>
<g style="mix-blend-mode:multiply">
<path d="M37.4547 420.719C41.1538 418.292 48.21 417.82 51.2758 417.887C51.7911 412.97 46.756 412.784 44.233 413.455C42.4191 413.938 39.063 415.764 38.0578 416.37C37.0526 416.977 33.0822 421.022 32.5293 421.579C32.087 422.024 31.7754 422 31.6749 421.933C32.0602 422.539 33.7556 423.146 37.4547 420.719Z" fill="#9BC89D"/>
</g>
<g style="mix-blend-mode:multiply">
<path d="M19.533 396.243C20.4987 395.699 22.929 394.429 24.0234 393.863C19.8712 390.657 10.6972 391.968 8.57274 392.211C6.44828 392.454 2.38392 394.311 1.28198 395.514C-0.0668585 396.988 0.509449 397.846 0.557731 398.672C1.47511 398.915 3.72911 399.838 7.51051 399.838C11.7336 399.838 18.3259 396.923 19.533 396.243Z" fill="#9BC89D"/>
</g>
<g style="mix-blend-mode:multiply">
<path d="M39.0809 386.376C42.4042 394.024 51.2968 397.44 51.9883 397.826C51.5908 398.398 50.3073 399.42 48.511 399.834C45.6031 400.502 43.1937 399.666 42.3213 399.248C41.4489 398.83 40.1611 397.159 39.0809 395.654C38.0008 394.149 36.2977 387.922 35.5915 384.328C35.0265 381.452 34.8575 379.117 34.8437 378.309C36.173 377.557 35.7576 378.727 39.0809 386.376Z" fill="#9BC89D"/>
</g>
<g filter="url(#filter0_d)">
<circle cx="71" cy="433.5" r="36.5" transform="rotate(90 71 433.5)" fill="white"/>
<circle cx="71" cy="433.5" r="35" transform="rotate(90 71 433.5)" stroke="#79A000" stroke-width="3"/>
</g>
<path d="M82.8993 441.002H79.0233V446H73.6513V441.002H60.8333V437.296L72.0533 422.2H77.8333L67.4293 436.514H73.8213V432.06H79.0233V436.514H82.8993V441.002Z" fill="#417400"/>
<path d="M163.552 410.2V420H161.76V411.74H156.678V420H154.886V410.2H163.552ZM170.263 412.44C170.991 412.44 171.64 412.599 172.209 412.916C172.788 413.233 173.241 413.681 173.567 414.26C173.894 414.839 174.057 415.506 174.057 416.262C174.057 417.018 173.894 417.69 173.567 418.278C173.241 418.857 172.788 419.305 172.209 419.622C171.64 419.939 170.991 420.098 170.263 420.098C169.255 420.098 168.457 419.762 167.869 419.09V422.716H166.119V412.524H167.785V413.504C168.075 413.149 168.429 412.883 168.849 412.706C169.279 412.529 169.75 412.44 170.263 412.44ZM170.067 418.6C170.711 418.6 171.239 418.385 171.649 417.956C172.069 417.527 172.279 416.962 172.279 416.262C172.279 415.562 172.069 414.997 171.649 414.568C171.239 414.139 170.711 413.924 170.067 413.924C169.647 413.924 169.269 414.022 168.933 414.218C168.597 414.405 168.331 414.675 168.135 415.03C167.939 415.385 167.841 415.795 167.841 416.262C167.841 416.729 167.939 417.139 168.135 417.494C168.331 417.849 168.597 418.124 168.933 418.32C169.269 418.507 169.647 418.6 170.067 418.6ZM179.131 420.098C178.375 420.098 177.694 419.935 177.087 419.608C176.48 419.281 176.004 418.829 175.659 418.25C175.323 417.662 175.155 416.999 175.155 416.262C175.155 415.525 175.323 414.867 175.659 414.288C176.004 413.709 176.48 413.257 177.087 412.93C177.694 412.603 178.375 412.44 179.131 412.44C179.896 412.44 180.582 412.603 181.189 412.93C181.796 413.257 182.267 413.709 182.603 414.288C182.948 414.867 183.121 415.525 183.121 416.262C183.121 416.999 182.948 417.662 182.603 418.25C182.267 418.829 181.796 419.281 181.189 419.608C180.582 419.935 179.896 420.098 179.131 420.098ZM179.131 418.6C179.775 418.6 180.307 418.385 180.727 417.956C181.147 417.527 181.357 416.962 181.357 416.262C181.357 415.562 181.147 414.997 180.727 414.568C180.307 414.139 179.775 413.924 179.131 413.924C178.487 413.924 177.955 414.139 177.535 414.568C177.124 414.997 176.919 415.562 176.919 416.262C176.919 416.962 177.124 417.527 177.535 417.956C177.955 418.385 178.487 418.6 179.131 418.6ZM192.748 418.516V421.666H191.11V420H185.342V421.666H183.718V418.516H184.068C184.544 418.497 184.866 418.194 185.034 417.606C185.211 417.009 185.328 416.169 185.384 415.086L185.482 412.524H191.642V418.516H192.748ZM186.98 415.212C186.942 416.071 186.872 416.771 186.77 417.312C186.667 417.853 186.48 418.255 186.21 418.516H189.892V414.008H187.022L186.98 415.212ZM197.097 412.44C198.198 412.44 199.038 412.706 199.617 413.238C200.205 413.761 200.499 414.554 200.499 415.618V420H198.847V419.09C198.632 419.417 198.324 419.669 197.923 419.846C197.531 420.014 197.055 420.098 196.495 420.098C195.935 420.098 195.445 420.005 195.025 419.818C194.605 419.622 194.278 419.356 194.045 419.02C193.821 418.675 193.709 418.287 193.709 417.858C193.709 417.186 193.956 416.649 194.451 416.248C194.955 415.837 195.743 415.632 196.817 415.632H198.749V415.52C198.749 414.997 198.59 414.596 198.273 414.316C197.965 414.036 197.503 413.896 196.887 413.896C196.467 413.896 196.051 413.961 195.641 414.092C195.239 414.223 194.899 414.405 194.619 414.638L193.933 413.364C194.325 413.065 194.796 412.837 195.347 412.678C195.897 412.519 196.481 412.44 197.097 412.44ZM196.859 418.824C197.297 418.824 197.685 418.726 198.021 418.53C198.366 418.325 198.609 418.035 198.749 417.662V416.794H196.943C195.935 416.794 195.431 417.125 195.431 417.788C195.431 418.105 195.557 418.357 195.809 418.544C196.061 418.731 196.411 418.824 196.859 418.824ZM208.082 416.108C209.006 416.388 209.468 416.985 209.468 417.9C209.468 418.572 209.216 419.09 208.712 419.454C208.208 419.818 207.462 420 206.472 420H202.664V412.524H206.318C207.233 412.524 207.947 412.692 208.46 413.028C208.974 413.364 209.23 413.84 209.23 414.456C209.23 414.839 209.128 415.17 208.922 415.45C208.726 415.73 208.446 415.949 208.082 416.108ZM204.33 415.646H206.164C207.07 415.646 207.522 415.333 207.522 414.708C207.522 414.101 207.07 413.798 206.164 413.798H204.33V415.646ZM206.332 418.726C207.294 418.726 207.774 418.413 207.774 417.788C207.774 417.461 207.662 417.219 207.438 417.06C207.214 416.892 206.864 416.808 206.388 416.808H204.33V418.726H206.332ZM218.332 416.304C218.332 416.425 218.323 416.598 218.304 416.822H212.438C212.541 417.373 212.807 417.811 213.236 418.138C213.675 418.455 214.216 418.614 214.86 418.614C215.682 418.614 216.358 418.343 216.89 417.802L217.828 418.88C217.492 419.281 217.068 419.585 216.554 419.79C216.041 419.995 215.462 420.098 214.818 420.098C213.997 420.098 213.274 419.935 212.648 419.608C212.023 419.281 211.538 418.829 211.192 418.25C210.856 417.662 210.688 416.999 210.688 416.262C210.688 415.534 210.852 414.881 211.178 414.302C211.514 413.714 211.976 413.257 212.564 412.93C213.152 412.603 213.815 412.44 214.552 412.44C215.28 412.44 215.929 412.603 216.498 412.93C217.077 413.247 217.525 413.7 217.842 414.288C218.169 414.867 218.332 415.539 218.332 416.304ZM214.552 413.84C213.992 413.84 213.516 414.008 213.124 414.344C212.742 414.671 212.508 415.109 212.424 415.66H216.666C216.592 415.119 216.363 414.68 215.98 414.344C215.598 414.008 215.122 413.84 214.552 413.84ZM228.45 418.516V421.722H226.812V420H220.246V412.524H221.996V418.516H225.566V412.524H227.316V418.516H228.45ZM161.844 431.524V439H160.108V433.008H156.426V439H154.676V431.524H161.844ZM167.537 439.098C166.781 439.098 166.1 438.935 165.493 438.608C164.887 438.281 164.411 437.829 164.065 437.25C163.729 436.662 163.561 435.999 163.561 435.262C163.561 434.525 163.729 433.867 164.065 433.288C164.411 432.709 164.887 432.257 165.493 431.93C166.1 431.603 166.781 431.44 167.537 431.44C168.303 431.44 168.989 431.603 169.595 431.93C170.202 432.257 170.673 432.709 171.009 433.288C171.355 433.867 171.527 434.525 171.527 435.262C171.527 435.999 171.355 436.662 171.009 437.25C170.673 437.829 170.202 438.281 169.595 438.608C168.989 438.935 168.303 439.098 167.537 439.098ZM167.537 437.6C168.181 437.6 168.713 437.385 169.133 436.956C169.553 436.527 169.763 435.962 169.763 435.262C169.763 434.562 169.553 433.997 169.133 433.568C168.713 433.139 168.181 432.924 167.537 432.924C166.893 432.924 166.361 433.139 165.941 433.568C165.531 433.997 165.325 434.562 165.325 435.262C165.325 435.962 165.531 436.527 165.941 436.956C166.361 437.385 166.893 437.6 167.537 437.6ZM179.95 431.524V439H178.2V433.008H175.4L175.33 434.492C175.283 435.481 175.19 436.312 175.05 436.984C174.919 437.647 174.691 438.174 174.364 438.566C174.047 438.949 173.608 439.14 173.048 439.14C172.787 439.14 172.465 439.089 172.082 438.986L172.166 437.516C172.297 437.544 172.409 437.558 172.502 437.558C172.857 437.558 173.123 437.418 173.3 437.138C173.477 436.849 173.589 436.508 173.636 436.116C173.692 435.715 173.739 435.145 173.776 434.408L173.902 431.524H179.95ZM189.363 431.524L185.863 439.602C185.536 440.414 185.14 440.983 184.673 441.31C184.206 441.646 183.642 441.814 182.979 441.814C182.606 441.814 182.237 441.753 181.873 441.632C181.509 441.511 181.21 441.343 180.977 441.128L181.677 439.84C181.845 439.999 182.041 440.125 182.265 440.218C182.498 440.311 182.732 440.358 182.965 440.358C183.273 440.358 183.525 440.279 183.721 440.12C183.926 439.961 184.113 439.695 184.281 439.322L184.407 439.028L181.145 431.524H182.965L185.317 437.054L187.683 431.524H189.363ZM196.92 431.524V439H195.17V436.102C194.452 436.447 193.7 436.62 192.916 436.62C191.955 436.62 191.218 436.401 190.704 435.962C190.191 435.514 189.934 434.833 189.934 433.918V431.524H191.684V433.806C191.684 434.282 191.824 434.637 192.104 434.87C192.384 435.103 192.781 435.22 193.294 435.22C193.948 435.22 194.573 435.08 195.17 434.8V431.524H196.92ZM202.06 431.44C203.161 431.44 204.001 431.706 204.58 432.238C205.168 432.761 205.462 433.554 205.462 434.618V439H203.81V438.09C203.595 438.417 203.287 438.669 202.886 438.846C202.494 439.014 202.018 439.098 201.458 439.098C200.898 439.098 200.408 439.005 199.988 438.818C199.568 438.622 199.241 438.356 199.008 438.02C198.784 437.675 198.672 437.287 198.672 436.858C198.672 436.186 198.919 435.649 199.414 435.248C199.918 434.837 200.706 434.632 201.78 434.632H203.712V434.52C203.712 433.997 203.553 433.596 203.236 433.316C202.928 433.036 202.466 432.896 201.85 432.896C201.43 432.896 201.014 432.961 200.604 433.092C200.202 433.223 199.862 433.405 199.582 433.638L198.896 432.364C199.288 432.065 199.759 431.837 200.31 431.678C200.86 431.519 201.444 431.44 202.06 431.44ZM201.822 437.824C202.26 437.824 202.648 437.726 202.984 437.53C203.329 437.325 203.572 437.035 203.712 436.662V435.794H201.906C200.898 435.794 200.394 436.125 200.394 436.788C200.394 437.105 200.52 437.357 200.772 437.544C201.024 437.731 201.374 437.824 201.822 437.824ZM214.627 435.304C214.627 435.425 214.618 435.598 214.599 435.822H208.733C208.836 436.373 209.102 436.811 209.531 437.138C209.97 437.455 210.511 437.614 211.155 437.614C211.977 437.614 212.653 437.343 213.185 436.802L214.123 437.88C213.787 438.281 213.363 438.585 212.849 438.79C212.336 438.995 211.757 439.098 211.113 439.098C210.292 439.098 209.569 438.935 208.943 438.608C208.318 438.281 207.833 437.829 207.487 437.25C207.151 436.662 206.983 435.999 206.983 435.262C206.983 434.534 207.147 433.881 207.473 433.302C207.809 432.714 208.271 432.257 208.859 431.93C209.447 431.603 210.11 431.44 210.847 431.44C211.575 431.44 212.224 431.603 212.793 431.93C213.372 432.247 213.82 432.7 214.137 433.288C214.464 433.867 214.627 434.539 214.627 435.304ZM210.847 432.84C210.287 432.84 209.811 433.008 209.419 433.344C209.037 433.671 208.803 434.109 208.719 434.66H212.961C212.887 434.119 212.658 433.68 212.275 433.344C211.893 433.008 211.417 432.84 210.847 432.84ZM222.19 433.008H219.572V439H217.822V433.008H215.19V431.524H222.19V433.008ZM162.656 456.516V459.666H161.018V458H155.25V459.666H153.626V456.516H153.976C154.452 456.497 154.774 456.194 154.942 455.606C155.119 455.009 155.236 454.169 155.292 453.086L155.39 450.524H161.55V456.516H162.656ZM156.888 453.212C156.851 454.071 156.781 454.771 156.678 455.312C156.575 455.853 156.389 456.255 156.118 456.516H159.8V452.008H156.93L156.888 453.212ZM171.219 454.304C171.219 454.425 171.21 454.598 171.191 454.822H165.325C165.428 455.373 165.694 455.811 166.123 456.138C166.562 456.455 167.103 456.614 167.747 456.614C168.568 456.614 169.245 456.343 169.777 455.802L170.715 456.88C170.379 457.281 169.954 457.585 169.441 457.79C168.928 457.995 168.349 458.098 167.705 458.098C166.884 458.098 166.16 457.935 165.535 457.608C164.91 457.281 164.424 456.829 164.079 456.25C163.743 455.662 163.575 454.999 163.575 454.262C163.575 453.534 163.738 452.881 164.065 452.302C164.401 451.714 164.863 451.257 165.451 450.93C166.039 450.603 166.702 450.44 167.439 450.44C168.167 450.44 168.816 450.603 169.385 450.93C169.964 451.247 170.412 451.7 170.729 452.288C171.056 452.867 171.219 453.539 171.219 454.304ZM167.439 451.84C166.879 451.84 166.403 452.008 166.011 452.344C165.628 452.671 165.395 453.109 165.311 453.66H169.553C169.478 453.119 169.25 452.68 168.867 452.344C168.484 452.008 168.008 451.84 167.439 451.84ZM173.133 450.524H174.883V453.562H178.649V450.524H180.399V458H178.649V455.046H174.883V458H173.133V450.524ZM186.496 452.988C187.448 452.988 188.176 453.203 188.68 453.632C189.194 454.061 189.45 454.668 189.45 455.452C189.45 456.273 189.17 456.908 188.61 457.356C188.05 457.804 187.262 458.023 186.244 458.014L182.744 458V450.524H184.494V452.974L186.496 452.988ZM186.09 456.726C186.604 456.735 186.996 456.628 187.266 456.404C187.537 456.18 187.672 455.853 187.672 455.424C187.672 455.004 187.542 454.696 187.28 454.5C187.019 454.304 186.622 454.201 186.09 454.192L184.494 454.178V456.712L186.09 456.726ZM196.729 452.008H192.739V458H190.989V450.524H196.729V452.008ZM198.002 450.524H199.752V455.452L203.882 450.524H205.478V458H203.728V453.072L199.612 458H198.002V450.524Z" fill="#0E0E0E"/>
<g filter="url(#filter1_d)">
<circle cx="71" cy="306.5" r="36.5" transform="rotate(90 71 306.5)" fill="white"/>
<circle cx="71" cy="306.5" r="35" transform="rotate(90 71 306.5)" stroke="#79A000" stroke-width="3"/>
</g>
<path d="M74.3835 304.89C76.4688 305.23 78.0668 306.012 79.1775 307.236C80.2881 308.437 80.8435 309.933 80.8435 311.724C80.8435 313.107 80.4808 314.387 79.7555 315.566C79.0301 316.722 77.9195 317.651 76.4235 318.354C74.9501 319.057 73.1368 319.408 70.9835 319.408C69.3061 319.408 67.6515 319.193 66.0195 318.762C64.4101 318.309 63.0388 317.674 61.9055 316.858L64.0475 312.642C64.9541 313.322 65.9968 313.855 67.1755 314.24C68.3768 314.603 69.6008 314.784 70.8475 314.784C72.2301 314.784 73.3181 314.523 74.1115 314.002C74.9048 313.458 75.3015 312.699 75.3015 311.724C75.3015 309.775 73.8168 308.8 70.8475 308.8H68.3315V305.162L73.2275 299.62H63.0955V295.2H79.7555V298.77L74.3835 304.89Z" fill="#417400"/>
<path d="M163.552 283.2V293H161.76V284.74H156.678V293H154.886V283.2H163.552ZM170.263 285.44C170.991 285.44 171.64 285.599 172.209 285.916C172.788 286.233 173.241 286.681 173.567 287.26C173.894 287.839 174.057 288.506 174.057 289.262C174.057 290.018 173.894 290.69 173.567 291.278C173.241 291.857 172.788 292.305 172.209 292.622C171.64 292.939 170.991 293.098 170.263 293.098C169.255 293.098 168.457 292.762 167.869 292.09V295.716H166.119V285.524H167.785V286.504C168.075 286.149 168.429 285.883 168.849 285.706C169.279 285.529 169.75 285.44 170.263 285.44ZM170.067 291.6C170.711 291.6 171.239 291.385 171.649 290.956C172.069 290.527 172.279 289.962 172.279 289.262C172.279 288.562 172.069 287.997 171.649 287.568C171.239 287.139 170.711 286.924 170.067 286.924C169.647 286.924 169.269 287.022 168.933 287.218C168.597 287.405 168.331 287.675 168.135 288.03C167.939 288.385 167.841 288.795 167.841 289.262C167.841 289.729 167.939 290.139 168.135 290.494C168.331 290.849 168.597 291.124 168.933 291.32C169.269 291.507 169.647 291.6 170.067 291.6ZM179.131 293.098C178.375 293.098 177.694 292.935 177.087 292.608C176.48 292.281 176.004 291.829 175.659 291.25C175.323 290.662 175.155 289.999 175.155 289.262C175.155 288.525 175.323 287.867 175.659 287.288C176.004 286.709 176.48 286.257 177.087 285.93C177.694 285.603 178.375 285.44 179.131 285.44C179.896 285.44 180.582 285.603 181.189 285.93C181.796 286.257 182.267 286.709 182.603 287.288C182.948 287.867 183.121 288.525 183.121 289.262C183.121 289.999 182.948 290.662 182.603 291.25C182.267 291.829 181.796 292.281 181.189 292.608C180.582 292.935 179.896 293.098 179.131 293.098ZM179.131 291.6C179.775 291.6 180.307 291.385 180.727 290.956C181.147 290.527 181.357 289.962 181.357 289.262C181.357 288.562 181.147 287.997 180.727 287.568C180.307 287.139 179.775 286.924 179.131 286.924C178.487 286.924 177.955 287.139 177.535 287.568C177.124 287.997 176.919 288.562 176.919 289.262C176.919 289.962 177.124 290.527 177.535 290.956C177.955 291.385 178.487 291.6 179.131 291.6ZM192.748 291.516V294.666H191.11V293H185.342V294.666H183.718V291.516H184.068C184.544 291.497 184.866 291.194 185.034 290.606C185.211 290.009 185.328 289.169 185.384 288.086L185.482 285.524H191.642V291.516H192.748ZM186.98 288.212C186.942 289.071 186.872 289.771 186.77 290.312C186.667 290.853 186.48 291.255 186.21 291.516H189.892V287.008H187.022L186.98 288.212ZM197.097 285.44C198.198 285.44 199.038 285.706 199.617 286.238C200.205 286.761 200.499 287.554 200.499 288.618V293H198.847V292.09C198.632 292.417 198.324 292.669 197.923 292.846C197.531 293.014 197.055 293.098 196.495 293.098C195.935 293.098 195.445 293.005 195.025 292.818C194.605 292.622 194.278 292.356 194.045 292.02C193.821 291.675 193.709 291.287 193.709 290.858C193.709 290.186 193.956 289.649 194.451 289.248C194.955 288.837 195.743 288.632 196.817 288.632H198.749V288.52C198.749 287.997 198.59 287.596 198.273 287.316C197.965 287.036 197.503 286.896 196.887 286.896C196.467 286.896 196.051 286.961 195.641 287.092C195.239 287.223 194.899 287.405 194.619 287.638L193.933 286.364C194.325 286.065 194.796 285.837 195.347 285.678C195.897 285.519 196.481 285.44 197.097 285.44ZM196.859 291.824C197.297 291.824 197.685 291.726 198.021 291.53C198.366 291.325 198.609 291.035 198.749 290.662V289.794H196.943C195.935 289.794 195.431 290.125 195.431 290.788C195.431 291.105 195.557 291.357 195.809 291.544C196.061 291.731 196.411 291.824 196.859 291.824ZM208.082 289.108C209.006 289.388 209.468 289.985 209.468 290.9C209.468 291.572 209.216 292.09 208.712 292.454C208.208 292.818 207.462 293 206.472 293H202.664V285.524H206.318C207.233 285.524 207.947 285.692 208.46 286.028C208.974 286.364 209.23 286.84 209.23 287.456C209.23 287.839 209.128 288.17 208.922 288.45C208.726 288.73 208.446 288.949 208.082 289.108ZM204.33 288.646H206.164C207.07 288.646 207.522 288.333 207.522 287.708C207.522 287.101 207.07 286.798 206.164 286.798H204.33V288.646ZM206.332 291.726C207.294 291.726 207.774 291.413 207.774 290.788C207.774 290.461 207.662 290.219 207.438 290.06C207.214 289.892 206.864 289.808 206.388 289.808H204.33V291.726H206.332ZM218.332 289.304C218.332 289.425 218.323 289.598 218.304 289.822H212.438C212.541 290.373 212.807 290.811 213.236 291.138C213.675 291.455 214.216 291.614 214.86 291.614C215.682 291.614 216.358 291.343 216.89 290.802L217.828 291.88C217.492 292.281 217.068 292.585 216.554 292.79C216.041 292.995 215.462 293.098 214.818 293.098C213.997 293.098 213.274 292.935 212.648 292.608C212.023 292.281 211.538 291.829 211.192 291.25C210.856 290.662 210.688 289.999 210.688 289.262C210.688 288.534 210.852 287.881 211.178 287.302C211.514 286.714 211.976 286.257 212.564 285.93C213.152 285.603 213.815 285.44 214.552 285.44C215.28 285.44 215.929 285.603 216.498 285.93C217.077 286.247 217.525 286.7 217.842 287.288C218.169 287.867 218.332 288.539 218.332 289.304ZM214.552 286.84C213.992 286.84 213.516 287.008 213.124 287.344C212.742 287.671 212.508 288.109 212.424 288.66H216.666C216.592 288.119 216.363 287.68 215.98 287.344C215.598 287.008 215.122 286.84 214.552 286.84ZM228.45 291.516V294.722H226.812V293H220.246V285.524H221.996V291.516H225.566V285.524H227.316V291.516H228.45ZM162.656 310.516V313.666H161.018V312H155.25V313.666H153.626V310.516H153.976C154.452 310.497 154.774 310.194 154.942 309.606C155.119 309.009 155.236 308.169 155.292 307.086L155.39 304.524H161.55V310.516H162.656ZM156.888 307.212C156.851 308.071 156.781 308.771 156.678 309.312C156.575 309.853 156.389 310.255 156.118 310.516H159.8V306.008H156.93L156.888 307.212ZM167.551 312.098C166.795 312.098 166.114 311.935 165.507 311.608C164.9 311.281 164.424 310.829 164.079 310.25C163.743 309.662 163.575 308.999 163.575 308.262C163.575 307.525 163.743 306.867 164.079 306.288C164.424 305.709 164.9 305.257 165.507 304.93C166.114 304.603 166.795 304.44 167.551 304.44C168.316 304.44 169.002 304.603 169.609 304.93C170.216 305.257 170.687 305.709 171.023 306.288C171.368 306.867 171.541 307.525 171.541 308.262C171.541 308.999 171.368 309.662 171.023 310.25C170.687 310.829 170.216 311.281 169.609 311.608C169.002 311.935 168.316 312.098 167.551 312.098ZM167.551 310.6C168.195 310.6 168.727 310.385 169.147 309.956C169.567 309.527 169.777 308.962 169.777 308.262C169.777 307.562 169.567 306.997 169.147 306.568C168.727 306.139 168.195 305.924 167.551 305.924C166.907 305.924 166.375 306.139 165.955 306.568C165.544 306.997 165.339 307.562 165.339 308.262C165.339 308.962 165.544 309.527 165.955 309.956C166.375 310.385 166.907 310.6 167.551 310.6ZM176.672 312.098C175.897 312.098 175.202 311.935 174.586 311.608C173.97 311.281 173.489 310.829 173.144 310.25C172.798 309.662 172.626 308.999 172.626 308.262C172.626 307.525 172.798 306.867 173.144 306.288C173.489 305.709 173.965 305.257 174.572 304.93C175.188 304.603 175.888 304.44 176.672 304.44C177.409 304.44 178.053 304.589 178.604 304.888C179.164 305.187 179.584 305.616 179.864 306.176L178.52 306.96C178.305 306.615 178.034 306.358 177.708 306.19C177.39 306.013 177.04 305.924 176.658 305.924C176.004 305.924 175.463 306.139 175.034 306.568C174.604 306.988 174.39 307.553 174.39 308.262C174.39 308.971 174.6 309.541 175.02 309.97C175.449 310.39 175.995 310.6 176.658 310.6C177.04 310.6 177.39 310.516 177.708 310.348C178.034 310.171 178.305 309.909 178.52 309.564L179.864 310.348C179.574 310.908 179.15 311.342 178.59 311.65C178.039 311.949 177.4 312.098 176.672 312.098ZM187.258 306.008H184.64V312H182.89V306.008H180.258V304.524H187.258V306.008ZM191.314 304.44C192.415 304.44 193.255 304.706 193.834 305.238C194.422 305.761 194.716 306.554 194.716 307.618V312H193.064V311.09C192.849 311.417 192.541 311.669 192.14 311.846C191.748 312.014 191.272 312.098 190.712 312.098C190.152 312.098 189.662 312.005 189.242 311.818C188.822 311.622 188.495 311.356 188.262 311.02C188.038 310.675 187.926 310.287 187.926 309.858C187.926 309.186 188.173 308.649 188.668 308.248C189.172 307.837 189.96 307.632 191.034 307.632H192.966V307.52C192.966 306.997 192.807 306.596 192.49 306.316C192.182 306.036 191.72 305.896 191.104 305.896C190.684 305.896 190.268 305.961 189.858 306.092C189.456 306.223 189.116 306.405 188.836 306.638L188.15 305.364C188.542 305.065 189.013 304.837 189.564 304.678C190.114 304.519 190.698 304.44 191.314 304.44ZM191.076 310.824C191.514 310.824 191.902 310.726 192.238 310.53C192.583 310.325 192.826 310.035 192.966 309.662V308.794H191.16C190.152 308.794 189.648 309.125 189.648 309.788C189.648 310.105 189.774 310.357 190.026 310.544C190.278 310.731 190.628 310.824 191.076 310.824ZM202.299 308.108C203.223 308.388 203.685 308.985 203.685 309.9C203.685 310.572 203.433 311.09 202.929 311.454C202.425 311.818 201.678 312 200.689 312H196.881V304.524H200.535C201.45 304.524 202.164 304.692 202.677 305.028C203.19 305.364 203.447 305.84 203.447 306.456C203.447 306.839 203.344 307.17 203.139 307.45C202.943 307.73 202.663 307.949 202.299 308.108ZM198.547 307.646H200.381C201.286 307.646 201.739 307.333 201.739 306.708C201.739 306.101 201.286 305.798 200.381 305.798H198.547V307.646ZM200.549 310.726C201.51 310.726 201.991 310.413 201.991 309.788C201.991 309.461 201.879 309.219 201.655 309.06C201.431 308.892 201.081 308.808 200.605 308.808H198.547V310.726H200.549ZM212.325 304.524V312H210.575V306.008H207.775L207.705 307.492C207.658 308.481 207.565 309.312 207.425 309.984C207.294 310.647 207.066 311.174 206.739 311.566C206.422 311.949 205.983 312.14 205.423 312.14C205.162 312.14 204.84 312.089 204.457 311.986L204.541 310.516C204.672 310.544 204.784 310.558 204.877 310.558C205.232 310.558 205.498 310.418 205.675 310.138C205.852 309.849 205.964 309.508 206.011 309.116C206.067 308.715 206.114 308.145 206.151 307.408L206.277 304.524H212.325ZM220.996 304.524V312H219.428V309.746H217.454L215.928 312H214.052L215.816 309.508C215.275 309.321 214.859 309.037 214.57 308.654C214.29 308.262 214.15 307.781 214.15 307.212C214.15 306.353 214.453 305.691 215.06 305.224C215.667 304.757 216.502 304.524 217.566 304.524H220.996ZM217.622 305.994C216.493 305.994 215.928 306.419 215.928 307.268C215.928 308.108 216.474 308.528 217.566 308.528H219.428V305.994H217.622ZM230.35 308.304C230.35 308.425 230.34 308.598 230.322 308.822H224.456C224.558 309.373 224.824 309.811 225.254 310.138C225.692 310.455 226.234 310.614 226.878 310.614C227.699 310.614 228.376 310.343 228.908 309.802L229.846 310.88C229.51 311.281 229.085 311.585 228.572 311.79C228.058 311.995 227.48 312.098 226.836 312.098C226.014 312.098 225.291 311.935 224.666 311.608C224.04 311.281 223.555 310.829 223.21 310.25C222.874 309.662 222.706 308.999 222.706 308.262C222.706 307.534 222.869 306.881 223.196 306.302C223.532 305.714 223.994 305.257 224.582 304.93C225.17 304.603 225.832 304.44 226.57 304.44C227.298 304.44 227.946 304.603 228.516 304.93C229.094 305.247 229.542 305.7 229.86 306.288C230.186 306.867 230.35 307.539 230.35 308.304ZM226.57 305.84C226.01 305.84 225.534 306.008 225.142 306.344C224.759 306.671 224.526 307.109 224.442 307.66H228.684C228.609 307.119 228.38 306.68 227.998 306.344C227.615 306.008 227.139 305.84 226.57 305.84ZM237.912 306.008H235.294V312H233.544V306.008H230.912V304.524H237.912V306.008ZM160.598 325.008H157.98V331H156.23V325.008H153.598V323.524H160.598V325.008ZM164.871 331.098C164.115 331.098 163.434 330.935 162.827 330.608C162.221 330.281 161.745 329.829 161.399 329.25C161.063 328.662 160.895 327.999 160.895 327.262C160.895 326.525 161.063 325.867 161.399 325.288C161.745 324.709 162.221 324.257 162.827 323.93C163.434 323.603 164.115 323.44 164.871 323.44C165.637 323.44 166.323 323.603 166.929 323.93C167.536 324.257 168.007 324.709 168.343 325.288C168.689 325.867 168.861 326.525 168.861 327.262C168.861 327.999 168.689 328.662 168.343 329.25C168.007 329.829 167.536 330.281 166.929 330.608C166.323 330.935 165.637 331.098 164.871 331.098ZM164.871 329.6C165.515 329.6 166.047 329.385 166.467 328.956C166.887 328.527 167.097 327.962 167.097 327.262C167.097 326.562 166.887 325.997 166.467 325.568C166.047 325.139 165.515 324.924 164.871 324.924C164.227 324.924 163.695 325.139 163.275 325.568C162.865 325.997 162.659 326.562 162.659 327.262C162.659 327.962 162.865 328.527 163.275 328.956C163.695 329.385 164.227 329.6 164.871 329.6ZM176.008 327.108C176.932 327.388 177.394 327.985 177.394 328.9C177.394 329.572 177.142 330.09 176.638 330.454C176.134 330.818 175.387 331 174.398 331H170.59V323.524H174.244C175.159 323.524 175.873 323.692 176.386 324.028C176.899 324.364 177.156 324.84 177.156 325.456C177.156 325.839 177.053 326.17 176.848 326.45C176.652 326.73 176.372 326.949 176.008 327.108ZM172.256 326.646H174.09C174.995 326.646 175.448 326.333 175.448 325.708C175.448 325.101 174.995 324.798 174.09 324.798H172.256V326.646ZM174.258 329.726C175.219 329.726 175.7 329.413 175.7 328.788C175.7 328.461 175.588 328.219 175.364 328.06C175.14 327.892 174.79 327.808 174.314 327.808H172.256V329.726H174.258ZM182.044 323.44C183.145 323.44 183.985 323.706 184.564 324.238C185.152 324.761 185.446 325.554 185.446 326.618V331H183.794V330.09C183.579 330.417 183.271 330.669 182.87 330.846C182.478 331.014 182.002 331.098 181.442 331.098C180.882 331.098 180.392 331.005 179.972 330.818C179.552 330.622 179.225 330.356 178.992 330.02C178.768 329.675 178.656 329.287 178.656 328.858C178.656 328.186 178.903 327.649 179.398 327.248C179.902 326.837 180.691 326.632 181.764 326.632H183.696V326.52C183.696 325.997 183.537 325.596 183.22 325.316C182.912 325.036 182.45 324.896 181.834 324.896C181.414 324.896 180.999 324.961 180.588 325.092C180.187 325.223 179.846 325.405 179.566 325.638L178.88 324.364C179.272 324.065 179.743 323.837 180.294 323.678C180.845 323.519 181.428 323.44 182.044 323.44ZM181.806 329.824C182.245 329.824 182.632 329.726 182.968 329.53C183.313 329.325 183.556 329.035 183.696 328.662V327.794H181.89C180.882 327.794 180.378 328.125 180.378 328.788C180.378 329.105 180.504 329.357 180.756 329.544C181.008 329.731 181.358 329.824 181.806 329.824ZM191.756 323.44C192.484 323.44 193.132 323.599 193.702 323.916C194.28 324.233 194.733 324.681 195.06 325.26C195.386 325.839 195.55 326.506 195.55 327.262C195.55 328.018 195.386 328.69 195.06 329.278C194.733 329.857 194.28 330.305 193.702 330.622C193.132 330.939 192.484 331.098 191.756 331.098C190.748 331.098 189.95 330.762 189.362 330.09V333.716H187.612V323.524H189.278V324.504C189.567 324.149 189.922 323.883 190.342 323.706C190.771 323.529 191.242 323.44 191.756 323.44ZM191.56 329.6C192.204 329.6 192.731 329.385 193.142 328.956C193.562 328.527 193.772 327.962 193.772 327.262C193.772 326.562 193.562 325.997 193.142 325.568C192.731 325.139 192.204 324.924 191.56 324.924C191.14 324.924 190.762 325.022 190.426 325.218C190.09 325.405 189.824 325.675 189.628 326.03C189.432 326.385 189.334 326.795 189.334 327.262C189.334 327.729 189.432 328.139 189.628 328.494C189.824 328.849 190.09 329.124 190.426 329.32C190.762 329.507 191.14 329.6 191.56 329.6Z" fill="#0E0E0E"/>
<g filter="url(#filter2_d)">
<circle cx="71" cy="179.5" r="36.5" transform="rotate(90 71 179.5)" fill="white"/>
<circle cx="71" cy="179.5" r="35" transform="rotate(90 71 179.5)" stroke="#79A000" stroke-width="3"/>
</g>
<path d="M81.0807 187.512V192H63.0947V188.43L72.2747 179.76C73.2493 178.831 73.9067 178.037 74.2467 177.38C74.5867 176.7 74.7567 176.031 74.7567 175.374C74.7567 174.422 74.428 173.697 73.7707 173.198C73.136 172.677 72.1953 172.416 70.9487 172.416C69.906 172.416 68.9653 172.62 68.1267 173.028C67.288 173.413 66.5853 174.003 66.0187 174.796L62.0067 172.212C62.936 170.829 64.2167 169.753 65.8487 168.982C67.4807 168.189 69.3507 167.792 71.4587 167.792C73.2267 167.792 74.768 168.087 76.0827 168.676C77.42 169.243 78.4513 170.059 79.1767 171.124C79.9247 172.167 80.2987 173.402 80.2987 174.83C80.2987 176.122 80.0267 177.335 79.4827 178.468C78.9387 179.601 77.8847 180.893 76.3207 182.344L70.8467 187.512H81.0807Z" fill="#417400"/>
<path d="M163.552 156.2V166H161.76V157.74H156.678V166H154.886V156.2H163.552ZM170.263 158.44C170.991 158.44 171.64 158.599 172.209 158.916C172.788 159.233 173.241 159.681 173.567 160.26C173.894 160.839 174.057 161.506 174.057 162.262C174.057 163.018 173.894 163.69 173.567 164.278C173.241 164.857 172.788 165.305 172.209 165.622C171.64 165.939 170.991 166.098 170.263 166.098C169.255 166.098 168.457 165.762 167.869 165.09V168.716H166.119V158.524H167.785V159.504C168.075 159.149 168.429 158.883 168.849 158.706C169.279 158.529 169.75 158.44 170.263 158.44ZM170.067 164.6C170.711 164.6 171.239 164.385 171.649 163.956C172.069 163.527 172.279 162.962 172.279 162.262C172.279 161.562 172.069 160.997 171.649 160.568C171.239 160.139 170.711 159.924 170.067 159.924C169.647 159.924 169.269 160.022 168.933 160.218C168.597 160.405 168.331 160.675 168.135 161.03C167.939 161.385 167.841 161.795 167.841 162.262C167.841 162.729 167.939 163.139 168.135 163.494C168.331 163.849 168.597 164.124 168.933 164.32C169.269 164.507 169.647 164.6 170.067 164.6ZM179.131 166.098C178.375 166.098 177.694 165.935 177.087 165.608C176.48 165.281 176.004 164.829 175.659 164.25C175.323 163.662 175.155 162.999 175.155 162.262C175.155 161.525 175.323 160.867 175.659 160.288C176.004 159.709 176.48 159.257 177.087 158.93C177.694 158.603 178.375 158.44 179.131 158.44C179.896 158.44 180.582 158.603 181.189 158.93C181.796 159.257 182.267 159.709 182.603 160.288C182.948 160.867 183.121 161.525 183.121 162.262C183.121 162.999 182.948 163.662 182.603 164.25C182.267 164.829 181.796 165.281 181.189 165.608C180.582 165.935 179.896 166.098 179.131 166.098ZM179.131 164.6C179.775 164.6 180.307 164.385 180.727 163.956C181.147 163.527 181.357 162.962 181.357 162.262C181.357 161.562 181.147 160.997 180.727 160.568C180.307 160.139 179.775 159.924 179.131 159.924C178.487 159.924 177.955 160.139 177.535 160.568C177.124 160.997 176.919 161.562 176.919 162.262C176.919 162.962 177.124 163.527 177.535 163.956C177.955 164.385 178.487 164.6 179.131 164.6ZM192.748 164.516V167.666H191.11V166H185.342V167.666H183.718V164.516H184.068C184.544 164.497 184.866 164.194 185.034 163.606C185.211 163.009 185.328 162.169 185.384 161.086L185.482 158.524H191.642V164.516H192.748ZM186.98 161.212C186.942 162.071 186.872 162.771 186.77 163.312C186.667 163.853 186.48 164.255 186.21 164.516H189.892V160.008H187.022L186.98 161.212ZM197.097 158.44C198.198 158.44 199.038 158.706 199.617 159.238C200.205 159.761 200.499 160.554 200.499 161.618V166H198.847V165.09C198.632 165.417 198.324 165.669 197.923 165.846C197.531 166.014 197.055 166.098 196.495 166.098C195.935 166.098 195.445 166.005 195.025 165.818C194.605 165.622 194.278 165.356 194.045 165.02C193.821 164.675 193.709 164.287 193.709 163.858C193.709 163.186 193.956 162.649 194.451 162.248C194.955 161.837 195.743 161.632 196.817 161.632H198.749V161.52C198.749 160.997 198.59 160.596 198.273 160.316C197.965 160.036 197.503 159.896 196.887 159.896C196.467 159.896 196.051 159.961 195.641 160.092C195.239 160.223 194.899 160.405 194.619 160.638L193.933 159.364C194.325 159.065 194.796 158.837 195.347 158.678C195.897 158.519 196.481 158.44 197.097 158.44ZM196.859 164.824C197.297 164.824 197.685 164.726 198.021 164.53C198.366 164.325 198.609 164.035 198.749 163.662V162.794H196.943C195.935 162.794 195.431 163.125 195.431 163.788C195.431 164.105 195.557 164.357 195.809 164.544C196.061 164.731 196.411 164.824 196.859 164.824ZM208.082 162.108C209.006 162.388 209.468 162.985 209.468 163.9C209.468 164.572 209.216 165.09 208.712 165.454C208.208 165.818 207.462 166 206.472 166H202.664V158.524H206.318C207.233 158.524 207.947 158.692 208.46 159.028C208.974 159.364 209.23 159.84 209.23 160.456C209.23 160.839 209.128 161.17 208.922 161.45C208.726 161.73 208.446 161.949 208.082 162.108ZM204.33 161.646H206.164C207.07 161.646 207.522 161.333 207.522 160.708C207.522 160.101 207.07 159.798 206.164 159.798H204.33V161.646ZM206.332 164.726C207.294 164.726 207.774 164.413 207.774 163.788C207.774 163.461 207.662 163.219 207.438 163.06C207.214 162.892 206.864 162.808 206.388 162.808H204.33V164.726H206.332ZM218.332 162.304C218.332 162.425 218.323 162.598 218.304 162.822H212.438C212.541 163.373 212.807 163.811 213.236 164.138C213.675 164.455 214.216 164.614 214.86 164.614C215.682 164.614 216.358 164.343 216.89 163.802L217.828 164.88C217.492 165.281 217.068 165.585 216.554 165.79C216.041 165.995 215.462 166.098 214.818 166.098C213.997 166.098 213.274 165.935 212.648 165.608C212.023 165.281 211.538 164.829 211.192 164.25C210.856 163.662 210.688 162.999 210.688 162.262C210.688 161.534 210.852 160.881 211.178 160.302C211.514 159.714 211.976 159.257 212.564 158.93C213.152 158.603 213.815 158.44 214.552 158.44C215.28 158.44 215.929 158.603 216.498 158.93C217.077 159.247 217.525 159.7 217.842 160.288C218.169 160.867 218.332 161.539 218.332 162.304ZM214.552 159.84C213.992 159.84 213.516 160.008 213.124 160.344C212.742 160.671 212.508 161.109 212.424 161.66H216.666C216.592 161.119 216.363 160.68 215.98 160.344C215.598 160.008 215.122 159.84 214.552 159.84ZM228.45 164.516V167.722H226.812V166H220.246V158.524H221.996V164.516H225.566V158.524H227.316V164.516H228.45ZM158.008 185.098C157.252 185.098 156.571 184.935 155.964 184.608C155.357 184.281 154.881 183.829 154.536 183.25C154.2 182.662 154.032 181.999 154.032 181.262C154.032 180.525 154.2 179.867 154.536 179.288C154.881 178.709 155.357 178.257 155.964 177.93C156.571 177.603 157.252 177.44 158.008 177.44C158.773 177.44 159.459 177.603 160.066 177.93C160.673 178.257 161.144 178.709 161.48 179.288C161.825 179.867 161.998 180.525 161.998 181.262C161.998 181.999 161.825 182.662 161.48 183.25C161.144 183.829 160.673 184.281 160.066 184.608C159.459 184.935 158.773 185.098 158.008 185.098ZM158.008 183.6C158.652 183.6 159.184 183.385 159.604 182.956C160.024 182.527 160.234 181.962 160.234 181.262C160.234 180.562 160.024 179.997 159.604 179.568C159.184 179.139 158.652 178.924 158.008 178.924C157.364 178.924 156.832 179.139 156.412 179.568C156.001 179.997 155.796 180.562 155.796 181.262C155.796 181.962 156.001 182.527 156.412 182.956C156.832 183.385 157.364 183.6 158.008 183.6ZM167.773 177.888C168.482 177.888 169.107 178.042 169.649 178.35C170.19 178.649 170.61 179.069 170.909 179.61C171.217 180.151 171.371 180.772 171.371 181.472C171.371 182.191 171.203 182.83 170.867 183.39C170.531 183.941 170.059 184.37 169.453 184.678C168.846 184.986 168.155 185.14 167.381 185.14C166.083 185.14 165.08 184.711 164.371 183.852C163.661 182.993 163.307 181.757 163.307 180.142C163.307 178.639 163.629 177.449 164.273 176.572C164.917 175.695 165.901 175.116 167.227 174.836L170.699 174.094L170.951 175.662L167.801 176.306C166.895 176.493 166.219 176.81 165.771 177.258C165.323 177.706 165.061 178.336 164.987 179.148C165.323 178.747 165.729 178.439 166.205 178.224C166.681 178 167.203 177.888 167.773 177.888ZM167.423 183.726C168.067 183.726 168.585 183.521 168.977 183.11C169.378 182.69 169.579 182.158 169.579 181.514C169.579 180.87 169.378 180.352 168.977 179.96C168.585 179.568 168.067 179.372 167.423 179.372C166.769 179.372 166.242 179.568 165.841 179.96C165.439 180.352 165.239 180.87 165.239 181.514C165.239 182.167 165.439 182.699 165.841 183.11C166.251 183.521 166.779 183.726 167.423 183.726ZM177.209 177.44C177.937 177.44 178.585 177.599 179.155 177.916C179.733 178.233 180.186 178.681 180.513 179.26C180.839 179.839 181.003 180.506 181.003 181.262C181.003 182.018 180.839 182.69 180.513 183.278C180.186 183.857 179.733 184.305 179.155 184.622C178.585 184.939 177.937 185.098 177.209 185.098C176.201 185.098 175.403 184.762 174.815 184.09V187.716H173.065V177.524H174.731V178.504C175.02 178.149 175.375 177.883 175.795 177.706C176.224 177.529 176.695 177.44 177.209 177.44ZM177.013 183.6C177.657 183.6 178.184 183.385 178.595 182.956C179.015 182.527 179.225 181.962 179.225 181.262C179.225 180.562 179.015 179.997 178.595 179.568C178.184 179.139 177.657 178.924 177.013 178.924C176.593 178.924 176.215 179.022 175.879 179.218C175.543 179.405 175.277 179.675 175.081 180.03C174.885 180.385 174.787 180.795 174.787 181.262C174.787 181.729 174.885 182.139 175.081 182.494C175.277 182.849 175.543 183.124 175.879 183.32C176.215 183.507 176.593 183.6 177.013 183.6ZM185.435 177.44C186.536 177.44 187.376 177.706 187.955 178.238C188.543 178.761 188.837 179.554 188.837 180.618V185H187.185V184.09C186.97 184.417 186.662 184.669 186.261 184.846C185.869 185.014 185.393 185.098 184.833 185.098C184.273 185.098 183.783 185.005 183.363 184.818C182.943 184.622 182.616 184.356 182.383 184.02C182.159 183.675 182.047 183.287 182.047 182.858C182.047 182.186 182.294 181.649 182.789 181.248C183.293 180.837 184.081 180.632 185.155 180.632H187.087V180.52C187.087 179.997 186.928 179.596 186.611 179.316C186.303 179.036 185.841 178.896 185.225 178.896C184.805 178.896 184.389 178.961 183.979 179.092C183.577 179.223 183.237 179.405 182.957 179.638L182.271 178.364C182.663 178.065 183.134 177.837 183.685 177.678C184.235 177.519 184.819 177.44 185.435 177.44ZM185.197 183.824C185.635 183.824 186.023 183.726 186.359 183.53C186.704 183.325 186.947 183.035 187.087 182.662V181.794H185.281C184.273 181.794 183.769 182.125 183.769 182.788C183.769 183.105 183.895 183.357 184.147 183.544C184.399 183.731 184.749 183.824 185.197 183.824ZM195.048 177.888C195.758 177.888 196.383 178.042 196.924 178.35C197.466 178.649 197.886 179.069 198.184 179.61C198.492 180.151 198.646 180.772 198.646 181.472C198.646 182.191 198.478 182.83 198.142 183.39C197.806 183.941 197.335 184.37 196.728 184.678C196.122 184.986 195.431 185.14 194.656 185.14C193.359 185.14 192.356 184.711 191.646 183.852C190.937 182.993 190.582 181.757 190.582 180.142C190.582 178.639 190.904 177.449 191.548 176.572C192.192 175.695 193.177 175.116 194.502 174.836L197.974 174.094L198.226 175.662L195.076 176.306C194.171 176.493 193.494 176.81 193.046 177.258C192.598 177.706 192.337 178.336 192.262 179.148C192.598 178.747 193.004 178.439 193.48 178.224C193.956 178 194.479 177.888 195.048 177.888ZM194.698 183.726C195.342 183.726 195.86 183.521 196.252 183.11C196.654 182.69 196.854 182.158 196.854 181.514C196.854 180.87 196.654 180.352 196.252 179.96C195.86 179.568 195.342 179.372 194.698 179.372C194.045 179.372 193.518 179.568 193.116 179.96C192.715 180.352 192.514 180.87 192.514 181.514C192.514 182.167 192.715 182.699 193.116 183.11C193.527 183.521 194.054 183.726 194.698 183.726ZM203.03 177.44C204.132 177.44 204.972 177.706 205.55 178.238C206.138 178.761 206.432 179.554 206.432 180.618V185H204.78V184.09C204.566 184.417 204.258 184.669 203.856 184.846C203.464 185.014 202.988 185.098 202.428 185.098C201.868 185.098 201.378 185.005 200.958 184.818C200.538 184.622 200.212 184.356 199.978 184.02C199.754 183.675 199.642 183.287 199.642 182.858C199.642 182.186 199.89 181.649 200.384 181.248C200.888 180.837 201.677 180.632 202.75 180.632H204.682V180.52C204.682 179.997 204.524 179.596 204.206 179.316C203.898 179.036 203.436 178.896 202.82 178.896C202.4 178.896 201.985 178.961 201.574 179.092C201.173 179.223 200.832 179.405 200.552 179.638L199.866 178.364C200.258 178.065 200.73 177.837 201.28 177.678C201.831 177.519 202.414 177.44 203.03 177.44ZM202.792 183.824C203.231 183.824 203.618 183.726 203.954 183.53C204.3 183.325 204.542 183.035 204.682 182.662V181.794H202.876C201.868 181.794 201.364 182.125 201.364 182.788C201.364 183.105 201.49 183.357 201.742 183.544C201.994 183.731 202.344 183.824 202.792 183.824ZM214.52 179.008H211.902V185H210.152V179.008H207.52V177.524H214.52V179.008ZM219.429 179.988C220.381 179.988 221.109 180.203 221.613 180.632C222.117 181.061 222.369 181.668 222.369 182.452C222.369 183.273 222.089 183.908 221.529 184.356C220.979 184.804 220.195 185.023 219.177 185.014L215.789 185V177.524H217.539V179.974L219.429 179.988ZM223.335 177.524H225.085V185H223.335V177.524ZM219.023 183.726C219.537 183.735 219.929 183.628 220.199 183.404C220.47 183.18 220.605 182.853 220.605 182.424C220.605 182.004 220.475 181.696 220.213 181.5C219.952 181.304 219.555 181.201 219.023 181.192L217.539 181.178V183.712L219.023 183.726ZM232.856 181.108C233.78 181.388 234.242 181.985 234.242 182.9C234.242 183.572 233.99 184.09 233.486 184.454C232.982 184.818 232.235 185 231.246 185H227.438V177.524H231.092C232.006 177.524 232.72 177.692 233.234 178.028C233.747 178.364 234.004 178.84 234.004 179.456C234.004 179.839 233.901 180.17 233.696 180.45C233.5 180.73 233.22 180.949 232.856 181.108ZM229.104 180.646H230.938C231.843 180.646 232.296 180.333 232.296 179.708C232.296 179.101 231.843 178.798 230.938 178.798H229.104V180.646ZM231.106 183.726C232.067 183.726 232.548 183.413 232.548 182.788C232.548 182.461 232.436 182.219 232.212 182.06C231.988 181.892 231.638 181.808 231.162 181.808H229.104V183.726H231.106ZM238.892 177.44C239.993 177.44 240.833 177.706 241.412 178.238C242 178.761 242.294 179.554 242.294 180.618V185H240.642V184.09C240.427 184.417 240.119 184.669 239.718 184.846C239.326 185.014 238.85 185.098 238.29 185.098C237.73 185.098 237.24 185.005 236.82 184.818C236.4 184.622 236.073 184.356 235.84 184.02C235.616 183.675 235.504 183.287 235.504 182.858C235.504 182.186 235.751 181.649 236.246 181.248C236.75 180.837 237.538 180.632 238.612 180.632H240.544V180.52C240.544 179.997 240.385 179.596 240.068 179.316C239.76 179.036 239.298 178.896 238.682 178.896C238.262 178.896 237.846 178.961 237.436 179.092C237.034 179.223 236.694 179.405 236.414 179.638L235.728 178.364C236.12 178.065 236.591 177.837 237.142 177.678C237.692 177.519 238.276 177.44 238.892 177.44ZM238.654 183.824C239.092 183.824 239.48 183.726 239.816 183.53C240.161 183.325 240.404 183.035 240.544 182.662V181.794H238.738C237.73 181.794 237.226 182.125 237.226 182.788C237.226 183.105 237.352 183.357 237.604 183.544C237.856 183.731 238.206 183.824 238.654 183.824ZM251.459 181.304C251.459 181.425 251.45 181.598 251.431 181.822H245.565C245.668 182.373 245.934 182.811 246.363 183.138C246.802 183.455 247.343 183.614 247.987 183.614C248.809 183.614 249.485 183.343 250.017 182.802L250.955 183.88C250.619 184.281 250.195 184.585 249.681 184.79C249.168 184.995 248.589 185.098 247.945 185.098C247.124 185.098 246.401 184.935 245.775 184.608C245.15 184.281 244.665 183.829 244.319 183.25C243.983 182.662 243.815 181.999 243.815 181.262C243.815 180.534 243.979 179.881 244.305 179.302C244.641 178.714 245.103 178.257 245.691 177.93C246.279 177.603 246.942 177.44 247.679 177.44C248.407 177.44 249.056 177.603 249.625 177.93C250.204 178.247 250.652 178.7 250.969 179.288C251.296 179.867 251.459 180.539 251.459 181.304ZM247.679 178.84C247.119 178.84 246.643 179.008 246.251 179.344C245.869 179.671 245.635 180.109 245.551 180.66H249.793C249.719 180.119 249.49 179.68 249.107 179.344C248.725 179.008 248.249 178.84 247.679 178.84ZM259.022 179.008H256.404V185H254.654V179.008H252.022V177.524H259.022V179.008ZM159.142 200.108C159.609 200.239 159.968 200.453 160.22 200.752C160.481 201.041 160.612 201.391 160.612 201.802C160.612 202.259 160.458 202.665 160.15 203.02C159.842 203.365 159.417 203.636 158.876 203.832C158.335 204.028 157.719 204.126 157.028 204.126C156.449 204.126 155.885 204.061 155.334 203.93C154.783 203.79 154.284 203.594 153.836 203.342L154.34 202.04C154.704 202.245 155.115 202.404 155.572 202.516C156.029 202.628 156.487 202.684 156.944 202.684C157.532 202.684 157.989 202.595 158.316 202.418C158.652 202.231 158.82 201.979 158.82 201.662C158.82 201.373 158.689 201.149 158.428 200.99C158.176 200.831 157.817 200.752 157.35 200.752H155.894V199.576H157.21C157.649 199.576 157.989 199.501 158.232 199.352C158.484 199.203 158.61 198.993 158.61 198.722C158.61 198.451 158.461 198.237 158.162 198.078C157.863 197.919 157.453 197.84 156.93 197.84C156.183 197.84 155.395 198.022 154.564 198.386L154.116 197.098C155.096 196.641 156.085 196.412 157.084 196.412C157.719 196.412 158.288 196.501 158.792 196.678C159.296 196.846 159.688 197.089 159.968 197.406C160.257 197.714 160.402 198.069 160.402 198.47C160.402 198.834 160.29 199.161 160.066 199.45C159.842 199.73 159.534 199.949 159.142 200.108ZM165.214 196.44C166.315 196.44 167.155 196.706 167.734 197.238C168.322 197.761 168.616 198.554 168.616 199.618V204H166.964V203.09C166.749 203.417 166.441 203.669 166.04 203.846C165.648 204.014 165.172 204.098 164.612 204.098C164.052 204.098 163.562 204.005 163.142 203.818C162.722 203.622 162.395 203.356 162.162 203.02C161.938 202.675 161.826 202.287 161.826 201.858C161.826 201.186 162.073 200.649 162.568 200.248C163.072 199.837 163.861 199.632 164.934 199.632H166.866V199.52C166.866 198.997 166.707 198.596 166.39 198.316C166.082 198.036 165.62 197.896 165.004 197.896C164.584 197.896 164.169 197.961 163.758 198.092C163.357 198.223 163.016 198.405 162.736 198.638L162.05 197.364C162.442 197.065 162.913 196.837 163.464 196.678C164.015 196.519 164.598 196.44 165.214 196.44ZM164.976 202.824C165.415 202.824 165.802 202.726 166.138 202.53C166.483 202.325 166.726 202.035 166.866 201.662V200.794H165.06C164.052 200.794 163.548 201.125 163.548 201.788C163.548 202.105 163.674 202.357 163.926 202.544C164.178 202.731 164.528 202.824 164.976 202.824ZM173.889 201.004H172.531V204H170.781V196.524H172.531V199.548H173.931L176.143 196.524H178.019L175.303 200.122L178.201 204H176.143L173.889 201.004ZM182.085 196.44C183.186 196.44 184.026 196.706 184.605 197.238C185.193 197.761 185.487 198.554 185.487 199.618V204H183.835V203.09C183.62 203.417 183.312 203.669 182.911 203.846C182.519 204.014 182.043 204.098 181.483 204.098C180.923 204.098 180.433 204.005 180.013 203.818C179.593 203.622 179.266 203.356 179.033 203.02C178.809 202.675 178.697 202.287 178.697 201.858C178.697 201.186 178.944 200.649 179.439 200.248C179.943 199.837 180.732 199.632 181.805 199.632H183.737V199.52C183.737 198.997 183.578 198.596 183.261 198.316C182.953 198.036 182.491 197.896 181.875 197.896C181.455 197.896 181.04 197.961 180.629 198.092C180.228 198.223 179.887 198.405 179.607 198.638L178.921 197.364C179.313 197.065 179.784 196.837 180.335 196.678C180.886 196.519 181.469 196.44 182.085 196.44ZM181.847 202.824C182.286 202.824 182.673 202.726 183.009 202.53C183.354 202.325 183.597 202.035 183.737 201.662V200.794H181.931C180.923 200.794 180.419 201.125 180.419 201.788C180.419 202.105 180.545 202.357 180.797 202.544C181.049 202.731 181.399 202.824 181.847 202.824ZM192.023 200.108C192.49 200.239 192.849 200.453 193.101 200.752C193.362 201.041 193.493 201.391 193.493 201.802C193.493 202.259 193.339 202.665 193.031 203.02C192.723 203.365 192.298 203.636 191.757 203.832C191.216 204.028 190.6 204.126 189.909 204.126C189.33 204.126 188.766 204.061 188.215 203.93C187.664 203.79 187.165 203.594 186.717 203.342L187.221 202.04C187.585 202.245 187.996 202.404 188.453 202.516C188.91 202.628 189.368 202.684 189.825 202.684C190.413 202.684 190.87 202.595 191.197 202.418C191.533 202.231 191.701 201.979 191.701 201.662C191.701 201.373 191.57 201.149 191.309 200.99C191.057 200.831 190.698 200.752 190.231 200.752H188.775V199.576H190.091C190.53 199.576 190.87 199.501 191.113 199.352C191.365 199.203 191.491 198.993 191.491 198.722C191.491 198.451 191.342 198.237 191.043 198.078C190.744 197.919 190.334 197.84 189.811 197.84C189.064 197.84 188.276 198.022 187.445 198.386L186.997 197.098C187.977 196.641 188.966 196.412 189.965 196.412C190.6 196.412 191.169 196.501 191.673 196.678C192.177 196.846 192.569 197.089 192.849 197.406C193.138 197.714 193.283 198.069 193.283 198.47C193.283 198.834 193.171 199.161 192.947 199.45C192.723 199.73 192.415 199.949 192.023 200.108Z" fill="#0E0E0E"/>
<g filter="url(#filter3_d)">
<circle cx="71" cy="52.7666" r="36.5" transform="rotate(90 71 52.7666)" fill="white"/>
<circle cx="71" cy="52.7666" r="35" transform="rotate(90 71 52.7666)" stroke="#79A000" stroke-width="3"/>
</g>
<path d="M75.3488 41.4666V65.2666H69.8408V45.8866H65.0808V41.4666H75.3488Z" fill="#417400"/>
<path d="M158.484 43.87H156.664V48H154.872V38.2H156.664V42.302H158.54L161.354 38.2H163.286L159.94 42.946L163.412 48H161.354L158.484 43.87ZM171.419 40.524V48H169.669V42.008H166.869L166.799 43.492C166.752 44.4813 166.659 45.312 166.519 45.984C166.388 46.6467 166.159 47.174 165.833 47.566C165.515 47.9487 165.077 48.14 164.517 48.14C164.255 48.14 163.933 48.0887 163.551 47.986L163.635 46.516C163.765 46.544 163.877 46.558 163.971 46.558C164.325 46.558 164.591 46.418 164.769 46.138C164.946 45.8487 165.058 45.508 165.105 45.116C165.161 44.7147 165.207 44.1453 165.245 43.408L165.371 40.524H171.419ZM173.776 40.524H175.526V45.452L179.656 40.524H181.252V48H179.502V43.072L175.386 48H173.776V40.524ZM190.606 44.304C190.606 44.4253 190.596 44.598 190.578 44.822H184.712C184.814 45.3727 185.08 45.8113 185.51 46.138C185.948 46.4553 186.49 46.614 187.134 46.614C187.955 46.614 188.632 46.3433 189.164 45.802L190.102 46.88C189.766 47.2813 189.341 47.5847 188.828 47.79C188.314 47.9953 187.736 48.098 187.092 48.098C186.27 48.098 185.547 47.9347 184.922 47.608C184.296 47.2813 183.811 46.8287 183.466 46.25C183.13 45.662 182.962 44.9993 182.962 44.262C182.962 43.534 183.125 42.8807 183.452 42.302C183.788 41.714 184.25 41.2567 184.838 40.93C185.426 40.6033 186.088 40.44 186.826 40.44C187.554 40.44 188.202 40.6033 188.772 40.93C189.35 41.2473 189.798 41.7 190.116 42.288C190.442 42.8667 190.606 43.5387 190.606 44.304ZM186.826 41.84C186.266 41.84 185.79 42.008 185.398 42.344C185.015 42.6707 184.782 43.1093 184.698 43.66H188.94C188.865 43.1187 188.636 42.68 188.254 42.344C187.871 42.008 187.395 41.84 186.826 41.84ZM192.52 40.524H194.27V43.562H198.036V40.524H199.786V48H198.036V45.046H194.27V48H192.52V40.524ZM208.053 42.008H205.435V48H203.685V42.008H201.053V40.524H208.053V42.008ZM162.656 65.516V68.666H161.018V67H155.25V68.666H153.626V65.516H153.976C154.452 65.4973 154.774 65.194 154.942 64.606C155.119 64.0087 155.236 63.1687 155.292 62.086L155.39 59.524H161.55V65.516H162.656ZM156.888 62.212C156.851 63.0707 156.781 63.7707 156.678 64.312C156.575 64.8533 156.389 65.2547 156.118 65.516H159.8V61.008H156.93L156.888 62.212ZM171.219 63.304C171.219 63.4253 171.21 63.598 171.191 63.822H165.325C165.428 64.3727 165.694 64.8113 166.123 65.138C166.562 65.4553 167.103 65.614 167.747 65.614C168.568 65.614 169.245 65.3433 169.777 64.802L170.715 65.88C170.379 66.2813 169.954 66.5847 169.441 66.79C168.928 66.9953 168.349 67.098 167.705 67.098C166.884 67.098 166.16 66.9347 165.535 66.608C164.91 66.2813 164.424 65.8287 164.079 65.25C163.743 64.662 163.575 63.9993 163.575 63.262C163.575 62.534 163.738 61.8807 164.065 61.302C164.401 60.714 164.863 60.2567 165.451 59.93C166.039 59.6033 166.702 59.44 167.439 59.44C168.167 59.44 168.816 59.6033 169.385 59.93C169.964 60.2473 170.412 60.7 170.729 61.288C171.056 61.8667 171.219 62.5387 171.219 63.304ZM167.439 60.84C166.879 60.84 166.403 61.008 166.011 61.344C165.628 61.6707 165.395 62.1093 165.311 62.66H169.553C169.478 62.1187 169.25 61.68 168.867 61.344C168.484 61.008 168.008 60.84 167.439 60.84ZM179.813 59.524V67H178.063V61.008H175.263L175.193 62.492C175.147 63.4813 175.053 64.312 174.913 64.984C174.783 65.6467 174.554 66.174 174.227 66.566C173.91 66.9487 173.471 67.14 172.911 67.14C172.65 67.14 172.328 67.0887 171.945 66.986L172.029 65.516C172.16 65.544 172.272 65.558 172.365 65.558C172.72 65.558 172.986 65.418 173.163 65.138C173.341 64.8487 173.453 64.508 173.499 64.116C173.555 63.7147 173.602 63.1453 173.639 62.408L173.765 59.524H179.813ZM184.956 59.44C186.057 59.44 186.897 59.706 187.476 60.238C188.064 60.7607 188.358 61.554 188.358 62.618V67H186.706V66.09C186.491 66.4167 186.183 66.6687 185.782 66.846C185.39 67.014 184.914 67.098 184.354 67.098C183.794 67.098 183.304 67.0047 182.884 66.818C182.464 66.622 182.137 66.356 181.904 66.02C181.68 65.6747 181.568 65.2873 181.568 64.858C181.568 64.186 181.815 63.6493 182.31 63.248C182.814 62.8373 183.603 62.632 184.676 62.632H186.608V62.52C186.608 61.9973 186.449 61.596 186.132 61.316C185.824 61.036 185.362 60.896 184.746 60.896C184.326 60.896 183.911 60.9613 183.5 61.092C183.099 61.2227 182.758 61.4047 182.478 61.638L181.792 60.364C182.184 60.0653 182.655 59.8367 183.206 59.678C183.757 59.5193 184.34 59.44 184.956 59.44ZM184.718 65.824C185.157 65.824 185.544 65.726 185.88 65.53C186.225 65.3247 186.468 65.0353 186.608 64.662V63.794H184.802C183.794 63.794 183.29 64.1253 183.29 64.788C183.29 65.1053 183.416 65.3573 183.668 65.544C183.92 65.7307 184.27 65.824 184.718 65.824ZM197.524 63.304C197.524 63.4253 197.514 63.598 197.496 63.822H191.63C191.732 64.3727 191.998 64.8113 192.428 65.138C192.866 65.4553 193.408 65.614 194.052 65.614C194.873 65.614 195.55 65.3433 196.082 64.802L197.02 65.88C196.684 66.2813 196.259 66.5847 195.746 66.79C195.232 66.9953 194.654 67.098 194.01 67.098C193.188 67.098 192.465 66.9347 191.84 66.608C191.214 66.2813 190.729 65.8287 190.384 65.25C190.048 64.662 189.88 63.9993 189.88 63.262C189.88 62.534 190.043 61.8807 190.37 61.302C190.706 60.714 191.168 60.2567 191.756 59.93C192.344 59.6033 193.006 59.44 193.744 59.44C194.472 59.44 195.12 59.6033 195.69 59.93C196.268 60.2473 196.716 60.7 197.034 61.288C197.36 61.8667 197.524 62.5387 197.524 63.304ZM193.744 60.84C193.184 60.84 192.708 61.008 192.316 61.344C191.933 61.6707 191.7 62.1093 191.616 62.66H195.858C195.783 62.1187 195.554 61.68 195.172 61.344C194.789 61.008 194.313 60.84 193.744 60.84ZM205.086 61.008H202.468V67H200.718V61.008H198.086V59.524H205.086V61.008ZM214.691 63.108C215.157 63.2387 215.517 63.4533 215.769 63.752C216.03 64.0413 216.161 64.3913 216.161 64.802C216.161 65.2593 216.007 65.6653 215.699 66.02C215.391 66.3653 214.966 66.636 214.425 66.832C213.883 67.028 213.267 67.126 212.577 67.126C211.998 67.126 211.433 67.0607 210.883 66.93C210.332 66.79 209.833 66.594 209.385 66.342L209.889 65.04C210.253 65.2453 210.663 65.404 211.121 65.516C211.578 65.628 212.035 65.684 212.493 65.684C213.081 65.684 213.538 65.5953 213.865 65.418C214.201 65.2313 214.369 64.9793 214.369 64.662C214.369 64.3727 214.238 64.1487 213.977 63.99C213.725 63.8313 213.365 63.752 212.899 63.752H211.443V62.576H212.759C213.197 62.576 213.538 62.5013 213.781 62.352C214.033 62.2027 214.159 61.9927 214.159 61.722C214.159 61.4513 214.009 61.2367 213.711 61.078C213.412 60.9193 213.001 60.84 212.479 60.84C211.732 60.84 210.943 61.022 210.113 61.386L209.665 60.098C210.645 59.6407 211.634 59.412 212.633 59.412C213.267 59.412 213.837 59.5007 214.341 59.678C214.845 59.846 215.237 60.0887 215.517 60.406C215.806 60.714 215.951 61.0687 215.951 61.47C215.951 61.834 215.839 62.1607 215.615 62.45C215.391 62.73 215.083 62.9493 214.691 63.108ZM220.763 59.44C221.864 59.44 222.704 59.706 223.283 60.238C223.871 60.7607 224.165 61.554 224.165 62.618V67H222.513V66.09C222.298 66.4167 221.99 66.6687 221.589 66.846C221.197 67.014 220.721 67.098 220.161 67.098C219.601 67.098 219.111 67.0047 218.691 66.818C218.271 66.622 217.944 66.356 217.711 66.02C217.487 65.6747 217.375 65.2873 217.375 64.858C217.375 64.186 217.622 63.6493 218.117 63.248C218.621 62.8373 219.409 62.632 220.483 62.632H222.415V62.52C222.415 61.9973 222.256 61.596 221.939 61.316C221.631 61.036 221.169 60.896 220.553 60.896C220.133 60.896 219.717 60.9613 219.307 61.092C218.905 61.2227 218.565 61.4047 218.285 61.638L217.599 60.364C217.991 60.0653 218.462 59.8367 219.013 59.678C219.563 59.5193 220.147 59.44 220.763 59.44ZM220.525 65.824C220.963 65.824 221.351 65.726 221.687 65.53C222.032 65.3247 222.275 65.0353 222.415 64.662V63.794H220.609C219.601 63.794 219.097 64.1253 219.097 64.788C219.097 65.1053 219.223 65.3573 219.475 65.544C219.727 65.7307 220.077 65.824 220.525 65.824ZM229.438 64.004H228.08V67H226.33V59.524H228.08V62.548H229.48L231.692 59.524H233.568L230.852 63.122L233.75 67H231.692L229.438 64.004ZM237.634 59.44C238.735 59.44 239.575 59.706 240.154 60.238C240.742 60.7607 241.036 61.554 241.036 62.618V67H239.384V66.09C239.169 66.4167 238.861 66.6687 238.46 66.846C238.068 67.014 237.592 67.098 237.032 67.098C236.472 67.098 235.982 67.0047 235.562 66.818C235.142 66.622 234.815 66.356 234.582 66.02C234.358 65.6747 234.246 65.2873 234.246 64.858C234.246 64.186 234.493 63.6493 234.988 63.248C235.492 62.8373 236.281 62.632 237.354 62.632H239.286V62.52C239.286 61.9973 239.127 61.596 238.81 61.316C238.502 61.036 238.04 60.896 237.424 60.896C237.004 60.896 236.589 60.9613 236.178 61.092C235.777 61.2227 235.436 61.4047 235.156 61.638L234.47 60.364C234.862 60.0653 235.333 59.8367 235.884 59.678C236.435 59.5193 237.018 59.44 237.634 59.44ZM237.396 65.824C237.835 65.824 238.222 65.726 238.558 65.53C238.903 65.3247 239.146 65.0353 239.286 64.662V63.794H237.48C236.472 63.794 235.968 64.1253 235.968 64.788C235.968 65.1053 236.094 65.3573 236.346 65.544C236.598 65.7307 236.948 65.824 237.396 65.824ZM247.572 63.108C248.038 63.2387 248.398 63.4533 248.65 63.752C248.911 64.0413 249.042 64.3913 249.042 64.802C249.042 65.2593 248.888 65.6653 248.58 66.02C248.272 66.3653 247.847 66.636 247.306 66.832C246.764 67.028 246.148 67.126 245.458 67.126C244.879 67.126 244.314 67.0607 243.764 66.93C243.213 66.79 242.714 66.594 242.266 66.342L242.77 65.04C243.134 65.2453 243.544 65.404 244.002 65.516C244.459 65.628 244.916 65.684 245.374 65.684C245.962 65.684 246.419 65.5953 246.746 65.418C247.082 65.2313 247.25 64.9793 247.25 64.662C247.25 64.3727 247.119 64.1487 246.858 63.99C246.606 63.8313 246.246 63.752 245.78 63.752H244.324V62.576H245.64C246.078 62.576 246.419 62.5013 246.662 62.352C246.914 62.2027 247.04 61.9927 247.04 61.722C247.04 61.4513 246.89 61.2367 246.592 61.078C246.293 60.9193 245.882 60.84 245.36 60.84C244.613 60.84 243.824 61.022 242.994 61.386L242.546 60.098C243.526 59.6407 244.515 59.412 245.514 59.412C246.148 59.412 246.718 59.5007 247.222 59.678C247.726 59.846 248.118 60.0887 248.398 60.406C248.687 60.714 248.832 61.0687 248.832 61.47C248.832 61.834 248.72 62.1607 248.496 62.45C248.272 62.73 247.964 62.9493 247.572 63.108Z" fill="#0E0E0E"/>
<defs>
<filter id="filter0_d" x="14.5" y="381" width="113" height="113" filterUnits="userSpaceOnUse" color-interpolation-filters="sRGB">
<feFlood flood-opacity="0" result="BackgroundImageFix"/>
<feColorMatrix in="SourceAlpha" type="matrix" values="0 0 0 0 0 0 0 0 0 0 0 0 0 0 0 0 0 0 127 0"/>
<feOffset dy="4"/>
<feGaussianBlur stdDeviation="10"/>
<feColorMatrix type="matrix" values="0 0 0 0 0 0 0 0 0 0 0 0 0 0 0 0 0 0 0.16 0"/>
<feBlend mode="normal" in2="BackgroundImageFix" result="effect1_dropShadow"/>
<feBlend mode="normal" in="SourceGraphic" in2="effect1_dropShadow" result="shape"/>
</filter>
<filter id="filter1_d" x="14.5" y="254" width="113" height="113" filterUnits="userSpaceOnUse" color-interpolation-filters="sRGB">
<feFlood flood-opacity="0" result="BackgroundImageFix"/>
<feColorMatrix in="SourceAlpha" type="matrix" values="0 0 0 0 0 0 0 0 0 0 0 0 0 0 0 0 0 0 127 0"/>
<feOffset dy="4"/>
<feGaussianBlur stdDeviation="10"/>
<feColorMatrix type="matrix" values="0 0 0 0 0 0 0 0 0 0 0 0 0 0 0 0 0 0 0.16 0"/>
<feBlend mode="normal" in2="BackgroundImageFix" result="effect1_dropShadow"/>
<feBlend mode="normal" in="SourceGraphic" in2="effect1_dropShadow" result="shape"/>
</filter>
<filter id="filter2_d" x="14.5" y="127" width="113" height="113" filterUnits="userSpaceOnUse" color-interpolation-filters="sRGB">
<feFlood flood-opacity="0" result="BackgroundImageFix"/>
<feColorMatrix in="SourceAlpha" type="matrix" values="0 0 0 0 0 0 0 0 0 0 0 0 0 0 0 0 0 0 127 0"/>
<feOffset dy="4"/>
<feGaussianBlur stdDeviation="10"/>
<feColorMatrix type="matrix" values="0 0 0 0 0 0 0 0 0 0 0 0 0 0 0 0 0 0 0.16 0"/>
<feBlend mode="normal" in2="BackgroundImageFix" result="effect1_dropShadow"/>
<feBlend mode="normal" in="SourceGraphic" in2="effect1_dropShadow" result="shape"/>
</filter>
<filter id="filter3_d" x="14.5" y="0.266602" width="113" height="113" filterUnits="userSpaceOnUse" color-interpolation-filters="sRGB">
<feFlood flood-opacity="0" result="BackgroundImageFix"/>
<feColorMatrix in="SourceAlpha" type="matrix" values="0 0 0 0 0 0 0 0 0 0 0 0 0 0 0 0 0 0 127 0"/>
<feOffset dy="4"/>
<feGaussianBlur stdDeviation="10"/>
<feColorMatrix type="matrix" values="0 0 0 0 0 0 0 0 0 0 0 0 0 0 0 0 0 0 0.16 0"/>
<feBlend mode="normal" in2="BackgroundImageFix" result="effect1_dropShadow"/>
<feBlend mode="normal" in="SourceGraphic" in2="effect1_dropShadow" result="shape"/>
</filter>
</defs>
</svg>
