<svg width="293" height="160" viewBox="0 0 293 160" fill="none" xmlns="http://www.w3.org/2000/svg">
<g clip-path="url(#clip0)">
<path d="M231.685 99.9299C235.101 100.695 241.322 97.0786 244.005 95.1748C242.948 93.2683 236.841 94.9929 234.23 94.7792C232.141 94.6082 228.652 96.2102 227.17 97.0325L226.641 96.0793C226.171 93.926 226.466 87.8424 226.866 82.513C227.154 78.6692 227.497 75.2178 227.646 73.9166C227.848 72.1495 228.886 67.7663 229.926 63.6793C230.714 60.5838 231.503 57.6581 231.93 56.1679C232.722 53.4016 233.3 48.8987 233.489 46.9931C235.372 46.6416 240.005 46.4545 243.476 48.5182C246.761 50.4711 251.95 50.1773 254.502 49.7329C250.463 50.275 244.345 44.99 240.798 42.94C237.863 41.2438 236.259 40.7485 235.823 40.7129L235.896 38.5954C235.791 36.1465 238.588 31.3531 241.776 26.9277C244.929 22.5517 248.465 18.5354 249.958 17.5013C252.116 16.0056 254.313 11.4806 255.982 7.63959C256.634 6.1391 257.205 4.74298 257.662 3.67261C259.288 -0.137716 273.376 -9.19717 277.507 -11.488C281.638 -13.7789 288.06 -11.9389 293.318 -10.6997C298.575 -9.46051 299.494 -10.8009 302.03 -4.72875C303.845 -0.384853 301.558 5.38281 299.049 9.96715C298.051 11.7911 297.017 13.4277 296.192 14.7128C294.079 18.0066 289.839 26.238 286.699 32.1349C285.534 34.3216 284.521 36.1872 283.823 37.361C281.759 40.8322 277.615 48.1439 275.801 51.3659C276.05 49.5662 274.923 46.0361 274.218 44.7651C273.654 43.7483 272.995 44.0583 272.736 44.3405C274.012 48.5355 273.357 52.8418 272.088 56.7165C270.345 62.0363 267.444 66.5422 266.789 68.8287C266.358 70.3326 265.46 74.5896 264.491 79.4226C263.422 84.7497 262.264 90.7767 261.546 94.588C261.428 94.3762 261.081 93.5995 260.63 92.1875C260.067 90.4224 256.788 86.0085 256.329 86.6786C255.869 87.3488 259.041 93.0686 260.627 95.9284C261.262 97.073 260.779 99.202 259.977 101.355C258.776 104.581 256.858 107.861 256.913 107.96L254.093 102.876C252.331 99.6984 249.615 97.0495 249.509 98.3552C249.402 99.6609 252.082 101.498 256.205 110.43C260.327 119.362 249.029 125.212 249.313 124.224C249.539 123.434 248.985 121.636 248.68 120.836C248.444 121.659 247.845 123.376 247.337 123.658C246.701 124.01 245.395 123.904 245.537 123.41C245.678 122.916 247.022 120.093 247.305 119.105C247.531 118.315 246.906 117.387 246.565 117.023C245.541 118.422 242.835 121.085 240.21 120.547C238.593 120.215 236.902 117.204 235.488 113.849C234.031 110.392 232.869 106.572 232.387 104.942C231.626 102.372 231.602 100.53 231.685 99.9299Z" fill="#9BD7A2"/>
<path d="M246.565 117.023C245.541 118.422 242.835 121.085 240.21 120.547C238.593 120.215 236.902 117.204 235.488 113.849M246.565 117.023C246.906 117.387 247.531 118.315 247.305 119.105C247.022 120.093 245.678 122.916 245.537 123.41C245.395 123.904 246.701 124.01 247.337 123.658C247.845 123.376 248.444 121.659 248.68 120.836C248.985 121.636 249.539 123.434 249.313 124.224C249.029 125.212 260.327 119.362 256.205 110.43C252.082 101.498 249.402 99.6609 249.509 98.3552C249.615 97.0495 252.331 99.6984 254.093 102.876C255.855 106.054 257.004 108.126 256.913 107.96C256.858 107.861 258.776 104.581 259.977 101.355M246.565 117.023C246.297 114.819 245.889 110.791 245.759 107.437M293.318 -10.6997C298.575 -9.4605 299.494 -10.8009 302.03 -4.72875C303.845 -0.384852 301.558 5.38281 299.049 9.96715M293.318 -10.6997C288.06 -11.9389 281.638 -13.7789 277.507 -11.488C273.376 -9.19717 259.288 -0.137714 257.662 3.67261C257.205 4.74297 256.634 6.1391 255.982 7.6396M293.318 -10.6997C291.208 -8.46569 289.172 -6.0504 287.21 -3.48616M281.364 4.89995C277.164 3.99248 266.207 3.26996 255.982 7.6396M281.364 4.89995C279.231 8.24215 277.198 11.7447 275.265 15.3546M281.364 4.89995C283.235 1.96945 285.183 -0.837793 287.21 -3.48616M255.982 7.6396C254.313 11.4806 252.116 16.0056 249.958 17.5013C248.465 18.5354 244.929 22.5517 241.776 26.9277M275.265 15.3546C278.07 16.8882 284.283 22.3913 286.699 32.1349M275.265 15.3546C273.827 18.0389 272.445 20.7827 271.117 23.5641M286.699 32.1349C285.534 34.3216 284.521 36.1872 283.823 37.361C281.759 40.8322 277.615 48.1439 275.801 51.3659C276.05 49.5662 274.923 46.0362 274.218 44.7651C273.654 43.7483 272.995 44.0583 272.736 44.3405C274.012 48.5355 273.357 52.8418 272.088 56.7165M286.699 32.1349C289.839 26.238 294.079 18.0066 296.192 14.7128C297.017 13.4277 298.051 11.7911 299.049 9.96715M287.21 -3.48616C290.71 -1.8589 297.977 3.10993 299.049 9.96715M271.117 23.5641C264.696 21.8763 249.838 20.1861 241.776 26.9277M271.117 23.5641C267.419 31.3087 265.207 37.735 262.344 45.5948M241.776 26.9277C238.588 31.3531 235.791 36.1465 235.896 38.5954L235.823 40.7129C236.259 40.7485 237.863 41.2438 240.798 42.94C244.467 45.0603 250.886 50.6413 254.91 49.6562C252.545 50.1367 246.947 50.5819 243.476 48.5182C240.005 46.4545 235.372 46.6416 233.489 46.9931C233.3 48.8987 232.722 53.4016 231.93 56.1679C231.503 57.6581 230.714 60.5838 229.926 63.6793M262.344 45.5948C266.833 46.8812 269.87 51.6493 272.088 56.7165M262.344 45.5948C260.749 49.9708 258.219 55.9023 256.878 60.0876M272.088 56.7165C270.345 62.0363 267.444 66.5422 266.789 68.8287C266.358 70.3326 265.46 74.5896 264.491 79.4226M256.878 60.0876C251.483 58.6831 238.541 57.4351 229.926 63.6793M256.878 60.0876C255.883 63.1927 254.956 66.223 254.099 69.1455M229.926 63.6793C228.886 67.7663 227.848 72.1495 227.646 73.9166C227.497 75.2178 227.154 78.6692 226.866 82.513M254.099 69.1455C257.135 70.2588 263.464 73.8727 264.491 79.4226M254.099 69.1455C253.237 72.0797 252.445 74.9052 251.721 77.5885M264.491 79.4226C263.422 84.7497 262.264 90.7767 261.546 94.588C261.428 94.3762 261.081 93.5995 260.63 92.1875C260.067 90.4224 256.788 86.0085 256.329 86.6786C255.869 87.3488 259.041 93.0686 260.627 95.9284C261.262 97.073 260.779 99.202 259.977 101.355M251.721 77.5885C245.068 75.3173 233.844 78.3119 226.866 82.513M251.721 77.5885C250.516 82.051 249.499 86.1203 248.667 89.6427M226.866 82.513C226.466 87.8424 226.171 93.926 226.641 96.0793L227.17 97.0325C228.652 96.2102 232.141 94.6082 234.23 94.7792C236.841 94.9929 242.948 93.2683 244.005 95.1748C241.322 97.0786 235.101 100.695 231.685 99.9299C231.602 100.53 231.626 102.372 232.387 104.942C232.869 106.572 234.031 110.392 235.488 113.849M248.667 89.6427C246.864 97.276 245.927 102.341 245.818 103.27C245.698 104.296 245.695 105.785 245.759 107.437M248.667 89.6427C252.061 92.0134 259.073 97.6747 259.977 101.355M245.759 107.437C243.707 108.185 238.779 110.515 235.488 113.849" stroke="black" stroke-width="0.3"/>
<g style="mix-blend-mode:multiply">
<path d="M243.044 108.519C241.86 109.15 239.091 103.092 239.297 102.045C239.503 100.994 239.55 99.1688 241.168 97.0639L243.937 95.2572C243.804 95.0185 243.316 94.5023 242.422 94.3475C241.304 94.1541 237.803 94.6413 236.819 94.6447C235.835 94.6482 234.922 94.9573 233.533 94.7176C231.733 95.2061 227.973 96.3271 227.326 96.9027L227.045 97.1077C226.879 96.8382 226.543 96.2473 226.527 96.0396C226.506 95.78 226.498 84.7431 226.859 82.5954C227.221 80.4478 227.376 75.748 227.487 75.0626C227.597 74.3771 229.35 65.1556 229.953 63.5501C230.822 60.1179 232.626 52.7794 232.895 50.8828C233.163 48.9862 233.359 47.4592 233.424 46.9327C234.337 46.8501 236.315 46.694 236.924 46.7309C237.685 46.7769 240.98 47.0899 242.358 47.8864C243.736 48.6828 245.659 49.9796 248.163 49.9512C250.667 49.9228 253.829 49.9971 254.769 49.7214C253.848 49.7636 251.698 49.6675 250.459 48.9454C248.911 48.0428 246.525 46.757 245.428 45.9835C244.33 45.21 242.8 44.1408 241.267 43.1851C239.734 42.2295 238.958 41.835 238.17 41.5807C237.54 41.3772 236.335 40.9114 235.811 40.704C235.806 40.454 235.812 39.8783 235.876 39.5753C235.956 39.1966 236.02 35.3712 239.231 30.6694C242.443 25.9676 247.427 19.7166 248.094 19.1241C248.761 18.5315 249.996 17.4902 250.316 17.238C250.637 16.9859 251.842 15.5155 252.38 14.6377C252.918 13.7598 255.254 9.47893 256.058 7.47321C256.862 5.46749 257.6 3.55763 257.966 3.14655C258.332 2.73546 262.742 -1.58175 264.979 -3.25326C267.217 -4.92476 272.484 -8.49936 273.256 -8.92781C274.029 -9.35625 277.432 -11.4963 278.369 -11.8968C279.305 -12.2974 281.746 -12.611 282.783 -12.5623C283.82 -12.5136 288.113 -12.0863 289.077 -11.7146C290.04 -11.3429 292.039 -10.9805 292.221 -10.9476C292.366 -10.9212 292.976 -10.7376 293.263 -10.649C291.817 -9.0055 288.756 -5.51118 288.075 -4.68191C287.223 -3.64532 281.596 4.53942 279.47 7.82397C277.344 11.1085 271.509 22.0207 270.986 23.451C268.654 23.0545 263.494 22.2611 261.508 22.259C259.026 22.2564 260.148 27.0045 260.028 29.3965C259.907 31.7885 259.541 42.5182 260.545 44.7248C261.349 46.4901 261.555 47.698 261.558 48.0814L256.763 60.2883C253.857 59.6626 247.42 58.548 244.916 59.0946C243.904 62.7172 242.216 70.5777 243.556 73.0384C245.231 76.1142 250.071 79.9015 250.846 80.9396C249.323 87.5001 246.219 100.946 245.982 102.248C244.856 105.365 245.891 113.35 246.549 116.953C245.917 117.863 244.261 119.796 242.686 120.248C240.719 120.813 238.79 119.865 238.202 118.963C237.614 118.061 234.889 114.966 235.351 113.745C235.721 112.769 240.626 109.859 243.044 108.519Z" fill="#C4C4C4"/>
</g>
<g style="mix-blend-mode:multiply">
<path d="M252.622 100.533C253.349 101.437 255.779 105.835 256.903 107.921L260.048 101.308C260.103 101.013 259.672 99.9522 257.515 97.4243C255.175 94.6822 250.918 91.3241 248.724 89.5479C248.659 89.8255 247.145 95.9556 246.883 97.1779C246.861 97.2813 249.012 97.1517 249.517 98.2905C249.597 98.1189 249.684 98.0369 249.989 98.0678C250.294 98.0987 251.713 99.404 252.622 100.533Z" fill="#C0CABF"/>
</g>
<g style="mix-blend-mode:multiply">
<path d="M260.93 92.9773C261.014 93.2679 261.397 94.2574 261.578 94.7158L264.475 79.3087C264.77 76.4209 258.207 70.3704 254.155 69.2092L251.143 79.7222C253.102 78.7546 256.285 87.5218 256.208 87.3086C256.147 87.1382 256.309 86.7955 256.398 86.6455C256.542 86.6658 256.911 86.7777 257.237 87.0631C257.646 87.4198 258.963 89.1518 259.347 89.8456C259.732 90.5394 260.826 92.6139 260.93 92.9773Z" fill="#C0CABF"/>
</g>
<g style="mix-blend-mode:multiply">
<path d="M273.834 44.2863C275.312 46.1217 275.807 50.927 275.837 51.1655L280.431 43.1552C283.103 37.2214 277.117 23.8429 272.187 21.3356L266.548 34.1855C266.303 37.4255 270.543 42.2486 272.694 44.2551C273.346 43.9954 273.726 44.1677 273.834 44.2863Z" fill="#C0CABF"/>
</g>
<g style="mix-blend-mode:multiply">
<path d="M231.187 90.2245C230.356 91.3554 228.249 94.953 227.219 96.8479C229.26 96.0944 233.476 94.626 234.016 94.7807C234.691 94.9739 236.233 94.6859 238.113 94.4946C239.992 94.3032 242.209 94.2085 242.884 94.4018C243.424 94.5564 243.944 94.9488 244.137 95.1256C246.209 94.2597 247.896 95.1078 250.17 82.9854C250.364 81.9509 236.388 83.1484 231.187 90.2245Z" fill="#AECFB3"/>
</g>
<g style="mix-blend-mode:multiply">
<path d="M238.543 31.8428C238.37 31.64 235.173 36.8707 235.796 40.6222C237.917 40.8647 242.187 43.8363 242.726 43.991C243.401 44.1842 249.517 49.5864 253.083 49.8783C254.967 50.0324 256.072 49.6396 256.843 49.4956C257.395 49.3926 261.113 47.7546 261.306 47.9314C262.234 46.5073 263.22 42.2054 264.705 39.4583C266.015 37.0347 248.49 43.5268 238.543 31.8428Z" fill="#AECFB3"/>
</g>
</g>
<defs>
<clipPath id="clip0">
<rect x="221.5" width="71" height="124" fill="white"/>
</clipPath>
</defs>
</svg>
