<svg width="411" height="270" viewBox="0 0 411 270" fill="none" xmlns="http://www.w3.org/2000/svg">
<g clip-path="url(#clip0)">
<path d="M320.277 145.893C314.693 150.2 341.794 145.544 349.415 162.835C349.794 163.695 350.18 164.718 350.57 165.886C352.317 171.126 354.134 179.307 355.686 189.004C357.09 197.777 358.277 207.789 359.001 217.986C359.591 226.292 359.873 234.72 359.714 242.699C359.364 260.232 356.885 275.599 350.859 282.747L372.048 289.151L393.237 295.555C394.417 284.16 395.471 268.235 395.642 251.21C395.776 237.871 395.368 223.857 394.055 210.817C392.901 199.365 391.048 188.663 388.25 179.831C386.249 173.513 383.764 168.152 380.705 164.155C378.681 161.512 376.59 159.159 374.455 157.069C352.29 135.368 325.37 141.964 320.277 145.893Z" fill="#89CB90"/>
<path fill-rule="evenodd" clip-rule="evenodd" d="M374.312 157.141C374.719 159.938 374.969 164.262 374.404 168.203C374.121 170.185 373.631 172.062 372.858 173.597C372.112 175.077 371.107 176.231 369.774 176.863C369.091 174.817 368.371 172.841 367.618 170.942C366.494 168.109 365.119 165.572 363.548 163.304C357.879 155.118 349.671 150.443 341.579 147.957C333.777 145.561 326.073 145.196 320.83 145.686C322.205 144.8 324.623 143.814 327.806 143.076C331.379 142.247 335.9 141.734 340.953 142.02C351.048 142.59 363.268 146.346 374.312 157.141ZM320.333 146.038C325.541 145.476 333.465 145.778 341.491 148.244C349.49 150.701 357.581 155.302 363.198 163.327C361.423 164.109 356.701 165.58 350.674 165.734C350.296 164.606 349.92 163.614 349.55 162.775C345.708 154.058 336.961 150.886 329.923 149.349C328.162 148.964 326.505 148.681 325.055 148.44C324.924 148.418 324.796 148.396 324.668 148.375C323.383 148.162 322.281 147.979 321.434 147.78C320.968 147.671 320.586 147.558 320.295 147.436C319.999 147.312 319.819 147.186 319.734 147.063C319.693 147.005 319.674 146.948 319.673 146.889C319.671 146.83 319.687 146.758 319.731 146.672C319.819 146.501 320.009 146.291 320.333 146.038ZM350.773 166.031C356.853 165.863 361.609 164.367 363.373 163.578C364.901 165.801 366.241 168.283 367.339 171.053C368.11 172.995 368.845 175.018 369.542 177.116C370.807 180.919 371.948 184.966 372.955 189.216C371.288 191.301 368.13 191.718 364.782 191.349C361.456 190.983 358.007 189.848 355.818 188.9C354.288 179.353 352.5 171.274 350.773 166.031ZM355.874 189.25C358.089 190.19 361.473 191.286 364.749 191.647C368.017 192.007 371.237 191.641 373.041 189.581C374.012 193.721 374.855 198.052 375.562 202.535C376.471 208.304 377.152 214.325 377.585 220.518C375.653 220.925 372.478 221.275 369.081 221.032C365.63 220.784 361.967 219.924 359.143 217.906C358.426 207.833 357.257 197.942 355.874 189.25ZM359.171 218.291C362.029 220.254 365.663 221.087 369.06 221.331C372.463 221.575 375.645 221.229 377.606 220.82C377.785 223.432 377.919 226.074 378.008 228.741C378.194 234.327 378.179 240.021 377.948 245.766C375.828 245.899 372.447 245.9 369.032 245.479C365.572 245.053 362.101 244.196 359.863 242.623C360.017 234.763 359.743 226.471 359.171 218.291ZM359.856 242.982C362.159 244.526 365.608 245.36 368.996 245.777C372.415 246.199 375.797 246.2 377.936 246.067C377.576 254.75 376.722 263.55 375.323 272.275C374.424 277.885 373.3 283.464 371.938 288.962L351.116 282.669C354.077 279.06 356.164 273.472 357.56 266.648C358.964 259.783 359.671 251.649 359.856 242.982ZM372.225 289.049C373.584 283.568 374.706 278.008 375.604 272.417C380.852 270.926 391.796 264.92 395.477 252.382C395.271 268.87 394.249 284.244 393.104 295.359L372.225 289.049ZM395.49 251.191C392.213 264.243 381.048 270.507 375.657 272.09C377.044 263.373 377.889 254.584 378.243 245.913C378.477 240.156 378.496 234.45 378.312 228.851C379.95 228.417 381.586 227.424 383.157 226.104C384.767 224.752 386.316 223.051 387.735 221.239C390.41 217.824 392.636 214.005 393.955 211.356C395.226 224.234 395.622 238.039 395.49 251.191ZM393.899 210.791C392.622 213.429 390.309 217.468 387.499 221.054C386.088 222.855 384.553 224.54 382.964 225.874C381.433 227.16 379.859 228.115 378.302 228.543C378.211 225.878 378.074 223.238 377.893 220.627C377.463 214.413 376.782 208.371 375.873 202.582C379.204 200.253 381.976 195.998 384.088 191.635C386.095 187.49 387.516 183.229 388.262 180.38C390.965 189.09 392.767 199.576 393.899 210.791ZM388.092 179.836C387.389 182.654 385.929 187.145 383.818 191.504C381.737 195.802 379.034 199.95 375.821 202.251C375.104 197.739 374.248 193.382 373.263 189.218C372.262 184.982 371.127 180.946 369.869 177.149C371.297 176.484 372.355 175.263 373.126 173.732C373.919 172.158 374.415 170.245 374.701 168.245C375.246 164.448 375.04 160.306 374.663 157.487C376.684 159.494 378.664 161.739 380.583 164.247C383.621 168.216 386.095 173.545 388.092 179.836ZM327.738 142.784C324.143 143.618 321.481 144.773 320.183 145.774C319.829 146.048 319.586 146.298 319.464 146.535C319.402 146.655 319.369 146.777 319.373 146.898C319.376 147.021 319.417 147.133 319.487 147.234C319.623 147.43 319.869 147.583 320.179 147.713C320.492 147.845 320.894 147.961 321.366 148.072C322.223 148.273 323.335 148.458 324.617 148.671C324.745 148.692 324.874 148.714 325.006 148.735C326.455 148.977 328.106 149.259 329.859 149.642C336.882 151.176 345.496 154.321 349.275 162.896C349.652 163.751 350.036 164.768 350.425 165.934C352.169 171.162 353.984 179.334 355.535 189.028C356.938 197.796 358.126 207.805 358.849 217.997C359.439 226.299 359.72 234.722 359.562 242.696C359.387 251.458 358.68 259.673 357.266 266.588C355.851 273.507 353.73 279.106 350.742 282.651L350.595 282.825L393.365 295.751L393.383 295.57C394.564 284.171 395.619 268.241 395.79 251.211C395.924 237.869 395.516 223.849 394.202 210.803C393.047 199.344 391.193 188.632 388.39 179.786C386.386 173.459 383.895 168.08 380.821 164.064C378.794 161.416 376.698 159.057 374.558 156.962C363.446 146.083 351.139 142.294 340.97 141.72C335.887 141.433 331.337 141.949 327.738 142.784Z" fill="#3A2C08"/>
<g style="mix-blend-mode:multiply">
<path d="M377.536 216.664C378.81 240.956 375.901 274.994 372.061 288.786L350.884 282.387C351.365 282.532 353.14 280.392 356.393 270.672C360.458 258.521 362.347 220.845 354.459 183.321C352.138 172.278 351.037 165.058 347.875 160.129C347.441 158.706 345.279 156.806 344.341 156.024C343.345 155.151 341.406 153.827 340.56 153.274C339.64 152.719 337.017 151.618 336.24 151.286C335.464 150.954 331.727 149.938 330.839 149.653C329.95 149.369 327.981 149.115 327.415 148.944C326.85 148.773 325.498 148.624 324.818 148.51C324.138 148.397 321.932 148.063 321.318 147.93C320.704 147.797 319.608 147.502 319.57 146.924C319.54 146.463 320.115 146.051 320.406 145.903C321.21 145.539 328.929 145.833 331.351 146.001C333.773 146.169 339.748 147.497 343.686 148.818C346.837 149.874 351.804 152.674 353.893 153.941C365.108 160.672 375.663 180.93 377.536 216.664Z" fill="#CCDFD4"/>
</g>
<path d="M376.406 275.983L405.049 279.452C398.927 270.715 390.282 256.545 382.061 241.071C375.972 229.61 370.116 217.435 365.691 206.224C364.267 202.617 362.992 199.11 361.905 195.759C360.402 191.127 359.804 186.324 359.92 181.479C360.164 171.361 363.527 161.061 368.283 151.763C374.932 138.763 384.304 127.72 391.682 121.866C388.696 118.696 377.098 115.239 361.555 126.313C354.762 131.153 347.216 138.768 339.305 150.397C333.647 158.714 329.966 168.451 328.01 178.853C325.937 189.881 325.804 201.657 327.311 213.282C328.618 223.366 331.161 233.336 334.743 242.606C338.088 251.265 342.342 259.313 347.343 266.273C350.209 270.259 353.319 273.889 356.646 277.071L376.406 275.983Z" fill="#79A000"/>
<path fill-rule="evenodd" clip-rule="evenodd" d="M356.589 277.225L376.402 276.133L405.365 279.641L405.172 279.366C399.055 270.635 390.412 256.47 382.193 241.001C376.106 229.543 370.252 217.373 365.831 206.169C364.408 202.564 363.134 199.06 362.047 195.712C360.551 191.098 359.954 186.312 360.07 181.482C360.314 171.393 363.667 161.116 368.416 151.831C375.057 138.848 384.416 127.823 391.776 121.983L391.903 121.882L391.792 121.763C390.26 120.137 386.566 118.473 381.324 118.598C376.074 118.722 369.26 120.639 361.468 126.19C354.658 131.043 347.099 138.673 339.181 150.312C333.51 158.649 329.822 168.406 327.863 178.826C325.787 189.871 325.653 201.663 327.162 213.301C328.471 223.397 331.016 233.378 334.603 242.66C337.953 251.329 342.212 259.389 347.222 266.36C350.092 270.353 353.208 273.99 356.542 277.18L356.589 277.225ZM375.977 275.856L356.703 276.918C353.562 273.908 350.614 270.498 347.884 266.763C350.942 268.424 354.778 268.687 358.379 268.326C362.163 267.948 365.711 266.878 367.871 265.987C369.624 268.612 371.256 270.809 372.685 272.512C373.96 274.033 375.078 275.166 375.977 275.856ZM367.701 265.733C365.56 266.609 362.068 267.656 358.349 268.028C354.537 268.409 350.511 268.08 347.448 266.161C342.61 259.425 338.474 251.667 335.183 243.321C338.256 246.546 342.342 247.67 346.251 247.744C350.322 247.821 354.217 246.762 356.617 245.738C358.513 249.788 360.454 253.544 362.358 256.942C364.199 260.228 366.005 263.178 367.701 265.733ZM356.49 245.466C354.121 246.475 350.273 247.52 346.257 247.444C342.169 247.366 337.923 246.128 334.873 242.528C331.371 233.458 328.865 223.718 327.538 213.859C330.264 217.521 333.89 218.979 337.35 219.295C340.863 219.616 344.209 218.76 346.283 217.844C347.693 222.977 349.331 227.94 351.106 232.661C352.802 237.171 354.623 241.46 356.49 245.466ZM346.203 217.552C344.17 218.458 340.855 219.314 337.377 218.996C333.847 218.674 330.154 217.144 327.455 213.227C326.002 201.993 326.083 190.621 327.968 179.924C328.49 183.267 330.678 185.931 333.269 187.927C336.087 190.098 339.402 191.495 341.638 192.13C341.877 195.102 342.227 198.058 342.671 200.987C343.529 206.637 344.741 212.187 346.203 217.552ZM341.613 191.811C339.408 191.17 336.19 189.798 333.452 187.689C330.631 185.516 328.34 182.577 328.161 178.864C330.051 168.82 333.552 159.402 338.888 151.29C338.103 154.487 338.682 158.042 339.762 161.248C340.937 164.738 342.713 167.836 344.009 169.651C342.431 174.798 341.58 179.116 341.269 181.805L341.269 181.813L341.268 181.821C341.233 185.159 341.354 188.495 341.613 191.811ZM344.121 169.289C342.853 167.473 341.171 164.493 340.047 161.153C338.87 157.66 338.31 153.797 339.441 150.464C347.083 139.233 354.381 131.757 360.981 126.913C358.807 130.37 357.953 134.07 357.58 137.063C357.39 138.582 357.324 139.921 357.274 140.954L357.266 141.11C357.24 141.637 357.217 142.074 357.181 142.408C357.163 142.574 357.142 142.711 357.117 142.819C357.092 142.927 357.065 142.993 357.042 143.028C354.239 146.871 351.879 150.887 349.907 154.843C347.377 159.917 345.487 164.895 344.121 169.289ZM361.664 126.419C369.406 120.909 376.154 119.02 381.331 118.898C386.389 118.778 389.936 120.342 391.459 121.852C384.087 127.743 374.78 138.739 368.162 151.669C365.188 154.251 361.565 155.31 358.233 155.58C354.995 155.843 352.043 155.361 350.254 154.819C352.204 150.926 354.531 146.98 357.286 143.203L357.289 143.199C357.344 143.118 357.381 143.008 357.409 142.887C357.438 142.762 357.46 142.612 357.479 142.44C357.516 142.096 357.54 141.65 357.566 141.125L357.573 140.97C357.624 139.937 357.689 138.608 357.877 137.1C358.272 133.939 359.204 130.006 361.664 126.419ZM350.118 155.091C351.937 155.65 354.951 156.148 358.257 155.879C361.435 155.621 364.894 154.653 367.822 152.34C363.236 161.475 360.014 171.547 359.771 181.454C358.442 185.638 355.338 189.738 351.981 193.17C348.716 196.508 345.224 199.202 342.933 200.711C342.501 197.83 342.162 194.924 341.929 192.002C341.659 188.626 341.532 185.23 341.568 181.832C341.878 179.152 342.732 174.827 344.318 169.668C345.676 165.25 347.57 160.221 350.118 155.091ZM342.982 201.037C345.288 199.532 348.859 196.791 352.196 193.379C355.335 190.17 358.278 186.356 359.757 182.411C359.734 186.953 360.35 191.453 361.762 195.805C362.847 199.148 364.118 202.645 365.536 206.24C362.789 222.87 354.991 230.548 351.329 232.401C349.56 227.682 347.928 222.723 346.526 217.596C345.06 212.233 343.844 206.686 342.982 201.037ZM351.435 232.683C355.158 230.819 362.913 223.178 365.75 206.779C370.146 217.841 375.911 229.812 381.902 241.091C380.562 246.464 377.062 250.187 373.215 252.66C369.402 255.112 365.257 256.33 362.57 256.706C360.665 253.302 358.723 249.537 356.827 245.479C354.958 241.478 353.134 237.191 351.435 232.683ZM362.727 256.987C365.454 256.587 369.578 255.356 373.377 252.913C377.192 250.46 380.69 246.779 382.11 241.483C390.193 256.666 398.665 270.564 404.733 279.262L376.461 275.838C375.549 275.21 374.339 274.018 372.914 272.319C371.477 270.605 369.827 268.382 368.052 265.718C366.364 263.185 364.564 260.255 362.727 256.987Z" fill="#3A2C08"/>
<g style="mix-blend-mode:multiply">
<path d="M349.491 170.02C340.087 209.35 370.197 256.708 384.05 276.768L404.872 279.29C397.264 266.109 379.854 237.424 374.702 226.589C367.967 212.423 359.303 192.662 359.805 179.576C360.307 166.491 367.735 153.482 371.631 145.634C374.748 139.356 385.089 127.358 391.613 122.092L391.558 121.51C390.081 120.387 387.345 119.308 385.864 119.104C377.461 121.947 358.016 134.367 349.491 170.02Z" fill="#C4C4C4"/>
</g>
</g>
<defs>
<clipPath id="clip0">
<path d="M284.5 113H410.5V270H284.5V113Z" fill="white"/>
</clipPath>
</defs>
</svg>
