<svg width="1289" height="334" viewBox="0 0 1289 334" fill="none" xmlns="http://www.w3.org/2000/svg">
<path d="M1202.05 142.394C1207.19 134.267 1222.01 121.761 1230.74 114.628C1232.85 112.891 1234.15 114.079 1234.54 114.89C1234.33 115.888 1231.22 119.763 1220.52 127.277C1209.82 134.791 1201.87 149.134 1199.23 155.365C1198.68 156.558 1197.17 158.696 1195.59 157.709C1193.6 156.475 1198.39 148.178 1202.05 142.394Z" fill="#5C956D" stroke="black" stroke-width="0.3"/>
<g style="mix-blend-mode:multiply">
<path d="M1221.15 124.048C1207.7 134.62 1199.13 151.027 1196.53 157.909C1195.5 158.086 1195.07 157.033 1195.21 155.534C1195.35 154.035 1198.69 147.776 1200.47 144.732C1202.24 141.687 1204.28 139.376 1205.65 137.593C1207.03 135.81 1211.36 131.648 1212.47 130.678C1213.36 129.901 1217.81 125.765 1219.93 123.793L1227.37 117.468L1230.13 115.058L1231.44 114.956L1221.15 124.048Z" fill="#C4C4C4"/>
</g>
<path d="M1219.96 107.152C1220.16 114.845 1228.5 115.57 1232.65 114.971C1233.85 115.391 1230.62 116.94 1228.81 117.111C1227.01 117.281 1218.96 119.152 1220.45 125.986C1221.94 132.819 1229 142.148 1245.23 141.814C1261.46 141.481 1266.49 120.542 1266.64 118.735C1266.89 115.735 1268.66 113.628 1269.34 112.571C1268.94 112.831 1267.27 111.896 1263.79 109.275C1259.44 105.999 1254.79 96.3092 1242.85 91.7066C1230.91 87.104 1219.72 97.5344 1219.96 107.152Z" fill="#FF878E" stroke="black" stroke-width="0.3"/>
<g style="mix-blend-mode:multiply">
<path d="M1238.78 125.869C1233.74 125.828 1226.95 130.912 1224.19 133.459L1227.05 137.636L1256.46 137.613L1260.3 133.205C1260.46 132.741 1260.11 131.261 1257.4 129.045C1254.01 126.274 1245.08 125.92 1238.78 125.869Z" fill="#C4C4C4"/>
</g>
<path d="M1222.49 107.406C1222.82 110.373 1226.93 113.375 1229.98 112.683C1231.94 112.239 1232.97 108.016 1228.93 106.613C1225.7 105.49 1224.9 100.833 1225.47 98.299C1224.11 99.2223 1222.09 103.697 1222.49 107.406Z" fill="#FDB8BC"/>
<g style="mix-blend-mode:multiply">
<path d="M1223.54 101.26C1222.34 109.701 1228.23 111.58 1231.27 111.521C1231.07 112.381 1229.66 113.621 1227.31 113.068C1225.59 112.666 1222.62 111.099 1221.91 107.965C1221.42 105.758 1222.87 102.364 1223.54 101.26Z" fill="#EFCED0"/>
</g>
<path d="M1232.19 96.3856C1228.29 101.006 1231.17 107.033 1234.65 109.11C1237.13 110.59 1242.95 108.237 1238.31 104.235C1235.2 101.56 1237.41 95.6567 1238.56 93.0937C1236.87 92.8898 1235.53 92.4376 1232.19 96.3856Z" fill="#FDB8BC"/>
<g style="mix-blend-mode:multiply">
<path d="M1229.06 102.17C1229.68 107.801 1234.07 110.433 1236.71 109.464C1229.2 104.804 1232.55 95.2388 1238.49 93.0829C1234.84 91.0691 1228.49 96.9113 1229.06 102.17Z" fill="#EFCED0"/>
</g>
<path d="M1233.87 134.701C1228.18 132.641 1226.74 127.285 1228.19 123.498C1229.22 120.798 1235.24 119.035 1234.08 125.054C1233.3 129.077 1239.13 132.97 1241.63 134.267C1240.43 135.476 1238.51 136.384 1233.87 134.701Z" fill="#FDB8BC"/>
<path d="M1248.45 133.613C1242.3 132.246 1238.16 127.101 1238.48 123.06C1238.7 120.18 1243.98 116.785 1244.57 122.887C1244.96 126.965 1254.13 130.979 1256.89 131.517C1256.08 133.017 1253.36 134.706 1248.45 133.613Z" fill="#FDB8BC"/>
<path d="M1244.78 100.828C1241.55 103.664 1241.28 107.4 1243.63 110.699C1245.31 113.051 1251.59 113.232 1248.94 107.703C1247.17 104.007 1250.67 100.97 1252.76 99.0853C1251.02 98.3225 1248.66 97.4199 1244.78 100.828Z" fill="#FDB8BC"/>
<path d="M1256.41 123.117C1252.19 123.91 1249.08 121.816 1247.94 117.928C1247.12 115.157 1250.85 110.106 1253.57 115.6C1255.39 119.272 1259.94 118.392 1262.71 117.914C1262.23 119.752 1261.49 122.163 1256.41 123.117Z" fill="#FDB8BC"/>
<g style="mix-blend-mode:multiply">
<path d="M1250.51 98.3327C1243.73 101.273 1243.48 107.379 1244.53 110.222C1243.65 110.324 1241.53 109.719 1241.28 107.314C1241.1 105.563 1242 101.879 1244.35 100.058C1246.13 98.6697 1249.25 98.0668 1250.51 98.3327Z" fill="#EFCED0"/>
</g>
<g style="mix-blend-mode:multiply">
<path d="M1262.87 118.313C1251.65 126.037 1248.84 116.245 1249.81 113.372C1248.93 113.296 1246.83 113.962 1246.65 116.373C1246.51 118.129 1248.26 122.03 1250.93 123.34C1254.53 125.112 1261.66 124.455 1262.87 118.313Z" fill="#EFCED0"/>
</g>
<g style="mix-blend-mode:multiply">
<path d="M1229.8 112.199C1229.54 113.35 1230.27 114.74 1230.66 115.292L1260.19 105.798L1258.37 103.626C1257.07 103.303 1253.05 102.999 1247.35 104.371C1240.22 106.085 1230.11 110.761 1229.8 112.199Z" fill="#E4A7A7"/>
</g>
<g style="mix-blend-mode:multiply">
<path d="M1240.47 130.464C1236.74 126.199 1237.21 121.738 1240.58 120.093C1238.92 128.772 1251.21 134.724 1256.82 131.811C1253.67 137.845 1243.95 134.447 1240.47 130.464Z" fill="#EFCED0"/>
</g>
<g style="mix-blend-mode:multiply">
<path d="M1228.63 122.542C1227.43 130.983 1238.66 134.308 1241.69 134.25C1241.5 135.109 1239.29 136.815 1236.87 136.706C1231.06 136.443 1227.98 132.31 1227.01 129.247C1226.04 126.171 1227.97 123.646 1228.63 122.542Z" fill="#EFCED0"/>
</g>
<g style="mix-blend-mode:multiply">
<path d="M1246.69 130.288C1237.96 130.205 1230.26 121.712 1227.5 117.476C1224.39 117.059 1221.97 120.179 1221.29 120.9C1220.62 121.621 1217.62 130.724 1229.61 137.88C1242.15 145.361 1250.5 140.812 1253.55 139.59C1256.6 138.368 1261.99 131.891 1263.27 128.81C1264.29 126.344 1266.45 121.992 1267.3 116.124C1264.35 119.894 1255.42 130.371 1246.69 130.288Z" fill="#ECCCCC"/>
</g>
<path d="M1252.88 106.255C1247.09 107.441 1235.27 110.468 1231.93 113.52C1228.59 116.572 1232.79 118.742 1235.44 119.186C1237.75 119.57 1242.35 116.328 1246.58 114.995C1250.81 113.663 1264.62 111.054 1266.85 109.289C1269.08 107.523 1268.29 106.709 1266.92 105.284C1265.54 103.86 1260.11 104.772 1252.88 106.255Z" fill="#FBC726" stroke="black" stroke-width="0.3"/>
<g style="mix-blend-mode:multiply">
<path d="M1260.04 107.588C1255.64 108.019 1239.57 113.854 1232.11 116.793C1230.91 116.834 1229.9 115.47 1230.99 114.268C1233.56 111.418 1242.76 108.634 1248.92 107.039C1253.61 105.826 1264.56 104.037 1266.26 104.769C1267 105.085 1267.66 105.729 1267.95 106.391C1268.23 107.054 1266.29 106.976 1260.04 107.588Z" fill="#DCD275"/>
</g>
<path fill-rule="evenodd" clip-rule="evenodd" d="M1240.05 177.789C1242.85 178.295 1249.06 179.493 1251.52 180.235C1254.6 181.163 1259.11 184.305 1257.84 188.942C1257.31 190.892 1256.65 192.091 1256.15 193.006C1255.46 194.268 1255.06 194.99 1255.71 196.392C1256.19 197.42 1256.35 198.085 1256.45 198.528C1256.59 199.126 1256.64 199.316 1257.24 199.444C1257.7 199.543 1257.09 199.628 1256.21 199.751C1255.11 199.905 1253.58 200.118 1253.2 200.491C1252.51 201.162 1245.39 206.457 1240.69 201.639C1237.99 199.295 1236.77 196.335 1235.61 194.147C1234.53 192.113 1233.73 190.616 1232.73 190.401C1230.64 189.957 1225.04 190.67 1230.3 196.697C1235.55 202.725 1241.12 204.73 1242.74 204.803C1239.84 206.457 1232.99 209.102 1228.76 206.455C1223.47 203.146 1218.21 193.302 1217.35 190.938C1216.49 188.575 1214.25 183.736 1212.02 186.531C1209.79 189.326 1215.57 199.282 1217.99 201.979C1220.42 204.676 1223.62 207.54 1225.97 208.041C1223.09 208.335 1216.29 208.43 1212.13 206.453C1206.94 203.982 1201.58 197.117 1201.39 191.625C1201.25 187.529 1202.37 184.612 1203.09 182.745C1203.33 182.108 1203.53 181.593 1203.62 181.196C1203.95 179.631 1202.66 177.994 1200.39 179.691C1198.12 181.387 1194.26 193.103 1200.97 199.985C1198.83 199.801 1193.83 198.462 1190.95 194.577C1187.35 189.721 1187.85 183.558 1191.29 180.203C1193.19 178.346 1194.78 177.59 1195.81 177.099C1196.64 176.703 1197.11 176.479 1197.09 175.989C1197.06 174.89 1191.41 174.505 1189.02 178.082C1187.1 180.944 1186.62 184.204 1186.62 185.477C1185.12 182.704 1182.24 176.637 1182.68 174.551C1183.24 171.944 1190.31 166.91 1194.54 167.538C1198.76 168.167 1196.51 164.688 1193.79 164.653C1191.07 164.619 1186.44 166.085 1185.84 168.683C1185.24 168.1 1184.1 166.35 1184.38 164.011C1184.66 161.672 1185.37 160.677 1185.68 160.472C1185.45 159.876 1185.03 158.424 1185.25 157.382C1185.53 156.078 1186.63 152.223 1189.4 151.996C1189.53 151.986 1189.67 151.974 1189.82 151.961C1192.91 151.692 1200.46 151.039 1203.98 156.469C1204.59 156.599 1205.41 156.173 1203.81 153.434C1201.82 150.01 1201.76 146.454 1202.15 144.629C1202.54 142.804 1205.1 134.627 1211.43 134.342C1217.76 134.056 1228.3 135.758 1227.61 136.429C1226.92 137.1 1226.92 137.1 1228.22 137.378C1229.53 137.656 1239.96 139.88 1244.23 145.424C1240.16 144.467 1230.28 143.867 1223.26 149.132C1214.5 155.714 1220.09 156.36 1221.04 155.744C1221.2 155.64 1221.57 155.37 1222.1 154.991C1224.7 153.131 1230.97 148.635 1233.58 148.06C1233.72 148.029 1233.87 147.995 1234.03 147.96C1237.31 147.228 1243.34 145.88 1248.88 149.144C1253.54 151.88 1253.11 154.042 1252.32 154.782C1247.31 152.261 1235.67 148.997 1229.14 156.108C1228.75 156.661 1228.19 157.759 1229.06 157.728C1229.39 157.717 1229.98 157.358 1230.79 156.861C1232.74 155.675 1235.97 153.701 1239.99 153.789C1245.69 153.913 1250.55 154.132 1253.14 156.047C1255.73 157.962 1258.21 164.216 1258.04 164.998C1257.96 165.402 1257.38 165.046 1256.38 164.435C1255.46 163.865 1254.17 163.072 1252.59 162.471C1249.31 161.227 1237.18 160.55 1234.23 162.918C1231.27 165.286 1232.82 166.978 1235.44 166.175C1238.06 165.372 1249.81 162.697 1255.16 165.746C1259.44 168.184 1258.38 171.067 1257.32 172.204C1254.72 170.376 1248.41 166.978 1244.04 168.01C1239.97 168.974 1241.25 169.101 1242.92 169.266C1243.48 169.322 1244.09 169.382 1244.55 169.48C1246.37 169.869 1256.9 172.931 1258.59 175.201C1260.29 177.471 1259.38 183.001 1258.6 182.835C1258.3 182.771 1257.92 182.18 1257.42 181.394C1256.59 180.109 1255.43 178.305 1253.75 177.44C1251.05 176.046 1240.89 173.878 1239.71 175.536C1239.61 175.686 1239.51 175.823 1239.42 175.948C1238.7 176.915 1238.48 177.214 1240.05 177.789ZM1213.86 159.561C1215.11 159.828 1216.31 158.268 1216.76 157.454C1217.46 155.424 1215.84 155.351 1214.75 155.39C1213.65 155.428 1212.33 156.509 1212.1 157.552C1211.88 158.595 1212.29 159.228 1213.86 159.561ZM1226.34 168.765C1227.47 168.571 1228.75 167.28 1229.24 166.658C1230.35 165.532 1229.32 165.038 1228.27 164.816C1227.23 164.594 1223.13 165.901 1223.12 167.26C1223.1 168.62 1224.92 169.009 1226.34 168.765ZM1215.73 176.317C1216.26 177.247 1217.06 179.324 1216 180.189C1214.68 181.271 1213.32 181.253 1212.7 180.304C1212.09 179.355 1211.75 177.103 1212.44 176.432C1212.53 176.341 1212.62 176.24 1212.71 176.137C1213.3 175.479 1213.95 174.757 1215.73 176.317ZM1206.98 177.722C1208.12 177.527 1209.27 175.119 1209.7 173.94C1209.4 172.786 1208.62 172.619 1207.26 172.601C1205.9 172.584 1204.15 174.392 1203.87 175.696C1203.6 176.999 1205.57 177.966 1206.98 177.722ZM1205.47 169.494C1204.89 170.916 1203.43 173.693 1202.18 173.426C1200.61 173.092 1199.68 172.348 1200.22 171.1C1200.76 169.852 1204.22 168.955 1204.74 169.066C1204.89 169.098 1205.03 169.106 1205.15 169.112C1205.45 169.129 1205.62 169.138 1205.47 169.494ZM1200.74 167.395C1201.57 167.573 1203.68 166.386 1204.63 165.771C1205.74 164.373 1203.92 163.984 1203.14 163.817C1202.35 163.651 1200.04 164.249 1199.82 165.292C1199.6 166.335 1199.69 167.172 1200.74 167.395ZM1197.77 158.311C1197.64 158.92 1196.96 160.048 1195.29 159.692C1193.21 159.247 1192.91 158.093 1193.28 157.627C1193.65 157.161 1196.28 156.358 1197.77 158.311Z" fill="#79A000" stroke="black" stroke-width="0.3"/>
<g style="mix-blend-mode:multiply">
<path d="M1251.56 180.158C1249.1 179.416 1242.89 178.218 1240.09 177.712C1238.52 177.136 1238.74 176.838 1239.45 175.871C1239.54 175.746 1239.64 175.609 1239.75 175.459C1240.92 173.801 1251.09 175.969 1253.79 177.363C1255.47 178.228 1256.63 180.032 1257.45 181.317L1257.45 181.317C1257.96 182.103 1258.34 182.694 1258.64 182.758C1259.42 182.924 1260.33 177.393 1258.63 175.124C1256.93 172.854 1246.41 169.792 1244.58 169.403C1244.12 169.305 1243.52 169.245 1242.95 169.189L1242.95 169.189C1241.28 169.024 1240 168.897 1244.08 167.933C1248.44 166.9 1254.75 170.299 1257.36 172.127C1258.42 170.99 1259.47 168.107 1255.19 165.669C1249.85 162.62 1238.1 165.295 1235.48 166.098C1232.85 166.901 1231.3 165.209 1234.26 162.841C1237.22 160.473 1249.34 161.15 1252.62 162.394C1254.2 162.995 1255.49 163.787 1256.42 164.358L1256.42 164.358C1257.41 164.969 1257.99 165.325 1258.08 164.921C1258.25 164.139 1255.76 157.885 1253.17 155.97C1250.58 154.055 1245.72 153.836 1240.03 153.712C1236.01 153.624 1232.77 155.598 1230.83 156.784C1230.01 157.281 1229.42 157.64 1229.1 157.651C1228.22 157.682 1228.78 156.584 1229.17 156.031C1235.7 148.92 1247.35 152.184 1252.35 154.705C1253.15 153.965 1253.57 151.803 1248.92 149.066C1243.37 145.803 1237.34 147.151 1234.07 147.883L1234.07 147.883C1233.91 147.918 1233.76 147.952 1233.61 147.983C1231 148.558 1224.73 153.054 1222.14 154.914L1222.14 154.914C1221.61 155.293 1221.23 155.563 1221.07 155.667C1220.12 156.283 1214.54 155.636 1223.3 149.055C1230.31 143.79 1240.2 144.389 1244.26 145.347C1239.99 139.803 1229.56 137.579 1228.26 137.301C1226.96 137.023 1226.96 137.023 1227.64 136.352C1228.33 135.681 1217.79 133.979 1211.46 134.265C1205.13 134.55 1202.57 142.727 1202.18 144.552C1200.39 150.925 1193.24 154.943 1198.75 157.218C1204.26 159.492 1209.58 166.231 1213.23 170.051C1218.49 175.57 1237 183.269 1245.4 189.012C1253.74 194.72 1252.97 200.793 1253.47 200.369C1253.96 199.946 1254.56 200.025 1255.01 199.933C1255.47 199.841 1256.68 199.701 1256.93 199.678C1257.12 199.66 1257.31 199.58 1257.38 199.543L1256.86 199.309C1256.67 199.177 1256.62 198.987 1256.61 198.859C1256.6 198.757 1256.31 197.689 1256.17 197.169C1256.04 196.76 1255.68 195.936 1255.52 195.575C1255.53 195.179 1255.58 194.315 1255.73 194.023C1255.87 193.731 1256.17 193.195 1256.3 192.964C1256.87 192.092 1257.35 190.815 1257.88 188.865C1259.14 184.228 1254.63 181.086 1251.56 180.158Z" fill="#DBE7C8"/>
</g>
<g style="mix-blend-mode:multiply">
<path d="M1251.53 180.15C1249.07 179.408 1242.85 178.21 1240.05 177.704C1238.49 177.128 1238.71 176.83 1239.42 175.863C1239.51 175.738 1239.61 175.601 1239.72 175.451C1240.89 173.793 1251.06 175.961 1253.76 177.355C1255.43 178.22 1256.59 180.024 1257.42 181.309C1257.93 182.095 1258.31 182.686 1258.6 182.749C1259.39 182.916 1260.29 177.385 1258.6 175.116C1256.9 172.846 1246.38 169.784 1244.55 169.395C1244.09 169.297 1243.48 169.237 1242.92 169.181C1241.25 169.016 1239.97 168.889 1244.05 167.925C1248.41 166.892 1254.72 170.291 1257.33 172.119C1258.39 170.982 1259.44 168.099 1255.16 165.66C1249.81 162.612 1238.07 165.287 1235.44 166.09C1232.82 166.893 1231.27 165.2 1234.23 162.833C1237.19 160.465 1249.31 161.142 1252.59 162.386C1254.17 162.987 1255.46 163.779 1256.39 164.35C1257.38 164.961 1257.96 165.317 1258.05 164.913C1258.21 164.131 1255.73 157.877 1253.14 155.962C1250.55 154.047 1245.69 153.828 1239.99 153.704C1235.98 153.616 1232.74 155.59 1230.79 156.776C1229.98 157.273 1229.39 157.632 1229.07 157.643C1228.19 157.674 1228.75 156.576 1229.14 156.023C1235.67 148.912 1247.31 152.176 1252.32 154.697C1253.11 153.957 1253.54 151.794 1248.89 149.058C1243.34 145.795 1237.31 147.143 1234.03 147.875L1234.03 147.875C1233.88 147.91 1233.73 147.944 1233.58 147.975C1230.97 148.55 1224.7 153.046 1222.11 154.906C1221.58 155.285 1221.2 155.555 1221.04 155.659C1220.09 156.274 1214.5 155.628 1223.27 149.047C1230.28 143.782 1240.16 144.381 1244.23 145.339C1239.96 139.795 1229.53 137.571 1228.23 137.293C1226.92 137.015 1226.92 137.015 1227.61 136.344C1228.3 135.673 1217.76 133.971 1211.43 134.257C1205.1 134.542 1202.54 142.719 1202.15 144.544C1206.65 143.264 1215.77 141.709 1216.22 145.721C1210.22 152.134 1217.87 158.962 1218.26 160.461C1218.65 161.96 1226.86 162.816 1228.2 167.978C1229.28 172.107 1232.64 178.013 1240.75 183.316C1248.84 188.604 1253.45 191.377 1255.69 196.263C1255.7 196.278 1255.71 196.293 1255.71 196.307C1255.71 196.293 1255.7 196.278 1255.69 196.263C1255.07 194.89 1255.47 194.17 1256.15 192.921C1256.66 192.006 1257.32 190.806 1257.85 188.857C1259.11 184.22 1254.6 181.078 1251.53 180.15Z" fill="#ABD69D"/>
</g>
<g style="mix-blend-mode:multiply">
<path d="M1191.54 160.966C1191.86 162.972 1190.01 164.937 1189.05 165.669C1188.55 165.926 1187.42 166.553 1186.89 167.004C1186.36 167.455 1185.96 168.322 1185.83 168.699C1185.54 168.267 1184.88 167.242 1184.64 166.598C1184.33 165.793 1184.33 164.835 1184.41 163.581C1184.49 162.327 1185.38 160.782 1185.54 160.623C1185.67 160.497 1185.67 160.474 1185.66 160.478C1185.49 159.842 1185.16 158.363 1185.17 157.541C1185.18 156.515 1186.56 154.011 1187.03 153.292C1187.5 152.573 1189.25 152.002 1189.64 151.942C1189.96 151.894 1192.22 151.805 1193.3 151.767C1189.25 153.258 1191.13 158.458 1191.54 160.966Z" fill="#ADDCB3"/>
</g>
<g style="mix-blend-mode:multiply">
<path d="M1218.99 194.163C1219.58 190.841 1229.19 196.795 1233.92 200.187C1234.61 201.102 1237.25 202.617 1238.72 203.447C1239.89 204.11 1241.87 204.63 1242.71 204.807C1242.42 204.962 1239.13 206.568 1238.02 206.748C1237.09 206.899 1234.91 207.439 1234.25 207.55C1233.59 207.662 1231.45 207.431 1230.96 207.398C1230.48 207.366 1228.71 206.478 1228.37 206.278C1228.03 206.078 1226.2 204.453 1225.67 203.929C1225.14 203.406 1222.49 200 1221.87 199.043C1221.37 198.278 1219.74 195.471 1218.99 194.163Z" fill="#ADDCB3"/>
</g>
<g style="mix-blend-mode:multiply">
<path d="M1190.32 168.28C1193.49 170.248 1191.36 175.066 1188.97 178.136C1187.68 179.796 1186.72 183.35 1186.54 185.404C1185.55 183.263 1183.5 178.752 1183.22 177.83C1182.87 176.678 1182.57 175.296 1182.66 174.5C1182.75 173.704 1183.96 172.489 1185.08 171.366C1185.98 170.467 1188.95 168.934 1190.32 168.28Z" fill="#ADDCB3"/>
</g>
<g style="mix-blend-mode:multiply">
<path d="M1194 190.933C1192.14 190.466 1187.79 189 1190.2 193.288C1191.89 196.293 1193.69 197.523 1195.44 198.391C1197.7 199.513 1199.95 199.84 1201.09 200.03C1200.42 199.632 1198.8 197.002 1198.38 196.038C1197.95 195.073 1196.24 191.493 1194 190.933Z" fill="#ADDCB3"/>
</g>
<g style="mix-blend-mode:multiply">
<path d="M1203.86 198.788C1202.43 196.4 1201.45 193.585 1201.42 192.105C1204.38 190.28 1216.15 200.301 1221.66 205.539C1222.76 206.528 1224.89 207.612 1225.81 208.031C1224.53 208.081 1221.8 208.185 1221.15 208.207C1220.33 208.234 1217.29 207.896 1216.33 207.782C1215.37 207.668 1212.63 206.868 1210.7 205.73C1208.78 204.592 1205.83 202.071 1203.86 198.788Z" fill="#ADDCB3"/>
</g>
<path d="M746.499 76.6788C741.424 85.0869 716.172 99.1076 694.095 129.948C672.018 160.788 609.085 198.353 528.702 180.636C548.253 165.285 556.785 153.127 546.855 145.159C528.218 139.594 512.184 163.696 520.114 178.524C445.935 168.232 399.908 140.981 350.547 142.868C353.398 137.92 369.429 123.092 360.418 120.198C345.554 116.943 342.489 139.716 346.1 142.868C325.024 146.562 306.898 153.014 278.836 177.666C276.318 181.071 273.297 182.58 265.743 189.623C260.186 194.804 242.913 205.386 235.527 210.752C241.067 204.715 237.038 189.623 228.98 189.623C210.348 189.623 235.527 207.734 220.923 218.298C203.715 230.747 185.672 227.354 161.499 219.305C137.327 211.255 127.759 193.145 130.276 193.145C132.291 193.145 134.305 191.715 135.312 191.132C144.881 185.598 141.859 176.04 133.298 177.666C124.737 179.292 129.773 195.157 123.226 187.108C118.119 180.828 107.489 159.369 102.45 148.665C103.171 149.132 105.031 149.231 109.126 147.868C116.68 145.352 120.205 127.745 110.133 131.266C100.061 134.788 104.09 152.898 100.061 139.818C96.0322 126.738 99.0538 119.695 96.0322 117.18C93.615 115.168 92.3392 116.342 92.0035 117.18C87.9749 146.157 111.14 183.754 123.73 198.678C137.427 222.826 177.782 231.043 195.743 232.385C193.326 232.385 191.043 234.062 190.204 234.9C178.621 242.446 177.111 265.588 190.204 264.078C200.679 262.871 205.312 242.446 206.319 232.385C219.211 232.385 263.105 199.681 283.441 183.329C296.974 166.268 344.726 138.158 404.407 156.367C399.597 160.71 394.922 170.345 401.618 175.292C403.183 176.448 404.599 177.019 405.85 177.129C412.675 177.733 414.633 164.66 409.421 158.178C481.327 179.865 560.087 198.756 621.747 183.881C626.653 182.697 640.086 175.675 643.884 174.371C644.72 176.12 646.402 185.253 665.527 190.34C684.653 195.427 707.258 178.524 696.507 174.371C692.546 169.143 665.954 175.59 653.648 171.32C656.941 169.311 659.945 167.232 663.025 165.101L663.732 164.611C686.049 149.178 698.588 135.843 725.22 118.766C743.215 107.227 754.426 151.3 764.477 158.657C766.27 159.969 772.939 162.143 778.722 160.565C785.22 158.791 790.599 152.279 786.682 134.483C780.761 107.578 747.558 102.253 731.697 102.953C733.459 102.603 741.635 98.9594 760.245 87.1881C783.508 72.474 834.265 85.0861 842.725 89.2901C851.184 93.4941 852.241 99.8002 857.528 117.667C862.815 135.534 838.495 176.524 834.265 183.881C832.311 187.28 834.872 196.513 840.8 201.213C847.702 206.685 859.168 206.011 873.389 182.83C894.537 148.357 868.807 108.909 853.299 93.4941C852.946 92.4431 854.779 91.8125 864.93 97.6982C877.619 105.055 909.341 139.738 917.8 151.3C926.259 162.861 961.154 225.921 978.072 246.941C994.991 267.961 1034.11 276.829 1032.79 278.471C1021.77 292.194 1030.17 338.699 1044.37 332.42C1045.46 331.937 1046.62 331.135 1047.86 329.971C1063.09 315.677 1048.57 289.682 1039.4 278.471C1069.01 282.675 1091.76 271.602 1099.67 267.961C1115.67 260.604 1137.88 265.463 1145.14 266.91C1153.6 268.597 1159.95 275.318 1159.95 280.573C1159.95 285.829 1149.37 294.237 1151.49 294.237C1153.6 294.237 1164.18 288.982 1166.29 280.573C1168.4 272.165 1162.06 265.859 1153.6 262.706C1146.83 260.184 1123.91 257.388 1111.92 257.739C1118.69 254.375 1147.3 230.132 1158.58 221.023C1166.29 241.686 1193.63 243.028 1195.28 231.056C1195.43 229.9 1195.31 228.546 1194.84 226.972C1190.61 212.678 1173.16 212.302 1163.29 214.754C1175.98 202.142 1182.15 169.167 1184.27 156.555C1186.38 143.943 1178.89 131.927 1184.18 130.876C1191.38 129.445 1193.84 127.174 1199.07 117.667C1202.14 112.095 1203.9 106.584 1201.09 102.953C1198.95 100.198 1195.17 99.3254 1190.61 102.953C1183.78 108.388 1180.16 115.561 1178.65 120.148C1179.72 114.099 1179.08 102.414 1170.52 88.2391C1162.22 74.4838 1150.41 73.0757 1144.14 78.1441C1140.84 80.821 1138.27 85.5594 1139.86 90.3411C1142.68 98.8716 1168.4 121.871 1176.86 140.789C1183.63 155.924 1174.04 178.626 1168.4 188.085C1170.52 161.81 1151.49 146.045 1143.03 146.045C1141.25 146.045 1139.9 146.414 1138.9 147.096C1135.15 149.663 1136.51 156.656 1139.86 164.963C1144.08 175.473 1163.12 187.034 1164.18 192.289C1165.23 197.544 1159.95 206.377 1150.43 216.462C1143.18 224.147 1116.59 246.241 1102.85 255.349C1110.83 228.01 1098.71 215.471 1088.36 215.249C1086.38 215.206 1084.46 215.617 1082.76 216.462C1072.18 221.717 1080.64 239.584 1085.93 246.941C1091.21 254.298 1098.62 258.502 1097.56 260.604C1096.5 262.706 1061.61 272.165 1041.52 272.165C1025.44 272.165 1005.21 259.553 997.105 253.247C1014.73 250.445 1047.41 247.659 1047.41 227.479C1047.41 219.647 1045.07 215.463 1041.8 213.542C1034.55 209.277 1025.24 214.438 1022.03 219.071C1019.56 222.641 1006.62 237.482 1003.45 241.686C1000.28 245.89 992.875 251.145 981.244 239.584C971.939 230.335 939.3 176.874 924.144 151.3C928.374 151.65 939.794 152.351 951.637 152.351C966.441 152.351 993.933 136.585 987.589 117.667C986.448 114.266 984.932 111.986 983.187 110.595C975.226 104.248 962.508 116.404 959.039 125.024C955.655 133.432 934.367 143.242 924.145 147.096C907.806 134.916 911.506 132.341 891.366 109.259C866.088 80.2901 834.265 77.0283 824.748 75.627C842.724 63.0149 848.011 24.1284 831.093 11.5147C824.63 6.69656 818.629 4.30877 811.659 7.35813C802.661 11.2951 798.878 18.554 803.6 26.2288C809.281 35.4599 821.576 49.3509 823.69 56.708C825.382 62.5936 819.461 71.0718 816.288 74.5751C787.527 66.1671 760.598 78.0785 750.729 85.0852C782.451 51.453 776.106 24.1284 762.36 15.7194C748.614 7.31029 734.868 18.8724 733.81 24.1284C732.964 28.3333 735.573 29.3838 736.983 29.3835C735.925 24.1284 748.371 13.8372 760.245 24.1284C774.164 36.1915 752.844 66.1687 746.499 76.6788Z" fill="#79A000"/>
<path d="M840.8 201.213C847.702 206.685 859.168 206.011 873.389 182.83C894.537 148.357 868.807 108.909 853.299 93.4941C852.946 92.4431 854.779 91.8125 864.93 97.6982C877.619 105.055 909.341 139.738 917.8 151.3C926.259 162.861 961.154 225.921 978.072 246.941C994.991 267.961 1034.11 276.829 1032.79 278.471C1021.77 292.194 1030.17 338.699 1044.37 332.42M840.8 201.213C834.872 196.513 832.311 187.28 834.265 183.881C838.495 176.524 862.815 135.534 857.528 117.667C852.241 99.8002 851.184 93.4941 842.725 89.2901C834.265 85.0861 783.508 72.474 760.245 87.1881C741.635 98.9594 733.459 102.603 731.697 102.953C747.558 102.253 780.761 107.578 786.682 134.483C790.599 152.279 785.22 158.791 778.722 160.565M840.8 201.213C849.983 189.066 867.666 159.222 864.93 137.016M778.722 160.565C772.939 162.143 766.27 159.969 764.477 158.657C754.426 151.3 743.215 107.227 725.22 118.766C698.588 135.843 686.049 149.178 663.732 164.611C660.403 166.914 657.192 169.158 653.648 171.32C665.954 175.59 692.546 169.143 696.507 174.371M778.722 160.565C778.555 151.35 775.049 130.711 762.36 121.871M811.659 7.35813C802.661 11.2951 798.878 18.554 803.6 26.2288C809.281 35.4599 821.576 49.3509 823.69 56.708C825.382 62.5936 819.461 71.0718 816.288 74.5751C787.527 66.1671 760.598 78.0785 750.729 85.0852C782.451 51.453 776.106 24.1284 762.36 15.7194C748.614 7.31029 734.868 18.8724 733.81 24.1284C732.964 28.3333 735.573 29.3838 736.983 29.3835C735.925 24.1284 748.371 13.8372 760.245 24.1284C774.164 36.1915 752.844 66.1687 746.499 76.6788C741.424 85.0869 716.172 99.1076 694.095 129.948C672.018 160.788 609.085 198.353 528.702 180.636C548.253 165.284 556.785 153.127 546.855 145.159M811.659 7.35813C818.629 4.30877 824.63 6.69656 831.093 11.5147C848.011 24.1284 842.724 63.0149 824.748 75.627C834.265 77.0283 866.088 80.2901 891.366 109.259C911.506 132.341 907.806 134.916 924.145 147.096C934.367 143.242 955.655 133.432 959.039 125.024C962.508 116.404 975.226 104.248 983.187 110.595M811.659 7.35813C821.246 9.18459 834.427 18.8717 832.03 48.6475M983.187 110.595C984.932 111.986 986.448 114.266 987.589 117.667C993.933 136.585 966.441 152.351 951.637 152.351C939.794 152.351 928.374 151.65 924.144 151.3C939.3 176.874 971.939 230.335 981.244 239.584C992.875 251.145 1000.28 245.89 1003.45 241.686C1006.62 237.482 1019.56 222.641 1022.03 219.071C1025.24 214.438 1034.55 209.277 1041.8 213.542M983.187 110.595C982.103 116.042 976.733 128.952 963.923 137.016M1041.8 213.542C1045.07 215.463 1047.41 219.647 1047.41 227.479C1047.41 247.659 1014.73 250.445 997.105 253.247C1005.21 259.553 1025.44 272.165 1041.52 272.165C1061.61 272.165 1096.5 262.706 1097.56 260.604C1098.62 258.502 1091.21 254.298 1085.93 246.941C1080.64 239.584 1072.18 221.717 1082.76 216.462C1084.46 215.617 1086.38 215.206 1088.36 215.249M1041.8 213.542C1037.56 224.144 1028.37 238.677 1015.3 243.452M1044.37 332.42C1045.46 331.937 1046.62 331.135 1047.86 329.971C1063.09 315.677 1048.57 289.682 1039.4 278.471C1069.01 282.675 1091.76 271.602 1099.67 267.961C1115.67 260.604 1137.88 265.463 1145.14 266.91C1153.6 268.597 1159.95 275.318 1159.95 280.573C1159.95 285.829 1149.37 294.237 1151.49 294.237C1153.6 294.237 1164.18 288.982 1166.29 280.573C1168.4 272.165 1162.06 265.859 1153.6 262.706C1146.83 260.184 1123.91 257.388 1111.92 257.739C1118.69 254.375 1147.3 230.132 1158.58 221.023C1166.29 241.686 1193.63 243.028 1195.28 231.056M1044.37 332.42C1046.59 323.585 1050.25 311.416 1038 287.772M1088.36 215.249C1098.71 215.471 1110.83 228.01 1102.85 255.349C1116.59 246.241 1143.18 224.147 1150.43 216.462C1159.95 206.377 1165.23 197.544 1164.18 192.289C1163.12 187.034 1144.08 175.473 1139.86 164.963C1136.51 156.656 1135.15 149.663 1138.9 147.096M1088.36 215.249C1088.2 221.892 1089.37 237.531 1095.36 246.941M1138.9 147.096C1139.9 146.414 1141.25 146.045 1143.03 146.045C1151.49 146.045 1170.52 161.81 1168.4 188.085C1174.04 178.626 1183.63 155.924 1176.86 140.789C1168.4 121.871 1142.68 98.8716 1139.86 90.3411C1138.27 85.5594 1140.84 80.821 1144.14 78.1442M1138.9 147.096C1146.74 146.813 1157.27 162.487 1164.18 181.116M1144.14 78.1442C1150.41 73.0757 1162.22 74.4838 1170.52 88.2391C1180.67 105.055 1179.68 118.368 1177.92 122.922C1178.63 119.069 1182.15 109.68 1190.61 102.953C1195.17 99.3254 1198.95 100.198 1201.09 102.953M1144.14 78.1442C1150.23 75.5734 1166.78 98.6779 1170.52 113.474M1201.09 102.953C1203.9 106.584 1202.14 112.095 1199.07 117.667C1193.84 127.174 1191.38 129.445 1184.18 130.876C1178.89 131.927 1186.38 143.943 1184.27 156.555C1182.15 169.167 1175.98 202.142 1163.29 214.754C1173.16 212.302 1190.61 212.678 1194.84 226.972C1195.31 228.546 1195.43 229.9 1195.28 231.056M1201.09 102.953C1197.47 102.953 1189.35 106.505 1183.07 122.922M1195.28 231.056C1193.33 227.639 1185.62 221.023 1171.96 221.023M546.855 145.159C528.218 139.594 512.184 163.696 520.114 178.524C445.935 168.232 399.908 140.981 350.547 142.868C353.398 137.92 369.429 123.092 360.418 120.198M546.855 145.159C540.748 147 528.215 154.588 526.936 170.209M360.418 120.198C345.554 116.943 342.489 139.716 346.1 142.868C325.024 146.562 306.898 153.014 278.836 177.666C276.318 181.071 273.297 182.58 265.743 189.623C260.186 194.804 242.913 205.386 235.527 210.752C241.067 204.715 237.038 189.623 228.98 189.623C210.348 189.623 235.527 207.734 220.923 218.298C203.715 230.747 185.672 227.354 161.499 219.305C137.327 211.255 127.759 193.145 130.277 193.145C132.291 193.145 134.305 191.715 135.312 191.132C144.881 185.598 141.859 176.04 133.298 177.666C124.737 179.292 129.773 195.157 123.226 187.108C117.989 180.668 106.943 158.265 102.075 147.868C101.908 148.706 103.083 149.88 109.126 147.868C116.68 145.352 120.205 127.745 110.133 131.266C100.061 134.788 104.09 152.898 100.061 139.818C96.0323 126.738 99.0538 119.695 96.0323 117.18C93.615 115.168 92.3393 116.342 92.0035 117.18C87.9748 146.157 111.14 183.754 123.73 198.678C137.428 222.826 177.782 231.043 195.743 232.385C193.326 232.385 191.043 234.062 190.204 234.9C178.621 242.446 177.111 265.588 190.204 264.078C200.679 262.871 205.312 242.446 206.319 232.385C219.211 232.385 263.105 199.681 283.441 183.329C296.974 166.268 344.726 138.158 404.407 156.367C399.597 160.71 394.922 170.345 401.618 175.292C403.183 176.448 404.599 177.019 405.85 177.129M360.418 120.198C356.544 120.198 347.888 128.644 349.169 137.787M405.85 177.129C412.675 177.733 414.633 164.66 409.421 158.178C481.327 179.865 560.087 198.756 621.747 183.881C626.653 182.697 640.086 175.675 643.884 174.371C644.72 176.12 646.402 185.253 665.527 190.34C684.653 195.427 707.258 178.524 696.507 174.371M405.85 177.129C404.317 173.593 401.881 165.687 404.407 162.349M696.507 174.371C692.64 178.941 681.932 183.997 666.8 182.144C654.493 180.636 653.117 176.682 652.232 175.479" stroke="#3A2C08" stroke-width="0.3"/>
<g style="mix-blend-mode:multiply">
<path d="M197.758 230.875C197.758 231.68 196.751 232.217 196.247 232.384C191.476 231.502 183.635 230.955 176.103 229.366C169.326 227.936 162.798 225.479 158.981 224.335C148.909 221.317 136.823 212.764 132.795 209.746C129.572 207.331 125.409 201.026 123.73 198.175C122.387 196.498 119.198 192.541 117.183 190.126C114.665 187.107 103.586 166.984 101.572 162.96C99.5575 158.935 96.0323 149.88 95.0251 145.352C94.018 140.824 91.5 129.757 91.5 128.247C91.5 126.738 91.5 120.198 92.0036 117.683C92.4065 115.67 94.5215 116.173 95.5287 116.677C95.0251 126.738 94.0145 140.824 101.572 157.426C107.185 169.756 116.176 183.083 126.751 198.175C137.327 213.267 152.938 219.304 165.528 223.832C178.118 228.36 197.758 229.869 197.758 230.875Z" fill="#A9B87B"/>
</g>
<g style="mix-blend-mode:multiply">
<path d="M363.887 146.633C349.537 145.702 335.239 147.868 321.582 152.963C307.924 158.059 284.375 176.845 276.318 184.089C266.246 193.145 245.599 209.746 235.527 215.783C225.455 221.82 207.829 230.875 203.297 230.875C198.765 230.875 181.642 261.06 188.693 264.078C190.707 263.911 195.341 262.771 197.758 259.551C200.78 255.526 205.312 240.937 206.319 232.385C207.662 232.217 210.852 231.68 212.866 230.875C215.384 229.869 225.456 224.838 228.477 222.826C231.499 220.814 242.578 213.771 244.592 212.262C246.607 210.752 265.743 196.666 268.261 195.157C270.779 193.648 282.362 184.592 283.369 183.586C284.376 182.58 284.376 182.077 285.383 181.071C286.189 180.266 292.621 174.843 295.455 172.015C308.045 163.966 322.648 156.923 328.778 155.92C330.474 155.643 345.205 151.938 358.54 150.633C371.874 149.329 397.923 154.272 400.191 154.825C402.006 155.267 406.687 157.204 408.801 158.117L457.308 171.918L487.893 179.128L511.331 183.522C514.035 183.98 520.431 185.06 524.39 185.719C529.339 186.543 553.12 188.466 558.069 189.084C563.018 189.702 584.462 189.084 592.916 188.466C599.68 187.972 616.904 184.552 624.671 182.904L643.641 174.459L653.813 171.438C667.33 161.459 694.722 141.13 696.152 139.647C697.582 138.164 712.554 127.183 720 122L721.5 121C721.5 121 722 119 720.5 118.5C716.106 118.5 705.854 127.281 697.35 134.565L696.737 135.09C686.283 144.042 654.245 167.857 633.931 177.166C613.618 186.475 592.558 185.544 574.667 187.219C556.776 188.895 528.821 183.496 514.284 182.193C499.748 180.89 466.947 171.022 458.374 169.347C449.802 167.671 420.542 159.107 408.801 154.825C397.06 150.543 378.237 147.564 363.887 146.633Z" fill="#9BC89D"/>
</g>
<g style="mix-blend-mode:multiply">
<path d="M349.16 133.186C350.577 126.519 357.086 119.796 360.924 120.199C361.882 120.199 363.945 123.217 362.856 125.147C362.364 126.016 360.825 129.793 360.529 130.531C360.232 131.268 354.143 138.128 353.331 139.197C352.681 140.053 351.067 142.062 350.341 142.959C349.357 142.48 347.742 139.854 349.16 133.186Z" fill="#8AB98C"/>
</g>
<g style="mix-blend-mode:multiply">
<path d="M403.449 163.9C404.021 161.041 407.715 158.686 409.49 157.865C410.364 159.4 412.176 163.106 412.431 165.647C412.749 168.823 411.079 174.699 410.285 175.572C409.49 176.446 407.185 177.875 405.913 177.24C404.641 176.605 402.733 167.473 403.449 163.9Z" fill="#8AB98C"/>
</g>
<g style="mix-blend-mode:multiply">
<path d="M652.157 175.479C649.059 172.503 645.306 173.445 643.816 174.289C643.816 175.999 647.763 181.133 649.7 182.993C651.636 184.853 662.537 192.366 675.616 191.4C694.755 189.986 699.372 178.306 699.372 177.041C699.372 176.03 697.486 174.785 696.542 174.289C695.971 174.859 693.817 176.625 689.765 179.125C684.701 182.249 674.126 182.621 667.647 182.398C661.168 182.175 656.03 179.199 652.157 175.479Z" fill="#8AB98C"/>
</g>
<g style="mix-blend-mode:multiply">
<path d="M526.594 170.638C529.953 148.41 546.411 145.704 547.164 145.328C552.512 149.824 550.624 156.283 550.577 157.038C550.53 157.792 547.164 163.072 545.055 165.477C542.947 167.881 534.861 175.566 533.54 176.745C532.483 177.688 529.743 179.734 528.537 180.564C526.405 183.947 526.005 174.538 526.594 170.638Z" fill="#8AB98C"/>
</g>
<g style="mix-blend-mode:multiply">
<path d="M1182.82 131.254C1181.36 130.954 1182.55 125.345 1183.32 122.577C1184.07 119.407 1189.77 109.319 1193.06 106.66C1197.45 103.102 1198.92 103.726 1201.03 103.102C1201.41 103.559 1202.16 104.687 1202.16 105.536C1202.16 106.597 1202.41 109.281 1202.16 110.28C1201.91 111.279 1201.03 113.526 1200.15 115.524C1199.27 117.521 1198.33 119.643 1197.45 120.767C1196.57 121.891 1193.5 126.323 1192.55 127.321C1191.61 128.32 1188.41 129.943 1186.71 130.255C1185.02 130.567 1184.64 131.628 1182.82 131.254Z" fill="#8AB98C"/>
</g>
<g style="mix-blend-mode:multiply">
<path d="M1161 93.4307C1155.14 83.817 1149.2 79.0035 1146.31 77.875C1139.67 78.8905 1138.72 86.0225 1140.05 90.5531C1141.12 94.185 1147.84 101.885 1149.54 103.578C1151.25 105.27 1161.24 118.209 1164.4 121.189C1170.32 126.759 1171.74 119.681 1171.2 116.833C1170.14 111.153 1168.32 105.448 1161 93.4307Z" fill="#8AB98C"/>
</g>
<g style="mix-blend-mode:multiply">
<path d="M1150.34 154.624C1147.17 149.906 1140.92 146.426 1139.02 146.881C1133.84 150.879 1139.02 162.392 1139.46 163.803C1139.91 165.213 1142.06 169.387 1143.37 170.797C1144.67 172.208 1147.5 175.147 1148.63 176.381C1149.75 177.616 1154.11 181.238 1156.42 183.536C1158.27 185.375 1162.22 188.819 1163.97 190.311C1164.37 190.029 1164.94 187.819 1163.97 181.238C1162.75 173.011 1153.5 159.341 1150.34 154.624Z" fill="#8AB98C"/>
</g>
<g style="mix-blend-mode:multiply">
<path d="M826.277 17.3634C823.401 12.2181 816.451 8.47033 811.578 7.2793C800.394 11.8052 800.554 21.2541 803.11 24.986C804.212 26.595 809.341 34.1173 810.619 35.9435C811.897 37.7698 816.291 43.6456 817.25 44.916C818.208 46.1864 821.963 53.015 822.762 54.6031C823.401 55.8735 824.04 57.9909 824.28 58.8908C826.303 58.6791 830.702 56.2388 832.108 48.1715C833.866 38.0874 829.872 23.795 826.277 17.3634Z" fill="#8AB98C"/>
</g>
<g style="mix-blend-mode:multiply">
<path d="M952.016 152.395C938.322 145.49 979.986 137.024 982.525 110.629C986.819 110.629 988.13 119.503 988.403 123.954C988.654 128.037 984.572 137.45 975.528 143.387C968.996 147.674 960.122 152.001 952.016 152.395Z" fill="#8AB98C"/>
</g>
<g style="mix-blend-mode:multiply">
<path d="M848.115 92.4648C848.951 93.6848 849.86 95.1254 850.81 96.7399C855.596 106.736 858.135 125.554 858.27 127.706C858.429 130.233 850.907 150.022 849.85 153.761C848.725 157.741 832.807 182.753 833.487 189.29C833.868 192.953 837.348 199.41 840.98 201.198C854.357 187.606 865.059 157.989 865.059 137.968C865.058 125.571 857.067 107.379 850.81 96.7399C849.979 95.0045 849.081 93.5351 848.115 92.4648Z" fill="#8AB98C"/>
</g>
<g style="mix-blend-mode:multiply">
<path d="M730.002 117C763.67 105.743 778.453 147.687 778.848 160.264C777.776 161.596 774.256 161.23 772.104 161.063C767.428 160.7 762.367 157.511 761.206 154.892C760.13 152.466 748.608 133.3 746.502 130C742.992 124.5 738.002 116 730.002 117Z" fill="#8AB98C"/>
</g>
<g style="mix-blend-mode:multiply">
<path d="M1171.78 220.841C1165.72 220.841 1158.78 220.214 1158.46 220.277C1159.1 226.362 1168.63 234.643 1171.78 235.961C1173.48 236.67 1183.84 239.097 1188.95 237.717C1193.04 236.613 1194.65 232.447 1194.95 230.503C1194.44 229.729 1192.65 227.667 1189.52 225.609C1185.61 223.037 1177.84 220.841 1171.78 220.841Z" fill="#8AB98C"/>
</g>
<g style="mix-blend-mode:multiply">
<path d="M1094.86 246.991C1089.25 238.437 1088.16 222.12 1088.32 215.031C1076.95 213.84 1076.51 225.483 1078.07 231.317C1079.18 235.512 1083.41 243.272 1084.81 245.597C1086.21 247.921 1095.57 257.103 1096.85 258.381C1097.88 259.404 1097.83 260.124 1097.67 260.357C1099.07 259.466 1100.48 255.545 1094.86 246.991Z" fill="#8AB98C"/>
</g>
<g style="mix-blend-mode:multiply">
<path d="M1038.26 288.434C1037.01 286.201 1034.07 280.582 1032.76 278.051C1025.35 287.653 1028.38 308.867 1028.94 313.779C1029.5 318.692 1033.8 328.091 1036.58 330.639C1039.99 333.758 1041.97 332.425 1043.88 332.313C1044.44 330.192 1046.58 324.98 1046.58 316.236C1046.58 306.47 1039.84 291.226 1038.26 288.434Z" fill="#8AB98C"/>
</g>
<g style="mix-blend-mode:multiply">
<path d="M1015.45 243.224C1033.13 235.539 1041.03 214.976 1041.93 213.377C1043.25 214.296 1045.61 217.264 1046.57 221.418C1048.11 228.142 1046.18 233.714 1045.21 235.731C1044.25 237.749 1040.38 240.726 1036.9 243.224C1033.42 245.722 1019.02 249.66 1010.71 251.293C1004.06 252.6 998.663 252.991 996.794 253.023C995.055 249.949 997.761 250.909 1015.45 243.224Z" fill="#8AB98C"/>
</g>
<path d="M1137 5.4V18H1134.69V7.38H1128.16V18H1125.85V5.4H1137ZM1145.63 8.28C1146.56 8.28 1147.4 8.484 1148.13 8.892C1148.87 9.3 1149.45 9.876 1149.87 10.62C1150.29 11.364 1150.5 12.222 1150.5 13.194C1150.5 14.166 1150.29 15.03 1149.87 15.786C1149.45 16.53 1148.87 17.106 1148.13 17.514C1147.4 17.922 1146.56 18.126 1145.63 18.126C1144.33 18.126 1143.3 17.694 1142.55 16.83V21.492H1140.3V8.388H1142.44V9.648C1142.81 9.192 1143.27 8.85 1143.81 8.622C1144.36 8.394 1144.97 8.28 1145.63 8.28ZM1145.37 16.2C1146.2 16.2 1146.88 15.924 1147.41 15.372C1147.95 14.82 1148.22 14.094 1148.22 13.194C1148.22 12.294 1147.95 11.568 1147.41 11.016C1146.88 10.464 1146.2 10.188 1145.37 10.188C1144.83 10.188 1144.35 10.314 1143.92 10.566C1143.48 10.806 1143.14 11.154 1142.89 11.61C1142.64 12.066 1142.51 12.594 1142.51 13.194C1142.51 13.794 1142.64 14.322 1142.89 14.778C1143.14 15.234 1143.48 15.588 1143.92 15.84C1144.35 16.08 1144.83 16.2 1145.37 16.2ZM1157.03 18.126C1156.05 18.126 1155.18 17.916 1154.4 17.496C1153.62 17.076 1153.01 16.494 1152.56 15.75C1152.13 14.994 1151.91 14.142 1151.91 13.194C1151.91 12.246 1152.13 11.4 1152.56 10.656C1153.01 9.912 1153.62 9.33 1154.4 8.91C1155.18 8.49 1156.05 8.28 1157.03 8.28C1158.01 8.28 1158.89 8.49 1159.67 8.91C1160.45 9.33 1161.06 9.912 1161.49 10.656C1161.93 11.4 1162.16 12.246 1162.16 13.194C1162.16 14.142 1161.93 14.994 1161.49 15.75C1161.06 16.494 1160.45 17.076 1159.67 17.496C1158.89 17.916 1158.01 18.126 1157.03 18.126ZM1157.03 16.2C1157.85 16.2 1158.54 15.924 1159.08 15.372C1159.62 14.82 1159.89 14.094 1159.89 13.194C1159.89 12.294 1159.62 11.568 1159.08 11.016C1158.54 10.464 1157.85 10.188 1157.03 10.188C1156.2 10.188 1155.51 10.464 1154.97 11.016C1154.45 11.568 1154.18 12.294 1154.18 13.194C1154.18 14.094 1154.45 14.82 1154.97 15.372C1155.51 15.924 1156.2 16.2 1157.03 16.2ZM1174.53 16.092V20.142H1172.43V18H1165.01V20.142H1162.92V16.092H1163.37C1163.99 16.068 1164.4 15.678 1164.62 14.922C1164.84 14.154 1164.99 13.074 1165.07 11.682L1165.19 8.388H1173.11V16.092H1174.53ZM1167.12 11.844C1167.07 12.948 1166.98 13.848 1166.85 14.544C1166.72 15.24 1166.48 15.756 1166.13 16.092H1170.86V10.296H1167.17L1167.12 11.844ZM1180.13 8.28C1181.54 8.28 1182.62 8.622 1183.37 9.306C1184.12 9.978 1184.5 10.998 1184.5 12.366V18H1182.38V16.83C1182.1 17.25 1181.7 17.574 1181.19 17.802C1180.68 18.018 1180.07 18.126 1179.35 18.126C1178.63 18.126 1178 18.006 1177.46 17.766C1176.92 17.514 1176.5 17.172 1176.2 16.74C1175.91 16.296 1175.77 15.798 1175.77 15.246C1175.77 14.382 1176.09 13.692 1176.72 13.176C1177.37 12.648 1178.39 12.384 1179.77 12.384H1182.25V12.24C1182.25 11.568 1182.05 11.052 1181.64 10.692C1181.24 10.332 1180.65 10.152 1179.86 10.152C1179.32 10.152 1178.78 10.236 1178.25 10.404C1177.74 10.572 1177.3 10.806 1176.94 11.106L1176.06 9.468C1176.56 9.084 1177.17 8.79 1177.88 8.586C1178.58 8.382 1179.33 8.28 1180.13 8.28ZM1179.82 16.488C1180.38 16.488 1180.88 16.362 1181.31 16.11C1181.76 15.846 1182.07 15.474 1182.25 14.994V13.878H1179.93C1178.63 13.878 1177.98 14.304 1177.98 15.156C1177.98 15.564 1178.15 15.888 1178.47 16.128C1178.79 16.368 1179.24 16.488 1179.82 16.488ZM1194.25 12.996C1195.44 13.356 1196.03 14.124 1196.03 15.3C1196.03 16.164 1195.71 16.83 1195.06 17.298C1194.41 17.766 1193.45 18 1192.18 18H1187.28V8.388H1191.98C1193.16 8.388 1194.08 8.604 1194.74 9.036C1195.4 9.468 1195.73 10.08 1195.73 10.872C1195.73 11.364 1195.59 11.79 1195.33 12.15C1195.08 12.51 1194.72 12.792 1194.25 12.996ZM1189.43 12.402H1191.78C1192.95 12.402 1193.53 12 1193.53 11.196C1193.53 10.416 1192.95 10.026 1191.78 10.026H1189.43V12.402ZM1192 16.362C1193.24 16.362 1193.85 15.96 1193.85 15.156C1193.85 14.736 1193.71 14.424 1193.42 14.22C1193.13 14.004 1192.68 13.896 1192.07 13.896H1189.43V16.362H1192ZM1207.43 13.248C1207.43 13.404 1207.42 13.626 1207.39 13.914H1199.85C1199.98 14.622 1200.32 15.186 1200.88 15.606C1201.44 16.014 1202.14 16.218 1202.96 16.218C1204.02 16.218 1204.89 15.87 1205.57 15.174L1206.78 16.56C1206.35 17.076 1205.8 17.466 1205.14 17.73C1204.48 17.994 1203.74 18.126 1202.91 18.126C1201.85 18.126 1200.92 17.916 1200.12 17.496C1199.32 17.076 1198.69 16.494 1198.25 15.75C1197.82 14.994 1197.6 14.142 1197.6 13.194C1197.6 12.258 1197.81 11.418 1198.23 10.674C1198.66 9.918 1199.26 9.33 1200.01 8.91C1200.77 8.49 1201.62 8.28 1202.57 8.28C1203.5 8.28 1204.34 8.49 1205.07 8.91C1205.81 9.318 1206.39 9.9 1206.8 10.656C1207.22 11.4 1207.43 12.264 1207.43 13.248ZM1202.57 10.08C1201.85 10.08 1201.24 10.296 1200.73 10.728C1200.24 11.148 1199.94 11.712 1199.83 12.42H1205.29C1205.19 11.724 1204.9 11.16 1204.4 10.728C1203.91 10.296 1203.3 10.08 1202.57 10.08ZM1220.44 16.092V20.214H1218.33V18H1209.89V8.388H1212.14V16.092H1216.73V8.388H1218.98V16.092H1220.44ZM1102.35 32.388V42H1100.12V34.296H1095.39V42H1093.14V32.388H1102.35ZM1109.67 42.126C1108.7 42.126 1107.82 41.916 1107.04 41.496C1106.26 41.076 1105.65 40.494 1105.21 39.75C1104.78 38.994 1104.56 38.142 1104.56 37.194C1104.56 36.246 1104.78 35.4 1105.21 34.656C1105.65 33.912 1106.26 33.33 1107.04 32.91C1107.82 32.49 1108.7 32.28 1109.67 32.28C1110.66 32.28 1111.54 32.49 1112.32 32.91C1113.1 33.33 1113.7 33.912 1114.14 34.656C1114.58 35.4 1114.8 36.246 1114.8 37.194C1114.8 38.142 1114.58 38.994 1114.14 39.75C1113.7 40.494 1113.1 41.076 1112.32 41.496C1111.54 41.916 1110.66 42.126 1109.67 42.126ZM1109.67 40.2C1110.5 40.2 1111.18 39.924 1111.72 39.372C1112.26 38.82 1112.53 38.094 1112.53 37.194C1112.53 36.294 1112.26 35.568 1111.72 35.016C1111.18 34.464 1110.5 34.188 1109.67 34.188C1108.84 34.188 1108.16 34.464 1107.62 35.016C1107.09 35.568 1106.83 36.294 1106.83 37.194C1106.83 38.094 1107.09 38.82 1107.62 39.372C1108.16 39.924 1108.84 40.2 1109.67 40.2ZM1125.63 32.388V42H1123.38V34.296H1119.78L1119.69 36.204C1119.63 37.476 1119.51 38.544 1119.33 39.408C1119.16 40.26 1118.87 40.938 1118.45 41.442C1118.04 41.934 1117.48 42.18 1116.76 42.18C1116.42 42.18 1116.01 42.114 1115.51 41.982L1115.62 40.092C1115.79 40.128 1115.93 40.146 1116.05 40.146C1116.51 40.146 1116.85 39.966 1117.08 39.606C1117.31 39.234 1117.45 38.796 1117.51 38.292C1117.58 37.776 1117.64 37.044 1117.69 36.096L1117.85 32.388H1125.63ZM1137.73 32.388L1133.23 42.774C1132.81 43.818 1132.3 44.55 1131.7 44.97C1131.1 45.402 1130.38 45.618 1129.52 45.618C1129.04 45.618 1128.57 45.54 1128.1 45.384C1127.63 45.228 1127.25 45.012 1126.95 44.736L1127.85 43.08C1128.07 43.284 1128.32 43.446 1128.61 43.566C1128.91 43.686 1129.21 43.746 1129.51 43.746C1129.9 43.746 1130.23 43.644 1130.48 43.44C1130.74 43.236 1130.98 42.894 1131.2 42.414L1131.36 42.036L1127.17 32.388H1129.51L1132.53 39.498L1135.57 32.388H1137.73ZM1147.45 32.388V42H1145.2V38.274C1144.28 38.718 1143.31 38.94 1142.3 38.94C1141.07 38.94 1140.12 38.658 1139.46 38.094C1138.8 37.518 1138.47 36.642 1138.47 35.466V32.388H1140.72V35.322C1140.72 35.934 1140.9 36.39 1141.26 36.69C1141.62 36.99 1142.13 37.14 1142.79 37.14C1143.63 37.14 1144.43 36.96 1145.2 36.6V32.388H1147.45ZM1154.06 32.28C1155.47 32.28 1156.55 32.622 1157.3 33.306C1158.05 33.978 1158.43 34.998 1158.43 36.366V42H1156.31V40.83C1156.03 41.25 1155.63 41.574 1155.12 41.802C1154.61 42.018 1154 42.126 1153.28 42.126C1152.56 42.126 1151.93 42.006 1151.39 41.766C1150.85 41.514 1150.43 41.172 1150.13 40.74C1149.84 40.296 1149.7 39.798 1149.7 39.246C1149.7 38.382 1150.02 37.692 1150.65 37.176C1151.3 36.648 1152.32 36.384 1153.7 36.384H1156.18V36.24C1156.18 35.568 1155.98 35.052 1155.57 34.692C1155.17 34.332 1154.58 34.152 1153.79 34.152C1153.25 34.152 1152.71 34.236 1152.18 34.404C1151.67 34.572 1151.23 34.806 1150.87 35.106L1149.99 33.468C1150.49 33.084 1151.1 32.79 1151.81 32.586C1152.51 32.382 1153.26 32.28 1154.06 32.28ZM1153.75 40.488C1154.31 40.488 1154.81 40.362 1155.24 40.11C1155.69 39.846 1156 39.474 1156.18 38.994V37.878H1153.86C1152.56 37.878 1151.91 38.304 1151.91 39.156C1151.91 39.564 1152.08 39.888 1152.4 40.128C1152.72 40.368 1153.17 40.488 1153.75 40.488ZM1170.22 37.248C1170.22 37.404 1170.2 37.626 1170.18 37.914H1162.64C1162.77 38.622 1163.11 39.186 1163.66 39.606C1164.23 40.014 1164.92 40.218 1165.75 40.218C1166.81 40.218 1167.68 39.87 1168.36 39.174L1169.57 40.56C1169.14 41.076 1168.59 41.466 1167.93 41.73C1167.27 41.994 1166.53 42.126 1165.7 42.126C1164.64 42.126 1163.71 41.916 1162.91 41.496C1162.1 41.076 1161.48 40.494 1161.04 39.75C1160.6 38.994 1160.39 38.142 1160.39 37.194C1160.39 36.258 1160.6 35.418 1161.02 34.674C1161.45 33.918 1162.04 33.33 1162.8 32.91C1163.56 32.49 1164.41 32.28 1165.36 32.28C1166.29 32.28 1167.13 32.49 1167.86 32.91C1168.6 33.318 1169.18 33.9 1169.59 34.656C1170.01 35.4 1170.22 36.264 1170.22 37.248ZM1165.36 34.08C1164.64 34.08 1164.02 34.296 1163.52 34.728C1163.03 35.148 1162.73 35.712 1162.62 36.42H1168.07C1167.98 35.724 1167.68 35.16 1167.19 34.728C1166.7 34.296 1166.09 34.08 1165.36 34.08ZM1179.94 34.296H1176.57V42H1174.32V34.296H1170.94V32.388H1179.94V34.296ZM1196.81 40.092V44.142H1194.7V42H1187.28V44.142H1185.2V40.092H1185.65C1186.26 40.068 1186.67 39.678 1186.89 38.922C1187.12 38.154 1187.27 37.074 1187.34 35.682L1187.46 32.388H1195.38V40.092H1196.81ZM1189.39 35.844C1189.34 36.948 1189.25 37.848 1189.12 38.544C1188.99 39.24 1188.75 39.756 1188.4 40.092H1193.13V34.296H1189.44L1189.39 35.844ZM1207.81 37.248C1207.81 37.404 1207.8 37.626 1207.78 37.914H1200.24C1200.37 38.622 1200.71 39.186 1201.26 39.606C1201.83 40.014 1202.52 40.218 1203.35 40.218C1204.41 40.218 1205.28 39.87 1205.96 39.174L1207.17 40.56C1206.73 41.076 1206.19 41.466 1205.53 41.73C1204.87 41.994 1204.12 42.126 1203.3 42.126C1202.24 42.126 1201.31 41.916 1200.51 41.496C1199.7 41.076 1199.08 40.494 1198.63 39.75C1198.2 38.994 1197.99 38.142 1197.99 37.194C1197.99 36.258 1198.2 35.418 1198.62 34.674C1199.05 33.918 1199.64 33.33 1200.4 32.91C1201.15 32.49 1202.01 32.28 1202.95 32.28C1203.89 32.28 1204.72 32.49 1205.46 32.91C1206.2 33.318 1206.78 33.9 1207.18 34.656C1207.6 35.4 1207.81 36.264 1207.81 37.248ZM1202.95 34.08C1202.23 34.08 1201.62 34.296 1201.12 34.728C1200.63 35.148 1200.33 35.712 1200.22 36.42H1205.67C1205.58 35.724 1205.28 35.16 1204.79 34.728C1204.3 34.296 1203.69 34.08 1202.95 34.08ZM1210.28 32.388H1212.53V36.294H1217.37V32.388H1219.62V42H1217.37V38.202H1212.53V42H1210.28V32.388ZM1227.46 35.556C1228.68 35.556 1229.62 35.832 1230.27 36.384C1230.93 36.936 1231.26 37.716 1231.26 38.724C1231.26 39.78 1230.9 40.596 1230.18 41.172C1229.46 41.748 1228.44 42.03 1227.13 42.018L1222.63 42V32.388H1224.88V35.538L1227.46 35.556ZM1226.94 40.362C1227.6 40.374 1228.1 40.236 1228.45 39.948C1228.8 39.66 1228.97 39.24 1228.97 38.688C1228.97 38.148 1228.8 37.752 1228.47 37.5C1228.13 37.248 1227.62 37.116 1226.94 37.104L1224.88 37.086V40.344L1226.94 40.362ZM1240.61 34.296H1235.48V42H1233.23V32.388H1240.61V34.296ZM1242.25 32.388H1244.5V38.724L1249.81 32.388H1251.86V42H1249.61V35.664L1244.32 42H1242.25V32.388Z" fill="#0E0E0E"/>
<g filter="url(#filter0_d)">
<circle cx="1176" cy="114.5" r="52.5" fill="white"/>
<circle cx="1176" cy="114.5" r="51" stroke="#79A000" stroke-width="3"/>
</g>
<path d="M1187.9 121.002H1184.02V126H1178.65V121.002H1165.83V117.296L1177.05 102.2H1182.83L1172.43 116.514H1178.82V112.06H1184.02V116.514H1187.9V121.002Z" fill="#417400"/>
<path d="M736.496 249.4V262H734.192V251.38H727.658V262H725.354V249.4H736.496ZM745.125 252.28C746.061 252.28 746.895 252.484 747.627 252.892C748.371 253.3 748.953 253.876 749.373 254.62C749.793 255.364 750.003 256.222 750.003 257.194C750.003 258.166 749.793 259.03 749.373 259.786C748.953 260.53 748.371 261.106 747.627 261.514C746.895 261.922 746.061 262.126 745.125 262.126C743.829 262.126 742.803 261.694 742.047 260.83V265.492H739.797V252.388H741.939V253.648C742.311 253.192 742.767 252.85 743.307 252.622C743.859 252.394 744.465 252.28 745.125 252.28ZM744.873 260.2C745.701 260.2 746.379 259.924 746.907 259.372C747.447 258.82 747.717 258.094 747.717 257.194C747.717 256.294 747.447 255.568 746.907 255.016C746.379 254.464 745.701 254.188 744.873 254.188C744.333 254.188 743.847 254.314 743.415 254.566C742.983 254.806 742.641 255.154 742.389 255.61C742.137 256.066 742.011 256.594 742.011 257.194C742.011 257.794 742.137 258.322 742.389 258.778C742.641 259.234 742.983 259.588 743.415 259.84C743.847 260.08 744.333 260.2 744.873 260.2ZM756.526 262.126C755.554 262.126 754.678 261.916 753.898 261.496C753.118 261.076 752.506 260.494 752.062 259.75C751.63 258.994 751.414 258.142 751.414 257.194C751.414 256.246 751.63 255.4 752.062 254.656C752.506 253.912 753.118 253.33 753.898 252.91C754.678 252.49 755.554 252.28 756.526 252.28C757.51 252.28 758.392 252.49 759.172 252.91C759.952 253.33 760.558 253.912 760.99 254.656C761.434 255.4 761.656 256.246 761.656 257.194C761.656 258.142 761.434 258.994 760.99 259.75C760.558 260.494 759.952 261.076 759.172 261.496C758.392 261.916 757.51 262.126 756.526 262.126ZM756.526 260.2C757.354 260.2 758.038 259.924 758.578 259.372C759.118 258.82 759.388 258.094 759.388 257.194C759.388 256.294 759.118 255.568 758.578 255.016C758.038 254.464 757.354 254.188 756.526 254.188C755.698 254.188 755.014 254.464 754.474 255.016C753.946 255.568 753.682 256.294 753.682 257.194C753.682 258.094 753.946 258.82 754.474 259.372C755.014 259.924 755.698 260.2 756.526 260.2ZM774.034 260.092V264.142H771.928V262H764.512V264.142H762.424V260.092H762.874C763.486 260.068 763.9 259.678 764.116 258.922C764.344 258.154 764.494 257.074 764.566 255.682L764.692 252.388H772.612V260.092H774.034ZM766.618 255.844C766.57 256.948 766.48 257.848 766.348 258.544C766.216 259.24 765.976 259.756 765.628 260.092H770.362V254.296H766.672L766.618 255.844ZM779.625 252.28C781.041 252.28 782.121 252.622 782.865 253.306C783.621 253.978 783.999 254.998 783.999 256.366V262H781.875V260.83C781.599 261.25 781.203 261.574 780.687 261.802C780.183 262.018 779.571 262.126 778.851 262.126C778.131 262.126 777.501 262.006 776.961 261.766C776.421 261.514 776.001 261.172 775.701 260.74C775.413 260.296 775.269 259.798 775.269 259.246C775.269 258.382 775.587 257.692 776.223 257.176C776.871 256.648 777.885 256.384 779.265 256.384H781.749V256.24C781.749 255.568 781.545 255.052 781.137 254.692C780.741 254.332 780.147 254.152 779.355 254.152C778.815 254.152 778.281 254.236 777.753 254.404C777.237 254.572 776.799 254.806 776.439 255.106L775.557 253.468C776.061 253.084 776.667 252.79 777.375 252.586C778.083 252.382 778.833 252.28 779.625 252.28ZM779.319 260.488C779.883 260.488 780.381 260.362 780.813 260.11C781.257 259.846 781.569 259.474 781.749 258.994V257.878H779.427C778.131 257.878 777.483 258.304 777.483 259.156C777.483 259.564 777.645 259.888 777.969 260.128C778.293 260.368 778.743 260.488 779.319 260.488ZM793.749 256.996C794.937 257.356 795.531 258.124 795.531 259.3C795.531 260.164 795.207 260.83 794.559 261.298C793.911 261.766 792.951 262 791.679 262H786.783V252.388H791.481C792.657 252.388 793.575 252.604 794.235 253.036C794.895 253.468 795.225 254.08 795.225 254.872C795.225 255.364 795.093 255.79 794.829 256.15C794.577 256.51 794.217 256.792 793.749 256.996ZM788.925 256.402H791.283C792.447 256.402 793.029 256 793.029 255.196C793.029 254.416 792.447 254.026 791.283 254.026H788.925V256.402ZM791.499 260.362C792.735 260.362 793.353 259.96 793.353 259.156C793.353 258.736 793.209 258.424 792.921 258.22C792.633 258.004 792.183 257.896 791.571 257.896H788.925V260.362H791.499ZM806.928 257.248C806.928 257.404 806.916 257.626 806.892 257.914H799.35C799.482 258.622 799.824 259.186 800.376 259.606C800.94 260.014 801.636 260.218 802.464 260.218C803.52 260.218 804.39 259.87 805.074 259.174L806.28 260.56C805.848 261.076 805.302 261.466 804.642 261.73C803.982 261.994 803.238 262.126 802.41 262.126C801.354 262.126 800.424 261.916 799.62 261.496C798.816 261.076 798.192 260.494 797.748 259.75C797.316 258.994 797.1 258.142 797.1 257.194C797.1 256.258 797.31 255.418 797.73 254.674C798.162 253.918 798.756 253.33 799.512 252.91C800.268 252.49 801.12 252.28 802.068 252.28C803.004 252.28 803.838 252.49 804.57 252.91C805.314 253.318 805.89 253.9 806.298 254.656C806.718 255.4 806.928 256.264 806.928 257.248ZM802.068 254.08C801.348 254.08 800.736 254.296 800.232 254.728C799.74 255.148 799.44 255.712 799.332 256.42H804.786C804.69 255.724 804.396 255.16 803.904 254.728C803.412 254.296 802.8 254.08 802.068 254.08ZM819.937 260.092V264.214H817.831V262H809.389V252.388H811.639V260.092H816.229V252.388H818.479V260.092H819.937ZM699.564 284.092V288.142H697.458V286H690.042V288.142H687.954V284.092H688.404C689.016 284.068 689.43 283.678 689.646 282.922C689.874 282.154 690.024 281.074 690.096 279.682L690.222 276.388H698.142V284.092H699.564ZM692.148 279.844C692.1 280.948 692.01 281.848 691.878 282.544C691.746 283.24 691.506 283.756 691.158 284.092H695.892V278.296H692.202L692.148 279.844ZM705.858 286.126C704.886 286.126 704.01 285.916 703.23 285.496C702.45 285.076 701.838 284.494 701.394 283.75C700.962 282.994 700.746 282.142 700.746 281.194C700.746 280.246 700.962 279.4 701.394 278.656C701.838 277.912 702.45 277.33 703.23 276.91C704.01 276.49 704.886 276.28 705.858 276.28C706.842 276.28 707.724 276.49 708.504 276.91C709.284 277.33 709.89 277.912 710.322 278.656C710.766 279.4 710.988 280.246 710.988 281.194C710.988 282.142 710.766 282.994 710.322 283.75C709.89 284.494 709.284 285.076 708.504 285.496C707.724 285.916 706.842 286.126 705.858 286.126ZM705.858 284.2C706.686 284.2 707.37 283.924 707.91 283.372C708.45 282.82 708.72 282.094 708.72 281.194C708.72 280.294 708.45 279.568 707.91 279.016C707.37 278.464 706.686 278.188 705.858 278.188C705.03 278.188 704.346 278.464 703.806 279.016C703.278 279.568 703.014 280.294 703.014 281.194C703.014 282.094 703.278 282.82 703.806 283.372C704.346 283.924 705.03 284.2 705.858 284.2ZM717.584 286.126C716.588 286.126 715.694 285.916 714.902 285.496C714.11 285.076 713.492 284.494 713.048 283.75C712.604 282.994 712.382 282.142 712.382 281.194C712.382 280.246 712.604 279.4 713.048 278.656C713.492 277.912 714.104 277.33 714.884 276.91C715.676 276.49 716.576 276.28 717.584 276.28C718.532 276.28 719.36 276.472 720.068 276.856C720.788 277.24 721.328 277.792 721.688 278.512L719.96 279.52C719.684 279.076 719.336 278.746 718.916 278.53C718.508 278.302 718.058 278.188 717.566 278.188C716.726 278.188 716.03 278.464 715.478 279.016C714.926 279.556 714.65 280.282 714.65 281.194C714.65 282.106 714.92 282.838 715.46 283.39C716.012 283.93 716.714 284.2 717.566 284.2C718.058 284.2 718.508 284.092 718.916 283.876C719.336 283.648 719.684 283.312 719.96 282.868L721.688 283.876C721.316 284.596 720.77 285.154 720.05 285.55C719.342 285.934 718.52 286.126 717.584 286.126ZM731.195 278.296H727.829V286H725.579V278.296H722.195V276.388H731.195V278.296ZM736.409 276.28C737.825 276.28 738.905 276.622 739.649 277.306C740.405 277.978 740.783 278.998 740.783 280.366V286H738.659V284.83C738.383 285.25 737.987 285.574 737.471 285.802C736.967 286.018 736.355 286.126 735.635 286.126C734.915 286.126 734.285 286.006 733.745 285.766C733.205 285.514 732.785 285.172 732.485 284.74C732.197 284.296 732.053 283.798 732.053 283.246C732.053 282.382 732.371 281.692 733.007 281.176C733.655 280.648 734.669 280.384 736.049 280.384H738.533V280.24C738.533 279.568 738.329 279.052 737.921 278.692C737.525 278.332 736.931 278.152 736.139 278.152C735.599 278.152 735.065 278.236 734.537 278.404C734.021 278.572 733.583 278.806 733.223 279.106L732.341 277.468C732.845 277.084 733.451 276.79 734.159 276.586C734.867 276.382 735.617 276.28 736.409 276.28ZM736.103 284.488C736.667 284.488 737.165 284.362 737.597 284.11C738.041 283.846 738.353 283.474 738.533 282.994V281.878H736.211C734.915 281.878 734.267 282.304 734.267 283.156C734.267 283.564 734.429 283.888 734.753 284.128C735.077 284.368 735.527 284.488 736.103 284.488ZM750.534 280.996C751.722 281.356 752.316 282.124 752.316 283.3C752.316 284.164 751.992 284.83 751.344 285.298C750.696 285.766 749.736 286 748.464 286H743.568V276.388H748.266C749.442 276.388 750.36 276.604 751.02 277.036C751.68 277.468 752.01 278.08 752.01 278.872C752.01 279.364 751.878 279.79 751.614 280.15C751.362 280.51 751.002 280.792 750.534 280.996ZM745.71 280.402H748.068C749.232 280.402 749.814 280 749.814 279.196C749.814 278.416 749.232 278.026 748.068 278.026H745.71V280.402ZM748.284 284.362C749.52 284.362 750.138 283.96 750.138 283.156C750.138 282.736 749.994 282.424 749.706 282.22C749.418 282.004 748.968 281.896 748.356 281.896H745.71V284.362H748.284ZM763.424 276.388V286H761.174V278.296H757.574L757.484 280.204C757.424 281.476 757.304 282.544 757.124 283.408C756.956 284.26 756.662 284.938 756.242 285.442C755.834 285.934 755.27 286.18 754.55 286.18C754.214 286.18 753.8 286.114 753.308 285.982L753.416 284.092C753.584 284.128 753.728 284.146 753.848 284.146C754.304 284.146 754.646 283.966 754.874 283.606C755.102 283.234 755.246 282.796 755.306 282.292C755.378 281.776 755.438 281.044 755.486 280.096L755.648 276.388H763.424ZM774.572 276.388V286H772.556V283.102H770.018L768.056 286H765.644L767.912 282.796C767.216 282.556 766.682 282.19 766.31 281.698C765.95 281.194 765.77 280.576 765.77 279.844C765.77 278.74 766.16 277.888 766.94 277.288C767.72 276.688 768.794 276.388 770.162 276.388H774.572ZM770.234 278.278C768.782 278.278 768.056 278.824 768.056 279.916C768.056 280.996 768.758 281.536 770.162 281.536H772.556V278.278H770.234ZM786.599 281.248C786.599 281.404 786.587 281.626 786.563 281.914H779.021C779.153 282.622 779.495 283.186 780.047 283.606C780.611 284.014 781.307 284.218 782.135 284.218C783.191 284.218 784.061 283.87 784.745 283.174L785.951 284.56C785.519 285.076 784.973 285.466 784.313 285.73C783.653 285.994 782.909 286.126 782.081 286.126C781.025 286.126 780.095 285.916 779.291 285.496C778.487 285.076 777.863 284.494 777.419 283.75C776.987 282.994 776.771 282.142 776.771 281.194C776.771 280.258 776.981 279.418 777.401 278.674C777.833 277.918 778.427 277.33 779.183 276.91C779.939 276.49 780.791 276.28 781.739 276.28C782.675 276.28 783.509 276.49 784.241 276.91C784.985 277.318 785.561 277.9 785.969 278.656C786.389 279.4 786.599 280.264 786.599 281.248ZM781.739 278.08C781.019 278.08 780.407 278.296 779.903 278.728C779.411 279.148 779.111 279.712 779.003 280.42H784.457C784.361 279.724 784.067 279.16 783.575 278.728C783.083 278.296 782.471 278.08 781.739 278.08ZM796.322 278.296H792.956V286H790.706V278.296H787.322V276.388H796.322V278.296ZM810.543 278.296H807.177V286H804.927V278.296H801.543V276.388H810.543V278.296ZM816.037 286.126C815.065 286.126 814.189 285.916 813.409 285.496C812.629 285.076 812.017 284.494 811.573 283.75C811.141 282.994 810.925 282.142 810.925 281.194C810.925 280.246 811.141 279.4 811.573 278.656C812.017 277.912 812.629 277.33 813.409 276.91C814.189 276.49 815.065 276.28 816.037 276.28C817.021 276.28 817.903 276.49 818.683 276.91C819.463 277.33 820.069 277.912 820.501 278.656C820.945 279.4 821.167 280.246 821.167 281.194C821.167 282.142 820.945 282.994 820.501 283.75C820.069 284.494 819.463 285.076 818.683 285.496C817.903 285.916 817.021 286.126 816.037 286.126ZM816.037 284.2C816.865 284.2 817.549 283.924 818.089 283.372C818.629 282.82 818.899 282.094 818.899 281.194C818.899 280.294 818.629 279.568 818.089 279.016C817.549 278.464 816.865 278.188 816.037 278.188C815.209 278.188 814.525 278.464 813.985 279.016C813.457 279.568 813.193 280.294 813.193 281.194C813.193 282.094 813.457 282.82 813.985 283.372C814.525 283.924 815.209 284.2 816.037 284.2ZM830.356 280.996C831.544 281.356 832.138 282.124 832.138 283.3C832.138 284.164 831.814 284.83 831.166 285.298C830.518 285.766 829.558 286 828.286 286H823.39V276.388H828.088C829.264 276.388 830.182 276.604 830.842 277.036C831.502 277.468 831.832 278.08 831.832 278.872C831.832 279.364 831.7 279.79 831.436 280.15C831.184 280.51 830.824 280.792 830.356 280.996ZM825.532 280.402H827.89C829.054 280.402 829.636 280 829.636 279.196C829.636 278.416 829.054 278.026 827.89 278.026H825.532V280.402ZM828.106 284.362C829.342 284.362 829.96 283.96 829.96 283.156C829.96 282.736 829.816 282.424 829.528 282.22C829.24 282.004 828.79 281.896 828.178 281.896H825.532V284.362H828.106ZM838.116 276.28C839.532 276.28 840.612 276.622 841.356 277.306C842.112 277.978 842.49 278.998 842.49 280.366V286H840.366V284.83C840.09 285.25 839.694 285.574 839.178 285.802C838.674 286.018 838.062 286.126 837.342 286.126C836.622 286.126 835.992 286.006 835.452 285.766C834.912 285.514 834.492 285.172 834.192 284.74C833.904 284.296 833.76 283.798 833.76 283.246C833.76 282.382 834.078 281.692 834.714 281.176C835.362 280.648 836.376 280.384 837.756 280.384H840.24V280.24C840.24 279.568 840.036 279.052 839.628 278.692C839.232 278.332 838.638 278.152 837.846 278.152C837.306 278.152 836.772 278.236 836.244 278.404C835.728 278.572 835.29 278.806 834.93 279.106L834.048 277.468C834.552 277.084 835.158 276.79 835.866 276.586C836.574 276.382 837.324 276.28 838.116 276.28ZM837.81 284.488C838.374 284.488 838.872 284.362 839.304 284.11C839.748 283.846 840.06 283.474 840.24 282.994V281.878H837.918C836.622 281.878 835.974 282.304 835.974 283.156C835.974 283.564 836.136 283.888 836.46 284.128C836.784 284.368 837.234 284.488 837.81 284.488ZM850.603 276.28C851.539 276.28 852.373 276.484 853.105 276.892C853.849 277.3 854.431 277.876 854.851 278.62C855.271 279.364 855.481 280.222 855.481 281.194C855.481 282.166 855.271 283.03 854.851 283.786C854.431 284.53 853.849 285.106 853.105 285.514C852.373 285.922 851.539 286.126 850.603 286.126C849.307 286.126 848.281 285.694 847.525 284.83V289.492H845.275V276.388H847.417V277.648C847.789 277.192 848.245 276.85 848.785 276.622C849.337 276.394 849.943 276.28 850.603 276.28ZM850.351 284.2C851.179 284.2 851.857 283.924 852.385 283.372C852.925 282.82 853.195 282.094 853.195 281.194C853.195 280.294 852.925 279.568 852.385 279.016C851.857 278.464 851.179 278.188 850.351 278.188C849.811 278.188 849.325 278.314 848.893 278.566C848.461 278.806 848.119 279.154 847.867 279.61C847.615 280.066 847.489 280.594 847.489 281.194C847.489 281.794 847.615 282.322 847.867 282.778C848.119 283.234 848.461 283.588 848.893 283.84C849.325 284.08 849.811 284.2 850.351 284.2Z" fill="#0E0E0E"/>
<g filter="url(#filter1_d)">
<circle cx="772" cy="169.5" r="52.5" fill="white"/>
<circle cx="772" cy="169.5" r="51" stroke="#79A000" stroke-width="3"/>
</g>
<path d="M775.383 166.89C777.469 167.23 779.067 168.012 780.177 169.236C781.288 170.437 781.843 171.933 781.843 173.724C781.843 175.107 781.481 176.387 780.755 177.566C780.03 178.722 778.919 179.651 777.423 180.354C775.95 181.057 774.137 181.408 771.983 181.408C770.306 181.408 768.651 181.193 767.019 180.762C765.41 180.309 764.039 179.674 762.905 178.858L765.047 174.642C765.954 175.322 766.997 175.855 768.175 176.24C769.377 176.603 770.601 176.784 771.847 176.784C773.23 176.784 774.318 176.523 775.111 176.002C775.905 175.458 776.301 174.699 776.301 173.724C776.301 171.775 774.817 170.8 771.847 170.8H769.331V167.162L774.227 161.62H764.095V157.2H780.755V160.77L775.383 166.89Z" fill="#417400"/>
<path d="M477.509 252.4V265H475.205V254.38H468.671V265H466.367V252.4H477.509ZM486.138 255.28C487.074 255.28 487.908 255.484 488.64 255.892C489.384 256.3 489.966 256.876 490.386 257.62C490.806 258.364 491.016 259.222 491.016 260.194C491.016 261.166 490.806 262.03 490.386 262.786C489.966 263.53 489.384 264.106 488.64 264.514C487.908 264.922 487.074 265.126 486.138 265.126C484.842 265.126 483.816 264.694 483.06 263.83V268.492H480.81V255.388H482.952V256.648C483.324 256.192 483.78 255.85 484.32 255.622C484.872 255.394 485.478 255.28 486.138 255.28ZM485.886 263.2C486.714 263.2 487.392 262.924 487.92 262.372C488.46 261.82 488.73 261.094 488.73 260.194C488.73 259.294 488.46 258.568 487.92 258.016C487.392 257.464 486.714 257.188 485.886 257.188C485.346 257.188 484.86 257.314 484.428 257.566C483.996 257.806 483.654 258.154 483.402 258.61C483.15 259.066 483.024 259.594 483.024 260.194C483.024 260.794 483.15 261.322 483.402 261.778C483.654 262.234 483.996 262.588 484.428 262.84C484.86 263.08 485.346 263.2 485.886 263.2ZM497.539 265.126C496.567 265.126 495.691 264.916 494.911 264.496C494.131 264.076 493.519 263.494 493.075 262.75C492.643 261.994 492.427 261.142 492.427 260.194C492.427 259.246 492.643 258.4 493.075 257.656C493.519 256.912 494.131 256.33 494.911 255.91C495.691 255.49 496.567 255.28 497.539 255.28C498.523 255.28 499.405 255.49 500.185 255.91C500.965 256.33 501.571 256.912 502.003 257.656C502.447 258.4 502.669 259.246 502.669 260.194C502.669 261.142 502.447 261.994 502.003 262.75C501.571 263.494 500.965 264.076 500.185 264.496C499.405 264.916 498.523 265.126 497.539 265.126ZM497.539 263.2C498.367 263.2 499.051 262.924 499.591 262.372C500.131 261.82 500.401 261.094 500.401 260.194C500.401 259.294 500.131 258.568 499.591 258.016C499.051 257.464 498.367 257.188 497.539 257.188C496.711 257.188 496.027 257.464 495.487 258.016C494.959 258.568 494.695 259.294 494.695 260.194C494.695 261.094 494.959 261.82 495.487 262.372C496.027 262.924 496.711 263.2 497.539 263.2ZM515.046 263.092V267.142H512.94V265H505.524V267.142H503.436V263.092H503.886C504.498 263.068 504.912 262.678 505.128 261.922C505.356 261.154 505.506 260.074 505.578 258.682L505.704 255.388H513.624V263.092H515.046ZM507.63 258.844C507.582 259.948 507.492 260.848 507.36 261.544C507.228 262.24 506.988 262.756 506.64 263.092H511.374V257.296H507.684L507.63 258.844ZM520.638 255.28C522.054 255.28 523.134 255.622 523.878 256.306C524.634 256.978 525.012 257.998 525.012 259.366V265H522.888V263.83C522.612 264.25 522.216 264.574 521.7 264.802C521.196 265.018 520.584 265.126 519.864 265.126C519.144 265.126 518.514 265.006 517.974 264.766C517.434 264.514 517.014 264.172 516.714 263.74C516.426 263.296 516.282 262.798 516.282 262.246C516.282 261.382 516.6 260.692 517.236 260.176C517.884 259.648 518.898 259.384 520.278 259.384H522.762V259.24C522.762 258.568 522.558 258.052 522.15 257.692C521.754 257.332 521.16 257.152 520.368 257.152C519.828 257.152 519.294 257.236 518.766 257.404C518.25 257.572 517.812 257.806 517.452 258.106L516.57 256.468C517.074 256.084 517.68 255.79 518.388 255.586C519.096 255.382 519.846 255.28 520.638 255.28ZM520.332 263.488C520.896 263.488 521.394 263.362 521.826 263.11C522.27 262.846 522.582 262.474 522.762 261.994V260.878H520.44C519.144 260.878 518.496 261.304 518.496 262.156C518.496 262.564 518.658 262.888 518.982 263.128C519.306 263.368 519.756 263.488 520.332 263.488ZM534.762 259.996C535.95 260.356 536.544 261.124 536.544 262.3C536.544 263.164 536.22 263.83 535.572 264.298C534.924 264.766 533.964 265 532.692 265H527.796V255.388H532.494C533.67 255.388 534.588 255.604 535.248 256.036C535.908 256.468 536.238 257.08 536.238 257.872C536.238 258.364 536.106 258.79 535.842 259.15C535.59 259.51 535.23 259.792 534.762 259.996ZM529.938 259.402H532.296C533.46 259.402 534.042 259 534.042 258.196C534.042 257.416 533.46 257.026 532.296 257.026H529.938V259.402ZM532.512 263.362C533.748 263.362 534.366 262.96 534.366 262.156C534.366 261.736 534.222 261.424 533.934 261.22C533.646 261.004 533.196 260.896 532.584 260.896H529.938V263.362H532.512ZM547.941 260.248C547.941 260.404 547.929 260.626 547.905 260.914H540.363C540.495 261.622 540.837 262.186 541.389 262.606C541.953 263.014 542.649 263.218 543.477 263.218C544.533 263.218 545.403 262.87 546.087 262.174L547.293 263.56C546.861 264.076 546.315 264.466 545.655 264.73C544.995 264.994 544.251 265.126 543.423 265.126C542.367 265.126 541.437 264.916 540.633 264.496C539.829 264.076 539.205 263.494 538.761 262.75C538.329 261.994 538.113 261.142 538.113 260.194C538.113 259.258 538.323 258.418 538.743 257.674C539.175 256.918 539.769 256.33 540.525 255.91C541.281 255.49 542.133 255.28 543.081 255.28C544.017 255.28 544.851 255.49 545.583 255.91C546.327 256.318 546.903 256.9 547.311 257.656C547.731 258.4 547.941 259.264 547.941 260.248ZM543.081 257.08C542.361 257.08 541.749 257.296 541.245 257.728C540.753 258.148 540.453 258.712 540.345 259.42H545.799C545.703 258.724 545.409 258.16 544.917 257.728C544.425 257.296 543.813 257.08 543.081 257.08ZM560.95 263.092V267.214H558.844V265H550.402V255.388H552.652V263.092H557.242V255.388H559.492V263.092H560.95ZM424.792 289.126C423.82 289.126 422.944 288.916 422.164 288.496C421.384 288.076 420.772 287.494 420.328 286.75C419.896 285.994 419.68 285.142 419.68 284.194C419.68 283.246 419.896 282.4 420.328 281.656C420.772 280.912 421.384 280.33 422.164 279.91C422.944 279.49 423.82 279.28 424.792 279.28C425.776 279.28 426.658 279.49 427.438 279.91C428.218 280.33 428.824 280.912 429.256 281.656C429.7 282.4 429.922 283.246 429.922 284.194C429.922 285.142 429.7 285.994 429.256 286.75C428.824 287.494 428.218 288.076 427.438 288.496C426.658 288.916 425.776 289.126 424.792 289.126ZM424.792 287.2C425.62 287.2 426.304 286.924 426.844 286.372C427.384 285.82 427.654 285.094 427.654 284.194C427.654 283.294 427.384 282.568 426.844 282.016C426.304 281.464 425.62 281.188 424.792 281.188C423.964 281.188 423.28 281.464 422.74 282.016C422.212 282.568 421.948 283.294 421.948 284.194C421.948 285.094 422.212 285.82 422.74 286.372C423.28 286.924 423.964 287.2 424.792 287.2ZM437.347 279.856C438.259 279.856 439.063 280.054 439.759 280.45C440.455 280.834 440.995 281.374 441.379 282.07C441.775 282.766 441.973 283.564 441.973 284.464C441.973 285.388 441.757 286.21 441.325 286.93C440.893 287.638 440.287 288.19 439.507 288.586C438.727 288.982 437.839 289.18 436.843 289.18C435.175 289.18 433.885 288.628 432.973 287.524C432.061 286.42 431.605 284.83 431.605 282.754C431.605 280.822 432.019 279.292 432.847 278.164C433.675 277.036 434.941 276.292 436.645 275.932L441.109 274.978L441.433 276.994L437.383 277.822C436.219 278.062 435.349 278.47 434.773 279.046C434.197 279.622 433.861 280.432 433.765 281.476C434.197 280.96 434.719 280.564 435.331 280.288C435.943 280 436.615 279.856 437.347 279.856ZM436.897 287.362C437.725 287.362 438.391 287.098 438.895 286.57C439.411 286.03 439.669 285.346 439.669 284.518C439.669 283.69 439.411 283.024 438.895 282.52C438.391 282.016 437.725 281.764 436.897 281.764C436.057 281.764 435.379 282.016 434.863 282.52C434.347 283.024 434.089 283.69 434.089 284.518C434.089 285.358 434.347 286.042 434.863 286.57C435.391 287.098 436.069 287.362 436.897 287.362ZM449.479 279.28C450.415 279.28 451.249 279.484 451.981 279.892C452.725 280.3 453.307 280.876 453.727 281.62C454.147 282.364 454.357 283.222 454.357 284.194C454.357 285.166 454.147 286.03 453.727 286.786C453.307 287.53 452.725 288.106 451.981 288.514C451.249 288.922 450.415 289.126 449.479 289.126C448.183 289.126 447.157 288.694 446.401 287.83V292.492H444.151V279.388H446.293V280.648C446.665 280.192 447.121 279.85 447.661 279.622C448.213 279.394 448.819 279.28 449.479 279.28ZM449.227 287.2C450.055 287.2 450.733 286.924 451.261 286.372C451.801 285.82 452.071 285.094 452.071 284.194C452.071 283.294 451.801 282.568 451.261 282.016C450.733 281.464 450.055 281.188 449.227 281.188C448.687 281.188 448.201 281.314 447.769 281.566C447.337 281.806 446.995 282.154 446.743 282.61C446.491 283.066 446.365 283.594 446.365 284.194C446.365 284.794 446.491 285.322 446.743 285.778C446.995 286.234 447.337 286.588 447.769 286.84C448.201 287.08 448.687 287.2 449.227 287.2ZM460.055 279.28C461.471 279.28 462.551 279.622 463.295 280.306C464.051 280.978 464.429 281.998 464.429 283.366V289H462.305V287.83C462.029 288.25 461.633 288.574 461.117 288.802C460.613 289.018 460.001 289.126 459.281 289.126C458.561 289.126 457.931 289.006 457.391 288.766C456.851 288.514 456.431 288.172 456.131 287.74C455.843 287.296 455.699 286.798 455.699 286.246C455.699 285.382 456.017 284.692 456.653 284.176C457.301 283.648 458.315 283.384 459.695 283.384H462.179V283.24C462.179 282.568 461.975 282.052 461.567 281.692C461.171 281.332 460.577 281.152 459.785 281.152C459.245 281.152 458.711 281.236 458.183 281.404C457.667 281.572 457.229 281.806 456.869 282.106L455.987 280.468C456.491 280.084 457.097 279.79 457.805 279.586C458.513 279.382 459.263 279.28 460.055 279.28ZM459.749 287.488C460.313 287.488 460.811 287.362 461.243 287.11C461.687 286.846 461.999 286.474 462.179 285.994V284.878H459.857C458.561 284.878 457.913 285.304 457.913 286.156C457.913 286.564 458.075 286.888 458.399 287.128C458.723 287.368 459.173 287.488 459.749 287.488ZM472.415 279.856C473.327 279.856 474.131 280.054 474.827 280.45C475.523 280.834 476.063 281.374 476.447 282.07C476.843 282.766 477.041 283.564 477.041 284.464C477.041 285.388 476.825 286.21 476.393 286.93C475.961 287.638 475.355 288.19 474.575 288.586C473.795 288.982 472.907 289.18 471.911 289.18C470.243 289.18 468.953 288.628 468.041 287.524C467.129 286.42 466.673 284.83 466.673 282.754C466.673 280.822 467.087 279.292 467.915 278.164C468.743 277.036 470.009 276.292 471.713 275.932L476.177 274.978L476.501 276.994L472.451 277.822C471.287 278.062 470.417 278.47 469.841 279.046C469.265 279.622 468.929 280.432 468.833 281.476C469.265 280.96 469.787 280.564 470.399 280.288C471.011 280 471.683 279.856 472.415 279.856ZM471.965 287.362C472.793 287.362 473.459 287.098 473.963 286.57C474.479 286.03 474.737 285.346 474.737 284.518C474.737 283.69 474.479 283.024 473.963 282.52C473.459 282.016 472.793 281.764 471.965 281.764C471.125 281.764 470.447 282.016 469.931 282.52C469.415 283.024 469.157 283.69 469.157 284.518C469.157 285.358 469.415 286.042 469.931 286.57C470.459 287.098 471.137 287.362 471.965 287.362ZM482.678 279.28C484.094 279.28 485.174 279.622 485.918 280.306C486.674 280.978 487.052 281.998 487.052 283.366V289H484.928V287.83C484.652 288.25 484.256 288.574 483.74 288.802C483.236 289.018 482.624 289.126 481.904 289.126C481.184 289.126 480.554 289.006 480.014 288.766C479.474 288.514 479.054 288.172 478.754 287.74C478.466 287.296 478.322 286.798 478.322 286.246C478.322 285.382 478.64 284.692 479.276 284.176C479.924 283.648 480.938 283.384 482.318 283.384H484.802V283.24C484.802 282.568 484.598 282.052 484.19 281.692C483.794 281.332 483.2 281.152 482.408 281.152C481.868 281.152 481.334 281.236 480.806 281.404C480.29 281.572 479.852 281.806 479.492 282.106L478.61 280.468C479.114 280.084 479.72 279.79 480.428 279.586C481.136 279.382 481.886 279.28 482.678 279.28ZM482.372 287.488C482.936 287.488 483.434 287.362 483.866 287.11C484.31 286.846 484.622 286.474 484.802 285.994V284.878H482.48C481.184 284.878 480.536 285.304 480.536 286.156C480.536 286.564 480.698 286.888 481.022 287.128C481.346 287.368 481.796 287.488 482.372 287.488ZM497.45 281.296H494.084V289H491.834V281.296H488.45V279.388H497.45V281.296ZM503.762 282.556C504.986 282.556 505.922 282.832 506.57 283.384C507.218 283.936 507.542 284.716 507.542 285.724C507.542 286.78 507.182 287.596 506.462 288.172C505.754 288.748 504.746 289.03 503.438 289.018L499.082 289V279.388H501.332V282.538L503.762 282.556ZM508.784 279.388H511.034V289H508.784V279.388ZM503.24 287.362C503.9 287.374 504.404 287.236 504.752 286.948C505.1 286.66 505.274 286.24 505.274 285.688C505.274 285.148 505.106 284.752 504.77 284.5C504.434 284.248 503.924 284.116 503.24 284.104L501.332 284.086V287.344L503.24 287.362ZM521.025 283.996C522.213 284.356 522.807 285.124 522.807 286.3C522.807 287.164 522.483 287.83 521.835 288.298C521.187 288.766 520.227 289 518.955 289H514.059V279.388H518.757C519.933 279.388 520.851 279.604 521.511 280.036C522.171 280.468 522.501 281.08 522.501 281.872C522.501 282.364 522.369 282.79 522.105 283.15C521.853 283.51 521.493 283.792 521.025 283.996ZM516.201 283.402H518.559C519.723 283.402 520.305 283 520.305 282.196C520.305 281.416 519.723 281.026 518.559 281.026H516.201V283.402ZM518.775 287.362C520.011 287.362 520.629 286.96 520.629 286.156C520.629 285.736 520.485 285.424 520.197 285.22C519.909 285.004 519.459 284.896 518.847 284.896H516.201V287.362H518.775ZM528.785 279.28C530.201 279.28 531.281 279.622 532.025 280.306C532.781 280.978 533.159 281.998 533.159 283.366V289H531.035V287.83C530.759 288.25 530.363 288.574 529.847 288.802C529.343 289.018 528.731 289.126 528.011 289.126C527.291 289.126 526.661 289.006 526.121 288.766C525.581 288.514 525.161 288.172 524.861 287.74C524.573 287.296 524.429 286.798 524.429 286.246C524.429 285.382 524.747 284.692 525.383 284.176C526.031 283.648 527.045 283.384 528.425 283.384H530.909V283.24C530.909 282.568 530.705 282.052 530.297 281.692C529.901 281.332 529.307 281.152 528.515 281.152C527.975 281.152 527.441 281.236 526.913 281.404C526.397 281.572 525.959 281.806 525.599 282.106L524.717 280.468C525.221 280.084 525.827 279.79 526.535 279.586C527.243 279.382 527.993 279.28 528.785 279.28ZM528.479 287.488C529.043 287.488 529.541 287.362 529.973 287.11C530.417 286.846 530.729 286.474 530.909 285.994V284.878H528.587C527.291 284.878 526.643 285.304 526.643 286.156C526.643 286.564 526.805 286.888 527.129 287.128C527.453 287.368 527.903 287.488 528.479 287.488ZM544.944 284.248C544.944 284.404 544.932 284.626 544.908 284.914H537.366C537.498 285.622 537.84 286.186 538.392 286.606C538.956 287.014 539.652 287.218 540.48 287.218C541.536 287.218 542.406 286.87 543.09 286.174L544.296 287.56C543.864 288.076 543.318 288.466 542.658 288.73C541.998 288.994 541.254 289.126 540.426 289.126C539.37 289.126 538.44 288.916 537.636 288.496C536.832 288.076 536.208 287.494 535.764 286.75C535.332 285.994 535.116 285.142 535.116 284.194C535.116 283.258 535.326 282.418 535.746 281.674C536.178 280.918 536.772 280.33 537.528 279.91C538.284 279.49 539.136 279.28 540.084 279.28C541.02 279.28 541.854 279.49 542.586 279.91C543.33 280.318 543.906 280.9 544.314 281.656C544.734 282.4 544.944 283.264 544.944 284.248ZM540.084 281.08C539.364 281.08 538.752 281.296 538.248 281.728C537.756 282.148 537.456 282.712 537.348 283.42H542.802C542.706 282.724 542.412 282.16 541.92 281.728C541.428 281.296 540.816 281.08 540.084 281.08ZM554.667 281.296H551.301V289H549.051V281.296H545.667V279.388H554.667V281.296ZM567.016 283.996C567.616 284.164 568.078 284.44 568.402 284.824C568.738 285.196 568.906 285.646 568.906 286.174C568.906 286.762 568.708 287.284 568.312 287.74C567.916 288.184 567.37 288.532 566.674 288.784C565.978 289.036 565.186 289.162 564.298 289.162C563.554 289.162 562.828 289.078 562.12 288.91C561.412 288.73 560.77 288.478 560.194 288.154L560.842 286.48C561.31 286.744 561.838 286.948 562.426 287.092C563.014 287.236 563.602 287.308 564.19 287.308C564.946 287.308 565.534 287.194 565.954 286.966C566.386 286.726 566.602 286.402 566.602 285.994C566.602 285.622 566.434 285.334 566.098 285.13C565.774 284.926 565.312 284.824 564.712 284.824H562.84V283.312H564.532C565.096 283.312 565.534 283.216 565.846 283.024C566.17 282.832 566.332 282.562 566.332 282.214C566.332 281.866 566.14 281.59 565.756 281.386C565.372 281.182 564.844 281.08 564.172 281.08C563.212 281.08 562.198 281.314 561.13 281.782L560.554 280.126C561.814 279.538 563.086 279.244 564.37 279.244C565.186 279.244 565.918 279.358 566.566 279.586C567.214 279.802 567.718 280.114 568.078 280.522C568.45 280.918 568.636 281.374 568.636 281.89C568.636 282.358 568.492 282.778 568.204 283.15C567.916 283.51 567.52 283.792 567.016 283.996ZM574.823 279.28C576.239 279.28 577.319 279.622 578.063 280.306C578.819 280.978 579.197 281.998 579.197 283.366V289H577.073V287.83C576.797 288.25 576.401 288.574 575.885 288.802C575.381 289.018 574.769 289.126 574.049 289.126C573.329 289.126 572.699 289.006 572.159 288.766C571.619 288.514 571.199 288.172 570.899 287.74C570.611 287.296 570.467 286.798 570.467 286.246C570.467 285.382 570.785 284.692 571.421 284.176C572.069 283.648 573.083 283.384 574.463 283.384H576.947V283.24C576.947 282.568 576.743 282.052 576.335 281.692C575.939 281.332 575.345 281.152 574.553 281.152C574.013 281.152 573.479 281.236 572.951 281.404C572.435 281.572 571.997 281.806 571.637 282.106L570.755 280.468C571.259 280.084 571.865 279.79 572.573 279.586C573.281 279.382 574.031 279.28 574.823 279.28ZM574.517 287.488C575.081 287.488 575.579 287.362 576.011 287.11C576.455 286.846 576.767 286.474 576.947 285.994V284.878H574.625C573.329 284.878 572.681 285.304 572.681 286.156C572.681 286.564 572.843 286.888 573.167 287.128C573.491 287.368 573.941 287.488 574.517 287.488ZM585.977 285.148H584.231V289H581.981V279.388H584.231V283.276H586.031L588.875 279.388H591.287L587.795 284.014L591.521 289H588.875L585.977 285.148ZM596.514 279.28C597.93 279.28 599.01 279.622 599.754 280.306C600.51 280.978 600.888 281.998 600.888 283.366V289H598.764V287.83C598.488 288.25 598.092 288.574 597.576 288.802C597.072 289.018 596.46 289.126 595.74 289.126C595.02 289.126 594.39 289.006 593.85 288.766C593.31 288.514 592.89 288.172 592.59 287.74C592.302 287.296 592.158 286.798 592.158 286.246C592.158 285.382 592.476 284.692 593.112 284.176C593.76 283.648 594.774 283.384 596.154 283.384H598.638V283.24C598.638 282.568 598.434 282.052 598.026 281.692C597.63 281.332 597.036 281.152 596.244 281.152C595.704 281.152 595.17 281.236 594.642 281.404C594.126 281.572 593.688 281.806 593.328 282.106L592.446 280.468C592.95 280.084 593.556 279.79 594.264 279.586C594.972 279.382 595.722 279.28 596.514 279.28ZM596.208 287.488C596.772 287.488 597.27 287.362 597.702 287.11C598.146 286.846 598.458 286.474 598.638 285.994V284.878H596.316C595.02 284.878 594.372 285.304 594.372 286.156C594.372 286.564 594.534 286.888 594.858 287.128C595.182 287.368 595.632 287.488 596.208 287.488ZM609.291 283.996C609.891 284.164 610.353 284.44 610.677 284.824C611.013 285.196 611.181 285.646 611.181 286.174C611.181 286.762 610.983 287.284 610.587 287.74C610.191 288.184 609.645 288.532 608.949 288.784C608.253 289.036 607.461 289.162 606.573 289.162C605.829 289.162 605.103 289.078 604.395 288.91C603.687 288.73 603.045 288.478 602.469 288.154L603.117 286.48C603.585 286.744 604.113 286.948 604.701 287.092C605.289 287.236 605.877 287.308 606.465 287.308C607.221 287.308 607.809 287.194 608.229 286.966C608.661 286.726 608.877 286.402 608.877 285.994C608.877 285.622 608.709 285.334 608.373 285.13C608.049 284.926 607.587 284.824 606.987 284.824H605.115V283.312H606.807C607.371 283.312 607.809 283.216 608.121 283.024C608.445 282.832 608.607 282.562 608.607 282.214C608.607 281.866 608.415 281.59 608.031 281.386C607.647 281.182 607.119 281.08 606.447 281.08C605.487 281.08 604.473 281.314 603.405 281.782L602.829 280.126C604.089 279.538 605.361 279.244 606.645 279.244C607.461 279.244 608.193 279.358 608.841 279.586C609.489 279.802 609.993 280.114 610.353 280.522C610.725 280.918 610.911 281.374 610.911 281.89C610.911 282.358 610.767 282.778 610.479 283.15C610.191 283.51 609.795 283.792 609.291 283.996Z" fill="#0E0E0E"/>
<g filter="url(#filter2_d)">
<circle cx="516" cy="172.5" r="52.5" fill="white"/>
<circle cx="516" cy="172.5" r="51" stroke="#79A000" stroke-width="3"/>
</g>
<path d="M526.081 179.512V184H508.095V180.43L517.275 171.76C518.249 170.831 518.907 170.037 519.247 169.38C519.587 168.7 519.757 168.031 519.757 167.374C519.757 166.422 519.428 165.697 518.771 165.198C518.136 164.677 517.195 164.416 515.949 164.416C514.906 164.416 513.965 164.62 513.127 165.028C512.288 165.413 511.585 166.003 511.019 166.796L507.007 164.212C507.936 162.829 509.217 161.753 510.849 160.982C512.481 160.189 514.351 159.792 516.459 159.792C518.227 159.792 519.768 160.087 521.083 160.676C522.42 161.243 523.451 162.059 524.177 163.124C524.925 164.167 525.299 165.402 525.299 166.83C525.299 168.122 525.027 169.335 524.483 170.468C523.939 171.601 522.885 172.893 521.321 174.344L515.847 179.512H526.081Z" fill="#417400"/>
<path d="M81.2059 18.69H78.8659V24H76.5619V11.4H78.8659V16.674H81.2779L84.8959 11.4H87.3799L83.0779 17.502L87.5419 24H84.8959L81.2059 18.69ZM97.8363 14.388V24H95.5863V16.296H91.9863L91.8963 18.204C91.8363 19.476 91.7163 20.544 91.5363 21.408C91.3683 22.26 91.0743 22.938 90.6543 23.442C90.2463 23.934 89.6823 24.18 88.9623 24.18C88.6263 24.18 88.2123 24.114 87.7203 23.982L87.8283 22.092C87.9963 22.128 88.1403 22.146 88.2603 22.146C88.7163 22.146 89.0583 21.966 89.2863 21.606C89.5143 21.234 89.6583 20.796 89.7183 20.292C89.7903 19.776 89.8503 19.044 89.8983 18.096L90.0603 14.388H97.8363ZM100.867 14.388H103.117V20.724L108.427 14.388H110.479V24H108.229V17.664L102.937 24H100.867V14.388ZM122.505 19.248C122.505 19.404 122.493 19.626 122.469 19.914H114.927C115.059 20.622 115.401 21.186 115.953 21.606C116.517 22.014 117.213 22.218 118.041 22.218C119.097 22.218 119.967 21.87 120.651 21.174L121.857 22.56C121.425 23.076 120.879 23.466 120.219 23.73C119.559 23.994 118.815 24.126 117.987 24.126C116.931 24.126 116.001 23.916 115.197 23.496C114.393 23.076 113.769 22.494 113.325 21.75C112.893 20.994 112.677 20.142 112.677 19.194C112.677 18.258 112.887 17.418 113.307 16.674C113.739 15.918 114.333 15.33 115.089 14.91C115.845 14.49 116.697 14.28 117.645 14.28C118.581 14.28 119.415 14.49 120.147 14.91C120.891 15.318 121.467 15.9 121.875 16.656C122.295 17.4 122.505 18.264 122.505 19.248ZM117.645 16.08C116.925 16.08 116.313 16.296 115.809 16.728C115.317 17.148 115.017 17.712 114.909 18.42H120.363C120.267 17.724 119.973 17.16 119.481 16.728C118.989 16.296 118.377 16.08 117.645 16.08ZM124.966 14.388H127.216V18.294H132.058V14.388H134.308V24H132.058V20.202H127.216V24H124.966V14.388ZM144.938 16.296H141.572V24H139.322V16.296H135.938V14.388H144.938V16.296ZM59.8687 46.092V50.142H57.7627V48H50.3467V50.142H48.2587V46.092H48.7087C49.3207 46.068 49.7347 45.678 49.9507 44.922C50.1787 44.154 50.3287 43.074 50.4007 41.682L50.5267 38.388H58.4467V46.092H59.8687ZM52.4527 41.844C52.4047 42.948 52.3147 43.848 52.1827 44.544C52.0507 45.24 51.8107 45.756 51.4627 46.092H56.1967V40.296H52.5067L52.4527 41.844ZM70.8783 43.248C70.8783 43.404 70.8662 43.626 70.8422 43.914H63.3002C63.4322 44.622 63.7742 45.186 64.3262 45.606C64.8902 46.014 65.5862 46.218 66.4142 46.218C67.4702 46.218 68.3402 45.87 69.0242 45.174L70.2302 46.56C69.7982 47.076 69.2522 47.466 68.5922 47.73C67.9322 47.994 67.1882 48.126 66.3602 48.126C65.3042 48.126 64.3742 47.916 63.5702 47.496C62.7662 47.076 62.1422 46.494 61.6982 45.75C61.2662 44.994 61.0502 44.142 61.0502 43.194C61.0502 42.258 61.2602 41.418 61.6802 40.674C62.1122 39.918 62.7062 39.33 63.4622 38.91C64.2182 38.49 65.0702 38.28 66.0182 38.28C66.9542 38.28 67.7882 38.49 68.5202 38.91C69.2642 39.318 69.8402 39.9 70.2482 40.656C70.6682 41.4 70.8783 42.264 70.8783 43.248ZM66.0182 40.08C65.2982 40.08 64.6862 40.296 64.1822 40.728C63.6902 41.148 63.3902 41.712 63.2822 42.42H68.7362C68.6402 41.724 68.3462 41.16 67.8542 40.728C67.3622 40.296 66.7502 40.08 66.0182 40.08ZM81.9281 38.388V48H79.6781V40.296H76.0781L75.9881 42.204C75.9281 43.476 75.8081 44.544 75.6281 45.408C75.4601 46.26 75.1661 46.938 74.7461 47.442C74.3381 47.934 73.7741 48.18 73.0541 48.18C72.7181 48.18 72.3041 48.114 71.8121 47.982L71.9201 46.092C72.0881 46.128 72.2321 46.146 72.3521 46.146C72.8081 46.146 73.1501 45.966 73.3781 45.606C73.6061 45.234 73.7501 44.796 73.8101 44.292C73.8821 43.776 73.9421 43.044 73.9901 42.096L74.1521 38.388H81.9281ZM88.5403 38.28C89.9563 38.28 91.0363 38.622 91.7803 39.306C92.5363 39.978 92.9143 40.998 92.9143 42.366V48H90.7903V46.83C90.5143 47.25 90.1183 47.574 89.6023 47.802C89.0983 48.018 88.4863 48.126 87.7663 48.126C87.0463 48.126 86.4163 48.006 85.8763 47.766C85.3363 47.514 84.9163 47.172 84.6163 46.74C84.3283 46.296 84.1843 45.798 84.1843 45.246C84.1843 44.382 84.5023 43.692 85.1383 43.176C85.7863 42.648 86.8003 42.384 88.1803 42.384H90.6643V42.24C90.6643 41.568 90.4603 41.052 90.0523 40.692C89.6563 40.332 89.0623 40.152 88.2703 40.152C87.7303 40.152 87.1963 40.236 86.6683 40.404C86.1523 40.572 85.7143 40.806 85.3543 41.106L84.4723 39.468C84.9763 39.084 85.5823 38.79 86.2903 38.586C86.9983 38.382 87.7483 38.28 88.5403 38.28ZM88.2343 46.488C88.7983 46.488 89.2963 46.362 89.7283 46.11C90.1723 45.846 90.4843 45.474 90.6643 44.994V43.878H88.3423C87.0463 43.878 86.3983 44.304 86.3983 45.156C86.3983 45.564 86.5603 45.888 86.8843 46.128C87.2083 46.368 87.6583 46.488 88.2343 46.488ZM104.699 43.248C104.699 43.404 104.687 43.626 104.663 43.914H97.1206C97.2526 44.622 97.5946 45.186 98.1466 45.606C98.7106 46.014 99.4066 46.218 100.235 46.218C101.291 46.218 102.161 45.87 102.845 45.174L104.051 46.56C103.619 47.076 103.073 47.466 102.413 47.73C101.753 47.994 101.009 48.126 100.181 48.126C99.1246 48.126 98.1946 47.916 97.3906 47.496C96.5866 47.076 95.9626 46.494 95.5186 45.75C95.0866 44.994 94.8706 44.142 94.8706 43.194C94.8706 42.258 95.0806 41.418 95.5006 40.674C95.9326 39.918 96.5266 39.33 97.2826 38.91C98.0386 38.49 98.8906 38.28 99.8386 38.28C100.775 38.28 101.609 38.49 102.341 38.91C103.085 39.318 103.661 39.9 104.069 40.656C104.489 41.4 104.699 42.264 104.699 43.248ZM99.8386 40.08C99.1186 40.08 98.5066 40.296 98.0026 40.728C97.5106 41.148 97.2106 41.712 97.1026 42.42H102.557C102.461 41.724 102.167 41.16 101.675 40.728C101.183 40.296 100.571 40.08 99.8386 40.08ZM114.422 40.296H111.056V48H108.806V40.296H105.422V38.388H114.422V40.296ZM126.771 42.996C127.371 43.164 127.833 43.44 128.157 43.824C128.493 44.196 128.661 44.646 128.661 45.174C128.661 45.762 128.463 46.284 128.067 46.74C127.671 47.184 127.125 47.532 126.429 47.784C125.733 48.036 124.941 48.162 124.053 48.162C123.309 48.162 122.583 48.078 121.875 47.91C121.167 47.73 120.525 47.478 119.949 47.154L120.597 45.48C121.065 45.744 121.593 45.948 122.181 46.092C122.769 46.236 123.357 46.308 123.945 46.308C124.701 46.308 125.289 46.194 125.709 45.966C126.141 45.726 126.357 45.402 126.357 44.994C126.357 44.622 126.189 44.334 125.853 44.13C125.529 43.926 125.067 43.824 124.467 43.824H122.595V42.312H124.287C124.851 42.312 125.289 42.216 125.601 42.024C125.925 41.832 126.087 41.562 126.087 41.214C126.087 40.866 125.895 40.59 125.511 40.386C125.127 40.182 124.599 40.08 123.927 40.08C122.967 40.08 121.953 40.314 120.885 40.782L120.309 39.126C121.569 38.538 122.841 38.244 124.125 38.244C124.941 38.244 125.673 38.358 126.321 38.586C126.969 38.802 127.473 39.114 127.833 39.522C128.205 39.918 128.391 40.374 128.391 40.89C128.391 41.358 128.247 41.778 127.959 42.15C127.671 42.51 127.275 42.792 126.771 42.996ZM134.577 38.28C135.993 38.28 137.073 38.622 137.817 39.306C138.573 39.978 138.951 40.998 138.951 42.366V48H136.827V46.83C136.551 47.25 136.155 47.574 135.639 47.802C135.135 48.018 134.523 48.126 133.803 48.126C133.083 48.126 132.453 48.006 131.913 47.766C131.373 47.514 130.953 47.172 130.653 46.74C130.365 46.296 130.221 45.798 130.221 45.246C130.221 44.382 130.539 43.692 131.175 43.176C131.823 42.648 132.837 42.384 134.217 42.384H136.701V42.24C136.701 41.568 136.497 41.052 136.089 40.692C135.693 40.332 135.099 40.152 134.307 40.152C133.767 40.152 133.233 40.236 132.705 40.404C132.189 40.572 131.751 40.806 131.391 41.106L130.509 39.468C131.013 39.084 131.619 38.79 132.327 38.586C133.035 38.382 133.785 38.28 134.577 38.28ZM134.271 46.488C134.835 46.488 135.333 46.362 135.765 46.11C136.209 45.846 136.521 45.474 136.701 44.994V43.878H134.379C133.083 43.878 132.435 44.304 132.435 45.156C132.435 45.564 132.597 45.888 132.921 46.128C133.245 46.368 133.695 46.488 134.271 46.488ZM145.732 44.148H143.986V48H141.736V38.388H143.986V42.276H145.786L148.63 38.388H151.042L147.55 43.014L151.276 48H148.63L145.732 44.148ZM156.269 38.28C157.685 38.28 158.765 38.622 159.509 39.306C160.265 39.978 160.643 40.998 160.643 42.366V48H158.519V46.83C158.243 47.25 157.847 47.574 157.331 47.802C156.827 48.018 156.215 48.126 155.495 48.126C154.775 48.126 154.145 48.006 153.605 47.766C153.065 47.514 152.645 47.172 152.345 46.74C152.057 46.296 151.913 45.798 151.913 45.246C151.913 44.382 152.231 43.692 152.867 43.176C153.515 42.648 154.529 42.384 155.909 42.384H158.393V42.24C158.393 41.568 158.189 41.052 157.781 40.692C157.385 40.332 156.791 40.152 155.999 40.152C155.459 40.152 154.925 40.236 154.397 40.404C153.881 40.572 153.443 40.806 153.083 41.106L152.201 39.468C152.705 39.084 153.311 38.79 154.019 38.586C154.727 38.382 155.477 38.28 156.269 38.28ZM155.963 46.488C156.527 46.488 157.025 46.362 157.457 46.11C157.901 45.846 158.213 45.474 158.393 44.994V43.878H156.071C154.775 43.878 154.127 44.304 154.127 45.156C154.127 45.564 154.289 45.888 154.613 46.128C154.937 46.368 155.387 46.488 155.963 46.488ZM169.046 42.996C169.646 43.164 170.108 43.44 170.432 43.824C170.768 44.196 170.936 44.646 170.936 45.174C170.936 45.762 170.738 46.284 170.342 46.74C169.946 47.184 169.4 47.532 168.704 47.784C168.008 48.036 167.216 48.162 166.328 48.162C165.584 48.162 164.858 48.078 164.15 47.91C163.442 47.73 162.8 47.478 162.224 47.154L162.872 45.48C163.34 45.744 163.868 45.948 164.456 46.092C165.044 46.236 165.632 46.308 166.22 46.308C166.976 46.308 167.564 46.194 167.984 45.966C168.416 45.726 168.632 45.402 168.632 44.994C168.632 44.622 168.464 44.334 168.128 44.13C167.804 43.926 167.342 43.824 166.742 43.824H164.87V42.312H166.562C167.126 42.312 167.564 42.216 167.876 42.024C168.2 41.832 168.362 41.562 168.362 41.214C168.362 40.866 168.17 40.59 167.786 40.386C167.402 40.182 166.874 40.08 166.202 40.08C165.242 40.08 164.228 40.314 163.16 40.782L162.584 39.126C163.844 38.538 165.116 38.244 166.4 38.244C167.216 38.244 167.948 38.358 168.596 38.586C169.244 38.802 169.748 39.114 170.108 39.522C170.48 39.918 170.666 40.374 170.666 40.89C170.666 41.358 170.522 41.778 170.234 42.15C169.946 42.51 169.55 42.792 169.046 42.996Z" fill="#0E0E0E"/>
<g filter="url(#filter3_d)">
<circle cx="109" cy="114.5" r="52.5" fill="white"/>
<circle cx="109" cy="114.5" r="51" stroke="#79A000" stroke-width="3"/>
</g>
<path d="M113.349 102.2V126H107.841V106.62H103.081V102.2H113.349Z" fill="#417400"/>
<defs>
<filter id="filter0_d" x="1103.5" y="46" width="145" height="145" filterUnits="userSpaceOnUse" color-interpolation-filters="sRGB">
<feFlood flood-opacity="0" result="BackgroundImageFix"/>
<feColorMatrix in="SourceAlpha" type="matrix" values="0 0 0 0 0 0 0 0 0 0 0 0 0 0 0 0 0 0 127 0"/>
<feOffset dy="4"/>
<feGaussianBlur stdDeviation="10"/>
<feColorMatrix type="matrix" values="0 0 0 0 0 0 0 0 0 0 0 0 0 0 0 0 0 0 0.16 0"/>
<feBlend mode="normal" in2="BackgroundImageFix" result="effect1_dropShadow"/>
<feBlend mode="normal" in="SourceGraphic" in2="effect1_dropShadow" result="shape"/>
</filter>
<filter id="filter1_d" x="699.5" y="101" width="145" height="145" filterUnits="userSpaceOnUse" color-interpolation-filters="sRGB">
<feFlood flood-opacity="0" result="BackgroundImageFix"/>
<feColorMatrix in="SourceAlpha" type="matrix" values="0 0 0 0 0 0 0 0 0 0 0 0 0 0 0 0 0 0 127 0"/>
<feOffset dy="4"/>
<feGaussianBlur stdDeviation="10"/>
<feColorMatrix type="matrix" values="0 0 0 0 0 0 0 0 0 0 0 0 0 0 0 0 0 0 0.16 0"/>
<feBlend mode="normal" in2="BackgroundImageFix" result="effect1_dropShadow"/>
<feBlend mode="normal" in="SourceGraphic" in2="effect1_dropShadow" result="shape"/>
</filter>
<filter id="filter2_d" x="443.5" y="104" width="145" height="145" filterUnits="userSpaceOnUse" color-interpolation-filters="sRGB">
<feFlood flood-opacity="0" result="BackgroundImageFix"/>
<feColorMatrix in="SourceAlpha" type="matrix" values="0 0 0 0 0 0 0 0 0 0 0 0 0 0 0 0 0 0 127 0"/>
<feOffset dy="4"/>
<feGaussianBlur stdDeviation="10"/>
<feColorMatrix type="matrix" values="0 0 0 0 0 0 0 0 0 0 0 0 0 0 0 0 0 0 0.16 0"/>
<feBlend mode="normal" in2="BackgroundImageFix" result="effect1_dropShadow"/>
<feBlend mode="normal" in="SourceGraphic" in2="effect1_dropShadow" result="shape"/>
</filter>
<filter id="filter3_d" x="36.5" y="46" width="145" height="145" filterUnits="userSpaceOnUse" color-interpolation-filters="sRGB">
<feFlood flood-opacity="0" result="BackgroundImageFix"/>
<feColorMatrix in="SourceAlpha" type="matrix" values="0 0 0 0 0 0 0 0 0 0 0 0 0 0 0 0 0 0 127 0"/>
<feOffset dy="4"/>
<feGaussianBlur stdDeviation="10"/>
<feColorMatrix type="matrix" values="0 0 0 0 0 0 0 0 0 0 0 0 0 0 0 0 0 0 0.16 0"/>
<feBlend mode="normal" in2="BackgroundImageFix" result="effect1_dropShadow"/>
<feBlend mode="normal" in="SourceGraphic" in2="effect1_dropShadow" result="shape"/>
</filter>
</defs>
</svg>
