<svg width="411" height="270" viewBox="0 0 411 270" fill="none" xmlns="http://www.w3.org/2000/svg">
<g clip-path="url(#clip0)">
<path d="M351.283 -4.6039C358.421 -8.64291 364.889 -18.2202 367.23 -22.5039C367.458 -21.2868 367.73 -19.7798 368.03 -18.0683C368.377 -16.0858 368.76 -13.8289 369.15 -11.4306C369.349 -10.2043 369.55 -8.94103 369.748 -7.65856C370.338 -3.85448 370.907 0.118559 371.355 3.79683C371.659 6.29585 372.286 8.66427 372.066 10.7403C370.647 24.1734 370.358 21.8878 365.499 32.5994C360.64 43.311 357.835 43.0707 354.777 47.8468C353.06 50.5285 351.114 54.8489 348.406 59.792C346.292 63.6521 343.713 67.892 340.416 72.0278C336.813 76.548 329.526 82.3149 325.58 85.3733C324.989 85.8868 324.357 86.3778 323.681 86.8426C323.168 87.2427 323.088 87.344 323.197 87.3075C323.502 87.205 325.302 86.0148 323.197 87.3075C323.009 87.4225 322.791 87.5572 322.538 87.714C317.561 90.7997 314.57 91.9054 312.09 93.2139C309.762 94.4424 307.886 95.8497 305.242 99.2424C300.461 105.375 295.065 104.456 286.112 103.547C284.837 103.418 283.489 103.289 282.061 103.18C272.897 102.484 263.502 96.4972 259.95 93.5908C262.997 93.5197 272.279 93.3404 285.026 93.1923C300.96 93.0072 299.501 86.3495 307.766 75.3206C316.03 64.2918 317.103 59.2904 321.487 44.4967C325.872 29.703 336.522 21.3699 337.468 16.7451C338.413 12.1203 342.362 0.444854 351.283 -4.6039Z" fill="#51938F"/>
<path d="M367.23 -22.5039C364.889 -18.2202 358.421 -8.64291 351.283 -4.6039C342.362 0.444855 338.413 12.1203 337.468 16.7451C336.522 21.3699 325.872 29.703 321.487 44.4967C317.103 59.2904 316.03 64.2918 307.766 75.3206C299.501 86.3495 300.96 93.0072 285.026 93.1923C272.279 93.3404 262.997 93.5197 259.95 93.5908M367.23 -22.5039C364.965 -18.064 359.619 -8.08239 356.352 -3.67498C352.268 1.8343 346.432 7.40332 345.303 13.7511C344.175 20.0989 341.716 26.8578 338.589 29.9229C335.463 32.9881 331 34.768 328.825 41.6928C326.651 48.6177 325.216 58.3603 321.531 64.9144C317.847 71.4686 315.649 76.5147 311.508 81.4225C307.366 86.3304 305.071 91.5719 297.582 94.0178C290.093 96.4637 282.157 95.9398 276.956 96.2758C272.795 96.5447 263.885 94.5979 259.95 93.5908M367.23 -22.5039C367.458 -21.2868 367.73 -19.7798 368.03 -18.0683M259.95 93.5908C263.502 96.4972 272.897 102.484 282.061 103.18C283.489 103.289 284.837 103.418 286.112 103.547M368.03 -18.0683C367.299 -14.8943 364.551 -7.14058 359.411 -1.51837C352.985 5.50939 351.35 3.03028 349.054 12.3181C346.758 21.606 352.562 24.8587 343.39 32.2452C334.219 39.6317 332.663 43.6186 331.619 49.0053C330.576 54.392 332.208 52.3634 328.628 60.5403C325.047 68.7173 325.455 65.2857 320.957 72.4084C316.458 79.531 305.86 94.0866 298.66 96.8379C292.899 99.0389 287.894 102.228 286.112 103.547M368.03 -18.0683C368.377 -16.0858 368.76 -13.8289 369.15 -11.4306M286.112 103.547C295.065 104.456 300.461 105.375 305.242 99.2424C307.886 95.8497 309.762 94.4424 312.09 93.2139M369.748 -7.65856C367.886 -3.71812 363.149 5.02579 359.104 8.47781C354.049 12.7928 357.369 13.5301 354.214 25.8234C351.059 38.1167 353.246 31.3891 345.39 41.8729C337.534 52.3568 336.034 52.93 334.917 61.2546C334.024 67.9142 333.464 80.1152 323.681 86.8426M369.748 -7.65856C370.338 -3.85448 370.907 0.118559 371.355 3.79683M369.748 -7.65856C369.55 -8.94103 369.349 -10.2043 369.15 -11.4306M323.681 86.8426C321.598 88.4668 326.646 85.167 322.538 87.714C317.561 90.7997 314.57 91.9054 312.09 93.2139M323.681 86.8426C326.491 84.6516 336.099 77.4445 340.416 72.0278C343.713 67.892 346.292 63.6521 348.406 59.792M371.355 3.79683C371.659 6.29585 372.286 8.66427 372.066 10.7403C370.647 24.1734 370.358 21.8878 365.499 32.5994C360.64 43.311 357.835 43.0707 354.777 47.8468C353.06 50.5285 351.114 54.8489 348.406 59.792M371.355 3.79683C368.494 6.30785 362.166 13.4321 359.741 21.8411C356.709 32.3523 360.934 29.0124 356.261 36.1292C351.588 43.2459 352.07 39.3205 348.449 45.4844C345.552 50.4156 347.213 57.0774 348.406 59.792M312.09 93.2139C312.982 91.2242 315.698 86.1811 319.436 81.9263C324.109 76.6078 323.576 79.7705 326.796 73.2946C330.016 66.8187 329.841 67.7665 331.167 62.6875C332.493 57.6086 334.026 54.8719 335.468 49.1976C336.91 43.5232 341.385 41.1837 343.035 38.4083C344.685 35.6329 351.371 31.4304 351.94 24.8216C352.509 18.2129 354.013 8.6498 357.681 4.75395C360.616 1.63727 366.55 -7.33436 369.15 -11.4306" stroke="black" stroke-width="0.3"/>
<g style="mix-blend-mode:multiply">
<path d="M346.828 51.502C346.553 53.0837 347.816 57.6755 348.482 59.7737C350 56.8809 353.189 50.8086 353.808 49.6617C354.583 48.2282 355.085 47.01 356.245 45.8318C357.405 44.6537 358.78 43.0248 359.904 42.0051C361.027 40.9853 362.073 39.4038 362.884 37.7509C363.734 36.0193 365.219 33.391 366.24 31.1251C367.261 28.8592 368.197 26.2402 369.186 25.0784C370.176 23.9167 369.83 22.281 371.143 19.4709C372.456 16.6608 371.609 14.2989 371.941 13.0971C372.273 11.8953 372.186 9.3745 372.027 7.89296C371.899 6.70772 371.519 4.70135 371.346 3.84631C362.372 10.7299 359.078 24.8103 358.726 26.3409C358.374 27.8716 358.645 31.0458 358.508 32.1257C358.37 33.2056 356.846 35.2446 356.53 35.8943C356.213 36.5441 354.271 39.4318 351.443 41.3378C348.616 43.2439 347.171 49.5248 346.828 51.502Z" fill="#A7D0CE"/>
</g>
<g style="mix-blend-mode:multiply">
<path d="M332.731 74.0044C328.872 87.2809 316.105 92.0548 310.599 93.8232C309.147 94.3533 307.804 96.1459 307.314 96.976C301.217 107.151 294.159 104.218 291.938 104.188C290.161 104.163 276.78 96.9595 270.311 93.3605C273.85 94.4364 282.448 95.9066 288.527 93.1803C291.753 91.7338 293.513 93.3259 298.997 88.4297C302.662 83.7 304.719 78.4301 307.406 75.6773C311.384 71.6017 316.629 59.8861 317.32 58.2101C318.011 56.5341 320.997 46.2112 321.582 43.8556C322.167 41.5 325.153 36.1139 326.17 33.5952C327.186 31.0765 331.41 25.6257 332 25.1497C332.229 24.9649 335.072 22.1518 336.769 18.4678C338.567 14.5643 339.254 9.70082 340.634 6.60166C341.915 4.82844 344.688 1.01567 345.527 -0.0495978C346.576 -1.38119 352.98 -6.24331 354.531 -6.71683C355.771 -7.09565 358.202 -10.1881 359.263 -11.687C361.534 -14.3708 366.088 -12.8865 352.766 0.958689C353.694 5.0177 361.303 3.5675 354.152 10.5395C335.56 28.6656 353.418 30.2307 351.895 33.7542C350.426 37.1554 346.609 39.5215 339.39 49.9955C332.791 59.5696 337.075 59.0615 332.731 74.0044Z" fill="#85CCC8"/>
</g>
<g style="mix-blend-mode:multiply">
<path d="M328.521 39.8052C323.844 73.3668 304.499 90.4988 300.595 92.836L303.311 81.9255C305.19 79.4358 309.278 72.8921 311.003 70.8006C313.159 68.1861 317.643 56.988 318.467 54.6328C319.291 52.2776 321.696 43.3582 322.825 40.2905C323.955 37.2229 326.618 32.4025 328.037 30.5373C329.172 29.0452 331.102 26.2233 331.926 24.9989C332.966 22.8059 335.289 21.3885 337.111 17.4427C338.97 10.6133 343.207 2.2738 344.295 1.335C346.235 -0.339508 351.282 -4.76346 352.639 -5.44095C353.997 -6.11844 356.039 -8.5469 358.135 -9.97368C360.23 -11.4005 362.736 -15.8431 364.351 -17.9459C365.965 -20.0487 367.204 -23.1777 367.249 -22.5759C367.285 -22.0945 368.667 -15.3572 369.353 -12.0487C366.095 9.32308 332.304 12.6631 328.521 39.8052Z" fill="#C4C4C4"/>
</g>
<path d="M316.706 29.3162C313.853 17.1313 318.746 12.1885 321.55 11.2401C323.405 8.88219 327.295 8.19106 329.008 8.14024C359.623 6.14664 373.602 41.5024 372.455 45.7836C371.308 50.0648 381.008 55.723 381.45 57.8807C381.891 60.0383 379.92 63.5889 382.171 64.7019C384.422 65.8149 390.715 82.2865 388.548 90.3732C386.381 98.4598 388.887 98.6215 388.521 113.309C388.154 127.996 377.304 155.169 361.921 153.596C346.537 152.023 344.391 116.269 342.488 115.76C340.586 115.25 337.741 106.84 338.676 93.8347C339.612 80.8295 320.272 44.5474 316.706 29.3162Z" fill="#72CDA1" stroke="black" stroke-width="0.5"/>
<g style="mix-blend-mode:multiply">
<path d="M361.947 23.7275C363.269 25.2755 370.063 36.3758 370.713 37.7981C370.906 38.5805 372.749 44.46 372.62 44.9439C372.49 45.4278 372.548 46.8261 372.386 47.4309C372.223 48.0357 373.249 49.0453 373.475 49.4946C373.655 49.8541 376.848 53.0346 378.422 54.58C379.343 55.3886 381.225 57.0857 381.382 57.4042C381.538 57.7228 381.53 58.6252 381.506 59.0365C381.421 60.0511 381.22 62.2011 381.09 62.6849C380.961 63.1688 381.345 63.7761 381.554 64.0192L382.182 64.5766C382.418 64.8269 382.953 65.3793 383.208 65.5862C383.528 65.8447 384.882 69.0166 385.577 70.456C386.272 71.8954 388.091 79.2976 388.393 80.5886C388.696 81.8797 389.197 85.1689 389.035 86.4217C388.872 87.6746 388.964 89.4279 388.194 91.8147C387.579 93.7242 387.613 95.8654 387.707 96.6973L387.809 99.0583L388.203 102.751L388.515 107.069L388.586 113.096C388.377 114.898 387.935 118.816 387.841 120.07C387.723 121.637 387.456 122.473 384.144 132.736C381.495 140.946 375.454 147.354 372.765 149.531C369.779 150.188 368.105 136.626 368.795 133.273C369.485 129.919 368.709 123.883 366.574 111.654C364.439 99.4258 344.247 40.0005 342.226 35.5039C340.204 31.0074 323.709 11.3923 325.259 9.10182C326.499 7.2694 335.536 8.3688 339.899 9.14756C350.477 10.9437 360.626 22.1794 361.947 23.7275Z" fill="#C4C4C4"/>
</g>
<g style="mix-blend-mode:multiply">
<path d="M358.485 128.915C362.625 135.783 365.729 131.502 366.763 128.503C369.608 121.319 362.138 95.7672 354.091 67.7178C346.044 39.6685 327.428 12.5123 321.832 11.0131C321.103 10.8175 318.732 13.7903 317.647 15.2552C318.371 15.3107 322.991 20.7295 335.686 41.9613C351.555 68.501 353.31 120.33 358.485 128.915Z" fill="#A6C7A9"/>
</g>
<path d="M351.849 55.0045C355.645 52.6053 365.638 50.2947 381.522 58.6899M345.753 41.2146C350.434 37.4757 362.814 31.4083 371.32 39.6794M345.05 50.1825C340.896 50.9747 332.556 56.0591 332.431 70.0594M353.817 72.6358C349.417 73.3623 340.236 78.3002 338.709 92.2399M335.459 30.0707C332.32 30.0179 325.572 32.8542 323.679 48.7458M362.245 86.5016C368.459 85.8672 383.998 87.1089 387.83 98.7004M361.982 95.1252C356.503 95.9567 345.085 101.399 343.242 116.515M368.712 117.821C373.364 117.623 383.437 118.771 386.511 124.956M365.101 111.612C361.638 109.729 346.509 117.391 346.955 133.271" stroke="black" stroke-width="0.5"/>
<path d="M333.492 25.6564C323.49 6.66157 312.835 -1.39689 296.203 -11.6315C293.632 -15.1384 296.223 -18.948 300.587 -16.575C316.988 -7.65652 323.833 6.0516 330.1 14.1591C342.863 30.6683 356.845 64.6618 362.212 86.4934C367.579 108.325 369.678 127.543 369.875 129.998C370.3 135.285 367.412 136.943 366.205 126.193C362.591 94.0253 345.994 49.3999 333.492 25.6564Z" fill="#99ECC4" stroke="black" stroke-width="0.5"/>
<g style="mix-blend-mode:multiply">
<path d="M360.87 69.1804C368.843 92.4159 369.81 116.808 369.201 125.27C367.301 127.295 363.093 93.7383 357.578 75.4125C352.063 57.0867 334.614 20.9516 324.514 8.72063L329.837 7.95113C332.031 11.5248 350.904 40.136 360.87 69.1804Z" fill="#72CDA1"/>
</g>
</g>
<defs>
<clipPath id="clip0">
<rect width="159" height="167" transform="matrix(-1 0 0 1 410.5 0)" fill="white"/>
</clipPath>
</defs>
</svg>
