<svg width="289" height="160" viewBox="0 0 289 160" fill="none" xmlns="http://www.w3.org/2000/svg">
<g clip-path="url(#clip0)">
<path d="M231.49 50.2218C226.699 53.9176 249.951 49.9225 256.49 64.7581C256.815 65.4961 257.147 66.3732 257.481 67.3758C258.98 71.8714 260.539 78.891 261.87 87.2108C263.075 94.7374 264.094 103.328 264.715 112.077C265.221 119.203 265.463 126.434 265.326 133.28C265.026 148.323 262.899 161.508 257.729 167.641L275.909 173.135L294.088 178.629C295.101 168.853 296.005 155.189 296.152 140.582C296.267 129.138 295.917 117.114 294.79 105.926C293.8 96.0999 292.211 86.9183 289.81 79.34C288.093 73.9198 285.961 69.3198 283.336 65.8908C281.6 63.6229 279.806 61.604 277.974 59.8104C258.957 41.1916 235.86 46.8508 231.49 50.2218Z" fill="#89CB90"/>
<path d="M231.49 50.2218C226.699 53.9176 249.951 49.9225 256.49 64.7581C256.815 65.4961 257.147 66.3732 257.481 67.3758M231.49 50.2218C240.458 49.2441 258.825 51.2461 268.512 65.2333M231.49 50.2218C235.86 46.8508 258.957 41.1916 277.974 59.8104M275.909 173.135L257.729 167.641C262.899 161.508 265.026 148.323 265.326 133.28M275.909 173.135L294.088 178.629C295.101 168.853 296.005 155.189 296.152 140.582M275.909 173.135C277.093 168.372 278.069 163.537 278.848 158.676M278.848 158.676C283.424 157.406 293.29 152.009 296.152 140.582M278.848 158.676C280.056 151.137 280.791 143.533 281.097 136.032M296.152 140.582C296.267 129.138 295.917 117.114 294.79 105.926M294.79 105.926C292.599 110.465 286.804 119.894 281.153 121.3M294.79 105.926C293.8 96.0999 292.211 86.9183 289.81 79.34M281.153 121.3C281.075 118.96 280.956 116.642 280.798 114.351M281.153 121.3C281.314 126.133 281.3 131.06 281.097 136.032M289.81 79.34C288.093 73.9198 285.961 69.3198 283.336 65.8908C281.6 63.6229 279.806 61.604 277.974 59.8104M289.81 79.34C288.607 84.1868 284.772 94.8642 279.053 98.8001M279.053 98.8001C278.432 94.8593 277.687 91.0555 276.828 87.4233M279.053 98.8001C279.839 103.788 280.427 108.995 280.798 114.351M261.87 87.2108C265.636 88.8554 273.899 91.2005 276.828 87.4233M261.87 87.2108C260.539 78.891 258.98 71.8714 257.481 67.3758M261.87 87.2108C263.075 94.7374 264.094 103.328 264.715 112.077M276.828 87.4233C275.96 83.7515 274.975 80.2551 273.883 76.9698M268.512 65.2333C269.854 67.1712 271.03 69.339 271.99 71.7609C272.652 73.4298 273.284 75.168 273.883 76.9698M268.512 65.2333C267.086 65.8964 262.882 67.2532 257.481 67.3758M277.974 59.8104C278.683 64.6254 278.858 74.7984 273.883 76.9698M280.798 114.351C277.484 115.074 269.629 115.631 264.715 112.077M264.715 112.077C265.221 119.203 265.463 126.434 265.326 133.28M281.097 136.032C277.462 136.276 269.218 136.068 265.326 133.28" stroke="#3A2C08" stroke-width="0.3"/>
<g style="mix-blend-mode:multiply">
<path d="M280.619 110.941C281.711 131.783 279.216 160.987 275.92 172.821L257.752 167.33C258.164 167.455 259.687 165.619 262.477 157.279C265.966 146.854 267.587 114.529 260.819 82.3335C258.827 72.8591 257.882 66.6638 255.17 62.4353C254.797 61.2143 252.942 59.5844 252.138 58.9132C251.283 58.1644 249.619 57.028 248.894 56.5534C248.104 56.0778 245.853 55.1329 245.187 54.8479C244.521 54.563 241.315 53.6915 240.552 53.4472C239.79 53.2029 238.1 52.9849 237.615 52.8382C237.13 52.6916 235.97 52.5641 235.387 52.4664C234.803 52.3688 232.911 52.0823 232.384 51.9686C231.857 51.8548 230.917 51.6011 230.885 51.1058C230.859 50.7095 231.352 50.3563 231.601 50.2293C232.291 49.9167 238.914 50.169 240.992 50.3132C243.07 50.4573 248.196 51.5973 251.576 52.7303C254.279 53.6366 258.54 56.0384 260.333 57.1261C269.955 62.901 279.011 80.2823 280.619 110.941Z" fill="#CCDFD4"/>
</g>
<path d="M279.653 161.837L304.227 164.813C298.975 157.317 291.557 145.159 284.504 131.883C279.28 122.05 274.255 111.603 270.459 101.985C269.238 98.8899 268.143 95.8808 267.21 93.0054C265.921 89.0314 265.408 84.9103 265.508 80.7537C265.717 72.0723 268.602 63.2355 272.683 55.2578C278.387 44.1041 286.428 34.6296 292.759 29.6068C290.197 26.8865 280.246 23.9208 266.911 33.4219C261.082 37.5745 254.607 44.1087 247.82 54.0858C242.966 61.2215 239.808 69.5757 238.13 78.5011C236.351 87.9627 236.236 98.0662 237.53 108.04C238.651 116.692 240.832 125.246 243.906 133.2C246.776 140.629 250.426 147.534 254.717 153.505C257.175 156.926 259.844 160.04 262.699 162.77L279.653 161.837Z" fill="#79A000"/>
<path d="M247.82 54.0858C242.966 61.2215 239.808 69.5757 238.13 78.501M247.82 54.0858C245.839 59.8898 249.78 67.5017 251.998 70.5821M247.82 54.0858C254.607 44.1087 261.082 37.5745 266.911 33.4219M279.653 161.837L304.227 164.813C298.975 157.317 291.557 145.159 284.504 131.883M279.653 161.837L262.699 162.77C259.844 160.04 257.175 156.926 254.717 153.505M279.653 161.837C278.051 160.747 275.427 157.677 272.378 153.101M258.066 124.622C261.202 123.124 268.071 116.5 270.459 101.985M258.066 124.622C259.537 128.533 261.117 132.251 262.737 135.719M258.066 124.622C256.527 120.531 255.109 116.227 253.892 111.776M270.459 101.985C269.238 98.8899 268.143 95.8809 267.21 93.0054C265.921 89.0314 265.408 84.9103 265.508 80.7537M270.459 101.985C274.255 111.603 279.28 122.05 284.504 131.883M262.737 135.719C258.668 137.495 249.204 139.477 243.906 133.2M262.737 135.719C264.379 139.234 266.062 142.493 267.711 145.437M243.906 133.2C246.776 140.629 250.426 147.534 254.717 153.505M243.906 133.2C240.832 125.246 238.651 116.692 237.53 108.04M267.711 145.437C272.35 144.816 282.203 141.236 284.504 131.883M267.711 145.437C269.321 148.31 270.899 150.883 272.378 153.101M272.378 153.101C268.712 154.637 260.049 156.867 254.717 153.505M253.892 111.776C250.39 113.378 242.215 114.873 237.53 108.04M253.892 111.776C252.625 107.144 251.576 102.352 250.835 97.4719M237.53 108.04C236.236 98.0662 236.351 87.9627 238.13 78.501M250.835 97.4719C254.771 94.9197 263.216 88.003 265.508 80.7537M250.835 97.4719C250.45 94.9326 250.148 92.3695 249.943 89.7928M265.508 80.7537C265.717 72.0723 268.602 63.2355 272.683 55.2578M249.943 89.7928C249.711 86.8905 249.602 83.9709 249.634 81.0484C249.9 78.7402 250.634 75.0192 251.998 70.5821M249.943 89.7928C246.131 88.7338 238.431 84.9929 238.13 78.501M251.998 70.5821C253.174 66.7575 254.817 62.4008 257.031 57.9582M266.911 33.4219C280.246 23.9208 290.197 26.8865 292.759 29.6068C286.428 34.6296 278.387 44.1041 272.683 55.2578M266.911 33.4219C262.638 39.6338 263.683 47.0446 263.144 47.8375C260.743 51.129 258.721 54.5686 257.031 57.9582M257.031 57.9582C260.097 58.9334 267.519 59.7587 272.683 55.2578" stroke="#3A2C08" stroke-width="0.3"/>
<g style="mix-blend-mode:multiply">
<path d="M256.555 70.922C248.486 104.666 274.32 145.299 286.206 162.51L304.07 164.674C297.543 153.365 282.605 128.753 278.185 119.457C272.406 107.303 264.972 90.3479 265.403 79.1207C265.834 67.8936 272.207 56.7324 275.55 49.9991C278.224 44.6124 287.097 34.3184 292.695 29.8005L292.647 29.3004C291.38 28.3371 289.032 27.4115 287.761 27.2365C280.552 29.6761 263.869 40.3317 256.555 70.922Z" fill="#C4C4C4"/>
</g>
</g>
<defs>
<clipPath id="clip0">
<rect x="228.5" y="19" width="60" height="141" fill="white"/>
</clipPath>
</defs>
</svg>
