<svg width="1920" height="408" viewBox="0 0 1920 408" fill="none" xmlns="http://www.w3.org/2000/svg">
<path d="M0.261719 0H1920.26V410H0.261719V0Z" fill="#E6B25E"/>
<path d="M1221.49 -1.37759C1280.94 64.5568 1227.34 252.181 1193.11 337.752L1060.71 337.752L1221.49 -1.37759Z" fill="#663131" stroke="#3A2C08" stroke-width="0.3"/>
<path d="M1191.65 -174.33C1250.02 27.7963 1138.23 244.314 1067.97 331.686L1011.22 331.686C1039.6 292.053 1081.72 169.885 1102.71 63.3438C1126.75 -58.5828 1126.13 -293.075 1102.71 -389.004C1104.07 -425.484 1133.28 -376.457 1191.65 -174.33Z" fill="#FA9C7E" stroke="#3A2C08" stroke-width="0.3"/>
<path d="M1450.93 1.05188C1479.3 63.2031 1430.66 292.892 1427.96 298.297C1425.31 309.106 1424.15 324.418 1423.9 330.724L1260.42 333.426C1293.75 267.221 1363.1 123.733 1373.91 79.4165C1387.42 24.0208 1367.16 -108.388 1380.67 -101.633C1394.18 -94.8772 1422.55 -61.0993 1450.93 1.05188Z" fill="#3C1717" stroke="#3A2C08" stroke-width="0.3"/>
<path d="M994.658 -224.582C1049.78 -120.816 1017.63 51.0457 994.658 124.006L918.996 49.6946C914.042 -16.0596 905.485 -154.324 910.89 -181.346C916.294 -208.368 908.638 -308.801 904.134 -355.64C911.34 -355.189 939.533 -328.347 994.658 -224.582Z" fill="#3C1717" stroke="#3A2C08" stroke-width="0.3"/>
<path d="M913.64 -178.645C929.854 -136.49 967.594 239.37 972.998 301.972C935.167 361.421 836.627 348.556 836.627 337.747L836.627 146.973C843.382 -184.05 737.996 -335.374 713.675 -379.961C694.219 -415.631 622.7 -474.99 589.373 -500.21C598.38 -504.714 635.851 -505.345 713.675 -471.837C810.956 -429.953 893.374 -231.339 913.64 -178.645Z" fill="#ED7C6E"/>
<path d="M589.373 -500.21C598.38 -504.714 635.851 -505.345 713.675 -471.837C810.956 -429.953 893.374 -231.339 913.64 -178.645C929.854 -136.49 967.594 239.37 972.998 301.972C935.167 361.421 836.627 348.556 836.627 337.747C836.627 326.938 836.627 169.041 836.627 146.973C843.382 -184.05 737.996 -335.375 713.675 -379.961C694.219 -415.631 622.7 -474.99 589.373 -500.21ZM589.373 -500.21C651.299 -470.61 830.117 -321.284 863.562 -191.025" stroke="#3A2C08" stroke-width="0.3"/>
<path d="M633.444 63.4965C718.835 115.379 745.587 255.805 748.289 316.155L676.68 383.71L603.72 417.488C634.795 333.719 613.178 232.386 603.72 167.532C591.306 82.4121 476.715 13.5053 494.28 12.1542C511.844 10.8031 526.706 -1.35694 633.444 63.4965Z" fill="#663131"/>
<path d="M494.28 12.1542C511.844 10.8031 526.706 -1.35695 633.444 63.4965C718.835 115.379 745.587 255.805 748.289 316.155L676.68 383.71L603.72 417.488C634.795 333.719 613.178 232.386 603.72 167.532C591.306 82.4121 476.715 13.5053 494.28 12.1542ZM494.28 12.1542C537.067 28.3509 631.023 80.8963 664.543 161.505C698.064 242.113 695.802 312.812 690.482 338.085" stroke="#3A2C08" stroke-width="0.3"/>
<g style="mix-blend-mode:multiply">
<path d="M491.185 13.3132C496.573 31.6822 538.744 40.9578 588.179 122.614C603.922 148.617 606.604 181.98 611.819 216.615C621.477 280.763 621.946 353.003 604.104 417.219L649.706 404.19C655.497 398.882 668.528 369.445 674.319 294.165C681.557 200.065 599.958 86.4017 578.241 69.0294C560.867 55.1315 516.278 24.6534 491.185 13.3132Z" fill="#C4C4C4"/>
</g>
<path d="M1331.01 -5.7023C1407.76 99.1441 1319.75 263.169 1266.16 332.076L1185.09 332.076L1104.03 332.076C1143.66 287.94 1218.06 187.777 1252.65 113.196C1287.24 38.6142 1232.83 -64.2506 1194.55 -102.982C1208.06 -114.242 1254.27 -110.549 1331.01 -5.7023Z" fill="#663131"/>
<path d="M1185.09 332.076L1104.03 332.076C1143.66 287.94 1218.06 187.777 1252.65 113.196C1287.24 38.6142 1232.83 -64.2506 1194.55 -102.983C1208.06 -114.242 1254.27 -110.549 1331.01 -5.7023C1407.76 99.1441 1319.75 263.169 1266.16 332.076L1185.09 332.076ZM1185.09 332.076C1223.97 302.163 1307.3 213.475 1307.3 91.773" stroke="#3A2C08" stroke-width="0.3"/>
<g style="mix-blend-mode:multiply">
<path d="M1295.99 45.5958C1308.93 158.481 1208.94 280.41 1163.52 331.686L1104.59 331.686C1130.26 297.489 1186.38 222.249 1205.45 194.864C1229.29 160.632 1259.49 104.177 1262.51 67.5058C1264.65 41.5261 1250.68 -6.70022 1242.47 -29.9075C1235.89 -48.4734 1207.87 -85.9228 1194.68 -102.327L1195.03 -103.934C1198.31 -107.599 1207.53 -108.652 1211.73 -108.72C1234.21 -97.9503 1284.25 -56.7378 1295.99 45.5958Z" fill="#C4C4C4"/>
</g>
<path d="M1405.96 -62.446C1436.22 57.5328 1314.68 254.053 1250.72 335.57L1187.22 335.57L1123.72 335.57C1131.82 329.716 1160.32 299.382 1204.64 238.852C1248.96 178.322 1357.32 12.7659 1405.96 -62.446Z" fill="#CC5344"/>
<path d="M1187.22 335.57L1123.72 335.57C1131.82 329.716 1160.32 299.382 1204.64 238.852C1248.96 178.322 1357.32 12.7659 1405.96 -62.4461C1436.22 57.5328 1314.68 254.053 1250.72 335.57L1187.22 335.57ZM1187.22 335.57C1213.36 308.732 1280.05 224.341 1332.88 115.449" stroke="#3A2C08" stroke-width="0.3"/>
<g style="mix-blend-mode:multiply">
<path d="M1405.2 -60.3247C1411.33 -64.2776 1409.86 -40.3954 1408.9 -29.8324C1398.35 41.2457 1321.51 72.0957 1274.97 135.955C1273.63 137.871 1272.28 139.785 1270.93 141.693C1272.25 139.75 1273.6 137.838 1274.97 135.955C1338.86 44.7384 1396.21 -54.515 1405.2 -60.3247Z" fill="#C4C4C4"/>
</g>
<path d="M1382.26 343.885L1312.68 343.885C1358.74 297.387 1412 215.92 1397.25 146.749C1382.49 77.5785 1368.84 54.5216 1358.05 41.8403C1363.81 26.8533 1431.77 79.3626 1457.2 166.347C1479.1 241.281 1435.71 328.898 1382.26 343.885Z" fill="#AC6B4E" stroke="#3A2C08" stroke-width="0.3"/>
<path d="M1109.5 -288.09C1171.11 -109.742 1073.02 202.365 1016.27 336.125L954.798 336.125L893.322 336.125C929.802 286.134 1008.17 138.592 1029.78 -51.6446C1056.81 -289.441 955.473 -470.49 944.664 -498.863C933.855 -527.237 886.566 -582.632 904.131 -578.579C921.695 -574.526 1032.49 -511.023 1109.5 -288.09Z" fill="#663131"/>
<path d="M954.798 336.125L893.322 336.125C929.802 286.134 1008.17 138.592 1029.78 -51.6446C1056.81 -289.441 955.473 -470.49 944.664 -498.863C933.855 -527.237 886.566 -582.632 904.131 -578.579C921.695 -574.526 1032.49 -511.023 1109.5 -288.09C1171.11 -109.743 1073.02 202.365 1016.27 336.125L954.798 336.125ZM954.798 336.125C1013.31 211.335 1121.67 -75.0141 1087.07 -222.088C1052.46 -369.162 1025.45 -427.559 1016.27 -438.373" stroke="#3A2C08" stroke-width="0.3"/>
<g style="mix-blend-mode:multiply">
<path d="M1002.06 89.0723C1004.02 84.0051 1006.06 78.5332 1008.15 72.6923C1020.35 28.9249 1030.76 -71.2153 1033.44 -102.19C1036.56 -138.221 1026.51 -238.691 1021.32 -279.572C1016.12 -320.453 980.091 -412.955 965.54 -453.143C950.989 -493.331 909.415 -556.731 908.029 -560.542C906.643 -564.353 896.943 -573.707 899.715 -577.518C901.932 -580.567 911.537 -577.439 916.062 -575.494C938.183 -563.343 994.764 -502.962 1044.12 -358.645C1090.67 -222.534 1042.76 -24.1803 1008.15 72.6923C1006.16 79.8361 1004.12 85.4781 1002.06 89.0723Z" fill="#C4C4C4"/>
</g>
<path d="M996.009 157.778C989.524 226.955 895.126 305.5 848.737 336.125C832.231 336.125 811.867 336.068 791.66 335.922C735.902 335.522 681.334 334.452 712.275 332.072C764.969 328.018 894.676 137.511 912.24 106.436C929.805 75.3601 929.804 13.2088 952.773 24.0177C975.742 34.8267 1004.12 71.3067 996.009 157.778Z" fill="#AC6B4E"/>
<path d="M934.735 157.778C924.743 191.326 882.139 273.923 791.66 335.922M791.66 335.922C735.902 335.522 681.334 334.452 712.275 332.072C764.969 328.018 894.676 137.511 912.24 106.436C929.805 75.3601 929.804 13.2088 952.773 24.0177C975.742 34.8267 1004.12 71.3067 996.009 157.778C989.524 226.955 895.126 305.5 848.737 336.125C832.231 336.125 811.867 336.068 791.66 335.922Z" stroke="#3A2C08" stroke-width="0.3"/>
<g style="mix-blend-mode:multiply">
<path d="M950.691 23.4088C932.291 230.415 825.169 304.842 766.143 335.326L705.748 335.326C776.783 321.775 911.192 110.057 914.489 101.265C919.735 87.2752 934.443 32.7938 939.958 28.009C945.361 23.3214 948.647 22.3866 950.691 23.4088Z" fill="#C4C4C4"/>
</g>
<path d="M551.801 242.938C586.105 290.854 588.961 369.471 579.707 417.973C577.654 429.299 571.348 433.558 568.452 434.272C552.998 439.36 560.237 465.8 542.113 434.748C519.458 395.934 518.686 330.524 522.046 300.15C530.577 223.024 464.211 206.938 449.798 200.852C470.351 203.487 525.442 206.119 551.801 242.938Z" fill="#1A1A1C" stroke="#3A2C08" stroke-width="0.3"/>
<path d="M1573.18 418.822C1590.67 572.113 1297.06 549.151 1179.98 530.417C1071.89 536.639 767.566 530.417 613.593 530.417C512.966 530.417 534.033 371.177 602.677 323.421C773.288 204.728 893.67 406.921 1014.18 298.322C1181.18 147.821 1528.18 24.421 1573.18 418.822Z" fill="#663131"/>
<path d="M1519.38 286.886C1496.28 312.504 1517.1 385.4 1530.4 418.646L1581.84 418.646L1519.38 286.886Z" fill="#3C1717" stroke="#3A2C08" stroke-width="0.3"/>
<path d="M1530.97 219.69C1508.29 298.221 1551.73 382.343 1579.02 416.289L1601.07 416.289C1590.05 400.891 1573.68 353.425 1565.52 312.032C1556.19 264.66 1556.42 173.555 1565.52 136.284C1565 122.11 1553.65 141.158 1530.97 219.69Z" fill="#FA9C7E" stroke="#3A2C08" stroke-width="0.3"/>
<path d="M1430.23 287.829C1419.21 311.977 1438.11 401.217 1439.16 403.316C1440.19 407.516 1440.64 413.465 1440.73 415.915L1504.25 416.965C1491.3 391.243 1464.35 335.494 1460.16 318.276C1454.91 296.753 1462.78 245.309 1457.53 247.934C1452.28 250.559 1441.26 263.682 1430.23 287.829Z" fill="#3C1717" stroke="#3A2C08" stroke-width="0.3"/>
<path d="M1607.51 200.165C1586.09 240.48 1598.58 307.253 1607.51 335.6L1636.9 306.728C1638.83 281.181 1642.15 227.462 1640.05 216.963C1637.95 206.464 1640.93 167.444 1642.68 149.246C1639.88 149.421 1628.92 159.849 1607.51 200.165Z" fill="#3C1717" stroke="#3A2C08" stroke-width="0.3"/>
<path d="M1638.98 218.013C1632.68 234.391 1618.02 380.422 1615.92 404.744C1630.62 427.842 1668.91 422.843 1668.91 418.644L1668.91 344.524C1666.28 215.913 1707.23 157.12 1716.67 139.797C1724.23 125.938 1752.02 102.876 1764.97 93.0771C1761.47 91.3273 1746.91 91.0823 1716.68 104.101C1678.88 120.374 1646.86 197.54 1638.98 218.013Z" fill="#ED7C6E"/>
<path d="M1764.97 93.0771C1761.47 91.3273 1746.91 91.0823 1716.68 104.101C1678.88 120.374 1646.86 197.54 1638.98 218.013C1632.68 234.391 1618.02 380.422 1615.92 404.744C1630.62 427.842 1668.91 422.843 1668.91 418.644C1668.91 414.444 1668.91 353.098 1668.91 344.524C1666.28 215.913 1707.23 157.12 1716.67 139.797C1724.23 125.938 1752.02 102.876 1764.97 93.0771ZM1764.97 93.0771C1740.91 104.578 1671.43 162.594 1658.44 213.203" stroke="#3A2C08" stroke-width="0.3"/>
<path d="M1747.85 312.091C1714.67 332.248 1704.28 386.807 1703.23 410.254L1731.05 436.501L1759.4 449.625C1747.32 417.079 1755.72 377.708 1759.4 352.511C1764.22 319.44 1808.74 292.668 1801.92 292.143C1795.09 291.618 1789.32 286.893 1747.85 312.091Z" fill="#663131"/>
<path d="M1801.92 292.143C1795.09 291.618 1789.32 286.893 1747.85 312.091C1714.67 332.248 1704.28 386.807 1703.23 410.254L1731.05 436.501L1759.4 449.625C1747.32 417.079 1755.72 377.708 1759.4 352.511C1764.22 319.44 1808.74 292.668 1801.92 292.143ZM1801.92 292.143C1785.29 298.436 1748.79 318.851 1735.76 350.169C1722.74 381.487 1723.62 408.956 1725.69 418.775" stroke="#3A2C08" stroke-width="0.3"/>
<g style="mix-blend-mode:multiply">
<path d="M1803.12 292.592C1801.03 299.729 1784.64 303.333 1765.43 335.058C1759.32 345.161 1758.28 358.123 1756.25 371.58C1752.5 396.503 1752.32 424.57 1759.25 449.52L1741.53 444.458C1739.28 442.395 1734.22 430.958 1731.97 401.71C1729.15 365.15 1760.86 320.989 1769.3 314.24C1776.05 308.84 1793.37 296.998 1803.12 292.592Z" fill="#C4C4C4"/>
</g>
<path d="M1476.82 285.206C1447.01 325.942 1481.2 389.669 1502.02 416.441L1533.52 416.441L1565.01 416.441C1549.61 399.293 1520.71 360.378 1507.27 331.401C1493.83 302.424 1514.97 262.459 1529.84 247.411C1524.59 243.036 1506.64 244.471 1476.82 285.206Z" fill="#663131"/>
<path d="M1533.52 416.441L1565.01 416.441C1549.61 399.293 1520.71 360.378 1507.27 331.401C1493.83 302.424 1514.97 262.459 1529.84 247.411C1524.59 243.036 1506.64 244.471 1476.82 285.206C1447.01 325.942 1481.2 389.669 1502.02 416.441L1533.52 416.441ZM1533.52 416.441C1518.41 404.819 1486.04 370.362 1486.04 323.078" stroke="#3A2C08" stroke-width="0.3"/>
<g style="mix-blend-mode:multiply">
<path d="M1490.43 305.136C1485.4 348.995 1524.25 396.367 1541.9 416.289L1564.8 416.289C1554.82 403.003 1533.02 373.77 1525.61 363.13C1516.35 349.83 1504.61 327.896 1503.44 313.649C1502.61 303.555 1508.03 284.818 1511.23 275.801C1513.78 268.588 1524.67 254.038 1529.79 247.665L1529.66 247.04C1528.38 245.616 1524.8 245.207 1523.17 245.181C1514.44 249.365 1494.99 265.377 1490.43 305.136Z" fill="#C4C4C4"/>
</g>
<path d="M1447.71 263.158C1435.95 309.773 1483.17 386.125 1508.02 417.797L1532.69 417.797L1557.36 417.797C1554.21 415.522 1543.14 403.737 1525.92 380.22C1508.7 356.702 1466.6 292.38 1447.71 263.158Z" fill="#A74935"/>
<path d="M1532.69 417.797L1557.36 417.797C1554.21 415.522 1543.14 403.737 1525.92 380.22C1508.7 356.702 1466.6 292.38 1447.71 263.158C1435.95 309.773 1483.17 386.125 1508.02 417.797L1532.69 417.797ZM1532.69 417.797C1522.54 407.369 1496.63 374.582 1476.1 332.274" stroke="#3A2C08" stroke-width="0.3"/>
<g style="mix-blend-mode:multiply">
<path d="M1448 263.982C1445.62 262.447 1446.19 271.725 1446.56 275.829C1450.66 303.445 1480.52 315.431 1498.6 340.242C1499.12 340.986 1499.64 341.73 1500.17 342.471C1499.65 341.717 1499.13 340.974 1498.6 340.242C1473.77 304.802 1451.5 266.24 1448 263.982Z" fill="#C4C4C4"/>
</g>
<path d="M1355.61 357.641C1358.27 363.635 1403.34 408.426 1425.54 430.072L1373.92 430.072C1348.12 409.259 1352.28 350.148 1355.61 357.641Z" fill="#3C1717" stroke="#3A2C08" stroke-width="0.3"/>
<path d="M1456.91 421.027L1483.95 421.027C1466.05 402.962 1445.36 371.31 1451.09 344.435C1456.82 317.561 1462.13 308.603 1466.32 303.676C1464.08 297.853 1437.68 318.254 1427.8 352.049C1419.29 381.163 1436.15 415.204 1456.91 421.027Z" fill="#FA9C7E" stroke="#3A2C08" stroke-width="0.3"/>
<path d="M1562.89 175.491C1538.95 244.783 1577.06 366.045 1599.11 418.014L1622.99 418.014L1646.88 418.014C1632.7 398.591 1602.26 341.267 1593.86 267.356C1583.36 174.966 1622.73 104.624 1626.93 93.6004C1631.13 82.5767 1649.5 61.0541 1642.68 62.6289C1635.85 64.2038 1592.81 88.8759 1562.89 175.491Z" fill="#CC5344"/>
<path d="M1622.99 418.014L1646.88 418.014C1632.7 398.591 1602.26 341.267 1593.86 267.356C1583.36 174.966 1622.73 104.624 1626.93 93.6004C1631.13 82.5767 1649.5 61.0541 1642.68 62.6289C1635.85 64.2038 1592.81 88.876 1562.89 175.491C1538.95 244.783 1577.06 366.045 1599.11 418.014L1622.99 418.014ZM1622.99 418.014C1600.26 369.53 1558.16 258.276 1571.6 201.134C1585.05 143.993 1595.54 121.304 1599.11 117.102" stroke="#3A2C08" stroke-width="0.3"/>
<g style="mix-blend-mode:multiply">
<path d="M1604.63 322.027C1603.87 320.059 1603.08 317.933 1602.27 315.663C1597.52 298.659 1593.48 259.752 1592.44 247.717C1591.23 233.718 1595.13 194.683 1597.15 178.8C1599.17 162.917 1613.17 126.978 1618.82 111.364C1624.47 95.7495 1640.63 71.1171 1641.16 69.6364C1641.7 68.1558 1645.47 64.5215 1644.39 63.0408C1643.53 61.8563 1639.8 63.0714 1638.04 63.8271C1629.45 68.548 1607.47 92.0076 1588.29 148.078C1570.21 200.961 1588.82 278.026 1602.27 315.663C1603.04 318.439 1603.83 320.631 1604.63 322.027Z" fill="#C4C4C4"/>
</g>
<path d="M1606.98 348.722C1609.5 375.598 1646.18 406.115 1664.2 418.014C1670.61 418.014 1678.52 417.991 1686.38 417.935C1708.04 417.779 1729.24 417.364 1717.22 416.439C1696.75 414.864 1646.35 340.847 1639.53 328.774C1632.7 316.7 1632.7 292.553 1623.78 296.752C1614.86 300.952 1603.83 315.125 1606.98 348.722Z" fill="#AC6B4E"/>
<path d="M1630.79 348.722C1634.67 361.756 1651.22 393.847 1686.38 417.935M1686.38 417.935C1708.04 417.779 1729.24 417.364 1717.22 416.439C1696.75 414.864 1646.35 340.847 1639.53 328.774C1632.7 316.7 1632.7 292.553 1623.78 296.752C1614.86 300.952 1603.83 315.125 1606.98 348.722C1609.5 375.598 1646.18 406.115 1664.2 418.014C1670.61 418.014 1678.52 417.991 1686.38 417.935Z" stroke="#3A2C08" stroke-width="0.3"/>
<g style="mix-blend-mode:multiply">
<path d="M1624.59 296.516C1631.74 376.943 1673.36 405.859 1696.29 417.703L1719.75 417.703C1692.16 412.438 1639.93 330.181 1638.65 326.765C1637.83 321.864 1630.55 301.282 1628.76 298.303C1627.33 295.92 1625.38 296.118 1624.59 296.516Z" fill="#C4C4C4"/>
</g>
<path d="M1254.85 89.5143C1264.42 97.1016 1269.48 112.601 1270.4 122.793C1270.64 125.166 1269.63 126.375 1269.09 126.683C1266.3 128.579 1265.07 135.742 1259.68 130.591C1252.95 124.152 1253.25 108.855 1252.19 102.612C1249.48 86.7588 1235.34 87.3438 1232.12 86.9544C1236.37 86.3057 1247.49 83.6841 1254.85 89.5143Z" fill="#ECE17E" stroke="#3A2C08" stroke-width="0.3"/>
<g style="mix-blend-mode:multiply">
<path d="M1255.98 95.8202C1251.5 87.5927 1238.2 86.4073 1232.19 86.8893C1246.59 88.0436 1248.46 94.0423 1249.21 94.7916C1249.91 95.4993 1250.78 102.525 1250.92 104.221C1251.44 110.719 1256.41 123.745 1259.48 130.644L1264.11 130.217C1264.17 126.228 1260.46 104.048 1255.98 95.8202Z" fill="#D9D6C0"/>
</g>
<path d="M1270.85 136.133C1271.93 157.606 1264.05 137.443 1265.15 149.03C1265.69 148.755 1300.25 155.304 1287.62 140.579C1278.36 129.785 1292.83 114.53 1307.73 113.517C1288.48 103.367 1270.04 119.959 1270.85 136.133Z" fill="#704A4A" stroke="#3A2C08" stroke-width="0.3"/>
<path d="M1245.32 150.789C1263.17 162.765 1244.73 150.409 1256.35 151.006C1256.15 150.435 1273.1 140.546 1254.97 133.641C1236.84 126.735 1225.56 117.178 1216.51 94.9182C1217.72 124.935 1230.07 140.562 1245.32 150.789Z" fill="#704A4A" stroke="#3A2C08" stroke-width="0.3"/>
<path d="M1246.68 89.3924C1246.64 90.6291 1248.11 95.2585 1248.85 97.4187C1251.26 104.425 1260.1 116.8 1263.84 121.547C1267.57 126.293 1276.86 136.589 1281.38 140.133C1282.63 139.12 1283.28 131.058 1282.09 130.788C1280.6 130.452 1270.45 120.521 1265.62 115.774C1260.79 111.026 1248.35 91.1868 1247.91 90.6393C1247.63 90.2956 1247.24 89.283 1246.97 88.959C1246.81 88.7669 1246.69 88.8169 1246.68 89.3924Z" fill="#704A4A"/>
<path d="M1246.97 88.959C1246.81 88.7669 1246.69 88.8169 1246.68 89.3924C1246.64 90.6291 1248.11 95.2585 1248.85 97.4187C1251.26 104.425 1260.1 116.8 1263.84 121.547C1267.57 126.293 1276.86 136.589 1281.38 140.133C1282.63 139.12 1283.28 131.058 1282.09 130.788C1280.6 130.452 1270.45 120.521 1265.62 115.774C1260.79 111.026 1248.35 91.1868 1247.91 90.6393C1247.63 90.2956 1247.24 89.283 1246.97 88.959ZM1246.97 88.959C1248.18 93.1651 1252.42 103.665 1259.63 112.017C1266.84 120.369 1276.02 128.427 1276.82 129.444" stroke="#3A2C08" stroke-width="0.3"/>
<g style="mix-blend-mode:multiply">
<path d="M1259.06 111.846C1255.38 107.118 1248.1 95.1617 1247.01 89.0603C1247.34 89.7563 1253.89 99.8256 1254.2 100.168C1254.52 100.511 1258.11 106.143 1258.54 106.819C1258.97 107.495 1263.53 113.313 1264.11 114.008C1264.58 114.564 1267.66 117.783 1269.12 119.214C1273.41 123.074 1282.05 131.031 1282.62 131.484C1283.19 131.938 1284.75 133.29 1285.46 133.909L1283.87 136.271C1277.38 130.229 1263.04 116.96 1259.06 111.846Z" fill="#895151"/>
</g>
<path d="M1269.23 90.9486C1268.17 92.0757 1267.46 94.2262 1267.24 95.1606C1266.21 102.551 1267.99 123.605 1268.72 133.284C1271.13 122.06 1276.56 98.462 1279.04 93.8665C1281.53 89.2711 1286.04 89.856 1288.26 90.6473C1280.46 87.877 1270.55 89.5398 1269.23 90.9486Z" fill="#BE9E4A" stroke="#3A2C08" stroke-width="0.3"/>
<g style="mix-blend-mode:multiply">
<path d="M1271.32 106.071C1274.16 94.0417 1279.99 89.9433 1283.72 89.7363C1284.54 89.7025 1285.64 90.0166 1286.09 90.1779C1285.29 90.1894 1283.42 90.2948 1282.32 90.6241C1280.95 91.0358 1279.25 93.4403 1278.83 94.1691C1278.28 95.1306 1275.34 105.331 1275.13 106.133C1274.86 107.154 1270.92 123.519 1270.62 124.681C1270.37 125.611 1268.53 131.56 1268.12 133.13L1269.59 125.905C1269.53 120.637 1268.78 116.84 1271.32 106.071Z" fill="#C4C4C4"/>
</g>
<path d="M1222.83 111.722C1226.07 111.319 1231.32 109.089 1233.54 108.024C1233.66 105.548 1229.05 105.949 1227.08 106.275C1225.48 107.088 1222.52 108.52 1220.62 109.215C1218.71 109.91 1215.16 109.272 1213.62 108.867C1213.62 108.867 1213.14 109.334 1214.01 110.589C1214.89 111.844 1218.78 112.226 1222.83 111.722Z" fill="#AC6B4E" stroke="#3A2C08" stroke-width="0.3"/>
<path d="M1248.47 107.324C1254.65 113.555 1260.69 133.176 1262.7 144.98L1248.74 143.581C1249.72 139.681 1246.06 129.627 1242.08 118.147C1238.9 108.963 1230.76 106.396 1227.08 106.26C1229.03 105.464 1233.39 103.754 1235.29 103.284C1237.65 102.696 1241.82 100.624 1248.47 107.324Z" fill="#C37D5E"/>
<path d="M1227.08 106.26C1229.03 105.464 1233.39 103.754 1235.29 103.284C1237.65 102.696 1241.82 100.624 1248.47 107.324C1254.65 113.555 1260.69 133.176 1262.7 144.98L1248.74 143.581C1249.72 139.681 1246.06 129.627 1242.08 118.147C1238.9 108.963 1230.76 106.396 1227.08 106.26ZM1227.08 106.26C1232.09 106.077 1243.82 109.039 1250.74 122.357" stroke="#3A2C08" stroke-width="0.3"/>
<g style="mix-blend-mode:multiply">
<path d="M1252.1 125.69C1246.33 110.139 1234.11 106.465 1228.46 106.419C1229.37 106.458 1231.84 107.09 1234.34 108.515C1236.83 109.936 1238.41 111.304 1240.54 114.616C1241.47 116.076 1247.31 133.61 1248.42 136.713C1249.14 138.723 1248.72 142.314 1248.68 143.792L1261.55 144.934C1261.58 144.941 1261.61 144.944 1261.64 144.942L1261.55 144.934C1260.65 144.724 1257.66 140.693 1252.1 125.69Z" fill="#C4C4C4"/>
</g>
<path d="M1276.09 110.534C1270.45 113.2 1270.14 125.434 1270.91 131.001C1273.61 131.461 1278.97 130.927 1278.79 125.108C1278.61 119.29 1283.12 111.031 1285.39 107.629C1284.48 107.631 1281.72 107.868 1276.09 110.534Z" fill="#C37D5E" stroke="#3A2C08" stroke-width="0.3"/>
<g style="mix-blend-mode:multiply">
<path d="M1279.02 112.567C1276.03 114.161 1273.65 114.794 1272.48 114.865C1272.64 114.187 1273.4 112.658 1274.79 111.454C1276.71 109.774 1278.74 109.796 1280.07 109.686C1281.11 109.601 1283.78 109.028 1284.78 108.559L1282.67 112.22C1282.32 111.942 1280.95 111.534 1279.02 112.567Z" fill="#C4C4C4"/>
</g>
<path d="M1284.8 103.388C1279.17 104.976 1275.81 109.724 1275.15 111.006C1278.47 108.86 1280.36 110.576 1285.08 108.502C1289.84 106.417 1290.61 105.873 1295.67 106.724C1294.25 105.883 1290.43 101.801 1284.8 103.388Z" fill="#DF9A7B"/>
<path d="M1295.67 106.724C1294.25 105.883 1290.43 101.801 1284.8 103.388C1279.17 104.976 1275.81 109.724 1275.15 111.006C1278.47 108.86 1280.36 110.576 1285.08 108.502C1289.84 106.417 1290.61 105.873 1295.67 106.724ZM1295.67 106.724C1293.28 105.973 1287.96 104.538 1285.71 104.8C1283.47 105.062 1280.7 106.802 1279.59 107.639" stroke="#3A2C08" stroke-width="0.3"/>
<g style="mix-blend-mode:multiply">
<path d="M1279.01 107.901C1277.77 108.305 1276.36 109.445 1275.81 109.964L1275.16 110.958C1275.9 110.631 1277.55 109.944 1278.24 109.814C1279.11 109.651 1281.57 109.692 1282.7 109.387C1283.7 109.119 1288.87 106.754 1289.67 106.572C1290.06 106.484 1291 106.321 1292.05 106.341C1293.23 106.364 1294.55 106.581 1295.4 106.683C1294.54 105.905 1289.76 105.307 1287.6 106.217C1285.43 107.126 1280.54 107.396 1279.01 107.901Z" fill="#C4C4C4"/>
</g>
<path d="M1245.62 120.905C1252.75 120.322 1260.09 132.305 1262.51 138.287C1260.09 140.294 1254.46 142.836 1251.3 136.948C1248.13 131.059 1238.91 125.434 1234.7 123.358C1235.6 122.838 1238.48 121.488 1245.62 120.905Z" fill="#ECE17E" stroke="#3A2C08" stroke-width="0.3"/>
<g style="mix-blend-mode:multiply">
<path d="M1243.87 124.608C1247.75 124.481 1250.48 123.742 1251.69 123.14C1251.14 122.558 1249.5 121.477 1247.44 121.072C1244.56 120.507 1242.55 121.692 1241.16 122.35C1240.08 122.861 1237.1 123.826 1235.83 123.934L1240.03 126.362C1240.23 125.881 1241.35 124.69 1243.87 124.608Z" fill="#C4C4C4"/>
</g>
<path d="M1234.04 119.054C1240.55 117.398 1246.62 120.193 1248.01 121.088C1243.47 120.862 1242.59 123.649 1236.69 124.302C1230.77 124.958 1229.69 124.862 1225.15 128.608C1226.07 126.961 1227.53 120.71 1234.04 119.054Z" fill="#F8EE9D"/>
<path d="M1225.15 128.608C1226.07 126.961 1227.53 120.71 1234.04 119.054C1240.55 117.398 1246.62 120.193 1248.01 121.088C1243.47 120.862 1242.59 123.649 1236.69 124.302C1230.77 124.958 1229.69 124.862 1225.15 128.608ZM1225.15 128.608C1227.09 126.494 1231.56 122.009 1233.94 120.981C1236.33 119.953 1240.08 120.092 1241.66 120.29" stroke="#3A2C08" stroke-width="0.3"/>
<g style="mix-blend-mode:multiply">
<path d="M1242.4 120.214C1243.85 119.91 1245.91 120.232 1246.76 120.431L1247.97 121.049C1247.05 121.146 1245.02 121.408 1244.25 121.678C1243.29 122.016 1240.88 123.465 1239.57 123.814C1238.42 124.122 1231.93 124.735 1231.03 125.015C1230.59 125.15 1229.56 125.53 1228.53 126.15C1227.37 126.852 1226.18 127.824 1225.4 128.415C1225.8 127.149 1230.21 123.81 1232.89 123.471C1235.56 123.133 1240.58 120.595 1242.4 120.214Z" fill="#C4C4C4"/>
</g>
<path d="M1413.02 350.872C1409.77 345.437 1405.87 352.302 1399.79 349.443C1393.94 351.469 1390.41 366.398 1393.01 367.669C1401.05 371.6 1385.77 388.932 1396.02 391.068C1400.26 391.953 1416.05 355.955 1413.02 350.872Z" fill="#4F1C1C" stroke="black" stroke-width="0.3"/>
<g style="mix-blend-mode:multiply">
<path d="M1404.96 369.352C1401.93 378.531 1395.55 386.254 1392.75 388.969C1394.39 391.25 1396.42 390.957 1398 389.872C1399.57 388.787 1404.11 379.246 1407.38 372.726C1411.48 364.517 1413.33 355.526 1413.33 351.975C1413.33 349.593 1410.69 348.811 1409.31 348.717C1409.12 351.77 1408 360.172 1404.96 369.352Z" fill="#C4C4C4"/>
</g>
<path d="M1320.56 330.14C1320.33 327.568 1319.29 304.517 1318.81 293.313C1318.81 268.996 1346.67 229.013 1360.6 212.061C1358.46 242.75 1354.7 304.829 1356.8 307.635C1358.91 310.441 1389.83 330.822 1405.03 340.662C1400.45 353.425 1390.59 378.892 1387.78 378.658C1384.28 378.366 1320.85 333.355 1320.56 330.14Z" fill="#672524" stroke="black" stroke-width="0.3"/>
<g style="mix-blend-mode:multiply">
<path d="M1348.26 311.115C1347.64 308.331 1344.91 271.289 1343.62 253.116C1342.83 248.749 1359.61 225.559 1359.53 226.906C1359.45 228.253 1355.73 306.28 1356.52 307.864C1357.16 309.132 1389.05 330.361 1404.92 340.818L1399.49 354.228C1382.67 341.017 1348.88 313.899 1348.26 311.115Z" fill="#C4C4C4"/>
</g>
<path d="M1289.61 391.197C1292.24 387.858 1290.7 384.754 1289.61 382.631C1288.28 378.426 1274.67 379.336 1270.94 380.215C1267.2 381.094 1263.47 385.267 1260.17 385.486C1256.88 385.706 1240.19 389.22 1245.9 393.174C1251.61 397.127 1283.65 398.739 1289.61 391.197Z" fill="#4F1C1C" stroke="black" stroke-width="0.3"/>
<g style="mix-blend-mode:multiply">
<path d="M1273.02 391.275C1264.46 393.435 1250.97 391.552 1245.29 390.341C1245.07 390.652 1244.32 391.656 1244.85 392.433C1245.51 393.403 1251.26 395.41 1257.82 396.088C1264.37 396.766 1280.95 396.54 1286.83 393.15C1291.75 390.308 1291.14 386.201 1290.36 384.422C1288.14 385.806 1281.57 389.115 1273.02 391.275Z" fill="#C4C4C4"/>
</g>
<path d="M1313.68 73.5288C1310.35 80.7939 1315.02 102.087 1321.37 105.719C1322.9 106.593 1324.62 106.832 1326.35 106.673C1327.05 110.341 1325.56 116.213 1324.72 118.69C1327.4 120.818 1339.79 118.197 1345.71 115.585C1342.26 110.116 1344.69 100.921 1346.79 95.6391C1347.17 95.7513 1348.84 95.7183 1349.53 94.9409C1350.84 93.4663 1354.56 90.2748 1352.79 87.3184C1351.37 84.9532 1349.77 83.7145 1347.9 84.6999C1348.71 80.9243 1344.8 68.8064 1340.92 64.4474C1336.08 58.9985 1317.01 66.2636 1313.68 73.5288Z" fill="#FFCF97"/>
<path d="M1336.51 102.087C1334.46 103.78 1330.37 106.302 1326.35 106.672M1326.35 106.672C1324.62 106.832 1322.9 106.593 1321.37 105.719C1315.02 102.087 1310.35 80.7939 1313.68 73.5288C1317.01 66.2636 1336.08 58.9985 1340.92 64.4474C1344.8 68.8064 1348.71 80.9243 1347.9 84.6999C1349.77 83.7145 1351.37 84.9532 1352.79 87.3184C1354.56 90.2748 1350.84 93.4663 1349.53 94.9409C1348.84 95.7183 1347.17 95.7513 1346.79 95.6391C1344.69 100.921 1342.26 110.116 1345.71 115.585C1339.79 118.197 1327.4 120.818 1324.72 118.69C1325.56 116.213 1327.05 110.341 1326.35 106.672Z" stroke="black" stroke-width="0.3"/>
<g style="mix-blend-mode:multiply">
<path d="M1326.28 111.42C1330.23 111.017 1336.23 106.279 1336.7 101.844C1335.29 103.971 1329.37 105.777 1326.28 106.785C1326.85 108.236 1326.52 110.479 1326.28 111.42Z" fill="#E4C197"/>
</g>
<path d="M1321.48 98.3814C1324.25 99.3068 1326.71 96.7163 1325.84 95.704" stroke="#FF1616" stroke-linecap="round" stroke-linejoin="round"/>
<path d="M1324.67 87.0243C1325.51 87.2766 1327.47 87.6299 1328.54 87.0243C1329.62 86.4186 1329.83 85.6503 1329.81 85.3418M1318.87 87.9497C1318.5 88.2862 1317.47 88.9424 1316.26 88.8751C1315.05 88.8078 1314.47 88.2302 1314.33 87.9497" stroke="black" stroke-linecap="round" stroke-linejoin="round"/>
<path d="M1325.72 79.4746C1334.39 83.7227 1334.76 66.7246 1334.62 66.0002C1340.46 64.8789 1342.7 67.2259 1344 72.0734C1345.86 78.9998 1345.16 87.1438 1345.8 86.0965C1346.44 85.0491 1348.54 84.3508 1350.63 87.1438C1352.73 89.9368 1348.77 94.1263 1347.78 94.1263H1346.1C1343.07 97.1054 1343.16 108.634 1344 114.148L1346.59 113.233C1351.51 112.509 1366.73 122.361 1368.9 125.983C1370.64 128.881 1374.45 139.264 1376.14 144.094C1380.25 143.466 1387.53 139.37 1383.82 128.011C1379.19 113.813 1367.02 89.9064 1361.08 66.0002C1355.14 42.0941 1332.67 46.8587 1315.82 64.2599C1312.97 67.2077 1301.52 78.2251 1309.4 84.2885C1313.12 87.1438 1313.12 73.2996 1325.72 79.4746Z" fill="#D39143" stroke="black" stroke-width="0.3"/>
<g style="mix-blend-mode:multiply">
<path d="M1370.13 128.407C1376.04 122.964 1374.47 107.803 1372.95 100.902C1375.41 106.934 1380.89 120.402 1383.09 126.019C1385.84 133.04 1384.1 137.889 1383.09 139.988C1382.07 142.087 1377.51 143.824 1376.21 144.114C1374.91 144.403 1362.75 135.211 1370.13 128.407Z" fill="#C4C4C4"/>
</g>
<g style="mix-blend-mode:multiply">
<path d="M1320.17 72.1947C1324.09 69.9806 1330.94 72.0689 1333.88 73.3898C1333 78.1075 1329.66 81.0011 1326.14 79.6172C1322.62 78.2333 1319.6 77.9817 1317.27 78.3592C1314.94 78.7366 1312.87 82.1333 1312.18 83.5172C1311.62 84.6243 1310.35 84.5656 1309.79 84.3979C1307.56 83.5392 1306.57 81.1397 1306.7 78.7995C1306.83 76.7507 1307.91 74.7894 1308.53 73.3898C1310.77 73.914 1316.24 74.4089 1320.17 72.1947Z" fill="#C4C4C4"/>
</g>
<g style="mix-blend-mode:multiply">
<path d="M1342.17 62.0389C1337.13 61.2986 1335.02 64.3104 1334.6 65.9088C1335.78 65.6845 1338.59 65.505 1340.41 66.5818C1342.68 67.9278 1345.62 72.5548 1345.71 85.9309C1346.21 85.6505 1347.34 85.1065 1347.81 85.1738C1348.4 85.2579 1351.85 86.9405 1351.17 89.7166C1350.5 92.4928 1348.48 94.2595 1347.81 94.2595H1345.71C1344.39 97.0917 1342.22 104.944 1344.11 113.693C1344.51 112.683 1351.79 115.179 1355.3 116.02C1354.62 115.628 1353.92 111.763 1353.45 106.878C1352.6 98.2134 1355.45 94.2397 1354.88 85.9309C1354.37 78.6119 1348.48 62.9644 1342.17 62.0389Z" fill="#C4C4C4"/>
</g>
<g style="mix-blend-mode:multiply">
<path d="M1349.24 88.3425C1348.96 87.2059 1347.18 87.6585 1346.32 88.0268C1346.83 89.7633 1344.78 92.368 1346.32 92.4864C1347.86 92.6048 1349.6 89.7632 1349.24 88.3425Z" fill="#E3C49E"/>
</g>
<path d="M1304.13 321.251C1304.77 316.465 1345.88 249.333 1366.35 216.364C1366.35 210.382 1312.18 207.93 1305.8 215.108C1299.42 222.287 1266.42 299.335 1269.8 313.818C1270.62 317.333 1265.45 357.808 1261.06 381.471H1293.76C1296.96 363.391 1303.5 326.036 1304.13 321.251Z" fill="#913F3E" stroke="black" stroke-width="0.3"/>
<g style="mix-blend-mode:multiply">
<path d="M1290.9 320.256C1294.52 294.679 1336.4 238.242 1356.39 213.154C1360.95 212.551 1369.3 212.47 1366.25 216.978C1363.19 221.486 1323.11 287.173 1304.17 320.256L1293.69 381.295H1282.13L1290.9 320.256Z" fill="#F1C3C3"/>
</g>
<path d="M1363.46 118.767C1357.02 114.846 1349.04 111.525 1344.38 113.198C1343.15 118.767 1328.01 118.767 1325.9 114.192C1320.37 115.264 1305.71 118.229 1300.44 125.068C1293.44 134.17 1286.44 156.225 1286.44 156.225L1292.82 158.914C1292 177.235 1288.4 220.774 1294.84 221.054C1302.9 221.404 1375.36 217.897 1375.36 215.446C1375.36 213.486 1370.6 175.787 1365.11 162.831C1368.5 163.86 1372.41 163.867 1375.36 162.831C1381.67 154.779 1371.51 123.668 1363.46 118.767Z" fill="#705091"/>
<path d="M1345.41 143.312C1342.37 149.617 1340.8 154.922 1343.15 156.225C1344.35 156.888 1352.47 160.076 1365.11 162.831M1365.11 162.831C1368.5 163.86 1372.41 163.867 1375.36 162.831C1381.67 154.779 1371.51 123.668 1363.46 118.767C1357.02 114.846 1349.04 111.525 1344.38 113.198C1343.15 118.767 1328.01 118.767 1325.9 114.192C1320.37 115.264 1305.71 118.229 1300.44 125.068C1293.44 134.17 1286.44 156.225 1286.44 156.225L1292.82 158.914C1292 177.235 1288.4 220.774 1294.84 221.054C1302.9 221.404 1375.36 217.897 1375.36 215.446C1375.36 213.486 1370.6 175.787 1365.11 162.831Z" stroke="black" stroke-width="0.3"/>
<g style="mix-blend-mode:multiply">
<path d="M1342.83 150.034C1342.1 149.498 1342.24 154.308 1342.24 155.571C1346.34 154.258 1363.96 160.238 1372.25 163.392C1373.04 163.568 1374.83 163.669 1375.67 162.668C1376.51 161.668 1376.97 158.614 1377.09 157.212C1374.82 157.528 1367.26 154.721 1359.57 153.07C1351.88 151.418 1344.05 150.922 1342.83 150.034Z" fill="#C4C4C4"/>
</g>
<g style="mix-blend-mode:multiply">
<path d="M1300.52 124.76L1295.11 134.627C1294.08 145.295 1291.91 197.898 1291.35 198.688C1291.35 212.207 1292.33 220.254 1294.66 221.053H1302.8C1301.65 218.119 1294.41 144.799 1300.52 124.76Z" fill="#C4C4C4"/>
</g>
<path d="M1295.05 198.121V127.848H1219.09V198.121H1295.05Z" fill="#691A10" stroke="black" stroke-width="0.3"/>
<g style="mix-blend-mode:multiply">
<path d="M1294.8 128.239L1219.15 198.211L1219.15 128.239L1294.8 128.239Z" fill="#EAEAEA"/>
</g>
<path d="M1354.15 198.297C1359.36 194.492 1370.43 175.469 1372.25 163.329C1368.16 159.104 1351.18 155.877 1342.88 155.302C1339.52 158.17 1334.72 169.26 1332.73 174.447C1329.68 174.447 1297.34 168.193 1293.07 164.608C1288.8 161.023 1288.11 156.523 1285.98 154.844C1283.84 153.166 1283.86 157.917 1284.68 159.345C1285.98 161.603 1284.45 165.294 1283 165.065C1281.55 164.836 1268.82 157.895 1268.21 159.345C1267.72 160.504 1274.72 164.869 1277.88 167.589C1275.6 166.493 1264.01 160.641 1262.71 163.082C1261.68 165.035 1270.87 169.171 1275.6 171.383C1274.46 170.849 1261.95 166.743 1262.03 168.955C1262.08 170.364 1266.9 172.318 1270.78 173.608C1266.03 172.408 1264.12 173.607 1264.7 175.134C1265.23 176.527 1274.64 178.84 1278.69 179.545C1282.74 180.25 1347.63 203.053 1354.15 198.297Z" fill="#FFCF97" stroke="black" stroke-width="0.3"/>
<g style="mix-blend-mode:multiply">
<path d="M1354.7 206.406C1362.71 203.777 1368.79 191.27 1370.84 185.345L1368.9 174.75C1370.52 172.843 1371.8 166.406 1372.24 163.426C1372.14 162.186 1366.79 160.287 1364.13 159.492C1361.75 169.148 1354.81 188.649 1346.13 189.412C1335.29 190.366 1282.5 178.833 1280.69 178.565C1278.88 178.297 1278.21 179.034 1278.88 179.369C1279.42 179.637 1289.62 182.963 1294.66 184.593V185.345C1311.34 193.461 1346.7 209.034 1354.7 206.406Z" fill="#C4C4C4"/>
</g>
<path d="M1012.11 388.188C1012.11 384.286 984.748 377.099 977.615 372.932C977.615 364.033 965.961 364.033 963.207 365.517C960.452 367 955.155 379.077 955.579 384.586C956.003 390.095 959.817 388.188 968.928 388.188C978.038 388.188 1012.11 394.843 1012.11 388.188Z" fill="#83BBDB" stroke="black" stroke-width="0.3"/>
<g style="mix-blend-mode:multiply">
<path d="M964.088 384.406C960.657 383.927 957.405 381.812 956.208 380.814C955.332 381.538 955.792 384.406 955.703 385.388C955.614 386.37 956.549 388.058 958.908 388.503C961.267 388.949 967.365 388.548 969.101 388.058C970.837 387.569 984.622 389.649 990.199 390.284C996.901 391.047 1010.9 391.619 1011.7 389.127C1012.34 387.133 1009.65 385.625 1008.23 385.121C1008.49 386.812 1002.6 386.201 996.31 387.398C990.026 388.596 968.378 385.004 964.088 384.406Z" fill="#779FBC"/>
</g>
<path d="M977.942 372.713C979.108 371.271 1000.5 325.682 1011.3 300.892C1014.02 294.677 979.945 284.366 973.589 290.511C967.233 296.655 960.249 361.964 960.739 369.606C961.017 373.934 976.289 374.76 977.942 372.713Z" fill="#0E1526" stroke="black" stroke-width="0.3"/>
<path d="M1029.07 187.66C1026.62 183.275 1025.35 168.996 1018.5 162.144C1010.24 159.446 1004.26 170.484 1002.19 174.56C1009.49 184.68 1025.1 204.898 1029.07 204.814C1039.63 204.814 1053.75 192.391 1050.74 191.89C1048.33 191.489 1035.29 188.903 1029.07 187.66Z" fill="#6D7AC0" stroke="black" stroke-width="0.3"/>
<path d="M1087.59 381.475C1088.68 380.381 1109.39 254.799 1119.6 192.145H1029.31L1033.96 381.475C1051.38 381.931 1086.5 382.57 1087.59 381.475Z" fill="#290C12" stroke="black" stroke-width="0.3"/>
<path d="M902.771 381.769C902.771 378.016 903.031 326.295 902.771 300.1H882.994C882.04 327.597 881.042 377.681 881.042 380.747C881.042 386.492 902.771 386.004 902.771 381.769Z" fill="#290C12" stroke="black" stroke-width="0.3"/>
<path d="M894.963 300.881C917.447 301.089 928.792 295.242 931.655 292.293C936.079 286.828 910.316 280.843 890.539 279.542C870.762 278.241 852.835 284.242 852.314 288.406C851.794 292.569 866.859 300.62 894.963 300.881Z" fill="#421B23" stroke="black" stroke-width="0.3"/>
<path d="M912.261 155.578C942.626 132.304 986.431 131.941 1004.54 134.668C1012.49 133.077 1014.08 150.351 1018.4 164.215C1022.72 178.08 998.856 213.991 993.174 219.9C987.492 225.81 963.854 241.947 957.49 242.401C951.126 242.856 866.804 207.854 866.576 206.49C866.349 205.127 874.304 184.671 912.261 155.578Z" fill="#808CCF" stroke="black" stroke-width="0.3"/>
<path d="M859.833 256.122C856.549 238.068 864.964 214.515 868.072 207.241C876.547 200.461 950.494 241.354 963.419 241.778C976.343 242.201 1028.47 255.338 1050.5 273.984C1072.54 292.629 1122.54 359.796 1126.99 367.423C1131.44 375.051 1116.82 378.441 1112.58 374.627C1108.35 370.813 997.955 303.435 963.419 298.562C928.882 293.689 868.072 301.401 859.833 256.122Z" fill="#141B2D" stroke="black" stroke-width="0.3"/>
<path d="M1165.77 387.764C1163.39 381.662 1138.79 371.802 1126.78 367.635C1119.58 367.635 1108.56 375.263 1106.44 380.772C1104.32 386.28 1106.86 390.094 1117.24 387.764C1127.63 385.433 1168.73 395.391 1165.77 387.764Z" fill="#83BBDB" stroke="black" stroke-width="0.3"/>
<g style="mix-blend-mode:multiply">
<path d="M1120.29 383.088C1114.27 383.495 1109.23 380.68 1107.47 379.221C1101.44 386.35 1108.84 388.094 1111.73 388.416C1114.63 388.737 1120.29 387.363 1122.75 387.363C1125.2 387.363 1158.86 391.15 1162.8 390.426C1165.95 389.847 1165.83 388.143 1165.38 387.363C1158.66 390.722 1127.83 382.579 1120.29 383.088Z" fill="#7CA9C2"/>
</g>
<path d="M1051.01 132.318C1046.07 128.791 1049.37 123.333 1047.04 112.773C1045 100.614 1028.04 96.6578 1022.29 101.149C1014.47 107.259 1020.65 115.791 1021.73 121.533C1021.73 122.277 1020.22 119.856 1018.42 120.756C1014.69 122.619 1015.32 125.393 1016.92 127.893C1018.42 130.254 1019.99 130.514 1020.79 130.958C1018.02 132.389 1011.87 134.926 1008.24 136.249C1008.12 140.011 1013.63 151.373 1016.47 155.684L1023.53 142.752C1024.65 147.062 1028.7 155.213 1035.87 153.332C1043.04 151.451 1045.62 143.045 1046.01 139.078C1052.33 139.813 1057.18 136.726 1051.01 132.318Z" fill="#FFAAAA" stroke="black" stroke-width="0.3"/>
<g style="mix-blend-mode:multiply">
<path d="M1044.89 136.727C1044.15 137.349 1044.73 138.364 1046.02 139.165C1047.43 139.165 1049.61 139 1050.65 138.812C1050.75 137.186 1045.81 135.949 1044.89 136.727Z" fill="#CFCFCF"/>
</g>
<g style="mix-blend-mode:multiply">
<path d="M1018.74 123.793C1018.01 124.415 1017.62 126.769 1019.87 128.423C1021.28 128.423 1021.92 127.828 1021.92 126.968C1021.92 124.256 1019.66 123.016 1018.74 123.793Z" fill="#CFCFCF"/>
</g>
<g style="mix-blend-mode:multiply">
<path d="M1022.77 140.141C1023.32 140.264 1023.71 141.457 1023.52 142.21C1023.39 142.482 1018.21 152.821 1017.5 152.963C1016.8 153.105 1013.43 151.342 1013.9 150.106C1014.36 148.87 1022.07 139.986 1022.77 140.141Z" fill="#E9D5D5"/>
</g>
<path d="M1039.17 120.394C1041.54 119.666 1042.79 122.542 1043.27 123.806C1043.8 127.521 1041.51 129.507 1039.17 128.128C1036.82 126.739 1036.21 121.304 1039.17 120.394Z" fill="black" fill-opacity="0.5"/>
<path d="M1047.97 123.806C1046.83 122.062 1044.25 122.289 1043.27 123.806M1043.27 123.806C1042.79 122.542 1041.54 119.666 1039.17 120.394C1036.21 121.304 1036.82 126.739 1039.17 128.128C1041.51 129.507 1043.8 127.521 1043.27 123.806Z" stroke="black" stroke-width="0.3"/>
<g style="mix-blend-mode:multiply">
<path d="M1038.65 130.395C1036.5 129.455 1036.84 126.25 1037.28 124.765C1038.8 126.233 1041.78 125.548 1043.3 123.639C1044.52 122.111 1046.97 122.219 1047.95 123.639V125.548C1046.58 124.03 1043.11 125.94 1043.01 127.066C1042.91 128.192 1041.34 131.57 1038.65 130.395Z" fill="#C4C4C4"/>
</g>
<path d="M1043.49 146.718C1039.79 148.91 1030.82 145.965 1033.9 136.375" stroke="black" stroke-width="0.3"/>
<path d="M1030.09 143.965C1031.18 145.694 1033.74 143.486 1034.04 143.426C1034.04 143.235 1033.52 141.751 1033.26 141.033C1032.48 141.033 1029.4 142.884 1030.09 143.965Z" fill="#D16C6C" stroke="black" stroke-width="0.3"/>
<path d="M1115.3 191.885C1127.35 192.426 1138.46 149.818 1140.4 138.52C1142.34 127.223 1132.34 124.223 1131.09 129.218L1115.77 183.938C1115.77 183.938 1103.24 191.344 1115.3 191.885Z" fill="#504F77" stroke="black" stroke-width="0.3"/>
<g style="mix-blend-mode:multiply">
<path d="M1116.42 187.206C1126.81 180.717 1135.25 145.735 1138 128.688C1139.24 128.688 1140.79 133.879 1140.79 135.566C1140.79 136.597 1140.48 139.043 1139.94 141.515C1139.4 143.987 1134.84 161.138 1133.84 164.382C1132.83 167.627 1127.19 180.374 1126.03 182.46C1124.87 184.546 1121.63 189.104 1120.01 190.185C1118.71 191.051 1116.79 191.988 1115.99 192.349L1116.42 187.206Z" fill="#A9A8A8"/>
</g>
<path d="M1066.09 184.033H1115.63C1118.75 187.64 1116.93 191.028 1115.63 192.272H1072.02L1066.09 184.033Z" fill="#29294B" stroke="black" stroke-width="0.3"/>
<g style="mix-blend-mode:multiply">
<path d="M999.68 133.914L1004.54 134.671C1006.13 140.255 1009.86 152.419 1012.11 156.396C1014.92 161.368 1019.03 164.287 1019.24 165.8C1019.42 167.011 1018.67 170.268 1018.27 171.745C1017.87 170.448 1016.89 167.724 1016.11 167.205C1015.14 166.557 1013.41 173.042 1012.11 171.745C1010.81 170.448 1004.54 159.855 1002.38 153.802C1000.65 148.96 999.86 138.526 999.68 133.914Z" fill="#BEC2D7"/>
</g>
<path d="M1076.73 162.564C1072.69 163.834 1069.76 172.617 1068.8 176.85C1067.08 182.516 1069.81 186.086 1075.58 186.663C1080.2 187.125 1084.45 184.17 1086 182.635C1086.13 183.828 1086.81 184.747 1088.71 184.354C1092.9 183.488 1097.52 171.078 1096.51 169.49C1095.7 168.22 1094.05 168.961 1093.33 169.49C1093.67 169.009 1094.14 167.701 1093.33 166.316C1092.52 164.93 1089.43 166.219 1087.99 167.037C1088.62 166.267 1089.49 164.468 1087.99 163.429C1086.49 162.391 1083.42 163.862 1082.07 164.728C1081.98 163.477 1080.78 161.293 1076.73 162.564Z" fill="#FFAAAA"/>
<path d="M1086.4 179.881C1086.13 180.651 1085.9 181.723 1086 182.635M1086 182.635C1086.13 183.828 1086.81 184.747 1088.71 184.354C1092.9 183.488 1097.52 171.078 1096.51 169.49C1095.7 168.22 1094.05 168.961 1093.33 169.49C1093.67 169.009 1094.14 167.701 1093.33 166.316C1092.52 164.93 1089.43 166.219 1087.99 167.037C1088.62 166.267 1089.49 164.468 1087.99 163.429C1086.49 162.391 1083.42 163.862 1082.07 164.728C1081.98 163.477 1080.78 161.293 1076.73 162.564C1072.69 163.834 1069.76 172.617 1068.8 176.85C1067.08 182.516 1069.81 186.086 1075.58 186.663C1080.2 187.125 1084.45 184.17 1086 182.635Z" stroke="black" stroke-width="0.3"/>
<g style="mix-blend-mode:multiply">
<path d="M1085.98 182.596C1085.47 182.051 1088.21 177.953 1086.63 177.953C1083.86 178.525 1080.11 180.649 1078.66 182.418C1077.21 184.187 1078.05 185.87 1078.66 186.49C1079.86 186.563 1086.49 183.142 1085.98 182.596Z" fill="#E6C3C3"/>
</g>
<path d="M1030.9 199.446C1024.36 197.991 1009.69 172.929 1003.18 160.58C980.793 144.57 954.831 162.599 957.323 177.932C959.815 193.266 995.465 220.291 1001.02 226.808C1006.58 233.325 1018.55 240.2 1032.89 233.179C1047.23 226.157 1075.81 189.761 1078.19 187.091C1080.56 184.42 1077.04 181.263 1073.86 181.945C1070.68 182.627 1039.09 201.264 1030.9 199.446Z" fill="#9CA6DC" stroke="black" stroke-width="0.3"/>
<g style="mix-blend-mode:multiply">
<path d="M969.684 213.091C958.576 200.886 954.897 183.745 956.497 175.631C956.897 172.089 959.363 165.917 962.517 163.723C973.374 178.75 997.761 210.794 1008.46 218.748C1021.83 228.69 1031.43 229.718 1037.26 225.947C1043.08 222.176 1075.48 183.779 1077.88 183.264C1078.47 183.929 1079.4 185.561 1078.46 186.772C1077.29 188.285 1049.96 221.53 1041.74 227.677C1033.53 233.824 1025.93 238.166 1010.58 234.444C1003.6 229.637 998.775 225.098 993.544 219.948L984.097 227.677C983.469 228.591 980.792 225.296 969.684 213.091Z" fill="#ABAEC1"/>
</g>
<path d="M1015.82 152.138C1012.21 148.697 1010.6 140.805 1010.9 135.584C1007.67 134.032 1005.28 134.142 1004.48 134.39C1004.33 137.225 1004.39 144.415 1005.82 150.502C1007.26 156.588 1008.97 164.655 1011.79 167.657C1012.29 167.11 1013.79 165.509 1015.82 163.48C1018.35 160.944 1019.25 169.895 1020.89 167.657C1022.2 165.867 1022.03 154.502 1019.06 150.502C1018.96 151.247 1017.83 154.054 1015.82 152.138Z" fill="#FFE24D" stroke="black" stroke-width="0.3"/>
<g style="mix-blend-mode:multiply">
<path d="M1006.84 134.52C1006.35 143.774 1011.46 158.974 1014.07 165.417C1013.4 166.194 1011.98 167.7 1011.65 167.504C1011.32 167.308 1010.54 166.031 1010.19 165.417C1008.74 163.21 1005.47 148.979 1005.01 145.098C1004.65 141.993 1004.61 136.752 1004.63 134.52H1006.84Z" fill="#C4C4C4"/>
</g>
<path d="M1245.37 36.0352C1246.97 38.4352 1245.37 43.7018 1244.37 46.0352C1242.52 45.3813 1239.41 43.8295 1237.37 41.6034C1236.29 40.4252 1235.51 39.058 1235.37 37.5352C1235.29 36.6322 1235.23 35.798 1235.2 35.0352C1235.06 32.081 1235.24 30.1975 1235.37 29.5352C1236.78 30.1533 1239.06 31.2673 1241.12 32.5352C1242.42 33.3358 1243.64 34.1979 1244.51 35.0352C1244.86 35.3745 1245.15 35.7097 1245.37 36.0352Z" fill="#D2C75F"/>
<path d="M1244.37 46.0352C1245.37 43.7018 1246.97 38.4352 1245.37 36.0352C1245.15 35.7097 1244.86 35.3745 1244.51 35.0352M1244.37 46.0352C1242.52 45.3813 1239.41 43.8295 1237.37 41.6034M1244.37 46.0352C1242.81 45.4105 1241.48 44.298 1240.37 42.9146M1235.37 29.5352C1235.62 31.7765 1236.36 35.2832 1237.79 38.5352M1235.37 29.5352C1236.78 30.1533 1239.06 31.2673 1241.12 32.5352M1235.37 29.5352C1235.24 30.1975 1235.06 32.081 1235.2 35.0352M1237.79 38.5352C1239.15 37.5352 1241.72 34.9352 1241.12 32.5352M1237.79 38.5352C1238.11 39.2731 1238.47 39.998 1238.87 40.6919M1241.12 32.5352C1242.42 33.3358 1243.64 34.1979 1244.51 35.0352M1236.37 35.0352C1236.09 35.2018 1235.46 35.4352 1235.2 35.0352M1235.2 35.0352C1235.23 35.798 1235.29 36.6322 1235.37 37.5352C1235.51 39.058 1236.29 40.4252 1237.37 41.6034M1238.87 40.6919C1238.54 41.0185 1237.77 41.6581 1237.37 41.6034M1238.87 40.6919C1239.32 41.4815 1239.82 42.2312 1240.37 42.9146M1240.37 42.9146C1241.8 41.9548 1244.62 39.0352 1244.51 35.0352" stroke="black" stroke-width="0.3"/>
<path d="M1243.7 197.696C1242.03 200.076 1243.61 204.081 1244.61 205.786C1246.1 205.038 1249.14 203.072 1249.36 201.187C1249.57 199.302 1247.94 195.396 1247.09 193.678C1246.65 194.026 1245.36 195.316 1243.7 197.696Z" fill="#ECE17E" stroke="black" stroke-width="0.3"/>
<path d="M1247.93 182.774C1246.15 183.384 1245.45 186.084 1245.32 187.357C1246.39 187.536 1248.73 187.666 1249.56 186.761C1250.4 185.857 1251.03 183.188 1251.24 181.966C1250.88 181.982 1249.71 182.164 1247.93 182.774Z" fill="#ECE17E" stroke="black" stroke-width="0.3"/>
<path d="M1283.21 166.779C1282.24 168.406 1278.66 168.938 1276.99 169.001C1276.98 168.923 1276.97 168.842 1276.97 168.757C1276.81 166.7 1277.1 162.677 1279.51 161.259C1280 160.967 1280.46 160.708 1280.89 160.48C1282.64 159.549 1283.83 159.115 1284.26 159.006C1284.31 160.646 1284.22 163.991 1283.58 165.937C1283.48 166.262 1283.35 166.547 1283.21 166.779Z" fill="#B1A7C7"/>
<path d="M1284.26 159.006C1284.31 160.646 1284.22 163.991 1283.58 165.937M1284.26 159.006C1283.84 160.412 1283.04 162.493 1281.93 164.375M1284.26 159.006C1283.83 159.115 1282.64 159.549 1280.89 160.48M1276.97 168.757C1276.97 168.842 1276.98 168.923 1276.99 169.001C1278.66 168.938 1282.24 168.406 1283.21 166.779C1283.35 166.547 1283.48 166.262 1283.58 165.937M1276.97 168.757C1276.81 166.7 1277.1 162.677 1279.51 161.259C1280 160.967 1280.46 160.708 1280.89 160.48M1276.97 168.757C1278.45 168.557 1279.78 167.421 1280.89 165.937M1280.89 165.937C1281.35 166.125 1282.53 166.387 1283.58 165.937M1280.89 165.937C1281.26 165.447 1281.61 164.92 1281.93 164.375M1281.93 164.375C1281.24 163.778 1280.07 162.163 1280.89 160.48" stroke="black" stroke-width="0.3"/>
<path d="M1229.66 71.1524C1230.64 72.779 1234.22 73.3112 1235.89 73.374C1235.9 73.2964 1235.9 73.215 1235.91 73.1304C1236.07 71.0732 1235.78 67.0503 1233.37 65.632C1232.88 65.3405 1232.41 65.0815 1231.99 64.8526C1230.24 63.9221 1229.05 63.4881 1228.62 63.3793C1228.57 65.0194 1228.66 68.3642 1229.3 70.3105C1229.4 70.6347 1229.53 70.9201 1229.66 71.1524Z" fill="#B1A7C7"/>
<path d="M1228.62 63.3793C1228.57 65.0194 1228.66 68.3642 1229.3 70.3105M1228.62 63.3793C1229.04 64.7851 1229.84 66.8662 1230.95 68.748M1228.62 63.3793C1229.05 63.4881 1230.24 63.9221 1231.99 64.8526M1235.91 73.1304C1235.9 73.215 1235.9 73.2964 1235.89 73.374C1234.22 73.3112 1230.64 72.779 1229.66 71.1524C1229.53 70.9201 1229.4 70.6347 1229.3 70.3105M1235.91 73.1304C1236.07 71.0732 1235.78 67.0503 1233.37 65.632C1232.88 65.3405 1232.41 65.0815 1231.99 64.8526M1235.91 73.1304C1234.43 72.9304 1233.1 71.7943 1231.99 70.3105M1231.99 70.3105C1231.53 70.498 1230.35 70.7605 1229.3 70.3105M1231.99 70.3105C1231.62 69.8205 1231.27 69.2926 1230.95 68.748M1230.95 68.748C1231.64 68.1511 1232.81 66.5363 1231.99 64.8526" stroke="black" stroke-width="0.3"/>
<path d="M1257.6 261.262C1257.38 264.462 1256.31 266.192 1255.1 267.06C1254.04 267.819 1252.88 267.917 1252.1 267.762C1248.91 266.793 1243.29 263.156 1242.17 255.762C1241.94 254.254 1241.89 252.591 1242.1 250.762C1242.36 248.431 1242.74 246.656 1243.19 245.262C1244.83 240.196 1247.42 240.16 1248.6 236.762C1247.59 242.394 1248.92 246.488 1250.83 249.762C1252.46 252.541 1254.52 254.728 1255.93 256.762C1257 258.287 1257.7 259.725 1257.6 261.262Z" fill="#C37D5E"/>
<path d="M1248.6 236.762C1247.71 240.404 1246.92 245.89 1247.19 251.262M1248.6 236.762C1247.59 242.394 1248.92 246.488 1250.83 249.762M1248.6 236.762C1247.42 240.16 1244.83 240.196 1243.19 245.262M1255.1 267.06C1256.31 266.192 1257.38 264.462 1257.6 261.262C1257.7 259.725 1257 258.287 1255.93 256.762M1255.1 267.06C1254.04 267.819 1252.88 267.917 1252.1 267.762C1248.91 266.793 1243.29 263.156 1242.17 255.762M1255.1 267.06C1252.5 265.873 1250.67 263.81 1249.44 261.262M1247.8 256.262C1246.61 256.762 1243.82 257.362 1242.17 255.762M1247.8 256.262C1247.47 254.648 1247.28 252.96 1247.19 251.262M1247.8 256.262C1248.17 258.046 1248.7 259.74 1249.44 261.262M1242.17 255.762C1241.94 254.254 1241.89 252.591 1242.1 250.762C1242.36 248.431 1242.74 246.656 1243.19 245.262M1247.19 251.262C1248.15 251.095 1250.22 250.562 1250.83 249.762M1250.83 249.762C1252.46 252.541 1254.52 254.728 1255.93 256.762M1247.1 247.762C1245.82 247.428 1243.26 246.462 1243.19 245.262M1249.44 261.262C1250.71 261.095 1253.8 259.962 1255.93 256.762" stroke="black" stroke-width="0.3"/>
<path d="M1135.22 78.9378C1136.02 81.1143 1137.08 82.2728 1138.12 82.8262C1139.37 83.4933 1140.58 83.2806 1141.28 82.9112C1143.38 81.5262 1146.53 77.9655 1146.61 72.7803C1146.64 70.9243 1146.27 68.8601 1145.33 66.6131C1145.28 66.5004 1145.23 66.3894 1145.18 66.2803C1141.66 58.1365 1138.87 59.892 1136.63 56.7603C1136.63 56.7631 1136.63 56.7664 1136.63 56.7701C1138.78 61.0581 1138.73 64.676 1137.99 67.7803C1137.45 70.0303 1136.55 72.0105 1135.88 73.7803C1135.13 75.7277 1134.65 77.4204 1135.22 78.9378Z" fill="#BE9E4A"/>
<path d="M1136.63 56.7603C1136.78 57.0644 1140 62.3515 1141.05 68.7803M1136.63 56.7603C1138.78 61.0525 1138.73 64.6736 1137.99 67.7803M1136.63 56.7603C1138.87 59.892 1141.66 58.1365 1145.18 66.2803M1138.12 82.8262C1137.08 82.2728 1136.02 81.1143 1135.22 78.9378C1134.65 77.4204 1135.13 75.7277 1135.88 73.7803M1138.12 82.8262C1139.37 83.4933 1140.58 83.2806 1141.28 82.9112C1143.38 81.5262 1146.53 77.9655 1146.61 72.7803M1138.12 82.8262C1139.46 81.0773 1140.31 79.1987 1140.81 77.2803M1141.31 74.2803C1142.24 74.4469 1144.6 74.3803 1146.61 72.7803M1141.31 74.2803C1141.23 75.2826 1141.07 76.2868 1140.81 77.2803M1141.31 74.2803C1141.4 73.1668 1141.39 72.0556 1141.31 70.9637M1146.61 72.7803C1146.64 70.9243 1146.27 68.8601 1145.33 66.6131C1145.28 66.5004 1145.23 66.3894 1145.18 66.2803M1141.05 68.7803C1140.31 68.836 1138.68 68.714 1137.99 67.7803M1141.05 68.7803C1141.16 69.4957 1141.25 70.2252 1141.31 70.9637M1137.99 67.7803C1137.45 70.0303 1136.55 72.0105 1135.88 73.7803M1140.81 77.2803C1139.75 77.2803 1137.28 76.5803 1135.88 73.7803M1141.31 70.9637C1142.55 70.5692 1145.07 69.0803 1145.18 66.2803" stroke="black" stroke-width="0.3"/>
<path d="M1224.52 148.564C1224.93 150.51 1224.6 151.747 1224.03 152.501C1223.5 153.211 1222.76 153.491 1222.23 153.529C1220.82 153.494 1218.56 152.921 1216.62 151.277C1215.01 149.921 1213.63 147.837 1213.13 144.723C1213.01 143.962 1212.93 143.285 1212.89 142.68C1212.56 137.809 1214.59 137.559 1214.75 134.945C1215.29 140.687 1218.74 143.1 1221.4 145.051C1222.09 145.56 1222.73 146.038 1223.26 146.536C1223.9 147.15 1224.36 147.794 1224.52 148.564Z" fill="#D2C75F"/>
<path d="M1214.75 134.945C1214.72 137.306 1215.11 140.948 1216.39 144.343M1214.75 134.945C1214.59 137.559 1212.56 137.809 1212.89 142.68M1214.75 134.945C1215.43 142.187 1220.73 144.133 1223.26 146.536M1224.03 152.501C1224.6 151.747 1224.93 150.51 1224.52 148.564C1224.36 147.794 1223.9 147.15 1223.26 146.536M1224.03 152.501C1223.5 153.211 1222.76 153.491 1222.23 153.529C1220.82 153.494 1218.56 152.921 1216.62 151.277M1224.03 152.501C1223.25 152.258 1222.53 151.931 1221.86 151.534M1219.78 149.89C1219.43 150.306 1218.3 151.166 1216.62 151.277M1219.78 149.89C1219.3 149.412 1218.87 148.894 1218.48 148.344M1219.78 149.89C1220.4 150.517 1221.09 151.073 1221.86 151.534M1216.62 151.277C1215.01 149.921 1213.63 147.837 1213.13 144.723C1213.01 143.962 1212.93 143.285 1212.89 142.68M1216.39 144.343C1215.78 144.516 1214.22 144.425 1212.89 142.68M1216.39 144.343C1216.92 145.756 1217.61 147.127 1218.48 148.344M1218.48 148.344C1219.19 147.901 1220.68 146.917 1221.4 145.051M1221.86 151.534C1222.49 150.751 1223.64 148.654 1223.26 146.536" stroke="black" stroke-width="0.3"/>
<path d="M1252.73 67.1723C1252.83 68.5977 1253.16 69.6114 1253.61 70.3203C1254.49 71.7248 1255.82 71.9328 1256.6 71.7759C1258.76 71.1137 1262.52 68.6927 1263.49 63.8203C1263.73 62.6129 1263.8 61.2548 1263.63 59.7357C1263.54 58.8773 1263.42 58.1254 1263.28 57.4624C1262.21 52.2181 1260 52.545 1259.06 49.8203C1259.96 54.9072 1258.2 58.2232 1256.31 60.8203C1254.51 63.2855 1252.59 65.1029 1252.73 67.1723Z" fill="#D2C75F"/>
<path d="M1259.06 49.8203C1259.65 52.3217 1260.31 56.4915 1260.24 60.3203M1259.06 49.8203C1260 52.545 1262.21 52.2181 1263.28 57.4624M1259.06 49.8203C1259.96 54.9072 1258.2 58.2232 1256.31 60.8203M1253.61 70.3203C1253.16 69.6114 1252.83 68.5977 1252.73 67.1723C1252.59 65.1029 1254.51 63.2855 1256.31 60.8203M1253.61 70.3203C1254.49 71.7248 1255.82 71.9328 1256.6 71.7759C1258.76 71.1137 1262.52 68.6927 1263.49 63.8203M1253.61 70.3203C1255.11 70.3203 1257.31 68.6536 1258.22 67.8203C1258.7 67.2816 1259.08 66.6019 1259.37 65.8203M1260.24 60.3203C1261.14 59.9151 1263.01 58.7761 1263.28 57.4624M1260.24 60.3203C1260.21 61.5436 1260.11 62.7321 1259.91 63.8203M1263.28 57.4624C1263.42 58.1254 1263.54 58.8773 1263.63 59.7357C1263.8 61.2548 1263.73 62.6129 1263.49 63.8203M1256.31 60.8203C1256.55 62.487 1257.49 65.8203 1259.37 65.8203M1259.37 65.8203C1259.6 65.2096 1259.78 64.5367 1259.91 63.8203M1259.91 63.8203C1260.53 64.1536 1262.1 64.6203 1263.49 63.8203" stroke="black" stroke-width="0.3"/>
<path d="M1172.39 143.373C1173.99 145.373 1176.39 145.54 1177.39 145.373C1178.78 145.373 1178.39 141.873 1175.89 139.873C1173.89 138.273 1172.23 136.706 1170.89 136.373C1170.73 137.873 1170.79 141.373 1172.39 143.373Z" fill="#ECE17E" stroke="black" stroke-width="0.3"/>
<path d="M1166.24 159.743C1167.11 160.848 1168.42 160.94 1168.96 160.848C1169.71 160.848 1169.51 158.914 1168.15 157.809C1167.06 156.925 1166.15 156.059 1165.43 155.875C1165.34 156.704 1165.37 158.638 1166.24 159.743Z" fill="#ECE17E" stroke="black" stroke-width="0.3"/>
<path d="M1257.38 119.041C1256.17 121.302 1253.85 121.908 1252.83 121.929C1251.47 122.184 1251.2 118.674 1253.29 116.247C1254.96 114.305 1256.31 112.458 1257.56 111.885C1258 113.328 1258.58 116.78 1257.38 119.041Z" fill="#FFC37C" stroke="black" stroke-width="0.3"/>
<path d="M1205.46 92.373C1207.96 94.373 1208.34 97.873 1206.95 97.873C1206.1 98.0148 1204.24 97.9154 1202.72 96.6517C1202.45 96.4297 1202.19 96.1718 1201.95 95.873C1201.25 94.9885 1200.84 93.8106 1200.62 92.6421C1200.34 91.1684 1200.36 89.7097 1200.45 88.873C1201.66 89.1746 1203.14 90.4858 1204.89 91.9178C1205.08 92.0685 1205.26 92.2206 1205.46 92.373Z" fill="#D2C75F"/>
<path d="M1206.95 97.873C1208.34 97.873 1207.96 94.373 1205.46 92.373C1205.26 92.2206 1205.08 92.0685 1204.89 91.9178M1206.95 97.873C1206.39 97.6426 1205.73 97.0194 1205.03 96.1851M1206.95 97.873C1206.1 98.0148 1204.24 97.9154 1202.72 96.6517M1200.45 88.873C1201.66 89.1746 1203.14 90.4858 1204.89 91.9178M1200.45 88.873C1200.93 89.7998 1201.62 91.0728 1202.4 92.373M1200.45 88.873C1200.36 89.7097 1200.34 91.1684 1200.62 92.6421M1204.03 94.873C1204.32 94.4029 1204.89 93.1536 1204.89 91.9178M1204.03 94.873C1203.47 94.0878 1202.92 93.2246 1202.4 92.373M1204.03 94.873C1204.37 95.345 1204.7 95.7889 1205.03 96.1851M1202.4 92.373C1202.05 92.5524 1201.2 92.8574 1200.62 92.6421M1200.62 92.6421C1200.84 93.8106 1201.25 94.9885 1201.95 95.873C1202.19 96.1718 1202.45 96.4297 1202.72 96.6517M1205.03 96.1851C1204.54 96.4335 1203.38 96.8746 1202.72 96.6517" stroke="black" stroke-width="0.3"/>
<path d="M1270.46 44.0703C1272.96 46.0703 1273.34 49.5703 1271.95 49.5703C1271.1 49.7121 1269.24 49.6127 1267.72 48.3489C1267.45 48.127 1267.19 47.8691 1266.95 47.5703C1266.25 46.6858 1265.84 45.5079 1265.62 44.3394C1265.34 42.8657 1265.36 41.4069 1265.45 40.5703C1266.66 40.8719 1268.14 42.183 1269.89 43.615C1270.08 43.7658 1270.26 43.9179 1270.46 44.0703Z" fill="#D2C75F"/>
<path d="M1271.95 49.5703C1273.34 49.5703 1272.96 46.0703 1270.46 44.0703C1270.26 43.9179 1270.08 43.7658 1269.89 43.615M1271.95 49.5703C1271.39 49.3399 1270.73 48.7167 1270.03 47.8824M1271.95 49.5703C1271.1 49.7121 1269.24 49.6127 1267.72 48.3489M1265.45 40.5703C1266.66 40.8719 1268.14 42.183 1269.89 43.615M1265.45 40.5703C1265.93 41.4971 1266.62 42.7701 1267.4 44.0703M1265.45 40.5703C1265.36 41.4069 1265.34 42.8657 1265.62 44.3394M1269.03 46.5703C1269.32 46.1001 1269.89 44.8508 1269.89 43.615M1269.03 46.5703C1268.47 45.785 1267.92 44.9218 1267.4 44.0703M1269.03 46.5703C1269.37 47.0423 1269.7 47.4861 1270.03 47.8824M1267.4 44.0703C1267.05 44.2497 1266.2 44.5546 1265.62 44.3394M1265.62 44.3394C1265.84 45.5079 1266.25 46.6858 1266.95 47.5703C1267.19 47.8691 1267.45 48.127 1267.72 48.3489M1270.03 47.8824C1269.54 48.1308 1268.38 48.5718 1267.72 48.3489" stroke="black" stroke-width="0.3"/>
<path d="M1139.54 280.078C1141.7 280.612 1144.33 282.834 1147.42 285.341C1147.95 285.772 1148.5 286.212 1149.06 286.654C1150 287.4 1150.79 288.258 1151.42 289.153C1153.97 292.764 1154.02 296.986 1151.91 296.986C1150.4 297.235 1147.2 297.088 1144.42 295.128C1143.7 294.623 1143.02 293.998 1142.39 293.229C1141.51 292.139 1140.87 290.813 1140.42 289.409C1139.31 285.974 1139.31 282.079 1139.54 280.078Z" fill="#C37D5E"/>
<path d="M1151.91 296.986C1154.02 296.986 1153.97 292.764 1151.42 289.153M1151.91 296.986C1151.17 296.862 1150.18 296.017 1149.06 294.738M1151.91 296.986C1150.4 297.235 1147.2 297.088 1144.42 295.128M1139.54 280.078C1141.7 280.612 1144.33 282.834 1147.42 285.341M1139.54 280.078C1140.73 282.277 1142.52 285.383 1144.42 288.336M1139.54 280.078C1139.31 282.079 1139.31 285.974 1140.42 289.409M1146.42 291.322C1147.25 290.749 1148.62 288.751 1147.42 285.341M1146.42 291.322C1145.75 290.375 1145.08 289.365 1144.42 288.336M1146.42 291.322C1146.89 291.995 1147.36 292.636 1147.82 293.229M1147.42 285.341C1147.95 285.772 1148.5 286.212 1149.06 286.654C1150 287.4 1150.79 288.258 1151.42 289.153M1151.42 289.153C1151.34 290.901 1150.76 294.466 1149.06 294.738M1149.06 294.738C1148.66 294.285 1148.24 293.778 1147.82 293.229M1144.42 288.336C1143.92 289.051 1142.42 290.268 1140.42 289.409M1140.42 289.409C1140.87 290.813 1141.51 292.139 1142.39 293.229C1143.02 293.998 1143.7 294.623 1144.42 295.128M1147.82 293.229C1147.36 293.879 1146.04 295.168 1144.42 295.128" stroke="black" stroke-width="0.3"/>
<path d="M1281.55 25.9679C1280.58 25.6461 1278.54 24.3733 1278.07 21.8565C1277.96 21.304 1277.96 20.7223 1278.02 20.1377C1278.25 18.0592 1279.36 15.9436 1280.03 14.9706C1280.59 15.4761 1281.06 16.3578 1281.55 17.4399C1281.94 18.3267 1282.34 19.3479 1282.8 20.4069C1282.96 20.7814 1283.08 21.1613 1283.17 21.5378C1283.37 22.4697 1283.36 23.3809 1283.21 24.1377C1282.93 25.4745 1282.23 26.3298 1281.55 25.9679Z" fill="#D2C75F"/>
<path d="M1281.55 25.9679C1280.58 25.6461 1278.54 24.3733 1278.07 21.8565C1277.96 21.304 1277.96 20.7223 1278.02 20.1377M1281.55 25.9679C1281.21 25.6566 1280.93 25.1979 1280.71 24.6377M1281.55 25.9679C1282.23 26.3298 1282.93 25.4745 1283.21 24.1377M1280.03 14.9706C1279.94 15.8122 1279.88 16.93 1279.87 18.1377M1280.03 14.9706C1280.59 15.4761 1281.06 16.3578 1281.55 17.4399M1280.03 14.9706C1279.36 15.9436 1278.25 18.0592 1278.02 20.1377M1280.03 21.5378C1280.49 21.9148 1281.76 22.4425 1283.17 21.5378M1280.03 21.5378C1279.98 21.0792 1279.94 20.6092 1279.91 20.1377M1280.03 21.5378C1280.15 22.6982 1280.37 23.7854 1280.71 24.6377M1283.17 21.5378C1283.08 21.1613 1282.96 20.7814 1282.8 20.4069C1282.34 19.3479 1281.94 18.3267 1281.55 17.4399M1283.17 21.5378C1283.37 22.4697 1283.36 23.3809 1283.21 24.1377M1279.87 18.1377C1280.3 18.1725 1281.25 18.0817 1281.55 17.4399M1279.87 18.1377C1279.87 18.788 1279.88 19.4643 1279.91 20.1377M1279.91 20.1377C1279.65 20.3044 1278.91 20.5377 1278.02 20.1377M1280.71 24.6377C1281.3 24.8044 1282.63 24.9377 1283.21 24.1377" stroke="black" stroke-width="0.3"/>
<path d="M1238.21 167.901C1237.25 167.58 1235.21 166.307 1234.73 163.79C1234.63 163.238 1234.62 162.656 1234.69 162.071C1234.92 159.993 1236.03 157.877 1236.69 156.904C1237.25 157.41 1237.73 158.291 1238.21 159.374C1238.61 160.26 1239.01 161.282 1239.47 162.34C1239.63 162.715 1239.75 163.095 1239.83 163.471C1240.04 164.403 1240.03 165.314 1239.87 166.071C1239.6 167.408 1238.89 168.263 1238.21 167.901Z" fill="#D2C75F"/>
<path d="M1238.21 167.901C1237.25 167.58 1235.21 166.307 1234.73 163.79C1234.63 163.238 1234.62 162.656 1234.69 162.071M1238.21 167.901C1237.87 167.59 1237.59 167.131 1237.37 166.571M1238.21 167.901C1238.89 168.263 1239.6 167.408 1239.87 166.071M1236.69 156.904C1236.61 157.746 1236.54 158.864 1236.54 160.071M1236.69 156.904C1237.25 157.41 1237.73 158.291 1238.21 159.374M1236.69 156.904C1236.03 157.877 1234.92 159.993 1234.69 162.071M1236.69 163.471C1237.15 163.848 1238.43 164.376 1239.83 163.471M1236.69 163.471C1236.64 163.013 1236.61 162.543 1236.58 162.071M1236.69 163.471C1236.82 164.632 1237.03 165.719 1237.37 166.571M1239.83 163.471C1239.75 163.095 1239.63 162.715 1239.47 162.34C1239.01 161.282 1238.61 160.26 1238.21 159.374M1239.83 163.471C1240.04 164.403 1240.03 165.314 1239.87 166.071M1236.54 160.071C1236.97 160.106 1237.91 160.015 1238.21 159.374M1236.54 160.071C1236.53 160.722 1236.54 161.398 1236.58 162.071M1236.58 162.071C1236.32 162.238 1235.57 162.471 1234.69 162.071M1237.37 166.571C1237.97 166.738 1239.3 166.871 1239.87 166.071" stroke="black" stroke-width="0.3"/>
<path d="M1282.66 101.4C1284.25 100.868 1287.62 98.7642 1288.41 94.6036C1288.62 93.5139 1288.59 92.3554 1288.41 91.202C1287.91 87.9517 1286.21 84.7413 1285.17 83.2202C1284.24 84.0558 1283.46 85.5134 1282.66 87.3023C1282.01 88.7682 1281.34 90.4565 1280.59 92.2071C1280.01 93.5355 1279.76 94.905 1279.73 96.1719C1279.65 99.5386 1281.19 102.181 1282.66 101.4Z" fill="#ECE17E"/>
<path d="M1282.66 101.4C1284.25 100.868 1287.62 98.7642 1288.41 94.6036C1288.62 93.5139 1288.59 92.3554 1288.41 91.202M1282.66 101.4C1283.45 100.682 1284.03 99.548 1284.46 98.1719M1282.66 101.4C1281.19 102.181 1279.65 99.5386 1279.73 96.1719M1285.17 83.2202C1286.21 84.7413 1287.91 87.9517 1288.41 91.202M1285.17 83.2202C1285.36 84.883 1285.51 87.2121 1285.5 89.6719M1285.17 83.2202C1284.24 84.0558 1283.46 85.5134 1282.66 87.3023M1285.38 92.6719C1286.19 92.8586 1287.92 92.8261 1288.41 91.202M1285.38 92.6719C1285.45 91.674 1285.49 90.6623 1285.5 89.6719M1285.38 92.6719C1285.24 94.65 1284.96 96.5741 1284.46 98.1719M1285.5 89.6719C1284.76 89.9255 1283.17 89.8066 1282.66 87.3023M1282.66 87.3023C1282.01 88.7682 1281.34 90.4565 1280.59 92.2071C1280.01 93.5355 1279.76 94.905 1279.73 96.1719M1284.46 98.1719C1283.28 98.5052 1280.69 98.5719 1279.73 96.1719" stroke="black" stroke-width="0.3"/>
<path d="M1222.26 86.526C1223.51 87.3638 1224.68 89.279 1226.03 91.5353C1226.43 92.2082 1226.85 92.9113 1227.29 93.6253C1227.62 94.1627 1227.88 94.7191 1228.09 95.2773C1229.35 98.7552 1228.26 102.302 1226.66 101.728C1225.33 101.488 1222.49 100.266 1221.16 97.2773C1221.07 97.074 1220.99 96.8626 1220.91 96.6427C1220.25 94.7331 1220.45 92.4331 1220.91 90.4314C1221.28 88.8133 1221.84 87.3903 1222.26 86.526Z" fill="#704A4A"/>
<path d="M1226.66 101.728C1225.33 101.488 1222.49 100.266 1221.16 97.2773M1226.66 101.728C1225.78 101.177 1225.04 99.7712 1224.43 97.9819M1226.66 101.728C1228.26 102.302 1229.35 98.7552 1228.09 95.2773M1222.26 86.526C1223.51 87.3638 1224.68 89.279 1226.03 91.5353M1222.26 86.526C1222.36 87.6843 1222.53 89.1772 1222.78 90.7773M1222.26 86.526C1221.84 87.3903 1221.28 88.8133 1220.91 90.4314M1223.34 93.9156C1224.03 93.7082 1225.52 92.9417 1226.03 91.5353M1223.34 93.9156C1223.12 92.8653 1222.94 91.7995 1222.78 90.7773M1223.34 93.9156C1223.54 94.8509 1223.76 95.7739 1224.01 96.6427M1226.03 91.5353C1226.43 92.2082 1226.85 92.9113 1227.29 93.6253C1227.62 94.1627 1227.88 94.7191 1228.09 95.2773M1222.78 90.7773C1222.32 90.88 1221.3 90.9546 1220.91 90.4314M1220.91 90.4314C1220.45 92.4331 1220.25 94.7331 1220.91 96.6427C1220.99 96.8626 1221.07 97.074 1221.16 97.2773M1221.16 97.2773C1221.58 97.5804 1222.83 98.1455 1224.43 97.9819M1224.43 97.9819C1224.28 97.5552 1224.14 97.1066 1224.01 96.6427M1224.01 96.6427C1224.92 96.6875 1227.01 96.4773 1228.09 95.2773" stroke="black" stroke-width="0.3"/>
<path d="M1272.44 72.9325C1273.44 72.993 1274.76 73.7025 1276.29 74.5488C1276.75 74.8011 1277.23 75.0656 1277.72 75.3287C1278.09 75.5267 1278.43 75.7586 1278.73 76.0118C1280.63 77.5894 1281.2 79.9959 1280.08 80.2043C1279.23 80.5136 1277.19 80.7642 1275.42 79.4907C1275.3 79.4041 1275.18 79.3104 1275.06 79.2092C1274.04 78.3306 1273.38 76.9416 1272.97 75.6336C1272.65 74.5763 1272.48 73.5718 1272.44 72.9325Z" fill="#704A4A"/>
<path d="M1280.08 80.2043C1279.23 80.5136 1277.19 80.7642 1275.42 79.4907M1280.08 80.2043C1279.39 80.1821 1278.49 79.6227 1277.53 78.7988M1280.08 80.2043C1281.2 79.9959 1280.63 77.5894 1278.73 76.0118M1272.44 72.9325C1273.44 72.993 1274.76 73.7025 1276.29 74.5488M1272.44 72.9325C1272.88 73.5656 1273.48 74.3671 1274.17 75.2051M1272.44 72.9325C1272.48 73.5718 1272.65 74.5763 1272.97 75.6336M1275.55 76.8211C1275.87 76.4717 1276.47 75.5281 1276.29 74.5488M1275.55 76.8211C1275.07 76.2905 1274.6 75.7403 1274.17 75.2051M1275.55 76.8211C1275.97 77.2936 1276.41 77.7507 1276.84 78.1679M1276.29 74.5488C1276.75 74.8011 1277.23 75.0656 1277.72 75.3287C1278.09 75.5267 1278.43 75.7586 1278.73 76.0118M1274.17 75.2051C1273.93 75.4192 1273.37 75.8046 1272.97 75.6336M1272.97 75.6336C1273.38 76.9416 1274.04 78.3306 1275.06 79.2092C1275.18 79.3104 1275.3 79.4041 1275.42 79.4907M1275.42 79.4907C1275.76 79.5233 1276.67 79.4306 1277.53 78.7988M1277.53 78.7988C1277.31 78.6023 1277.08 78.3908 1276.84 78.1679M1276.84 78.1679C1277.38 77.8871 1278.52 77.0626 1278.73 76.0118" stroke="black" stroke-width="0.3"/>
<path d="M1155.12 109.395C1155.29 108.805 1155.54 108.228 1155.84 107.669C1157.7 104.192 1161.63 101.402 1163.61 100.327C1164.24 101.993 1164.08 104.605 1163.83 107.669C1163.74 108.707 1163.65 109.797 1163.57 110.919C1163.49 112.187 1163.18 113.375 1162.74 114.429C1161.26 117.985 1158.27 120.025 1157.22 118.502C1156.43 117.696 1155.28 115.942 1154.87 113.669C1154.65 112.384 1154.66 110.933 1155.12 109.395Z" fill="#FFE999"/>
<path d="M1157.22 118.502C1156.95 117.661 1157 116.506 1157.26 115.169M1157.22 118.502C1156.43 117.696 1155.28 115.942 1154.87 113.669M1157.22 118.502C1158.27 120.025 1161.26 117.985 1162.74 114.429M1163.61 100.327C1161.63 101.402 1157.7 104.192 1155.84 107.669M1163.61 100.327C1162.46 102.31 1160.85 105.347 1159.52 108.444M1163.61 100.327C1164.24 101.993 1164.08 104.605 1163.83 107.669M1158.43 111.169C1157.45 110.669 1155.56 109.269 1155.84 107.669M1158.43 111.169C1158.24 111.677 1158.07 112.178 1157.91 112.669M1158.43 111.169C1158.76 110.272 1159.12 109.356 1159.52 108.444M1155.84 107.669C1155.54 108.228 1155.29 108.805 1155.12 109.395C1154.66 110.933 1154.65 112.384 1154.87 113.669M1157.26 115.169C1156.49 114.836 1154.93 114.069 1154.87 113.669M1157.26 115.169C1157.41 114.389 1157.64 113.547 1157.91 112.669M1157.91 112.669C1159.04 113.509 1161.59 115.037 1162.74 114.429M1162.74 114.429C1163.18 113.375 1163.49 112.187 1163.57 110.919C1163.65 109.797 1163.74 108.707 1163.83 107.669M1159.52 108.444C1160.5 108.852 1162.74 109.269 1163.83 107.669" stroke="black" stroke-width="0.3"/>
<path d="M1308.8 135.031C1308.98 134.441 1309.22 133.865 1309.52 133.306C1311.38 129.829 1315.31 127.038 1317.3 125.964C1317.93 127.63 1317.76 130.242 1317.51 133.306C1317.43 134.344 1317.33 135.434 1317.26 136.556C1317.17 137.824 1316.86 139.011 1316.42 140.066C1314.94 143.622 1311.96 145.661 1310.9 144.138C1310.12 143.333 1308.96 141.579 1308.56 139.306C1308.33 138.021 1308.35 136.57 1308.8 135.031Z" fill="#FFE999"/>
<path d="M1310.9 144.138C1310.64 143.298 1310.68 142.142 1310.95 140.806M1310.9 144.138C1310.12 143.333 1308.96 141.579 1308.56 139.306M1310.9 144.138C1311.96 145.661 1314.94 143.622 1316.42 140.066M1317.3 125.964C1315.31 127.038 1311.38 129.829 1309.52 133.306M1317.3 125.964C1316.14 127.947 1314.54 130.984 1313.2 134.081M1317.3 125.964C1317.93 127.63 1317.76 130.242 1317.51 133.306M1312.11 136.806C1311.14 136.306 1309.25 134.906 1309.52 133.306M1312.11 136.806C1311.93 137.314 1311.76 137.815 1311.6 138.306M1312.11 136.806C1312.44 135.909 1312.81 134.992 1313.2 134.081M1309.52 133.306C1309.22 133.865 1308.98 134.441 1308.8 135.031C1308.35 136.57 1308.33 138.021 1308.56 139.306M1310.95 140.806C1310.17 140.472 1308.62 139.706 1308.56 139.306M1310.95 140.806C1311.1 140.025 1311.32 139.183 1311.6 138.306M1311.6 138.306C1312.73 139.146 1315.27 140.674 1316.42 140.066M1316.42 140.066C1316.86 139.011 1317.17 137.824 1317.26 136.556C1317.33 135.434 1317.43 134.344 1317.51 133.306M1313.2 134.081C1314.19 134.489 1316.43 134.906 1317.51 133.306" stroke="black" stroke-width="0.3"/>
<path d="M1193.82 229.407C1195.92 230.872 1198.27 230.353 1199.18 229.91C1200.51 229.519 1199.15 226.27 1196.18 225.059C1193.81 224.091 1191.77 223.06 1190.4 223.117C1190.66 224.603 1191.72 227.941 1193.82 229.407Z" fill="#ECE17E" stroke="black" stroke-width="0.3"/>
<path d="M1200.36 173.501C1202.21 179.754 1197.94 183.731 1195.11 184.845C1193.86 185.339 1192.5 185.353 1191.43 184.845C1190.09 184.209 1189.21 182.754 1189.57 180.404C1190.17 179.643 1190.87 178.733 1191.43 177.679C1192.23 176.17 1192.75 174.368 1192.31 172.295C1192.25 172.048 1192.21 171.804 1192.18 171.562C1191.74 168.355 1192.87 165.631 1192.31 164.483C1192.39 164.465 1192.47 164.452 1192.56 164.442C1193.93 164.288 1195.45 165.235 1196.81 166.795C1197.92 168.065 1198.92 169.742 1199.68 171.562C1199.94 172.195 1200.17 172.845 1200.36 173.501Z" fill="#CBA9B3"/>
<path d="M1192.56 164.442C1192.47 164.452 1192.39 164.465 1192.31 164.483C1192.87 165.631 1191.74 168.355 1192.18 171.562M1192.56 164.442C1193.93 164.288 1195.45 165.235 1196.81 166.795M1192.56 164.442C1193.08 165.896 1193.66 167.897 1194.06 170.113M1191.43 184.845C1192.5 185.353 1193.86 185.339 1195.11 184.845C1197.94 183.731 1202.21 179.754 1200.36 173.501C1200.17 172.845 1199.94 172.195 1199.68 171.562M1191.43 184.845C1190.09 184.209 1189.21 182.754 1189.57 180.404C1190.17 179.643 1190.87 178.733 1191.43 177.679M1191.43 184.845C1192.75 183.612 1193.58 181.972 1194.06 180.135M1194.57 174.795C1195.64 174.64 1198.17 173.776 1199.68 171.562M1194.57 174.795C1194.54 174.019 1194.49 173.242 1194.4 172.476M1194.57 174.795C1194.62 176.633 1194.49 178.465 1194.06 180.135M1199.68 171.562C1198.92 169.742 1197.92 168.065 1196.81 166.795M1196.81 166.795C1196.54 167.674 1195.62 169.568 1194.06 170.113M1194.06 170.113C1194.2 170.88 1194.31 171.672 1194.4 172.476M1194.4 172.476C1193.87 172.427 1192.68 172.176 1192.18 171.562M1192.18 171.562C1192.21 171.804 1192.25 172.048 1192.31 172.295C1192.75 174.368 1192.23 176.17 1191.43 177.679M1191.43 177.679C1191.81 178.278 1192.86 179.606 1194.06 180.135" stroke="black" stroke-width="0.3"/>
<path d="M1096.39 112.15C1098.35 115.439 1101.76 115.192 1103.37 114.419C1104.08 114.076 1104.63 113.497 1104.84 112.835C1105.1 112.005 1104.82 111.045 1103.67 110.259C1103.1 110.217 1102.43 110.154 1101.75 109.974C1100.79 109.716 1099.8 109.219 1099.09 108.201C1099 108.08 1098.91 107.964 1098.82 107.854C1097.62 106.383 1096 105.782 1095.73 105.082C1095.69 105.111 1095.65 105.141 1095.61 105.174C1094.99 105.705 1094.8 106.734 1094.92 107.942C1095.03 108.926 1095.35 110.03 1095.83 111.08C1096 111.446 1096.19 111.804 1096.39 112.15Z" fill="#CBA9B3"/>
<path d="M1095.61 105.174C1095.65 105.141 1095.69 105.111 1095.73 105.082C1096 105.782 1097.62 106.383 1098.82 107.854M1095.61 105.174C1094.99 105.705 1094.8 106.734 1094.92 107.942M1095.61 105.174C1096.02 105.981 1096.66 107.026 1097.45 108.083M1104.84 112.835C1104.63 113.497 1104.08 114.076 1103.37 114.419C1101.76 115.192 1098.35 115.439 1096.39 112.15C1096.19 111.804 1096 111.446 1095.83 111.08M1104.84 112.835C1105.1 112.005 1104.82 111.045 1103.67 110.259C1103.1 110.217 1102.43 110.154 1101.75 109.974M1104.84 112.835C1103.78 112.911 1102.74 112.613 1101.76 112.084M1099.26 110.172C1098.76 110.573 1097.38 111.317 1095.83 111.08M1099.26 110.172C1098.94 109.852 1098.63 109.517 1098.33 109.175M1099.26 110.172C1100.03 110.93 1100.87 111.602 1101.76 112.084M1095.83 111.08C1095.35 110.03 1095.03 108.926 1094.92 107.942M1094.92 107.942C1095.41 108.179 1096.59 108.538 1097.45 108.083M1097.45 108.083C1097.73 108.449 1098.02 108.816 1098.33 109.175M1098.33 109.175C1098.52 108.926 1098.89 108.313 1098.82 107.854M1098.82 107.854C1098.91 107.964 1099 108.08 1099.09 108.201C1099.8 109.219 1100.79 109.716 1101.75 109.974M1101.75 109.974C1101.86 110.374 1102.02 111.356 1101.76 112.084" stroke="black" stroke-width="0.3"/>
<path d="M1201.83 263.807C1201.77 261.807 1202.81 260.973 1203.33 260.807C1203.58 261.753 1203.98 263.114 1204.43 264.527C1205.17 266.849 1206.09 269.312 1206.83 270.307C1207.26 270.872 1207.84 271.676 1208.42 272.574C1209.91 274.853 1211.41 277.73 1210.33 278.807C1209.53 279.608 1208.77 280.09 1207.83 280.079C1207.01 280.069 1206.06 279.684 1204.83 278.807C1203.06 277.544 1202.33 273.49 1202.03 269.666C1201.96 268.782 1201.92 267.91 1201.89 267.088C1201.84 265.835 1201.83 264.697 1201.83 263.807Z" fill="#704A4A"/>
<path d="M1203.33 260.807C1202.81 260.973 1201.77 261.807 1201.83 263.807C1201.83 265.281 1201.86 267.434 1202.03 269.666M1203.33 260.807C1203.33 261.923 1203.37 263.302 1203.47 264.807M1203.33 260.807C1203.58 261.753 1203.98 263.114 1204.43 264.527M1207.83 280.079C1207.01 280.069 1206.06 279.684 1204.83 278.807C1203.06 277.544 1202.33 273.49 1202.03 269.666M1207.83 280.079C1208.77 280.09 1209.53 279.608 1210.33 278.807C1211.41 277.73 1209.91 274.853 1208.42 272.574M1207.83 280.079C1206.66 279.241 1205.78 277.483 1205.12 275.307M1203.97 269.807C1203.39 270.046 1202.2 270.354 1202.03 269.666M1203.97 269.807C1203.83 268.873 1203.73 267.935 1203.64 267.019M1203.97 269.807C1204.24 271.734 1204.61 273.643 1205.12 275.307M1203.47 264.807C1203.65 264.954 1204.11 265.104 1204.43 264.527M1203.47 264.807C1203.51 265.52 1203.57 266.262 1203.64 267.019M1204.43 264.527C1205.17 266.849 1206.09 269.312 1206.83 270.307C1207.26 270.872 1207.84 271.676 1208.42 272.574M1203.64 267.019C1203.2 267.256 1202.23 267.588 1201.83 267.019M1205.12 275.307C1206.09 275.151 1208.1 274.387 1208.42 272.574" stroke="black" stroke-width="0.3"/>
<path d="M1117.35 61.1227C1117.39 59.6698 1116.58 59.0644 1116.16 58.9434C1115.84 60.0554 1115.23 61.9572 1114.59 63.5315C1114.18 64.5283 1113.77 65.3939 1113.4 65.8445C1112.94 66.4111 1112.24 67.3092 1111.62 68.2586C1110.66 69.7437 1109.91 71.3545 1110.64 72.0192C1111.04 72.3886 1111.43 72.6646 1111.85 72.8149C1112.67 73.1079 1113.61 72.9228 1114.98 72.0192C1116.06 71.3063 1116.65 69.3693 1116.97 67.2377C1117.31 65.025 1117.35 62.6027 1117.35 61.1227Z" fill="#B1A7C7"/>
<path d="M1116.16 58.9434C1116.58 59.0644 1117.39 59.6698 1117.35 61.1227C1117.35 62.6027 1117.31 65.025 1116.97 67.2377M1116.16 58.9434C1116.19 60.3485 1116.07 62.4547 1115.67 64.6494M1116.16 58.9434C1115.84 60.0554 1115.23 61.9572 1114.59 63.5315M1111.85 72.8149C1112.67 73.1079 1113.61 72.9228 1114.98 72.0192C1116.06 71.3063 1116.65 69.3693 1116.97 67.2377M1111.85 72.8149C1111.43 72.6646 1111.04 72.3886 1110.64 72.0192C1109.91 71.3545 1110.66 69.7437 1111.62 68.2586M1111.85 72.8149C1112.54 72.2589 1113.12 71.5321 1113.62 70.6965M1115.01 67.4434C1115.2 67.6396 1115.87 67.8732 1116.97 67.2377M1115.01 67.4434C1115.29 66.5273 1115.51 65.5804 1115.67 64.6494M1115.01 67.4434C1114.65 68.61 1114.2 69.7266 1113.62 70.6965M1115.67 64.6494C1115.39 64.6394 1114.78 64.402 1114.59 63.5315M1114.59 63.5315C1114.18 64.5283 1113.77 65.3939 1113.4 65.8445C1112.94 66.4111 1112.24 67.3092 1111.62 68.2586M1113.62 70.6965C1113.04 70.3223 1111.84 69.3109 1111.62 68.2586" stroke="black" stroke-width="0.3"/>
<path d="M1179.94 211.641C1183.24 207.451 1184.58 205.151 1185.23 205.697C1185.42 207.259 1186.15 210.741 1185.05 214.259C1184.44 216.192 1183.11 217.894 1181.45 219.189C1177.16 222.547 1170.71 223.171 1169.12 217.996C1173.11 216.456 1175.27 215.674 1176.95 214.543C1178.03 213.817 1178.91 212.947 1179.94 211.641Z" fill="#D2C75F"/>
<path d="M1169.12 217.996C1170.71 223.171 1177.16 222.547 1181.45 219.189M1169.12 217.996C1173.11 216.456 1175.27 215.674 1176.95 214.543M1169.12 217.996C1173.14 219.577 1176.41 218.561 1178.95 216.442M1185.23 205.697C1184.58 205.151 1183.24 207.451 1179.94 211.641C1178.91 212.947 1178.03 213.817 1176.95 214.543M1185.23 205.697C1185.42 207.259 1186.15 210.741 1185.05 214.259C1184.44 216.192 1183.11 217.894 1181.45 219.189M1185.23 205.697C1184.39 208.904 1182.31 213.638 1178.95 216.442M1177.45 217.996C1178.29 218.489 1180.25 219.417 1181.45 219.189M1180.95 214.904C1181.45 215.238 1182.85 215.804 1184.45 215.404M1176.95 214.543C1176.95 214.855 1177.35 215.672 1178.95 216.442" stroke="black" stroke-width="0.3"/>
<path d="M1183.13 42.9983C1179.82 38.8088 1178.49 36.5088 1177.83 37.0545C1177.65 38.6161 1176.92 42.098 1178.02 45.6165C1178.63 47.5494 1179.96 49.2514 1181.61 50.5466C1185.9 53.9041 1192.36 54.528 1193.94 49.3533C1189.95 47.8136 1187.79 47.0316 1186.11 45.9006C1185.04 45.1746 1184.16 44.3047 1183.13 42.9983Z" fill="#D2C75F"/>
<path d="M1193.94 49.3533C1192.36 54.528 1185.9 53.9041 1181.61 50.5466M1193.94 49.3533C1189.95 47.8136 1187.79 47.0316 1186.11 45.9006M1193.94 49.3533C1189.92 50.9345 1186.65 49.9186 1184.11 47.7993M1177.83 37.0545C1178.49 36.5088 1179.82 38.8088 1183.13 42.9983C1184.16 44.3047 1185.04 45.1746 1186.11 45.9006M1177.83 37.0545C1177.65 38.6161 1176.92 42.098 1178.02 45.6165C1178.63 47.5494 1179.96 49.2514 1181.61 50.5466M1177.83 37.0545C1178.68 40.261 1180.76 44.9957 1184.11 47.7993M1185.61 49.3533C1184.78 49.846 1182.81 50.7746 1181.61 50.5466M1182.11 46.2617C1181.61 46.5951 1180.21 47.1617 1178.61 46.7617M1186.11 45.9006C1186.11 46.2127 1185.71 47.0294 1184.11 47.7993" stroke="black" stroke-width="0.3"/>
<path d="M1241.57 105.334C1241.9 108.042 1242.63 108.852 1245.36 112.424C1241.76 115.609 1236.77 109.581 1237.9 105.057C1238.48 102.764 1240.04 101.106 1240.67 100.314C1241.2 100.233 1241.17 101.938 1241.57 105.334Z" fill="#ECE17E" stroke="black" stroke-width="0.3"/>
<path d="M1203.22 120C1203.54 122.708 1204.27 123.518 1207.01 127.09C1203.41 130.275 1198.42 124.247 1199.55 119.723C1200.12 117.43 1201.69 115.772 1202.31 114.98C1202.85 114.899 1202.81 116.604 1203.22 120Z" fill="#ECE17E" stroke="black" stroke-width="0.3"/>
<path d="M1226.78 51.5975C1227.1 54.3059 1227.83 55.116 1230.56 58.6872C1226.97 61.8728 1221.98 55.8451 1223.11 51.3205C1223.68 49.0276 1225.25 47.3695 1225.87 46.5775C1226.41 46.497 1226.37 48.2018 1226.78 51.5975Z" fill="#ECE17E" stroke="black" stroke-width="0.3"/>
<path d="M1027.35 110.364C1028.17 120.736 1021.63 117.215 1021.63 121.578C1001.7 83.3654 1038.31 96.6219 1043.65 100.499C1048.99 104.376 1051.27 99.2836 1052.17 94.9199C1057.98 102.368 1054.55 109.637 1046.9 111.171C1043.59 111.836 1026.56 100.496 1027.35 110.364Z" fill="black" stroke="black" stroke-width="0.3"/>
<path d="M648.167 257.488C615.262 289.273 588.446 389.801 579.15 436.092L587.516 433.443C594.255 415.028 607.872 377.213 608.43 373.278C609.127 368.359 628.996 321.437 632.481 311.977C635.967 302.517 659.321 249.163 657.23 248.785C655.557 248.482 650.491 254.46 648.167 257.488Z" fill="#3C1717" stroke="#3A2C08" stroke-width="0.3"/>
<path d="M675.861 177.855C670.153 180.42 652.372 197.374 644.195 205.53C617.692 232.02 589.963 279.584 572.142 328.434C555.862 373.061 548.62 418.932 542.53 447.327C549.909 450.776 564.313 456.174 562.898 450.169C561.13 442.663 587.092 354.972 597.96 322.485C608.828 289.998 671.425 189.462 672.932 186.233C673.877 184.207 677.601 180.159 678.478 178.22C678.998 177.069 678.517 176.661 675.861 177.855Z" fill="#A74935"/>
<path d="M678.478 178.22C678.998 177.069 678.517 176.661 675.861 177.855C670.153 180.42 652.372 197.374 644.195 205.53C617.692 232.02 589.963 279.584 572.142 328.434C555.862 373.061 548.62 418.932 542.53 447.327C549.909 450.776 564.313 456.174 562.898 450.169C561.13 442.663 587.092 354.972 597.96 322.485C608.828 289.998 671.425 189.462 672.932 186.233C673.877 184.207 677.601 180.159 678.478 178.22ZM678.478 178.22C662.057 193.078 623.72 235.615 601.74 286.901C579.76 338.187 575.349 361.401 575.891 366.597" stroke="#3A2C08" stroke-width="0.3"/>
<g style="mix-blend-mode:multiply">
<path d="M599.75 299.313C610.146 270.898 658.601 203.231 678.109 178.625C675.717 181.684 644.865 233.823 644.022 236.027C643.178 238.231 625.762 267.054 623.67 270.517L623.669 270.518C621.579 273.977 603.778 308.11 601.94 312.319C600.469 315.686 593.661 336.229 590.441 346.08C582.477 374.143 566.351 431.169 565.562 434.774C564.773 438.38 562.104 448.462 560.868 453.053L546.853 451.097C559.806 408.191 589.354 327.727 599.75 299.313Z" fill="#C4C4C4"/>
</g>
<path d="M667.844 292.19C641.702 336.463 623.014 400.684 626.15 419.604C633.819 415.063 682.618 343.167 684.012 333.707C685.128 326.139 701.906 300.282 710.155 288.3C711.085 281.362 711.34 266.201 704.927 261.054C696.91 254.622 693.987 247.917 667.844 292.19Z" fill="#AC6B4E" stroke="#3A2C08" stroke-width="0.3"/>
<g style="mix-blend-mode:multiply">
<path d="M693.903 312.836C704.308 283.957 692.031 264.535 682.246 269.618C685.024 266.216 688.397 260.804 692.87 258.161C698.461 254.857 703.618 260.03 705.906 265.24C707.736 269.408 710.518 281.871 710.518 287.535L693.903 312.836Z" fill="#C9D3A0"/>
</g>
<path d="M707.036 268.511C702.296 254.283 694.371 256.528 691.002 259.429C699.368 247.321 709.476 251.861 718.19 253.375C726.904 254.888 730.556 265.09 734.922 276.835C737.269 283.152 740.168 297.406 734.922 310.873C733.151 315.418 727.485 323.613 724.813 326.01C710.522 316.928 712.962 286.295 707.036 268.511Z" fill="#AC6B4E"/>
<path d="M724.813 326.01C710.522 316.928 712.962 286.295 707.036 268.511C702.296 254.283 694.371 256.528 691.002 259.429C699.368 247.321 709.476 251.861 718.19 253.375C726.904 254.888 730.556 265.09 734.922 276.835C737.269 283.152 740.168 297.406 734.922 310.873C733.151 315.418 727.485 323.613 724.813 326.01ZM724.813 326.01C727.021 320.543 730.111 305.5 724.813 289.06C719.515 272.621 713.227 262.456 710.745 259.429" stroke="#3A2C08" stroke-width="0.3"/>
<g style="mix-blend-mode:multiply">
<path d="M726.611 323.744C738.737 284.24 720.418 256.011 714.043 252.562C717.875 251.634 724.263 255.258 727.615 259.887C731.804 265.673 736.847 282.706 737.396 287.163C737.851 290.863 738.163 302.081 735.421 309.647C734.458 312.307 730.17 320.633 726.611 323.744Z" fill="#CCCDC9"/>
</g>
<path d="M523.709 326.612C541.487 349.789 551.373 419.067 551.954 422.221C554.185 447.044 517.907 427.645 513.84 459.808C507.682 421.969 493.484 342.353 485.955 326.612C478.439 310.897 461.496 311.474 453.925 313.735C453.912 313.739 453.899 313.743 453.887 313.747C453.899 313.743 453.912 313.739 453.925 313.735C480.41 305.808 513.845 313.753 523.709 326.612Z" fill="#FA9C7E" stroke="#3A2C08" stroke-width="0.3"/>
<g style="mix-blend-mode:multiply">
<path d="M522.395 359.162C504.745 321.849 481.581 312.765 469.183 311.456C466.448 311.207 462.723 312.072 461.203 312.536C463.863 312.707 470.084 313.368 473.69 314.649C478.198 316.25 485.094 325.095 486.747 327.368C488.4 329.641 496.046 364.15 497.286 366.63C498.526 369.109 509.064 435.028 509.891 438.954C510.552 442.095 512.922 453.488 514.024 458.792L549.983 447.181C535.532 447.181 540.302 397.017 522.395 359.162Z" fill="#C4C4C4"/>
</g>
<path d="M729.681 359.414C721.037 357.901 707.257 351.216 701.447 348.062C701.447 341.402 711.904 342.008 717.133 343.143C721.316 345.54 730.936 350.862 735.956 352.981C740.975 355.1 750.595 353.864 754.778 352.981V356.387C750.944 362.441 740.487 361.306 729.681 359.414Z" fill="#CC5344" stroke="#3A2C08" stroke-width="0.3"/>
<path d="M661.478 344.188C644.05 360.082 625.227 411.923 618.256 443.329L655.901 441.437C653.81 430.842 664.964 404.354 677.164 374.082C686.924 349.864 709.116 344.062 718.992 344.188C713.88 341.792 702.4 336.621 697.381 335.107C691.107 333.215 680.218 327.099 661.478 344.188Z" fill="#CC5344"/>
<path d="M718.992 344.188C713.88 341.792 702.4 336.621 697.381 335.107C691.107 333.215 680.218 327.099 661.478 344.188C644.05 360.082 625.227 411.923 618.256 443.329L655.901 441.437C653.81 430.842 664.964 404.354 677.164 374.082C686.924 349.864 709.116 344.062 718.992 344.188ZM718.992 344.188C705.599 343.029 673.726 349.412 653.372 384.223" stroke="#3A2C08" stroke-width="0.3"/>
<g style="mix-blend-mode:multiply">
<path d="M649.277 392.989C666.83 352.032 700.117 343.805 715.286 344.437C712.824 344.418 706.114 345.785 699.225 349.274C692.352 352.755 687.925 356.216 681.782 364.818C679.073 368.61 661.073 414.879 657.674 423.056C655.471 428.354 656.139 438.045 656.048 442.017L621.349 443.362C621.26 443.379 621.179 443.381 621.105 443.372L621.349 443.362C623.796 442.92 632.343 432.501 649.277 392.989Z" fill="#C4C4C4"/>
</g>
</svg>
